<?xml version="1.0" encoding="UTF-8" standalone="no"?>
<!-- Created with Inkscape (http://www.inkscape.org/) -->

<svg
   xmlns:dc="http://purl.org/dc/elements/1.1/"
   xmlns:cc="http://creativecommons.org/ns#"
   xmlns:rdf="http://www.w3.org/1999/02/22-rdf-syntax-ns#"
   xmlns:svg="http://www.w3.org/2000/svg"
   xmlns="http://www.w3.org/2000/svg"
   xmlns:sodipodi="http://sodipodi.sourceforge.net/DTD/sodipodi-0.dtd"
   xmlns:inkscape="http://www.inkscape.org/namespaces/inkscape"
   width="210mm"
   height="297mm"
   viewBox="0 0 210 297"
   version="1.1"
   id="svg8"
   sodipodi:docname="01.svg"
   inkscape:version="0.92.1 r15371">
  <defs
     id="defs2" />
  <sodipodi:namedview
     id="base"
     pagecolor="#ffffff"
     bordercolor="#666666"
     borderopacity="1.0"
     inkscape:pageopacity="0.0"
     inkscape:pageshadow="2"
     inkscape:zoom="0.35"
     inkscape:cx="-192.51128"
     inkscape:cy="979.4742"
     inkscape:document-units="mm"
     inkscape:current-layer="layer1"
     showgrid="false"
     inkscape:window-width="1269"
     inkscape:window-height="704"
     inkscape:window-x="0"
     inkscape:window-y="27"
     inkscape:window-maximized="1" />
  <metadata
     id="metadata5">
    <rdf:RDF>
      <cc:Work
         rdf:about="">
        <dc:format>image/svg+xml</dc:format>
        <dc:type
           rdf:resource="http://purl.org/dc/dcmitype/StillImage" />
        <dc:title></dc:title>
      </cc:Work>
    </rdf:RDF>
  </metadata>
  <g
     inkscape:label="Camada 1"
     inkscape:groupmode="layer"
     id="layer1">
    <path
       style="opacity:1;fill:#e6e6e6;fill-opacity:1;stroke:#cccccc;stroke-width:0.32466269;stroke-linecap:round;stroke-linejoin:round;stroke-miterlimit:4;stroke-dasharray:none;stroke-dashoffset:0;stroke-opacity:1"
       d="M 8.168808,13.371188 H 134.84415 V 41.739511 H 8.168808 Z"
       id="rect10" />
    <g
       id="g50"
       transform="translate(6.7092218,-24.806602)">
      <g
         aria-label="2+6=7"
         style="font-style:normal;font-variant:normal;font-weight:normal;font-stretch:normal;font-size:16.77563858px;line-height:1.25;font-family:'URW Gothic L';-inkscape-font-specification:'URW Gothic L';letter-spacing:0px;word-spacing:0px;fill:#000000;fill-opacity:1;stroke:none;stroke-width:0.41939095"
         id="text14">
        <path
           d="m 4.7000589,58.747304 0.4177527,-0.4669 Q 4.9867519,58.042858 4.8638834,57.862651 4.7492062,57.674253 4.7164413,57.592341 4.8802659,57.32203 5.1997239,56.7896 5.5191818,56.248979 5.9041696,55.552724 6.2891574,54.85647 6.7069101,54.053729 q 0.425944,-0.80274 0.8109318,-1.613672 0.319458,-0.671681 0.606151,-1.302405 0.286693,-0.638916 0.4587089,-1.171346 0.180207,-0.540621 0.2211632,-0.966565 0.040956,-0.434136 -0.1146772,-0.688064 -0.1146773,-0.188398 -0.4750914,-0.245737 -0.3604141,-0.06553 -0.8436966,-0.05734 -0.4750914,0.0082 -1.0239038,0.08191 -0.5406211,0.07372 -1.0075212,0.155633 L 5.8058749,47.541702 5.1178116,47.271391 5.5683292,46.689814 q -0.06553,-0.04915 -0.1310597,-0.122869 -0.06553,-0.04915 -0.1392509,-0.106486 -0.06553,-0.05734 -0.1474421,-0.122868 0.5160475,-0.204781 1.1795371,-0.376797 0.6634896,-0.180207 1.3597441,-0.27031 0.6962546,-0.0901 1.3597442,-0.06553 0.6634896,0.02457 1.2041111,0.237546 0.958374,0.384987 1.187728,1.228684 0.237546,0.835505 -0.147442,1.99866 -0.335841,1.007521 -0.720828,1.924939 -0.384988,0.909227 -0.8273146,1.843027 -0.4341352,0.941991 -0.9583739,1.924939 -0.5160475,0.982947 -1.1549634,2.170676 0.499665,0 1.0402862,0.0082 0.5406212,0.0082 1.0320949,0.01638 0.4996648,0.0082 0.9010358,0.02457 0.40137,0.01638 0.655298,0.01638 l 0.163824,0.458708 -1.154963,0.630725 1.073051,0.393179 -0.204781,0.499665 H 4.953987 Z"
           style="font-style:normal;font-variant:normal;font-weight:normal;font-stretch:normal;font-family:AngryBirds;-inkscape-font-specification:AngryBirds;stroke-width:0.41939095"
           id="path90" />
        <path
           d="m 12.375241,53.685124 0.671681,-0.573386 -0.303075,-1.122199 1.900365,-0.172015 0.01638,-2.375457 0.901036,-0.05734 0.540621,-0.581577 0.516047,0.03276 v 2.899695 l 2.06419,-0.147442 0.03277,0.286693 -0.581577,0.802741 0.565195,0.589768 -0.04915,0.311267 -2.06419,0.475091 -0.147442,2.686724 h -0.909226 l -0.720829,-0.07372 -0.114677,-2.375457 -2.219823,0.13106 z"
           style="font-style:normal;font-variant:normal;font-weight:normal;font-stretch:normal;font-family:AngryBirds;-inkscape-font-specification:AngryBirds;stroke-width:0.41939095"
           id="path92" />
        <path
           d="m 19.837451,54.569777 q -0.01638,-0.53243 -0.03277,-1.212302 -0.01638,-0.679872 0.01638,-1.433465 0.03277,-0.720829 0.106486,-1.474422 0.08191,-0.761784 0.26212,-1.46623 0.163824,-0.704446 0.442326,-1.294214 0.278502,-0.59796 0.679872,-1.040286 0.409562,-0.450518 0.950183,-0.720829 0.548812,-0.278501 1.269641,-0.344031 0.851887,-0.08191 1.597289,-0.04915 0.753593,0.03277 1.318788,0.19659 l -0.131059,0.237546 0.212972,0.286693 -1.253259,0.40137 1.376127,0.655298 -0.122868,0.163825 q -0.368606,-0.04915 -0.737211,-0.07372 -0.368605,-0.02457 -0.737211,0.0082 -0.499665,0.03276 -0.99933,0.188398 -0.491474,0.147442 -0.958374,0.499665 -0.303075,0.237546 -0.499665,0.557004 -0.188398,0.311267 -0.319458,0.745402 -0.122868,0.425944 -0.180207,0.991139 -0.05734,0.557003 -0.114677,1.261449 0.753593,-0.237546 1.433465,-0.303075 0.679872,-0.06553 1.253258,-0.01638 0.573387,0.04915 0.999331,0.204781 0.425943,0.147442 0.663489,0.33584 0.270311,0.204781 0.516048,0.589769 0.253928,0.376796 0.425944,0.86827 0.180207,0.483283 0.253928,1.023904 0.08191,0.53243 -0.0082,1.040286 -0.08191,0.573386 -0.212972,1.056669 -0.122868,0.483282 -0.327649,0.901035 -0.196589,0.417753 -0.516047,0.786358 -0.319458,0.360414 -0.786358,0.655298 -0.303076,0.204781 -0.892844,0.303076 -0.581578,0.106486 -1.228685,0.0983 -0.647107,-0.0082 -1.245067,-0.147442 -0.589768,-0.13106 -0.925609,-0.401371 -0.237545,-0.188398 -0.499665,-0.53243 -0.253928,-0.344031 -0.483282,-0.851888 -0.229355,-0.507856 -0.393179,-1.179537 -0.155634,-0.67168 -0.172016,-1.515377 z m 2.252588,-0.06553 q -0.04915,0.434135 0,0.86827 0.04915,0.425944 0.172016,0.810932 0.13106,0.384988 0.327649,0.638916 0.221163,0.286693 0.548813,0.40137 0.327649,0.114678 0.663489,0.0901 0.335841,-0.02457 0.614342,-0.147442 0.286693,-0.13106 0.442327,-0.311267 0.204781,-0.270311 0.327649,-0.679872 0.122868,-0.409562 0.147442,-0.860079 0.02457,-0.458709 -0.04915,-0.901036 -0.07372,-0.442326 -0.278502,-0.761784 -0.147442,-0.253928 -0.516048,-0.40137 -0.368605,-0.155634 -0.794549,-0.172016 -0.417753,-0.01638 -0.794549,0.139251 -0.376797,0.147442 -0.565195,0.499665 -0.188398,0.352223 -0.245737,0.786358 z"
           style="font-style:normal;font-variant:normal;font-weight:normal;font-stretch:normal;font-family:AngryBirds;-inkscape-font-specification:AngryBirds;stroke-width:0.41939095"
           id="path94" />
        <path
           d="m 28.9461,55.65921 0.704445,-0.4669 -0.434135,-0.835505 4.079233,-0.270311 0.253928,0.499665 -0.655299,0.491474 0.212972,0.835506 -4.005511,0.540621 0.08191,-0.458709 z m 0.05734,-4.120188 0.26212,-0.425944 -0.04915,-0.786358 4.046468,-0.147442 0.01638,0.303075 -0.507856,0.704446 0.507856,0.614342 -0.106486,0.270311 -3.874451,0.434135 0.20478,-0.4669 z"
           style="font-style:normal;font-variant:normal;font-weight:normal;font-stretch:normal;font-family:AngryBirds;-inkscape-font-specification:AngryBirds;stroke-width:0.41939095"
           id="path96" />
        <path
           d="m 34.581665,46.321208 0.03276,-0.27031 5.717479,-0.434135 -0.163825,0.86827 0.958374,-0.08191 -0.05734,0.720828 0.524239,0.03276 -4.161145,11.59059 -0.434135,-0.229354 -0.368605,0.229354 -0.04915,-1.089434 -1.261449,1.425274 -0.13106,-0.06553 L 38.587177,48.197 h -3.251918 l 0.253928,-0.483282 -0.671681,-0.352223 1.007521,-0.720829 z"
           style="font-style:normal;font-variant:normal;font-weight:normal;font-stretch:normal;font-family:AngryBirds;-inkscape-font-specification:AngryBirds;stroke-width:0.41939095"
           id="path98" />
      </g>
      <g
         aria-label="17&gt;12 = "
         style="font-style:normal;font-variant:normal;font-weight:normal;font-stretch:normal;font-size:16.77563858px;line-height:1.25;font-family:'URW Gothic L';-inkscape-font-specification:'URW Gothic L';letter-spacing:0px;word-spacing:0px;fill:#000000;fill-opacity:1;stroke:none;stroke-width:0.41939095"
         id="text14-7">
        <path
           d="m 64.742998,48.270426 3.374787,-2.883313 0.483282,0.9338 0.819123,-0.499665 -0.09829,11.049969 1.875791,-0.01638 0.106486,0.507856 -0.843696,0.581577 0.810931,0.524239 -0.442326,0.450518 -5.234196,0.08191 0.622534,-0.516047 -0.925609,-0.589769 0.524238,-0.319458 -0.303075,-0.614342 1.900365,-0.221163 -0.303075,-7.830816 -1.515378,0.737211 -0.278502,-0.188399 0.581578,-1.138581 z"
           style="font-style:normal;font-variant:normal;font-weight:normal;font-stretch:normal;font-family:AngryBirds;-inkscape-font-specification:AngryBirds;stroke-width:0.41939095"
           id="path101" />
        <path
           d="m 72.360842,46.157089 0.03276,-0.270311 5.717478,-0.434135 -0.163824,0.86827 0.958374,-0.08191 -0.05734,0.720828 0.524239,0.03276 -4.161145,11.59059 -0.434135,-0.229354 -0.368605,0.229354 -0.04915,-1.089433 -1.261449,1.425274 -0.13106,-0.06553 3.39936,-10.820615 h -3.251918 l 0.253928,-0.483282 -0.67168,-0.352223 1.007521,-0.720828 z"
           style="font-style:normal;font-variant:normal;font-weight:normal;font-stretch:normal;font-family:AngryBirds;-inkscape-font-specification:AngryBirds;stroke-width:0.41939095"
           id="path103" />
        <path
           d="m 79.708375,45.886778 0.07372,-0.06553 0.819122,0.368606 0.753594,-0.786358 0.417752,0.03277 3.522229,6.741382 -2.899695,6.946162 -0.434135,0.212972 -0.638916,-0.516047 -0.769976,0.499665 -0.384988,-0.33584 -0.122868,0.04096 2.817783,-6.397351 z"
           style="font-style:normal;font-variant:normal;font-weight:normal;font-stretch:normal;font-family:AngryBirds;-inkscape-font-specification:AngryBirds;stroke-width:0.41939095"
           id="path105" />
        <path
           d="m 86.138491,48.270426 3.374786,-2.883313 0.483283,0.9338 0.819123,-0.499665 -0.0983,11.049969 1.875792,-0.01638 0.106486,0.507856 -0.843697,0.581577 0.810932,0.524239 -0.442326,0.450518 -5.234196,0.08191 0.622533,-0.516047 -0.925609,-0.589769 0.524239,-0.319458 -0.303076,-0.614342 1.900366,-0.221163 -0.303076,-7.830816 -1.515377,0.737211 -0.278502,-0.188399 0.581577,-1.138581 z"
           style="font-style:normal;font-variant:normal;font-weight:normal;font-stretch:normal;font-family:AngryBirds;-inkscape-font-specification:AngryBirds;stroke-width:0.41939095"
           id="path107" />
        <path
           d="m 93.789099,58.583184 0.417753,-0.4669 q -0.13106,-0.237545 -0.253928,-0.417753 -0.114677,-0.188398 -0.147442,-0.27031 0.163824,-0.270311 0.483282,-0.802741 0.319458,-0.540621 0.704446,-1.236875 0.384988,-0.696255 0.80274,-1.498995 0.425944,-0.802741 0.810932,-1.613673 0.319458,-0.67168 0.606151,-1.302405 0.286693,-0.638916 0.458709,-1.171346 0.180207,-0.540621 0.221163,-0.966565 0.04096,-0.434135 -0.114677,-0.688063 -0.114677,-0.188399 -0.475091,-0.245737 -0.360414,-0.06553 -0.843697,-0.05734 -0.475091,0.0082 -1.023904,0.08191 -0.540621,0.07372 -1.007521,0.155634 l 0.4669,-0.704446 -0.688063,-0.270311 0.450517,-0.581577 q -0.06553,-0.04915 -0.131059,-0.122868 -0.06553,-0.04915 -0.139251,-0.106486 -0.06553,-0.05734 -0.147442,-0.122869 0.516047,-0.204781 1.179537,-0.376796 0.663489,-0.180207 1.359744,-0.270311 0.696255,-0.0901 1.359744,-0.06553 0.66349,0.02457 1.204111,0.237546 0.958377,0.384988 1.187727,1.228684 0.23755,0.835506 -0.14744,1.99866 -0.33584,1.007522 -0.720829,1.924939 -0.384988,0.909227 -0.827314,1.843027 -0.434136,0.941992 -0.958374,1.924939 -0.516048,0.982948 -1.154964,2.170676 0.499665,0 1.040287,0.0082 0.540621,0.0082 1.032095,0.01638 0.499665,0.0082 0.901035,0.02457 0.401374,0.01638 0.655294,0.01638 l 0.16383,0.458709 -1.154965,0.630724 1.073055,0.393179 -0.20478,0.499665 h -6.184383 z"
           style="font-style:normal;font-variant:normal;font-weight:normal;font-stretch:normal;font-family:AngryBirds;-inkscape-font-specification:AngryBirds;stroke-width:0.41939095"
           id="path109" />
        <path
           d="m 105.25682,55.495091 0.70445,-0.4669 -0.43414,-0.835506 4.07923,-0.27031 0.25393,0.499665 -0.6553,0.491473 0.21297,0.835506 -4.00551,0.540621 0.0819,-0.458709 z m 0.0573,-4.120189 0.26212,-0.425944 -0.0491,-0.786358 4.04647,-0.147442 0.0164,0.303075 -0.50786,0.704446 0.50786,0.614342 -0.10649,0.270311 -3.87445,0.434135 0.20478,-0.4669 z"
           style="font-style:normal;font-variant:normal;font-weight:normal;font-stretch:normal;font-family:AngryBirds;-inkscape-font-specification:AngryBirds;stroke-width:0.41939095"
           id="path111" />
      </g>
      <g
         transform="matrix(1.5850998,0,0,1.5850998,-13.781905,-144.23583)"
         id="g18">
        <path
           style="opacity:1;fill:#ffffff;fill-opacity:1;stroke:#ffffff;stroke-width:0.1;stroke-linecap:round;stroke-linejoin:round;stroke-miterlimit:4;stroke-dasharray:none;stroke-dashoffset:0;stroke-opacity:1"
           d="m 36.947174,116.61086 h 10.583333 v 14.83557 H 36.947174 Z"
           id="rect847" />
        <g
           aria-label="?"
           style="font-style:normal;font-variant:normal;font-weight:normal;font-stretch:normal;font-size:13.90325642px;line-height:1.25;font-family:'URW Gothic L';-inkscape-font-specification:'URW Gothic L';letter-spacing:0px;word-spacing:0px;fill:#00ff00;fill-opacity:1;stroke:#000000;stroke-width:0.1;stroke-miterlimit:4;stroke-dasharray:none"
           id="text40">
          <path
             d="m 39.261911,119.27773 0.332646,-0.29191 q -0.02716,-0.0407 -0.06789,-0.095 -0.02716,-0.0407 -0.08146,-0.0883 -0.04752,-0.0543 -0.07468,-0.10862 0.807855,-0.23761 1.608922,-0.3055 0.801066,-0.0679 1.649654,0.0407 0.67887,0.0815 1.208388,0.43447 0.529519,0.34623 0.862165,0.84859 0.332646,0.49558 0.454843,1.09298 0.128985,0.59741 -0.01358,1.19481 -0.108619,0.44806 -0.407321,0.80107 -0.298703,0.35301 -0.739969,0.65171 -0.434476,0.29871 -0.984361,0.54989 -0.549885,0.25118 -1.160868,0.47521 -0.08146,0.2376 -0.142562,0.46163 -0.05431,0.21724 -0.09504,0.42769 -0.04073,0.19687 -0.05431,0.36659 -0.01358,0.16293 -0.04073,0.27155 l -0.21045,0.18329 -0.583828,-0.52952 -0.224027,0.70603 -0.176506,-0.0272 q -0.02716,-0.16972 -0.07468,-0.44805 -0.04073,-0.28513 -0.08146,-0.61099 -0.04073,-0.33264 -0.07468,-0.67887 -0.03394,-0.34622 -0.03394,-0.65171 0.251181,-0.13577 0.597405,-0.30549 0.346224,-0.16972 0.706025,-0.3598 0.488786,-0.27834 0.862165,-0.59741 0.373378,-0.31907 0.475209,-0.64493 0.122196,-0.40053 0.04073,-0.73996 -0.08146,-0.33944 -0.291914,-0.59062 -0.21045,-0.25118 -0.52273,-0.40732 -0.31228,-0.16293 -0.644927,-0.19009 -0.400533,-0.0272 -0.889319,-0.0272 -0.488786,0 -1.018305,0.095 l 0.543096,-0.57025 z m 0.570251,10.34598 q -0.142563,-0.10183 -0.196873,-0.24439 -0.05431,-0.14935 0,-0.31907 0.05431,-0.17651 0.224027,-0.3598 0.169718,-0.19008 0.475209,-0.37338 0.09504,-0.0543 0.285126,-0.0882 0.196872,-0.034 0.41411,-0.0475 0.217239,-0.0136 0.393745,0 0.183295,0.0136 0.237604,0.0543 0.06789,0.0407 0.135774,0.18329 0.07468,0.13578 0.08146,0.31228 0.0068,0.16972 -0.08146,0.3598 -0.08146,0.1833 -0.325857,0.35301 -0.15614,0.10862 -0.414111,0.15614 -0.25797,0.0543 -0.509152,0.0747 -0.244394,0.0204 -0.454843,0 -0.21045,-0.0204 -0.264759,-0.0611 z"
             style="font-style:normal;font-variant:normal;font-weight:normal;font-stretch:normal;font-family:AngryBirds;-inkscape-font-specification:AngryBirds;fill:#00ff00;stroke:#000000;stroke-width:0.1;stroke-miterlimit:4;stroke-dasharray:none"
             id="path115" />
        </g>
      </g>
      <g
         id="ID0.1613758858293295"
         transform="matrix(0.66812492,0,0,0.66812492,113.19421,45.12183)">
        <g
           id="ID0.04199532698839903">
          <g
             id="ID0.4123793593607843">
            <path
               transform="matrix(0.23988406,0,0,0.23988406,0.25,0)"
               d="m 71.96,13.2 c 0,1.65 -0.3,3.3 -0.88,4.93 -1.58,4.67 -5.11,7.97 -9.67,9.25 -0.32,2.11 -0.91,5.63 -2.03,11.87 -0.03,0.14 -0.05,0.28 -0.08,0.42 -0.96,4.34 -2.33,10.95 -4.05,19.65 -0.33,1.97 -0.75,3.88 -1.26,5.67 -0.4,2.16 -0.83,4.3 -1.28,6.39 -0.03,0.15 -0.07,0.31 -0.11,0.46 -1.54,5.89 -5.22,10.23 -10.36,12.22 -0.06,0.02 -0.11,0.04 -0.16,0.06 -2.28,0.84 -4.22,1.23 -6.13,1.23 -2.62,0 -5.07,-0.76 -7.11,-2.21 C 27.15,81.97 25.28,80.43 24.03,77.95 23.54,76.97 23.2,75.92 23.02,74.83 23,74.74 22.91,74.22 22.6,72.96 22.31,72.13 21.61,70.14 20.5,67 20.43,66.79 20.36,66.57 20.3,66.36 19.96,65.18 19.43,63.39 18.71,60.99 17.94,58.65 17.2,56.24 16.49,53.82 15.35,50.27 13.68,44.92 11.41,37.52 10,37.24 8.62,36.8 7.3,36.18 6.48,35.79 5.71,35.31 5,34.73 1.82,32.13 0,28.29 0,24.19 0,18.1 3.67,12.93 9.36,11.03 9.43,11.01 9.49,10.99 9.56,10.97 12.8,9.96 15.62,9.37 18.15,9.2 18.89,9.04 19.73,8.89 20.7,8.74 21.55,8.61 22.42,8.59 23.27,8.66 23.41,8.65 23.77,8.61 24.41,8.48 26.2,8.12 27.54,7.91 28.65,7.81 28.88,7.44 29.13,7.08 29.4,6.74 31.15,4.54 34.46,1.8 40.27,1.19 40.36,1.18 40.45,1.17 40.53,1.16 41.9,1.05 44.01,0.85 46.86,0.57 47.05,0.55 47.25,0.54 47.45,0.53 48.73,0.47 50.45,0.41 52.62,0.36 54.32,0.22 55.41,0.13 55.89,0.08 56.34,0.03 56.8,0 57.26,0 c 9.65,0 14.7,6.64 14.7,13.2 z"
               id="ID0.6994774197228253"
               inkscape:connector-curvature="0"
               style="fill:#003fff" />
          </g>
        </g>
        <g
           id="ID0.1456912192516029">
          <path
             transform="matrix(0.23988406,0,0,0.23988406,0.25,0)"
             d="m 60.693,14.517 c -0.527,1.643 -1.759,2.463 -3.694,2.463 -0.411,0 -1.231,-0.058 -2.463,-0.176 -0.998,-0.116 -1.759,-0.146 -2.287,-0.088 -0.118,0.06 -0.294,0.176 -0.527,0.352 -0.176,0.88 -0.471,3.05 -0.88,6.51 -0.235,1.994 -0.998,6.567 -2.287,13.722 -0.998,4.516 -2.375,11.201 -4.134,20.055 -0.294,1.818 -0.675,3.519 -1.144,5.102 -0.411,2.229 -0.851,4.429 -1.319,6.598 -0.646,2.463 -1.877,4.046 -3.694,4.75 -1.583,0.585 -2.61,0.703 -3.079,0.352 -0.763,-0.527 -1.202,-0.91 -1.319,-1.144 -0.118,-0.703 -0.352,-1.759 -0.703,-3.166 -0.118,-0.353 -0.88,-2.521 -2.287,-6.51 -0.352,-1.231 -0.91,-3.107 -1.671,-5.63 -0.764,-2.345 -1.496,-4.719 -2.199,-7.124 -1.174,-3.636 -2.962,-9.382 -5.366,-17.24 -0.41,-2.053 -1.114,-4.516 -2.11,-7.389 -2.463,0.587 -4.047,0.879 -4.75,0.879 -0.998,0 -1.936,-0.204 -2.814,-0.615 -0.646,-0.528 -0.968,-1.201 -0.968,-2.023 0,-1.407 0.615,-2.315 1.847,-2.727 2.815,-0.88 5.102,-1.319 6.861,-1.319 0.585,-0.176 1.465,-0.352 2.639,-0.528 1.056,0.118 2.463,0 4.222,-0.352 1.76,-0.352 2.932,-0.527 3.519,-0.527 0.88,0 1.672,0.176 2.375,0.527 0.586,0.528 0.88,1.203 0.88,2.023 0,1.466 -0.704,2.405 -2.111,2.814 -1.29,0.06 -3.05,0.439 -5.277,1.144 0.117,2.054 0.381,3.725 0.792,5.014 0.879,2.639 2.11,6.305 3.694,10.995 0.058,0.587 0.204,1.379 0.439,2.375 1.231,4.692 3.312,11.318 6.245,19.879 0.352,-0.819 0.792,-2.429 1.319,-4.828 0.645,-3.395 1.056,-5.414 1.231,-6.059 1.056,-4.097 1.964,-8.281 2.727,-12.555 1.113,-5.853 1.7,-8.925 1.76,-9.218 0.761,-3.687 1.289,-6.643 1.583,-8.867 0.233,-1.639 0.439,-3.248 0.615,-4.829 -0.059,-0.058 -0.118,-0.116 -0.176,-0.176 -3.988,0.06 -6.157,0.06 -6.509,0 -0.527,0 -1.231,-0.462 -2.111,-1.387 0,-0.058 0.044,-0.145 0.132,-0.26 0.089,-0.115 0.161,-0.203 0.221,-0.261 -0.06,-0.347 -0.03,-0.837 0.088,-1.474 0.645,-0.808 1.788,-1.3 3.431,-1.474 1.407,-0.115 3.576,-0.317 6.509,-0.607 1.289,-0.058 3.048,-0.115 5.277,-0.173 2.814,-0.23 4.163,-0.347 4.046,-0.347 2.463,0 3.694,0.734 3.694,2.199 -0.003,0.412 -0.091,0.852 -0.267,1.32 z"
             id="ID0.9227194082923234"
             inkscape:connector-curvature="0"
             style="fill:#ffffff" />
        </g>
      </g>
    </g>
  </g>
</svg>
