<?xml version="1.0" encoding="UTF-8" standalone="no"?>
<!-- Created with Inkscape (http://www.inkscape.org/) -->

<svg
   xmlns:dc="http://purl.org/dc/elements/1.1/"
   xmlns:cc="http://creativecommons.org/ns#"
   xmlns:rdf="http://www.w3.org/1999/02/22-rdf-syntax-ns#"
   xmlns:svg="http://www.w3.org/2000/svg"
   xmlns="http://www.w3.org/2000/svg"
   xmlns:sodipodi="http://sodipodi.sourceforge.net/DTD/sodipodi-0.dtd"
   xmlns:inkscape="http://www.inkscape.org/namespaces/inkscape"
   width="210mm"
   height="297mm"
   viewBox="0 0 210 297"
   version="1.1"
   id="svg118"
   inkscape:version="0.92.1 r15371"
   sodipodi:docname="02.svg">
  <defs
     id="defs112" />
  <sodipodi:namedview
     id="base"
     pagecolor="#ffffff"
     bordercolor="#666666"
     borderopacity="1.0"
     inkscape:pageopacity="0.0"
     inkscape:pageshadow="2"
     inkscape:zoom="0.35"
     inkscape:cx="400"
     inkscape:cy="606.76837"
     inkscape:document-units="mm"
     inkscape:current-layer="layer1"
     showgrid="false"
     inkscape:window-width="1269"
     inkscape:window-height="704"
     inkscape:window-x="0"
     inkscape:window-y="27"
     inkscape:window-maximized="1" />
  <metadata
     id="metadata115">
    <rdf:RDF>
      <cc:Work
         rdf:about="">
        <dc:format>image/svg+xml</dc:format>
        <dc:type
           rdf:resource="http://purl.org/dc/dcmitype/StillImage" />
        <dc:title></dc:title>
      </cc:Work>
    </rdf:RDF>
  </metadata>
  <g
     inkscape:label="Camada 1"
     inkscape:groupmode="layer"
     id="layer1">
    <path
       style="opacity:1;fill:#e6e6e6;fill-opacity:1;stroke:#cccccc;stroke-width:0.50825167;stroke-linecap:round;stroke-linejoin:round;stroke-miterlimit:4;stroke-dasharray:none;stroke-dashoffset:0;stroke-opacity:1"
       d="M 6.3017554,6.9850082 H 204.60899 V 51.394939 H 6.3017554 Z"
       id="rect10" />
    <g
       aria-label="2+6=7"
       style="font-style:normal;font-variant:normal;font-weight:normal;font-stretch:normal;font-size:26.2618618px;line-height:1.25;font-family:'URW Gothic L';-inkscape-font-specification:'URW Gothic L';letter-spacing:0px;word-spacing:0px;fill:#000000;fill-opacity:1;stroke:none;stroke-width:0.65654653"
       id="text14">
      <path
         d="m 15.516587,39.615677 0.653982,-0.730921 q -0.205171,-0.371872 -0.397518,-0.653982 -0.179525,-0.294933 -0.230817,-0.423165 0.256463,-0.423165 0.756567,-1.256671 0.500104,-0.84633 1.102793,-1.9363 0.602689,-1.089969 1.256671,-2.34664 0.666805,-1.256672 1.269494,-2.526166 0.500104,-1.0515 0.948915,-2.038885 0.448811,-1.000207 0.718098,-1.833714 0.28211,-0.846329 0.346226,-1.513134 0.06412,-0.679629 -0.179525,-1.077147 -0.179524,-0.294933 -0.743744,-0.384695 -0.564219,-0.102586 -1.320787,-0.08976 -0.743744,0.01282 -1.602897,0.128231 -0.846329,0.115409 -1.57725,0.243641 l 0.730921,-1.102793 -1.077147,-0.423165 0.705275,-0.910446 q -0.102586,-0.07694 -0.205171,-0.192347 -0.102585,-0.07694 -0.217994,-0.166701 -0.102585,-0.08976 -0.230817,-0.192348 0.80786,-0.320579 1.846537,-0.589866 1.038677,-0.28211 2.128647,-0.423165 1.08997,-0.141055 2.128647,-0.102585 1.038677,0.03847 1.885007,0.371872 1.500311,0.602689 1.85936,1.923476 0.371872,1.307964 -0.230817,3.128855 -0.52575,1.57725 -1.128439,3.013446 -0.60269,1.423372 -1.295141,2.885214 -0.679628,1.474665 -1.500312,3.013446 -0.80786,1.538781 -1.808067,3.398141 0.782213,0 1.628543,0.01282 0.84633,0.01282 1.61572,0.02565 0.782214,0.01282 1.410549,0.03847 0.628336,0.02565 1.025854,0.02565 l 0.256464,0.718098 -1.808068,0.987384 1.679836,0.615512 -0.320579,0.782214 h -9.681497 z"
         style="font-style:normal;font-variant:normal;font-weight:normal;font-stretch:normal;font-family:AngryBirds;-inkscape-font-specification:AngryBirds;stroke-width:0.65654653"
         id="path169" />
      <path
         d="m 27.531902,31.690955 1.0515,-0.897623 -0.474457,-1.756775 2.974976,-0.269286 0.02565,-3.718721 1.410549,-0.08976 0.846329,-0.910445 0.80786,0.05129 v 4.539404 l 3.23144,-0.230817 0.05129,0.448811 -0.910445,1.256671 0.884799,0.923269 -0.07694,0.48728 -3.23144,0.743745 -0.230818,4.206001 H 32.468824 L 31.340385,36.35859 31.16086,32.63987 27.68578,32.84504 Z"
         style="font-style:normal;font-variant:normal;font-weight:normal;font-stretch:normal;font-family:AngryBirds;-inkscape-font-specification:AngryBirds;stroke-width:0.65654653"
         id="path171" />
      <path
         d="m 39.213814,33.075858 q -0.02565,-0.833507 -0.05129,-1.89783 -0.02565,-1.064324 0.02565,-2.244056 0.05129,-1.128439 0.166701,-2.308171 0.128232,-1.192556 0.410341,-2.295349 0.256464,-1.102793 0.692452,-2.026061 0.435988,-0.936092 1.064323,-1.628543 0.641159,-0.705275 1.487489,-1.12844 0.859152,-0.435988 1.987592,-0.538573 1.33361,-0.128232 2.500519,-0.07694 1.179732,0.05129 2.064531,0.307756 l -0.205171,0.371872 0.333403,0.448811 -1.961946,0.628336 2.154293,1.025854 -0.192347,0.256463 q -0.577043,-0.07694 -1.154086,-0.115408 -0.577043,-0.03847 -1.154086,0.01282 -0.782213,0.05129 -1.564427,0.294933 -0.769391,0.230817 -1.500312,0.782214 -0.474457,0.371872 -0.782213,0.871975 -0.294933,0.487281 -0.500104,1.166909 -0.192348,0.666805 -0.28211,1.551604 -0.08976,0.871976 -0.179524,1.974769 1.179732,-0.371872 2.244055,-0.474457 1.064324,-0.102586 1.961946,-0.02565 0.897622,0.07694 1.564427,0.320579 0.666805,0.230817 1.038677,0.52575 0.423165,0.320579 0.807861,0.923269 0.397518,0.589866 0.666805,1.359256 0.282109,0.756567 0.397518,1.602897 0.128232,0.833506 -0.01282,1.628543 -0.128232,0.897622 -0.333403,1.65419 -0.192347,0.756567 -0.512927,1.410549 -0.307756,0.653982 -0.80786,1.231025 -0.500104,0.564219 -1.231024,1.025854 -0.474458,0.320579 -1.397727,0.474457 -0.910445,0.166701 -1.923476,0.153878 -1.013031,-0.01282 -1.949122,-0.230817 -0.923269,-0.205171 -1.449019,-0.628335 -0.371872,-0.294933 -0.782214,-0.833507 -0.397518,-0.538573 -0.756567,-1.33361 -0.359049,-0.795037 -0.615512,-1.846537 -0.243641,-1.0515 -0.269287,-2.372287 z m 3.526373,-0.102586 q -0.07694,0.679628 0,1.359257 0.07694,0.666805 0.269287,1.269494 0.20517,0.602689 0.512927,1.000208 0.346225,0.448811 0.859152,0.628335 0.512927,0.179525 1.038678,0.141055 0.52575,-0.03847 0.961738,-0.230817 0.448811,-0.205171 0.692451,-0.487281 0.320579,-0.423165 0.512927,-1.064323 0.192348,-0.641159 0.230817,-1.346434 0.03847,-0.718097 -0.07694,-1.410549 -0.115408,-0.692451 -0.435988,-1.192555 -0.230817,-0.397518 -0.80786,-0.628336 -0.577043,-0.24364 -1.243848,-0.269286 -0.653982,-0.02565 -1.243848,0.217994 -0.589866,0.230817 -0.884799,0.782213 -0.294933,0.551397 -0.384695,1.231025 z"
         style="font-style:normal;font-variant:normal;font-weight:normal;font-stretch:normal;font-family:AngryBirds;-inkscape-font-specification:AngryBirds;stroke-width:0.65654653"
         id="path173" />
      <path
         d="m 53.473185,34.78134 1.102793,-0.730921 -0.679628,-1.307964 6.385941,-0.423165 0.397518,0.782214 -1.025854,0.76939 0.333403,1.307964 -6.270533,0.84633 0.128232,-0.718098 z m 0.08976,-6.450057 0.410342,-0.666805 -0.07694,-1.231025 6.334648,-0.230817 0.02565,0.474457 -0.795036,1.102793 0.795036,0.961738 -0.166701,0.423165 -6.065361,0.679628 0.320579,-0.73092 z"
         style="font-style:normal;font-variant:normal;font-weight:normal;font-stretch:normal;font-family:AngryBirds;-inkscape-font-specification:AngryBirds;stroke-width:0.65654653"
         id="path175" />
      <path
         d="m 62.295529,20.162921 0.05129,-0.423165 8.950576,-0.679628 -0.256464,1.359256 1.500312,-0.128232 -0.08976,1.12844 0.820684,0.05129 -6.514173,18.144793 -0.679628,-0.359049 -0.577043,0.359049 -0.07694,-1.705483 -1.974769,2.231233 -0.205171,-0.102586 5.321618,-16.939413 h -5.090801 l 0.397519,-0.756568 -1.051501,-0.551396 1.577251,-1.12844 z"
         style="font-style:normal;font-variant:normal;font-weight:normal;font-stretch:normal;font-family:AngryBirds;-inkscape-font-specification:AngryBirds;stroke-width:0.65654653"
         id="path177" />
    </g>
    <g
       aria-label="-4&lt;4 = "
       style="font-style:normal;font-variant:normal;font-weight:normal;font-stretch:normal;font-size:26.2618618px;line-height:1.25;font-family:'URW Gothic L';-inkscape-font-specification:'URW Gothic L';letter-spacing:0px;word-spacing:0px;fill:#000000;fill-opacity:1;stroke:none;stroke-width:0.65654653"
       id="text14-7">
      <path
         d="m 109.66626,29.632378 0.62833,-0.500104 -0.44881,-1.01303 5.41138,-0.423165 -0.85915,0.52575 1.0515,1.487488 -1.47466,0.948915 0.57704,0.871976 -4.64199,0.884799 -0.19235,-0.384695 1.24385,-1.000208 z"
         style="font-style:normal;font-variant:normal;font-weight:normal;font-stretch:normal;font-family:AngryBirds;-inkscape-font-specification:AngryBirds;stroke-width:0.65654653"
         id="path158" />
      <path
         d="m 117.24475,32.235483 0.87198,-13.130931 0.15388,-0.05129 0.47446,1.679836 1.07714,-1.102793 0.29494,0.897622 0.75656,-0.269286 -0.44881,9.219862 4.57788,-0.448811 V 18.925027 l 0.12823,-0.102585 1.02585,1.808068 1.35926,-1.705483 0.52575,0.05129 0.0769,10.207247 1.82089,-0.230817 0.0256,0.577043 -1.82089,1.307964 1.52596,0.589866 -0.60269,0.859152 0.39752,0.525751 -1.42337,0.20517 0.0769,6.411588 -0.60269,0.128231 -0.8848,-1.077146 -0.47446,1.654189 -0.84633,-0.153878 -0.30775,-6.847575 -6.51418,0.384695 v -1.359256 z"
         style="font-style:normal;font-variant:normal;font-weight:normal;font-stretch:normal;font-family:AngryBirds;-inkscape-font-specification:AngryBirds;stroke-width:0.65654653"
         id="path160" />
      <path
         d="m 131.3246,29.927311 4.55223,-10.874052 0.67963,-0.346226 1.0002,0.795037 1.23103,-0.795037 0.57704,0.551397 0.17953,-0.05129 -4.41118,9.97643 4.96257,10.566296 -0.12823,0.128232 -1.28232,-0.602689 -1.15408,1.256671 -0.69245,-0.05129 z"
         style="font-style:normal;font-variant:normal;font-weight:normal;font-stretch:normal;font-family:AngryBirds;-inkscape-font-specification:AngryBirds;stroke-width:0.65654653"
         id="path162" />
      <path
         d="m 141.30103,32.235483 0.87198,-13.130931 0.15388,-0.05129 0.47445,1.679836 1.07715,-1.102793 0.29493,0.897622 0.75657,-0.269286 -0.44881,9.219862 4.57787,-0.448811 V 18.925027 l 0.12823,-0.102585 1.02586,1.808068 1.35925,-1.705483 0.52575,0.05129 0.0769,10.207247 1.82089,-0.230817 0.0257,0.577043 -1.82089,1.307964 1.52596,0.589866 -0.60269,0.859152 0.39752,0.525751 -1.42338,0.20517 0.0769,6.411588 -0.60269,0.128231 -0.88479,-1.077146 -0.47446,1.654189 -0.84633,-0.153878 -0.30776,-6.847575 -6.51417,0.384695 v -1.359256 z"
         style="font-style:normal;font-variant:normal;font-weight:normal;font-stretch:normal;font-family:AngryBirds;-inkscape-font-specification:AngryBirds;stroke-width:0.65654653"
         id="path164" />
      <path
         d="m 161.24107,34.094843 1.10279,-0.730921 -0.67963,-1.307964 6.38594,-0.423165 0.39752,0.782214 -1.02585,0.769391 0.3334,1.307963 -6.27053,0.84633 0.12823,-0.718098 z m 0.0898,-6.450057 0.41034,-0.666805 -0.0769,-1.231025 6.33465,-0.230817 0.0256,0.474458 -0.79503,1.102793 0.79503,0.961738 -0.1667,0.423165 -6.06536,0.679628 0.32058,-0.730921 z"
         style="font-style:normal;font-variant:normal;font-weight:normal;font-stretch:normal;font-family:AngryBirds;-inkscape-font-specification:AngryBirds;stroke-width:0.65654653"
         id="path166" />
    </g>
    <g
       id="g18"
       transform="matrix(2.4814359,0,0,2.4814359,-13.416467,-278.14959)">
      <path
         style="opacity:1;fill:#ffffff;fill-opacity:1;stroke:#ffffff;stroke-width:0.1;stroke-linecap:round;stroke-linejoin:round;stroke-miterlimit:4;stroke-dasharray:none;stroke-dashoffset:0;stroke-opacity:1"
         d="m 36.947174,116.61086 h 10.583333 v 14.83557 H 36.947174 Z"
         id="rect847" />
      <g
         aria-label="?"
         style="font-style:normal;font-variant:normal;font-weight:normal;font-stretch:normal;font-size:13.90325642px;line-height:1.25;font-family:'URW Gothic L';-inkscape-font-specification:'URW Gothic L';letter-spacing:0px;word-spacing:0px;fill:#00ff00;fill-opacity:1;stroke:#000000;stroke-width:0.1;stroke-miterlimit:4;stroke-dasharray:none"
         id="text40">
        <path
           d="m 39.261911,119.27773 0.332646,-0.29191 q -0.02716,-0.0407 -0.06789,-0.095 -0.02716,-0.0407 -0.08146,-0.0883 -0.04752,-0.0543 -0.07468,-0.10862 0.807855,-0.23761 1.608922,-0.3055 0.801066,-0.0679 1.649654,0.0407 0.67887,0.0815 1.208388,0.43447 0.529519,0.34623 0.862165,0.84859 0.332646,0.49558 0.454843,1.09298 0.128985,0.59741 -0.01358,1.19481 -0.108619,0.44806 -0.407321,0.80107 -0.298703,0.35301 -0.739969,0.65171 -0.434476,0.29871 -0.984361,0.54989 -0.549885,0.25118 -1.160868,0.47521 -0.08146,0.2376 -0.142562,0.46163 -0.05431,0.21724 -0.09504,0.42769 -0.04073,0.19687 -0.05431,0.36659 -0.01358,0.16293 -0.04073,0.27155 l -0.21045,0.18329 -0.583828,-0.52952 -0.224027,0.70603 -0.176506,-0.0272 q -0.02716,-0.16972 -0.07468,-0.44805 -0.04073,-0.28513 -0.08146,-0.61099 -0.04073,-0.33264 -0.07468,-0.67887 -0.03394,-0.34622 -0.03394,-0.65171 0.251181,-0.13577 0.597405,-0.30549 0.346224,-0.16972 0.706025,-0.3598 0.488786,-0.27834 0.862165,-0.59741 0.373378,-0.31907 0.475209,-0.64493 0.122196,-0.40053 0.04073,-0.73996 -0.08146,-0.33944 -0.291914,-0.59062 -0.21045,-0.25118 -0.52273,-0.40732 -0.31228,-0.16293 -0.644927,-0.19009 -0.400533,-0.0272 -0.889319,-0.0272 -0.488786,0 -1.018305,0.095 l 0.543096,-0.57025 z m 0.570251,10.34598 q -0.142563,-0.10183 -0.196873,-0.24439 -0.05431,-0.14935 0,-0.31907 0.05431,-0.17651 0.224027,-0.3598 0.169718,-0.19008 0.475209,-0.37338 0.09504,-0.0543 0.285126,-0.0882 0.196872,-0.034 0.41411,-0.0475 0.217239,-0.0136 0.393745,0 0.183295,0.0136 0.237604,0.0543 0.06789,0.0407 0.135774,0.18329 0.07468,0.13578 0.08146,0.31228 0.0068,0.16972 -0.08146,0.3598 -0.08146,0.1833 -0.325857,0.35301 -0.15614,0.10862 -0.414111,0.15614 -0.25797,0.0543 -0.509152,0.0747 -0.244394,0.0204 -0.454843,0 -0.21045,-0.0204 -0.264759,-0.0611 z"
           style="font-style:normal;font-variant:normal;font-weight:normal;font-stretch:normal;font-family:AngryBirds;-inkscape-font-specification:AngryBirds;fill:#00ff00;stroke:#000000;stroke-width:0.1;stroke-miterlimit:4;stroke-dasharray:none"
           id="path155" />
      </g>
    </g>
    <g
       transform="matrix(1.1649663,0,0,1.1649663,177.28527,18.456619)"
       id="ID0.4852326139807701">
      <g
         id="ID0.5663091018795967">
        <g
           id="ID0.3804601556621492">
          <path
             style="fill:#003fff"
             inkscape:connector-curvature="0"
             id="ID0.027033838909119368"
             d="m 70.109,20.47 c -0.05,0.65 -0.08,1.2 -0.1,1.66 0.19,0.78 0.32,1.66 0.32,2.64 0,0.22 0.02,0.52 0.04,0.91 0.12,1.62 -0.13,3.25 -0.73,4.77 -0.48,1.23 -1.14,2.39 -2.09,3.67 -0.82,1.11 -1.84,2.06 -3.01,2.79 -2.52,1.57 -5.44,2.37 -8.69,2.37 -0.57,0 -1.14,-0.03 -1.69,-0.09 -0.08,1.01 -0.28,1.98 -0.58,2.9 -0.15,0.44 -0.32,0.88 -0.52,1.3 0.04,0.66 0.11,1.52 0.21,2.62 0.96,7.29 -3.09,11.05 -4.91,12.35 -0.38,0.26 -0.76,0.52 -1.16,0.75 1.48,2.57 1.83,4.95 1.83,6.6 0,4.6 -2.46,8.69 -6.74,11.21 -0.24,0.14 -0.49,0.27 -0.74,0.4 -0.47,0.23 -0.97,0.49 -1.49,0.76 -1.6,0.86 -3.38,1.31 -5.2,1.31 h -6.63 c -0.29,0.05 -1.31,0.25 -3.48,0.99 -4.45,1.53 -7.48,2.18 -10.12,2.18 -2.11,0 -4.13,-0.38 -6.02,-1.14 -0.54,-0.21 -1.06,-0.47 -1.56,-0.77 -0.81,-0.49 -1.62,-1.07 -2.47,-1.79 -2.59,-2.19 -4.2,-5.34 -4.51,-8.87 -0.25,-2.69 0.18,-5.18 1.28,-7.38 0.05,-0.1 0.1,-0.2 0.15,-0.29 1.98,-3.69 5.14,-6.3 9.01,-7.54 0.02,-0.57 0.04,-1.17 0.07,-1.81 V 52.9 c -4.16,-2.25 -6.78,-6.66 -6.78,-12.02 0,-4.22 1.82,-7.97 5.01,-10.41 -2.18,-1.12 -4.05,-2.81 -5.43,-4.94 -1.45,-2.1 -2.21,-4.53 -2.21,-7.1 0,-5.32 3.21,-9.93 8.61,-12.37 2.54,-1.19 5.05,-1.82 7.47,-1.88 0.53,-0.03 1.63,-0.13 3.61,-0.46 2.73,-0.48 4.49,-0.78 5.28,-0.91 0.09,-0.01 0.17,-0.02 0.26,-0.03 2.83,-0.37 6.92,-0.82 12.49,-1.36 0.24,-0.03 0.47,-0.04 0.71,-0.05 3.18,-0.11 7.7,-0.46 13.45,-1.05 1.27,-0.22 2.44,-0.32 3.56,-0.32 2.02,0 3.9,0.36 5.6,1.06 0.04,0.02 0.08,0.03 0.13,0.05 4.28,1.84 7.22,5.71 7.92,10.39 0.21,1.25 0.21,2.55 0.14,4.48 -0.01,0.6 -0.06,1.63 -0.29,4.49 z"
             transform="matrix(0.2200142,0,0,0.2200142,0,0.5)" />
        </g>
      </g>
      <g
         id="ID0.3863844624720514">
        <path
           style="fill:#ffffff"
           inkscape:connector-curvature="0"
           id="ID0.5626670885831118"
           d="m 59.399,26.437 c -0.115,0.294 -0.346,0.675 -0.692,1.144 -0.751,0.47 -1.704,0.703 -2.858,0.703 -1.213,0 -1.892,-0.469 -2.037,-1.407 -0.146,-0.938 -0.159,-2.287 -0.041,-4.046 0.233,-2.345 0.352,-3.752 0.352,-4.223 0,-1.113 -0.178,-1.964 -0.529,-2.551 -2.412,0.176 -6.235,0.44 -11.471,0.792 -7.177,0.352 -12.616,1.056 -16.322,2.111 -0.059,0.646 -0.206,1.231 -0.44,1.759 0,0.411 0,0.968 0,1.671 0,1.115 0,2.317 0,3.606 0,3.343 0.469,6.892 1.407,10.644 2.169,0.118 5.277,-0.058 9.323,-0.527 0,-0.938 -0.059,-2.257 -0.176,-3.959 -0.176,-1.992 -0.278,-3.342 -0.308,-4.046 -0.03,-0.703 -0.103,-1.377 -0.22,-2.023 -0.06,-0.82 0.028,-1.495 0.264,-2.022 0.233,-0.528 0.908,-0.82 2.023,-0.88 1.056,-0.117 1.816,0 2.287,0.352 0.469,0.353 0.732,0.896 0.791,1.628 0.058,0.733 0.117,1.422 0.176,2.066 0.177,1.994 0.293,4.692 0.353,8.093 1.289,0.352 1.935,1.231 1.935,2.639 0,0.294 -0.03,0.528 -0.088,0.704 -0.294,0.294 -0.675,0.791 -1.144,1.495 -0.059,0.118 -0.059,0.587 0,1.407 0,1.231 0.117,3.138 0.353,5.718 0.176,1.114 0.058,1.818 -0.353,2.11 -0.997,0.704 -2.082,1.056 -3.254,1.056 -1.174,0 -1.848,-0.469 -2.023,-1.407 V 43.15 c -0.061,-0.469 -0.148,-1.144 -0.267,-2.022 -0.415,-0.234 -1.36,-0.293 -2.84,-0.176 -1.064,0.176 -2.159,0.322 -3.283,0.439 -0.829,-0.058 -2.012,0.176 -3.549,0.703 -0.061,-0.352 -0.089,1.379 -0.089,5.19 v 7.213 c 0,-0.059 -0.044,0.807 -0.132,2.595 -0.088,1.789 -0.132,3.152 -0.132,4.09 0,1.583 0,2.346 0,2.287 0.058,0.059 0.146,0.146 0.262,0.264 1.396,0 3.549,-0.117 6.46,-0.352 0.115,0 0.61,-0.088 1.484,-0.264 0.581,-0.177 1.047,-0.205 1.396,-0.088 0.465,0.173 0.915,0.548 1.353,1.125 0.437,0.578 0.655,1.096 0.655,1.558 0,0.635 -0.439,1.212 -1.319,1.73 -0.587,0.288 -1.202,0.605 -1.848,0.952 -0.41,0 -0.997,0 -1.759,0 h -5.102 c -1.467,0 -3.738,0.528 -6.817,1.583 -3.078,1.056 -5.264,1.584 -6.553,1.584 -0.704,0 -1.35,-0.118 -1.936,-0.353 -0.294,-0.176 -0.631,-0.426 -1.011,-0.747 -0.383,-0.323 -0.603,-0.807 -0.66,-1.451 -0.059,-0.645 0,-1.144 0.176,-1.496 0.88,-1.641 2.375,-2.491 4.486,-2.551 3.4,-0.176 5.131,-0.277 5.189,-0.308 0.058,-0.028 0.205,-0.189 0.439,-0.484 -0.059,-1.055 0.029,-4.719 0.265,-10.995 v -9.675 c -2.874,0 -4.457,0 -4.75,0 -1.35,-0.116 -2.023,-0.988 -2.023,-2.618 0,-0.815 0.26,-1.398 0.781,-1.747 0.346,-0.232 0.895,-0.553 1.646,-0.96 0.808,-0.115 1.992,-0.378 3.554,-0.786 -0.206,-1.512 -0.411,-3.723 -0.616,-6.634 0,-0.581 0.103,-1.818 0.309,-3.709 0.204,-1.892 0.308,-3.274 0.308,-4.148 0,-1.221 -0.176,-2.035 -0.527,-2.443 -0.471,0 -1.247,0.103 -2.331,0.308 -1.086,0.206 -1.892,0.308 -2.419,0.308 -1.35,0 -2.347,-0.557 -2.991,-1.671 -0.234,-0.293 -0.352,-0.616 -0.352,-0.968 0,-0.938 0.732,-1.729 2.199,-2.375 1.231,-0.585 2.315,-0.879 3.254,-0.879 1.29,-0.059 2.991,-0.265 5.103,-0.616 2.639,-0.469 4.339,-0.762 5.102,-0.88 2.696,-0.352 6.742,-0.791 12.139,-1.319 3.518,-0.116 8.385,-0.497 14.601,-1.144 1.584,-0.292 2.727,-0.292 3.431,0 0.82,0.353 1.289,1.027 1.407,2.023 0.058,0.235 0.058,1.056 0,2.463 0,0.47 -0.088,1.789 -0.264,3.958 -0.118,1.76 -0.176,3.167 -0.176,4.223 0,0.118 0.061,0.278 0.183,0.483 0.122,0.206 0.185,0.338 0.185,0.396 -0.001,0.411 0.023,0.967 0.071,1.671 z"
           transform="matrix(0.2200142,0,0,0.2200142,0,0.5)" />
      </g>
    </g>
  </g>
</svg>
