<?xml version="1.0" encoding="UTF-8" standalone="no"?>
<!-- Created with Inkscape (http://www.inkscape.org/) -->

<svg
   xmlns:dc="http://purl.org/dc/elements/1.1/"
   xmlns:cc="http://creativecommons.org/ns#"
   xmlns:rdf="http://www.w3.org/1999/02/22-rdf-syntax-ns#"
   xmlns:svg="http://www.w3.org/2000/svg"
   xmlns="http://www.w3.org/2000/svg"
   xmlns:sodipodi="http://sodipodi.sourceforge.net/DTD/sodipodi-0.dtd"
   xmlns:inkscape="http://www.inkscape.org/namespaces/inkscape"
   width="210mm"
   height="297mm"
   viewBox="0 0 210 297"
   version="1.1"
   id="svg252"
   inkscape:version="0.92.1 r15371"
   sodipodi:docname="03.svg">
  <defs
     id="defs246" />
  <sodipodi:namedview
     id="base"
     pagecolor="#ffffff"
     bordercolor="#666666"
     borderopacity="1.0"
     inkscape:pageopacity="0.0"
     inkscape:pageshadow="2"
     inkscape:zoom="0.98994949"
     inkscape:cx="299.22558"
     inkscape:cy="978.08058"
     inkscape:document-units="mm"
     inkscape:current-layer="text14-7"
     showgrid="false"
     inkscape:window-width="1269"
     inkscape:window-height="704"
     inkscape:window-x="0"
     inkscape:window-y="27"
     inkscape:window-maximized="1" />
  <metadata
     id="metadata249">
    <rdf:RDF>
      <cc:Work
         rdf:about="">
        <dc:format>image/svg+xml</dc:format>
        <dc:type
           rdf:resource="http://purl.org/dc/dcmitype/StillImage" />
        <dc:title />
      </cc:Work>
    </rdf:RDF>
  </metadata>
  <g
     inkscape:label="Camada 1"
     inkscape:groupmode="layer"
     id="layer1">
    <path
       style="opacity:1;fill:#e6e6e6;fill-opacity:1;stroke:#cccccc;stroke-width:0.32466269;stroke-linecap:round;stroke-linejoin:round;stroke-miterlimit:4;stroke-dasharray:none;stroke-dashoffset:0;stroke-opacity:1"
       d="M 6.9658976,8.4051208 H 133.64124 V 36.773443 H 6.9658976 Z"
       id="rect10" />
    <g
       id="g244"
       transform="translate(-1.2029138,-4.0654)">
      <g
         aria-label="2+6=7"
         style="font-style:normal;font-variant:normal;font-weight:normal;font-stretch:normal;font-size:15.26951599px;line-height:1.25;font-family:'URW Gothic L';-inkscape-font-specification:'URW Gothic L';letter-spacing:0px;word-spacing:0px;fill:#000000;fill-opacity:1;stroke:none;stroke-width:0.38173789"
         id="text14">
        <path
           d="M 9.1414198,32.466757 9.5216665,32.041775 Q 9.4023734,31.825557 9.2905361,31.661529 9.1861547,31.490045 9.1563314,31.415487 q 0.1491164,-0.246042 0.4398933,-0.730671 0.2907769,-0.492084 0.6412003,-1.125828 0.350424,-0.633745 0.73067,-1.364415 0.387703,-0.73067 0.738126,-1.468796 0.290777,-0.611377 0.551731,-1.185475 0.260953,-0.581554 0.417526,-1.066182 0.164028,-0.492084 0.201307,-0.879787 0.03728,-0.395158 -0.104382,-0.626289 -0.104381,-0.171483 -0.432437,-0.223674 -0.328056,-0.05965 -0.767949,-0.05219 -0.432438,0.0075 -0.931978,0.07456 -0.492084,0.0671 -0.9170654,0.141661 l 0.4249814,-0.6412 -0.6262885,-0.246042 0.41007,-0.529364 Q 9.87209,21.447058 9.8124434,21.379955 9.7527969,21.33522 9.6856945,21.28303 q -0.059647,-0.05219 -0.1342047,-0.111838 0.4697162,-0.186395 1.0736382,-0.342967 0.603921,-0.164028 1.237665,-0.246042 0.633745,-0.08201 1.237666,-0.05965 0.603922,0.02237 1.096006,0.216219 0.87233,0.350423 1.081093,1.118373 0.216219,0.760493 -0.134204,1.819219 -0.305689,0.917066 -0.656112,1.752118 -0.350424,0.827595 -0.753038,1.677559 -0.395159,0.857419 -0.872331,1.752117 -0.469716,0.894698 -1.05127,1.975792 0.454805,0 0.946889,0.0075 0.492084,0.0075 0.939433,0.01491 0.454805,0.0075 0.82014,0.02237 0.365335,0.01491 0.596465,0.01491 l 0.149117,0.417526 -1.051271,0.574098 0.976712,0.35788 -0.186395,0.454804 H 9.3725501 Z"
           style="font-style:normal;font-variant:normal;font-weight:normal;font-stretch:normal;font-family:AngryBirds;-inkscape-font-specification:AngryBirds;stroke-width:0.38173789"
           id="path339" />
        <path
           d="m 16.127522,27.859061 0.611377,-0.521907 -0.275866,-1.021447 1.72975,-0.156572 0.01491,-2.162188 0.82014,-0.05219 0.492084,-0.529363 0.469717,0.02982 v 2.63936 l 1.878866,-0.134205 0.02982,0.260953 -0.529363,0.730671 0.514451,0.536819 -0.04473,0.283321 -1.878867,0.432437 -0.134204,2.445509 h -0.827596 l -0.656112,-0.0671 -0.104382,-2.162187 -2.020527,0.119293 z"
           style="font-style:normal;font-variant:normal;font-weight:normal;font-stretch:normal;font-family:AngryBirds;-inkscape-font-specification:AngryBirds;stroke-width:0.38173789"
           id="path341" />
        <path
           d="m 22.919772,28.66429 q -0.01491,-0.484629 -0.02982,-1.103461 -0.01491,-0.618833 0.01491,-1.304769 0.02982,-0.656112 0.09692,-1.342047 0.07456,-0.693391 0.238587,-1.334591 0.149116,-0.641201 0.402614,-1.17802 0.253498,-0.544274 0.618833,-0.946889 0.372791,-0.41007 0.864875,-0.656112 0.499539,-0.253497 1.155651,-0.313144 0.775406,-0.07456 1.453885,-0.04473 0.685935,0.02982 1.200387,0.17894 l -0.119293,0.216218 0.193851,0.260954 -1.14074,0.365335 1.252577,0.596466 -0.111837,0.149116 q -0.335512,-0.04473 -0.671024,-0.0671 -0.335512,-0.02237 -0.671023,0.0075 -0.454805,0.02982 -0.90961,0.171484 -0.447349,0.134205 -0.872331,0.454805 -0.275865,0.216219 -0.454805,0.506996 -0.171484,0.283321 -0.290777,0.678479 -0.111837,0.387703 -0.164028,0.902154 -0.05219,0.506996 -0.104381,1.148196 0.685935,-0.216218 1.304768,-0.275865 0.618833,-0.05965 1.14074,-0.01491 0.521907,0.04473 0.90961,0.186396 0.387703,0.134205 0.603921,0.305688 0.246042,0.186396 0.469717,0.536819 0.23113,0.342968 0.387702,0.790317 0.164028,0.439893 0.231131,0.931977 0.07456,0.484629 -0.0075,0.946889 -0.07456,0.521908 -0.193851,0.961801 -0.111838,0.439893 -0.298233,0.82014 -0.17894,0.380247 -0.469717,0.715758 -0.290776,0.328057 -0.715758,0.596466 -0.275865,0.186395 -0.812684,0.275865 -0.529363,0.09693 -1.118373,0.08947 -0.58901,-0.0075 -1.133284,-0.134205 -0.536819,-0.119293 -0.842508,-0.365335 -0.216219,-0.171484 -0.454805,-0.484628 -0.23113,-0.313144 -0.439893,-0.775405 -0.208763,-0.462261 -0.357879,-1.073638 -0.141661,-0.611377 -0.156573,-1.379326 z m 2.05035,-0.05965 q -0.04473,0.395159 0,0.790317 0.04473,0.387702 0.156573,0.738126 0.119293,0.350423 0.298232,0.581554 0.201307,0.260953 0.49954,0.365335 0.298233,0.104381 0.603921,0.08201 0.305689,-0.02237 0.559187,-0.134205 0.260953,-0.119293 0.402614,-0.283321 0.186395,-0.246042 0.298233,-0.618833 0.111837,-0.372791 0.134204,-0.782861 0.02237,-0.417526 -0.04473,-0.82014 -0.0671,-0.402614 -0.253498,-0.693391 -0.134205,-0.23113 -0.469717,-0.365335 -0.335512,-0.141661 -0.723214,-0.156572 -0.380247,-0.01491 -0.723215,0.126749 -0.342967,0.134204 -0.514451,0.454805 -0.171484,0.3206 -0.223675,0.715758 z"
           style="font-style:normal;font-variant:normal;font-weight:normal;font-stretch:normal;font-family:AngryBirds;-inkscape-font-specification:AngryBirds;stroke-width:0.38173789"
           id="path343" />
        <path
           d="m 31.210641,29.655914 0.6412,-0.424982 -0.395158,-0.760494 3.712998,-0.246042 0.23113,0.454805 -0.596465,0.447349 0.193851,0.760494 -3.645895,0.492084 0.07456,-0.417526 z m 0.05219,-3.750277 0.238586,-0.387703 -0.04473,-0.715758 3.683174,-0.134205 0.01491,0.275865 -0.462261,0.641201 0.462261,0.559186 -0.09693,0.246042 -3.526602,0.395158 0.186396,-0.424981 z"
           style="font-style:normal;font-variant:normal;font-weight:normal;font-stretch:normal;font-family:AngryBirds;-inkscape-font-specification:AngryBirds;stroke-width:0.38173789"
           id="path345" />
        <path
           d="m 36.340246,21.156281 0.02982,-0.246042 5.204161,-0.395159 -0.149116,0.790317 0.87233,-0.07456 -0.05219,0.656112 0.477172,0.02982 -3.787556,10.549983 -0.395158,-0.208763 -0.335512,0.208763 -0.04474,-0.991624 -1.148196,1.297313 -0.119293,-0.05965 3.094165,-9.849136 h -2.95996 l 0.23113,-0.439893 -0.611377,-0.3206 0.917066,-0.656112 z"
           style="font-style:normal;font-variant:normal;font-weight:normal;font-stretch:normal;font-family:AngryBirds;-inkscape-font-specification:AngryBirds;stroke-width:0.38173789"
           id="path347" />
      </g>
      <g
         aria-label="23 é par = "
         style="font-style:normal;font-variant:normal;font-weight:normal;font-stretch:normal;font-size:15.26951599px;line-height:1.25;font-family:'URW Gothic L';-inkscape-font-specification:'URW Gothic L';letter-spacing:0px;word-spacing:0px;fill:#000000;fill-opacity:1;stroke:none;stroke-width:0.38173789"
         id="text14-7">
        <path
           d="m 63.808601,32.857924 0.380247,-0.424982 q -0.119294,-0.216219 -0.231131,-0.380247 -0.104381,-0.171483 -0.134205,-0.246042 0.149117,-0.246042 0.439894,-0.73067 0.290777,-0.492084 0.6412,-1.125828 0.350424,-0.633745 0.73067,-1.364415 0.387703,-0.73067 0.738126,-1.468796 0.290777,-0.611377 0.551731,-1.185476 0.260953,-0.581553 0.417526,-1.066182 0.164028,-0.492084 0.201307,-0.879786 0.03728,-0.395158 -0.104382,-0.626289 -0.104381,-0.171484 -0.432437,-0.223674 -0.328056,-0.05965 -0.767949,-0.05219 -0.432438,0.0075 -0.931978,0.07456 -0.492084,0.0671 -0.917065,0.141661 l 0.424981,-0.641201 -0.626288,-0.246042 0.41007,-0.529363 q -0.05965,-0.04473 -0.119294,-0.111837 -0.05965,-0.04473 -0.126748,-0.09693 -0.05965,-0.05219 -0.134205,-0.111837 0.469716,-0.186396 1.073638,-0.342968 0.603921,-0.164028 1.237665,-0.246042 0.633745,-0.08201 1.237666,-0.05965 0.603922,0.02237 1.096006,0.216218 0.87233,0.350424 1.081093,1.118373 0.216219,0.760494 -0.134204,1.81922 -0.305689,0.917066 -0.656112,1.752117 -0.350424,0.827596 -0.753038,1.677559 -0.395158,0.857419 -0.872331,1.752118 -0.469716,0.894698 -1.05127,1.975792 0.454805,0 0.946889,0.0075 0.492084,0.0075 0.939433,0.01491 0.454805,0.0075 0.82014,0.02237 0.365335,0.01491 0.596465,0.01491 l 0.149117,0.417526 -1.051271,0.574098 0.976712,0.357879 -0.186395,0.454805 h -5.629143 z"
           style="font-style:normal;font-variant:normal;font-weight:normal;font-stretch:normal;font-family:AngryBirds;-inkscape-font-specification:AngryBirds;stroke-width:0.38173789"
           id="path350" />
        <path
           d="m 81.657831,24.358291 0.208763,-0.492084 -0.104382,-0.201307 4.36911,-0.290777 0.134204,0.596465 -0.946889,0.656112 0.902155,0.275866 -0.119294,0.335511 -2.229289,0.201307 -0.05219,2.348583 2.22929,-0.07456 -0.253498,0.797773 0.439893,0.178939 -0.07456,0.41007 -2.311304,0.231131 0.09693,2.490243 2.303848,-0.08947 -0.149117,0.790317 0.41007,0.186395 -0.171483,0.581554 -3.601161,0.208763 0.05965,-0.775405 -0.931977,0.05965 0.09692,-7.142674 -0.186395,-0.305689 0.656112,-0.566642 z m 1.386782,-2.020527 1.707382,-2.624448 0.350424,-0.02982 -0.104382,0.611377 0.917066,-0.07456 -0.08947,0.365335 0.3206,0.134204 -2.035438,1.804308 -0.365335,-0.365335 -0.536819,0.335512 z"
           style="font-style:normal;font-variant:normal;font-weight:normal;font-stretch:normal;font-family:AngryBirds;-inkscape-font-specification:AngryBirds;stroke-width:0.38173789"
           id="path354" />
        <path
           d="m 89.956155,24.037691 0.08947,-0.372791 q 0.626289,-0.231131 1.431517,-0.402614 0.812685,-0.171484 1.617913,-0.223675 0.208763,-0.01491 0.41007,-0.0075 0.574098,0 1.088549,0.09693 0.693392,0.126749 1.073638,0.492084 0.611377,0.596465 0.827596,1.364415 0.149116,0.521907 0.141661,1.043814 0,0.246042 -0.02982,0.492084 -0.09692,0.775405 -0.469716,1.513531 -0.365335,0.73067 -0.924522,1.267489 -0.186395,0.171484 -0.477172,0.35788 -0.290777,0.178939 -0.648656,0.350423 -0.35788,0.164028 -0.782861,0.313144 -0.417526,0.141661 -0.842508,0.231131 l -0.01491,2.654271 -0.275866,0.09693 -0.305688,-0.857419 -0.611377,0.827596 -0.395159,-0.462261 -0.305688,0.186395 -0.07456,-7.634758 -0.335512,-0.260953 0.917066,-0.946889 z m 2.31876,1.125828 0.08201,3.586249 q 0.380247,-0.134205 0.700847,-0.290777 0.275865,-0.119293 0.529363,-0.246042 0.260954,-0.134205 0.387703,-0.238586 0.3206,-0.290777 0.544274,-0.685936 0.231131,-0.395158 0.298233,-0.805228 0.02237,-0.149116 0.02982,-0.283321 0,-0.253498 -0.08201,-0.484628 -0.119293,-0.365335 -0.514451,-0.611377 -0.186396,-0.111838 -0.492084,-0.119293 -0.02237,0 -0.03728,0.0075 -0.328056,0.0075 -0.648657,0.03728 -0.387702,0.05965 -0.797772,0.134205 z"
           style="font-style:normal;font-variant:normal;font-weight:normal;font-stretch:normal;font-family:AngryBirds;-inkscape-font-specification:AngryBirds;stroke-width:0.38173789"
           id="path356" />
        <path
           d="m 96.308512,32.999584 1.968336,-9.424154 0.611377,0.186395 0.559186,-0.492084 0.842509,1.036359 0.47717,-0.931977 0.52936,0.3206 0.49209,-0.283321 1.78194,9.647829 -0.33551,-0.231131 -0.55919,0.320601 -0.43244,-0.551731 -0.41007,0.417526 -0.56664,-2.065262 -2.840666,0.231131 -0.544275,2.080173 -0.156572,0.05965 -0.484628,-0.611377 -0.611377,0.484629 z m 2.497699,-3.556425 2.184559,-0.201307 -0.7605,-3.422221 -0.641198,0.04473 z"
           style="font-style:normal;font-variant:normal;font-weight:normal;font-stretch:normal;font-family:AngryBirds;-inkscape-font-specification:AngryBirds;stroke-width:0.38173789"
           id="path358" />
        <path
           d="m 104.16694,24.015323 0.0522,-0.283321 q 0.84251,-0.275865 1.68502,-0.417526 0.84996,-0.149116 1.64028,-0.156572 0.0447,0 0.082,0 0.74559,0 1.39424,0.126749 0.67848,0.134205 1.17802,0.462261 0.45481,0.290777 0.72322,0.73067 0.27586,0.439893 0.32805,0.991624 0.0149,0.134204 0.0149,0.283321 0,0.424981 -0.12675,0.902154 -0.16402,0.633744 -0.56664,1.289856 -0.0746,0.134205 -0.23113,0.335512 -0.15657,0.201307 -0.34297,0.432438 -0.17894,0.223674 -0.39515,0.447349 -0.20877,0.216219 -0.41007,0.387702 0.18639,0.439894 0.39515,0.931978 0.21622,0.484628 0.41753,0.939433 0.20876,0.447349 0.39516,0.827596 0.18639,0.372791 0.29078,0.581553 l -0.10439,0.111838 -0.88724,-0.492084 -0.0447,0.760493 -0.30569,-0.134205 -0.27587,0.186396 -1.84904,-2.855579 -0.9618,0.380247 -0.0746,2.288936 -0.24604,-0.02982 -0.507,-0.797772 -0.39516,1.028903 -0.27586,-0.111838 q -0.0149,-0.454805 -0.0522,-1.304768 -0.0373,-0.849963 -0.0671,-1.849043 -0.0298,-0.99908 -0.0298,-2.027982 0,-1.028903 0.0597,-1.871411 l 0.0447,-0.596465 -0.48462,-0.350424 0.80522,-0.73067 z m 2.19947,4.801547 q 0.55173,-0.216219 1.13328,-0.581554 0.58156,-0.365335 1.00654,-0.797772 0.42498,-0.439893 0.61883,-0.90961 0.0895,-0.208763 0.0895,-0.417526 0,-0.246042 -0.12675,-0.484628 -0.1342,-0.246042 -0.57409,-0.313144 -0.35788,-0.05965 -0.73813,-0.05965 -0.082,0 -0.17148,0 -0.55173,0.02982 -1.20785,0.141661 z"
           style="font-style:normal;font-variant:normal;font-weight:normal;font-stretch:normal;font-family:AngryBirds;-inkscape-font-specification:AngryBirds;stroke-width:0.38173789"
           id="path360" />
        <path
           d="m 115.34322,30.04708 0.6412,-0.424981 -0.39516,-0.760494 3.713,-0.246042 0.23113,0.454805 -0.59647,0.447349 0.19385,0.760494 -3.64589,0.492084 0.0746,-0.417526 z m 0.0522,-3.750276 0.23859,-0.387703 -0.0447,-0.715759 3.68318,-0.134204 0.0149,0.275865 -0.46226,0.6412 0.46226,0.559187 -0.0969,0.246042 -3.5266,0.395158 0.18639,-0.424981 z"
           style="font-style:normal;font-variant:normal;font-weight:normal;font-stretch:normal;font-family:AngryBirds;-inkscape-font-specification:AngryBirds;stroke-width:0.38173789"
           id="path362" />
        <path
           id="path37"
           style="font-style:normal;font-variant:normal;font-weight:normal;font-stretch:normal;font-family:AngryBirds;-inkscape-font-specification:AngryBirds;stroke-width:0.38173789"
           d="m 70.687772,32.857924 0.380247,-0.424982 q -0.119294,-0.216219 -0.231131,-0.380247 -0.104381,-0.171483 -0.134205,-0.246042 0.149117,-0.246042 0.439894,-0.73067 0.290777,-0.492084 0.6412,-1.125828 0.350424,-0.633745 0.73067,-1.364415 0.387703,-0.73067 0.738126,-1.468796 0.290777,-0.611377 0.551731,-1.185476 0.260953,-0.581553 0.417526,-1.066182 0.164028,-0.492084 0.201307,-0.879786 0.03728,-0.395158 -0.104382,-0.626289 -0.104381,-0.171484 -0.432437,-0.223674 -0.328056,-0.05965 -0.767949,-0.05219 -0.432438,0.0075 -0.931978,0.07456 -0.492084,0.0671 -0.917065,0.141661 l 0.424981,-0.641201 -0.626288,-0.246042 0.41007,-0.529363 q -0.05965,-0.04473 -0.119294,-0.111837 -0.05965,-0.04473 -0.126748,-0.09693 -0.05965,-0.05219 -0.134205,-0.111837 0.469716,-0.186396 1.073638,-0.342968 0.603921,-0.164028 1.237665,-0.246042 0.633745,-0.08201 1.237666,-0.05965 0.603922,0.02237 1.096006,0.216218 0.87233,0.350424 1.081093,1.118373 0.216219,0.760494 -0.134204,1.81922 -0.305689,0.917066 -0.656112,1.752117 -0.350424,0.827596 -0.753038,1.677559 -0.395158,0.857419 -0.872331,1.752118 -0.469716,0.894698 -1.05127,1.975792 0.454805,0 0.946889,0.0075 0.492084,0.0075 0.939433,0.01491 0.454805,0.0075 0.82014,0.02237 0.365335,0.01491 0.596465,0.01491 l 0.149117,0.417526 -1.051271,0.574098 0.976712,0.357879 -0.186395,0.454805 h -5.629143 z"
           inkscape:connector-curvature="0" />
      </g>
      <g
         transform="matrix(1.442789,0,0,1.442789,-7.6812235,-152.29248)"
         id="g18">
        <path
           style="opacity:1;fill:#ffffff;fill-opacity:1;stroke:#ffffff;stroke-width:0.1;stroke-linecap:round;stroke-linejoin:round;stroke-miterlimit:4;stroke-dasharray:none;stroke-dashoffset:0;stroke-opacity:1"
           d="m 36.947174,116.61086 h 10.583333 v 14.83557 H 36.947174 Z"
           id="rect847" />
        <g
           aria-label="?"
           style="font-style:normal;font-variant:normal;font-weight:normal;font-stretch:normal;font-size:13.90325642px;line-height:1.25;font-family:'URW Gothic L';-inkscape-font-specification:'URW Gothic L';letter-spacing:0px;word-spacing:0px;fill:#00ff00;fill-opacity:1;stroke:#000000;stroke-width:0.1;stroke-miterlimit:4;stroke-dasharray:none"
           id="text40">
          <path
             d="m 39.261911,119.27773 0.332646,-0.29191 q -0.02716,-0.0407 -0.06789,-0.095 -0.02716,-0.0407 -0.08146,-0.0883 -0.04752,-0.0543 -0.07468,-0.10862 0.807855,-0.23761 1.608922,-0.3055 0.801066,-0.0679 1.649654,0.0407 0.67887,0.0815 1.208388,0.43447 0.529519,0.34623 0.862165,0.84859 0.332646,0.49558 0.454843,1.09298 0.128985,0.59741 -0.01358,1.19481 -0.108619,0.44806 -0.407321,0.80107 -0.298703,0.35301 -0.739969,0.65171 -0.434476,0.29871 -0.984361,0.54989 -0.549885,0.25118 -1.160868,0.47521 -0.08146,0.2376 -0.142562,0.46163 -0.05431,0.21724 -0.09504,0.42769 -0.04073,0.19687 -0.05431,0.36659 -0.01358,0.16293 -0.04073,0.27155 l -0.21045,0.18329 -0.583828,-0.52952 -0.224027,0.70603 -0.176506,-0.0272 q -0.02716,-0.16972 -0.07468,-0.44805 -0.04073,-0.28513 -0.08146,-0.61099 -0.04073,-0.33264 -0.07468,-0.67887 -0.03394,-0.34622 -0.03394,-0.65171 0.251181,-0.13577 0.597405,-0.30549 0.346224,-0.16972 0.706025,-0.3598 0.488786,-0.27834 0.862165,-0.59741 0.373378,-0.31907 0.475209,-0.64493 0.122196,-0.40053 0.04073,-0.73996 -0.08146,-0.33944 -0.291914,-0.59062 -0.21045,-0.25118 -0.52273,-0.40732 -0.31228,-0.16293 -0.644927,-0.19009 -0.400533,-0.0272 -0.889319,-0.0272 -0.488786,0 -1.018305,0.095 l 0.543096,-0.57025 z m 0.570251,10.34598 q -0.142563,-0.10183 -0.196873,-0.24439 -0.05431,-0.14935 0,-0.31907 0.05431,-0.17651 0.224027,-0.3598 0.169718,-0.19008 0.475209,-0.37338 0.09504,-0.0543 0.285126,-0.0882 0.196872,-0.034 0.41411,-0.0475 0.217239,-0.0136 0.393745,0 0.183295,0.0136 0.237604,0.0543 0.06789,0.0407 0.135774,0.18329 0.07468,0.13578 0.08146,0.31228 0.0068,0.16972 -0.08146,0.3598 -0.08146,0.1833 -0.325857,0.35301 -0.15614,0.10862 -0.414111,0.15614 -0.25797,0.0543 -0.509152,0.0747 -0.244394,0.0204 -0.454843,0 -0.21045,-0.0204 -0.264759,-0.0611 z"
             style="font-style:normal;font-variant:normal;font-weight:normal;font-stretch:normal;font-family:AngryBirds;-inkscape-font-specification:AngryBirds;fill:#00ff00;stroke:#000000;stroke-width:0.1;stroke-miterlimit:4;stroke-dasharray:none"
             id="path366" />
        </g>
      </g>
      <g
         id="ID0.1613758858293295"
         transform="matrix(0.60814044,0,0,0.60814044,123.03275,20.429119)">
        <g
           id="ID0.04199532698839903">
          <g
             id="ID0.4123793593607843">
            <path
               transform="matrix(0.23988406,0,0,0.23988406,0.25,0)"
               d="m 71.96,13.2 c 0,1.65 -0.3,3.3 -0.88,4.93 -1.58,4.67 -5.11,7.97 -9.67,9.25 -0.32,2.11 -0.91,5.63 -2.03,11.87 -0.03,0.14 -0.05,0.28 -0.08,0.42 -0.96,4.34 -2.33,10.95 -4.05,19.65 -0.33,1.97 -0.75,3.88 -1.26,5.67 -0.4,2.16 -0.83,4.3 -1.28,6.39 -0.03,0.15 -0.07,0.31 -0.11,0.46 -1.54,5.89 -5.22,10.23 -10.36,12.22 -0.06,0.02 -0.11,0.04 -0.16,0.06 -2.28,0.84 -4.22,1.23 -6.13,1.23 -2.62,0 -5.07,-0.76 -7.11,-2.21 C 27.15,81.97 25.28,80.43 24.03,77.95 23.54,76.97 23.2,75.92 23.02,74.83 23,74.74 22.91,74.22 22.6,72.96 22.31,72.13 21.61,70.14 20.5,67 20.43,66.79 20.36,66.57 20.3,66.36 19.96,65.18 19.43,63.39 18.71,60.99 17.94,58.65 17.2,56.24 16.49,53.82 15.35,50.27 13.68,44.92 11.41,37.52 10,37.24 8.62,36.8 7.3,36.18 6.48,35.79 5.71,35.31 5,34.73 1.82,32.13 0,28.29 0,24.19 0,18.1 3.67,12.93 9.36,11.03 9.43,11.01 9.49,10.99 9.56,10.97 12.8,9.96 15.62,9.37 18.15,9.2 18.89,9.04 19.73,8.89 20.7,8.74 21.55,8.61 22.42,8.59 23.27,8.66 23.41,8.65 23.77,8.61 24.41,8.48 26.2,8.12 27.54,7.91 28.65,7.81 28.88,7.44 29.13,7.08 29.4,6.74 31.15,4.54 34.46,1.8 40.27,1.19 40.36,1.18 40.45,1.17 40.53,1.16 41.9,1.05 44.01,0.85 46.86,0.57 47.05,0.55 47.25,0.54 47.45,0.53 48.73,0.47 50.45,0.41 52.62,0.36 54.32,0.22 55.41,0.13 55.89,0.08 56.34,0.03 56.8,0 57.26,0 c 9.65,0 14.7,6.64 14.7,13.2 z"
               id="ID0.6994774197228253"
               inkscape:connector-curvature="0"
               style="fill:#003fff" />
          </g>
        </g>
        <g
           id="ID0.1456912192516029">
          <path
             transform="matrix(0.23988406,0,0,0.23988406,0.25,0)"
             d="m 60.693,14.517 c -0.527,1.643 -1.759,2.463 -3.694,2.463 -0.411,0 -1.231,-0.058 -2.463,-0.176 -0.998,-0.116 -1.759,-0.146 -2.287,-0.088 -0.118,0.06 -0.294,0.176 -0.527,0.352 -0.176,0.88 -0.471,3.05 -0.88,6.51 -0.235,1.994 -0.998,6.567 -2.287,13.722 -0.998,4.516 -2.375,11.201 -4.134,20.055 -0.294,1.818 -0.675,3.519 -1.144,5.102 -0.411,2.229 -0.851,4.429 -1.319,6.598 -0.646,2.463 -1.877,4.046 -3.694,4.75 -1.583,0.585 -2.61,0.703 -3.079,0.352 -0.763,-0.527 -1.202,-0.91 -1.319,-1.144 -0.118,-0.703 -0.352,-1.759 -0.703,-3.166 -0.118,-0.353 -0.88,-2.521 -2.287,-6.51 -0.352,-1.231 -0.91,-3.107 -1.671,-5.63 -0.764,-2.345 -1.496,-4.719 -2.199,-7.124 -1.174,-3.636 -2.962,-9.382 -5.366,-17.24 -0.41,-2.053 -1.114,-4.516 -2.11,-7.389 -2.463,0.587 -4.047,0.879 -4.75,0.879 -0.998,0 -1.936,-0.204 -2.814,-0.615 -0.646,-0.528 -0.968,-1.201 -0.968,-2.023 0,-1.407 0.615,-2.315 1.847,-2.727 2.815,-0.88 5.102,-1.319 6.861,-1.319 0.585,-0.176 1.465,-0.352 2.639,-0.528 1.056,0.118 2.463,0 4.222,-0.352 1.76,-0.352 2.932,-0.527 3.519,-0.527 0.88,0 1.672,0.176 2.375,0.527 0.586,0.528 0.88,1.203 0.88,2.023 0,1.466 -0.704,2.405 -2.111,2.814 -1.29,0.06 -3.05,0.439 -5.277,1.144 0.117,2.054 0.381,3.725 0.792,5.014 0.879,2.639 2.11,6.305 3.694,10.995 0.058,0.587 0.204,1.379 0.439,2.375 1.231,4.692 3.312,11.318 6.245,19.879 0.352,-0.819 0.792,-2.429 1.319,-4.828 0.645,-3.395 1.056,-5.414 1.231,-6.059 1.056,-4.097 1.964,-8.281 2.727,-12.555 1.113,-5.853 1.7,-8.925 1.76,-9.218 0.761,-3.687 1.289,-6.643 1.583,-8.867 0.233,-1.639 0.439,-3.248 0.615,-4.829 -0.059,-0.058 -0.118,-0.116 -0.176,-0.176 -3.988,0.06 -6.157,0.06 -6.509,0 -0.527,0 -1.231,-0.462 -2.111,-1.387 0,-0.058 0.044,-0.145 0.132,-0.26 0.089,-0.115 0.161,-0.203 0.221,-0.261 -0.06,-0.347 -0.03,-0.837 0.088,-1.474 0.645,-0.808 1.788,-1.3 3.431,-1.474 1.407,-0.115 3.576,-0.317 6.509,-0.607 1.289,-0.058 3.048,-0.115 5.277,-0.173 2.814,-0.23 4.163,-0.347 4.046,-0.347 2.463,0 3.694,0.734 3.694,2.199 -0.003,0.412 -0.091,0.852 -0.267,1.32 z"
             id="ID0.9227194082923234"
             inkscape:connector-curvature="0"
             style="fill:#ffffff" />
        </g>
      </g>
    </g>
  </g>
</svg>
