<?xml version="1.0" encoding="UTF-8" standalone="no"?>
<!-- Created with Inkscape (http://www.inkscape.org/) -->

<svg
   xmlns:dc="http://purl.org/dc/elements/1.1/"
   xmlns:cc="http://creativecommons.org/ns#"
   xmlns:rdf="http://www.w3.org/1999/02/22-rdf-syntax-ns#"
   xmlns:svg="http://www.w3.org/2000/svg"
   xmlns="http://www.w3.org/2000/svg"
   xmlns:sodipodi="http://sodipodi.sourceforge.net/DTD/sodipodi-0.dtd"
   xmlns:inkscape="http://www.inkscape.org/namespaces/inkscape"
   width="210mm"
   height="297mm"
   viewBox="0 0 210 297"
   version="1.1"
   id="svg597"
   inkscape:version="0.92.1 r15371"
   sodipodi:docname="05.svg">
  <defs
     id="defs591" />
  <sodipodi:namedview
     id="base"
     pagecolor="#ffffff"
     bordercolor="#666666"
     borderopacity="1.0"
     inkscape:pageopacity="0.0"
     inkscape:pageshadow="2"
     inkscape:zoom="0.35"
     inkscape:cx="400"
     inkscape:cy="592.35098"
     inkscape:document-units="mm"
     inkscape:current-layer="layer1"
     showgrid="false"
     inkscape:window-width="1269"
     inkscape:window-height="704"
     inkscape:window-x="0"
     inkscape:window-y="27"
     inkscape:window-maximized="1" />
  <metadata
     id="metadata594">
    <rdf:RDF>
      <cc:Work
         rdf:about="">
        <dc:format>image/svg+xml</dc:format>
        <dc:type
           rdf:resource="http://purl.org/dc/dcmitype/StillImage" />
        <dc:title></dc:title>
      </cc:Work>
    </rdf:RDF>
  </metadata>
  <g
     inkscape:label="Camada 1"
     inkscape:groupmode="layer"
     id="layer1">
    <path
       style="opacity:1;fill:#e6e6e6;fill-opacity:1;stroke:#cccccc;stroke-width:0.32466269;stroke-linecap:round;stroke-linejoin:round;stroke-miterlimit:4;stroke-dasharray:none;stroke-dashoffset:0;stroke-opacity:1"
       d="M 6.9658957,10.672981 H 133.64124 V 39.041304 H 6.9658957 Z"
       id="rect10" />
    <g
       aria-label="2+6=7"
       style="font-style:normal;font-variant:normal;font-weight:normal;font-stretch:normal;font-size:15.26951599px;line-height:1.25;font-family:'URW Gothic L';-inkscape-font-specification:'URW Gothic L';letter-spacing:0px;word-spacing:0px;fill:#000000;fill-opacity:1;stroke:none;stroke-width:0.38173789"
       id="text14">
      <path
         d="M 9.5260109,30.669222 9.9062576,30.24424 Q 9.7869645,30.028022 9.6751272,29.863994 9.5707458,29.69251 9.5409225,29.617952 q 0.1491164,-0.246042 0.4398933,-0.73067 0.2907772,-0.492084 0.6412002,-1.125829 0.350424,-0.633745 0.73067,-1.364415 0.387703,-0.73067 0.738126,-1.468796 0.290777,-0.611377 0.551731,-1.185475 0.260954,-0.581554 0.417526,-1.066182 0.164028,-0.492084 0.201307,-0.879787 0.03728,-0.395158 -0.104382,-0.626288 -0.104381,-0.171484 -0.432437,-0.223675 -0.328056,-0.05965 -0.767949,-0.05219 -0.432438,0.0075 -0.931978,0.07456 -0.492084,0.0671 -0.917065,0.141661 l 0.424981,-0.6412 -0.6262884,-0.246042 0.4100704,-0.529364 q -0.05965,-0.04473 -0.119293,-0.111837 -0.05965,-0.04473 -0.126749,-0.09692 -0.05965,-0.05219 -0.1342051,-0.111838 0.4697161,-0.186395 1.0736381,-0.342967 0.603921,-0.164028 1.237666,-0.246042 0.633744,-0.08201 1.237665,-0.05965 0.603922,0.02237 1.096006,0.216219 0.87233,0.350423 1.081093,1.118373 0.216219,0.760493 -0.134204,1.819219 -0.305689,0.917066 -0.656112,1.752118 -0.350424,0.827595 -0.753038,1.677559 -0.395158,0.857419 -0.872331,1.752117 -0.469716,0.894698 -1.05127,1.975792 0.454805,0 0.946889,0.0075 0.492084,0.0075 0.939433,0.01491 0.454805,0.0075 0.82014,0.02237 0.365335,0.01491 0.596465,0.01491 l 0.149117,0.417526 -1.051271,0.574098 0.976713,0.35788 -0.186396,0.454804 H 9.7571412 Z"
         style="font-style:normal;font-variant:normal;font-weight:normal;font-stretch:normal;font-family:AngryBirds;-inkscape-font-specification:AngryBirds;stroke-width:0.38173789"
         id="path646" />
      <path
         d="m 16.512113,26.061526 0.611377,-0.521907 -0.275865,-1.021447 1.729749,-0.156572 0.01491,-2.162188 0.82014,-0.05219 0.492084,-0.529363 0.469717,0.02982 v 2.63936 l 1.878866,-0.134205 0.02982,0.260954 -0.529363,0.73067 0.514452,0.536819 -0.04473,0.283321 -1.878867,0.432437 -0.134204,2.445509 h -0.827596 l -0.656112,-0.0671 -0.104382,-2.162187 -2.020526,0.119293 z"
         style="font-style:normal;font-variant:normal;font-weight:normal;font-stretch:normal;font-family:AngryBirds;-inkscape-font-specification:AngryBirds;stroke-width:0.38173789"
         id="path648" />
      <path
         d="m 23.304363,26.866755 q -0.01491,-0.484628 -0.02982,-1.103461 -0.01491,-0.618833 0.01491,-1.304769 0.02982,-0.656112 0.09692,-1.342047 0.07456,-0.693391 0.238587,-1.334591 0.149116,-0.641201 0.402614,-1.17802 0.253498,-0.544274 0.618833,-0.946889 0.372791,-0.41007 0.864875,-0.656112 0.49954,-0.253497 1.155652,-0.313144 0.775405,-0.07456 1.453884,-0.04473 0.685935,0.02982 1.200387,0.17894 l -0.119293,0.216218 0.193851,0.260954 -1.14074,0.365335 1.252577,0.596466 -0.111837,0.149116 q -0.335512,-0.04473 -0.671024,-0.0671 -0.335511,-0.02237 -0.671023,0.0075 -0.454805,0.02982 -0.90961,0.171483 -0.447349,0.134205 -0.872331,0.454805 -0.275865,0.216219 -0.454805,0.506996 -0.171484,0.283321 -0.290777,0.678479 -0.111837,0.387703 -0.164028,0.902154 -0.05219,0.506996 -0.104381,1.148196 0.685935,-0.216218 1.304768,-0.275865 0.618833,-0.05965 1.14074,-0.01491 0.521908,0.04473 0.90961,0.186396 0.387703,0.134205 0.603921,0.305689 0.246042,0.186395 0.469717,0.536818 0.23113,0.342968 0.387703,0.790317 0.164028,0.439893 0.23113,0.931977 0.07456,0.484629 -0.0075,0.946889 -0.07456,0.521908 -0.193851,0.961801 -0.111837,0.439893 -0.298233,0.82014 -0.17894,0.380247 -0.469716,0.715759 -0.290777,0.328056 -0.715759,0.596465 -0.275865,0.186395 -0.812684,0.275865 -0.529363,0.09693 -1.118373,0.08947 -0.58901,-0.0075 -1.133284,-0.134205 -0.536819,-0.119293 -0.842508,-0.365335 -0.216219,-0.171484 -0.454805,-0.484628 -0.23113,-0.313144 -0.439893,-0.775405 -0.208763,-0.462261 -0.357879,-1.073638 -0.141661,-0.611377 -0.156573,-1.379326 z m 2.050351,-0.05965 q -0.04474,0.395159 0,0.790317 0.04473,0.387703 0.156572,0.738126 0.119293,0.350423 0.298232,0.581554 0.201308,0.260953 0.49954,0.365335 0.298233,0.104381 0.603922,0.08201 0.305688,-0.02237 0.559186,-0.134205 0.260954,-0.119293 0.402614,-0.283321 0.186396,-0.246042 0.298233,-0.618833 0.111837,-0.372791 0.134205,-0.782861 0.02237,-0.417526 -0.04473,-0.82014 -0.0671,-0.402614 -0.253498,-0.693391 -0.134205,-0.23113 -0.469717,-0.365335 -0.335512,-0.141661 -0.723214,-0.156572 -0.380247,-0.01491 -0.723214,0.126749 -0.342968,0.134204 -0.514452,0.454805 -0.171484,0.3206 -0.223674,0.715758 z"
         style="font-style:normal;font-variant:normal;font-weight:normal;font-stretch:normal;font-family:AngryBirds;-inkscape-font-specification:AngryBirds;stroke-width:0.38173789"
         id="path650" />
      <path
         d="m 31.595232,27.858379 0.641201,-0.424982 -0.395159,-0.760494 3.712998,-0.246042 0.23113,0.454805 -0.596465,0.447349 0.193851,0.760494 -3.645895,0.492084 0.07456,-0.417526 z m 0.05219,-3.750277 0.238586,-0.387703 -0.04474,-0.715758 3.683174,-0.134205 0.01491,0.275865 -0.462261,0.641201 0.462261,0.559186 -0.09693,0.246042 -3.526602,0.395159 0.186396,-0.424982 z"
         style="font-style:normal;font-variant:normal;font-weight:normal;font-stretch:normal;font-family:AngryBirds;-inkscape-font-specification:AngryBirds;stroke-width:0.38173789"
         id="path652" />
      <path
         d="m 36.724837,19.358746 0.02982,-0.246042 5.204161,-0.395159 -0.149116,0.790317 0.872331,-0.07456 -0.05219,0.656112 0.477172,0.02982 -3.787555,10.549983 -0.395159,-0.208763 -0.335512,0.208763 -0.04474,-0.991624 -1.148196,1.297313 -0.119293,-0.05965 3.094165,-9.849136 h -2.95996 l 0.23113,-0.439893 -0.611377,-0.3206 0.917066,-0.656112 z"
         style="font-style:normal;font-variant:normal;font-weight:normal;font-stretch:normal;font-family:AngryBirds;-inkscape-font-specification:AngryBirds;stroke-width:0.38173789"
         id="path654" />
    </g>
    <g
       aria-label="17 &gt; 12 = "
       style="font-style:normal;font-variant:normal;font-weight:normal;font-stretch:normal;font-size:15.26951599px;line-height:1.25;font-family:'URW Gothic L';-inkscape-font-specification:'URW Gothic L';letter-spacing:0px;word-spacing:0px;fill:#000000;fill-opacity:1;stroke:none;stroke-width:0.38173789"
       id="text14-7">
      <path
         d="m 64.178275,21.009947 3.071798,-2.624448 0.439893,0.849963 0.745582,-0.454805 -0.08947,10.057899 1.707382,-0.01491 0.09693,0.46226 -0.767949,0.529363 0.738126,0.477173 -0.402614,0.41007 -4.764268,0.07456 0.566642,-0.469717 -0.842508,-0.536819 0.477173,-0.290776 -0.275866,-0.559187 1.72975,-0.201307 -0.275865,-7.127762 -1.379326,0.671023 -0.253498,-0.171483 0.529363,-1.036359 z"
         style="font-style:normal;font-variant:normal;font-weight:normal;font-stretch:normal;font-family:AngryBirds;-inkscape-font-specification:AngryBirds;stroke-width:0.38173789"
         id="path633" />
      <path
         d="m 71.112186,19.086346 0.02982,-0.246042 5.204161,-0.395159 -0.149117,0.790317 0.872331,-0.07456 -0.05219,0.656112 0.477173,0.02982 -3.787556,10.549983 -0.395158,-0.208763 -0.335512,0.208763 -0.04474,-0.991624 -1.148196,1.297313 -0.119293,-0.05965 3.094165,-9.849136 h -2.95996 l 0.23113,-0.439893 -0.611377,-0.3206 0.917066,-0.656112 z"
         style="font-style:normal;font-variant:normal;font-weight:normal;font-stretch:normal;font-family:AngryBirds;-inkscape-font-specification:AngryBirds;stroke-width:0.38173789"
         id="path635" />
      <path
         d="m 80.842029,18.840304 0.0671,-0.05965 0.745582,0.335512 0.685936,-0.715759 0.380246,0.02982 3.206002,6.136138 -2.639359,6.322534 -0.395159,0.193851 -0.581554,-0.469716 -0.700847,0.454805 -0.350423,-0.305689 -0.111837,0.03728 2.564801,-5.822994 z"
         style="font-style:normal;font-variant:normal;font-weight:normal;font-stretch:normal;font-family:AngryBirds;-inkscape-font-specification:AngryBirds;stroke-width:0.38173789"
         id="path637" />
      <path
         d="m 89.73682,21.009947 3.071797,-2.624448 0.439893,0.849963 0.745582,-0.454805 -0.08947,10.057899 1.707382,-0.01491 0.09693,0.46226 -0.767949,0.529363 0.738126,0.477173 -0.402614,0.41007 -4.764268,0.07456 0.566642,-0.469717 -0.842508,-0.536819 0.477173,-0.290776 -0.275865,-0.559187 1.729749,-0.201307 -0.275865,-7.127762 -1.379326,0.671023 -0.253498,-0.171483 0.529363,-1.036359 z"
         style="font-style:normal;font-variant:normal;font-weight:normal;font-stretch:normal;font-family:AngryBirds;-inkscape-font-specification:AngryBirds;stroke-width:0.38173789"
         id="path639" />
      <path
         d="M 96.700553,30.396822 97.0808,29.971841 q -0.119293,-0.216219 -0.23113,-0.380247 -0.104382,-0.171484 -0.134205,-0.246042 0.149116,-0.246042 0.439893,-0.73067 0.290777,-0.492084 0.641201,-1.125829 0.350423,-0.633745 0.73067,-1.364415 0.387702,-0.73067 0.738126,-1.468796 0.290777,-0.611377 0.55173,-1.185475 0.260955,-0.581554 0.417525,-1.066182 0.16403,-0.492084 0.20131,-0.879787 0.0373,-0.395158 -0.10438,-0.626288 -0.10438,-0.171484 -0.432441,-0.223675 -0.328056,-0.05965 -0.767949,-0.05219 -0.432437,0.0075 -0.931977,0.07456 -0.492084,0.0671 -0.917066,0.14166 l 0.424982,-0.6412 -0.626289,-0.246042 0.41007,-0.529363 q -0.05965,-0.04473 -0.119293,-0.111838 -0.05965,-0.04474 -0.126749,-0.09693 -0.05965,-0.05219 -0.134205,-0.111838 0.469717,-0.186395 1.073638,-0.342967 0.603921,-0.164028 1.237666,-0.246042 0.633743,-0.08201 1.237663,-0.05965 0.60392,0.02237 1.09601,0.216219 0.87233,0.350423 1.08109,1.118373 0.21622,0.760493 -0.1342,1.819219 -0.30569,0.917066 -0.65611,1.752118 -0.35043,0.827596 -0.75304,1.677559 -0.39516,0.857419 -0.87233,1.752117 -0.46972,0.894698 -1.051274,1.975792 0.454805,0 0.946894,0.0075 0.49208,0.0075 0.93943,0.01491 0.4548,0.0075 0.82014,0.02237 0.36533,0.01491 0.59646,0.01491 l 0.14912,0.417525 -1.05127,0.574098 0.97671,0.35788 -0.18639,0.454805 h -5.629146 z"
         style="font-style:normal;font-variant:normal;font-weight:normal;font-stretch:normal;font-family:AngryBirds;-inkscape-font-specification:AngryBirds;stroke-width:0.38173789"
         id="path641" />
      <path
         d="m 107.1387,27.585979 0.6412,-0.424982 -0.39516,-0.760493 3.713,-0.246042 0.23113,0.454804 -0.59646,0.44735 0.19385,0.760493 -3.6459,0.492084 0.0746,-0.417526 z m 0.0522,-3.750277 0.23859,-0.387703 -0.0447,-0.715758 3.68318,-0.134205 0.0149,0.275865 -0.46226,0.641201 0.46226,0.559186 -0.0969,0.246042 -3.5266,0.395159 0.1864,-0.424982 z"
         style="font-style:normal;font-variant:normal;font-weight:normal;font-stretch:normal;font-family:AngryBirds;-inkscape-font-specification:AngryBirds;stroke-width:0.38173789"
         id="path643" />
    </g>
    <g
       id="g18"
       transform="matrix(1.442789,0,0,1.442789,62.024236,-154.09003)">
      <path
         style="opacity:1;fill:#ffffff;fill-opacity:1;stroke:#ffffff;stroke-width:0.1;stroke-linecap:round;stroke-linejoin:round;stroke-miterlimit:4;stroke-dasharray:none;stroke-dashoffset:0;stroke-opacity:1"
         d="m 36.947174,116.61086 h 10.583333 v 14.83557 H 36.947174 Z"
         id="rect847" />
      <g
         aria-label="?"
         style="font-style:normal;font-variant:normal;font-weight:normal;font-stretch:normal;font-size:13.90325642px;line-height:1.25;font-family:'URW Gothic L';-inkscape-font-specification:'URW Gothic L';letter-spacing:0px;word-spacing:0px;fill:#00ff00;fill-opacity:1;stroke:#000000;stroke-width:0.1;stroke-miterlimit:4;stroke-dasharray:none"
         id="text40">
        <path
           d="m 39.261911,119.27773 0.332646,-0.29191 q -0.02716,-0.0407 -0.06789,-0.095 -0.02716,-0.0407 -0.08146,-0.0883 -0.04752,-0.0543 -0.07468,-0.10862 0.807855,-0.23761 1.608922,-0.3055 0.801066,-0.0679 1.649654,0.0407 0.67887,0.0815 1.208388,0.43447 0.529519,0.34623 0.862165,0.84859 0.332646,0.49558 0.454843,1.09298 0.128985,0.59741 -0.01358,1.19481 -0.108619,0.44806 -0.407321,0.80107 -0.298703,0.35301 -0.739969,0.65171 -0.434476,0.29871 -0.984361,0.54989 -0.549885,0.25118 -1.160868,0.47521 -0.08146,0.2376 -0.142562,0.46163 -0.05431,0.21724 -0.09504,0.42769 -0.04073,0.19687 -0.05431,0.36659 -0.01358,0.16293 -0.04073,0.27155 l -0.21045,0.18329 -0.583828,-0.52952 -0.224027,0.70603 -0.176506,-0.0272 q -0.02716,-0.16972 -0.07468,-0.44805 -0.04073,-0.28513 -0.08146,-0.61099 -0.04073,-0.33264 -0.07468,-0.67887 -0.03394,-0.34622 -0.03394,-0.65171 0.251181,-0.13577 0.597405,-0.30549 0.346224,-0.16972 0.706025,-0.3598 0.488786,-0.27834 0.862165,-0.59741 0.373378,-0.31907 0.475209,-0.64493 0.122196,-0.40053 0.04073,-0.73996 -0.08146,-0.33944 -0.291914,-0.59062 -0.21045,-0.25118 -0.52273,-0.40732 -0.31228,-0.16293 -0.644927,-0.19009 -0.400533,-0.0272 -0.889319,-0.0272 -0.488786,0 -1.018305,0.095 l 0.543096,-0.57025 z m 0.570251,10.34598 q -0.142563,-0.10183 -0.196873,-0.24439 -0.05431,-0.14935 0,-0.31907 0.05431,-0.17651 0.224027,-0.3598 0.169718,-0.19008 0.475209,-0.37338 0.09504,-0.0543 0.285126,-0.0882 0.196872,-0.034 0.41411,-0.0475 0.217239,-0.0136 0.393745,0 0.183295,0.0136 0.237604,0.0543 0.06789,0.0407 0.135774,0.18329 0.07468,0.13578 0.08146,0.31228 0.0068,0.16972 -0.08146,0.3598 -0.08146,0.1833 -0.325857,0.35301 -0.15614,0.10862 -0.414111,0.15614 -0.25797,0.0543 -0.509152,0.0747 -0.244394,0.0204 -0.454843,0 -0.21045,-0.0204 -0.264759,-0.0611 z"
           style="font-style:normal;font-variant:normal;font-weight:normal;font-stretch:normal;font-family:AngryBirds;-inkscape-font-specification:AngryBirds;fill:#00ff00;stroke:#000000;stroke-width:0.1;stroke-miterlimit:4;stroke-dasharray:none"
           id="path630" />
      </g>
    </g>
    <g
       transform="matrix(0.64435768,0,0,0.64435768,47.104486,19.983818)"
       id="ID0.7293403940275311">
      <g
         id="layer1-3">
        <g
           id="text10">
          <path
             style="fill:#003fff;stroke:none;stroke-width:2.32666159"
             inkscape:connector-curvature="0"
             id="path9"
             d="M -5.574,39.692 -70.757,76.991 V 54.924 L -44.291,39.728 -70.757,24.605 V 2.538 Z"
             transform="matrix(1.4872706e-4,0.24039923,0.24039923,-1.4872706e-4,-0.5,17.5)" />
        </g>
      </g>
    </g>
  </g>
</svg>
