<?xml version="1.0" encoding="UTF-8" standalone="no"?>
<!-- Created with Inkscape (http://www.inkscape.org/) -->

<svg
   xmlns:dc="http://purl.org/dc/elements/1.1/"
   xmlns:cc="http://creativecommons.org/ns#"
   xmlns:rdf="http://www.w3.org/1999/02/22-rdf-syntax-ns#"
   xmlns:svg="http://www.w3.org/2000/svg"
   xmlns="http://www.w3.org/2000/svg"
   xmlns:sodipodi="http://sodipodi.sourceforge.net/DTD/sodipodi-0.dtd"
   xmlns:inkscape="http://www.inkscape.org/namespaces/inkscape"
   width="210mm"
   height="297mm"
   viewBox="0 0 210 297"
   version="1.1"
   id="svg8"
   inkscape:version="0.92.1 r15371"
   sodipodi:docname="abrir_porta.svg">
  <defs
     id="defs2" />
  <sodipodi:namedview
     id="base"
     pagecolor="#ffffff"
     bordercolor="#666666"
     borderopacity="1.0"
     inkscape:pageopacity="0.0"
     inkscape:pageshadow="2"
     inkscape:zoom="0.7"
     inkscape:cx="313.29153"
     inkscape:cy="857.86396"
     inkscape:document-units="mm"
     inkscape:current-layer="layer1"
     showgrid="false"
     inkscape:window-width="1366"
     inkscape:window-height="704"
     inkscape:window-x="0"
     inkscape:window-y="27"
     inkscape:window-maximized="1" />
  <metadata
     id="metadata5">
    <rdf:RDF>
      <cc:Work
         rdf:about="">
        <dc:format>image/svg+xml</dc:format>
        <dc:type
           rdf:resource="http://purl.org/dc/dcmitype/StillImage" />
        <dc:title></dc:title>
      </cc:Work>
    </rdf:RDF>
  </metadata>
  <g
     inkscape:label="Camada 1"
     inkscape:groupmode="layer"
     id="layer1">
    <path
       style="opacity:1;fill:#cccccc;fill-opacity:1;stroke:#ffffff;stroke-width:0.49790943;stroke-linecap:round;stroke-linejoin:round;stroke-miterlimit:4;stroke-dasharray:none;stroke-dashoffset:0;stroke-opacity:1"
       d="M 7.9190533,6.6542401 H 196.94403 c 1.48884,0 2.68743,1.1985947 2.68743,2.6874321 V 77.036304 c 0,1.488838 -1.19859,2.687432 -2.68743,2.687432 H 7.9190533 c -1.4888373,0 -2.687432,-1.198594 -2.687432,-2.687432 V 9.3416722 c 0,-1.4888374 1.1985947,-2.6874321 2.687432,-2.6874321 z"
       id="rect10" />
    <g
       aria-label="Abrir essa porta?"
       style="font-style:normal;font-variant:normal;font-weight:normal;font-stretch:normal;font-size:24.82796478px;line-height:1.25;font-family:'URW Gothic L';-inkscape-font-specification:'URW Gothic L';letter-spacing:0px;word-spacing:0px;fill:#000000;fill-opacity:1;stroke:none;stroke-width:0.62069911"
       id="text14">
      <path
         d="m 9.1747831,30.098652 3.9278619,-19.44534 0.497044,-0.278829 0.969842,1.103195 1.612363,-1.394148 1.636609,2.012423 1.042581,-1.794209 h 0.145476 l 4.230938,19.372602 -0.448553,0.193968 -1.272918,-1.685101 -0.448552,1.442641 -0.909227,-0.569783 -0.497044,0.497045 -0.945597,-2.909528 -5.782685,0.04849 -0.727381,3.297465 -0.642521,-0.363691 -0.424306,0.387937 -0.472798,-1.406272 -1.1880572,1.685101 z m 4.4733979,-6.388837 4.788597,-0.315199 -1.87907,-7.952707 -0.994088,-0.169722 z"
         style="font-style:normal;font-variant:normal;font-weight:normal;font-stretch:normal;font-family:AngryBirds;-inkscape-font-specification:AngryBirds;stroke-width:0.62069911"
         id="path36" />
      <path
         d="m 24.183094,15.938953 0.691012,-0.92135 -0.303075,-0.957719 q 1.212303,-0.327322 2.509467,-0.472799 1.030457,-0.12123 1.988177,-0.12123 0.24246,0 0.472798,0 1.163811,0.03637 2.145776,0.303076 0.981965,0.266707 1.551748,0.727382 0.666766,0.569782 1.018334,1.418394 0.303076,0.739505 0.303076,1.575994 0,0.12123 0,0.242461 -0.04849,0.969842 -0.52129,2.000299 -0.472798,1.030458 -1.418395,1.963931 0.80012,0.351568 1.551748,0.921351 0.751628,0.569782 0.981965,1.345656 0.145477,0.497044 0.145477,0.945596 0,0.254584 -0.04849,0.497044 -0.121231,0.666767 -0.460675,1.260795 -0.339445,0.594029 -0.860736,1.07895 -0.52129,0.484921 -1.066826,0.884981 -0.594029,0.424306 -1.382026,0.739505 -0.775873,0.303076 -1.660855,0.509167 -0.872858,0.218215 -1.782085,0.303076 -0.703136,0.07274 -1.369902,0.06061 -0.193969,0 -0.375814,0 v -1.345656 l -1.20018,0.04849 q 0.01212,-0.884981 0.01212,-1.782085 0,-1.794209 -0.03637,-3.649032 -0.01212,-0.921351 -0.01212,-1.903316 0,-1.963931 0.06061,-4.133953 h -0.327322 q -0.133353,0 -0.266707,-0.02425 l 0.472799,-0.836489 z m 3.588416,7.504156 q -0.169722,1.018334 -0.169722,1.866946 0,0.836489 0.12123,1.903316 0.303076,0.07274 0.691013,0.07274 0.303076,0 0.666767,-0.04849 0.812243,-0.09698 1.527501,-0.424306 0.715259,-0.339445 1.20018,-0.884981 0.424306,-0.472799 0.424306,-1.139565 0,-0.09698 -0.01212,-0.206092 -0.04849,-0.618274 -0.52129,-0.945596 -0.472798,-0.327322 -1.139565,-0.436429 -0.375814,-0.06062 -0.787997,-0.06062 -0.315198,0 -0.64252,0.03637 -0.751628,0.08486 -1.35778,0.266707 z m -0.09698,-4.691613 q -0.01212,0.315199 0,0.654644 0,0.678889 0.02425,1.479009 0.763751,-0.07274 1.515379,-0.327322 0.751628,-0.266706 1.32141,-0.654643 0.569783,-0.387937 0.909227,-0.848612 0.351568,-0.460675 0.351568,-0.909227 0,-0.594029 -0.40006,-0.95772 -0.387937,-0.375814 -0.981965,-0.533413 -0.424306,-0.12123 -0.933473,-0.12123 -0.193969,0 -0.387937,0.01212 -0.715259,0.06062 -1.369903,0.339444 -0.02425,0.921351 -0.04849,1.866947 z"
         style="font-style:normal;font-variant:normal;font-weight:normal;font-stretch:normal;font-family:AngryBirds;-inkscape-font-specification:AngryBirds;stroke-width:0.62069911"
         id="path38" />
      <path
         d="m 36.318247,15.041849 0.08486,-0.460675 q 1.369902,-0.448552 2.739805,-0.67889 1.382025,-0.24246 2.667066,-0.254583 0.07274,0 0.133353,0 1.212303,0 2.267007,0.206091 1.103196,0.218215 1.915439,0.751628 0.739505,0.472798 1.175934,1.188057 0.448552,0.715259 0.533413,1.612363 0.02425,0.218214 0.02425,0.460675 0,0.691013 -0.206092,1.466886 -0.266706,1.030458 -0.92135,2.097285 -0.12123,0.218214 -0.375814,0.545536 -0.254583,0.327322 -0.557659,0.703136 -0.290953,0.363691 -0.642521,0.727381 -0.339445,0.351568 -0.666766,0.630398 0.303075,0.715259 0.64252,1.515379 0.351568,0.787997 0.67889,1.527501 0.339445,0.727382 0.64252,1.345657 0.303076,0.606151 0.472799,0.945596 l -0.169723,0.181846 -1.44264,-0.80012 -0.07274,1.236549 -0.497045,-0.218215 -0.448552,0.303076 -3.006511,-4.643121 -1.563871,0.618275 -0.12123,3.72177 -0.40006,-0.04849 -0.824366,-1.297164 -0.642521,1.672978 -0.448552,-0.181846 q -0.02425,-0.739504 -0.08486,-2.12153 -0.06062,-1.382025 -0.109107,-3.006511 -0.04849,-1.624486 -0.04849,-3.297464 0,-1.672978 0.09698,-3.042881 l 0.07274,-0.969842 -0.787997,-0.569782 1.309287,-1.188057 z m 3.576293,7.807231 q 0.897105,-0.351568 1.842701,-0.945596 0.945596,-0.594029 1.636609,-1.297164 0.691013,-0.715259 1.006211,-1.47901 0.145477,-0.339445 0.145477,-0.67889 0,-0.40006 -0.206092,-0.787997 -0.218214,-0.40006 -0.933473,-0.509167 -0.581905,-0.09698 -1.20018,-0.09698 -0.133353,0 -0.27883,0 -0.897104,0.04849 -1.96393,0.230337 z"
         style="font-style:normal;font-variant:normal;font-weight:normal;font-stretch:normal;font-family:AngryBirds;-inkscape-font-specification:AngryBirds;stroke-width:0.62069911"
         id="path40" />
      <path
         d="m 49.520228,29.844068 v -15.44474 l 0.545537,-0.193968 0.824366,1.939685 1.04258,-1.866947 0.739505,0.40006 0.703136,-0.254584 -0.424306,15.699324 -0.303076,0.09698 -1.042581,-1.491133 -0.715258,1.309288 -0.642521,-0.242461 z"
         style="font-style:normal;font-variant:normal;font-weight:normal;font-stretch:normal;font-family:AngryBirds;-inkscape-font-specification:AngryBirds;stroke-width:0.62069911"
         id="path42" />
      <path
         d="m 55.230173,15.041849 0.08486,-0.460675 q 1.369903,-0.448552 2.739805,-0.67889 1.382025,-0.24246 2.667066,-0.254583 0.07274,0 0.133354,0 1.212303,0 2.267006,0.206091 1.103196,0.218215 1.915439,0.751628 0.739505,0.472798 1.175934,1.188057 0.448552,0.715259 0.533413,1.612363 0.02425,0.218214 0.02425,0.460675 0,0.691013 -0.206091,1.466886 -0.266707,1.030458 -0.921351,2.097285 -0.12123,0.218214 -0.375813,0.545536 -0.254584,0.327322 -0.55766,0.703136 -0.290953,0.363691 -0.64252,0.727381 -0.339445,0.351568 -0.666767,0.630398 0.303076,0.715259 0.642521,1.515379 0.351567,0.787997 0.678889,1.527501 0.339445,0.727382 0.642521,1.345657 0.303076,0.606151 0.472798,0.945596 l -0.169722,0.181846 -1.442641,-0.80012 -0.07274,1.236549 -0.497044,-0.218215 -0.448553,0.303076 -3.006511,-4.643121 -1.563871,0.618275 -0.12123,3.72177 -0.40006,-0.04849 -0.824366,-1.297164 -0.642521,1.672978 -0.448552,-0.181846 q -0.02425,-0.739504 -0.08486,-2.12153 -0.06061,-1.382025 -0.109107,-3.006511 -0.04849,-1.624486 -0.04849,-3.297464 0,-1.672978 0.09698,-3.042881 l 0.07274,-0.969842 -0.787997,-0.569782 1.309287,-1.188057 z m 3.576294,7.807231 q 0.897104,-0.351568 1.8427,-0.945596 0.945597,-0.594029 1.636609,-1.297164 0.691013,-0.715259 1.006212,-1.47901 0.145476,-0.339445 0.145476,-0.67889 0,-0.40006 -0.206091,-0.787997 -0.218215,-0.40006 -0.933474,-0.509167 -0.581905,-0.09698 -1.20018,-0.09698 -0.133353,0 -0.278829,0 -0.897105,0.04849 -1.963931,0.230337 z"
         style="font-style:normal;font-variant:normal;font-weight:normal;font-stretch:normal;font-family:AngryBirds;-inkscape-font-specification:AngryBirds;stroke-width:0.62069911"
         id="path44" />
      <path
         d="m 72.990411,15.599508 0.339445,-0.80012 -0.169722,-0.327321 7.104095,-0.472799 0.218215,0.969843 -1.539625,1.066826 1.466886,0.448553 -0.193968,0.545536 -3.624786,0.327322 -0.08486,3.818754 3.624786,-0.12123 -0.412183,1.297164 0.715258,0.290953 -0.12123,0.666766 -3.758139,0.375814 0.157599,4.049092 3.746016,-0.145476 -0.24246,1.285041 0.666767,0.303076 -0.27883,0.945596 -5.855423,0.339445 0.09698,-1.260795 -1.515379,0.09698 0.157599,-11.613863 -0.303075,-0.497044 1.066826,-0.92135 z"
         style="font-style:normal;font-variant:normal;font-weight:normal;font-stretch:normal;font-family:AngryBirds;-inkscape-font-specification:AngryBirds;stroke-width:0.62069911"
         id="path46" />
      <path
         d="m 82.119055,20.109275 q 0.09698,-1.260795 0.751628,-2.303375 0.666766,-1.042581 1.697224,-1.794209 1.030457,-0.763751 2.291252,-1.248672 1.272919,-0.484921 2.594329,-0.630397 0.254583,-0.03637 0.618274,-0.04849 0.09698,0 0.193969,0.01212 0.497044,0.01212 0.848612,0.03637 l 0.09698,0.315199 -1.612363,0.897104 1.285041,0.618274 -0.545536,0.521291 0.375814,0.703135 q -0.897104,0.07274 -1.769963,0.242461 -0.860735,0.169722 -1.551747,0.472798 -0.67889,0.303076 -1.151688,0.739505 -0.472798,0.424306 -0.569783,0.994088 -0.02425,0.145477 -0.02425,0.290953 0,0.460675 0.327322,0.775874 0.424306,0.424306 1.018335,0.703136 0.303075,0.12123 0.618274,0.230337 0.327322,0.109107 0.642521,0.218215 0.303076,0.09698 0.569782,0.169722 0.27883,0.07274 0.472798,0.12123 1.188057,0.375814 1.854824,1.030458 0.67889,0.654643 0.67889,1.927562 0,1.345656 -0.739505,2.376113 -0.727382,1.030458 -2.291253,1.818455 -0.618274,0.303076 -1.248672,0.509167 -0.630397,0.206092 -1.236549,0.351568 -0.594028,0.157599 -1.127442,0.230338 -0.533413,0.07274 -0.981965,0.12123 l 0.424306,-0.787997 -1.139565,-0.327322 0.497044,-0.739505 -0.424306,-0.448552 q 0.424306,-0.09698 0.933474,-0.206091 0.509167,-0.121231 1.030457,-0.266707 0.472798,-0.145476 0.957719,-0.351568 0.484922,-0.218214 0.872859,-0.509167 0.40006,-0.303076 0.654643,-0.666767 0.266707,-0.363691 0.266707,-0.775874 0,-0.52129 -0.509167,-0.860735 -0.509168,-0.339445 -1.127442,-0.533413 -0.642521,-0.218215 -1.285041,-0.363691 -0.630398,-0.157599 -0.945597,-0.27883 -1.115318,-0.448552 -1.757839,-1.212303 -0.545536,-0.654643 -0.545536,-1.72147 0,-0.169722 0.01212,-0.351568 z"
         style="font-style:normal;font-variant:normal;font-weight:normal;font-stretch:normal;font-family:AngryBirds;-inkscape-font-specification:AngryBirds;stroke-width:0.62069911"
         id="path48" />
      <path
         d="m 93.417715,20.109275 q 0.09698,-1.260795 0.751628,-2.303375 0.666767,-1.042581 1.697224,-1.794209 1.030458,-0.763751 2.291253,-1.248672 1.272918,-0.484921 2.59433,-0.630397 0.25458,-0.03637 0.61827,-0.04849 0.097,0 0.19397,0.01212 0.49705,0.01212 0.84861,0.03637 l 0.097,0.315199 -1.61237,0.897104 1.28505,0.618274 -0.54554,0.521291 0.37581,0.703135 q -0.8971,0.07274 -1.76996,0.242461 -0.860734,0.169722 -1.551747,0.472798 -0.67889,0.303076 -1.151688,0.739505 -0.472798,0.424306 -0.569782,0.994088 -0.02425,0.145477 -0.02425,0.290953 0,0.460675 0.327322,0.775874 0.424306,0.424306 1.018334,0.703136 0.303076,0.12123 0.618275,0.230337 0.327321,0.109107 0.64252,0.218215 0.303076,0.09698 0.569782,0.169722 0.27883,0.07274 0.4728,0.12123 1.18806,0.375814 1.85482,1.030458 0.67889,0.654643 0.67889,1.927562 0,1.345656 -0.7395,2.376113 -0.72738,1.030458 -2.29126,1.818455 -0.61827,0.303076 -1.248668,0.509167 -0.630397,0.206092 -1.236549,0.351568 -0.594028,0.157599 -1.127441,0.230338 -0.533414,0.07274 -0.981966,0.12123 l 0.424306,-0.787997 -1.139565,-0.327322 0.497045,-0.739505 -0.424306,-0.448552 q 0.424306,-0.09698 0.933473,-0.206091 0.509167,-0.121231 1.030457,-0.266707 0.472799,-0.145476 0.95772,-0.351568 0.484921,-0.218214 0.872858,-0.509167 0.40006,-0.303076 0.654643,-0.666767 0.266707,-0.363691 0.266707,-0.775874 0,-0.52129 -0.509167,-0.860735 -0.509167,-0.339445 -1.127442,-0.533413 -0.64252,-0.218215 -1.285041,-0.363691 -0.630398,-0.157599 -0.945596,-0.27883 -1.115319,-0.448552 -1.75784,-1.212303 -0.545536,-0.654643 -0.545536,-1.72147 0,-0.169722 0.01212,-0.351568 z"
         style="font-style:normal;font-variant:normal;font-weight:normal;font-stretch:normal;font-family:AngryBirds;-inkscape-font-specification:AngryBirds;stroke-width:0.62069911"
         id="path50" />
      <path
         d="m 104.27995,29.6501 3.20048,-15.32351 0.99409,0.303076 0.90923,-0.80012 1.3699,1.685101 0.77588,-1.515379 0.86073,0.521291 0.80012,-0.460675 2.8974,15.6872 -0.54553,-0.375814 -0.90923,0.52129 -0.70313,-0.897104 -0.66677,0.67889 -0.92135,-3.358079 -4.61888,0.375813 -0.88498,3.382326 -0.25458,0.09698 -0.788,-0.994088 -0.99409,0.787997 z m 4.06122,-5.782685 3.55205,-0.327322 -1.23655,-5.564471 -1.04258,0.07274 z"
         style="font-style:normal;font-variant:normal;font-weight:normal;font-stretch:normal;font-family:AngryBirds;-inkscape-font-specification:AngryBirds;stroke-width:0.62069911"
         id="path52" />
      <path
         d="m 121.8341,15.078218 0.14547,-0.606151 q 1.01834,-0.375814 2.32763,-0.654644 1.32141,-0.27883 2.63069,-0.363691 0.33945,-0.02425 0.66677,-0.01212 0.93347,0 1.76996,0.157599 1.12744,0.206092 1.74572,0.80012 0.99409,0.969843 1.34565,2.218515 0.24247,0.848612 0.23034,1.697224 0,0.40006 -0.0485,0.80012 -0.1576,1.260795 -0.76375,2.460975 -0.59403,1.188057 -1.50326,2.060915 -0.30307,0.27883 -0.77587,0.581905 -0.4728,0.290953 -1.0547,0.569783 -0.58191,0.266706 -1.27292,0.509167 -0.67889,0.230338 -1.3699,0.375814 l -0.0242,4.315799 -0.44855,0.157599 -0.49705,-1.394148 -0.99408,1.345656 -0.64253,-0.751628 -0.49704,0.303076 -0.12123,-12.413983 -0.54554,-0.424306 1.49114,-1.539624 z m 3.77026,1.830578 0.13335,5.831177 q 0.61828,-0.218215 1.13957,-0.472798 0.44855,-0.193969 0.86073,-0.40006 0.42431,-0.218215 0.6304,-0.387937 0.52129,-0.472798 0.88498,-1.115319 0.37582,-0.642521 0.48492,-1.309287 0.0364,-0.242461 0.0485,-0.460675 0,-0.412183 -0.13336,-0.787997 -0.19397,-0.594029 -0.83649,-0.994089 -0.30307,-0.181845 -0.80012,-0.193968 -0.0364,0 -0.0606,0.01212 -0.53342,0.01212 -1.05471,0.06062 -0.63039,0.09698 -1.29716,0.218215 z"
         style="font-style:normal;font-variant:normal;font-weight:normal;font-stretch:normal;font-family:AngryBirds;-inkscape-font-specification:AngryBirds;stroke-width:0.62069911"
         id="path54" />
      <path
         d="m 134.34507,24.243229 q -0.0485,-0.666767 -0.0606,-1.333534 0,-0.739505 0.0727,-1.479009 0.24246,-2.533714 0.70314,-3.976354 0.46067,-1.442641 1.35778,-2.206392 0.32732,-0.278829 0.82436,-0.557659 0.50917,-0.290953 1.12744,-0.497044 0.6304,-0.218215 1.34566,-0.303076 0.33944,-0.03637 0.67889,-0.03637 l 0.76375,0.04849 -0.0485,1.442641 1.2123,-0.739505 0.52129,0.763751 0.82437,-0.327322 q 0.92135,0.945596 1.40627,2.715559 0.49704,1.757839 0.49704,4.315798 0,0.848612 -0.097,1.854824 -0.097,1.006211 -0.35157,1.976054 -0.24246,0.957719 -0.65464,1.769962 -0.41219,0.80012 -1.03046,1.248672 -0.87286,0.618274 -1.75784,0.945596 -0.87286,0.327322 -1.70935,0.412183 -0.38793,0.03637 -0.77587,0.03637 -0.42431,0 -0.81224,-0.04849 -0.73951,-0.09698 -1.34566,-0.327322 -0.76375,-0.278829 -1.33353,-1.115318 -0.55766,-0.848612 -0.90923,-2.012423 -0.33945,-1.163811 -0.44855,-2.570082 z m 2.95802,-2.267007 q -0.0364,0.472798 -0.0242,0.933473 0,0.872858 0.12123,1.72147 0.18185,1.285042 0.67889,2.060915 0.24246,0.40006 0.71526,0.606152 0.4728,0.193968 1.00621,0.193968 0.53341,0 1.01833,-0.181845 0.48493,-0.193968 0.73951,-0.594028 0.24246,-0.40006 0.4728,-1.151688 0.24246,-0.763751 0.37581,-1.672978 0.14548,-0.921351 0.16972,-1.915439 0,-0.133353 0,-0.266707 0,-0.848612 -0.14547,-1.636609 -0.1576,-0.909227 -0.53342,-1.624486 -0.36369,-0.715258 -0.99408,-1.091072 -0.40006,-0.242461 -0.93348,-0.242461 -0.0242,0 -0.0606,0 -0.56978,0.01212 -0.98197,0.387937 -0.71526,0.642521 -1.12744,1.87907 -0.40006,1.224426 -0.49704,2.594328 z"
         style="font-style:normal;font-variant:normal;font-weight:normal;font-stretch:normal;font-family:AngryBirds;-inkscape-font-specification:AngryBirds;stroke-width:0.62069911"
         id="path56" />
      <path
         d="m 146.97726,15.041849 0.0849,-0.460675 q 1.36991,-0.448552 2.73981,-0.67889 1.38202,-0.24246 2.66706,-0.254583 0.0727,0 0.13336,0 1.2123,0 2.267,0.206091 1.1032,0.218215 1.91544,0.751628 0.73951,0.472798 1.17594,1.188057 0.44855,0.715259 0.53341,1.612363 0.0243,0.218214 0.0243,0.460675 0,0.691013 -0.20609,1.466886 -0.26671,1.030458 -0.92136,2.097285 -0.12123,0.218214 -0.37581,0.545536 -0.25458,0.327322 -0.55766,0.703136 -0.29095,0.363691 -0.64252,0.727381 -0.33944,0.351568 -0.66677,0.630398 0.30308,0.715259 0.64252,1.515379 0.35157,0.787997 0.67889,1.527501 0.33945,0.727382 0.64253,1.345657 0.30307,0.606151 0.47279,0.945596 l -0.16972,0.181846 -1.44264,-0.80012 -0.0727,1.236549 -0.49704,-0.218215 -0.44855,0.303076 -3.00652,-4.643121 -1.56387,0.618275 -0.12123,3.72177 -0.40006,-0.04849 -0.82436,-1.297164 -0.64252,1.672978 -0.44856,-0.181846 q -0.0242,-0.739504 -0.0849,-2.12153 -0.0606,-1.382025 -0.1091,-3.006511 -0.0485,-1.624486 -0.0485,-3.297464 0,-1.672978 0.097,-3.042881 l 0.0727,-0.969842 -0.788,-0.569782 1.30929,-1.188057 z m 3.5763,7.807231 q 0.8971,-0.351568 1.8427,-0.945596 0.94559,-0.594029 1.63661,-1.297164 0.69101,-0.715259 1.00621,-1.47901 0.14547,-0.339445 0.14547,-0.67889 0,-0.40006 -0.20609,-0.787997 -0.21821,-0.40006 -0.93347,-0.509167 -0.58191,-0.09698 -1.20018,-0.09698 -0.13335,0 -0.27883,0 -0.89711,0.04849 -1.96393,0.230337 z"
         style="font-style:normal;font-variant:normal;font-weight:normal;font-stretch:normal;font-family:AngryBirds;-inkscape-font-specification:AngryBirds;stroke-width:0.62069911"
         id="path58" />
      <path
         d="m 159.46399,15.538893 0.12123,-0.436429 9.80753,-0.703136 -0.40006,0.618275 0.70314,0.727382 -1.20018,0.763751 1.20018,0.52129 -0.097,0.424306 -3.23685,0.230337 -0.16972,12.353368 -0.37581,0.109107 -0.81225,-1.769962 -0.56978,1.515378 -0.60615,-0.618274 -0.71526,0.448552 -0.12123,-11.892692 -3.00651,0.193968 0.12123,-0.448552 -0.42431,-0.339445 1.39415,-1.04258 z"
         style="font-style:normal;font-variant:normal;font-weight:normal;font-stretch:normal;font-family:AngryBirds;-inkscape-font-specification:AngryBirds;stroke-width:0.62069911"
         id="path60" />
      <path
         d="m 169.45335,29.6501 3.20048,-15.32351 0.99409,0.303076 0.90923,-0.80012 1.3699,1.685101 0.77588,-1.515379 0.86073,0.521291 0.80012,-0.460675 2.89741,15.6872 -0.54554,-0.375814 -0.90923,0.52129 -0.70313,-0.897104 -0.66677,0.67889 -0.92135,-3.358079 -4.61887,0.375813 -0.88499,3.382326 -0.25458,0.09698 -0.788,-0.994088 -0.99408,0.787997 z m 4.06122,-5.782685 3.55205,-0.327322 -1.23655,-5.564471 -1.04258,0.07274 z"
         style="font-style:normal;font-variant:normal;font-weight:normal;font-stretch:normal;font-family:AngryBirds;-inkscape-font-specification:AngryBirds;stroke-width:0.62069911"
         id="path62" />
      <path
         d="m 183.00691,11.623155 0.59402,-0.521291 q -0.0485,-0.07274 -0.12123,-0.169722 -0.0485,-0.07274 -0.14547,-0.157599 -0.0849,-0.09699 -0.13336,-0.193969 1.44264,-0.424306 2.87316,-0.545536 1.43052,-0.1212306 2.9459,0.07274 1.2123,0.145476 2.1579,0.775874 0.94559,0.618274 1.53962,1.515379 0.59403,0.884981 0.81224,1.951807 0.23034,1.066827 -0.0242,2.133654 -0.19397,0.800119 -0.72738,1.430517 -0.53342,0.630398 -1.32141,1.163811 -0.77588,0.533413 -1.75784,0.981965 -0.98197,0.448552 -2.07304,0.848612 -0.14548,0.424306 -0.25458,0.824366 -0.097,0.387937 -0.16973,0.763751 -0.0727,0.351568 -0.097,0.654644 -0.0242,0.290953 -0.0727,0.484921 l -0.37581,0.327322 -1.04258,-0.945596 -0.40006,1.260795 -0.3152,-0.04849 q -0.0485,-0.303075 -0.13336,-0.800119 -0.0727,-0.509168 -0.14547,-1.091073 -0.0727,-0.594029 -0.13336,-1.212303 -0.0606,-0.618275 -0.0606,-1.163811 0.44855,-0.242461 1.06683,-0.545536 0.61827,-0.303076 1.26079,-0.642521 0.87286,-0.497044 1.53963,-1.066826 0.66676,-0.569783 0.84861,-1.151688 0.21821,-0.715259 0.0727,-1.321411 -0.14548,-0.606151 -0.52129,-1.054703 -0.37582,-0.448552 -0.93348,-0.727382 -0.55766,-0.290953 -1.15169,-0.339445 -0.71525,-0.04849 -1.58811,-0.04849 -0.87286,0 -1.81846,0.169723 l 0.96985,-1.018335 z m 1.01833,18.475497 q -0.25458,-0.181846 -0.35157,-0.436429 -0.097,-0.266707 0,-0.569783 0.097,-0.315198 0.40006,-0.64252 0.30308,-0.339445 0.84861,-0.666767 0.16973,-0.09698 0.50917,-0.157599 0.35157,-0.06062 0.73951,-0.08486 0.38793,-0.02425 0.70313,0 0.32732,0.02425 0.42431,0.09698 0.12123,0.07274 0.24246,0.327322 0.13335,0.24246 0.14547,0.557659 0.0121,0.303076 -0.14547,0.642521 -0.14548,0.327321 -0.58191,0.630397 -0.27883,0.193969 -0.7395,0.27883 -0.46068,0.09698 -0.90923,0.133353 -0.43643,0.03637 -0.81224,0 -0.37582,-0.03637 -0.4728,-0.109107 z"
         style="font-style:normal;font-variant:normal;font-weight:normal;font-stretch:normal;font-family:AngryBirds;-inkscape-font-specification:AngryBirds;stroke-width:0.62069911"
         id="path64" />
    </g>
  </g>
</svg>
