<?xml version="1.0" encoding="UTF-8" standalone="no"?>
<!-- Created with Inkscape (http://www.inkscape.org/) -->

<svg
   xmlns:dc="http://purl.org/dc/elements/1.1/"
   xmlns:cc="http://creativecommons.org/ns#"
   xmlns:rdf="http://www.w3.org/1999/02/22-rdf-syntax-ns#"
   xmlns:svg="http://www.w3.org/2000/svg"
   xmlns="http://www.w3.org/2000/svg"
   xmlns:sodipodi="http://sodipodi.sourceforge.net/DTD/sodipodi-0.dtd"
   xmlns:inkscape="http://www.inkscape.org/namespaces/inkscape"
   width="210mm"
   height="297mm"
   viewBox="0 0 210 297"
   version="1.1"
   id="svg8"
   inkscape:version="0.92.1 r15371"
   sodipodi:docname="batalha_final.svg">
  <defs
     id="defs2" />
  <sodipodi:namedview
     id="base"
     pagecolor="#ffffff"
     bordercolor="#666666"
     borderopacity="1.0"
     inkscape:pageopacity="0.0"
     inkscape:pageshadow="2"
     inkscape:zoom="0.49497475"
     inkscape:cx="77.291457"
     inkscape:cy="845.64621"
     inkscape:document-units="mm"
     inkscape:current-layer="layer1"
     showgrid="false"
     inkscape:window-width="1269"
     inkscape:window-height="704"
     inkscape:window-x="0"
     inkscape:window-y="27"
     inkscape:window-maximized="1" />
  <metadata
     id="metadata5">
    <rdf:RDF>
      <cc:Work
         rdf:about="">
        <dc:format>image/svg+xml</dc:format>
        <dc:type
           rdf:resource="http://purl.org/dc/dcmitype/StillImage" />
        <dc:title></dc:title>
      </cc:Work>
    </rdf:RDF>
  </metadata>
  <g
     inkscape:label="Camada 1"
     inkscape:groupmode="layer"
     id="layer1">
    <rect
       style="opacity:1;fill:#ff0000;fill-opacity:1;stroke:none;stroke-width:1.51819003;stroke-linecap:round;stroke-linejoin:round;stroke-miterlimit:4;stroke-dasharray:none;stroke-dashoffset:0;stroke-opacity:1"
       id="rect4554"
       width="191.78323"
       height="81.099098"
       x="7.2111068"
       y="9.0082092" />
    <g
       id="g4593"
       transform="matrix(0.72000469,0,0,0.72000469,73.003539,33.498311)">
      <path
         sodipodi:nodetypes="cccc"
         inkscape:connector-curvature="0"
         id="path4573"
         d="M 81.183119,19.908317 C 75.707531,15.469398 72.697383,10.582217 73.098215,5.074858 74.822648,-0.9707728 80.370696,3.3298515 84.924891,4.9412233 Z"
         style="fill:#ffffff;stroke:#000000;stroke-width:0.26458332px;stroke-linecap:butt;stroke-linejoin:miter;stroke-opacity:1" />
      <path
         sodipodi:nodetypes="csssc"
         inkscape:connector-curvature="0"
         id="path5102"
         d="M 158.44585,34.421417 C 166.42835,-32.345314 99.75038,-29.578529 87.87801,-3.314 65.867199,45.379197 102.886,74.274644 133.46412,61.983694 c 12.70597,-5.107187 24.20859,-7.750047 34.61115,-22.513367 2.04398,-2.90083 -2.45807,-4.01989 -9.62942,-5.04891 z"
         style="fill:#ffffff;stroke:#000000;stroke-width:3;stroke-linecap:butt;stroke-linejoin:miter;stroke-miterlimit:4;stroke-dasharray:none;stroke-opacity:1" />
      <path
         sodipodi:nodetypes="cc"
         inkscape:connector-curvature="0"
         id="path5104"
         d="m 131.34607,14.826847 c 21.10436,-11.10979 19.21808,-1.63372 8.8199,11.22531"
         style="fill:none;stroke:#000000;stroke-width:3;stroke-linecap:round;stroke-linejoin:miter;stroke-miterlimit:4;stroke-dasharray:none;stroke-opacity:1" />
      <path
         style="fill:none;stroke:#000000;stroke-width:3;stroke-linecap:round;stroke-linejoin:miter;stroke-miterlimit:4;stroke-dasharray:none;stroke-opacity:1"
         d="M 83.51267,4.398577 C 69.564263,-4.307081 70.051929,10.720987 80.6459,21.388037"
         id="path5106"
         inkscape:connector-curvature="0"
         sodipodi:nodetypes="cc" />
      <path
         sodipodi:nodetypes="ccc"
         inkscape:connector-curvature="0"
         id="path5108"
         d="m 99.61915,-8.6388 c -0.486281,11.121001 2.67263,9.613984 7.14946,3.541321 0.58035,6.77777 4.39449,8.530725 16.5039,-2.605879"
         style="fill:none;stroke:#000000;stroke-width:2;stroke-linecap:round;stroke-linejoin:round;stroke-miterlimit:4;stroke-dasharray:none;stroke-opacity:1" />
      <g
         transform="translate(107.70952,-67.871999)"
         id="g5134">
        <path
           sodipodi:nodetypes="ccsc"
           inkscape:connector-curvature="0"
           id="path5112"
           d="m -19.347948,80.416557 c 0.803853,12.718574 17.2742803,1.69989 28.2665933,-1.018608 3.8301797,9.936552 -2.605387,39.858261 -11.077447,40.235331 C -15.689843,120.23551 -16.957611,98.890741 -19.347948,80.416557 Z"
           style="fill:#000000;stroke:#000000;stroke-width:2;stroke-linecap:butt;stroke-linejoin:miter;stroke-miterlimit:4;stroke-dasharray:none;stroke-opacity:1" />
        <path
           style="fill:#ffffff;stroke:none;stroke-width:2;stroke-linecap:butt;stroke-linejoin:miter;stroke-miterlimit:4;stroke-dasharray:none;stroke-opacity:1"
           d="M 8.3894786,79.397949 C 11.860518,90.390416 5.525002,118.52574 -2.6879694,119.18311 -24.289607,118.32404 1.2884175,81.189121 8.3894786,79.397949 Z"
           id="path5110"
           inkscape:connector-curvature="0"
           sodipodi:nodetypes="ccc" />
        <path
           style="fill:#ffffff;stroke:#000000;stroke-width:2;stroke-linecap:butt;stroke-linejoin:round;stroke-miterlimit:4;stroke-dasharray:none;stroke-opacity:1"
           d="m -2.2056927,83.922581 c 0.78863,4.82768 3.523795,8.3628 6.931596,12.35711 2.148485,-5.51172 4.604103,-10.32281 4.192742,-16.881742 z"
           id="path5120"
           inkscape:connector-curvature="0"
           sodipodi:nodetypes="cccc" />
        <path
           style="fill:#ffffff;stroke:#000000;stroke-width:2;stroke-linecap:round;stroke-linejoin:round;stroke-miterlimit:4;stroke-dasharray:none;stroke-opacity:1"
           d="m -6.6228767,84.951021 c 0.788986,3.92221 2.262171,5.90585 3.756144,7.8306 1.79403,-1.22901 2.22736496,-5.38876 2.48287696,-9.9315 z"
           id="path5122"
           inkscape:connector-curvature="0"
           sodipodi:nodetypes="cccc" />
        <path
           style="fill:#ffffff;stroke:#000000;stroke-width:2;stroke-linecap:round;stroke-linejoin:round;stroke-miterlimit:4;stroke-dasharray:none;stroke-opacity:1"
           d="m -12.279331,86.086041 c 0.557114,3.65139 1.71759,6.17602 4.0635403,7.91932 1.917701,-2.75112 1.823989,-5.73776 1.592914,-9.05434 z"
           id="path5124"
           inkscape:connector-curvature="0"
           sodipodi:nodetypes="cccc" />
        <path
           style="fill:#ffffff;stroke:#000000;stroke-width:2;stroke-linecap:round;stroke-linejoin:round;stroke-miterlimit:4;stroke-dasharray:none;stroke-opacity:1"
           d="m -18.31644,85.070621 c 0.295216,5.5716 1.489247,10.51874 4.052617,14.53845 1.893158,-2.59449 3.836992,-7.20726 1.984492,-13.52303 -2.134658,0.15068 -4.142524,-0.2058 -6.037109,-1.01542 z"
           id="path5126"
           inkscape:connector-curvature="0"
           sodipodi:nodetypes="cccc" />
      </g>
      <g
         transform="translate(-24.182166,-68.332213)"
         id="g5146">
        <ellipse
           style="opacity:1;fill:#000000;fill-opacity:1;stroke:none;stroke-width:2.38530302;stroke-linecap:round;stroke-linejoin:round;stroke-miterlimit:4;stroke-dasharray:none;stroke-dashoffset:0;stroke-opacity:1"
           id="path5136"
           cx="140.05673"
           cy="39.437862"
           rx="2.4567399"
           ry="4.9631705"
           transform="matrix(0.97210653,0.23453974,-0.32638085,0.94523835,0,0)" />
        <ellipse
           style="opacity:1;fill:#ffffff;fill-opacity:1;stroke:none;stroke-width:2;stroke-linecap:round;stroke-linejoin:round;stroke-miterlimit:4;stroke-dasharray:none;stroke-dashoffset:0;stroke-opacity:1"
           id="path5140"
           cx="139.46414"
           cy="21.461582"
           rx="0.67525333"
           ry="1.3955235"
           transform="rotate(20.458389)" />
      </g>
      <g
         transform="translate(-23.652996,-67.27388)"
         id="g5150">
        <ellipse
           transform="matrix(0.97210653,0.23453974,-0.32638085,0.94523835,0,0)"
           ry="4.9631705"
           rx="2.4567399"
           cy="37.729053"
           cx="150.7823"
           id="ellipse5138"
           style="opacity:1;fill:#000000;fill-opacity:1;stroke:none;stroke-width:2.38530302;stroke-linecap:round;stroke-linejoin:round;stroke-miterlimit:4;stroke-dasharray:none;stroke-dashoffset:0;stroke-opacity:1" />
        <ellipse
           transform="rotate(9.8825977)"
           ry="1.3955235"
           rx="0.67525333"
           cy="45.859432"
           cx="143.97752"
           id="ellipse5142"
           style="opacity:1;fill:#ffffff;fill-opacity:1;stroke:none;stroke-width:2;stroke-linecap:round;stroke-linejoin:round;stroke-miterlimit:4;stroke-dasharray:none;stroke-dashoffset:0;stroke-opacity:1" />
      </g>
    </g>
    <g
       id="g4533"
       transform="matrix(1.9111953,0,0,1.9111953,-17.365987,-81.51566)">
      <path
         id="path9"
         d="m 46.878719,74.125252 a 16.347469,16.347469 0 0 1 -18.06983,10.708812 16.347469,16.347469 0 0 1 -13.69816,-15.923502 16.347469,16.347469 0 0 1 13.28839,-16.267029 16.347469,16.347469 0 0 1 18.33657,10.245379 l -15.27882,5.813572 z"
         style="opacity:1;fill:#ffff00;fill-opacity:1;stroke:#000000;stroke-width:0.61799997;stroke-linecap:round;stroke-linejoin:round;stroke-miterlimit:4;stroke-dasharray:none;stroke-dashoffset:0;stroke-opacity:1"
         inkscape:connector-curvature="0" />
      <path
         inkscape:connector-curvature="0"
         style="opacity:1;fill:#000000;fill-opacity:1;stroke:#000000;stroke-width:0.61799997;stroke-linecap:round;stroke-linejoin:round;stroke-miterlimit:4;stroke-dasharray:none;stroke-dashoffset:0;stroke-opacity:1"
         d="m 33.025609,62.163489 a 1.7953868,1.7953868 0 0 1 -1.64416,1.789006 1.7953868,1.7953868 0 0 1 -1.92115,-1.487614 1.7953868,1.7953868 0 0 1 1.32051,-2.039623 1.7953868,1.7953868 0 0 1 2.14361,1.144002 l -1.6942,0.594229 z"
         id="path11" />
    </g>
    <path
       style="fill:#00ffff;stroke:#00ffff;stroke-width:0.23692195px;stroke-linecap:butt;stroke-linejoin:miter;stroke-opacity:1"
       d="m 100.46681,15.552751 h 18.66755 l -11.96639,19.62485 13.40237,0.47866 -33.98452,47.3868 3.829235,-26.326 -15.795603,-0.47865 z"
       id="path4595"
       inkscape:connector-curvature="0"
       sodipodi:nodetypes="cccccccc" />
  </g>
</svg>
