<?xml version="1.0" encoding="UTF-8" standalone="no"?>
<!-- Created with Inkscape (http://www.inkscape.org/) -->

<svg
   xmlns:dc="http://purl.org/dc/elements/1.1/"
   xmlns:cc="http://creativecommons.org/ns#"
   xmlns:rdf="http://www.w3.org/1999/02/22-rdf-syntax-ns#"
   xmlns:svg="http://www.w3.org/2000/svg"
   xmlns="http://www.w3.org/2000/svg"
   xmlns:xlink="http://www.w3.org/1999/xlink"
   xmlns:sodipodi="http://sodipodi.sourceforge.net/DTD/sodipodi-0.dtd"
   xmlns:inkscape="http://www.inkscape.org/namespaces/inkscape"
   width="210mm"
   height="297mm"
   viewBox="0 0 210 297"
   version="1.1"
   id="svg8"
   inkscape:version="0.92.1 r15371"
   sodipodi:docname="btn_iniciar.svg">
  <defs
     id="defs2">
    <inkscape:path-effect
       effect="bspline"
       id="path-effect33"
       is_visible="true"
       weight="33.333333"
       steps="2"
       helper_size="0"
       apply_no_weight="true"
       apply_with_weight="true"
       only_selected="false" />
    <linearGradient
       inkscape:collect="always"
       id="linearGradient26">
      <stop
         style="stop-color:#ffff00;stop-opacity:1;"
         offset="0"
         id="stop22" />
      <stop
         style="stop-color:#a3a35c;stop-opacity:1"
         offset="1"
         id="stop24" />
    </linearGradient>
    <linearGradient
       inkscape:collect="always"
       xlink:href="#linearGradient26"
       id="linearGradient28"
       x1="48.85342"
       y1="85.900291"
       x2="-1.7008941"
       y2="72.198654"
       gradientUnits="userSpaceOnUse"
       gradientTransform="translate(-7.2602112e-5,3.7700306e-5)" />
  </defs>
  <sodipodi:namedview
     id="base"
     pagecolor="#ffffff"
     bordercolor="#666666"
     borderopacity="1.0"
     inkscape:pageopacity="0.0"
     inkscape:pageshadow="2"
     inkscape:zoom="4"
     inkscape:cx="171.2359"
     inkscape:cy="803.79974"
     inkscape:document-units="mm"
     inkscape:current-layer="layer1"
     showgrid="false"
     inkscape:window-width="1269"
     inkscape:window-height="704"
     inkscape:window-x="0"
     inkscape:window-y="27"
     inkscape:window-maximized="1" />
  <metadata
     id="metadata5">
    <rdf:RDF>
      <cc:Work
         rdf:about="">
        <dc:format>image/svg+xml</dc:format>
        <dc:type
           rdf:resource="http://purl.org/dc/dcmitype/StillImage" />
        <dc:title />
      </cc:Work>
    </rdf:RDF>
  </metadata>
  <g
     inkscape:label="Camada 1"
     inkscape:groupmode="layer"
     id="layer1">
    <path
       style="opacity:1;fill:#ffff00;fill-opacity:1;stroke:none;stroke-width:0.44550127;stroke-linejoin:round;stroke-miterlimit:4;stroke-dasharray:none;stroke-dashoffset:0;stroke-opacity:1"
       d="M 7.8429322,75.042961 H 38.997616 V 86.098765 H 7.8429322 Z"
       id="rect20" />
    <g
       aria-label="Iniciar"
       style="font-style:normal;font-variant:normal;font-weight:normal;font-stretch:normal;font-size:10.58333302px;line-height:1.25;font-family:'URW Gothic L';-inkscape-font-specification:'URW Gothic L';letter-spacing:0px;word-spacing:0px;fill:#000000;fill-opacity:1;stroke:none;stroke-width:0.26458332"
       id="text96">
      <path
         d="m 9.2790197,84.733401 0.020671,-8.128703 0.289388,0.03101 0.3255616,-0.242879 0.4134112,1.090373 0.465088,-1.219564 0.232544,0.03101 -0.113688,8.319905 -0.361735,-0.201538 -0.304891,0.392741 -0.320394,-0.837158 -0.346232,0.847493 z"
         style="font-style:normal;font-variant:normal;font-weight:normal;font-stretch:normal;font-family:AngryBirds;-inkscape-font-specification:AngryBirds;stroke-width:0.26458332"
         id="path15" />
      <path
         d="m 12.007535,78.129153 0.465088,-0.242879 0.37207,0.387573 0.465088,-0.155029 2.160075,3.922241 h 0.211873 l -0.06201,-3.891235 0.273885,-0.160197 0.475423,0.65629 0.444417,-0.666626 0.191203,0.03101 -0.01034,6.795451 -0.118856,0.07235 -0.377238,-0.392741 -0.532267,0.37207 -0.211874,-0.04134 -2.134236,-3.364135 -0.268718,-0.03101 -0.08268,3.415812 -0.304891,-0.04134 -0.413411,-0.563273 -0.310059,0.625284 -0.180867,-0.09302 z"
         style="font-style:normal;font-variant:normal;font-weight:normal;font-stretch:normal;font-family:AngryBirds;-inkscape-font-specification:AngryBirds;stroke-width:0.26458332"
         id="path17" />
      <path
         d="m 17.970996,84.62488 v -6.583577 l 0.232544,-0.08268 0.351399,0.826823 0.444418,-0.795817 0.315226,0.170532 0.299723,-0.108521 -0.180867,6.692098 -0.129192,0.04134 -0.444417,-0.63562 -0.304891,0.558106 -0.273885,-0.103353 z"
         style="font-style:normal;font-variant:normal;font-weight:normal;font-stretch:normal;font-family:AngryBirds;-inkscape-font-specification:AngryBirds;stroke-width:0.26458332"
         id="path19" />
      <path
         d="m 20.342943,81.472618 q 0,-0.304891 0.08785,-0.81132 0.09302,-0.511596 0.289388,-1.033528 0.196371,-0.5271 0.516764,-0.956014 0.325562,-0.428915 0.79065,-0.578776 0.516764,-0.160197 0.98702,-0.217041 0.155029,-0.02067 0.325561,-0.0155 0.330729,0 0.687297,0.07751 0.02067,0.03101 0.03101,0.07752 0.01034,0.04651 0.03101,0.07751 l -0.728637,0.258382 0.506429,0.28422 -0.222209,0.191203 0.08785,0.26355 q -0.139526,0.01033 -0.310059,0.03101 -0.170532,0.02067 -0.341064,0.05684 -0.165365,0.03101 -0.320394,0.07235 -0.155029,0.04134 -0.268717,0.103353 -0.211874,0.103352 -0.361735,0.39274 -0.144694,0.284221 -0.237712,0.625285 -0.08785,0.335897 -0.134359,0.671794 -0.04134,0.330729 -0.04134,0.532267 0,0.180868 0.02584,0.428914 0.03101,0.248047 0.09302,0.516765 0.06201,0.26355 0.170532,0.501261 0.113688,0.237712 0.294556,0.387573 0.09302,0.08268 0.28422,0.129191 0.191203,0.04651 0.423747,0.07235 0.232544,0.02067 0.475423,0.03101 0.248047,0.01034 0.45992,0.01034 -0.02067,0.02067 -0.04651,0.05684 -0.02067,0.03617 -0.05168,0.08785 l 0.222209,0.242879 -0.5271,0.299723 0.578776,0.211873 q -0.02067,0.08268 -0.04134,0.124024 -0.63562,0.139526 -1.276408,0.1757 -0.09302,0.0052 -0.186035,0.0052 -0.527099,0 -0.971517,-0.180867 -0.403076,-0.160197 -0.65629,-0.521932 -0.253215,-0.366903 -0.397909,-0.821655 -0.139526,-0.454753 -0.19637,-0.945679 -0.05168,-0.490926 -0.05168,-0.914673 z"
         style="font-style:normal;font-variant:normal;font-weight:normal;font-stretch:normal;font-family:AngryBirds;-inkscape-font-specification:AngryBirds;stroke-width:0.26458332"
         id="path21" />
      <path
         d="m 24.957648,84.62488 v -6.583577 l 0.232544,-0.08268 0.3514,0.826823 0.444417,-0.795817 0.315226,0.170532 0.299723,-0.108521 -0.180867,6.692098 -0.129191,0.04134 -0.444417,-0.63562 -0.304891,0.558106 -0.273885,-0.103353 z"
         style="font-style:normal;font-variant:normal;font-weight:normal;font-stretch:normal;font-family:AngryBirds;-inkscape-font-specification:AngryBirds;stroke-width:0.26458332"
         id="path23" />
      <path
         d="m 27.195239,84.542198 1.364258,-6.531901 0.423746,0.129191 0.387573,-0.341064 0.583944,0.718302 0.330729,-0.645955 0.366903,0.222209 0.341064,-0.196371 1.235067,6.68693 -0.232544,-0.160197 -0.387573,0.222209 -0.299723,-0.382406 -0.284221,0.289388 -0.392741,-1.431437 -1.968872,0.160197 -0.377238,1.441773 -0.10852,0.04134 -0.335897,-0.423747 -0.423747,0.335897 z m 1.73116,-2.464966 1.51412,-0.139526 -0.5271,-2.371948 -0.444417,0.03101 z"
         style="font-style:normal;font-variant:normal;font-weight:normal;font-stretch:normal;font-family:AngryBirds;-inkscape-font-specification:AngryBirds;stroke-width:0.26458332"
         id="path25" />
      <path
         d="m 32.641933,78.315188 0.03617,-0.19637 q 0.583944,-0.191203 1.167887,-0.289388 0.589112,-0.103353 1.136882,-0.108521 0.03101,0 0.05684,0 0.516764,0 0.966349,0.08785 0.470256,0.09302 0.816488,0.320394 0.315226,0.201538 0.501261,0.506429 0.191203,0.304891 0.227376,0.687297 0.01034,0.09302 0.01034,0.19637 0,0.294556 -0.08785,0.625285 -0.113688,0.43925 -0.392741,0.894002 -0.05168,0.09302 -0.160197,0.232544 -0.108521,0.139526 -0.237712,0.299723 -0.124023,0.15503 -0.273885,0.310059 -0.144694,0.149862 -0.28422,0.268717 0.129191,0.304891 0.273885,0.645956 0.149862,0.335897 0.289388,0.651123 0.144694,0.310058 0.273885,0.573608 0.129191,0.258382 0.201538,0.403076 l -0.07235,0.07751 -0.614949,-0.341064 -0.03101,0.527099 -0.211874,-0.09302 -0.191202,0.129191 -1.281576,-1.979208 -0.666626,0.26355 -0.05168,1.586467 -0.170533,-0.02067 -0.351399,-0.552938 -0.273885,0.713135 -0.191203,-0.07752 q -0.01034,-0.315226 -0.03617,-0.904337 -0.02584,-0.589112 -0.04651,-1.281576 -0.02067,-0.692464 -0.02067,-1.405599 0,-0.713134 0.04134,-1.297078 l 0.03101,-0.413411 -0.335897,-0.24288 0.558106,-0.506429 z m 1.524455,3.327962 q 0.382406,-0.149861 0.785482,-0.403076 0.403076,-0.253214 0.697632,-0.552938 0.294555,-0.30489 0.428914,-0.630452 0.06201,-0.144694 0.06201,-0.289388 0,-0.170532 -0.08785,-0.335897 -0.09302,-0.170532 -0.397909,-0.217041 -0.248047,-0.04134 -0.511596,-0.04134 -0.05684,0 -0.118856,0 -0.382406,0.02067 -0.837158,0.09819 z"
         style="font-style:normal;font-variant:normal;font-weight:normal;font-stretch:normal;font-family:AngryBirds;-inkscape-font-specification:AngryBirds;stroke-width:0.26458332"
         id="path27" />
    </g>
  </g>
</svg>
