<?xml version="1.0" encoding="UTF-8" standalone="no"?>
<!-- Created with Inkscape (http://www.inkscape.org/) -->

<svg
   xmlns:dc="http://purl.org/dc/elements/1.1/"
   xmlns:cc="http://creativecommons.org/ns#"
   xmlns:rdf="http://www.w3.org/1999/02/22-rdf-syntax-ns#"
   xmlns:svg="http://www.w3.org/2000/svg"
   xmlns="http://www.w3.org/2000/svg"
   xmlns:sodipodi="http://sodipodi.sourceforge.net/DTD/sodipodi-0.dtd"
   xmlns:inkscape="http://www.inkscape.org/namespaces/inkscape"
   width="210mm"
   height="297mm"
   viewBox="0 0 210 297"
   version="1.1"
   id="svg34"
   inkscape:version="0.92.1 r15371"
   sodipodi:docname="btn_nao.svg">
  <defs
     id="defs28" />
  <sodipodi:namedview
     id="base"
     pagecolor="#ffffff"
     bordercolor="#666666"
     borderopacity="1.0"
     inkscape:pageopacity="0.0"
     inkscape:pageshadow="2"
     inkscape:zoom="0.35"
     inkscape:cx="400"
     inkscape:cy="560"
     inkscape:document-units="mm"
     inkscape:current-layer="layer1"
     showgrid="false"
     inkscape:window-width="1366"
     inkscape:window-height="704"
     inkscape:window-x="0"
     inkscape:window-y="27"
     inkscape:window-maximized="1" />
  <metadata
     id="metadata31">
    <rdf:RDF>
      <cc:Work
         rdf:about="">
        <dc:format>image/svg+xml</dc:format>
        <dc:type
           rdf:resource="http://purl.org/dc/dcmitype/StillImage" />
        <dc:title></dc:title>
      </cc:Work>
    </rdf:RDF>
  </metadata>
  <g
     inkscape:label="Camada 1"
     inkscape:groupmode="layer"
     id="layer1">
    <path
       style="opacity:1;fill:#ff0000;fill-opacity:1;stroke:#ff0000;stroke-width:0.61799997;stroke-linecap:round;stroke-linejoin:round;stroke-miterlimit:4;stroke-dasharray:none;stroke-dashoffset:0;stroke-opacity:1"
       d="m 15.481967,12.761911 h 67.309864 c 2.295049,0 4.142687,1.847639 4.142687,4.142687 v 32.536057 c 0,2.295048 -1.847638,4.142687 -4.142687,4.142687 H 15.481967 c -2.295049,0 -4.142687,-1.847639 -4.142687,-4.142687 V 16.904598 c 0,-2.295048 1.847638,-4.142687 4.142687,-4.142687 z"
       id="rect18" />
    <g
       aria-label="não"
       style="font-style:normal;font-variant:normal;font-weight:normal;font-stretch:normal;font-size:42.49538803px;line-height:1.25;font-family:'URW Gothic L';-inkscape-font-specification:'URW Gothic L';letter-spacing:0px;word-spacing:0px;fill:#ffffff;fill-opacity:1;stroke:none;stroke-width:1.06238461"
       id="text26">
      <path
         d="m 17.296481,24.577521 1.867473,-0.975236 1.493979,1.556228 1.867473,-0.622491 8.673375,15.749023 h 0.850738 l -0.248997,-15.624525 1.099734,-0.643241 1.908973,2.635212 1.784474,-2.676711 0.767739,0.124498 -0.0415,27.285857 -0.477243,0.290496 -1.514729,-1.576977 -2.137219,1.493978 -0.850737,-0.165998 -8.569627,-13.508055 -1.078985,-0.124498 -0.331995,13.715552 -1.224232,-0.165997 -1.659976,-2.261718 -1.244982,2.510714 -0.72624,-0.373495 z"
         style="font-style:normal;font-variant:normal;font-weight:normal;font-stretch:normal;font-family:AngryBirds;-inkscape-font-specification:AngryBirds;fill:#ffffff;stroke-width:1.06238461"
         id="path90" />
      <path
         d="m 39.68541,50.3279 5.477921,-26.227622 1.701475,0.518742 1.556228,-1.36948 2.344716,2.884209 1.327981,-2.593713 1.473229,0.892237 1.36948,-0.788488 4.959178,26.850113 -0.933736,-0.643241 -1.556228,0.892237 -1.203482,-1.535478 -1.141234,1.161984 -1.576977,-5.747668 -7.905636,0.643241 -1.514729,5.789167 -0.435743,0.165997 -1.348731,-1.701475 -1.701475,1.34873 z m 1.182732,-31.581045 q 0.207497,-0.331995 0.373495,-0.601741 0.186747,-0.290496 0.352745,-0.580992 0.643241,-1.058235 1.36948,-1.805224 0.74699,-0.746989 2.07497,-0.954486 1.369481,-0.248997 2.178719,-0.0415 0.829988,0.207497 1.556228,0.663991 0.373494,0.248996 0.726239,0.539492 0.373495,0.269746 0.809239,0.539492 0.477243,0.290496 0.933736,0.518743 0.456494,0.228247 1.058235,0.456493 0.560242,0.165998 1.037485,0.06225 0.497993,-0.103748 0.912987,-0.394244 0.435743,-0.311245 0.767739,-0.68474 0.331995,-0.394244 0.64324,-0.767739 0.331996,-0.414994 0.622491,-0.995986 0.124499,0 0.248997,0.0415 0.145248,0.02075 0.269746,0.02075 l -0.124498,1.058235 h 1.016735 l -0.083,0.975236 0.601742,0.290496 q -0.477243,0.975236 -1.141234,1.991971 -0.66399,0.995986 -1.161983,1.452479 -1.058235,0.933737 -2.386216,1.182733 -1.307231,0.228247 -2.552213,-0.165997 -0.207497,-0.083 -0.497993,-0.228247 -0.269746,-0.145248 -0.601741,-0.352745 -0.331995,-0.207497 -0.72624,-0.456493 -0.373494,-0.269746 -0.726239,-0.539493 -0.767739,-0.518742 -1.556228,-0.933736 -0.767739,-0.414994 -1.535478,-0.497993 -0.331995,0 -0.829988,0.456493 -0.497993,0.435744 -0.954486,0.975236 -0.207497,0.248997 -0.394244,0.518743 -0.165998,0.248996 -0.373495,0.477243 l -0.165998,0.207497 -0.331995,-0.0415 0.373495,-1.058235 h -1.286482 l 0.269746,-0.72624 q -0.207497,-0.165997 -0.394244,-0.290495 -0.165998,-0.145248 -0.373495,-0.311246 z m 5.768417,21.683438 6.079663,-0.560242 -2.11647,-9.524113 -1.784474,0.124498 z"
         style="font-style:normal;font-variant:normal;font-weight:normal;font-stretch:normal;font-family:AngryBirds;-inkscape-font-specification:AngryBirds;fill:#ffffff;stroke-width:1.06238461"
         id="path92" />
      <path
         d="m 61.763089,41.073534 q -0.083,-1.141234 -0.103749,-2.282468 0,-1.265731 0.124499,-2.531463 0.414994,-4.336688 1.203482,-6.805902 0.788489,-2.469215 2.323967,-3.776446 0.560242,-0.477243 1.410979,-0.954486 0.871488,-0.497993 1.929723,-0.850738 1.078984,-0.373494 2.303216,-0.518742 0.580992,-0.06225 1.161984,-0.06225 l 1.307231,0.083 -0.083,2.469215 2.07497,-1.265732 0.892237,1.307231 1.41098,-0.560242 q 1.576977,1.618477 2.406965,4.647933 0.850738,3.008707 0.850738,7.386894 0,1.452479 -0.165997,3.174704 -0.165998,1.722225 -0.601742,3.382202 -0.414994,1.639226 -1.120484,3.029456 -0.70549,1.36948 -1.763724,2.137219 -1.493979,1.058235 -3.008707,1.618477 -1.493978,0.560242 -2.925708,0.70549 -0.66399,0.06225 -1.327981,0.06225 -0.726239,0 -1.39023,-0.083 -1.265731,-0.165998 -2.303217,-0.560242 -1.307231,-0.477243 -2.282467,-1.908972 -0.954486,-1.45248 -1.556227,-3.444451 -0.580992,-1.991971 -0.767739,-4.398936 z m 5.062927,-3.880195 q -0.06225,0.809239 -0.0415,1.597727 0,1.493979 0.207497,2.946458 0.311245,2.199468 1.161983,3.527449 0.414994,0.68474 1.224232,1.037485 0.809239,0.331995 1.722225,0.331995 0.912987,0 1.742975,-0.311245 0.829988,-0.331995 1.265732,-1.016735 0.414994,-0.684741 0.809238,-1.971222 0.414994,-1.307231 0.643241,-2.863459 0.248997,-1.576977 0.290496,-3.278453 0,-0.228246 0,-0.456493 0,-1.452479 -0.248996,-2.80121 -0.269747,-1.556227 -0.912987,-2.78046 -0.622491,-1.224232 -1.701476,-1.867473 -0.68474,-0.414994 -1.597727,-0.414994 -0.0415,0 -0.103748,0 -0.975236,0.02075 -1.680726,0.663991 -1.224233,1.099734 -1.929722,3.216203 -0.68474,2.09572 -0.850738,4.440436 z"
         style="font-style:normal;font-variant:normal;font-weight:normal;font-stretch:normal;font-family:AngryBirds;-inkscape-font-specification:AngryBirds;fill:#ffffff;stroke-width:1.06238461"
         id="path94" />
    </g>
  </g>
</svg>
