<?xml version="1.0" encoding="UTF-8" standalone="no"?>
<!-- Created with Inkscape (http://www.inkscape.org/) -->

<svg
   xmlns:dc="http://purl.org/dc/elements/1.1/"
   xmlns:cc="http://creativecommons.org/ns#"
   xmlns:rdf="http://www.w3.org/1999/02/22-rdf-syntax-ns#"
   xmlns:svg="http://www.w3.org/2000/svg"
   xmlns="http://www.w3.org/2000/svg"
   xmlns:xlink="http://www.w3.org/1999/xlink"
   xmlns:sodipodi="http://sodipodi.sourceforge.net/DTD/sodipodi-0.dtd"
   xmlns:inkscape="http://www.inkscape.org/namespaces/inkscape"
   width="210mm"
   height="297mm"
   viewBox="0 0 210 297"
   version="1.1"
   id="svg8"
   inkscape:version="0.92.1 r15371"
   sodipodi:docname="btn_regras.svg">
  <defs
     id="defs2">
    <inkscape:path-effect
       effect="bspline"
       id="path-effect33"
       is_visible="true"
       weight="33.333333"
       steps="2"
       helper_size="0"
       apply_no_weight="true"
       apply_with_weight="true"
       only_selected="false" />
    <linearGradient
       inkscape:collect="always"
       id="linearGradient26">
      <stop
         style="stop-color:#ffff00;stop-opacity:1;"
         offset="0"
         id="stop22" />
      <stop
         style="stop-color:#a3a35c;stop-opacity:1"
         offset="1"
         id="stop24" />
    </linearGradient>
    <linearGradient
       inkscape:collect="always"
       xlink:href="#linearGradient26"
       id="linearGradient28"
       x1="48.85342"
       y1="85.900291"
       x2="-1.7008941"
       y2="72.198654"
       gradientUnits="userSpaceOnUse"
       gradientTransform="translate(-7.2602112e-5,3.7700306e-5)" />
  </defs>
  <sodipodi:namedview
     id="base"
     pagecolor="#ffffff"
     bordercolor="#666666"
     borderopacity="1.0"
     inkscape:pageopacity="0.0"
     inkscape:pageshadow="2"
     inkscape:zoom="0.7071068"
     inkscape:cx="279.85986"
     inkscape:cy="805.95644"
     inkscape:document-units="mm"
     inkscape:current-layer="layer1"
     showgrid="false"
     inkscape:window-width="1269"
     inkscape:window-height="704"
     inkscape:window-x="0"
     inkscape:window-y="27"
     inkscape:window-maximized="1" />
  <metadata
     id="metadata5">
    <rdf:RDF>
      <cc:Work
         rdf:about="">
        <dc:format>image/svg+xml</dc:format>
        <dc:type
           rdf:resource="http://purl.org/dc/dcmitype/StillImage" />
        <dc:title />
      </cc:Work>
    </rdf:RDF>
  </metadata>
  <g
     inkscape:label="Camada 1"
     inkscape:groupmode="layer"
     id="layer1">
    <path
       style="opacity:1;fill:#ffff00;fill-opacity:1;stroke:none;stroke-width:0.45856488;stroke-linejoin:round;stroke-miterlimit:4;stroke-dasharray:none;stroke-dashoffset:0;stroke-opacity:1"
       d="M 7.8429322,75.042961 H 40.095504 v 11.31496 H 7.8429322 Z"
       id="rect20"
       inkscape:connector-curvature="0" />
    <g
       aria-label="Regras"
       style="font-style:normal;font-variant:normal;font-weight:normal;font-stretch:normal;font-size:10.58333302px;line-height:1.25;font-family:'URW Gothic L';-inkscape-font-specification:'URW Gothic L';text-align:center;letter-spacing:0px;word-spacing:0px;text-anchor:middle;fill:#000000;fill-opacity:1;stroke:none;stroke-width:0.06354109"
       id="text20">
      <path
         d="m 8.7792643,77.22741 0.2480468,-0.335897 -0.077515,-0.07752 q -0.031006,-0.04134 -0.067179,-0.08785 -0.036173,-0.04651 -0.056844,-0.113688 0.434082,-0.129191 1.0283609,-0.237712 0.599447,-0.10852 1.224731,-0.139526 0.196371,-0.01033 0.392741,-0.01033 0.418579,0 0.821656,0.04651 0.594279,0.06718 1.028361,0.299723 0.527099,0.28422 0.754475,0.857829 0.1757,0.444417 0.180868,0.950846 0,0.139526 -0.0155,0.28422 -0.06201,0.661459 -0.408244,1.307414 -0.341064,0.645955 -0.956014,1.064535 0.191203,0.413411 0.434082,0.91984 0.242879,0.501261 0.470256,0.961182 0.227376,0.45992 0.397908,0.806152 0.170532,0.341064 0.222209,0.43925 l -0.149862,0.134358 -0.878499,-0.625285 0.160197,0.775147 -0.294556,-0.08268 -0.170532,0.186035 -1.715657,-2.811198 -0.888835,0.222209 q -0.03101,0.537435 -0.05168,1.012858 -0.01033,0.201538 -0.02067,0.408243 -0.01034,0.206706 -0.0155,0.387574 -0.0052,0.180867 -0.01033,0.330729 -0.0052,0.144694 -0.0052,0.217041 l -0.09819,0.07752 -0.4134116,-0.61495 -0.2532145,0.666626 -0.3720703,-0.444417 -0.1240235,0.113688 q 0,-0.304891 -0.00517,-0.744141 -0.00517,-0.439249 -0.00517,-0.945678 0,-0.511597 -0.00517,-1.059367 -0.00517,-0.552938 -0.00517,-1.095541 V 79.211785 78.266106 L 8.8877848,78.085238 9.5957519,77.459954 Z m 1.7053217,3.343465 q 0.341065,-0.09302 0.713135,-0.222209 0.377238,-0.134359 0.692464,-0.330729 0.320394,-0.196371 0.532268,-0.45992 0.211873,-0.26355 0.232544,-0.63562 0,-0.04134 0,-0.08785 0,-0.361735 -0.165365,-0.578776 -0.186035,-0.24288 -0.496094,-0.341065 -0.232544,-0.07235 -0.511596,-0.07235 -0.09302,0 -0.186036,0.01033 -0.387573,0.03101 -0.759643,0.139527 -0.01033,0.63562 -0.03101,1.276408 -0.02067,0.63562 -0.02067,1.302246 z"
         style="font-style:normal;font-variant:normal;font-weight:normal;font-stretch:normal;font-family:AngryBirds;-inkscape-font-specification:AngryBirds;stroke-width:0.06354109"
         id="path15" />
      <path
         d="m 14.954598,78.415967 0.144694,-0.341064 -0.07235,-0.139526 3.028239,-0.201538 0.09302,0.413411 -0.65629,0.454753 0.625284,0.191202 -0.08268,0.232544 -1.545125,0.139527 -0.03617,1.627807 1.545126,-0.05168 -0.1757,0.552938 0.304891,0.124023 -0.05168,0.28422 -1.601969,0.160197 0.06718,1.725993 1.596802,-0.06201 -0.103353,0.547771 0.284221,0.129191 -0.118856,0.403076 -2.495972,0.144694 0.04134,-0.537435 -0.645955,0.04134 0.06718,-4.950602 -0.129191,-0.211873 0.454753,-0.392741 z"
         style="font-style:normal;font-variant:normal;font-weight:normal;font-stretch:normal;font-family:AngryBirds;-inkscape-font-specification:AngryBirds;stroke-width:0.06354109"
         id="path17" />
      <path
         d="m 18.933683,82.038485 q -0.02584,-0.242879 -0.02584,-0.490926 0,-0.253214 0.02584,-0.521932 0.06201,-0.645955 0.175699,-1.157552 0.118856,-0.511596 0.320394,-0.894002 0.201538,-0.382406 0.516765,-0.63562 0.320393,-0.253215 0.795817,-0.403076 0.465088,-0.149862 0.904337,-0.170533 0.103353,-0.0052 0.211874,-0.01033 0.341064,0 0.702799,0.06718 l 0.06718,0.124023 -0.563273,0.211873 0.434082,0.403076 -0.28422,0.191203 0.144694,0.273885 q -0.170532,0.01034 -0.377238,0.03101 -0.201538,0.0155 -0.408244,0.05684 -0.206706,0.04134 -0.387573,0.09819 -0.180868,0.05684 -0.294556,0.155029 -0.26355,0.211873 -0.428914,0.666626 -0.165365,0.454752 -0.201538,0.981852 -0.01033,0.149862 -0.01033,0.299723 0,0.377238 0.06718,0.749308 0.09302,0.516765 0.341064,0.868165 0.129191,0.170532 0.310059,0.263549 0.186035,0.08785 0.397908,0.113688 0.09819,0.01034 0.191203,0.01034 l 0.232544,-0.0155 q 0.211874,-0.03101 0.392741,-0.108521 0.02067,-0.537435 0.04134,-1.033528 0.0155,-0.330729 0.01034,-0.625285 0,-0.144694 0,-0.279053 l 0.201539,-0.134359 0.346232,0.635621 0.413411,-0.61495 0.139526,-0.04134 q -0.0155,0.54777 -0.0155,1.131714 0,0.289388 0.0052,0.594279 0.01034,0.89917 0.03101,1.808675 l -0.37207,0.124023 -0.284221,-0.558105 -0.465088,0.382405 q 0,-0.05168 -0.0052,-0.118855 -0.0052,-0.07235 -0.03617,-0.191203 -0.630452,0.206705 -1.152384,0.206705 -0.118856,0 -0.232544,-0.01034 -0.609782,-0.05684 -0.945679,-0.330729 -0.222208,-0.180867 -0.418579,-0.490926 -0.19637,-0.315226 -0.330729,-0.72347 -0.129191,-0.408244 -0.180867,-0.888835 z"
         style="font-style:normal;font-variant:normal;font-weight:normal;font-stretch:normal;font-family:AngryBirds;-inkscape-font-specification:AngryBirds;stroke-width:0.06354109"
         id="path19" />
      <path
         d="m 23.879117,78.178256 0.03617,-0.196371 q 0.583943,-0.191202 1.167887,-0.289388 0.589111,-0.103352 1.136881,-0.10852 0.03101,0 0.05684,0 0.516764,0 0.966349,0.08785 0.470255,0.09302 0.816487,0.320394 0.315227,0.201538 0.501262,0.506429 0.191203,0.304891 0.227376,0.687296 0.01033,0.09302 0.01033,0.196371 0,0.294555 -0.08785,0.625285 -0.113688,0.439249 -0.39274,0.894002 -0.05168,0.09302 -0.160197,0.232544 -0.108521,0.139526 -0.237712,0.299723 -0.124023,0.155029 -0.273885,0.310059 -0.144694,0.149861 -0.28422,0.268717 0.129191,0.304891 0.273885,0.645955 0.149861,0.335897 0.289388,0.651123 0.144694,0.310059 0.273885,0.573609 0.129191,0.258382 0.201538,0.403076 l -0.07235,0.07751 -0.61495,-0.341065 -0.03101,0.5271 -0.211873,-0.09302 -0.191203,0.129191 -1.281575,-1.979207 -0.666626,0.26355 -0.05168,1.586466 -0.170532,-0.02067 -0.3514,-0.552938 -0.273885,0.713135 -0.191202,-0.07752 q -0.01034,-0.315226 -0.03617,-0.904338 -0.02584,-0.589111 -0.04651,-1.281575 -0.02067,-0.692464 -0.02067,-1.405599 0,-0.713135 0.04134,-1.297078 l 0.03101,-0.413412 -0.335897,-0.242879 0.558105,-0.506429 z m 1.524455,3.327962 q 0.382405,-0.149862 0.785482,-0.403076 0.403076,-0.253215 0.697631,-0.552938 0.294556,-0.304891 0.428915,-0.630452 0.06201,-0.144694 0.06201,-0.289388 0,-0.170533 -0.08785,-0.335897 -0.09302,-0.170532 -0.397909,-0.217041 -0.248047,-0.04134 -0.511597,-0.04134 -0.05684,0 -0.118855,0 -0.382406,0.02067 -0.837159,0.09819 z"
         style="font-style:normal;font-variant:normal;font-weight:normal;font-stretch:normal;font-family:AngryBirds;-inkscape-font-specification:AngryBirds;stroke-width:0.06354109"
         id="path21" />
      <path
         d="m 29.119108,84.405266 1.364258,-6.531901 0.423747,0.129191 0.387573,-0.341064 0.583943,0.718302 0.33073,-0.645955 0.366902,0.222208 0.341065,-0.19637 1.235066,6.68693 -0.232544,-0.160197 -0.387573,0.222209 -0.299723,-0.382406 -0.28422,0.289388 -0.392741,-1.431437 -1.968872,0.160197 -0.377238,1.441772 -0.108521,0.04134 -0.335897,-0.423746 -0.423746,0.335897 z m 1.73116,-2.464966 1.51412,-0.139526 -0.5271,-2.371948 -0.444417,0.031 z"
         style="font-style:normal;font-variant:normal;font-weight:normal;font-stretch:normal;font-family:AngryBirds;-inkscape-font-specification:AngryBirds;stroke-width:0.06354109"
         id="path23" />
      <path
         d="m 34.555467,80.338331 q 0.04134,-0.537435 0.320394,-0.981852 0.284221,-0.444418 0.72347,-0.764812 0.43925,-0.325561 0.976685,-0.532267 0.542602,-0.206706 1.105875,-0.268717 0.108521,-0.0155 0.26355,-0.02067 0.04134,0 0.08268,0.0052 0.211873,0.0052 0.361735,0.0155 l 0.04134,0.134358 -0.687297,0.382406 0.54777,0.26355 -0.232544,0.222208 0.160197,0.299724 q -0.382405,0.03101 -0.754476,0.103353 -0.366902,0.07235 -0.661458,0.201538 -0.289388,0.129191 -0.490926,0.315226 -0.201538,0.180867 -0.242879,0.423747 -0.01033,0.06201 -0.01033,0.124023 0,0.196371 0.139526,0.330729 0.180867,0.180868 0.434082,0.299724 0.129191,0.05168 0.26355,0.09819 0.139526,0.04651 0.273885,0.09302 0.129191,0.04134 0.242879,0.07235 0.118856,0.03101 0.201538,0.05168 0.506429,0.160197 0.79065,0.439249 0.289388,0.279053 0.289388,0.821656 0,0.573608 -0.315227,1.012858 -0.310058,0.439249 -0.976684,0.775146 -0.26355,0.129191 -0.532267,0.217041 -0.268718,0.08785 -0.5271,0.149862 -0.253215,0.06718 -0.480591,0.09818 -0.227376,0.03101 -0.418579,0.05168 l 0.180868,-0.335896 -0.485759,-0.139527 0.211873,-0.315226 -0.180867,-0.191203 q 0.180867,-0.04134 0.397908,-0.08785 0.217041,-0.05168 0.43925,-0.113688 0.201538,-0.06201 0.408244,-0.149861 0.206706,-0.09302 0.37207,-0.217041 0.170532,-0.129192 0.279053,-0.284221 0.113688,-0.155029 0.113688,-0.330729 0,-0.222209 -0.217041,-0.366903 -0.217041,-0.144694 -0.480591,-0.227376 -0.273885,-0.09302 -0.54777,-0.155029 -0.268717,-0.06718 -0.403076,-0.118856 -0.475423,-0.191203 -0.749308,-0.516764 -0.232544,-0.279053 -0.232544,-0.733806 0,-0.07235 0.0052,-0.149861 z"
         style="font-style:normal;font-variant:normal;font-weight:normal;font-stretch:normal;font-family:AngryBirds;-inkscape-font-specification:AngryBirds;stroke-width:0.06354109"
         id="path25" />
    </g>
  </g>
</svg>
