<?xml version="1.0" encoding="UTF-8" standalone="no"?>
<!-- Created with Inkscape (http://www.inkscape.org/) -->

<svg
   xmlns:dc="http://purl.org/dc/elements/1.1/"
   xmlns:cc="http://creativecommons.org/ns#"
   xmlns:rdf="http://www.w3.org/1999/02/22-rdf-syntax-ns#"
   xmlns:svg="http://www.w3.org/2000/svg"
   xmlns="http://www.w3.org/2000/svg"
   xmlns:xlink="http://www.w3.org/1999/xlink"
   xmlns:sodipodi="http://sodipodi.sourceforge.net/DTD/sodipodi-0.dtd"
   xmlns:inkscape="http://www.inkscape.org/namespaces/inkscape"
   width="210mm"
   height="297mm"
   viewBox="0 0 210 297"
   version="1.1"
   id="svg8"
   inkscape:version="0.92.1 r15371"
   sodipodi:docname="btn_ajuda.svg">
  <defs
     id="defs2">
    <inkscape:path-effect
       effect="bspline"
       id="path-effect33"
       is_visible="true"
       weight="33.333333"
       steps="2"
       helper_size="0"
       apply_no_weight="true"
       apply_with_weight="true"
       only_selected="false" />
    <linearGradient
       inkscape:collect="always"
       id="linearGradient26">
      <stop
         style="stop-color:#ffff00;stop-opacity:1;"
         offset="0"
         id="stop22" />
      <stop
         style="stop-color:#a3a35c;stop-opacity:1"
         offset="1"
         id="stop24" />
    </linearGradient>
    <linearGradient
       inkscape:collect="always"
       xlink:href="#linearGradient26"
       id="linearGradient28"
       x1="48.85342"
       y1="85.900291"
       x2="-1.7008941"
       y2="72.198654"
       gradientUnits="userSpaceOnUse"
       gradientTransform="translate(-7.2602112e-5,3.7700306e-5)" />
  </defs>
  <sodipodi:namedview
     id="base"
     pagecolor="#ffffff"
     bordercolor="#666666"
     borderopacity="1.0"
     inkscape:pageopacity="0.0"
     inkscape:pageshadow="2"
     inkscape:zoom="1.4142136"
     inkscape:cx="-42.880136"
     inkscape:cy="869.30068"
     inkscape:document-units="mm"
     inkscape:current-layer="text96"
     showgrid="false"
     inkscape:window-width="1269"
     inkscape:window-height="704"
     inkscape:window-x="0"
     inkscape:window-y="27"
     inkscape:window-maximized="1" />
  <metadata
     id="metadata5">
    <rdf:RDF>
      <cc:Work
         rdf:about="">
        <dc:format>image/svg+xml</dc:format>
        <dc:type
           rdf:resource="http://purl.org/dc/dcmitype/StillImage" />
        <dc:title />
      </cc:Work>
    </rdf:RDF>
  </metadata>
  <g
     inkscape:label="Camada 1"
     inkscape:groupmode="layer"
     id="layer1">
    <g
       aria-label="Você  perdeu! :("
       style="font-style:normal;font-variant:normal;font-weight:normal;font-stretch:normal;font-size:9.60621262px;line-height:1;font-family:'URW Gothic L';-inkscape-font-specification:'URW Gothic L';text-align:center;letter-spacing:0px;word-spacing:0px;text-anchor:middle;fill:#000000;fill-opacity:1;stroke:none;stroke-width:0.24015531"
       id="text96">
      <path
         style="opacity:1;fill:#2a7fff;fill-opacity:1;stroke:#2a7fff;stroke-width:0.50278306;stroke-linejoin:round;stroke-miterlimit:4;stroke-dasharray:none;stroke-dashoffset:0;stroke-opacity:1"
         d="M 8.4877491,60.318001 H 35.263072 c 1.55648,0 2.80953,1.25305 2.80953,2.80953 v 4.682615 c 0,1.556479 -1.25305,2.80953 -2.80953,2.80953 H 8.4877491 c -1.5564795,0 -2.8095298,-1.253051 -2.8095298,-2.80953 v -4.682615 c 0,-1.55648 1.2530503,-2.80953 2.8095298,-2.80953 z"
         id="rect45" />
      <g
         aria-label="Ajuda?"
         style="font-style:normal;font-variant:normal;font-weight:normal;font-stretch:normal;font-size:10.58333302px;line-height:1.25;font-family:'URW Gothic L';-inkscape-font-specification:'URW Gothic L';letter-spacing:0px;word-spacing:0px;fill:#000000;fill-opacity:1;stroke:none;stroke-width:0.06354109"
         id="text43">
        <path
           d="m 6.155375,69.623233 1.6743164,-8.2889 0.2118733,-0.118856 0.4134115,0.470256 0.6872965,-0.594279 0.6976318,0.857829 0.4444175,-0.764812 h 0.06201 l 1.803507,8.257894 -0.191203,0.08268 -0.542602,-0.718302 -0.191203,0.614949 -0.387573,-0.242879 -0.211874,0.211874 -0.403076,-1.240235 -2.4649656,0.02067 -0.3100586,1.405599 -0.2738851,-0.15503 -0.1808675,0.165365 -0.2015381,-0.599447 -0.506429,0.718303 z M 8.0622353,66.899885 10.103454,66.765526 9.3024696,63.375552 8.8787229,63.303205 Z"
           style="font-style:normal;font-variant:normal;font-weight:normal;font-stretch:normal;font-family:AngryBirds;-inkscape-font-specification:AngryBirds;stroke-width:0.06354109"
           id="path16" />
        <path
           d="m 12.330708,69.401024 0.01034,-0.211873 0.496094,-0.129192 -0.392741,-0.54777 0.170532,-0.211873 q 0.242879,0.103353 0.490926,0.191203 0.248047,0.08268 0.428914,0.08268 0.129191,0 0.273885,-0.04651 0.149862,-0.05168 0.279053,-0.144694 0.134359,-0.09302 0.222209,-0.227376 0.09302,-0.134359 0.103353,-0.299723 0.03101,-0.61495 0.03617,-1.260905 0.0052,-0.320394 0.0052,-0.640788 0,-0.325562 -0.0052,-0.640788 -0.0052,-0.63562 -0.02584,-1.235066 -0.02067,-0.604615 -0.03101,-1.136882 l 0.180868,0.07751 0.242879,-0.139527 0.392741,0.444418 0.377238,-0.547771 0.160197,0.01034 q 0.01034,0.273885 0.02584,0.800984 0.0155,0.521932 0.02584,1.204061 0.0052,0.341065 0.0052,0.713135 0,0.366903 -0.0052,0.764811 -0.01033,0.800985 -0.05168,1.617472 -0.02067,0.454753 -0.08785,0.826823 -0.06201,0.366903 -0.237712,0.625285 -0.170532,0.258382 -0.490926,0.403076 -0.315226,0.144694 -0.857829,0.144694 -0.28422,0 -0.506429,-0.02584 -0.222208,-0.02584 -0.418579,-0.08785 -0.19637,-0.05684 -0.392741,-0.144694 -0.191203,-0.08785 -0.423747,-0.227376 z"
           style="font-style:normal;font-variant:normal;font-weight:normal;font-stretch:normal;font-family:AngryBirds;-inkscape-font-specification:AngryBirds;stroke-width:0.06354109"
           id="path18" />
        <path
           d="m 16.532002,66.941226 q 0,-0.594279 0.0052,-1.07487 0.0052,-0.480591 0.03101,-0.930176 0.02584,-0.449585 0.06718,-0.91984 0.04134,-0.470256 0.118856,-1.033529 l 0.346232,0.139527 0.413411,-0.315227 0.392741,0.24288 0.144694,-0.05168 q -0.03101,0.315226 -0.06718,0.826823 -0.03617,0.506429 -0.07235,1.064534 -0.03617,0.552938 -0.05168,1.080038 -0.0052,0.227376 -0.01033,0.418579 0,0.258382 0.0155,0.45992 0.05168,0.997355 0.537435,1.266073 0.160197,0.08785 0.366902,0.08785 0.413412,0 0.997356,-0.356568 0.06201,-0.149861 0.09819,-0.428914 0.04134,-0.28422 0.06201,-0.63562 0.02067,-0.356568 0.03101,-0.759644 0.01034,-0.403076 0.01034,-0.81132 0.01033,-0.687296 0.0155,-1.35909 0.0052,-0.676961 0.02584,-1.131714 l 0.289388,-0.07235 0.356567,0.718303 0.465088,-0.676961 0.248047,-0.01034 q -0.01033,0.434082 -0.02584,1.198893 -0.01034,0.759644 -0.02067,1.68982 -0.01033,0.930175 -0.01033,1.932698 0,0.997355 0.02067,1.891358 l -0.263549,-0.08785 -0.356568,0.310058 -0.392741,-0.258382 -0.310058,0.149862 q -0.01034,-0.05168 -0.03617,-0.139527 -0.02584,-0.09302 -0.09819,-0.28422 -0.315226,0.139526 -0.697632,0.242879 -0.382405,0.09819 -0.749308,0.134359 -0.19637,0.02067 -0.377238,0.02067 -0.155029,0 -0.299723,-0.0155 -0.310059,-0.03101 -0.480591,-0.160197 -0.26355,-0.191203 -0.413412,-0.5271 -0.149861,-0.341064 -0.222208,-0.697632 -0.07235,-0.361735 -0.08785,-0.671793 -0.0155,-0.315227 -0.0155,-0.465088 z"
           style="font-style:normal;font-variant:normal;font-weight:normal;font-stretch:normal;font-family:AngryBirds;-inkscape-font-specification:AngryBirds;stroke-width:0.06354109"
           id="path20" />
        <path
           d="m 21.989033,63.535749 0.253215,-0.273885 q -0.01034,-0.02067 -0.03617,-0.103353 -0.02067,-0.08785 -0.07235,-0.206706 0.294556,-0.08268 0.718303,-0.155029 0.423746,-0.07751 0.894002,-0.08785 0.05684,0 0.113688,0 0.408244,0 0.826823,0.06718 0.475423,0.07235 0.878499,0.294556 0.444418,0.242879 0.72347,0.666626 0.279053,0.423747 0.418579,0.935343 0.134359,0.496094 0.134359,1.043864 0,0.589112 -0.139526,1.147217 -0.134359,0.532267 -0.387574,0.992188 -0.253214,0.454752 -0.614949,0.738973 -0.61495,0.496093 -1.33842,0.785481 -0.72347,0.284221 -1.452107,0.356568 l -0.07752,-0.61495 -0.656291,0.08785 0.04651,-4.904093 -0.129191,-0.08268 0.320394,-0.325562 z m 1.42627,0.728638 q 0,0.89917 0.01033,1.705322 0,0.341064 0.01034,0.692464 0.01034,0.346232 0.02067,0.666626 0.01033,0.315226 0.02584,0.568441 0.0155,0.253214 0.04134,0.413411 0.3514,-0.103353 0.656291,-0.258382 0.304891,-0.155029 0.558105,-0.377238 0.253215,-0.222209 0.434082,-0.516764 0.180868,-0.299724 0.26355,-0.692464 0.07235,-0.382406 0.09302,-0.728638 0.0052,-0.05684 0,-0.113688 0,-0.284221 -0.06718,-0.532267 -0.07751,-0.294556 -0.279052,-0.521932 -0.201538,-0.227377 -0.547771,-0.356568 -0.134358,-0.04651 -0.320393,-0.04651 -0.02067,0 -0.03617,0 -0.206706,0.0052 -0.397908,0.02584 -0.222209,0.03101 -0.465088,0.07235 z"
           style="font-style:normal;font-variant:normal;font-weight:normal;font-stretch:normal;font-family:AngryBirds;-inkscape-font-specification:AngryBirds;stroke-width:0.06354109"
           id="path22" />
        <path
           d="m 27.285868,69.43203 1.364257,-6.531901 0.423747,0.129191 0.387573,-0.341064 0.583944,0.718302 0.330729,-0.645955 0.366903,0.222208 0.341064,-0.19637 1.235067,6.68693 -0.232544,-0.160197 -0.387573,0.222209 -0.299724,-0.382406 -0.28422,0.289388 -0.392741,-1.431437 -1.968872,0.160197 -0.377238,1.441772 -0.10852,0.04134 -0.335897,-0.423746 -0.423747,0.335896 z m 1.73116,-2.464966 1.514119,-0.139526 -0.527099,-2.371949 -0.444418,0.03101 z"
           style="font-style:normal;font-variant:normal;font-weight:normal;font-stretch:normal;font-family:AngryBirds;-inkscape-font-specification:AngryBirds;stroke-width:0.06354109"
           id="path24" />
        <path
           d="m 33.063293,61.747744 0.253215,-0.222208 q -0.02067,-0.03101 -0.05168,-0.07235 -0.02067,-0.03101 -0.06201,-0.06718 -0.03617,-0.04134 -0.05684,-0.08268 0.614949,-0.180867 1.224731,-0.232544 0.609782,-0.05168 1.255737,0.03101 0.516765,0.06201 0.919841,0.330729 0.403076,0.26355 0.65629,0.645956 0.253215,0.377238 0.346232,0.83199 0.09819,0.454753 -0.01033,0.909505 -0.08268,0.341065 -0.310058,0.609782 -0.227377,0.268718 -0.563274,0.496094 -0.330729,0.227376 -0.749308,0.418579 -0.418579,0.191203 -0.883667,0.361735 -0.06201,0.180868 -0.10852,0.3514 -0.04134,0.165364 -0.07235,0.325561 -0.03101,0.149862 -0.04134,0.279053 -0.01034,0.124023 -0.03101,0.206706 l -0.160197,0.139526 -0.444417,-0.403076 -0.170533,0.537435 -0.134358,-0.02067 q -0.02067,-0.129191 -0.05684,-0.341064 -0.03101,-0.217041 -0.06201,-0.465088 -0.03101,-0.253215 -0.05684,-0.516764 -0.02584,-0.26355 -0.02584,-0.496094 0.191202,-0.103353 0.454752,-0.232544 0.26355,-0.129191 0.537435,-0.273885 0.37207,-0.211873 0.656291,-0.454753 0.28422,-0.242879 0.361735,-0.490926 0.09302,-0.304891 0.03101,-0.563273 -0.06201,-0.258382 -0.222209,-0.449585 -0.160197,-0.191203 -0.397909,-0.310058 -0.237711,-0.124024 -0.490926,-0.144694 -0.304891,-0.02067 -0.676961,-0.02067 -0.37207,0 -0.775146,0.07235 l 0.413411,-0.434082 z m 0.434082,7.875489 q -0.10852,-0.07752 -0.149861,-0.186036 -0.04134,-0.113688 0,-0.242879 0.04134,-0.134359 0.170532,-0.273885 0.129191,-0.144694 0.361735,-0.28422 0.07235,-0.04134 0.217041,-0.06718 0.149862,-0.02584 0.315226,-0.03617 0.165365,-0.01033 0.299723,0 0.139527,0.01033 0.180868,0.04134 0.05168,0.03101 0.103353,0.139526 0.05684,0.103353 0.06201,0.237712 0.0052,0.129191 -0.06201,0.273885 -0.06201,0.139526 -0.248047,0.268717 -0.118856,0.08268 -0.315226,0.118856 -0.196371,0.04134 -0.387574,0.05684 -0.186035,0.0155 -0.346232,0 -0.160197,-0.0155 -0.201538,-0.04651 z"
           style="font-style:normal;font-variant:normal;font-weight:normal;font-stretch:normal;font-family:AngryBirds;-inkscape-font-specification:AngryBirds;stroke-width:0.06354109"
           id="path26" />
      </g>
    </g>
  </g>
</svg>
