<?xml version="1.0" encoding="UTF-8" standalone="no"?>
<!-- Created with Inkscape (http://www.inkscape.org/) -->

<svg
   xmlns:dc="http://purl.org/dc/elements/1.1/"
   xmlns:cc="http://creativecommons.org/ns#"
   xmlns:rdf="http://www.w3.org/1999/02/22-rdf-syntax-ns#"
   xmlns:svg="http://www.w3.org/2000/svg"
   xmlns="http://www.w3.org/2000/svg"
   xmlns:xlink="http://www.w3.org/1999/xlink"
   xmlns:sodipodi="http://sodipodi.sourceforge.net/DTD/sodipodi-0.dtd"
   xmlns:inkscape="http://www.inkscape.org/namespaces/inkscape"
   width="210mm"
   height="297mm"
   viewBox="0 0 210 297"
   version="1.1"
   id="svg8"
   inkscape:version="0.92.1 r15371"
   sodipodi:docname="btn_opcoes.svg">
  <defs
     id="defs2">
    <inkscape:path-effect
       effect="bspline"
       id="path-effect33"
       is_visible="true"
       weight="33.333333"
       steps="2"
       helper_size="0"
       apply_no_weight="true"
       apply_with_weight="true"
       only_selected="false" />
    <linearGradient
       inkscape:collect="always"
       id="linearGradient26">
      <stop
         style="stop-color:#ffff00;stop-opacity:1;"
         offset="0"
         id="stop22" />
      <stop
         style="stop-color:#a3a35c;stop-opacity:1"
         offset="1"
         id="stop24" />
    </linearGradient>
    <linearGradient
       inkscape:collect="always"
       xlink:href="#linearGradient26"
       id="linearGradient28"
       x1="48.85342"
       y1="85.900291"
       x2="-1.7008941"
       y2="72.198654"
       gradientUnits="userSpaceOnUse"
       gradientTransform="translate(-7.2602112e-5,3.7700306e-5)" />
  </defs>
  <sodipodi:namedview
     id="base"
     pagecolor="#ffffff"
     bordercolor="#666666"
     borderopacity="1.0"
     inkscape:pageopacity="0.0"
     inkscape:pageshadow="2"
     inkscape:zoom="0.35355339"
     inkscape:cx="-1245.575"
     inkscape:cy="619.58882"
     inkscape:document-units="mm"
     inkscape:current-layer="layer1"
     showgrid="false"
     inkscape:window-width="1269"
     inkscape:window-height="704"
     inkscape:window-x="0"
     inkscape:window-y="27"
     inkscape:window-maximized="1" />
  <metadata
     id="metadata5">
    <rdf:RDF>
      <cc:Work
         rdf:about="">
        <dc:format>image/svg+xml</dc:format>
        <dc:type
           rdf:resource="http://purl.org/dc/dcmitype/StillImage" />
        <dc:title />
      </cc:Work>
    </rdf:RDF>
  </metadata>
  <g
     inkscape:label="Camada 1"
     inkscape:groupmode="layer"
     id="layer1">
    <path
       style="opacity:1;fill:#ffff00;fill-opacity:1;stroke:none;stroke-width:0.4344877;stroke-linejoin:round;stroke-miterlimit:4;stroke-dasharray:none;stroke-dashoffset:0;stroke-opacity:1"
       d="M 7.8429322,75.042961 H 37.476262 V 86.098765 H 7.8429322 Z"
       id="rect20" />
    <g
       aria-label="Opções"
       style="font-style:normal;font-variant:normal;font-weight:normal;font-stretch:normal;font-size:9.60621262px;line-height:1.25;font-family:'URW Gothic L';-inkscape-font-specification:'URW Gothic L';letter-spacing:0px;word-spacing:0px;fill:#000000;fill-opacity:1;stroke:none;stroke-width:0.24015531"
       id="text96">
      <path
         d="m 9.388905,80.091279 q 0.00938,-0.450291 0.046905,-0.834915 0.042215,-0.384624 0.098501,-0.61446 0.1360254,-0.61446 0.361171,-1.036608 0.2251454,-0.422148 0.5206494,-0.694199 0.300194,-0.276741 0.670746,-0.408076 0.370552,-0.136026 0.7927,-0.182931 0.05629,-0.0047 0.131335,-0.0094 0.03753,0 0.07974,0.0047 0.126645,0.0047 0.229836,0.01407 l 0.107883,0.680127 0.572245,-0.229836 0.145406,0.661365 0.605079,-0.154787 q 0.192312,0.248598 0.318956,0.515958 0.131335,0.26267 0.17355,0.600389 0.08443,0.741104 0.0985,1.482208 0,0.107883 0.0047,0.211074 0,0.628532 -0.07505,1.196086 -0.08443,0.661366 -0.295503,1.200777 -0.206384,0.539411 -0.558174,0.867749 -0.365861,0.337718 -0.848986,0.473744 -0.43622,0.126644 -0.858368,0.126644 -0.04221,0 -0.08443,0 -0.464363,-0.01407 -0.863059,-0.145407 Q 10.369227,83.684227 10.186296,83.491916 9.9376974,83.243317 9.7782193,82.849312 9.6234317,82.455308 9.529621,81.995635 9.4405009,81.535963 9.4076672,81.038767 9.3842145,80.668214 9.388905,80.321115 q -0.00469,-0.117263 0,-0.229836 z m 1.341493,0.08912 q 0,0.07974 0,0.159478 0,0.506578 0.07505,1.003774 0.08912,0.576936 0.342409,0.96156 0.07505,0.117263 0.26267,0.197002 0.187621,0.07974 0.408076,0.08912 0.01876,0 0.03753,0 0.197002,0 0.384623,-0.07974 0.206384,-0.08912 0.328338,-0.323647 0.248598,-0.469053 0.342409,-1.022536 0.07974,-0.478434 0.07974,-0.933416 0,-0.07036 -0.0047,-0.145407 -0.01407,-0.52534 -0.107882,-0.97094 -0.08912,-0.445601 -0.201693,-0.70358 -0.145407,-0.328338 -0.375243,-0.44091 -0.18293,-0.09381 -0.379933,-0.09381 -0.0469,0 -0.09381,0.0047 -0.243907,0.02814 -0.464362,0.173549 -0.215765,0.145407 -0.309576,0.328338 -0.126644,0.220455 -0.220455,0.717651 -0.08912,0.492506 -0.103191,1.078823 z"
         style="font-style:normal;font-variant:normal;font-weight:normal;font-stretch:normal;font-family:AngryBirds;-inkscape-font-specification:AngryBirds;stroke-width:0.24015531"
         id="path15" />
      <path
         d="m 14.820543,78.107183 0.05629,-0.234527 q 0.394005,-0.145406 0.900583,-0.253288 0.511268,-0.107883 1.017846,-0.140716 0.131335,-0.0094 0.257979,-0.0047 0.361171,0 0.684818,0.06098 0.436219,0.07974 0.675437,0.309575 0.384623,0.375243 0.520649,0.858368 0.09381,0.328337 0.08912,0.656675 0,0.154787 -0.01876,0.309575 -0.06098,0.487815 -0.295504,0.952178 -0.229836,0.459672 -0.581626,0.797391 -0.117263,0.107882 -0.300194,0.225145 -0.182931,0.112573 -0.408076,0.220455 -0.225146,0.103192 -0.492506,0.197003 -0.26267,0.08912 -0.530031,0.145406 l -0.0094,1.66983 -0.17355,0.06098 -0.192311,-0.539411 -0.384624,0.520649 -0.248598,-0.290813 -0.192312,0.117263 -0.04691,-4.803106 -0.211074,-0.164169 0.576936,-0.595697 z m 1.458756,0.708271 0.0516,2.256146 q 0.239217,-0.08443 0.44091,-0.182931 0.17355,-0.07505 0.333028,-0.154787 0.164168,-0.08443 0.243908,-0.150097 0.201692,-0.182931 0.342408,-0.431529 0.145407,-0.248599 0.187622,-0.506578 0.01407,-0.09381 0.01876,-0.17824 0,-0.159478 -0.0516,-0.304885 -0.07505,-0.229836 -0.323647,-0.384624 -0.117263,-0.07036 -0.309575,-0.07505 -0.01407,0 -0.02345,0.0047 -0.206383,0.0047 -0.408076,0.02345 -0.243908,0.03752 -0.501887,0.08443 z"
         style="font-style:normal;font-variant:normal;font-weight:normal;font-stretch:normal;font-family:AngryBirds;-inkscape-font-specification:AngryBirds;stroke-width:0.24015531"
         id="path17" />
      <path
         d="m 19.656483,80.766716 q 0,-0.182931 0.03283,-0.459673 0.03283,-0.281432 0.0985,-0.595697 0.07036,-0.318957 0.182931,-0.637913 0.117263,-0.323647 0.276741,-0.605079 0.164169,-0.286122 0.384624,-0.501887 0.225146,-0.215764 0.501887,-0.304885 0.469054,-0.145406 0.919345,-0.173549 0.454981,-0.02814 0.942797,0.07974 0.01876,0.02814 0.02814,0.07036 0.01407,0.04221 0.03283,0.07505 l -0.666056,0.220455 0.473744,0.267361 -0.211074,0.220455 0.08443,0.239217 q -0.126645,0.0094 -0.281432,0.02814 -0.150097,0.01407 -0.304885,0.04221 -0.154788,0.02814 -0.295504,0.06567 -0.136025,0.03752 -0.243907,0.09381 -0.192312,0.09381 -0.318957,0.3471 -0.121954,0.248598 -0.201693,0.553483 -0.07505,0.300194 -0.107882,0.595697 -0.03283,0.290813 -0.03283,0.473744 0,0.164169 0.02345,0.389315 0.02345,0.225145 0.07974,0.464362 0.06098,0.234527 0.159478,0.450292 0.103192,0.215764 0.267361,0.35179 0.08443,0.07505 0.248598,0.117263 0.164169,0.04221 0.365862,0.07036 0.201692,0.02345 0.417457,0.03283 0.215765,0.0094 0.408076,0.0094 -0.01876,0.01876 -0.03752,0.0469 -0.01876,0.02814 -0.0469,0.07505 l 0.201693,0.220455 -0.483125,0.272051 0.53003,0.192312 q -0.01876,0.07505 -0.03752,0.112572 -0.164169,0.03753 -0.333028,0.07505 -0.168859,0.03283 -0.370552,0.06098 0.06567,0.605079 -0.09381,0.947488 -0.154787,0.347099 -0.567554,0.511268 -0.459673,0.182931 -0.816153,0.187621 -0.356481,0.0047 -0.78801,-0.126644 l -0.02814,-0.164169 0.394005,-0.192312 -0.43622,-0.365862 0.0985,-0.201692 q 0.211074,0.03752 0.417458,0.06567 0.206383,0.02814 0.35179,-0.0094 0.192312,-0.0469 0.323647,-0.206384 0.136025,-0.159478 0.136025,-0.408076 -0.328337,-0.03752 -0.548792,-0.121954 -0.365862,-0.145406 -0.586317,-0.487815 -0.220455,-0.342409 -0.347099,-0.759867 -0.121954,-0.417457 -0.159479,-0.872439 -0.03752,-0.454982 -0.03752,-0.830224 z"
         style="font-style:normal;font-variant:normal;font-weight:normal;font-stretch:normal;font-family:AngryBirds;-inkscape-font-specification:AngryBirds;stroke-width:0.24015531"
         id="path19" />
      <path
         d="m 23.906107,82.64762 q -0.131335,-0.450292 -0.17824,-0.989703 -0.04221,-0.544102 0.0094,-1.092894 0.09381,-0.980322 0.272051,-1.538495 0.17824,-0.558174 0.525339,-0.853677 0.126645,-0.107883 0.318957,-0.215765 0.197002,-0.112573 0.436219,-0.192312 0.243908,-0.08443 0.520649,-0.117263 0.276742,-0.03283 0.558174,0.0047 l -0.01876,0.558174 0.469053,-0.286123 0.201693,0.295504 0.318956,-0.126644 q 0.356481,0.365861 0.544102,1.050679 0.192312,0.680127 0.192312,1.66983 0,0.328337 -0.03752,0.717652 -0.03752,0.389314 -0.136026,0.764557 -0.09381,0.370552 -0.253288,0.684817 -0.159479,0.309576 -0.398696,0.483125 -0.337718,0.239218 -0.680127,0.365862 -0.337719,0.126644 -0.666056,0.159478 -0.323647,0.03283 -0.61446,-0.0047 -0.286122,-0.03752 -0.515958,-0.126645 -0.295504,-0.107882 -0.515959,-0.431529 -0.215765,-0.328337 -0.35179,-0.778628 z m 0.02345,-6.032027 q 0.04691,-0.07505 0.07974,-0.140716 0.03283,-0.07036 0.08443,-0.126644 0.145407,-0.239217 0.304885,-0.408076 0.164169,-0.16886 0.469053,-0.215765 0.309575,-0.05629 0.497197,-0.0094 0.187621,0.0469 0.35179,0.150097 0.08443,0.05629 0.164168,0.117263 0.08443,0.05629 0.178241,0.126645 0.09381,0.05629 0.201693,0.112573 0.107882,0.05629 0.243907,0.107882 0.126645,0.03752 0.239218,0.01407 0.112572,-0.02345 0.206383,-0.08912 0.0985,-0.07036 0.17355,-0.154787 0.07974,-0.08912 0.145406,-0.17355 0.07505,-0.09381 0.145407,-0.220455 0.02814,0 0.05629,0.0047 0.03283,0.0047 0.06098,0.0047 l -0.02814,0.239217 h 0.229836 l -0.01876,0.220455 0.131335,0.06567 q -0.107882,0.220455 -0.26267,0.4456 -0.150097,0.220456 -0.26267,0.323647 -0.229836,0.220455 -0.53003,0.272051 -0.295504,0.04691 -0.576936,-0.04221 -0.0469,-0.01876 -0.117263,-0.04691 -0.06567,-0.02814 -0.140716,-0.07505 -0.07505,-0.04691 -0.159478,-0.107883 -0.07974,-0.06567 -0.159478,-0.117263 -0.17355,-0.117263 -0.35179,-0.215765 -0.17355,-0.0985 -0.3471,-0.117263 -0.07505,0 -0.187621,0.107882 -0.112573,0.103192 -0.215765,0.225146 -0.04691,0.05629 -0.09381,0.112573 -0.04221,0.0516 -0.07974,0.103191 l -0.03752,0.05629 -0.08912,-0.01876 0.0985,-0.229836 h -0.300194 l 0.06098,-0.17355 -0.07974,-0.06098 q -0.03752,-0.02814 -0.08443,-0.06567 z m 1.14449,3.15673 q -0.154788,0.473743 -0.197003,1.003774 -0.03752,0.53003 0.03283,1.031917 0.07505,0.497197 0.26736,0.7927 0.09381,0.154788 0.276742,0.234527 0.182931,0.07505 0.389314,0.07505 0.206384,0 0.394005,-0.07036 0.187621,-0.07505 0.286123,-0.229836 0.09381,-0.154787 0.18293,-0.4456 0.09381,-0.295504 0.145407,-0.647294 0.05629,-0.356481 0.06567,-0.741104 0.0094,-0.384624 -0.05629,-0.736414 -0.06098,-0.35179 -0.206384,-0.628532 -0.140716,-0.276741 -0.384623,-0.422148 -0.164169,-0.09381 -0.384624,-0.08912 -0.220455,0.0047 -0.379933,0.145407 -0.276742,0.248598 -0.431529,0.727033 z"
         style="font-style:normal;font-variant:normal;font-weight:normal;font-stretch:normal;font-family:AngryBirds;-inkscape-font-specification:AngryBirds;stroke-width:0.24015531"
         id="path21" />
      <path
         d="m 28.643545,78.308876 0.131335,-0.309575 -0.06567,-0.126645 2.748652,-0.18293 0.08443,0.375242 -0.595698,0.412767 0.567555,0.17355 -0.07505,0.211074 -1.402469,0.126644 -0.03283,1.477518 1.402469,-0.0469 -0.159478,0.501887 0.276742,0.112573 -0.04691,0.257979 -1.454065,0.145407 0.06098,1.566638 1.449375,-0.05629 -0.09381,0.497196 0.257979,0.117264 -0.107882,0.365861 -2.265528,0.131335 0.03753,-0.487815 -0.586317,0.03752 0.06098,-4.493531 -0.117263,-0.192312 0.412767,-0.356481 z"
         style="font-style:normal;font-variant:normal;font-weight:normal;font-stretch:normal;font-family:AngryBirds;-inkscape-font-specification:AngryBirds;stroke-width:0.24015531"
         id="path23" />
      <path
         d="m 32.175517,80.053755 q 0.03753,-0.487816 0.290813,-0.891202 0.25798,-0.403386 0.656675,-0.694199 0.398695,-0.295503 0.886511,-0.483125 0.492506,-0.187621 1.003774,-0.243908 0.0985,-0.01407 0.239217,-0.01876 0.03752,0 0.07505,0.0047 0.192312,0.0047 0.328337,0.01407 l 0.03752,0.121954 -0.623841,0.3471 0.497197,0.239217 -0.211074,0.201693 0.145407,0.272051 q -0.3471,0.02814 -0.684818,0.09381 -0.333028,0.06567 -0.600389,0.18293 -0.262669,0.117264 -0.4456,0.286123 -0.182931,0.164169 -0.220455,0.384624 -0.0094,0.05629 -0.0094,0.112573 0,0.17824 0.126644,0.300194 0.164169,0.164168 0.394005,0.272051 0.117263,0.0469 0.239217,0.08912 0.126644,0.04221 0.248598,0.08443 0.117264,0.03753 0.220455,0.06567 0.107883,0.02814 0.182931,0.0469 0.459672,0.145407 0.717652,0.398695 0.26267,0.253289 0.26267,0.745795 0,0.52065 -0.286123,0.919345 -0.281432,0.398695 -0.886511,0.70358 -0.239217,0.117263 -0.483125,0.197002 -0.243907,0.07974 -0.478434,0.136026 -0.229836,0.06098 -0.43622,0.08912 -0.206383,0.02814 -0.379933,0.0469 l 0.164169,-0.304884 -0.44091,-0.126645 0.192311,-0.286122 -0.164168,-0.17355 q 0.164168,-0.03752 0.361171,-0.07974 0.197002,-0.04691 0.398695,-0.103192 0.182931,-0.05629 0.370552,-0.136025 0.187622,-0.08443 0.337719,-0.197003 0.154787,-0.117263 0.253289,-0.257979 0.103191,-0.140716 0.103191,-0.300194 0,-0.201693 -0.197002,-0.333028 -0.197002,-0.131335 -0.43622,-0.206384 -0.248598,-0.08443 -0.497196,-0.140716 -0.243908,-0.06098 -0.365862,-0.107882 -0.431529,-0.17355 -0.680127,-0.469053 -0.211074,-0.253289 -0.211074,-0.666056 0,-0.06567 0.0047,-0.136025 z"
         style="font-style:normal;font-variant:normal;font-weight:normal;font-stretch:normal;font-family:AngryBirds;-inkscape-font-specification:AngryBirds;stroke-width:0.24015531"
         id="path25" />
    </g>
  </g>
</svg>
