<?xml version="1.0" encoding="UTF-8" standalone="no"?>
<!-- Created with Inkscape (http://www.inkscape.org/) -->

<svg
   xmlns:dc="http://purl.org/dc/elements/1.1/"
   xmlns:cc="http://creativecommons.org/ns#"
   xmlns:rdf="http://www.w3.org/1999/02/22-rdf-syntax-ns#"
   xmlns:svg="http://www.w3.org/2000/svg"
   xmlns="http://www.w3.org/2000/svg"
   xmlns:sodipodi="http://sodipodi.sourceforge.net/DTD/sodipodi-0.dtd"
   xmlns:inkscape="http://www.inkscape.org/namespaces/inkscape"
   width="210mm"
   height="297mm"
   viewBox="0 0 210 297"
   version="1.1"
   id="svg31"
   inkscape:version="0.92.1 r15371"
   sodipodi:docname="btn_zerar_tempo.svg">
  <defs
     id="defs25" />
  <sodipodi:namedview
     id="base"
     pagecolor="#ffffff"
     bordercolor="#666666"
     borderopacity="1.0"
     inkscape:pageopacity="0.0"
     inkscape:pageshadow="2"
     inkscape:zoom="1.979899"
     inkscape:cx="201.07341"
     inkscape:cy="1004.9638"
     inkscape:document-units="mm"
     inkscape:current-layer="layer1"
     showgrid="false"
     inkscape:window-width="1269"
     inkscape:window-height="704"
     inkscape:window-x="0"
     inkscape:window-y="27"
     inkscape:window-maximized="1" />
  <metadata
     id="metadata28">
    <rdf:RDF>
      <cc:Work
         rdf:about="">
        <dc:format>image/svg+xml</dc:format>
        <dc:type
           rdf:resource="http://purl.org/dc/dcmitype/StillImage" />
        <dc:title />
      </cc:Work>
    </rdf:RDF>
  </metadata>
  <g
     inkscape:label="Camada 1"
     inkscape:groupmode="layer"
     id="layer1">
    <path
       style="opacity:1;fill:#008000;fill-opacity:1;stroke:none;stroke-width:0.4678041;stroke-linecap:round;stroke-linejoin:round;stroke-miterlimit:4;stroke-dasharray:none;stroke-dashoffset:0;stroke-opacity:1"
       d="M 6.5208335,5.263536 H 34.279572 c 2.295044,0 4.142678,1.8476343 4.142678,4.1426778 V 23.443723 c 0,2.295043 -1.847634,4.142678 -4.142678,4.142678 H 6.5208335 c -2.2950435,0 -4.1426778,-1.847635 -4.1426778,-4.142678 V 9.4062138 c 0,-2.2950435 1.8476343,-4.1426778 4.1426778,-4.1426778 z"
       id="rect15" />
    <g
       aria-label="zerar 
tempo"
       style="font-style:normal;font-variant:normal;font-weight:normal;font-stretch:normal;font-size:13.72970486px;line-height:0.75;font-family:'URW Gothic L';-inkscape-font-specification:'URW Gothic L';letter-spacing:0px;word-spacing:0px;fill:#ffffff;fill-opacity:1;stroke:none;stroke-width:0.34324262"
       id="text19">
      <path
         d="M 4.1632171,7.9195527 4.7129416,7.4167559 4.176625,7.0547422 4.2436646,6.8670314 8.8425794,6.6458008 8.9699546,6.9742947 8.5811251,7.3564203 8.9967704,7.7452498 6.4291547,13.966522 l 2.4402406,0.06704 0.013408,0.274862 -0.6703958,0.589948 0.5899483,0.187711 -0.2480464,0.221231 0.067039,0.194415 -3.7341043,0.160895 0.013408,-0.516205 -0.6703957,-0.140783 2.5810236,-6.7508854 -2.5542078,0.053632 z"
         style="font-style:normal;font-variant:normal;font-weight:normal;font-stretch:normal;line-height:0.75;font-family:AngryBirds;-inkscape-font-specification:AngryBirds;fill:#ffffff;stroke-width:0.34324262"
         id="path23" />
      <path
         d="M 9.7543177,7.6782103 9.9420285,7.2357491 9.8481731,7.0547422 13.776692,6.7932879 l 0.120671,0.5363166 -0.851402,0.5899482 0.811179,0.2480464 -0.107264,0.3016781 -2.004483,0.1810069 -0.04693,2.1117469 2.004484,-0.06704 -0.227935,0.717324 0.395534,0.160895 -0.06704,0.368717 -2.078227,0.207823 0.08715,2.239122 2.071522,-0.08045 -0.134079,0.71062 0.368718,0.167599 -0.154191,0.522908 -3.238012,0.187711 0.05363,-0.697211 -0.8379945,0.05363 L 10.02918,8.8312909 9.861581,8.5564287 10.451529,8.0469279 Z"
         style="font-style:normal;font-variant:normal;font-weight:normal;font-stretch:normal;line-height:0.75;font-family:AngryBirds;-inkscape-font-specification:AngryBirds;fill:#ffffff;stroke-width:0.34324262"
         id="path25" />
      <path
         d="m 14.815805,7.3698282 0.04693,-0.2547504 q 0.757547,-0.2480464 1.515094,-0.3754216 0.764252,-0.1340791 1.474871,-0.1407831 0.04022,0 0.07374,0 0.670395,0 1.25364,0.1139673 0.61006,0.1206712 1.059225,0.4156453 0.408941,0.2614544 0.650284,0.6569879 0.248046,0.3955335 0.294974,0.8916263 0.01341,0.1206712 0.01341,0.2547504 0,0.3821256 -0.113967,0.8111788 -0.147488,0.5698369 -0.509501,1.1597849 -0.06704,0.120671 -0.207823,0.301678 -0.140783,0.181007 -0.308382,0.388829 -0.160895,0.201119 -0.35531,0.402238 -0.187711,0.194415 -0.368717,0.348606 0.167599,0.395533 0.355309,0.837994 0.194415,0.435758 0.375422,0.844699 0.187711,0.402237 0.35531,0.744139 0.167599,0.335198 0.261454,0.522909 l -0.09386,0.100559 -0.797771,-0.442461 -0.04022,0.683804 -0.274862,-0.120671 -0.248047,0.167598 -1.662581,-2.567615 -0.864811,0.341902 -0.06704,2.058115 -0.221231,-0.02682 -0.455869,-0.717324 -0.35531,0.925146 -0.248046,-0.100559 q -0.01341,-0.408941 -0.04693,-1.173193 -0.03352,-0.764251 -0.06034,-1.662581 -0.02682,-0.89833 -0.02682,-1.823476 0,-0.925147 0.05363,-1.6826937 l 0.04022,-0.5363166 -0.435757,-0.315086 0.724027,-0.6569879 z m 1.977668,4.3173488 q 0.496093,-0.194415 1.019001,-0.522909 0.522909,-0.328494 0.905035,-0.717323 0.382125,-0.395534 0.556428,-0.8178831 0.08045,-0.1877108 0.08045,-0.3754216 0,-0.2212306 -0.113967,-0.4357573 -0.120671,-0.2212306 -0.516205,-0.2815662 -0.321789,-0.053632 -0.663691,-0.053632 -0.07374,0 -0.154191,0 -0.496093,0.026816 -1.086041,0.1273752 z"
         style="font-style:normal;font-variant:normal;font-weight:normal;font-stretch:normal;line-height:0.75;font-family:AngryBirds;-inkscape-font-specification:AngryBirds;fill:#ffffff;stroke-width:0.34324262"
         id="path27" />
      <path
         d="m 21.61362,15.448097 1.769844,-8.4738023 0.549725,0.167599 0.502797,-0.4424612 0.757547,0.9318501 0.429053,-0.8379947 0.475981,0.2882701 0.442461,-0.2547503 1.602246,8.6749213 -0.301678,-0.207823 -0.502797,0.28827 -0.388829,-0.496093 -0.368718,0.375422 -0.509501,-1.856996 -2.554208,0.207822 -0.489388,1.870404 -0.140784,0.05363 -0.435757,-0.549724 -0.549724,0.435757 z m 2.245825,-3.197788 1.96426,-0.181007 -0.683804,-3.0771161 -0.57654,0.040224 z"
         style="font-style:normal;font-variant:normal;font-weight:normal;font-stretch:normal;line-height:0.75;font-family:AngryBirds;-inkscape-font-specification:AngryBirds;fill:#ffffff;stroke-width:0.34324262"
         id="path29" />
      <path
         d="m 28.67959,7.3698282 0.04693,-0.2547504 q 0.757547,-0.2480464 1.515094,-0.3754216 0.764251,-0.1340791 1.474871,-0.1407831 0.04022,0 0.07374,0 0.670396,0 1.25364,0.1139673 0.610061,0.1206712 1.059226,0.4156453 0.408941,0.2614544 0.650284,0.6569879 0.248046,0.3955335 0.294974,0.8916263 0.01341,0.1206712 0.01341,0.2547504 0,0.3821256 -0.113968,0.8111788 -0.147487,0.5698369 -0.5095,1.1597849 -0.06704,0.120671 -0.207823,0.301678 -0.140783,0.181007 -0.308382,0.388829 -0.160895,0.201119 -0.35531,0.402238 -0.187711,0.194415 -0.368718,0.348606 0.167599,0.395533 0.35531,0.837994 0.194415,0.435758 0.375422,0.844699 0.187711,0.402237 0.35531,0.744139 0.167598,0.335198 0.261454,0.522909 l -0.09386,0.100559 -0.79777,-0.442461 -0.04022,0.683804 -0.274862,-0.120671 -0.248047,0.167598 -1.662581,-2.567615 -0.864811,0.341902 -0.06704,2.058115 -0.221231,-0.02682 -0.455869,-0.717324 -0.35531,0.925146 -0.248046,-0.100559 q -0.01341,-0.408941 -0.04693,-1.173193 -0.03352,-0.764251 -0.06034,-1.662581 -0.02681,-0.89833 -0.02681,-1.823476 0,-0.925147 0.05363,-1.6826937 l 0.04022,-0.5363166 -0.435757,-0.315086 0.724027,-0.6569879 z m 1.977668,4.3173488 q 0.496092,-0.194415 1.019001,-0.522909 0.522909,-0.328494 0.905034,-0.717323 0.382126,-0.395534 0.556429,-0.8178831 0.08045,-0.1877108 0.08045,-0.3754216 0,-0.2212306 -0.113967,-0.4357573 -0.120671,-0.2212306 -0.516205,-0.2815662 -0.32179,-0.053632 -0.663692,-0.053632 -0.07374,0 -0.154191,0 -0.496092,0.026816 -1.086041,0.1273752 z"
         style="font-style:normal;font-variant:normal;font-weight:normal;font-stretch:normal;line-height:0.75;font-family:AngryBirds;-inkscape-font-specification:AngryBirds;fill:#ffffff;stroke-width:0.34324262"
         id="path31" />
      <path
         d="m 3.9419865,17.998493 0.06704,-0.241343 5.4235016,-0.388829 -0.2212306,0.341902 0.3888295,0.402237 -0.6636918,0.422349 0.6636918,0.28827 -0.053632,0.234639 -1.7899567,0.127375 -0.093855,6.831333 -0.2078227,0.06034 -0.4491651,-0.978777 -0.315086,0.837994 -0.3351979,-0.341902 -0.3955335,0.248047 -0.06704,-6.576582 -1.6625814,0.107263 0.06704,-0.248046 -0.2346385,-0.187711 0.7709551,-0.576541 z"
         style="font-style:normal;font-variant:normal;font-weight:normal;font-stretch:normal;line-height:0.75;font-family:AngryBirds;-inkscape-font-specification:AngryBirds;fill:#ffffff;stroke-width:0.34324262"
         id="path33" />
      <path
         d="m 10.344266,18.032012 0.187711,-0.442461 -0.09386,-0.181007 3.928519,-0.261454 0.120672,0.536317 -0.851403,0.589948 0.811179,0.248046 -0.107264,0.301678 -2.004483,0.181007 -0.04693,2.111747 2.004483,-0.06704 -0.227935,0.717324 0.395534,0.160895 -0.06704,0.368717 -2.078227,0.207823 0.08715,2.239122 2.071523,-0.08045 -0.13408,0.71062 0.368718,0.167599 -0.154191,0.522908 -3.238011,0.187711 0.05363,-0.697211 -0.837994,0.05363 0.08715,-6.422391 -0.167599,-0.274862 0.589948,-0.509501 z"
         style="font-style:normal;font-variant:normal;font-weight:normal;font-stretch:normal;line-height:0.75;font-family:AngryBirds;-inkscape-font-specification:AngryBirds;fill:#ffffff;stroke-width:0.34324262"
         id="path35" />
      <path
         d="m 15.492905,26.143801 0.42235,-8.949783 0.429053,-0.181007 0.522909,1.193304 0.57654,-0.958666 0.28827,0.288271 0.241343,-0.207823 1.240232,3.861479 h 0.22123 l 1.220121,-3.901703 0.395533,0.301678 0.536317,-0.422349 0.469277,0.670396 0.603356,-0.549725 0.408941,8.567658 -0.261454,0.06704 -0.435757,-0.737435 -0.274863,0.683804 -0.248046,-0.221231 -0.341902,0.140783 -0.301678,-4.189973 -0.248046,-0.06704 -1.441351,3.868184 -0.248047,-0.214527 -0.261454,0.107263 -1.414535,-3.626841 -0.221231,-0.02681 -0.28827,4.257013 -0.422349,0.120671 -0.522909,-0.831291 -0.408941,1.025706 z"
         style="font-style:normal;font-variant:normal;font-weight:normal;font-stretch:normal;line-height:0.75;font-family:AngryBirds;-inkscape-font-specification:AngryBirds;fill:#ffffff;stroke-width:0.34324262"
         id="path37" />
      <path
         d="m 23.732068,17.743742 0.08045,-0.335198 q 0.563132,-0.207822 1.28716,-0.362013 0.730731,-0.154191 1.454758,-0.201119 0.187711,-0.01341 0.368718,-0.0067 0.516205,0 0.978778,0.08715 0.623468,0.113968 0.96537,0.442462 0.549724,0.536316 0.744139,1.226824 0.134079,0.469277 0.127375,0.938554 0,0.221231 -0.02682,0.442461 -0.08715,0.697212 -0.422349,1.360903 -0.328494,0.656988 -0.831291,1.139673 -0.167599,0.154191 -0.429053,0.32179 -0.261454,0.160895 -0.583244,0.315086 -0.32179,0.147487 -0.703916,0.281566 -0.375421,0.127376 -0.757547,0.207823 l -0.01341,2.386609 -0.248046,0.08715 -0.274863,-0.770955 -0.549724,0.74414 -0.35531,-0.415646 -0.274862,0.167599 -0.06704,-6.864852 -0.301678,-0.234639 0.824587,-0.851402 z m 2.084931,1.012298 0.07374,3.224603 q 0.341902,-0.120671 0.630172,-0.261454 0.248046,-0.107263 0.475981,-0.221231 0.234638,-0.120671 0.348605,-0.214526 0.288271,-0.261455 0.489389,-0.616764 0.207823,-0.35531 0.268159,-0.724028 0.02011,-0.134079 0.02682,-0.25475 0,-0.227935 -0.07374,-0.435757 -0.107263,-0.328494 -0.462573,-0.549725 -0.167599,-0.100559 -0.442461,-0.107263 -0.02011,0 -0.03352,0.0067 -0.294974,0.0067 -0.583244,0.03352 -0.348606,0.05363 -0.717324,0.120671 z"
         style="font-style:normal;font-variant:normal;font-weight:normal;font-stretch:normal;line-height:0.75;font-family:AngryBirds;-inkscape-font-specification:AngryBirds;fill:#ffffff;stroke-width:0.34324262"
         id="path39" />
      <path
         d="m 30.650555,22.811934 q -0.02682,-0.368718 -0.03352,-0.737435 0,-0.408942 0.04022,-0.817883 0.134079,-1.401127 0.388829,-2.198898 0.25475,-0.797771 0.750843,-1.22012 0.181007,-0.154191 0.455869,-0.308382 0.281567,-0.160895 0.623468,-0.274863 0.348606,-0.120671 0.74414,-0.167599 0.187711,-0.02011 0.375421,-0.02011 l 0.42235,0.02681 -0.02682,0.797771 0.670396,-0.408941 0.28827,0.422349 0.455869,-0.181007 q 0.509501,0.522909 0.777659,1.501687 0.274862,0.972074 0.274862,2.386609 0,0.469277 -0.05363,1.025705 -0.05363,0.556429 -0.194415,1.092745 -0.134079,0.529613 -0.362014,0.978778 -0.227934,0.442461 -0.569836,0.690508 -0.482685,0.341902 -0.972074,0.522908 -0.482685,0.181007 -0.945258,0.227935 -0.214527,0.02011 -0.429053,0.02011 -0.234639,0 -0.449166,-0.02682 -0.408941,-0.05363 -0.744139,-0.181007 -0.422349,-0.154191 -0.737435,-0.616764 -0.308382,-0.469277 -0.502797,-1.112857 -0.187711,-0.64358 -0.248046,-1.421239 z m 1.635765,-1.25364 q -0.02011,0.261454 -0.01341,0.516205 0,0.482685 0.06704,0.951962 0.100559,0.710619 0.375422,1.139673 0.134079,0.22123 0.395533,0.335197 0.261454,0.107264 0.556428,0.107264 0.294975,0 0.563133,-0.10056 0.268158,-0.107263 0.408941,-0.328494 0.134079,-0.22123 0.261455,-0.636876 0.134079,-0.422349 0.207822,-0.925146 0.08045,-0.5095 0.09386,-1.059225 0,-0.07374 0,-0.147487 0,-0.469277 -0.08045,-0.905034 -0.08715,-0.502797 -0.294974,-0.898331 -0.201119,-0.395533 -0.549724,-0.603356 -0.221231,-0.134079 -0.516205,-0.134079 -0.01341,0 -0.03352,0 -0.315086,0.0067 -0.54302,0.214527 -0.395534,0.35531 -0.623469,1.039113 -0.22123,0.6771 -0.274862,1.434647 z"
         style="font-style:normal;font-variant:normal;font-weight:normal;font-stretch:normal;line-height:0.75;font-family:AngryBirds;-inkscape-font-specification:AngryBirds;fill:#ffffff;stroke-width:0.34324262"
         id="path41" />
    </g>
  </g>
</svg>
