<?xml version="1.0" encoding="UTF-8" standalone="no"?>
<!-- Created with Inkscape (http://www.inkscape.org/) -->

<svg
   xmlns:dc="http://purl.org/dc/elements/1.1/"
   xmlns:cc="http://creativecommons.org/ns#"
   xmlns:rdf="http://www.w3.org/1999/02/22-rdf-syntax-ns#"
   xmlns:svg="http://www.w3.org/2000/svg"
   xmlns="http://www.w3.org/2000/svg"
   xmlns:xlink="http://www.w3.org/1999/xlink"
   xmlns:sodipodi="http://sodipodi.sourceforge.net/DTD/sodipodi-0.dtd"
   xmlns:inkscape="http://www.inkscape.org/namespaces/inkscape"
   width="210mm"
   height="297mm"
   viewBox="0 0 210 297"
   version="1.1"
   id="svg8"
   inkscape:version="0.92.1 r15371"
   sodipodi:docname="game_over.svg">
  <defs
     id="defs2">
    <inkscape:path-effect
       effect="bspline"
       id="path-effect33"
       is_visible="true"
       weight="33.333333"
       steps="2"
       helper_size="0"
       apply_no_weight="true"
       apply_with_weight="true"
       only_selected="false" />
    <linearGradient
       inkscape:collect="always"
       id="linearGradient26">
      <stop
         style="stop-color:#ffff00;stop-opacity:1;"
         offset="0"
         id="stop22" />
      <stop
         style="stop-color:#a3a35c;stop-opacity:1"
         offset="1"
         id="stop24" />
    </linearGradient>
    <linearGradient
       inkscape:collect="always"
       xlink:href="#linearGradient26"
       id="linearGradient28"
       x1="48.85342"
       y1="85.900291"
       x2="-1.7008941"
       y2="72.198654"
       gradientUnits="userSpaceOnUse"
       gradientTransform="translate(-7.2602112e-5,3.7700306e-5)" />
  </defs>
  <sodipodi:namedview
     id="base"
     pagecolor="#ffffff"
     bordercolor="#666666"
     borderopacity="1.0"
     inkscape:pageopacity="0.0"
     inkscape:pageshadow="2"
     inkscape:zoom="1.4142136"
     inkscape:cx="281.38386"
     inkscape:cy="822.99076"
     inkscape:document-units="mm"
     inkscape:current-layer="layer1"
     showgrid="false"
     inkscape:window-width="1269"
     inkscape:window-height="704"
     inkscape:window-x="0"
     inkscape:window-y="27"
     inkscape:window-maximized="1" />
  <metadata
     id="metadata5">
    <rdf:RDF>
      <cc:Work
         rdf:about="">
        <dc:format>image/svg+xml</dc:format>
        <dc:type
           rdf:resource="http://purl.org/dc/dcmitype/StillImage" />
        <dc:title />
      </cc:Work>
    </rdf:RDF>
  </metadata>
  <g
     inkscape:label="Camada 1"
     inkscape:groupmode="layer"
     id="layer1">
    <path
       style="opacity:1;fill:#ff6600;fill-opacity:1;stroke:none;stroke-width:0.69442207;stroke-linejoin:round;stroke-miterlimit:4;stroke-dasharray:none;stroke-dashoffset:0;stroke-opacity:1"
       d="M 7.8429322,75.042961 H 48.701582 V 95.525267 H 7.8429322 Z"
       id="rect20" />
    <g
       aria-label="Você 
perdeu! :("
       style="font-style:normal;font-variant:normal;font-weight:normal;font-stretch:normal;font-size:9.60621262px;line-height:1;font-family:'URW Gothic L';-inkscape-font-specification:'URW Gothic L';text-align:center;letter-spacing:0px;word-spacing:0px;text-anchor:middle;fill:#000000;fill-opacity:1;stroke:none;stroke-width:0.24015531"
       id="text96">
      <path
         d="m 19.592426,76.882359 0.07974,-0.05629 0.708271,0.759867 0.107882,-0.651984 0.295504,0.192312 0.229836,-0.229837 1.031917,5.244017 0.112573,0.01876 1.182014,-5.351899 0.276742,-0.02814 0.126644,0.853677 0.567555,-0.750485 0.286122,0.08912 -1.66983,7.251565 -0.318956,-0.154788 -0.314266,0.26267 -0.459672,-0.567555 -0.300194,0.52534 -0.192312,-0.06567 z"
         style="font-style:normal;font-variant:normal;font-weight:normal;font-stretch:normal;line-height:1;font-family:AngryBirds;-inkscape-font-specification:AngryBirds;text-align:center;text-anchor:middle;stroke-width:0.24015531"
         id="path16" />
      <path
         d="m 25.019373,82.046636 q -0.01876,-0.257979 -0.02345,-0.515959 0,-0.286122 0.02814,-0.572245 0.09381,-0.980321 0.272051,-1.538495 0.17824,-0.558173 0.52534,-0.853677 0.126644,-0.107882 0.318956,-0.215764 0.197002,-0.112573 0.436219,-0.192312 0.243908,-0.08443 0.52065,-0.117263 0.131335,-0.01407 0.26267,-0.01407 l 0.295503,0.01876 -0.01876,0.558174 0.469053,-0.286123 0.201693,0.295504 0.318957,-0.126645 q 0.35648,0.365862 0.544101,1.05068 0.192312,0.680127 0.192312,1.66983 0,0.328337 -0.03752,0.717651 -0.03752,0.389315 -0.136025,0.764557 -0.09381,0.370552 -0.253289,0.684818 -0.159478,0.309575 -0.398696,0.483125 -0.337718,0.239217 -0.680127,0.365862 -0.337718,0.126644 -0.661365,0.159478 -0.150097,0.01407 -0.300194,0.01407 -0.164169,0 -0.314266,-0.01876 -0.286123,-0.03752 -0.520649,-0.126644 -0.295504,-0.107882 -0.515959,-0.431529 -0.215764,-0.328338 -0.35179,-0.778629 -0.131335,-0.450291 -0.17355,-0.994393 z m 1.144491,-0.87713 q -0.01407,0.182931 -0.0094,0.361171 0,0.337719 0.04691,0.666056 0.07036,0.497197 0.26267,0.797391 0.09381,0.154788 0.276741,0.234527 0.182931,0.07505 0.389314,0.07505 0.206384,0 0.394005,-0.07036 0.187622,-0.07505 0.286123,-0.229836 0.09381,-0.154788 0.182931,-0.445601 0.09381,-0.295503 0.145406,-0.647293 0.05629,-0.356481 0.06567,-0.741105 0,-0.05159 0,-0.103191 0,-0.328338 -0.05629,-0.633222 -0.06098,-0.35179 -0.206383,-0.628532 -0.140716,-0.276741 -0.384624,-0.422148 -0.154788,-0.09381 -0.361171,-0.09381 -0.0094,0 -0.02345,0 -0.220455,0.0047 -0.379933,0.150098 -0.276741,0.248598 -0.43622,0.727032 -0.154787,0.473744 -0.192311,1.003774 z"
         style="font-style:normal;font-variant:normal;font-weight:normal;font-stretch:normal;line-height:1;font-family:AngryBirds;-inkscape-font-specification:AngryBirds;text-align:center;text-anchor:middle;stroke-width:0.24015531"
         id="path18" />
      <path
         d="m 29.850623,81.352437 q 0,-0.276741 0.07974,-0.736414 0.08443,-0.464362 0.26267,-0.938106 0.17824,-0.478435 0.469053,-0.867749 0.295504,-0.389314 0.717652,-0.52534 0.469053,-0.145406 0.895892,-0.197002 0.140716,-0.01876 0.295504,-0.01407 0.300194,0 0.623841,0.07036 0.01876,0.02814 0.02814,0.07036 0.0094,0.04221 0.02814,0.07036 l -0.661365,0.234527 0.459672,0.257979 -0.201693,0.17355 0.07974,0.239217 q -0.126644,0.0094 -0.281432,0.02814 -0.154787,0.01876 -0.309575,0.0516 -0.150097,0.02814 -0.290813,0.06567 -0.140716,0.03752 -0.243908,0.09381 -0.192312,0.09381 -0.328337,0.356481 -0.131335,0.257979 -0.215765,0.567555 -0.07974,0.304884 -0.121954,0.609769 -0.03752,0.300194 -0.03752,0.483125 0,0.164169 0.02345,0.389314 0.02814,0.225146 0.08443,0.469054 0.05629,0.239217 0.154788,0.454981 0.103192,0.215765 0.26736,0.35179 0.08443,0.07505 0.25798,0.117264 0.173549,0.04221 0.384623,0.06567 0.211074,0.01876 0.43153,0.02814 0.225145,0.0094 0.417457,0.0094 -0.01876,0.01876 -0.04221,0.0516 -0.01876,0.03283 -0.04691,0.07974 l 0.201693,0.220455 -0.478435,0.272051 0.52534,0.192312 q -0.01876,0.07505 -0.03752,0.112573 -0.576936,0.126644 -1.158562,0.159478 -0.08443,0.0047 -0.168859,0.0047 -0.478435,0 -0.88182,-0.164169 -0.365862,-0.145407 -0.595698,-0.473744 -0.229836,-0.333028 -0.361171,-0.745795 -0.126645,-0.412767 -0.178241,-0.858367 -0.04691,-0.445601 -0.04691,-0.830225 z"
         style="font-style:normal;font-variant:normal;font-weight:normal;font-stretch:normal;line-height:1;font-family:AngryBirds;-inkscape-font-specification:AngryBirds;text-align:center;text-anchor:middle;stroke-width:0.24015531"
         id="path20" />
      <path
         d="m 33.809433,77.59532 0.886511,-1.219539 0.35179,0.06567 0.17355,-0.192312 0.309575,0.08912 0.248598,-0.06098 0.952178,1.224229 -0.03752,0.04691 -0.182931,-0.0985 -0.107882,0.272051 -0.201693,-0.0985 -0.220455,0.07036 -0.78801,-0.778628 -0.642603,0.778628 -0.173549,0.06567 -0.182931,-0.211074 -0.304885,0.08443 z m 0.07974,1.106966 0.131335,-0.309575 -0.06567,-0.126645 2.748652,-0.182931 0.08443,0.375243 -0.595698,0.412767 0.567555,0.17355 -0.07505,0.211074 -1.402469,0.126644 -0.03283,1.477518 1.402469,-0.04691 -0.159478,0.501887 0.276742,0.112573 -0.04691,0.257979 -1.454065,0.145407 0.06098,1.566638 1.449375,-0.05629 -0.09381,0.497197 0.257979,0.117263 -0.107882,0.365862 -2.265528,0.131335 0.03753,-0.487816 -0.586317,0.03753 0.06098,-4.493531 -0.117263,-0.192312 0.412767,-0.356481 z"
         style="font-style:normal;font-variant:normal;font-weight:normal;font-stretch:normal;line-height:1;font-family:AngryBirds;-inkscape-font-specification:AngryBirds;text-align:center;text-anchor:middle;stroke-width:0.24015531"
         id="path22" />
      <path
         d="m 9.859569,88.146353 0.056286,-0.234527 q 0.3940046,-0.145406 0.9005826,-0.253288 0.511268,-0.107883 1.017846,-0.140716 0.131335,-0.0094 0.257979,-0.0047 0.361171,0 0.684818,0.06098 0.436219,0.07974 0.675437,0.309575 0.384623,0.375243 0.520649,0.858368 0.09381,0.328337 0.08912,0.656675 0,0.154787 -0.01876,0.309575 -0.06098,0.487815 -0.295504,0.952178 -0.229836,0.459672 -0.581626,0.797391 -0.117263,0.107882 -0.300194,0.225145 -0.182931,0.112573 -0.408076,0.220455 -0.225146,0.103192 -0.492506,0.197003 -0.26267,0.08912 -0.530031,0.145406 l -0.0094,1.66983 -0.17355,0.06098 -0.192311,-0.539411 -0.384624,0.520649 -0.248598,-0.290813 -0.192312,0.117263 -0.04691,-4.803106 -0.2110737,-0.164169 0.5769357,-0.595697 z m 1.458756,0.708271 0.0516,2.256146 q 0.239217,-0.08443 0.44091,-0.182931 0.17355,-0.07505 0.333028,-0.154787 0.164168,-0.08443 0.243908,-0.150097 0.201692,-0.182931 0.342408,-0.431529 0.145407,-0.248599 0.187622,-0.506578 0.01407,-0.09381 0.01876,-0.17824 0,-0.159478 -0.0516,-0.304885 -0.07505,-0.229836 -0.323647,-0.384624 -0.117263,-0.07036 -0.309575,-0.07505 -0.01407,0 -0.02345,0.0047 -0.206383,0.0047 -0.408076,0.02345 -0.243908,0.03752 -0.501887,0.08443 z"
         style="font-style:normal;font-variant:normal;font-weight:normal;font-stretch:normal;line-height:1;font-family:AngryBirds;-inkscape-font-specification:AngryBirds;text-align:center;text-anchor:middle;stroke-width:0.24015531"
         id="path24" />
      <path
         d="m 14.676747,88.348046 0.131335,-0.309575 -0.06567,-0.126645 2.748653,-0.18293 0.08443,0.375242 -0.595698,0.412767 0.567554,0.17355 -0.07505,0.211074 -1.40247,0.126644 -0.03283,1.477518 1.402469,-0.0469 -0.159478,0.501887 0.276742,0.112573 -0.04691,0.257979 -1.454065,0.145407 0.06098,1.566638 1.449375,-0.05629 -0.09381,0.497196 0.257979,0.117264 -0.107882,0.365861 -2.265528,0.131335 0.03753,-0.487815 -0.586317,0.03752 0.06098,-4.493531 -0.117263,-0.192312 0.412766,-0.356481 z"
         style="font-style:normal;font-variant:normal;font-weight:normal;font-stretch:normal;line-height:1;font-family:AngryBirds;-inkscape-font-specification:AngryBirds;text-align:center;text-anchor:middle;stroke-width:0.24015531"
         id="path26" />
      <path
         d="m 18.2181,88.132281 0.03283,-0.17824 q 0.53003,-0.17355 1.060061,-0.26267 0.53472,-0.09381 1.031917,-0.0985 0.02814,0 0.0516,0 0.469053,0 0.87713,0.07974 0.426838,0.08443 0.741104,0.290813 0.286122,0.182931 0.454982,0.459673 0.173549,0.276741 0.206383,0.623841 0.0094,0.08443 0.0094,0.17824 0,0.26736 -0.07974,0.567554 -0.103192,0.398696 -0.35648,0.811463 -0.04691,0.08443 -0.145407,0.211074 -0.0985,0.126644 -0.215764,0.272051 -0.112573,0.140716 -0.248599,0.281432 -0.131335,0.136025 -0.257979,0.243907 0.117263,0.276742 0.248598,0.586317 0.136026,0.304885 0.26267,0.591007 0.131335,0.281432 0.248598,0.520649 0.117264,0.234527 0.182931,0.365862 l -0.06567,0.07036 -0.558174,-0.309575 -0.02814,0.478434 -0.192312,-0.08443 -0.17355,0.117263 -1.163252,-1.796474 -0.605079,0.239217 -0.0469,1.439994 -0.154788,-0.01876 -0.318956,-0.501888 -0.248598,0.647294 -0.17355,-0.07036 q -0.0094,-0.286122 -0.03283,-0.820843 -0.02345,-0.534721 -0.04221,-1.163253 -0.01876,-0.628531 -0.01876,-1.275825 0,-0.647293 0.03753,-1.177324 l 0.02814,-0.375242 -0.304885,-0.220455 0.506578,-0.459673 z m 1.383708,3.020704 q 0.347099,-0.136025 0.712961,-0.365862 0.365861,-0.229836 0.633222,-0.501887 0.26736,-0.276741 0.389314,-0.572245 0.05629,-0.131335 0.05629,-0.26267 0,-0.154787 -0.07974,-0.304884 -0.08443,-0.154788 -0.361171,-0.197003 -0.225145,-0.03752 -0.464362,-0.03752 -0.0516,0 -0.107883,0 -0.347099,0.01876 -0.759866,0.08912 z"
         style="font-style:normal;font-variant:normal;font-weight:normal;font-stretch:normal;line-height:1;font-family:AngryBirds;-inkscape-font-specification:AngryBirds;text-align:center;text-anchor:middle;stroke-width:0.24015531"
         id="path28" />
      <path
         d="m 23.175994,88.432476 0.229836,-0.248599 q -0.0094,-0.01876 -0.03283,-0.09381 -0.01876,-0.07974 -0.06567,-0.187622 0.26736,-0.07505 0.651984,-0.140716 0.384623,-0.07036 0.811462,-0.07974 0.0516,0 0.103192,0 0.370552,0 0.750485,0.06098 0.431529,0.06567 0.797391,0.267361 0.403386,0.220455 0.656674,0.605078 0.253289,0.384624 0.379934,0.848987 0.121954,0.450291 0.121954,0.947488 0,0.534721 -0.126645,1.041298 -0.121954,0.483125 -0.35179,0.900583 -0.229836,0.412767 -0.558173,0.670746 -0.558174,0.450291 -1.214849,0.712961 -0.656674,0.257979 -1.318039,0.323647 l -0.07036,-0.558174 -0.595698,0.07974 0.04221,-4.451316 -0.117264,-0.07505 0.290813,-0.295504 z m 1.294587,0.661365 q 0,0.816153 0.0094,1.547876 0,0.309575 0.0094,0.628531 0.0094,0.314266 0.01876,0.605079 0.0094,0.286123 0.02345,0.515959 0.01407,0.229836 0.03752,0.375243 0.318956,-0.09381 0.595698,-0.234527 0.276741,-0.140716 0.506577,-0.342409 0.229837,-0.201693 0.394005,-0.469053 0.164169,-0.272051 0.239217,-0.628532 0.06567,-0.347099 0.08443,-0.661365 0.0047,-0.0516 0,-0.103192 0,-0.257979 -0.06098,-0.483125 -0.07036,-0.26736 -0.253289,-0.473744 -0.182931,-0.206383 -0.497196,-0.323646 -0.121954,-0.04221 -0.290813,-0.04221 -0.01876,0 -0.03283,0 -0.187621,0.0047 -0.361171,0.02345 -0.201693,0.02814 -0.422148,0.06567 z"
         style="font-style:normal;font-variant:normal;font-weight:normal;font-stretch:normal;line-height:1;font-family:AngryBirds;-inkscape-font-specification:AngryBirds;text-align:center;text-anchor:middle;stroke-width:0.24015531"
         id="path30" />
      <path
         d="m 28.185483,88.348046 0.131335,-0.309575 -0.06567,-0.126645 2.748653,-0.18293 0.08443,0.375242 -0.595697,0.412767 0.567554,0.17355 -0.07505,0.211074 -1.40247,0.126644 -0.03283,1.477518 1.40247,-0.0469 -0.159478,0.501887 0.276741,0.112573 -0.04691,0.257979 -1.454066,0.145407 0.06098,1.566638 1.449375,-0.05629 -0.09381,0.497196 0.257979,0.117264 -0.107882,0.365861 -2.265528,0.131335 0.03752,-0.487815 -0.586316,0.03752 0.06098,-4.493531 -0.117264,-0.192312 0.412767,-0.356481 z"
         style="font-style:normal;font-variant:normal;font-weight:normal;font-stretch:normal;line-height:1;font-family:AngryBirds;-inkscape-font-specification:AngryBirds;text-align:center;text-anchor:middle;stroke-width:0.24015531"
         id="path32" />
      <path
         d="m 31.750289,91.523537 q 0,-0.539411 0.0047,-0.975631 0.0047,-0.436219 0.02814,-0.844296 0.02345,-0.408076 0.06098,-0.834915 0.03752,-0.426838 0.107883,-0.938106 l 0.314265,0.126644 0.375243,-0.286123 0.356481,0.220455 0.131334,-0.0469 q -0.02814,0.286123 -0.06098,0.750486 -0.03283,0.459672 -0.06567,0.966249 -0.03283,0.501887 -0.04691,0.980322 -0.0047,0.206383 -0.0094,0.379933 0,0.234527 0.01407,0.417458 0.04691,0.905273 0.487816,1.14918 0.145406,0.07974 0.333028,0.07974 0.375242,0 0.905273,-0.323646 0.05629,-0.136026 0.08912,-0.389315 0.03752,-0.257979 0.05629,-0.576935 0.01876,-0.323647 0.02814,-0.689509 0.0094,-0.365861 0.0094,-0.736414 0.0094,-0.62384 0.01407,-1.23361 0.0047,-0.61446 0.02345,-1.027227 l 0.26267,-0.06567 0.323646,0.651984 0.422148,-0.61446 0.225146,-0.0094 q -0.0094,0.394005 -0.02345,1.088204 -0.0094,0.689508 -0.01876,1.533804 -0.0094,0.844296 -0.0094,1.75426 0,0.905273 0.01876,1.716735 l -0.239217,-0.07974 -0.323647,0.281432 -0.35648,-0.234527 -0.281432,0.136026 q -0.0094,-0.04691 -0.03283,-0.126645 -0.02345,-0.08443 -0.08912,-0.257979 -0.286123,0.126644 -0.633222,0.220455 -0.3471,0.08912 -0.680128,0.121954 -0.17824,0.01876 -0.342409,0.01876 -0.140716,0 -0.27205,-0.01407 -0.281432,-0.02814 -0.43622,-0.145407 -0.239217,-0.17355 -0.375243,-0.478434 -0.136025,-0.309576 -0.201693,-0.633222 -0.06567,-0.328338 -0.07974,-0.60977 -0.01407,-0.286122 -0.01407,-0.422148 z"
         style="font-style:normal;font-variant:normal;font-weight:normal;font-stretch:normal;line-height:1;font-family:AngryBirds;-inkscape-font-specification:AngryBirds;text-align:center;text-anchor:middle;stroke-width:0.24015531"
         id="path34" />
      <path
         d="m 36.558085,93.512323 q -0.06567,-0.168859 -0.01876,-0.365861 0.0469,-0.197003 0.140716,-0.286123 0.136026,-0.117263 0.365862,-0.145406 0.229836,-0.02814 0.454982,0.0094 0.229836,0.03283 0.398695,0.112573 0.17355,0.07974 0.197002,0.197002 0.03752,0.201693 -0.01876,0.398695 -0.0516,0.197003 -0.164169,0.300194 -0.107882,0.09381 -0.314265,0.112573 -0.206384,0.02345 -0.422148,-0.0094 -0.215765,-0.03283 -0.394005,-0.117263 -0.17824,-0.08912 -0.225146,-0.206384 z m 0.717652,-2.19986 0.328337,-4.934441 0.164169,-0.07036 0.229836,0.839605 0.722342,-0.999083 0.248599,0.642603 0.576935,-0.309575 -1.519733,4.957894 -0.182931,0.09381 -0.140716,-0.459672 z"
         style="font-style:normal;font-variant:normal;font-weight:normal;font-stretch:normal;line-height:1;font-family:AngryBirds;-inkscape-font-specification:AngryBirds;text-align:center;text-anchor:middle;stroke-width:0.24015531"
         id="path36" />
      <path
         d="m 42.013176,93.840661 q -0.168859,-0.182931 -0.18293,-0.384624 -0.0094,-0.201693 0.04221,-0.53003 0.02814,-0.220455 0.159478,-0.389315 0.136026,-0.173549 0.328338,-0.262669 0.192312,-0.09381 0.408076,-0.09381 0.215765,0 0.408077,0.121954 0.05629,0.03752 0.08912,0.211074 0.03752,0.17355 0.02345,0.389314 -0.01407,0.215765 -0.08443,0.422148 -0.06567,0.206384 -0.192312,0.314266 -0.117263,0.09381 -0.26736,0.164168 -0.145407,0.06567 -0.290814,0.09381 -0.140716,0.02814 -0.262669,0.01407 -0.117264,-0.01407 -0.178241,-0.07036 z m 0.243908,-3.475686 q -0.17355,-0.18293 -0.182931,-0.384623 -0.0094,-0.201693 0.03752,-0.530031 0.02814,-0.220455 0.159478,-0.394004 0.136025,-0.17355 0.328337,-0.26267 0.192312,-0.09381 0.408076,-0.09381 0.215765,0 0.408077,0.126644 0.05629,0.03753 0.08912,0.211074 0.03752,0.17355 0.02345,0.389315 -0.01407,0.215764 -0.08443,0.422148 -0.06567,0.206383 -0.187621,0.314265 -0.117264,0.09381 -0.267361,0.164169 -0.145406,0.06567 -0.290813,0.09381 -0.145406,0.02814 -0.26736,0.01407 -0.117264,-0.01407 -0.17355,-0.07036 z"
         style="font-style:normal;font-variant:normal;font-weight:normal;font-stretch:normal;line-height:1;font-family:AngryBirds;-inkscape-font-specification:AngryBirds;text-align:center;text-anchor:middle;stroke-width:0.24015531"
         id="path38" />
      <path
         d="m 44.325608,91.701777 q -0.06098,-0.581626 -0.06098,-1.167942 0,-0.591008 0.01876,-1.083514 0.0094,-0.229836 0.07974,-0.609769 0.07505,-0.379933 0.187621,-0.769247 0.117263,-0.389315 0.253289,-0.722343 0.140716,-0.337718 0.286122,-0.492506 0.229836,-0.248598 0.558174,-0.426838 0.333028,-0.17824 0.670746,-0.272051 0.01876,0.01876 0.0469,0.04221 0.02814,0.02345 0.04691,0.04221 l -0.304885,0.43153 0.497197,0.220455 v 0.06098 q -0.309576,0.229836 -0.511268,0.656674 -0.197003,0.426839 -0.314266,0.96156 -0.112573,0.53003 -0.150097,1.111656 -0.03283,0.581626 -0.01407,1.125728 0.02345,0.544102 0.08912,0.989703 0.06567,0.4456 0.154788,0.70358 0.02814,0.09381 0.0985,0.234526 0.07505,0.140716 0.17355,0.295504 0.103192,0.154788 0.239217,0.300194 0.140716,0.140716 0.314266,0.248598 -0.07505,0.04691 -0.17355,0.107883 -0.0985,0.05629 -0.220455,0.121954 l 0.257979,0.412767 q -0.01876,0.01876 -0.03283,0.02345 -0.01407,0.0047 -0.03283,0.02345 -0.03752,0.03752 -0.06098,0.04691 -0.182931,-0.0094 -0.389314,-0.06567 -0.201693,-0.05629 -0.408077,-0.150097 -0.201693,-0.08912 -0.375243,-0.201693 -0.168859,-0.107883 -0.276741,-0.234527 -0.286123,-0.347099 -0.43622,-0.863058 -0.150097,-0.520649 -0.211074,-1.102276 z"
         style="font-style:normal;font-variant:normal;font-weight:normal;font-stretch:normal;line-height:1;font-family:AngryBirds;-inkscape-font-specification:AngryBirds;text-align:center;text-anchor:middle;stroke-width:0.24015531"
         id="path40" />
    </g>
  </g>
</svg>
