<?xml version="1.0" encoding="UTF-8" standalone="no"?>
<!-- Created with Inkscape (http://www.inkscape.org/) -->

<svg
   xmlns:dc="http://purl.org/dc/elements/1.1/"
   xmlns:cc="http://creativecommons.org/ns#"
   xmlns:rdf="http://www.w3.org/1999/02/22-rdf-syntax-ns#"
   xmlns:svg="http://www.w3.org/2000/svg"
   xmlns="http://www.w3.org/2000/svg"
   xmlns:sodipodi="http://sodipodi.sourceforge.net/DTD/sodipodi-0.dtd"
   xmlns:inkscape="http://www.inkscape.org/namespaces/inkscape"
   width="210mm"
   height="297mm"
   viewBox="0 0 210 297"
   version="1.1"
   id="svg1229"
   inkscape:version="0.92.1 r15371"
   sodipodi:docname="maca.svg">
  <defs
     id="defs1223" />
  <sodipodi:namedview
     id="base"
     pagecolor="#ffffff"
     bordercolor="#666666"
     borderopacity="1.0"
     inkscape:pageopacity="0.0"
     inkscape:pageshadow="2"
     inkscape:zoom="0.35"
     inkscape:cx="400"
     inkscape:cy="560"
     inkscape:document-units="mm"
     inkscape:current-layer="layer1"
     showgrid="false"
     inkscape:window-width="1269"
     inkscape:window-height="704"
     inkscape:window-x="0"
     inkscape:window-y="27"
     inkscape:window-maximized="1" />
  <metadata
     id="metadata1226">
    <rdf:RDF>
      <cc:Work
         rdf:about="">
        <dc:format>image/svg+xml</dc:format>
        <dc:type
           rdf:resource="http://purl.org/dc/dcmitype/StillImage" />
        <dc:title></dc:title>
      </cc:Work>
    </rdf:RDF>
  </metadata>
  <g
     inkscape:label="Camada 1"
     inkscape:groupmode="layer"
     id="layer1">
    <path
       d="m 13.793596,19.116293 c -2.436812,0.833437 -6.7997913,4.492625 -5.3578123,12.051771 1.441979,7.559145 6.5669583,10.850561 8.1518123,11.38502 1.584854,0.534458 2.0955,-0.177271 3.026833,0.04498 0.931334,0.22225 2.468563,0.66675 3.074459,0.4445 0.605895,-0.22225 0.791104,-0.534459 1.862666,-0.489479 1.071563,0.04498 2.934229,-1.15623 4.423834,-2.979209 1.489604,-1.822979 10.091211,-13.700124 0.521229,-20.103041 0,0 -1.524,-1.195916 -4.164542,-1.082146 -2.238375,0.09525 -2.958042,1.121834 -5.212292,0.941917 -1.772708,-0.142876 -3.204103,-1.280584 -6.326187,-0.214313 z"
       style="fill:#ff0000;stroke:#ff0000;stroke-width:0.26458332"
       id="path17"
       inkscape:connector-curvature="0" />
    <g
       id="g1208"
       transform="matrix(0.26458333,0,0,0.26458333,-31.947076,18.202718)">
      <path
         d="m 247.40966,-29.244915 c -3.04,1.35 -6.5,-0.83 -10.01,-2.12 0,0 -7.26,-2.67 -15.37,-0.96 -5.65,1.19 -9.57,4.19 -11.35,5.74 -5.86,5.12 -7.63,12.02 -8.21,14.56 0.16,0.16 0.72,1.07 0.8,1.31 0.06,-0.01 0.1,-0.01 0.16,-0.02 4.36,-0.71 12.99,9.1799997 27.7,5.3899997 14.71,-3.79 19.19,-25.3199997 19.19,-25.3199997 l 0.12,-0.08 c -0.01,-0.01 -2.37,1.21 -3.03,1.5 z"
         style="fill:#008000"
         id="path45"
         inkscape:connector-curvature="0" />
      <path
         inkscape:connector-curvature="0"
         id="path53"
         style="fill:#008000"
         d="m 195.84966,1.1550847 c 0,0 0.01,-0.05 0.04,-0.15 0.02,-0.09 0.05,-0.20999997 0.08,-0.37999997 0.09,-0.46 0.23,-1.19 0.44,-2.13000003 0.44,-1.86 1.19,-4.57 2.9,-7.5 0.86,-1.4499997 1.98,-2.9499997 3.42,-4.2799997 0.72,-0.67 1.51,-1.29 2.38,-1.84 0.43,-0.28 0.87,-0.53 1.35,-0.78 l 0.65,-0.32 0.73,-0.33 c 1.93,-0.83 4.06,-1.38 6.22,-1.55 2.17,-0.18 4.32,-0.02 6.39,0.13 2.08,0.16 4.1,0.31 6.07,0.18 1.96,-0.13 3.86,-0.52 5.63,-1.18 1.84,-0.65 3.49,-1.39 5.08,-2.21 1.57,-0.81 3.03,-1.64 4.34,-2.47 2.63,-1.65 4.71,-3.2 6.11,-4.34 0.7,-0.58 1.23,-1.05 1.57,-1.39 0.35,-0.34 0.5,-0.54 0.5,-0.54 l 0.11,0.08 c 0,0 -0.15,0.22 -0.47,0.59 -0.32,0.37 -0.82,0.89 -1.48,1.52 -1.32,1.26 -3.32,2.96 -5.88,4.78 -1.27,0.92 -2.7,1.85 -4.26,2.78 -1.53,0.92 -3.28,1.83 -5.08,2.59 -1.83,0.83 -3.91,1.37 -6.02,1.6 -2.12,0.24 -4.26,0.17 -6.34,0.1 -2.07,-0.08 -4.1,-0.11 -6.01,0.19 -1.91,0.27 -3.7,0.87 -5.3,1.69 l -0.58,0.3 -0.62,0.36 c -0.35,0.21 -0.74,0.44 -1.08,0.69 -0.7,0.48 -1.33,1.02 -1.9,1.6 -1.15,1.1399997 -2.02,2.4199997 -2.7,3.6699997 -1.34,2.53 -1.89,4.94 -2.2,6.63000003 -0.15,0.85 -0.25,1.53 -0.32,2.02999997 -0.04,0.25 -0.07,0.45 -0.13,0.71 -0.04,0.15 -0.06,0.22 -0.06,0.22 z" />
    </g>
    <path
       inkscape:connector-curvature="0"
       id="path64"
       style="fill:#42210b;stroke-width:0.26458332"
       d="m 21.272875,20.385037 c -0.259292,-1.561042 -1.312334,-5.273146 -2.148417,-6.712479 -1.452864,-0.308209 -2.144657,0.311697 -2.346854,0.28575 -0.02646,0.0291 -0.04233,0.04763 -0.04233,0.04763 1.756833,2.061104 2.439458,2.870729 3.180291,4.979458 0.762,2.164292 0.926042,3.09298 0.881063,3.429 -0.04763,0.34925 0.555625,0.0926 0.555625,0.0926 0,0 0.269875,-0.03704 -0.07937,-2.121959 z"
       sodipodi:nodetypes="cccccccc" />
  </g>
</svg>
