<?xml version="1.0" encoding="UTF-8" standalone="no"?>
<!-- Created with Inkscape (http://www.inkscape.org/) -->

<svg
   xmlns:dc="http://purl.org/dc/elements/1.1/"
   xmlns:cc="http://creativecommons.org/ns#"
   xmlns:rdf="http://www.w3.org/1999/02/22-rdf-syntax-ns#"
   xmlns:svg="http://www.w3.org/2000/svg"
   xmlns="http://www.w3.org/2000/svg"
   xmlns:xlink="http://www.w3.org/1999/xlink"
   xmlns:sodipodi="http://sodipodi.sourceforge.net/DTD/sodipodi-0.dtd"
   xmlns:inkscape="http://www.inkscape.org/namespaces/inkscape"
   width="210mm"
   height="297mm"
   viewBox="0 0 210 297"
   version="1.1"
   id="svg8"
   inkscape:version="0.92.1 r15371"
   sodipodi:docname="msg_erro.svg">
  <defs
     id="defs2">
    <inkscape:path-effect
       effect="bspline"
       id="path-effect33"
       is_visible="true"
       weight="33.333333"
       steps="2"
       helper_size="0"
       apply_no_weight="true"
       apply_with_weight="true"
       only_selected="false" />
    <linearGradient
       inkscape:collect="always"
       id="linearGradient26">
      <stop
         style="stop-color:#ffff00;stop-opacity:1;"
         offset="0"
         id="stop22" />
      <stop
         style="stop-color:#a3a35c;stop-opacity:1"
         offset="1"
         id="stop24" />
    </linearGradient>
    <linearGradient
       inkscape:collect="always"
       xlink:href="#linearGradient26"
       id="linearGradient28"
       x1="48.85342"
       y1="85.900291"
       x2="-1.7008941"
       y2="72.198654"
       gradientUnits="userSpaceOnUse"
       gradientTransform="translate(-7.2602112e-5,3.7700306e-5)" />
  </defs>
  <sodipodi:namedview
     id="base"
     pagecolor="#ffffff"
     bordercolor="#666666"
     borderopacity="1.0"
     inkscape:pageopacity="0.0"
     inkscape:pageshadow="2"
     inkscape:zoom="2.0000001"
     inkscape:cx="252.14382"
     inkscape:cy="802.92273"
     inkscape:document-units="mm"
     inkscape:current-layer="g43"
     showgrid="false"
     inkscape:window-width="1269"
     inkscape:window-height="704"
     inkscape:window-x="0"
     inkscape:window-y="27"
     inkscape:window-maximized="1" />
  <metadata
     id="metadata5">
    <rdf:RDF>
      <cc:Work
         rdf:about="">
        <dc:format>image/svg+xml</dc:format>
        <dc:type
           rdf:resource="http://purl.org/dc/dcmitype/StillImage" />
        <dc:title />
      </cc:Work>
    </rdf:RDF>
  </metadata>
  <g
     inkscape:label="Camada 1"
     inkscape:groupmode="layer"
     id="layer1">
    <path
       style="opacity:1;fill:#ff0000;fill-opacity:1;stroke:none;stroke-width:1.0882746;stroke-linejoin:round;stroke-miterlimit:4;stroke-dasharray:none;stroke-dashoffset:0;stroke-opacity:1"
       d="M 7.8429322,75.042961 H 78.44868 V 104.15366 H 7.8429322 Z"
       id="rect20"
       inkscape:connector-curvature="0" />
    <g
       aria-label="Você  perdeu! :("
       style="font-style:normal;font-variant:normal;font-weight:normal;font-stretch:normal;font-size:9.60621262px;line-height:1;font-family:'URW Gothic L';-inkscape-font-specification:'URW Gothic L';text-align:center;letter-spacing:0px;word-spacing:0px;text-anchor:middle;fill:#000000;fill-opacity:1;stroke:none;stroke-width:0.24015531"
       id="text96"
       transform="translate(1.0402279,1.4121393)">
      <g
         id="g43"
         transform="translate(-49.578496,0.93544332)"
         style="fill:#000000">
        <g
           aria-label="Não foi dessa vez,
tente novamente!
"
           style="font-style:normal;font-variant:normal;font-weight:normal;font-stretch:normal;font-size:9.39315319px;line-height:1;font-family:'URW Gothic L';-inkscape-font-specification:'URW Gothic L';letter-spacing:0px;word-spacing:0px;fill:#ffffff;fill-opacity:1;stroke:none;stroke-width:0.05639539"
           id="text29">
          <path
             d="m 58.397544,82.617412 0.151355,-7.242085 0.288949,-0.05962 0.591659,0.678802 0.27519,-0.724667 0.110076,0.05962 1.747456,3.623336 0.256844,-0.08256 0.01835,-3.375665 0.188047,0.133009 0.19722,-0.252258 0.316468,0.467823 0.36692,-0.467823 -0.08256,7.242085 -0.07797,0.02752 -0.362334,-0.715494 -0.238498,0.743013 -0.224739,-0.142182 -0.178873,0.10549 -1.830014,-3.852661 -0.206392,0.01835 -0.123836,3.88018 -0.128422,0.05504 -0.339401,-0.573313 -0.339401,0.490756 -0.142181,-0.09632 z"
             style="font-style:normal;font-variant:normal;font-weight:normal;font-stretch:normal;line-height:1;font-family:AngryBirds;-inkscape-font-specification:AngryBirds;fill:#ffffff;stroke-width:0.05639539"
             id="path26" />
          <path
             d="m 63.392243,82.608239 1.210836,-5.797337 0.376093,0.114662 0.343988,-0.302709 0.518275,0.637524 0.293536,-0.573313 0.325641,0.19722 0.302709,-0.174287 1.096174,5.934932 -0.206393,-0.142182 -0.343987,0.19722 -0.266017,-0.339401 -0.252258,0.256844 -0.348574,-1.270461 -1.747457,0.142182 -0.334814,1.279633 -0.09632,0.03669 -0.298122,-0.376093 -0.376093,0.298123 z m 0.261431,-6.980654 q 0.04586,-0.07338 0.08256,-0.133009 0.04128,-0.06421 0.07797,-0.128422 0.142182,-0.233911 0.302709,-0.399025 0.165114,-0.165114 0.45865,-0.210979 0.302709,-0.05504 0.481583,-0.0092 0.18346,0.04586 0.343988,0.146768 0.08256,0.05504 0.160527,0.119249 0.08256,0.05962 0.178874,0.119249 0.105489,0.06421 0.206392,0.114662 0.100903,0.05045 0.233912,0.100903 0.123835,0.03669 0.229325,0.01376 0.110076,-0.02293 0.201806,-0.08714 0.09632,-0.0688 0.1697,-0.151354 0.07338,-0.08714 0.142182,-0.169701 0.07338,-0.09173 0.137595,-0.220152 0.02752,0 0.05504,0.0092 0.03211,0.0046 0.05962,0.0046 l -0.02752,0.233911 h 0.224739 l -0.01835,0.215566 0.133008,0.06421 q -0.105489,0.215565 -0.252257,0.440304 -0.146768,0.220152 -0.256844,0.321055 -0.233912,0.206392 -0.527448,0.26143 -0.288949,0.05045 -0.564139,-0.03669 -0.04586,-0.01835 -0.110076,-0.05045 -0.05962,-0.03211 -0.133009,-0.07797 -0.07338,-0.04587 -0.160527,-0.100903 -0.08256,-0.05962 -0.160528,-0.119249 -0.1697,-0.114662 -0.343988,-0.206392 -0.1697,-0.09173 -0.339401,-0.110076 -0.07338,0 -0.18346,0.100903 -0.110076,0.09632 -0.210979,0.215565 -0.04587,0.05504 -0.08714,0.114663 -0.03669,0.05504 -0.08256,0.105489 l -0.03669,0.04586 -0.07338,-0.0092 0.08256,-0.233911 H 63.76375 l 0.05962,-0.160528 q -0.04586,-0.03669 -0.08714,-0.06421 -0.03669,-0.03211 -0.08256,-0.0688 z m 1.275047,4.792893 1.343845,-0.123836 -0.467823,-2.105203 -0.394439,0.02752 z"
             style="font-style:normal;font-variant:normal;font-weight:normal;font-stretch:normal;line-height:1;font-family:AngryBirds;-inkscape-font-specification:AngryBirds;fill:#ffffff;stroke-width:0.05639539"
             id="path28" />
          <path
             d="m 68.27228,80.562659 q -0.01835,-0.252257 -0.02293,-0.504515 0,-0.279776 0.02752,-0.559553 0.09173,-0.958578 0.266017,-1.504372 0.174287,-0.545793 0.513688,-0.834743 0.123835,-0.10549 0.311882,-0.210979 0.192633,-0.110076 0.426544,-0.188047 0.238498,-0.08256 0.509102,-0.114662 0.128422,-0.01376 0.256844,-0.01376 l 0.28895,0.01835 -0.01835,0.545794 0.45865,-0.279777 0.197219,0.28895 0.311882,-0.123836 q 0.348574,0.357748 0.532034,1.027377 0.188047,0.665042 0.188047,1.632794 0,0.321055 -0.03669,0.701734 -0.03669,0.38068 -0.133009,0.7476 -0.09173,0.362334 -0.247671,0.669629 -0.155941,0.302709 -0.389852,0.47241 -0.330228,0.233911 -0.665043,0.357747 -0.330228,0.123835 -0.646696,0.155941 -0.146769,0.01376 -0.293537,0.01376 -0.160527,0 -0.307295,-0.01835 -0.279777,-0.03669 -0.509102,-0.123835 -0.288949,-0.10549 -0.504515,-0.421958 -0.210979,-0.321055 -0.343987,-0.761359 -0.128422,-0.440305 -0.169701,-0.972339 z m 1.119106,-0.857675 q -0.01376,0.178873 -0.0092,0.35316 0,0.330228 0.04587,0.651283 0.0688,0.486169 0.256844,0.779706 0.09173,0.151354 0.270604,0.229325 0.178873,0.07338 0.38068,0.07338 0.201806,0 0.385266,-0.0688 0.18346,-0.07338 0.279776,-0.224738 0.09173,-0.151355 0.178874,-0.435718 0.09173,-0.28895 0.142181,-0.632937 0.05504,-0.348574 0.06421,-0.724667 0,-0.05045 0,-0.100903 0,-0.321055 -0.05504,-0.619178 -0.05962,-0.343987 -0.201806,-0.614591 -0.137595,-0.270603 -0.376093,-0.412785 -0.151354,-0.09173 -0.35316,-0.09173 -0.0092,0 -0.02293,0 -0.215566,0.0046 -0.371507,0.146768 -0.270603,0.243085 -0.426544,0.710908 -0.151355,0.463236 -0.188047,0.981511 z"
             style="font-style:normal;font-variant:normal;font-weight:normal;font-stretch:normal;line-height:1;font-family:AngryBirds;-inkscape-font-specification:AngryBirds;fill:#ffffff;stroke-width:0.05639539"
             id="path30" />
          <path
             d="m 74.913533,77.50805 0.188047,-0.266017 -0.08256,-0.279777 2.994985,-0.142181 -0.169701,0.582486 0.220152,0.133008 -0.09632,0.233912 -1.550238,0.105489 -0.02752,1.380537 1.38971,-0.03211 -0.123835,0.490756 0.284363,0.114662 -0.05504,0.261431 -1.504373,0.178873 0.05504,2.394154 -0.188046,0.07338 -0.325642,-0.674216 -0.293536,0.619178 -0.110076,-0.151355 -0.256844,0.07797 -0.05504,-4.558982 -0.197219,-0.05504 0.412785,-0.252257 z"
             style="font-style:normal;font-variant:normal;font-weight:normal;font-stretch:normal;line-height:1;font-family:AngryBirds;-inkscape-font-specification:AngryBirds;fill:#ffffff;stroke-width:0.05639539"
             id="path32" />
          <path
             d="m 78.601079,80.562659 q -0.01835,-0.252257 -0.02293,-0.504515 0,-0.279776 0.02752,-0.559553 0.09173,-0.958578 0.266017,-1.504372 0.174287,-0.545793 0.513688,-0.834743 0.123836,-0.10549 0.311882,-0.210979 0.192633,-0.110076 0.426545,-0.188047 0.238498,-0.08256 0.509101,-0.114662 0.128422,-0.01376 0.256844,-0.01376 l 0.28895,0.01835 -0.01835,0.545794 0.45865,-0.279777 0.197219,0.28895 0.311882,-0.123836 q 0.348575,0.357748 0.532035,1.027377 0.188046,0.665042 0.188046,1.632794 0,0.321055 -0.03669,0.701734 -0.03669,0.38068 -0.133008,0.7476 -0.09173,0.362334 -0.247671,0.669629 -0.155941,0.302709 -0.389853,0.47241 -0.330228,0.233911 -0.665043,0.357747 -0.330228,0.123835 -0.646696,0.155941 -0.146768,0.01376 -0.293536,0.01376 -0.160528,0 -0.307296,-0.01835 -0.279776,-0.03669 -0.509101,-0.123835 -0.28895,-0.10549 -0.504515,-0.421958 -0.210979,-0.321055 -0.343988,-0.761359 -0.128422,-0.440305 -0.1697,-0.972339 z m 1.119106,-0.857675 q -0.01376,0.178873 -0.0092,0.35316 0,0.330228 0.04587,0.651283 0.0688,0.486169 0.256844,0.779706 0.09173,0.151354 0.270603,0.229325 0.178874,0.07338 0.38068,0.07338 0.201806,0 0.385266,-0.0688 0.18346,-0.07338 0.279776,-0.224738 0.09173,-0.151355 0.178874,-0.435718 0.09173,-0.28895 0.142181,-0.632937 0.05504,-0.348574 0.06421,-0.724667 0,-0.05045 0,-0.100903 0,-0.321055 -0.05504,-0.619178 -0.05962,-0.343987 -0.201806,-0.614591 -0.137595,-0.270603 -0.376093,-0.412785 -0.151354,-0.09173 -0.35316,-0.09173 -0.0092,0 -0.02293,0 -0.215565,0.0046 -0.371506,0.146768 -0.270604,0.243085 -0.426545,0.710908 -0.151354,0.463236 -0.188046,0.981511 z"
             style="font-style:normal;font-variant:normal;font-weight:normal;font-stretch:normal;line-height:1;font-family:AngryBirds;-inkscape-font-specification:AngryBirds;fill:#ffffff;stroke-width:0.05639539"
             id="path34" />
          <path
             d="m 83.549913,82.681623 v -5.843202 l 0.206392,-0.07338 0.311882,0.73384 0.39444,-0.706321 0.279776,0.151354 0.266017,-0.09632 -0.160527,5.939518 -0.114663,0.03669 -0.394439,-0.564139 -0.270604,0.495342 -0.243084,-0.09173 z"
             style="font-style:normal;font-variant:normal;font-weight:normal;font-stretch:normal;line-height:1;font-family:AngryBirds;-inkscape-font-specification:AngryBirds;fill:#ffffff;stroke-width:0.05639539"
             id="path36" />
          <path
             d="m 87.60438,77.375042 0.224738,-0.243085 q -0.0092,-0.01835 -0.0321,-0.09173 -0.01835,-0.07797 -0.06421,-0.18346 0.26143,-0.07338 0.637523,-0.137595 0.376093,-0.0688 0.793465,-0.07797 0.05045,0 0.100903,0 0.362333,0 0.73384,0.05963 0.421958,0.06421 0.779705,0.26143 0.394439,0.215566 0.64211,0.591659 0.247671,0.376093 0.371507,0.830157 0.119249,0.440304 0.119249,0.926473 0,0.522861 -0.123836,1.018203 -0.119249,0.472409 -0.343987,0.880608 -0.224739,0.403612 -0.545794,0.65587 -0.545793,0.440304 -1.187904,0.697148 -0.64211,0.252257 -1.288806,0.316468 l -0.0688,-0.545793 -0.582485,0.07797 0.04128,-4.352589 -0.114662,-0.07338 0.284363,-0.288949 z m 1.265874,0.646696 q 0,0.798051 0.0092,1.513545 0,0.302709 0.0092,0.614591 0.0092,0.307296 0.01835,0.591659 0.0092,0.279776 0.02293,0.504515 0.01376,0.224739 0.03669,0.36692 0.311882,-0.09173 0.582486,-0.229325 0.270603,-0.137595 0.495342,-0.334815 0.224739,-0.197219 0.385266,-0.45865 0.160528,-0.266017 0.233912,-0.614591 0.06421,-0.339401 0.08256,-0.646696 0.0046,-0.05045 0,-0.100903 0,-0.252258 -0.05962,-0.47241 -0.0688,-0.26143 -0.247671,-0.463236 -0.178873,-0.201806 -0.486169,-0.316469 -0.119249,-0.04128 -0.284363,-0.04128 -0.01835,0 -0.03211,0 -0.18346,0.0046 -0.35316,0.02293 -0.19722,0.02752 -0.412785,0.06421 z"
             style="font-style:normal;font-variant:normal;font-weight:normal;font-stretch:normal;line-height:1;font-family:AngryBirds;-inkscape-font-specification:AngryBirds;fill:#ffffff;stroke-width:0.05639539"
             id="path38" />
          <path
             d="m 92.502762,77.292484 0.128422,-0.302709 -0.06421,-0.123835 2.687689,-0.178874 0.08256,0.36692 -0.582485,0.403613 0.554966,0.1697 -0.07338,0.206393 -1.371363,0.123835 -0.03211,1.444748 1.371364,-0.04587 -0.155941,0.490755 0.270603,0.110076 -0.04586,0.252258 -1.421815,0.142181 0.05963,1.531892 1.417228,-0.05504 -0.09173,0.486169 0.252258,0.114662 -0.10549,0.357747 -2.21528,0.128422 0.03669,-0.476996 -0.573312,0.03669 0.05962,-4.393867 -0.114662,-0.188047 0.403612,-0.348574 z"
             style="font-style:normal;font-variant:normal;font-weight:normal;font-stretch:normal;line-height:1;font-family:AngryBirds;-inkscape-font-specification:AngryBirds;fill:#ffffff;stroke-width:0.05639539"
             id="path40" />
          <path
             d="m 95.956397,78.998663 q 0.03669,-0.476996 0.284363,-0.871435 0.252258,-0.394439 0.64211,-0.678802 0.389853,-0.28895 0.866849,-0.47241 0.481582,-0.18346 0.981511,-0.238498 0.09632,-0.01376 0.233911,-0.01835 0.03669,0 0.07338,0.0046 0.188047,0.0046 0.321055,0.01376 l 0.03669,0.119249 -0.610004,0.339401 0.486169,0.233912 -0.206393,0.197219 0.142182,0.266017 q -0.339401,0.02752 -0.669629,0.09173 -0.325642,0.06421 -0.587072,0.178874 -0.256844,0.114662 -0.435718,0.279776 -0.178873,0.160528 -0.215565,0.376093 -0.0092,0.05504 -0.0092,0.110076 0,0.174287 0.123835,0.293536 0.160528,0.160528 0.385266,0.266017 0.114663,0.04587 0.233912,0.08714 0.123835,0.04128 0.243084,0.08256 0.114663,0.03669 0.215566,0.06421 0.105489,0.02752 0.178873,0.04586 0.449477,0.142181 0.701735,0.389852 0.256844,0.247671 0.256844,0.729254 0,0.509102 -0.279777,0.898954 -0.27519,0.389853 -0.866848,0.687975 -0.233912,0.114663 -0.47241,0.192633 -0.238498,0.07797 -0.467823,0.133009 -0.224738,0.05962 -0.426544,0.08714 -0.201806,0.02752 -0.371507,0.04587 l 0.160528,-0.298122 -0.431131,-0.123836 0.188046,-0.279776 -0.160527,-0.169701 q 0.160527,-0.03669 0.35316,-0.07797 0.192633,-0.04587 0.389853,-0.100903 0.178873,-0.05504 0.362333,-0.133009 0.18346,-0.08256 0.330228,-0.192633 0.151355,-0.114662 0.247671,-0.252257 0.100903,-0.137596 0.100903,-0.293537 0,-0.197219 -0.192633,-0.325641 -0.192633,-0.128422 -0.426544,-0.201806 -0.243085,-0.08256 -0.486169,-0.137595 -0.238498,-0.05962 -0.357747,-0.10549 -0.421958,-0.1697 -0.665043,-0.45865 -0.206392,-0.247671 -0.206392,-0.651283 0,-0.06421 0.0046,-0.133008 z"
             style="font-style:normal;font-variant:normal;font-weight:normal;font-stretch:normal;line-height:1;font-family:AngryBirds;-inkscape-font-specification:AngryBirds;fill:#ffffff;stroke-width:0.05639539"
             id="path42" />
          <path
             d="m 100.23102,78.998663 q 0.0367,-0.476996 0.28436,-0.871435 0.25226,-0.394439 0.64211,-0.678802 0.38985,-0.28895 0.86685,-0.47241 0.48158,-0.18346 0.98151,-0.238498 0.0963,-0.01376 0.23391,-0.01835 0.0367,0 0.0734,0.0046 0.18804,0.0046 0.32105,0.01376 l 0.0367,0.119249 -0.61,0.339401 0.48617,0.233912 -0.2064,0.197219 0.14219,0.266017 q -0.33941,0.02752 -0.66963,0.09173 -0.32564,0.06421 -0.58708,0.178874 -0.25684,0.114662 -0.43571,0.279776 -0.17888,0.160528 -0.21557,0.376093 -0.009,0.05504 -0.009,0.110076 0,0.174287 0.12383,0.293536 0.16053,0.160528 0.38527,0.266017 0.11466,0.04587 0.23391,0.08714 0.12384,0.04128 0.24309,0.08256 0.11466,0.03669 0.21556,0.06421 0.10549,0.02752 0.17888,0.04586 0.44947,0.142181 0.70173,0.389852 0.25684,0.247671 0.25684,0.729254 0,0.509102 -0.27977,0.898954 -0.27519,0.389853 -0.86685,0.687975 -0.23391,0.114663 -0.47241,0.192633 -0.2385,0.07797 -0.46782,0.133009 -0.22474,0.05962 -0.42655,0.08714 -0.2018,0.02752 -0.3715,0.04587 l 0.16052,-0.298122 -0.43113,-0.123836 0.18805,-0.279776 -0.16053,-0.169701 q 0.16053,-0.03669 0.35316,-0.07797 0.19263,-0.04587 0.38985,-0.100903 0.17888,-0.05504 0.36234,-0.133009 0.18346,-0.08256 0.33023,-0.192633 0.15135,-0.114662 0.24767,-0.252257 0.1009,-0.137596 0.1009,-0.293537 0,-0.197219 -0.19263,-0.325641 -0.19264,-0.128422 -0.42655,-0.201806 -0.24308,-0.08256 -0.48617,-0.137595 -0.2385,-0.05962 -0.35774,-0.10549 -0.42196,-0.1697 -0.66505,-0.45865 -0.20639,-0.247671 -0.20639,-0.651283 0,-0.06421 0.005,-0.133008 z"
             style="font-style:normal;font-variant:normal;font-weight:normal;font-stretch:normal;line-height:1;font-family:AngryBirds;-inkscape-font-specification:AngryBirds;fill:#ffffff;stroke-width:0.05639539"
             id="path44" />
          <path
             d="m 104.34052,82.608239 1.21084,-5.797337 0.37609,0.114662 0.34399,-0.302709 0.51827,0.637524 0.29354,-0.573313 0.32564,0.19722 0.30271,-0.174287 1.09617,5.934932 -0.20639,-0.142182 -0.34399,0.19722 -0.26602,-0.339401 -0.25225,0.256844 -0.34858,-1.270461 -1.74745,0.142182 -0.33482,1.279633 -0.0963,0.03669 -0.29812,-0.376093 -0.37609,0.298123 z m 1.53648,-2.187761 1.34384,-0.123836 -0.46782,-2.105203 -0.39444,0.02752 z"
             style="font-style:normal;font-variant:normal;font-weight:normal;font-stretch:normal;line-height:1;font-family:AngryBirds;-inkscape-font-specification:AngryBirds;fill:#ffffff;stroke-width:0.05639539"
             id="path46" />
          <path
             d="m 110.90839,76.765037 0.15135,-0.06421 0.42196,0.765946 0.1697,-0.674216 0.27061,0.188046 0.20639,-0.26143 0.87143,4.591087 0.1697,-0.04587 1.13746,-4.517703 0.16052,0.07338 0.27978,-0.160528 0.24767,0.678802 0.52286,-0.573312 0.0596,0.04586 -1.69242,5.994556 -0.20639,-0.01835 -0.26144,-0.36692 -0.43571,0.403612 -0.15594,-0.02752 -0.39444,-0.53662 -0.22015,0.45865 -0.1376,-0.05504 z"
             style="font-style:normal;font-variant:normal;font-weight:normal;font-stretch:normal;line-height:1;font-family:AngryBirds;-inkscape-font-specification:AngryBirds;fill:#ffffff;stroke-width:0.05639539"
             id="path48" />
          <path
             d="m 115.89391,77.292484 0.12843,-0.302709 -0.0642,-0.123835 2.68769,-0.178874 0.0826,0.36692 -0.58248,0.403613 0.55496,0.1697 -0.0734,0.206393 -1.37137,0.123835 -0.0321,1.444748 1.37136,-0.04587 -0.15594,0.490755 0.2706,0.110076 -0.0459,0.252258 -1.42182,0.142181 0.0596,1.531892 1.41723,-0.05504 -0.0917,0.486169 0.25226,0.114662 -0.10549,0.357747 -2.21528,0.128422 0.0367,-0.476996 -0.57331,0.03669 0.0596,-4.393867 -0.11466,-0.188047 0.40361,-0.348574 z"
             style="font-style:normal;font-variant:normal;font-weight:normal;font-stretch:normal;line-height:1;font-family:AngryBirds;-inkscape-font-specification:AngryBirds;fill:#ffffff;stroke-width:0.05639539"
             id="path50" />
          <path
             d="m 119.40717,77.457599 0.3761,-0.343988 -0.36692,-0.247671 0.0459,-0.128422 3.14634,-0.151355 0.0871,0.224739 -0.26601,0.26143 0.28436,0.266017 -1.75663,4.256273 1.66949,0.04586 0.009,0.188047 -0.45865,0.403612 0.40361,0.128422 -0.1697,0.151354 0.0459,0.133009 -2.55468,0.110076 0.009,-0.353161 -0.45865,-0.09632 1.7658,-4.618606 -1.74746,0.03669 z"
             style="font-style:normal;font-variant:normal;font-weight:normal;font-stretch:normal;line-height:1;font-family:AngryBirds;-inkscape-font-specification:AngryBirds;fill:#ffffff;stroke-width:0.05639539"
             id="path52" />
          <path
             d="m 123.09013,83.254935 0.41279,-2.563854 0.055,-0.0092 0.18804,0.339401 0.70632,-0.247671 0.18805,0.215566 0.23391,0.02293 -1.24753,2.4125 -0.0963,-0.284363 z"
             style="font-style:normal;font-variant:normal;font-weight:normal;font-stretch:normal;line-height:1;font-family:AngryBirds;-inkscape-font-specification:AngryBirds;fill:#ffffff;stroke-width:0.05639539"
             id="path54" />
          <path
             d="m 58.273709,86.701376 0.04587,-0.165114 3.710478,-0.266017 -0.151354,0.233911 0.266017,0.27519 -0.454064,0.28895 0.454064,0.197219 -0.03669,0.160528 -1.224596,0.08714 -0.06421,4.673644 -0.142181,0.04128 -0.307296,-0.669629 -0.215565,0.573312 -0.229325,-0.233911 -0.270604,0.1697 -0.04587,-4.499357 -1.137452,0.07338 0.04586,-0.1697 -0.160527,-0.128422 0.527447,-0.394439 z"
             style="font-style:normal;font-variant:normal;font-weight:normal;font-stretch:normal;line-height:1;font-family:AngryBirds;-inkscape-font-specification:AngryBirds;fill:#ffffff;stroke-width:0.05639539"
             id="path56" />
          <path
             d="m 62.653816,86.724308 0.128422,-0.302709 -0.06421,-0.123835 2.68769,-0.178874 0.08256,0.36692 -0.582486,0.403612 0.554967,0.169701 -0.07338,0.206392 -1.371364,0.123836 -0.03211,1.444747 1.371363,-0.04586 -0.155941,0.490756 0.270604,0.110076 -0.04586,0.252258 -1.421815,0.142181 0.05962,1.531891 1.417229,-0.05504 -0.09173,0.486169 0.252257,0.114663 -0.105489,0.357747 -2.21528,0.128422 0.03669,-0.476996 -0.573313,0.03669 0.05962,-4.393868 -0.114663,-0.188046 0.403612,-0.348574 z"
             style="font-style:normal;font-variant:normal;font-weight:normal;font-stretch:normal;line-height:1;font-family:AngryBirds;-inkscape-font-specification:AngryBirds;fill:#ffffff;stroke-width:0.05639539"
             id="path58" />
          <path
             d="m 66.258806,86.348215 0.412785,-0.215565 0.330228,0.343987 0.412785,-0.137595 1.917157,3.481154 h 0.188047 l -0.05504,-3.453635 0.243084,-0.142181 0.421959,0.582485 0.394439,-0.591658 0.1697,0.02752 -0.0092,6.031248 -0.105489,0.06421 -0.334815,-0.348574 -0.47241,0.330228 -0.188046,-0.03669 -1.894225,-2.985812 -0.238498,-0.02752 -0.07338,3.031677 -0.270603,-0.03669 -0.36692,-0.499929 -0.27519,0.554967 -0.160528,-0.08256 z"
             style="font-style:normal;font-variant:normal;font-weight:normal;font-stretch:normal;line-height:1;font-family:AngryBirds;-inkscape-font-specification:AngryBirds;fill:#ffffff;stroke-width:0.05639539"
             id="path60" />
          <path
             d="m 71.281024,86.701376 0.04586,-0.165114 3.710479,-0.266017 -0.151354,0.233911 0.266017,0.27519 -0.454064,0.28895 0.454064,0.197219 -0.03669,0.160528 -1.224596,0.08714 -0.06421,4.673644 -0.142182,0.04128 -0.307295,-0.669629 -0.215566,0.573312 -0.229325,-0.233911 -0.270603,0.1697 -0.04587,-4.499357 -1.137452,0.07338 0.04586,-0.1697 -0.160528,-0.128422 0.527448,-0.394439 z"
             style="font-style:normal;font-variant:normal;font-weight:normal;font-stretch:normal;line-height:1;font-family:AngryBirds;-inkscape-font-specification:AngryBirds;fill:#ffffff;stroke-width:0.05639539"
             id="path62" />
          <path
             d="m 75.661132,86.724308 0.128422,-0.302709 -0.06421,-0.123835 2.687689,-0.178874 0.08256,0.36692 -0.582485,0.403612 0.554966,0.169701 -0.07338,0.206392 -1.371363,0.123836 -0.03211,1.444747 1.371364,-0.04586 -0.155941,0.490756 0.270603,0.110076 -0.04587,0.252258 -1.421815,0.142181 0.05962,1.531891 1.417228,-0.05504 -0.09173,0.486169 0.252258,0.114663 -0.10549,0.357747 -2.215279,0.128422 0.03669,-0.476996 -0.573313,0.03669 0.05963,-4.393868 -0.114663,-0.188046 0.403612,-0.348574 z"
             style="font-style:normal;font-variant:normal;font-weight:normal;font-stretch:normal;line-height:1;font-family:AngryBirds;-inkscape-font-specification:AngryBirds;fill:#ffffff;stroke-width:0.05639539"
             id="path64" />
          <path
             d="m 81.137414,86.348215 0.412785,-0.215565 0.330228,0.343987 0.412785,-0.137595 1.917157,3.481154 h 0.188047 l -0.05504,-3.453635 0.243084,-0.142181 0.421958,0.582485 0.394439,-0.591658 0.169701,0.02752 -0.0092,6.031248 -0.10549,0.06421 -0.334814,-0.348574 -0.47241,0.330228 -0.188046,-0.03669 -1.894225,-2.985812 -0.238498,-0.02752 -0.07338,3.031677 -0.270604,-0.03669 -0.36692,-0.499929 -0.27519,0.554967 -0.160527,-0.08256 z"
             style="font-style:normal;font-variant:normal;font-weight:normal;font-stretch:normal;line-height:1;font-family:AngryBirds;-inkscape-font-specification:AngryBirds;fill:#ffffff;stroke-width:0.05639539"
             id="path66" />
          <path
             d="m 86.3064,89.994483 q -0.01835,-0.252257 -0.02293,-0.504515 0,-0.279777 0.02752,-0.559553 0.09173,-0.958579 0.266017,-1.504372 0.174287,-0.545794 0.513689,-0.834743 0.123835,-0.10549 0.311882,-0.210979 0.192633,-0.110076 0.426544,-0.188047 0.238498,-0.08256 0.509102,-0.114662 0.128422,-0.01376 0.256844,-0.01376 l 0.288949,0.01835 -0.01835,0.545794 0.45865,-0.279777 0.19722,0.28895 0.311882,-0.123836 q 0.348574,0.357747 0.532034,1.027376 0.188046,0.665043 0.188046,1.632794 0,0.321056 -0.03669,0.701735 -0.03669,0.38068 -0.133008,0.7476 -0.09173,0.362333 -0.247671,0.669629 -0.155941,0.302709 -0.389853,0.472409 -0.330228,0.233912 -0.665042,0.357747 -0.330228,0.123836 -0.646697,0.155941 -0.146768,0.01376 -0.293536,0.01376 -0.160527,0 -0.307295,-0.01835 -0.279777,-0.03669 -0.509102,-0.123836 Q 87.035654,92.044649 86.820088,91.72818 86.609109,91.407125 86.4761,90.966821 86.347678,90.526517 86.3064,89.994483 Z m 1.119106,-0.857676 q -0.01376,0.178874 -0.0092,0.353161 0,0.330228 0.04587,0.651283 0.0688,0.486169 0.256844,0.779705 0.09173,0.151355 0.270604,0.229325 0.178873,0.07338 0.380679,0.07338 0.201806,0 0.385266,-0.0688 0.18346,-0.07338 0.279777,-0.224739 0.09173,-0.151354 0.178873,-0.435717 0.09173,-0.28895 0.142182,-0.632937 0.05504,-0.348574 0.06421,-0.724668 0,-0.05045 0,-0.100903 0,-0.321055 -0.05504,-0.619177 -0.05962,-0.343988 -0.201806,-0.614591 -0.137595,-0.270604 -0.376093,-0.412785 -0.151355,-0.09173 -0.353161,-0.09173 -0.0092,0 -0.02293,0 -0.215566,0.0046 -0.371507,0.146768 -0.270603,0.243084 -0.426544,0.710907 -0.151355,0.463237 -0.188047,0.981511 z"
             style="font-style:normal;font-variant:normal;font-weight:normal;font-stretch:normal;line-height:1;font-family:AngryBirds;-inkscape-font-specification:AngryBirds;fill:#ffffff;stroke-width:0.05639539"
             id="path68" />
          <path
             d="m 90.947939,86.196861 0.151354,-0.06421 0.421958,0.765945 0.169701,-0.674215 0.270603,0.188046 0.206393,-0.26143 0.871435,4.591087 0.169701,-0.04586 1.137452,-4.517703 0.160527,0.07338 0.279777,-0.160528 0.247671,0.678802 0.522861,-0.573312 0.05962,0.04587 -1.692418,5.994556 -0.206393,-0.01835 -0.26143,-0.36692 -0.435718,0.403612 -0.155941,-0.02752 -0.394439,-0.536621 -0.220152,0.45865 -0.137595,-0.05504 z"
             style="font-style:normal;font-variant:normal;font-weight:normal;font-stretch:normal;line-height:1;font-family:AngryBirds;-inkscape-font-specification:AngryBirds;fill:#ffffff;stroke-width:0.05639539"
             id="path70" />
          <path
             d="m 95.204212,92.040062 1.210836,-5.797336 0.376093,0.114662 0.343987,-0.302709 0.518275,0.637524 0.293536,-0.573313 0.325642,0.19722 0.302709,-0.174287 1.096173,5.934931 -0.206392,-0.142181 -0.343988,0.197219 -0.266017,-0.339401 -0.252257,0.256844 -0.348574,-1.27046 -1.747457,0.142181 -0.334815,1.279634 -0.09632,0.03669 -0.298123,-0.376093 -0.376093,0.298122 z m 1.536477,-2.18776 1.343845,-0.123836 -0.467823,-2.105204 -0.394439,0.02752 z"
             style="font-style:normal;font-variant:normal;font-weight:normal;font-stretch:normal;line-height:1;font-family:AngryBirds;-inkscape-font-specification:AngryBirds;fill:#ffffff;stroke-width:0.05639539"
             id="path72" />
          <path
             d="m 100.098,92.273974 0.28895,-6.122978 0.29354,-0.123836 0.35775,0.816397 0.39444,-0.655869 0.19722,0.197219 0.16511,-0.142181 0.8485,2.641824 h 0.15136 l 0.83474,-2.669343 0.2706,0.206392 0.36692,-0.288949 0.32106,0.45865 0.41278,-0.376093 0.27978,5.861547 -0.17887,0.04587 -0.29813,-0.504515 -0.18804,0.467823 -0.1697,-0.151354 -0.23391,0.09632 -0.2064,-2.866563 -0.1697,-0.04587 -0.98609,2.646411 -0.16971,-0.146768 -0.17887,0.07338 -0.96775,-2.481297 -0.15136,-0.01835 -0.19721,2.912428 -0.28895,0.08256 -0.35775,-0.568726 -0.27978,0.701735 z"
             style="font-style:normal;font-variant:normal;font-weight:normal;font-stretch:normal;line-height:1;font-family:AngryBirds;-inkscape-font-specification:AngryBirds;fill:#ffffff;stroke-width:0.05639539"
             id="path74" />
          <path
             d="m 105.82196,86.724308 0.12842,-0.302709 -0.0642,-0.123835 2.68769,-0.178874 0.0826,0.36692 -0.58249,0.403612 0.55497,0.169701 -0.0734,0.206392 -1.37136,0.123836 -0.0321,1.444747 1.37137,-0.04586 -0.15594,0.490756 0.2706,0.110076 -0.0459,0.252258 -1.42182,0.142181 0.0596,1.531891 1.41722,-0.05504 -0.0917,0.486169 0.25226,0.114663 -0.10549,0.357747 -2.21528,0.128422 0.0367,-0.476996 -0.57331,0.03669 0.0596,-4.393868 -0.11467,-0.188046 0.40362,-0.348574 z"
             style="font-style:normal;font-variant:normal;font-weight:normal;font-stretch:normal;line-height:1;font-family:AngryBirds;-inkscape-font-specification:AngryBirds;fill:#ffffff;stroke-width:0.05639539"
             id="path76" />
          <path
             d="m 109.42695,86.348215 0.41278,-0.215565 0.33023,0.343987 0.41279,-0.137595 1.91715,3.481154 h 0.18805 l -0.055,-3.453635 0.24309,-0.142181 0.42196,0.582485 0.39443,-0.591658 0.16971,0.02752 -0.009,6.031248 -0.10549,0.06421 -0.33481,-0.348574 -0.47241,0.330228 -0.18805,-0.03669 -1.89422,-2.985812 -0.2385,-0.02752 -0.0734,3.031677 -0.27061,-0.03669 -0.36692,-0.499929 -0.27519,0.554967 -0.16053,-0.08256 z"
             style="font-style:normal;font-variant:normal;font-weight:normal;font-stretch:normal;line-height:1;font-family:AngryBirds;-inkscape-font-specification:AngryBirds;fill:#ffffff;stroke-width:0.05639539"
             id="path78" />
          <path
             d="m 114.44917,86.701376 0.0459,-0.165114 3.71048,-0.266017 -0.15136,0.233911 0.26602,0.27519 -0.45406,0.28895 0.45406,0.197219 -0.0367,0.160528 -1.2246,0.08714 -0.0642,4.673644 -0.14218,0.04128 -0.30729,-0.669629 -0.21557,0.573312 -0.22932,-0.233911 -0.27061,0.1697 -0.0459,-4.499357 -1.13745,0.07338 0.0459,-0.1697 -0.16053,-0.128422 0.52745,-0.394439 z"
             style="font-style:normal;font-variant:normal;font-weight:normal;font-stretch:normal;line-height:1;font-family:AngryBirds;-inkscape-font-specification:AngryBirds;fill:#ffffff;stroke-width:0.05639539"
             id="path80" />
          <path
             d="m 118.82928,86.724308 0.12842,-0.302709 -0.0642,-0.123835 2.68769,-0.178874 0.0825,0.36692 -0.58248,0.403612 0.55496,0.169701 -0.0734,0.206392 -1.37136,0.123836 -0.0321,1.444747 1.37137,-0.04586 -0.15595,0.490756 0.27061,0.110076 -0.0459,0.252258 -1.42181,0.142181 0.0596,1.531891 1.41723,-0.05504 -0.0917,0.486169 0.25226,0.114663 -0.10549,0.357747 -2.21528,0.128422 0.0367,-0.476996 -0.57331,0.03669 0.0596,-4.393868 -0.11466,-0.188046 0.40361,-0.348574 z"
             style="font-style:normal;font-variant:normal;font-weight:normal;font-stretch:normal;line-height:1;font-family:AngryBirds;-inkscape-font-specification:AngryBirds;fill:#ffffff;stroke-width:0.05639539"
             id="path82" />
          <path
             d="m 122.17284,91.774045 q -0.0642,-0.165114 -0.0183,-0.357747 0.0459,-0.192633 0.13759,-0.279776 0.13301,-0.114663 0.35775,-0.142182 0.22474,-0.02752 0.44489,0.0092 0.22474,0.03211 0.38985,0.110076 0.16971,0.07797 0.19264,0.192633 0.0367,0.19722 -0.0183,0.389853 -0.0504,0.192633 -0.16053,0.293536 -0.10549,0.09173 -0.30729,0.110076 -0.20181,0.02293 -0.41279,-0.0092 -0.21098,-0.03211 -0.38526,-0.114663 -0.17429,-0.08714 -0.22015,-0.201806 z m 0.70173,-2.151068 0.32105,-4.824999 0.16053,-0.0688 0.22474,0.820984 0.70632,-0.976925 0.24309,0.628351 0.56414,-0.302709 -1.48603,4.847931 -0.17887,0.09173 -0.1376,-0.449477 z"
             style="font-style:normal;font-variant:normal;font-weight:normal;font-stretch:normal;line-height:1;font-family:AngryBirds;-inkscape-font-specification:AngryBirds;fill:#ffffff;stroke-width:0.05639539"
             id="path84" />
        </g>
        <g
           aria-label=":("
           transform="rotate(90)"
           style="font-style:normal;font-variant:normal;font-weight:normal;font-stretch:normal;font-size:9.39315319px;line-height:1;font-family:'URW Gothic L';-inkscape-font-specification:'URW Gothic L';text-align:center;letter-spacing:0px;word-spacing:0px;text-anchor:middle;fill:#ffffff;fill-opacity:1;stroke:none;stroke-width:0.05639539"
           id="text29-5">
          <path
             d="m 94.916755,-88.161644 q -0.165114,-0.178874 -0.178873,-0.376093 -0.0092,-0.19722 0.04128,-0.518275 0.02752,-0.215565 0.155941,-0.380679 0.133009,-0.169701 0.321055,-0.256844 0.188047,-0.09173 0.399026,-0.09173 0.210979,0 0.399025,0.119249 0.05504,0.03669 0.08714,0.206392 0.03669,0.169701 0.02293,0.38068 -0.01376,0.210979 -0.08256,0.412785 -0.06421,0.201806 -0.188046,0.307295 -0.114663,0.09173 -0.261431,0.160528 -0.142181,0.06421 -0.284363,0.09173 -0.137595,0.02752 -0.256844,0.01376 -0.114662,-0.01376 -0.174287,-0.0688 z m 0.238498,-3.398597 q -0.1697,-0.178873 -0.178873,-0.376093 -0.0092,-0.197219 0.03669,-0.518275 0.02752,-0.215565 0.155941,-0.385266 0.133008,-0.1697 0.321055,-0.256844 0.188046,-0.09173 0.399025,-0.09173 0.210979,0 0.399026,0.123836 0.05504,0.03669 0.08714,0.206392 0.03669,0.169701 0.02293,0.38068 -0.01376,0.210979 -0.08256,0.412785 -0.06421,0.201806 -0.18346,0.307296 -0.114663,0.09173 -0.261431,0.160527 -0.142181,0.06421 -0.284363,0.09173 -0.142181,0.02752 -0.26143,0.01376 -0.114663,-0.01376 -0.169701,-0.0688 z"
             style="font-style:normal;font-variant:normal;font-weight:normal;font-stretch:normal;line-height:1;font-family:AngryBirds;-inkscape-font-specification:AngryBirds;fill:#ffffff;stroke-width:0.05639539"
             id="path21" />
          <path
             d="m 97.1779,-90.253088 q -0.05962,-0.568726 -0.05962,-1.142039 0,-0.577899 0.01835,-1.059482 0.0092,-0.224738 0.07797,-0.596245 0.07338,-0.371506 0.18346,-0.752186 0.114662,-0.380679 0.247671,-0.706321 0.137595,-0.330228 0.279776,-0.481582 0.224739,-0.243085 0.545794,-0.417372 0.325642,-0.174287 0.65587,-0.266017 0.01835,0.01835 0.04587,0.04128 0.02752,0.02293 0.04586,0.04128 l -0.298123,0.421958 0.486169,0.215566 v 0.05962 q -0.302709,0.224739 -0.499928,0.64211 -0.192633,0.417372 -0.307296,0.940233 -0.110076,0.518274 -0.146768,1.087001 -0.03211,0.568726 -0.01376,1.10076 0.02293,0.532034 0.08714,0.967751 0.06421,0.435718 0.151355,0.687975 0.02752,0.09173 0.09632,0.229325 0.07338,0.137595 0.169701,0.28895 0.100903,0.151354 0.233911,0.293536 0.137595,0.137595 0.307296,0.243084 -0.07338,0.04586 -0.169701,0.10549 -0.09632,0.05504 -0.215565,0.119249 l 0.252257,0.403612 q -0.01835,0.01835 -0.03211,0.02293 -0.01376,0.0046 -0.03211,0.02293 -0.03669,0.03669 -0.05962,0.04587 -0.178874,-0.0092 -0.38068,-0.06421 -0.197219,-0.05504 -0.399025,-0.146768 -0.19722,-0.08714 -0.366921,-0.197219 -0.165114,-0.10549 -0.270603,-0.229326 -0.279777,-0.339401 -0.426545,-0.843916 -0.146768,-0.509101 -0.206392,-1.077827 z"
             style="font-style:normal;font-variant:normal;font-weight:normal;font-stretch:normal;line-height:1;font-family:AngryBirds;-inkscape-font-specification:AngryBirds;fill:#ffffff;stroke-width:0.05639539"
             id="path23" />
        </g>
      </g>
    </g>
  </g>
</svg>
