<?xml version="1.0" encoding="UTF-8" standalone="no"?>
<!-- Created with Inkscape (http://www.inkscape.org/) -->

<svg
   xmlns:dc="http://purl.org/dc/elements/1.1/"
   xmlns:cc="http://creativecommons.org/ns#"
   xmlns:rdf="http://www.w3.org/1999/02/22-rdf-syntax-ns#"
   xmlns:svg="http://www.w3.org/2000/svg"
   xmlns="http://www.w3.org/2000/svg"
   xmlns:xlink="http://www.w3.org/1999/xlink"
   xmlns:sodipodi="http://sodipodi.sourceforge.net/DTD/sodipodi-0.dtd"
   xmlns:inkscape="http://www.inkscape.org/namespaces/inkscape"
   width="210mm"
   height="297mm"
   viewBox="0 0 210 297"
   version="1.1"
   id="svg8"
   inkscape:version="0.92.1 r15371"
   sodipodi:docname="msg_acerto.svg">
  <defs
     id="defs2">
    <inkscape:path-effect
       effect="bspline"
       id="path-effect33"
       is_visible="true"
       weight="33.333333"
       steps="2"
       helper_size="0"
       apply_no_weight="true"
       apply_with_weight="true"
       only_selected="false" />
    <linearGradient
       inkscape:collect="always"
       id="linearGradient26">
      <stop
         style="stop-color:#ffff00;stop-opacity:1;"
         offset="0"
         id="stop22" />
      <stop
         style="stop-color:#a3a35c;stop-opacity:1"
         offset="1"
         id="stop24" />
    </linearGradient>
    <linearGradient
       inkscape:collect="always"
       xlink:href="#linearGradient26"
       id="linearGradient28"
       x1="48.85342"
       y1="85.900291"
       x2="-1.7008941"
       y2="72.198654"
       gradientUnits="userSpaceOnUse"
       gradientTransform="translate(-7.2602112e-5,3.7700306e-5)" />
  </defs>
  <sodipodi:namedview
     id="base"
     pagecolor="#ffffff"
     bordercolor="#666666"
     borderopacity="1.0"
     inkscape:pageopacity="0.0"
     inkscape:pageshadow="2"
     inkscape:zoom="1"
     inkscape:cx="397.83099"
     inkscape:cy="858.01991"
     inkscape:document-units="mm"
     inkscape:current-layer="layer1"
     showgrid="false"
     inkscape:window-width="1269"
     inkscape:window-height="704"
     inkscape:window-x="0"
     inkscape:window-y="27"
     inkscape:window-maximized="1" />
  <metadata
     id="metadata5">
    <rdf:RDF>
      <cc:Work
         rdf:about="">
        <dc:format>image/svg+xml</dc:format>
        <dc:type
           rdf:resource="http://purl.org/dc/dcmitype/StillImage" />
        <dc:title />
      </cc:Work>
    </rdf:RDF>
  </metadata>
  <g
     inkscape:label="Camada 1"
     inkscape:groupmode="layer"
     id="layer1">
    <path
       style="opacity:1;fill:#ff6600;fill-opacity:1;stroke:none;stroke-width:1.0882746;stroke-linejoin:round;stroke-miterlimit:4;stroke-dasharray:none;stroke-dashoffset:0;stroke-opacity:1"
       d="M 7.8429322,75.042961 H 78.44868 V 104.15366 H 7.8429322 Z"
       id="rect20"
       inkscape:connector-curvature="0" />
    <g
       aria-label="Você  perdeu! :("
       style="font-style:normal;font-variant:normal;font-weight:normal;font-stretch:normal;font-size:9.60621262px;line-height:1;font-family:'URW Gothic L';-inkscape-font-specification:'URW Gothic L';text-align:center;letter-spacing:0px;word-spacing:0px;text-anchor:middle;fill:#ffffff;fill-opacity:1;stroke:none;stroke-width:0.24015531"
       id="text96"
       transform="translate(1.0402279,1.4121393)">
      <g
         id="g43"
         transform="translate(-49.578496,0.93544332)"
         style="fill:#ffffff">
        <g
           aria-label="você acertou!!!"
           style="font-style:normal;font-variant:normal;font-weight:normal;font-stretch:normal;font-size:10.58333302px;line-height:1.25;font-family:'URW Gothic L';-inkscape-font-specification:'URW Gothic L';letter-spacing:0px;word-spacing:0px;fill:#ffffff;fill-opacity:1;stroke:none;stroke-width:0.06354109"
           id="text29">
          <path
             d="m 58.887625,93.162959 0.170532,-0.07235 0.475423,0.862996 0.191203,-0.759643 0.304891,0.211873 0.232544,-0.294555 0.981852,5.17281 0.191203,-0.05168 1.281576,-5.090129 0.180867,0.08268 0.315226,-0.180868 0.279053,0.764811 0.589111,-0.645955 0.06718,0.05168 -1.906861,6.75411 -0.232543,-0.02067 -0.294556,-0.413411 -0.490926,0.454752 -0.1757,-0.031 -0.444417,-0.604615 -0.248047,0.516765 -0.15503,-0.06201 z"
             style="font-style:normal;font-variant:normal;font-weight:normal;font-stretch:normal;font-family:AngryBirds;-inkscape-font-specification:AngryBirds;fill:#ffffff;stroke-width:0.06354109"
             id="path19" />
          <path
             d="m 64.530691,97.441767 q -0.02067,-0.28422 -0.02584,-0.56844 0,-0.315227 0.03101,-0.630453 0.103353,-1.080037 0.299723,-1.694987 0.196371,-0.614949 0.578776,-0.940511 0.139526,-0.118856 0.3514,-0.237711 0.217041,-0.124024 0.480591,-0.211874 0.268717,-0.09302 0.573608,-0.129191 0.144694,-0.0155 0.289388,-0.0155 l 0.325562,0.02067 -0.02067,0.614949 0.516764,-0.315226 0.222209,0.325562 0.3514,-0.139527 q 0.392741,0.403077 0.599446,1.157552 0.211874,0.749309 0.211874,1.839681 0,0.361735 -0.04134,0.79065 -0.04134,0.428914 -0.149862,0.842326 -0.103353,0.408243 -0.279053,0.754475 -0.1757,0.341065 -0.43925,0.532268 -0.37207,0.263549 -0.749308,0.403076 -0.37207,0.139526 -0.728637,0.175696 -0.165365,0.0155 -0.33073,0.0155 -0.180867,0 -0.346232,-0.0207 -0.315226,-0.04135 -0.573608,-0.13953 -0.325562,-0.118856 -0.568441,-0.475423 -0.237711,-0.361735 -0.387573,-0.857829 -0.144694,-0.496094 -0.191203,-1.095541 z m 1.260905,-0.966349 q -0.0155,0.201538 -0.01033,0.397909 0,0.37207 0.05168,0.733805 0.07752,0.54777 0.289388,0.878499 0.103353,0.170533 0.304891,0.258383 0.201538,0.08268 0.428915,0.08268 0.227376,0 0.434082,-0.07752 0.206705,-0.08268 0.315226,-0.253214 0.103353,-0.170533 0.201538,-0.490926 0.103353,-0.325562 0.160197,-0.713135 0.06201,-0.392741 0.07235,-0.816488 0,-0.05684 0,-0.113688 0,-0.361735 -0.06201,-0.697632 -0.06718,-0.387573 -0.227376,-0.692464 -0.155029,-0.304891 -0.423747,-0.465088 -0.170532,-0.103353 -0.397908,-0.103353 -0.01034,0 -0.02584,0 -0.242879,0.0052 -0.418579,0.165365 -0.304891,0.273885 -0.480591,0.800985 -0.170532,0.521932 -0.211873,1.105875 z"
             style="font-style:normal;font-variant:normal;font-weight:normal;font-stretch:normal;font-family:AngryBirds;-inkscape-font-specification:AngryBirds;fill:#ffffff;stroke-width:0.06354109"
             id="path21" />
          <path
             d="m 69.853363,96.676956 q 0,-0.304891 0.08785,-0.81132 0.09302,-0.511596 0.289388,-1.033528 0.196371,-0.5271 0.516765,-0.956014 0.325561,-0.428915 0.790649,-0.578776 0.516764,-0.160197 0.98702,-0.217041 0.155029,-0.02067 0.325561,-0.0155 0.33073,0 0.687297,0.07751 0.02067,0.03101 0.03101,0.07752 0.01033,0.04651 0.03101,0.07752 l -0.728638,0.258382 0.506429,0.28422 -0.222209,0.191203 0.08785,0.26355 q -0.139526,0.01033 -0.310058,0.03101 -0.170533,0.02067 -0.341065,0.05684 -0.165364,0.03101 -0.320394,0.07235 -0.155029,0.04134 -0.268717,0.103353 -0.211873,0.103352 -0.361735,0.39274 -0.144694,0.284221 -0.237712,0.625285 -0.08785,0.335897 -0.134358,0.671794 -0.04134,0.330729 -0.04134,0.532267 0,0.180868 0.02584,0.428915 0.03101,0.248046 0.09302,0.516764 0.06201,0.26355 0.170532,0.501261 0.113689,0.237712 0.294556,0.387573 0.09302,0.08268 0.28422,0.129192 0.191203,0.04651 0.423747,0.07235 0.232544,0.02067 0.475423,0.031 0.248047,0.01034 0.459921,0.01034 -0.02067,0.02067 -0.04651,0.05684 -0.02067,0.03617 -0.05168,0.08785 l 0.222209,0.242879 -0.5271,0.299723 0.578776,0.211874 q -0.02067,0.08268 -0.04134,0.124023 -0.63562,0.139525 -1.276408,0.175695 -0.09302,0.005 -0.186035,0.005 -0.527099,0 -0.971517,-0.180865 -0.403076,-0.160197 -0.65629,-0.521932 -0.253215,-0.366903 -0.397909,-0.821655 -0.139526,-0.454753 -0.19637,-0.945679 -0.05168,-0.490926 -0.05168,-0.914673 z"
             style="font-style:normal;font-variant:normal;font-weight:normal;font-stretch:normal;font-family:AngryBirds;-inkscape-font-specification:AngryBirds;fill:#ffffff;stroke-width:0.06354109"
             id="path23" />
          <path
             d="m 74.214854,92.537674 0.976684,-1.343587 0.387573,0.07235 0.191203,-0.211873 0.341065,0.09818 0.273885,-0.06718 1.049031,1.348755 -0.04134,0.05168 -0.201538,-0.108521 -0.118856,0.299724 -0.222208,-0.108521 -0.24288,0.07752 -0.868164,-0.857829 -0.707967,0.857829 -0.191203,0.07235 -0.201538,-0.232544 -0.335896,0.09302 z m 0.08785,1.219564 0.144694,-0.341065 -0.07235,-0.139526 3.028238,-0.201538 0.09302,0.413411 -0.656291,0.454753 0.625285,0.191203 -0.08268,0.232544 -1.545125,0.139526 -0.03617,1.627808 1.545125,-0.05168 -0.1757,0.552938 0.304891,0.124024 -0.05168,0.28422 -1.601969,0.160197 0.06718,1.725993 1.596802,-0.06201 -0.103353,0.54777 0.28422,0.129191 -0.118856,0.403076 -2.495971,0.144696 0.04134,-0.537437 -0.645955,0.04134 0.06718,-4.950602 -0.129191,-0.211874 0.454752,-0.392741 z"
             style="font-style:normal;font-variant:normal;font-weight:normal;font-stretch:normal;font-family:AngryBirds;-inkscape-font-specification:AngryBirds;fill:#ffffff;stroke-width:0.06354109"
             id="path25" />
          <path
             d="m 79.930268,99.746536 1.364258,-6.531901 0.423747,0.129191 0.387573,-0.341064 0.583944,0.718302 0.330729,-0.645955 0.366903,0.222209 0.341064,-0.196371 1.235067,6.68693 -0.232544,-0.160197 -0.387573,0.222209 -0.299724,-0.382405 -0.28422,0.289388 -0.392741,-1.431438 -1.968872,0.160197 -0.377238,1.441773 -0.10852,0.04134 -0.335897,-0.423747 -0.423747,0.335897 z m 1.731161,-2.464965 1.514119,-0.139527 -0.527099,-2.371948 -0.444418,0.03101 z"
             style="font-style:normal;font-variant:normal;font-weight:normal;font-stretch:normal;font-family:AngryBirds;-inkscape-font-specification:AngryBirds;fill:#ffffff;stroke-width:0.06354109"
             id="path27" />
          <path
             d="m 85.314951,96.676956 q 0,-0.304891 0.08785,-0.81132 0.09302,-0.511596 0.289388,-1.033528 0.196371,-0.5271 0.516765,-0.956014 0.325561,-0.428915 0.790649,-0.578776 0.516764,-0.160197 0.98702,-0.217041 0.155029,-0.02067 0.325561,-0.0155 0.330729,0 0.687297,0.07751 0.02067,0.03101 0.03101,0.07752 0.01034,0.04651 0.03101,0.07752 l -0.728638,0.258382 0.506429,0.28422 -0.222209,0.191203 0.08785,0.26355 q -0.139526,0.01033 -0.310058,0.03101 -0.170533,0.02067 -0.341065,0.05684 -0.165364,0.03101 -0.320394,0.07235 -0.155029,0.04134 -0.268717,0.103353 -0.211874,0.103352 -0.361735,0.39274 -0.144694,0.284221 -0.237712,0.625285 -0.08785,0.335897 -0.134359,0.671794 -0.04134,0.330729 -0.04134,0.532267 0,0.180868 0.02584,0.428915 0.031,0.248046 0.09302,0.516764 0.06201,0.26355 0.170532,0.501261 0.113689,0.237712 0.294556,0.387573 0.09302,0.08268 0.28422,0.129192 0.191203,0.04651 0.423747,0.07235 0.232544,0.02067 0.475423,0.031 0.248047,0.01034 0.459921,0.01034 -0.02067,0.02067 -0.04651,0.05684 -0.02067,0.03617 -0.05168,0.08785 l 0.222209,0.242879 -0.5271,0.299723 0.578776,0.211874 q -0.02067,0.08268 -0.04134,0.124023 -0.63562,0.139525 -1.276408,0.175695 -0.09302,0.005 -0.186035,0.005 -0.527099,0 -0.971517,-0.180865 -0.403076,-0.160197 -0.65629,-0.521932 -0.253215,-0.366903 -0.397909,-0.821655 -0.139526,-0.454753 -0.19637,-0.945679 -0.05168,-0.490926 -0.05168,-0.914673 z"
             style="font-style:normal;font-variant:normal;font-weight:normal;font-stretch:normal;font-family:AngryBirds;-inkscape-font-specification:AngryBirds;fill:#ffffff;stroke-width:0.06354109"
             id="path29" />
          <path
             d="m 89.764291,93.757238 0.144694,-0.341065 -0.07235,-0.139526 3.028239,-0.201538 0.09302,0.413411 -0.656291,0.454753 0.625285,0.191203 -0.08268,0.232544 -1.545126,0.139526 -0.03617,1.627808 1.545125,-0.05168 -0.1757,0.552938 0.304891,0.124024 -0.05168,0.28422 -1.601969,0.160197 0.06718,1.725993 1.596802,-0.06201 -0.103353,0.54777 0.28422,0.129191 -0.118856,0.403076 -2.495971,0.144696 0.04134,-0.537437 -0.645956,0.04134 0.06718,-4.950602 -0.129191,-0.211874 0.454752,-0.392741 z"
             style="font-style:normal;font-variant:normal;font-weight:normal;font-stretch:normal;font-family:AngryBirds;-inkscape-font-specification:AngryBirds;fill:#ffffff;stroke-width:0.06354109"
             id="path31" />
          <path
             d="m 93.665861,93.519526 0.03617,-0.19637 q 0.583944,-0.191203 1.167887,-0.289388 0.589112,-0.103353 1.136882,-0.108521 0.03101,0 0.05684,0 0.516764,0 0.966349,0.08785 0.470256,0.09302 0.816488,0.320394 0.315226,0.201538 0.501261,0.506429 0.191203,0.304891 0.227376,0.687297 0.01034,0.09302 0.01034,0.19637 0,0.294556 -0.08785,0.625285 -0.113688,0.43925 -0.392741,0.894002 -0.05168,0.09302 -0.160197,0.232544 -0.108521,0.139527 -0.237712,0.299723 -0.124023,0.15503 -0.273885,0.310059 -0.144694,0.149862 -0.28422,0.268718 0.129191,0.30489 0.273885,0.645955 0.149862,0.335897 0.289388,0.651123 0.144694,0.310059 0.273885,0.573608 0.129191,0.258382 0.201538,0.403076 l -0.07235,0.07752 -0.614949,-0.341064 -0.03101,0.527099 -0.211874,-0.09302 -0.191202,0.129191 -1.281576,-1.979208 -0.666626,0.26355 -0.05168,1.586467 -0.170532,-0.02067 -0.3514,-0.552938 -0.273885,0.713135 -0.191203,-0.07751 q -0.01033,-0.315226 -0.03617,-0.904337 -0.02584,-0.589111 -0.04651,-1.281576 -0.02067,-0.692464 -0.02067,-1.405599 0,-0.713134 0.04134,-1.297078 l 0.03101,-0.413411 -0.335897,-0.24288 0.558106,-0.506429 z m 1.524455,3.327962 q 0.382406,-0.149861 0.785482,-0.403076 0.403076,-0.253214 0.697632,-0.552937 0.294555,-0.304891 0.428914,-0.630453 0.06201,-0.144694 0.06201,-0.289388 0,-0.170532 -0.08785,-0.335897 -0.09302,-0.170532 -0.397909,-0.217041 -0.248046,-0.04134 -0.511596,-0.04134 -0.05684,0 -0.118856,0 -0.382406,0.02067 -0.837158,0.09819 z"
             style="font-style:normal;font-variant:normal;font-weight:normal;font-stretch:normal;font-family:AngryBirds;-inkscape-font-specification:AngryBirds;fill:#ffffff;stroke-width:0.06354109"
             id="path33" />
          <path
             d="m 98.988537,93.7314 0.05168,-0.186035 4.180627,-0.299724 -0.17054,0.26355 0.29973,0.310059 -0.5116,0.325561 0.5116,0.222209 -0.0413,0.180867 -1.37976,0.09819 -0.0724,5.265828 -0.1602,0.04651 -0.34623,-0.754476 -0.24288,0.645955 -0.25838,-0.26355 -0.30489,0.191203 -0.0517,-5.069458 -1.281575,0.08268 0.05168,-0.191203 -0.180868,-0.144694 0.594279,-0.444418 z"
             style="font-style:normal;font-variant:normal;font-weight:normal;font-stretch:normal;font-family:AngryBirds;-inkscape-font-specification:AngryBirds;fill:#ffffff;stroke-width:0.06354109"
             id="path35" />
          <path
             d="m 103.3707,97.441767 q -0.0207,-0.28422 -0.0258,-0.56844 0,-0.315227 0.031,-0.630453 0.10335,-1.080037 0.29972,-1.694987 0.19637,-0.614949 0.57877,-0.940511 0.13953,-0.118856 0.3514,-0.237711 0.21705,-0.124024 0.4806,-0.211874 0.26871,-0.09302 0.5736,-0.129191 0.1447,-0.0155 0.28939,-0.0155 l 0.32556,0.02067 -0.0207,0.614949 0.51677,-0.315226 0.22221,0.325562 0.3514,-0.139527 q 0.39274,0.403077 0.59944,1.157552 0.21188,0.749309 0.21188,1.839681 0,0.361735 -0.0413,0.79065 -0.0413,0.428914 -0.14986,0.842326 -0.10335,0.408243 -0.27905,0.754475 -0.1757,0.341065 -0.43925,0.532268 -0.37207,0.263549 -0.74931,0.403076 -0.37207,0.139526 -0.72864,0.175696 -0.16536,0.0155 -0.33072,0.0155 -0.18087,0 -0.34624,-0.0207 -0.31522,-0.04135 -0.57361,-0.13953 -0.32556,-0.118856 -0.56844,-0.475423 -0.23771,-0.361735 -0.38757,-0.857829 -0.14469,-0.496094 -0.1912,-1.095541 z m 1.2609,-0.966349 q -0.0155,0.201538 -0.0103,0.397909 0,0.37207 0.0517,0.733805 0.0775,0.54777 0.28939,0.878499 0.10335,0.170533 0.30489,0.258383 0.20154,0.08268 0.42892,0.08268 0.22737,0 0.43408,-0.07752 0.20671,-0.08268 0.31523,-0.253214 0.10335,-0.170533 0.20153,-0.490926 0.10336,-0.325562 0.1602,-0.713135 0.062,-0.392741 0.0724,-0.816488 0,-0.05684 0,-0.113688 0,-0.361735 -0.062,-0.697632 -0.0672,-0.387573 -0.22738,-0.692464 -0.15503,-0.304891 -0.42375,-0.465088 -0.17053,-0.103353 -0.39791,-0.103353 -0.0103,0 -0.0258,0 -0.24288,0.0052 -0.41858,0.165365 -0.30489,0.273885 -0.48059,0.800985 -0.17054,0.521932 -0.21188,1.105875 z"
             style="font-style:normal;font-variant:normal;font-weight:normal;font-stretch:normal;font-family:AngryBirds;-inkscape-font-specification:AngryBirds;fill:#ffffff;stroke-width:0.06354109"
             id="path37" />
          <path
             d="m 108.78122,97.255732 q 0,-0.594279 0.005,-1.074869 0.005,-0.480591 0.031,-0.930176 0.0258,-0.449585 0.0672,-0.919841 0.0413,-0.470255 0.11886,-1.033528 l 0.34623,0.139526 0.41341,-0.315226 0.39274,0.242879 0.1447,-0.05168 q -0.031,0.315226 -0.0672,0.826823 -0.0362,0.506429 -0.0724,1.064534 -0.0362,0.552938 -0.0517,1.080037 -0.005,0.227377 -0.0103,0.418579 0,0.258383 0.0155,0.459921 0.0517,0.997355 0.53744,1.266072 0.16019,0.08785 0.3669,0.08785 0.41341,0 0.99735,-0.356567 0.062,-0.149862 0.0982,-0.428915 0.0413,-0.28422 0.062,-0.63562 0.0207,-0.356567 0.031,-0.759643 0.0103,-0.403076 0.0103,-0.81132 0.0103,-0.687297 0.0155,-1.35909 0.005,-0.676962 0.0258,-1.131714 l 0.28939,-0.07235 0.35657,0.718302 0.46509,-0.676961 0.24804,-0.01033 q -0.0103,0.434082 -0.0258,1.198893 -0.0103,0.759643 -0.0207,1.689819 -0.0103,0.930176 -0.0103,1.932699 0,0.997355 0.0207,1.891357 l -0.26355,-0.08785 -0.35657,0.310059 -0.39274,-0.258382 -0.31006,0.149861 q -0.0103,-0.05168 -0.0362,-0.139526 -0.0258,-0.09302 -0.0982,-0.28422 -0.31522,0.139526 -0.69763,0.242879 -0.3824,0.09819 -0.74931,0.134358 -0.19637,0.02067 -0.37723,0.02067 -0.15503,0 -0.29973,-0.0155 -0.31006,-0.03101 -0.48059,-0.160197 -0.26355,-0.191203 -0.41341,-0.527099 -0.14986,-0.341065 -0.22221,-0.697632 -0.0723,-0.361735 -0.0879,-0.671794 -0.0155,-0.315226 -0.0155,-0.465088 z"
             style="font-style:normal;font-variant:normal;font-weight:normal;font-stretch:normal;font-family:AngryBirds;-inkscape-font-specification:AngryBirds;fill:#ffffff;stroke-width:0.06354109"
             id="path39" />
          <path
             d="m 114.07805,99.446813 q -0.0723,-0.186035 -0.0207,-0.403076 0.0517,-0.217041 0.15503,-0.315226 0.14986,-0.129192 0.40308,-0.160197 0.25321,-0.03101 0.50126,0.01033 0.25321,0.03617 0.43925,0.124023 0.1912,0.08785 0.21704,0.217041 0.0413,0.222209 -0.0207,0.43925 -0.0568,0.217041 -0.18087,0.330729 -0.11885,0.103353 -0.34623,0.124024 -0.22738,0.02584 -0.46509,-0.01034 -0.23771,-0.03617 -0.43408,-0.129191 -0.19637,-0.09819 -0.24805,-0.227376 z m 0.79065,-2.423625 0.36174,-5.43636 0.18087,-0.07751 0.25321,0.925008 0.79582,-1.100708 0.27388,0.707967 0.63562,-0.341064 -1.67431,5.462199 -0.20154,0.103353 -0.15503,-0.506429 z"
             style="font-style:normal;font-variant:normal;font-weight:normal;font-stretch:normal;font-family:AngryBirds;-inkscape-font-specification:AngryBirds;fill:#ffffff;stroke-width:0.06354109"
             id="path41" />
          <path
             d="m 117.63339,99.446813 q -0.0724,-0.186035 -0.0207,-0.403076 0.0517,-0.217041 0.15503,-0.315226 0.14986,-0.129192 0.40307,-0.160197 0.25322,-0.03101 0.50127,0.01033 0.25321,0.03617 0.43925,0.124023 0.1912,0.08785 0.21704,0.217041 0.0413,0.222209 -0.0207,0.43925 -0.0568,0.217041 -0.18087,0.330729 -0.11886,0.103353 -0.34623,0.124024 -0.22738,0.02584 -0.46509,-0.01034 -0.23771,-0.03617 -0.43408,-0.129191 -0.19637,-0.09819 -0.24805,-0.227376 z m 0.79065,-2.423625 0.36173,-5.43636 0.18087,-0.07751 0.25322,0.925008 0.79581,-1.100708 0.27389,0.707967 0.63562,-0.341064 -1.67432,5.462199 -0.20154,0.103353 -0.15503,-0.506429 z"
             style="font-style:normal;font-variant:normal;font-weight:normal;font-stretch:normal;font-family:AngryBirds;-inkscape-font-specification:AngryBirds;fill:#ffffff;stroke-width:0.06354109"
             id="path43" />
          <path
             d="m 121.18873,99.446813 q -0.0724,-0.186035 -0.0207,-0.403076 0.0517,-0.217041 0.15503,-0.315226 0.14986,-0.129192 0.40307,-0.160197 0.25322,-0.03101 0.50127,0.01033 0.25321,0.03617 0.43925,0.124023 0.1912,0.08785 0.21704,0.217041 0.0413,0.222209 -0.0207,0.43925 -0.0568,0.217041 -0.18087,0.330729 -0.11886,0.103353 -0.34623,0.124024 -0.22738,0.02584 -0.46509,-0.01034 -0.23771,-0.03617 -0.43408,-0.129191 -0.19637,-0.09819 -0.24805,-0.227376 z m 0.79065,-2.423625 0.36173,-5.43636 0.18087,-0.07751 0.25322,0.925008 0.79581,-1.100708 0.27389,0.707967 0.63562,-0.341064 -1.67432,5.462199 -0.20154,0.103353 -0.15503,-0.506429 z"
             style="font-style:normal;font-variant:normal;font-weight:normal;font-stretch:normal;font-family:AngryBirds;-inkscape-font-specification:AngryBirds;fill:#ffffff;stroke-width:0.06354109"
             id="path45" />
        </g>
        <g
           aria-label="Parabéns"
           style="font-style:normal;font-variant:normal;font-weight:normal;font-stretch:normal;font-size:17.04535866px;line-height:1.25;font-family:'URW Gothic L';-inkscape-font-specification:'URW Gothic L';letter-spacing:0px;word-spacing:0px;fill:#ffffff;fill-opacity:1;stroke:none;stroke-width:0.10233834"
           id="text35">
          <path
             d="m 58.887572,77.1719 0.09988,-0.499376 q 0.865585,-0.34124 1.880982,-0.499376 1.015397,-0.166458 1.964211,-0.166458 0.948814,0 1.731169,0.183104 0.782356,0.174782 1.223471,0.516022 0.632543,0.507699 0.973783,1.256762 0.34124,0.740741 0.432792,1.548065 0.03329,0.307948 0.04162,0.615897 0,0.499375 -0.09988,0.982105 -0.149813,0.782356 -0.507699,1.364961 -0.76571,1.22347 -2.039118,1.947565 -1.273408,0.724095 -2.788181,1.115273 -0.03329,0.457761 -0.05826,1.007074 -0.02497,0.549313 -0.04162,1.090304 -0.01665,0.532667 -0.01665,1.015397 v 0.82397 l -0.374532,0.191427 -0.873907,-1.789429 -0.699126,1.448189 -0.266334,-0.224719 q -0.01665,-0.424469 -0.03329,-1.131918 -0.0083,-0.707449 -0.03329,-1.573034 -0.02497,-0.873907 -0.04161,-1.831044 -0.01665,-0.96546 -0.02497,-1.93092 -0.0083,-0.482729 -0.0083,-0.940491 0.0083,-0.466084 0.0083,-0.915522 0.0083,-0.898876 0.02497,-1.631294 l 0.432792,-0.649188 -0.466084,-0.249688 1.007074,-0.923845 z m 2.81315,5.892634 q 0.407823,-0.04994 0.774032,-0.174782 0.366209,-0.133167 0.674158,-0.282979 0.307948,-0.149813 0.524344,-0.307949 0.224719,-0.166458 0.34124,-0.274656 0.258011,-0.241365 0.474407,-0.582605 0.224719,-0.349563 0.349563,-0.732418 0.09155,-0.299626 0.09155,-0.615897 0,-0.09155 -0.0083,-0.183104 -0.03329,-0.407824 -0.307948,-0.76571 -0.307948,-0.407823 -0.68248,-0.54099 -0.332917,-0.124844 -0.68248,-0.124844 -0.04162,0 -0.08323,0 -0.391177,0.01665 -0.757386,0.158135 -0.366209,0.133167 -0.657512,0.274657 -0.03329,0.973783 -0.03329,2.005826 0,1.02372 -0.01665,2.147316 z"
             style="font-style:normal;font-variant:normal;font-weight:normal;font-stretch:normal;font-family:AngryBirds;-inkscape-font-specification:AngryBirds;fill:#ffffff;stroke-width:0.10233834"
             id="path48" />
          <path
             d="m 67.909627,89.273439 2.197253,-10.520183 0.68248,0.208074 0.62422,-0.549314 0.940491,1.156888 0.532667,-1.040367 0.590928,0.357886 0.549314,-0.316271 1.98918,10.76987 -0.374532,-0.258011 -0.62422,0.357886 -0.48273,-0.615896 -0.457761,0.466084 -0.632542,-2.305452 -3.171036,0.258011 -0.607574,2.322097 -0.174782,0.06658 -0.54099,-0.68248 -0.68248,0.54099 z m 2.788181,-3.970037 2.438618,-0.224719 -0.848938,-3.820225 -0.715772,0.04994 z"
             style="font-style:normal;font-variant:normal;font-weight:normal;font-stretch:normal;font-family:AngryBirds;-inkscape-font-specification:AngryBirds;fill:#ffffff;stroke-width:0.10233834"
             id="path50" />
          <path
             d="m 76.681993,79.244309 0.05826,-0.316271 q 0.940491,-0.307948 1.880982,-0.466084 0.948814,-0.166459 1.831045,-0.174782 0.04994,0 0.09155,0 0.832293,0 1.556388,0.14149 0.757386,0.149813 1.315023,0.516022 0.507698,0.324594 0.807324,0.815647 0.307948,0.491053 0.366209,1.106949 0.01665,0.149813 0.01665,0.316272 0,0.474407 -0.141489,1.007074 -0.183105,0.707449 -0.632543,1.439867 -0.08323,0.149813 -0.258011,0.374532 -0.174781,0.224719 -0.382855,0.48273 -0.19975,0.249687 -0.441115,0.499375 -0.233042,0.241365 -0.457761,0.432793 0.208073,0.491052 0.441115,1.040366 0.241365,0.54099 0.466084,1.048689 0.233042,0.499376 0.441116,0.923845 0.208073,0.416146 0.324594,0.649188 l -0.116521,0.124844 -0.990429,-0.549313 -0.04994,0.848939 -0.34124,-0.149813 -0.307949,0.208073 -2.064086,-3.187682 -1.073658,0.42447 -0.08323,2.555139 -0.274657,-0.03329 -0.565959,-0.890553 -0.441115,1.148564 -0.307949,-0.124844 q -0.01665,-0.507698 -0.05826,-1.456512 -0.04162,-0.948814 -0.07491,-2.064087 -0.03329,-1.115272 -0.03329,-2.263836 0,-1.148565 0.06658,-2.089056 l 0.04994,-0.665834 -0.540991,-0.391178 0.898877,-0.815647 z m 2.455264,5.359967 q 0.615897,-0.241365 1.265085,-0.649189 0.649189,-0.407823 1.123596,-0.890553 0.474407,-0.491053 0.690803,-1.015398 0.09987,-0.233042 0.09987,-0.466084 0,-0.274656 -0.14149,-0.54099 -0.149813,-0.274657 -0.640865,-0.349563 -0.399501,-0.06658 -0.82397,-0.06658 -0.09155,0 -0.191428,0 -0.615897,0.03329 -1.348314,0.158136 z"
             style="font-style:normal;font-variant:normal;font-weight:normal;font-stretch:normal;font-family:AngryBirds;-inkscape-font-specification:AngryBirds;fill:#ffffff;stroke-width:0.10233834"
             id="path52" />
          <path
             d="m 85.121444,89.273439 2.197253,-10.520183 0.68248,0.208074 0.62422,-0.549314 0.940491,1.156888 0.532667,-1.040367 0.590928,0.357886 0.549314,-0.316271 1.98918,10.76987 -0.374532,-0.258011 -0.62422,0.357886 -0.48273,-0.615896 -0.457761,0.466084 -0.632542,-2.305452 -3.171036,0.258011 -0.607574,2.322097 -0.174782,0.06658 -0.54099,-0.68248 -0.68248,0.54099 z m 2.788181,-3.970037 2.438618,-0.224719 -0.848939,-3.820225 -0.715772,0.04994 z"
             style="font-style:normal;font-variant:normal;font-weight:normal;font-stretch:normal;font-family:AngryBirds;-inkscape-font-specification:AngryBirds;fill:#ffffff;stroke-width:0.10233834"
             id="path54" />
          <path
             d="m 93.91878,79.860206 0.474407,-0.632543 -0.208073,-0.657511 q 0.832293,-0.224719 1.722846,-0.324594 0.707449,-0.08323 1.364961,-0.08323 0.166458,0 0.324594,0 0.799001,0.02497 1.473159,0.208074 0.674157,0.183104 1.065336,0.499375 0.45776,0.391178 0.69912,0.973783 0.20808,0.507699 0.20808,1.081981 0,0.08323 0,0.166459 -0.0333,0.665834 -0.35789,1.373283 -0.32459,0.707449 -0.973781,1.348314 0.549311,0.241365 1.065331,0.632543 0.51603,0.391178 0.67416,0.923845 0.0999,0.34124 0.0999,0.649189 0,0.174781 -0.0333,0.34124 -0.0832,0.457761 -0.31627,0.865584 -0.23304,0.407824 -0.59092,0.740741 -0.35789,0.332917 -0.732422,0.607574 -0.407824,0.291302 -0.948814,0.507698 -0.532668,0.208074 -1.140242,0.349563 -0.59925,0.149813 -1.22347,0.208074 -0.48273,0.04994 -0.940491,0.04161 -0.133167,0 -0.258011,0 v -0.923845 l -0.82397,0.03329 q 0.0083,-0.607574 0.0083,-1.223471 0,-1.231793 -0.02497,-2.505201 -0.0083,-0.632543 -0.0083,-1.3067 0,-1.348315 0.04162,-2.838119 h -0.224719 q -0.09155,0 -0.183105,-0.01665 l 0.324595,-0.574282 z m 2.463587,5.151893 q -0.116521,0.699126 -0.116521,1.281731 0,0.574282 0.08323,1.3067 0.208073,0.04994 0.474407,0.04994 0.208073,0 0.457761,-0.03329 0.557636,-0.06658 1.048689,-0.291303 0.491053,-0.233042 0.82397,-0.607573 0.291302,-0.324595 0.291302,-0.782356 0,-0.06658 -0.0083,-0.14149 -0.03329,-0.424469 -0.357886,-0.649188 -0.324594,-0.224719 -0.782355,-0.299625 -0.258011,-0.04162 -0.54099,-0.04162 -0.216396,0 -0.441116,0.02497 -0.516021,0.05826 -0.932168,0.183104 z m -0.06658,-3.220973 q -0.0083,0.216396 0,0.449438 0,0.466084 0.01665,1.015397 0.524344,-0.04994 1.040366,-0.224719 0.516022,-0.183104 0.907199,-0.449438 0.391178,-0.266334 0.62422,-0.582605 0.241365,-0.316272 0.241365,-0.62422 0,-0.407823 -0.274657,-0.657511 -0.266334,-0.258011 -0.674157,-0.366209 -0.291303,-0.08323 -0.640866,-0.08323 -0.133166,0 -0.266333,0.0083 -0.491053,0.04161 -0.940491,0.233042 -0.01665,0.632543 -0.03329,1.281732 z"
             style="font-style:normal;font-variant:normal;font-weight:normal;font-stretch:normal;font-family:AngryBirds;-inkscape-font-specification:AngryBirds;fill:#ffffff;stroke-width:0.10233834"
             id="path56" />
          <path
             d="m 102.29165,79.627164 0.23304,-0.549313 -0.11652,-0.224719 4.87723,-0.324595 0.14982,0.665835 -1.05702,0.732417 1.00708,0.307949 -0.13317,0.374532 -2.48855,0.224719 -0.0583,2.621722 2.48855,-0.08323 -0.28298,0.890553 0.49105,0.199751 -0.0832,0.457761 -2.58011,0.258011 0.1082,2.779858 2.57178,-0.09987 -0.16646,0.88223 0.45776,0.208074 -0.19142,0.649188 -4.01998,0.233042 0.0666,-0.865585 -1.04036,0.06658 0.1082,-7.973366 -0.20808,-0.34124 0.73242,-0.632543 z m 1.54806,-2.255514 1.90595,-2.929671 0.39118,-0.03329 -0.11652,0.68248 1.02372,-0.08323 -0.0999,0.407824 0.35789,0.149813 -2.27216,2.014148 -0.40782,-0.407823 -0.59925,0.374532 z"
             style="font-style:normal;font-variant:normal;font-weight:normal;font-stretch:normal;font-family:AngryBirds;-inkscape-font-specification:AngryBirds;fill:#ffffff;stroke-width:0.10233834"
             id="path58" />
          <path
             d="m 108.53384,78.944684 0.74907,-0.391178 0.59925,0.62422 0.74906,-0.249688 3.47898,6.317103 h 0.34124 l -0.0999,-6.267165 0.44111,-0.258011 0.76571,1.057012 0.71578,-1.073658 0.30794,0.04994 -0.0166,10.944652 -0.19143,0.116521 -0.60757,-0.632542 -0.85726,0.59925 -0.34124,-0.06658 -3.43737,-5.418227 -0.4328,-0.04994 -0.13316,5.501456 -0.49106,-0.06658 -0.66583,-0.907199 -0.49938,1.007074 -0.2913,-0.149812 z"
             style="font-style:normal;font-variant:normal;font-weight:normal;font-stretch:normal;font-family:AngryBirds;-inkscape-font-specification:AngryBirds;fill:#ffffff;stroke-width:0.10233834"
             id="path60" />
          <path
             d="m 117.81391,82.723294 q 0.0666,-0.865585 0.51602,-1.581357 0.45776,-0.715772 1.16521,-1.231793 0.70745,-0.524345 1.57304,-0.857262 0.8739,-0.332917 1.7811,-0.432792 0.17478,-0.02497 0.42447,-0.03329 0.0666,0 0.13317,0.0083 0.34124,0.0083 0.5826,0.02497 l 0.0666,0.216396 -1.10695,0.615896 0.88223,0.42447 -0.37453,0.357886 0.25801,0.48273 q -0.6159,0.04994 -1.21515,0.166458 -0.59093,0.116521 -1.06534,0.324595 -0.46608,0.208073 -0.79067,0.507698 -0.3246,0.291303 -0.39118,0.68248 -0.0166,0.09988 -0.0166,0.199751 0,0.316271 0.22472,0.532667 0.2913,0.291303 0.69913,0.48273 0.20807,0.08323 0.42447,0.158136 0.22472,0.07491 0.44111,0.149812 0.20808,0.06658 0.39118,0.116521 0.19143,0.04994 0.32459,0.08323 0.81565,0.25801 1.27341,0.707449 0.46609,0.449438 0.46609,1.323345 0,0.923845 -0.5077,1.631294 -0.49938,0.707449 -1.57304,1.24844 -0.42446,0.208073 -0.85726,0.349563 -0.43279,0.14149 -0.84894,0.241365 -0.40782,0.108198 -0.77403,0.158135 -0.36621,0.04994 -0.67416,0.08323 l 0.29131,-0.540991 -0.78236,-0.224719 0.34124,-0.507698 -0.2913,-0.307949 q 0.2913,-0.06658 0.64086,-0.14149 0.34957,-0.08323 0.70745,-0.183104 0.3246,-0.09987 0.65751,-0.241365 0.33292,-0.149813 0.59926,-0.349563 0.27465,-0.208073 0.44943,-0.457761 0.18311,-0.249688 0.18311,-0.532668 0,-0.357885 -0.34956,-0.590928 -0.34957,-0.233042 -0.77404,-0.366208 -0.44111,-0.149813 -0.88223,-0.249688 -0.43279,-0.108198 -0.64919,-0.191428 -0.76571,-0.307948 -1.20682,-0.832293 -0.37453,-0.449438 -0.37453,-1.181855 0,-0.116521 0.008,-0.241365 z"
             style="font-style:normal;font-variant:normal;font-weight:normal;font-stretch:normal;font-family:AngryBirds;-inkscape-font-specification:AngryBirds;fill:#ffffff;stroke-width:0.10233834"
             id="path62" />
        </g>
      </g>
    </g>
  </g>
</svg>
