<?xml version="1.0" encoding="UTF-8" standalone="no"?>
<!-- Created with Inkscape (http://www.inkscape.org/) -->

<svg
   xmlns:dc="http://purl.org/dc/elements/1.1/"
   xmlns:cc="http://creativecommons.org/ns#"
   xmlns:rdf="http://www.w3.org/1999/02/22-rdf-syntax-ns#"
   xmlns:svg="http://www.w3.org/2000/svg"
   xmlns="http://www.w3.org/2000/svg"
   xmlns:sodipodi="http://sodipodi.sourceforge.net/DTD/sodipodi-0.dtd"
   xmlns:inkscape="http://www.inkscape.org/namespaces/inkscape"
   width="210mm"
   height="297mm"
   viewBox="0 0 210 297"
   version="1.1"
   id="svg125"
   inkscape:version="0.92.1 r15371"
   sodipodi:docname="msg_tempo_1.svg">
  <defs
     id="defs119">
    <clipPath
       clipPathUnits="userSpaceOnUse"
       id="clipPath1540">
      <path
         d="m 478.423,180.674 h 82.281 v -58.451 h -82.281 z"
         id="path1538"
         inkscape:connector-curvature="0" />
    </clipPath>
  </defs>
  <sodipodi:namedview
     id="base"
     pagecolor="#ffffff"
     bordercolor="#666666"
     borderopacity="1.0"
     inkscape:pageopacity="0.0"
     inkscape:pageshadow="2"
     inkscape:zoom="0.35"
     inkscape:cx="400"
     inkscape:cy="560"
     inkscape:document-units="mm"
     inkscape:current-layer="layer1"
     showgrid="false"
     inkscape:window-width="1269"
     inkscape:window-height="704"
     inkscape:window-x="0"
     inkscape:window-y="27"
     inkscape:window-maximized="1" />
  <metadata
     id="metadata122">
    <rdf:RDF>
      <cc:Work
         rdf:about="">
        <dc:format>image/svg+xml</dc:format>
        <dc:type
           rdf:resource="http://purl.org/dc/dcmitype/StillImage" />
        <dc:title></dc:title>
      </cc:Work>
    </rdf:RDF>
  </metadata>
  <g
     inkscape:label="Camada 1"
     inkscape:groupmode="layer"
     id="layer1">
    <path
       style="opacity:1;fill:#ff6600;fill-opacity:1;stroke:none;stroke-width:0.98895723;stroke-linejoin:round;stroke-miterlimit:4;stroke-dasharray:none;stroke-dashoffset:0;stroke-opacity:1"
       d="M 6.5018368,8.4788522 H 78.164834 V 32.164005 H 6.5018368 Z"
       id="rect20"
       inkscape:connector-curvature="0" />
    <g
       aria-label="você tem 20s 
para responder"
       style="font-style:normal;font-variant:normal;font-weight:normal;font-stretch:normal;font-size:10.58333302px;line-height:1;font-family:'URW Gothic L';-inkscape-font-specification:'URW Gothic L';text-align:end;letter-spacing:0px;word-spacing:0px;text-anchor:end;fill:#ffffff;fill-opacity:1;stroke:none;stroke-width:0.06354109"
       id="text29">
      <path
         d="m 22.016746,12.788936 0.170532,-0.07235 0.475423,0.862996 0.191203,-0.759644 0.304891,0.211874 0.232544,-0.294556 0.981852,5.172811 0.191203,-0.05168 1.281575,-5.090128 0.180868,0.08268 0.315226,-0.180867 0.279053,0.764811 0.589111,-0.645955 0.06718,0.05168 -1.90686,6.754109 -0.232544,-0.02067 -0.294556,-0.413412 -0.490926,0.454753 -0.1757,-0.03101 -0.444417,-0.604614 -0.248047,0.516764 -0.155029,-0.06201 z"
         style="font-style:normal;font-variant:normal;font-weight:normal;font-stretch:normal;line-height:1;font-family:AngryBirds;-inkscape-font-specification:AngryBirds;text-align:end;text-anchor:end;fill:#ffffff;stroke-width:0.06354109"
         id="path229" />
      <path
         d="m 27.659812,17.067744 q -0.02067,-0.28422 -0.02584,-0.568441 0,-0.315226 0.03101,-0.630452 0.103353,-1.080038 0.299724,-1.694987 0.19637,-0.61495 0.578776,-0.940511 0.139526,-0.118856 0.351399,-0.237712 0.217041,-0.124023 0.480591,-0.211873 0.268718,-0.09302 0.573609,-0.129191 0.144694,-0.0155 0.289388,-0.0155 l 0.325561,0.02067 -0.02067,0.61495 0.516764,-0.315226 0.222208,0.325561 0.3514,-0.139526 q 0.392741,0.403076 0.599447,1.157552 0.211873,0.749308 0.211873,1.839681 0,0.361735 -0.04134,0.790649 -0.04134,0.428915 -0.149862,0.842326 -0.103352,0.408244 -0.279052,0.754476 -0.1757,0.341064 -0.43925,0.532267 -0.37207,0.26355 -0.749308,0.403076 -0.372071,0.139527 -0.728638,0.1757 -0.165365,0.0155 -0.330729,0.0155 -0.180868,0 -0.346232,-0.02067 -0.315226,-0.04134 -0.573609,-0.139527 -0.325561,-0.118856 -0.56844,-0.475423 -0.237712,-0.361735 -0.387574,-0.857829 -0.144694,-0.496093 -0.191202,-1.09554 z m 1.260905,-0.966349 q -0.0155,0.201538 -0.01034,0.397908 0,0.372071 0.05168,0.733806 0.07751,0.54777 0.289388,0.878499 0.103353,0.170532 0.304891,0.258382 0.201538,0.08268 0.428914,0.08268 0.227376,0 0.434082,-0.07751 0.206706,-0.08268 0.315226,-0.253215 0.103353,-0.170532 0.201538,-0.490926 0.103353,-0.325561 0.160197,-0.713135 0.06201,-0.392741 0.07235,-0.816487 0,-0.05684 0,-0.113688 0,-0.361735 -0.06201,-0.697632 -0.06718,-0.387573 -0.227377,-0.692464 -0.155029,-0.304891 -0.423746,-0.465088 -0.170533,-0.103353 -0.397909,-0.103353 -0.01033,0 -0.02584,0 -0.242879,0.0052 -0.418579,0.165364 -0.304891,0.273886 -0.480591,0.800985 -0.170532,0.521932 -0.211873,1.105876 z"
         style="font-style:normal;font-variant:normal;font-weight:normal;font-stretch:normal;line-height:1;font-family:AngryBirds;-inkscape-font-specification:AngryBirds;text-align:end;text-anchor:end;fill:#ffffff;stroke-width:0.06354109"
         id="path231" />
      <path
         d="m 32.982484,16.302933 q 0,-0.304891 0.08785,-0.81132 0.09302,-0.511597 0.289388,-1.033529 0.19637,-0.527099 0.516764,-0.956014 0.325562,-0.428914 0.79065,-0.578776 0.516764,-0.160197 0.987019,-0.217041 0.15503,-0.02067 0.325562,-0.0155 0.330729,0 0.687296,0.07752 0.02067,0.03101 0.03101,0.07752 0.01034,0.04651 0.03101,0.07751 l -0.728638,0.258382 0.506429,0.284221 -0.222208,0.191203 0.08785,0.263549 q -0.139527,0.01034 -0.310059,0.03101 -0.170532,0.02067 -0.341064,0.05684 -0.165365,0.03101 -0.320394,0.07235 -0.155029,0.04134 -0.268718,0.103353 -0.211873,0.103353 -0.361735,0.392741 -0.144694,0.28422 -0.237711,0.625285 -0.08785,0.335897 -0.134359,0.671793 -0.04134,0.33073 -0.04134,0.532268 0,0.180867 0.02584,0.428914 0.03101,0.248047 0.09302,0.516764 0.06201,0.26355 0.170532,0.501262 0.113688,0.237711 0.294556,0.387573 0.09302,0.08268 0.28422,0.129191 0.191203,0.04651 0.423747,0.07235 0.232544,0.02067 0.475423,0.03101 0.248047,0.01034 0.45992,0.01034 -0.02067,0.02067 -0.04651,0.05684 -0.02067,0.03617 -0.05168,0.08785 l 0.222209,0.242879 -0.5271,0.299724 0.578776,0.211873 q -0.02067,0.08268 -0.04134,0.124024 -0.63562,0.139526 -1.276408,0.175699 -0.09302,0.0052 -0.186035,0.0052 -0.5271,0 -0.971517,-0.180867 -0.403076,-0.160197 -0.656291,-0.521932 -0.253214,-0.366903 -0.397908,-0.821656 -0.139527,-0.454752 -0.196371,-0.945678 -0.05168,-0.490926 -0.05168,-0.914673 z"
         style="font-style:normal;font-variant:normal;font-weight:normal;font-stretch:normal;line-height:1;font-family:AngryBirds;-inkscape-font-specification:AngryBirds;text-align:end;text-anchor:end;fill:#ffffff;stroke-width:0.06354109"
         id="path233" />
      <path
         d="m 37.343974,12.163651 0.976685,-1.343587 0.387573,0.07235 0.191203,-0.211874 0.341064,0.09819 0.273885,-0.06718 1.049032,1.348755 -0.04134,0.05168 -0.201538,-0.10852 -0.118856,0.299723 -0.222209,-0.10852 -0.242879,0.07751 -0.868164,-0.857829 -0.707967,0.857829 -0.191203,0.07235 -0.201538,-0.232544 -0.335897,0.09302 z m 0.08785,1.219563 0.144694,-0.341064 -0.07235,-0.139526 3.028239,-0.201538 0.09302,0.413411 -0.656291,0.454753 0.625285,0.191202 -0.08268,0.232544 -1.545125,0.139527 -0.03617,1.627807 1.545125,-0.05168 -0.1757,0.552938 0.304891,0.124023 -0.05168,0.28422 -1.60197,0.160197 0.06718,1.725993 1.596801,-0.06201 -0.103353,0.547771 0.284221,0.129191 -0.118856,0.403076 -2.495972,0.144694 0.04134,-0.537435 -0.645955,0.04134 0.06718,-4.950602 -0.129191,-0.211873 0.454753,-0.392741 z"
         style="font-style:normal;font-variant:normal;font-weight:normal;font-stretch:normal;line-height:1;font-family:AngryBirds;-inkscape-font-specification:AngryBirds;text-align:end;text-anchor:end;fill:#ffffff;stroke-width:0.06354109"
         id="path235" />
      <path
         d="m 43.142071,13.357376 0.05168,-0.186035 4.180623,-0.299723 -0.170532,0.26355 0.299723,0.310058 -0.511597,0.325562 0.511597,0.222208 -0.04134,0.180868 -1.379761,0.09819 -0.07235,5.265828 -0.160197,0.04651 -0.346232,-0.754476 -0.242879,0.645956 -0.258382,-0.26355 -0.304891,0.191203 -0.05168,-5.069458 -1.281575,0.08268 0.05168,-0.191203 -0.180867,-0.144694 0.594279,-0.444417 z"
         style="font-style:normal;font-variant:normal;font-weight:normal;font-stretch:normal;line-height:1;font-family:AngryBirds;-inkscape-font-specification:AngryBirds;text-align:end;text-anchor:end;fill:#ffffff;stroke-width:0.06354109"
         id="path237" />
      <path
         d="m 48.07717,13.383214 0.144694,-0.341064 -0.07235,-0.139526 3.028239,-0.201538 0.09302,0.413411 -0.65629,0.454753 0.625284,0.191202 -0.08268,0.232544 -1.545125,0.139527 -0.03617,1.627807 1.545126,-0.05168 -0.1757,0.552938 0.304891,0.124023 -0.05168,0.28422 -1.601969,0.160197 0.06718,1.725993 1.596802,-0.06201 -0.103353,0.547771 0.28422,0.129191 -0.118855,0.403076 -2.495972,0.144694 0.04134,-0.537435 -0.645955,0.04134 0.06718,-4.950602 -0.129191,-0.211873 0.454753,-0.392741 z"
         style="font-style:normal;font-variant:normal;font-weight:normal;font-stretch:normal;line-height:1;font-family:AngryBirds;-inkscape-font-specification:AngryBirds;text-align:end;text-anchor:end;fill:#ffffff;stroke-width:0.06354109"
         id="path239" />
      <path
         d="m 52.045919,19.636063 0.325562,-6.898804 0.330729,-0.139526 0.403076,0.91984 0.444417,-0.738973 0.222209,0.222209 0.186035,-0.160197 0.956014,2.976562 h 0.170532 l 0.940511,-3.007568 0.304891,0.232544 0.413412,-0.325561 0.361735,0.516764 0.465088,-0.423747 0.315226,6.604248 -0.201538,0.05168 -0.335897,-0.56844 -0.211873,0.527099 -0.191203,-0.170532 -0.26355,0.108521 -0.232544,-3.229777 -0.191203,-0.05168 -1.111043,2.98173 -0.191203,-0.165364 -0.201538,0.08268 -1.090373,-2.795695 -0.170532,-0.02067 -0.222208,3.281454 -0.325562,0.09302 -0.403076,-0.640787 -0.315226,0.790649 z"
         style="font-style:normal;font-variant:normal;font-weight:normal;font-stretch:normal;line-height:1;font-family:AngryBirds;-inkscape-font-specification:AngryBirds;text-align:end;text-anchor:end;fill:#ffffff;stroke-width:0.06354109"
         id="path241" />
      <path
         d="m 60.675882,19.274328 0.26355,-0.294556 q -0.08268,-0.149862 -0.160197,-0.26355 -0.07235,-0.118856 -0.09302,-0.170532 0.103353,-0.170532 0.304891,-0.506429 0.201538,-0.341065 0.444418,-0.780314 0.242879,-0.43925 0.506429,-0.945679 0.268717,-0.506429 0.511596,-1.018026 0.201538,-0.423746 0.382406,-0.821655 0.180867,-0.403076 0.289388,-0.738973 0.113688,-0.341064 0.139526,-0.609782 0.02584,-0.273885 -0.07235,-0.434082 -0.07235,-0.118855 -0.299723,-0.155029 -0.227376,-0.04134 -0.532267,-0.03617 -0.299724,0.0052 -0.645956,0.05168 -0.341064,0.04651 -0.63562,0.09819 l 0.294556,-0.444417 -0.434082,-0.170532 0.28422,-0.366903 q -0.04134,-0.03101 -0.08268,-0.07752 -0.04134,-0.03101 -0.08785,-0.06718 -0.04134,-0.03617 -0.09302,-0.07752 0.325562,-0.129191 0.744141,-0.237711 0.418579,-0.113688 0.857829,-0.170532 0.439249,-0.05685 0.857829,-0.04134 0.418579,0.0155 0.759643,0.149862 0.604614,0.242879 0.749308,0.775147 0.149862,0.527099 -0.09302,1.260904 -0.211874,0.635621 -0.454753,1.214397 -0.242879,0.573608 -0.521932,1.162719 -0.273885,0.594279 -0.604614,1.214396 -0.325562,0.620118 -0.728638,1.369426 0.315227,0 0.656291,0.0052 0.341064,0.0052 0.651123,0.01034 0.315226,0.0052 0.568441,0.0155 0.253214,0.01034 0.413411,0.01034 l 0.103353,0.289388 -0.728638,0.397908 0.676962,0.248047 -0.129191,0.315227 h -3.901571 z"
         style="font-style:normal;font-variant:normal;font-weight:normal;font-stretch:normal;line-height:1;font-family:AngryBirds;-inkscape-font-specification:AngryBirds;text-align:end;text-anchor:end;fill:#ffffff;stroke-width:0.06354109"
         id="path243" />
      <path
         d="m 65.688496,14.680293 q 0.02067,-0.325562 0.160197,-0.790649 0.144694,-0.465088 0.3514,-0.925009 0.206705,-0.45992 0.454752,-0.837158 0.248047,-0.377238 0.480591,-0.527099 0.201538,-0.129191 0.444417,-0.217041 0.248047,-0.08785 0.506429,-0.139527 0.258383,-0.05168 0.516765,-0.06718 0.258382,-0.02067 0.501261,0.0155 l -0.144694,0.909505 0.749308,-0.320394 0.07235,0.330729 0.521932,-0.10852 q 0.372071,0.485758 0.604614,1.198893 0.232544,0.707967 0.24288,1.555461 0.01033,0.930175 -0.108521,1.725992 -0.113688,0.79065 -0.335897,1.400432 -0.222208,0.609781 -0.54777,1.018025 -0.320394,0.403076 -0.72347,0.563273 -0.28422,0.118856 -0.63562,0.170533 -0.3514,0.05168 -0.713135,0.03101 -0.356567,-0.02067 -0.692464,-0.124023 -0.330729,-0.09819 -0.594279,-0.279053 -0.738973,-0.516764 -0.976684,-1.674316 -0.237712,-1.16272 -0.134359,-2.909383 z m 1.302246,0.63562 q 0,0.08268 0.01033,0.428914 0.01034,0.346232 0.06201,0.769979 0.05168,0.423747 0.170532,0.837158 0.124024,0.408244 0.335897,0.609782 0.139526,0.139527 0.320394,0.180868 0.180867,0.04134 0.356567,0.02584 0.180868,-0.0155 0.346232,-0.07235 0.165365,-0.05684 0.268718,-0.134359 0.180867,-0.129191 0.325561,-0.413411 0.149862,-0.284221 0.248047,-0.620117 0.103353,-0.341065 0.160197,-0.687297 0.06201,-0.3514 0.06201,-0.614949 0,-0.3514 0.0052,-0.707968 0.0052,-0.361735 -0.05684,-0.692464 -0.05684,-0.335896 -0.211873,-0.63562 -0.149862,-0.304891 -0.465088,-0.54777 -0.139526,-0.103353 -0.289388,-0.129191 -0.144694,-0.03101 -0.294555,-0.0155 -0.149862,0.0155 -0.289388,0.07752 -0.134359,0.05684 -0.253215,0.129191 -0.211873,0.139526 -0.361735,0.428914 -0.144694,0.284221 -0.242879,0.609782 -0.09302,0.325562 -0.144694,0.651123 -0.05168,0.320394 -0.06201,0.521932 z"
         style="font-style:normal;font-variant:normal;font-weight:normal;font-stretch:normal;line-height:1;font-family:AngryBirds;-inkscape-font-specification:AngryBirds;text-align:end;text-anchor:end;fill:#ffffff;stroke-width:0.06354109"
         id="path245" />
      <path
         d="m 71.812154,15.305578 q 0.04134,-0.537435 0.320394,-0.981852 0.284221,-0.444418 0.72347,-0.764812 0.43925,-0.325561 0.976685,-0.532267 0.542602,-0.206706 1.105876,-0.268717 0.10852,-0.0155 0.263549,-0.02067 0.04134,0 0.08268,0.0052 0.211873,0.0052 0.361735,0.0155 l 0.04134,0.134358 -0.687297,0.382406 0.54777,0.26355 -0.232544,0.222208 0.160197,0.299724 q -0.382405,0.03101 -0.754475,0.103353 -0.366903,0.07235 -0.661459,0.201538 -0.289388,0.129191 -0.490926,0.315226 -0.201538,0.180867 -0.242879,0.423747 -0.01033,0.06201 -0.01033,0.124023 0,0.196371 0.139526,0.330729 0.180867,0.180868 0.434082,0.299724 0.129191,0.05168 0.26355,0.09819 0.139526,0.04651 0.273885,0.09302 0.129191,0.04134 0.242879,0.07235 0.118856,0.03101 0.201538,0.05168 0.506429,0.160197 0.79065,0.439249 0.289388,0.279053 0.289388,0.821656 0,0.573608 -0.315227,1.012858 -0.310058,0.439249 -0.976684,0.775146 -0.26355,0.129191 -0.532267,0.217041 -0.268718,0.08785 -0.5271,0.149862 -0.253215,0.06718 -0.480591,0.09819 -0.227376,0.03101 -0.418579,0.05168 l 0.180868,-0.335896 -0.485759,-0.139527 0.211874,-0.315226 -0.180868,-0.191203 q 0.180868,-0.04134 0.397909,-0.08785 0.217041,-0.05168 0.439249,-0.113688 0.201538,-0.06201 0.408244,-0.149861 0.206706,-0.09302 0.37207,-0.217041 0.170533,-0.129192 0.279053,-0.284221 0.113688,-0.155029 0.113688,-0.330729 0,-0.222209 -0.217041,-0.366903 -0.217041,-0.144694 -0.480591,-0.227376 -0.273885,-0.09302 -0.54777,-0.155029 -0.268717,-0.06718 -0.403076,-0.118856 -0.475423,-0.191203 -0.749308,-0.516764 -0.232544,-0.279053 -0.232544,-0.733806 0,-0.07235 0.0052,-0.149861 z"
         style="font-style:normal;font-variant:normal;font-weight:normal;font-stretch:normal;line-height:1;font-family:AngryBirds;-inkscape-font-specification:AngryBirds;text-align:end;text-anchor:end;fill:#ffffff;stroke-width:0.06354109"
         id="path247" />
      <path
         d="m 8.3534973,23.787909 0.062012,-0.258382 q 0.4340821,-0.160197 0.9921875,-0.279053 0.5632731,-0.118855 1.1213785,-0.155029 0.144694,-0.01034 0.28422,-0.0052 0.397909,0 0.754476,0.06718 0.480591,0.08785 0.744141,0.341064 0.423747,0.413412 0.573608,0.945679 0.103353,0.361735 0.09819,0.72347 0,0.170532 -0.02067,0.341064 -0.06718,0.537435 -0.325562,1.049032 -0.253214,0.506429 -0.640787,0.878499 -0.129191,0.118856 -0.330729,0.248047 -0.201539,0.124023 -0.449585,0.242879 -0.248047,0.113688 -0.542603,0.217041 -0.289388,0.09819 -0.583944,0.160197 L 10.07949,30.14411 9.8882873,30.21129 9.6764139,29.617011 9.2526672,30.190619 8.9787821,29.870225 8.7669088,29.999416 8.7152323,24.70775 8.4826884,24.526882 9.1183085,23.870591 Z m 1.607137,0.780314 0.056844,2.485637 q 0.26355,-0.09302 0.485759,-0.201538 0.191203,-0.08268 0.366902,-0.170533 0.180868,-0.09302 0.268718,-0.165364 0.222209,-0.201538 0.377238,-0.475423 0.160197,-0.273886 0.206706,-0.558106 0.0155,-0.103353 0.02067,-0.19637 0,-0.1757 -0.05684,-0.335897 -0.08268,-0.253215 -0.356567,-0.423747 -0.129191,-0.07752 -0.341065,-0.08268 -0.0155,0 -0.02584,0.0052 -0.227376,0.0052 -0.449585,0.02584 -0.268717,0.04134 -0.5529377,0.09302 z"
         style="font-style:normal;font-variant:normal;font-weight:normal;font-stretch:normal;line-height:1;font-family:AngryBirds;-inkscape-font-specification:AngryBirds;text-align:end;text-anchor:end;fill:#ffffff;stroke-width:0.06354109"
         id="path249" />
      <path
         d="m 12.756329,29.999416 1.364258,-6.531901 0.423747,0.129191 0.387573,-0.341064 0.583944,0.718302 0.330729,-0.645955 0.366903,0.222209 0.341064,-0.196371 1.235067,6.68693 -0.232544,-0.160197 -0.387573,0.222209 -0.299724,-0.382406 -0.28422,0.289388 -0.392741,-1.431437 -1.968872,0.160197 -0.377238,1.441773 -0.10852,0.04134 -0.335897,-0.423747 -0.423747,0.335897 z m 1.731161,-2.464966 1.514119,-0.139526 -0.527099,-2.371948 -0.444418,0.03101 z"
         style="font-style:normal;font-variant:normal;font-weight:normal;font-stretch:normal;line-height:1;font-family:AngryBirds;-inkscape-font-specification:AngryBirds;text-align:end;text-anchor:end;fill:#ffffff;stroke-width:0.06354109"
         id="path251" />
      <path
         d="m 18.203025,23.772406 0.03617,-0.19637 q 0.583944,-0.191203 1.167888,-0.289388 0.589111,-0.103353 1.136881,-0.108521 0.03101,0 0.05684,0 0.516765,0 0.96635,0.08785 0.470255,0.09302 0.816487,0.320394 0.315226,0.201538 0.501262,0.506429 0.191202,0.304891 0.227376,0.687297 0.01033,0.09302 0.01033,0.19637 0,0.294556 -0.08785,0.625285 -0.113688,0.43925 -0.392741,0.894002 -0.05168,0.09302 -0.160197,0.232544 -0.10852,0.139526 -0.237711,0.299723 -0.124024,0.15503 -0.273885,0.310059 -0.144694,0.149862 -0.284221,0.268717 0.129192,0.304891 0.273886,0.645956 0.149861,0.335897 0.289388,0.651123 0.144694,0.310058 0.273885,0.573608 0.129191,0.258382 0.201538,0.403076 l -0.07235,0.07752 -0.61495,-0.341064 -0.03101,0.527099 -0.211873,-0.09302 -0.191203,0.129191 -1.281575,-1.979208 -0.666626,0.26355 -0.05168,1.586467 -0.170532,-0.02067 -0.3514,-0.552938 -0.273885,0.713135 -0.191203,-0.07752 q -0.01034,-0.315226 -0.03617,-0.904337 -0.02584,-0.589112 -0.04651,-1.281576 -0.02067,-0.692464 -0.02067,-1.405599 0,-0.713134 0.04134,-1.297078 l 0.03101,-0.413411 -0.335897,-0.24288 0.558105,-0.506429 z m 1.524455,3.327962 q 0.382405,-0.149861 0.785481,-0.403076 0.403077,-0.253214 0.697632,-0.552938 0.294556,-0.304891 0.428915,-0.630452 0.06201,-0.144694 0.06201,-0.289388 0,-0.170532 -0.08785,-0.335897 -0.09302,-0.170532 -0.397908,-0.217041 -0.248047,-0.04134 -0.511597,-0.04134 -0.05684,0 -0.118856,0 -0.382405,0.02067 -0.837158,0.09819 z"
         style="font-style:normal;font-variant:normal;font-weight:normal;font-stretch:normal;line-height:1;font-family:AngryBirds;-inkscape-font-specification:AngryBirds;text-align:end;text-anchor:end;fill:#ffffff;stroke-width:0.06354109"
         id="path253" />
      <path
         d="m 23.443015,29.999416 1.364258,-6.531901 0.423746,0.129191 0.387574,-0.341064 0.583943,0.718302 0.330729,-0.645955 0.366903,0.222209 0.341065,-0.196371 1.235066,6.68693 -0.232544,-0.160197 -0.387573,0.222209 -0.299723,-0.382406 -0.284221,0.289388 -0.39274,-1.431437 -1.968872,0.160197 -0.377238,1.441773 -0.108521,0.04134 -0.335897,-0.423747 -0.423746,0.335897 z m 1.73116,-2.464966 1.51412,-0.139526 -0.5271,-2.371948 -0.444417,0.03101 z"
         style="font-style:normal;font-variant:normal;font-weight:normal;font-stretch:normal;line-height:1;font-family:AngryBirds;-inkscape-font-specification:AngryBirds;text-align:end;text-anchor:end;fill:#ffffff;stroke-width:0.06354109"
         id="path255" />
      <path
         d="m 30.99811,23.772406 0.03617,-0.19637 q 0.583944,-0.191203 1.167888,-0.289388 0.589111,-0.103353 1.136881,-0.108521 0.03101,0 0.05684,0 0.516765,0 0.96635,0.08785 0.470255,0.09302 0.816487,0.320394 0.315226,0.201538 0.501262,0.506429 0.191202,0.304891 0.227376,0.687297 0.01034,0.09302 0.01034,0.19637 0,0.294556 -0.08785,0.625285 -0.113688,0.43925 -0.392741,0.894002 -0.05168,0.09302 -0.160197,0.232544 -0.10852,0.139526 -0.237711,0.299723 -0.124024,0.15503 -0.273885,0.310059 -0.144694,0.149862 -0.284221,0.268717 0.129191,0.304891 0.273885,0.645956 0.149862,0.335897 0.289388,0.651123 0.144694,0.310058 0.273886,0.573608 0.129191,0.258382 0.201538,0.403076 l -0.07235,0.07752 -0.61495,-0.341064 -0.03101,0.527099 -0.211873,-0.09302 -0.191203,0.129191 -1.281575,-1.979208 -0.666626,0.26355 -0.05168,1.586467 -0.170532,-0.02067 -0.3514,-0.552938 -0.273885,0.713135 -0.191203,-0.07752 q -0.01034,-0.315226 -0.03617,-0.904337 -0.02584,-0.589112 -0.04651,-1.281576 -0.02067,-0.692464 -0.02067,-1.405599 0,-0.713134 0.04134,-1.297078 l 0.03101,-0.413411 -0.335897,-0.24288 0.558105,-0.506429 z m 1.524455,3.327962 q 0.382405,-0.149861 0.785481,-0.403076 0.403077,-0.253214 0.697632,-0.552938 0.294556,-0.304891 0.428915,-0.630452 0.06201,-0.144694 0.06201,-0.289388 0,-0.170532 -0.08785,-0.335897 -0.09302,-0.170532 -0.397908,-0.217041 -0.248047,-0.04134 -0.511597,-0.04134 -0.05684,0 -0.118856,0 -0.382405,0.02067 -0.837158,0.09819 z"
         style="font-style:normal;font-variant:normal;font-weight:normal;font-stretch:normal;line-height:1;font-family:AngryBirds;-inkscape-font-specification:AngryBirds;text-align:end;text-anchor:end;fill:#ffffff;stroke-width:0.06354109"
         id="path257" />
      <path
         d="m 36.460308,24.010118 0.144694,-0.341065 -0.07235,-0.139526 3.028238,-0.201538 0.09302,0.413411 -0.656291,0.454753 0.625285,0.191203 -0.08268,0.232544 -1.545125,0.139526 -0.03617,1.627808 1.545125,-0.05168 -0.1757,0.552938 0.304891,0.124023 -0.05168,0.284221 -1.601969,0.160197 0.06718,1.725993 1.596802,-0.06201 -0.103353,0.54777 0.28422,0.129191 -0.118856,0.403076 -2.495971,0.144694 0.04134,-0.537435 -0.645955,0.04134 0.06718,-4.950603 -0.129191,-0.211873 0.454752,-0.392741 z"
         style="font-style:normal;font-variant:normal;font-weight:normal;font-stretch:normal;line-height:1;font-family:AngryBirds;-inkscape-font-specification:AngryBirds;text-align:end;text-anchor:end;fill:#ffffff;stroke-width:0.06354109"
         id="path259" />
      <path
         d="m 40.351542,25.932481 q 0.04134,-0.537435 0.320394,-0.981852 0.284221,-0.444417 0.72347,-0.764811 0.43925,-0.325562 0.976685,-0.532268 0.542602,-0.206705 1.105875,-0.268717 0.108521,-0.0155 0.26355,-0.02067 0.04134,0 0.08268,0.0052 0.211874,0.0052 0.361735,0.0155 l 0.04134,0.134359 -0.687297,0.382405 0.54777,0.26355 -0.232544,0.222209 0.160197,0.299723 q -0.382405,0.03101 -0.754476,0.103353 -0.366902,0.07235 -0.661458,0.201538 -0.289388,0.129191 -0.490926,0.315226 -0.201538,0.180868 -0.242879,0.423747 -0.01034,0.06201 -0.01034,0.124023 0,0.196371 0.139527,0.33073 0.180867,0.180867 0.434082,0.299723 0.129191,0.05168 0.26355,0.09819 0.139526,0.04651 0.273885,0.09302 0.129191,0.04134 0.242879,0.07235 0.118856,0.03101 0.201538,0.05168 0.506429,0.160197 0.790649,0.43925 0.289388,0.279052 0.289388,0.821655 0,0.573608 -0.315226,1.012858 -0.310058,0.43925 -0.976684,0.775147 -0.26355,0.129191 -0.532268,0.217041 -0.268717,0.08785 -0.527099,0.149861 -0.253215,0.06718 -0.480591,0.09819 -0.227376,0.03101 -0.418579,0.05168 l 0.180867,-0.335897 -0.485758,-0.139526 0.211873,-0.315227 -0.180867,-0.191202 q 0.180867,-0.04134 0.397908,-0.08785 0.217041,-0.05168 0.43925,-0.113688 0.201538,-0.06201 0.408244,-0.149862 0.206706,-0.09302 0.37207,-0.217041 0.170532,-0.129191 0.279053,-0.28422 0.113688,-0.15503 0.113688,-0.33073 0,-0.222208 -0.217041,-0.366902 -0.217041,-0.144694 -0.480591,-0.227377 -0.273885,-0.09302 -0.54777,-0.155029 -0.268717,-0.06718 -0.403076,-0.118856 -0.475423,-0.191202 -0.749308,-0.516764 -0.232544,-0.279053 -0.232544,-0.733805 0,-0.07235 0.0052,-0.149862 z"
         style="font-style:normal;font-variant:normal;font-weight:normal;font-stretch:normal;line-height:1;font-family:AngryBirds;-inkscape-font-specification:AngryBirds;text-align:end;text-anchor:end;fill:#ffffff;stroke-width:0.06354109"
         id="path261" />
      <path
         d="m 45.105775,23.787909 0.06201,-0.258382 q 0.434082,-0.160197 0.992188,-0.279053 0.563273,-0.118855 1.121378,-0.155029 0.144694,-0.01034 0.284221,-0.0052 0.397908,0 0.754476,0.06718 0.48059,0.08785 0.74414,0.341064 0.423747,0.413412 0.573609,0.945679 0.103353,0.361735 0.09819,0.72347 0,0.170532 -0.02067,0.341064 -0.06718,0.537435 -0.325561,1.049032 -0.253215,0.506429 -0.640788,0.878499 -0.129191,0.118856 -0.330729,0.248047 -0.201538,0.124023 -0.449585,0.242879 -0.248047,0.113688 -0.542603,0.217041 -0.289388,0.09819 -0.583943,0.160197 l -0.01034,1.839681 -0.191202,0.06718 -0.211874,-0.594279 -0.423746,0.573608 -0.273885,-0.320394 -0.211874,0.129191 -0.05168,-5.291666 -0.232544,-0.180868 0.63562,-0.656291 z m 1.607137,0.780314 0.05684,2.485637 q 0.26355,-0.09302 0.485758,-0.201538 0.191203,-0.08268 0.366903,-0.170533 0.180867,-0.09302 0.268717,-0.165364 0.222209,-0.201538 0.377238,-0.475423 0.160197,-0.273886 0.206706,-0.558106 0.0155,-0.103353 0.02067,-0.19637 0,-0.1757 -0.05685,-0.335897 -0.08268,-0.253215 -0.356567,-0.423747 -0.129191,-0.07752 -0.341064,-0.08268 -0.0155,0 -0.02584,0.0052 -0.227376,0.0052 -0.449584,0.02584 -0.268718,0.04134 -0.552938,0.09302 z"
         style="font-style:normal;font-variant:normal;font-weight:normal;font-stretch:normal;line-height:1;font-family:AngryBirds;-inkscape-font-specification:AngryBirds;text-align:end;text-anchor:end;fill:#ffffff;stroke-width:0.06354109"
         id="path263" />
      <path
         d="m 50.438783,27.694647 q -0.02067,-0.28422 -0.02584,-0.56844 0,-0.315227 0.03101,-0.630453 0.103353,-1.080037 0.299723,-1.694987 0.196371,-0.614949 0.578776,-0.940511 0.139527,-0.118856 0.3514,-0.237711 0.217041,-0.124024 0.480591,-0.211874 0.268717,-0.09302 0.573608,-0.129191 0.144694,-0.0155 0.289388,-0.0155 l 0.325562,0.02067 -0.02067,0.614949 0.516765,-0.315226 0.222208,0.325562 0.3514,-0.139527 q 0.392741,0.403076 0.599447,1.157552 0.211873,0.749309 0.211873,1.839681 0,0.361735 -0.04134,0.79065 -0.04134,0.428914 -0.149862,0.842325 -0.103353,0.408244 -0.279053,0.754476 -0.175699,0.341065 -0.439249,0.532268 -0.37207,0.263549 -0.749308,0.403076 -0.372071,0.139526 -0.728638,0.1757 -0.165365,0.0155 -0.330729,0.0155 -0.180868,0 -0.346232,-0.02067 -0.315227,-0.04134 -0.573609,-0.139526 -0.325561,-0.118856 -0.56844,-0.475424 -0.237712,-0.361735 -0.387574,-0.857828 -0.144694,-0.496094 -0.191202,-1.095541 z m 1.260904,-0.966349 q -0.0155,0.201538 -0.01033,0.397909 0,0.37207 0.05168,0.733805 0.07751,0.54777 0.289388,0.878499 0.103352,0.170532 0.304891,0.258382 0.201538,0.08268 0.428914,0.08268 0.227376,0 0.434082,-0.07751 0.206706,-0.08268 0.315226,-0.253214 0.103353,-0.170533 0.201538,-0.490927 0.103353,-0.325561 0.160197,-0.713134 0.06201,-0.392741 0.07235,-0.816488 0,-0.05684 0,-0.113688 0,-0.361735 -0.06201,-0.697632 -0.06718,-0.387573 -0.227376,-0.692464 -0.155029,-0.304891 -0.423747,-0.465088 -0.170532,-0.103353 -0.397908,-0.103353 -0.01033,0 -0.02584,0 -0.24288,0.0052 -0.418579,0.165365 -0.304891,0.273885 -0.480591,0.800984 -0.170532,0.521932 -0.211874,1.105876 z"
         style="font-style:normal;font-variant:normal;font-weight:normal;font-stretch:normal;line-height:1;font-family:AngryBirds;-inkscape-font-specification:AngryBirds;text-align:end;text-anchor:end;fill:#ffffff;stroke-width:0.06354109"
         id="path265" />
      <path
         d="m 55.983662,23.586371 0.465088,-0.242879 0.372071,0.387573 0.465087,-0.155029 2.160075,3.922241 h 0.211874 l -0.06201,-3.891235 0.273885,-0.160197 0.475423,0.65629 0.444417,-0.666626 0.191203,0.03101 -0.01033,6.795451 -0.118856,0.07235 -0.377238,-0.392741 -0.532267,0.37207 -0.211873,-0.04134 -2.134237,-3.364135 -0.268717,-0.03101 -0.08268,3.415812 -0.304891,-0.04134 -0.413411,-0.563273 -0.310059,0.625284 -0.180867,-0.09302 z"
         style="font-style:normal;font-variant:normal;font-weight:normal;font-stretch:normal;line-height:1;font-family:AngryBirds;-inkscape-font-specification:AngryBirds;text-align:end;text-anchor:end;fill:#ffffff;stroke-width:0.06354109"
         id="path267" />
      <path
         d="m 61.781757,24.103135 0.253214,-0.273885 q -0.01033,-0.02067 -0.03617,-0.103353 -0.02067,-0.08785 -0.07235,-0.206705 0.294556,-0.08268 0.718302,-0.15503 0.423747,-0.07751 0.894002,-0.08785 0.05684,0 0.113689,0 0.408243,0 0.826823,0.06718 0.475423,0.07235 0.878499,0.294556 0.444417,0.242879 0.72347,0.666625 0.279053,0.423747 0.418579,0.935344 0.134359,0.496094 0.134359,1.043864 0,0.589111 -0.139527,1.147217 -0.134358,0.532267 -0.387573,0.992187 -0.253214,0.454753 -0.614949,0.738973 -0.61495,0.496094 -1.33842,0.785482 -0.72347,0.28422 -1.452108,0.356567 l -0.07751,-0.614949 -0.656291,0.08785 0.04651,-4.904094 -0.129191,-0.08268 0.320394,-0.325562 z m 1.426269,0.728638 q 0,0.89917 0.01034,1.705322 0,0.341065 0.01033,0.692464 0.01034,0.346233 0.02067,0.666626 0.01034,0.315227 0.02584,0.568441 0.0155,0.253215 0.04134,0.413412 0.3514,-0.103353 0.656291,-0.258383 0.30489,-0.155029 0.558105,-0.377237 0.253214,-0.222209 0.434082,-0.516765 0.180867,-0.299723 0.26355,-0.692464 0.07235,-0.382406 0.09302,-0.728638 0.0052,-0.05684 0,-0.113688 0,-0.28422 -0.06718,-0.532267 -0.07752,-0.294556 -0.279053,-0.521932 -0.201538,-0.227376 -0.54777,-0.356567 -0.134359,-0.04651 -0.320394,-0.04651 -0.02067,0 -0.03617,0 -0.206706,0.0052 -0.397909,0.02584 -0.222208,0.03101 -0.465088,0.07235 z"
         style="font-style:normal;font-variant:normal;font-weight:normal;font-stretch:normal;line-height:1;font-family:AngryBirds;-inkscape-font-specification:AngryBirds;text-align:end;text-anchor:end;fill:#ffffff;stroke-width:0.06354109"
         id="path269" />
      <path
         d="m 67.3008,24.010118 0.144694,-0.341065 -0.07235,-0.139526 3.028239,-0.201538 0.09302,0.413411 -0.65629,0.454753 0.625284,0.191203 -0.08268,0.232544 -1.545125,0.139526 -0.03617,1.627808 1.545126,-0.05168 -0.1757,0.552938 0.304891,0.124023 -0.05168,0.284221 -1.601969,0.160197 0.06718,1.725993 1.596802,-0.06201 -0.103353,0.54777 0.28422,0.129191 -0.118855,0.403076 -2.495972,0.144694 0.04134,-0.537435 -0.645955,0.04134 0.06718,-4.950603 -0.129191,-0.211873 0.454753,-0.392741 z"
         style="font-style:normal;font-variant:normal;font-weight:normal;font-stretch:normal;line-height:1;font-family:AngryBirds;-inkscape-font-specification:AngryBirds;text-align:end;text-anchor:end;fill:#ffffff;stroke-width:0.06354109"
         id="path271" />
      <path
         d="m 71.202372,23.772406 0.03617,-0.19637 q 0.583944,-0.191203 1.167888,-0.289388 0.589111,-0.103353 1.136881,-0.108521 0.03101,0 0.05684,0 0.516764,0 0.966349,0.08785 0.470256,0.09302 0.816488,0.320394 0.315226,0.201538 0.501261,0.506429 0.191203,0.304891 0.227377,0.687297 0.01033,0.09302 0.01033,0.19637 0,0.294556 -0.08785,0.625285 -0.113688,0.43925 -0.392741,0.894002 -0.05168,0.09302 -0.160197,0.232544 -0.10852,0.139526 -0.237711,0.299723 -0.124024,0.15503 -0.273885,0.310059 -0.144694,0.149862 -0.284221,0.268717 0.129191,0.304891 0.273885,0.645956 0.149862,0.335897 0.289388,0.651123 0.144694,0.310058 0.273885,0.573608 0.129191,0.258382 0.201538,0.403076 l -0.07235,0.07752 -0.614949,-0.341064 -0.03101,0.527099 -0.211873,-0.09302 -0.191203,0.129191 -1.281576,-1.979208 -0.666626,0.26355 -0.05168,1.586467 -0.170532,-0.02067 -0.3514,-0.552938 -0.273885,0.713135 -0.191203,-0.07752 q -0.01033,-0.315226 -0.03617,-0.904337 -0.02584,-0.589112 -0.04651,-1.281576 -0.02067,-0.692464 -0.02067,-1.405599 0,-0.713134 0.04134,-1.297078 l 0.03101,-0.413411 -0.335896,-0.24288 0.558105,-0.506429 z m 1.524454,3.327962 q 0.382406,-0.149861 0.785482,-0.403076 0.403076,-0.253214 0.697632,-0.552938 0.294556,-0.304891 0.428914,-0.630452 0.06201,-0.144694 0.06201,-0.289388 0,-0.170532 -0.08785,-0.335897 -0.09302,-0.170532 -0.397908,-0.217041 -0.248047,-0.04134 -0.511597,-0.04134 -0.05684,0 -0.118856,0 -0.382405,0.02067 -0.837158,0.09819 z"
         style="font-style:normal;font-variant:normal;font-weight:normal;font-stretch:normal;line-height:1;font-family:AngryBirds;-inkscape-font-specification:AngryBirds;text-align:end;text-anchor:end;fill:#ffffff;stroke-width:0.06354109"
         id="path273" />
    </g>
    <g
       id="g1238"
       transform="matrix(0.28839075,0,0,0.28839075,8.4383078,8.6923172)"
       style="font-style:normal;font-variant:normal;font-weight:normal;font-stretch:normal;font-size:medium;line-height:1;font-family:'URW Gothic L';-inkscape-font-specification:'URW Gothic L';text-align:center;letter-spacing:0px;word-spacing:0px;text-anchor:middle;fill:#ffffff;fill-opacity:1;stroke:none;stroke-width:0.24015531">
      <g
         id="g1502"
         transform="matrix(0.35277777,0,0,-0.35277777,27.789165,45.642234)"
         inkscape:export-xdpi="300"
         inkscape:export-ydpi="300">
        <path
           d="m 0,0 c 0.37,0.035 0.737,0.083 1.105,0.122 0.547,0.061 1.093,0.118 1.634,0.193 0.391,0.053 0.778,0.118 1.166,0.178 0.511,0.081 1.021,0.161 1.526,0.254 0.403,0.075 0.8,0.157 1.2,0.238 0.484,0.099 0.969,0.201 1.447,0.311 0.408,0.094 0.812,0.193 1.215,0.296 0.464,0.115 0.925,0.236 1.382,0.364 0.409,0.113 0.816,0.232 1.223,0.354 0.442,0.133 0.88,0.27 1.317,0.414 0.412,0.136 0.821,0.271 1.228,0.414 0.42,0.148 0.837,0.302 1.253,0.459 0.066,0.025 0.132,0.047 0.197,0.073 23.441,7.653 40.334,28.748 40.334,53.526 0,21.529 -12.748,40.283 -31.464,49.856 -0.658,0.336 -1.323,0.656 -1.994,0.967 -0.27,0.127 -0.54,0.249 -0.811,0.372 -0.684,0.306 -1.374,0.606 -2.074,0.889 -0.21,0.085 -0.423,0.165 -0.635,0.246 -0.587,0.232 -1.18,0.453 -1.777,0.666 -0.242,0.087 -0.483,0.175 -0.726,0.258 -0.736,0.252 -1.48,0.491 -2.229,0.716 -0.237,0.07 -0.473,0.139 -0.71,0.207 -0.698,0.2 -1.4,0.391 -2.107,0.568 -0.129,0.032 -0.256,0.07 -0.386,0.101 -0.806,0.194 -1.624,0.37 -2.445,0.535 -0.22,0.044 -0.442,0.087 -0.665,0.13 -0.826,0.158 -1.657,0.302 -2.495,0.424 -0.153,0.022 -0.306,0.04 -0.457,0.06 -0.773,0.11 -1.551,0.204 -2.333,0.283 -0.164,0.016 -0.327,0.037 -0.492,0.051 -0.869,0.082 -1.742,0.145 -2.619,0.191 -0.194,0.011 -0.387,0.016 -0.579,0.025 -0.91,0.039 -1.823,0.067 -2.742,0.067 -0.995,0 -1.985,-0.027 -2.969,-0.073 -0.329,-0.014 -0.656,-0.045 -0.984,-0.065 -0.651,-0.041 -1.302,-0.081 -1.945,-0.141 -0.392,-0.038 -0.778,-0.088 -1.164,-0.132 -0.577,-0.064 -1.156,-0.127 -1.728,-0.208 -0.411,-0.058 -0.82,-0.128 -1.23,-0.194 -0.539,-0.088 -1.079,-0.174 -1.615,-0.273 -0.42,-0.079 -0.838,-0.17 -1.257,-0.257 -0.516,-0.109 -1.03,-0.218 -1.541,-0.338 -0.423,-0.1 -0.844,-0.208 -1.266,-0.316 -0.494,-0.129 -0.989,-0.26 -1.479,-0.401 -0.425,-0.12 -0.846,-0.247 -1.267,-0.377 -0.476,-0.147 -0.948,-0.298 -1.42,-0.457 -0.424,-0.142 -0.847,-0.288 -1.268,-0.438 -0.455,-0.165 -0.906,-0.336 -1.357,-0.509 -0.423,-0.164 -0.847,-0.329 -1.265,-0.502 -0.435,-0.18 -0.866,-0.367 -1.296,-0.557 -0.422,-0.184 -0.844,-0.371 -1.26,-0.565 -0.413,-0.192 -0.821,-0.396 -1.228,-0.597 -0.423,-0.209 -0.847,-0.416 -1.262,-0.635 -0.383,-0.201 -0.761,-0.411 -1.138,-0.62 -0.429,-0.237 -0.86,-0.471 -1.281,-0.717 -0.341,-0.197 -0.674,-0.41 -1.011,-0.613 -0.447,-0.272 -0.897,-0.542 -1.335,-0.824 -0.252,-0.164 -0.496,-0.337 -0.747,-0.503 -1.878,-1.256 -3.68,-2.604 -5.392,-4.049 -0.08,-0.069 -0.162,-0.131 -0.241,-0.199 -0.51,-0.434 -1.004,-0.886 -1.497,-1.336 -0.165,-0.151 -0.336,-0.3 -0.498,-0.449 -0.466,-0.437 -0.916,-0.885 -1.367,-1.335 -0.179,-0.179 -0.362,-0.353 -0.537,-0.534 -0.439,-0.449 -0.864,-0.908 -1.286,-1.37 -0.174,-0.192 -0.353,-0.379 -0.525,-0.574 -0.415,-0.465 -0.819,-0.941 -1.22,-1.421 -0.165,-0.197 -0.33,-0.396 -0.492,-0.595 -0.396,-0.488 -0.782,-0.984 -1.162,-1.486 -0.15,-0.197 -0.3,-0.395 -0.448,-0.596 -0.379,-0.513 -0.748,-1.033 -1.111,-1.56 -0.132,-0.192 -0.262,-0.387 -0.392,-0.582 -0.364,-0.543 -0.719,-1.091 -1.062,-1.646 -0.113,-0.182 -0.222,-0.365 -0.332,-0.546 -0.35,-0.578 -0.69,-1.16 -1.019,-1.753 -0.087,-0.156 -0.17,-0.314 -0.255,-0.472 -0.339,-0.623 -0.668,-1.251 -0.984,-1.888 -0.057,-0.115 -0.11,-0.234 -0.167,-0.35 -0.333,-0.684 -0.655,-1.373 -0.958,-2.07 -0.016,-0.038 -0.03,-0.077 -0.046,-0.112 -2.042,-4.726 -3.428,-9.77 -4.05,-15.03 0,0 -0.001,-0.005 -0.001,-0.007 -0.247,-2.082 -0.385,-4.195 -0.385,-6.34 0,-4.401 0.551,-8.681 1.558,-12.797 3.421,-20.813 20.048,-37.652 41.679,-42.927 0.011,-0.003 0.022,-0.007 0.033,-0.008 0.868,-0.213 1.744,-0.403 2.627,-0.575 0.057,-0.012 0.114,-0.027 0.17,-0.037 0.825,-0.159 1.657,-0.297 2.496,-0.423 0.117,-0.017 0.231,-0.041 0.351,-0.059 0.784,-0.113 1.577,-0.203 2.372,-0.284 0.171,-0.019 0.341,-0.046 0.512,-0.062 0.763,-0.073 1.53,-0.123 2.301,-0.168 0.207,-0.01 0.41,-0.033 0.62,-0.043 0.975,-0.044 1.957,-0.07 2.946,-0.07 0.944,0 1.881,0.026 2.813,0.067 0.312,0.013 0.62,0.042 0.929,0.06 C -1.229,-0.092 -0.612,-0.055 0,0"
           style="fill:#191b23;fill-opacity:1;fill-rule:nonzero;stroke:none"
           id="path1504"
           inkscape:connector-curvature="0" />
      </g>
      <g
         id="g1506"
         transform="matrix(0.35277777,0,0,-0.35277777,25.330705,43.612734)"
         inkscape:export-xdpi="300"
         inkscape:export-ydpi="300">
        <path
           d="m 0,0 c -31.322,0 -56.803,24.145 -56.803,53.827 0,29.679 25.481,53.827 56.803,53.827 31.32,0 56.803,-24.148 56.803,-53.827 C 56.803,24.145 31.32,0 0,0"
           style="fill:#6bdf3b;fill-opacity:1;fill-rule:nonzero;stroke:none"
           id="path1508"
           inkscape:connector-curvature="0" />
      </g>
      <g
         id="g1510"
         transform="matrix(0.35277777,0,0,-0.35277777,27.494575,6.7502043)"
         inkscape:export-xdpi="300"
         inkscape:export-ydpi="300">
        <path
           d="m 0,0 c 7.234,0 14.215,-1.163 20.756,-3.266 -8.01,4.097 -17.167,6.428 -26.89,6.428 -29.171,0 -53.263,-20.947 -56.438,-47.8 C -55.064,-19.171 -29.587,0 0,0"
           style="fill:#94f462;fill-opacity:1;fill-rule:nonzero;stroke:none"
           id="path1512"
           inkscape:connector-curvature="0" />
      </g>
      <g
         id="g1514"
         transform="matrix(0.35277777,0,0,-0.35277777,24.634485,43.047724)"
         inkscape:export-xdpi="300"
         inkscape:export-ydpi="300">
        <path
           d="m 0,0 c -29.756,0 -53.966,22.443 -53.966,50.03 0,27.586 24.21,50.03 53.966,50.03 29.757,0 53.966,-22.444 53.966,-50.03 C 53.966,22.443 29.757,0 0,0"
           style="fill:#236e05;fill-opacity:1;fill-rule:nonzero;stroke:none"
           id="path1516"
           inkscape:connector-curvature="0" />
      </g>
      <g
         id="g1518"
         transform="matrix(0.35277777,0,0,-0.35277777,24.634485,43.895204)"
         inkscape:export-xdpi="300"
         inkscape:export-ydpi="300">
        <path
           d="m 0,0 c -29.756,0 -53.966,22.442 -53.966,50.029 0,27.585 24.21,50.03 53.966,50.03 29.757,0 53.966,-22.445 53.966,-50.03 C 53.966,22.442 29.757,0 0,0"
           style="fill:#37a60c;fill-opacity:1;fill-rule:nonzero;stroke:none"
           id="path1520"
           inkscape:connector-curvature="0" />
      </g>
      <g
         id="g1522"
         transform="matrix(0.35277777,0,0,-0.35277777,21.854985,42.933354)"
         inkscape:export-xdpi="300"
         inkscape:export-ydpi="300">
        <path
           d="m 0,0 c -4.597,0 -9.089,0.471 -13.436,1.349 6.542,-2.619 13.748,-4.076 21.315,-4.076 27.527,0 50.29,19.21 53.55,43.926 C 52.726,17.466 28.239,0 0,0"
           style="fill:#2d9103;fill-opacity:1;fill-rule:nonzero;stroke:none"
           id="path1524"
           inkscape:connector-curvature="0" />
      </g>
      <g
         id="g1526"
         transform="matrix(0.35277777,0,0,-0.35277777,24.634485,41.766154)"
         inkscape:export-xdpi="300"
         inkscape:export-ydpi="300">
        <path
           d="m 0,0 c -26.167,0 -47.455,19.736 -47.455,43.994 0,24.258 21.288,43.993 47.455,43.993 26.166,0 47.455,-19.735 47.455,-43.993 C 47.455,19.736 26.166,0 0,0"
           style="fill:#236e05;fill-opacity:1;fill-rule:nonzero;stroke:none"
           id="path1528"
           inkscape:connector-curvature="0" />
      </g>
      <g
         id="g1530"
         transform="matrix(0.35277777,0,0,-0.35277777,40.623835,26.246014)"
         inkscape:export-xdpi="300"
         inkscape:export-ydpi="300">
        <path
           d="m 0,0 c 0,-23.207 -20.292,-42.018 -45.324,-42.018 -25.033,0 -45.324,18.811 -45.324,42.018 0,23.206 20.291,42.018 45.324,42.018 C -20.292,42.018 0,23.206 0,0"
           style="fill:#d8e0e9;fill-opacity:1;fill-rule:nonzero;stroke:none"
           id="path1532"
           inkscape:connector-curvature="0" />
      </g>
      <g
         id="g1534"
         transform="matrix(0.35277777,0,0,-0.35277777,-160.13188,75.160834)"
         inkscape:export-xdpi="300"
         inkscape:export-ydpi="300">
        <g
           id="g1536" />
        <g
           id="g1548">
          <g
             clip-path="url(#clipPath1540)"
             id="g1546"
             style="opacity:0.64999402">
            <g
               transform="translate(559.8223,162.9775)"
               id="g1544">
              <path
                 d="m 0,0 c 0.294,0 0.587,-0.01 0.882,-0.011 -8.215,10.711 -21.699,17.707 -36.957,17.707 -25.032,0 -45.324,-18.811 -45.324,-42.017 0,-5.833 1.291,-11.385 3.608,-16.434 C -61.582,-16.461 -32.555,0 0,0"
                 style="fill:#f9f9fa;fill-opacity:1;fill-rule:nonzero;stroke:none"
                 id="path1542"
                 inkscape:connector-curvature="0" />
            </g>
          </g>
        </g>
      </g>
      <g
         id="g1550"
         transform="matrix(0.35277777,0,0,-0.35277777,25.875725,40.799124)"
         inkscape:export-xdpi="300"
         inkscape:export-ydpi="300">
        <path
           d="m 0,0 c 0,-1.283 -1.568,-2.322 -3.503,-2.322 -1.935,0 -3.503,1.039 -3.503,2.322 v 3.915 c 0,1.283 1.568,2.322 3.503,2.322 C -1.568,6.237 0,5.198 0,3.915 Z"
           style="fill:#236e05;fill-opacity:1;fill-rule:nonzero;stroke:none"
           id="path1552"
           inkscape:connector-curvature="0" />
      </g>
      <g
         id="g1554"
         transform="matrix(0.35277777,0,0,-0.35277777,25.875725,12.926574)"
         inkscape:export-xdpi="300"
         inkscape:export-ydpi="300">
        <path
           d="m 0,0 c 0,-1.282 -1.568,-2.322 -3.503,-2.322 -1.935,0 -3.503,1.04 -3.503,2.322 v 3.915 c 0,1.284 1.568,2.322 3.503,2.322 C -1.568,6.237 0,5.199 0,3.915 Z"
           style="fill:#236e05;fill-opacity:1;fill-rule:nonzero;stroke:none"
           id="path1556"
           inkscape:connector-curvature="0" />
      </g>
      <g
         id="g1558"
         transform="matrix(0.35277777,0,0,-0.35277777,40.417455,25.026424)"
         inkscape:export-xdpi="300"
         inkscape:export-ydpi="300">
        <path
           d="M 0,0 C 1.383,0 2.506,-1.454 2.506,-3.248 2.506,-5.043 1.383,-6.495 0,-6.495 h -4.224 c -1.383,0 -2.504,1.452 -2.504,3.247 0,1.794 1.121,3.248 2.504,3.248 z"
           style="fill:#236e05;fill-opacity:1;fill-rule:nonzero;stroke:none"
           id="path1560"
           inkscape:connector-curvature="0" />
      </g>
      <g
         id="g1562"
         transform="matrix(0.35277777,0,0,-0.35277777,10.352115,25.026424)"
         inkscape:export-xdpi="300"
         inkscape:export-ydpi="300">
        <path
           d="M 0,0 C 1.385,0 2.505,-1.455 2.505,-3.248 2.505,-5.044 1.385,-6.496 0,-6.496 h -4.223 c -1.383,0 -2.506,1.452 -2.506,3.248 0,1.793 1.123,3.248 2.506,3.248 z"
           style="fill:#236e05;fill-opacity:1;fill-rule:nonzero;stroke:none"
           id="path1564"
           inkscape:connector-curvature="0" />
      </g>
      <g
         id="g1566"
         transform="matrix(0.35277777,0,0,-0.35277777,32.494435,29.720734)"
         inkscape:export-xdpi="300"
         inkscape:export-ydpi="300">
        <path
           d="M 0,0 C 0.526,-0.298 0.322,-1.497 -0.456,-2.68 -1.232,-3.861 -2.29,-4.579 -2.814,-4.282 L -24.39,7.911 c -0.524,0.298 -0.322,1.499 0.455,2.679 0.779,1.183 1.835,1.9 2.362,1.603 z"
           style="fill:#231f20;fill-opacity:1;fill-rule:nonzero;stroke:none"
           id="path1568"
           inkscape:connector-curvature="0" />
      </g>
      <g
         id="g1570"
         transform="matrix(0.35277777,0,0,-0.35277777,32.374545,30.597494)"
         inkscape:export-xdpi="300"
         inkscape:export-ydpi="300">
        <path
           d="m 0,0 c 0.676,1.117 0.837,2.204 0.34,2.485 l -14.775,8.352 C -9.632,7.214 -4.824,3.595 0,0"
           style="fill:#414042;fill-opacity:1;fill-rule:nonzero;stroke:none"
           id="path1572"
           inkscape:connector-curvature="0" />
      </g>
      <g
         id="g1574"
         transform="matrix(0.35277777,0,0,-0.35277777,25.443365,25.807794)"
         inkscape:export-xdpi="300"
         inkscape:export-ydpi="300">
        <path
           d="m 0,0 c 0,-0.687 -1.021,-1.242 -2.278,-1.242 -1.258,0 -2.279,0.555 -2.279,1.242 v 28.141 c 0,0.686 1.021,1.241 2.279,1.241 1.257,0 2.278,-0.555 2.278,-1.241 z"
           style="fill:#231f20;fill-opacity:1;fill-rule:nonzero;stroke:none"
           id="path1576"
           inkscape:connector-curvature="0" />
      </g>
      <g
         id="g1578"
         transform="matrix(0.35277777,0,0,-0.35277777,24.394345,15.465614)"
         inkscape:export-xdpi="300"
         inkscape:export-ydpi="300">
        <path
           d="m 0,0 c -0.916,-0.16 -1.583,-0.622 -1.583,-1.176 v -28.14 c 0,-0.554 0.667,-1.016 1.583,-1.177 z"
           style="fill:#414042;fill-opacity:1;fill-rule:nonzero;stroke:none"
           id="path1580"
           inkscape:connector-curvature="0" />
      </g>
      <g
         id="g1582"
         transform="matrix(0.35277777,0,0,-0.35277777,26.443495,26.211544)"
         inkscape:export-xdpi="300"
         inkscape:export-ydpi="300">
        <path
           d="m 0,0 c 0,-2.617 -2.289,-4.739 -5.112,-4.739 -2.825,0 -5.114,2.122 -5.114,4.739 0,2.618 2.289,4.742 5.114,4.742 C -2.289,4.742 0,2.618 0,0"
           style="fill:#231f20;fill-opacity:1;fill-rule:nonzero;stroke:none"
           id="path1584"
           inkscape:connector-curvature="0" />
      </g>
      <g
         id="g1586"
         transform="matrix(0.35277777,0,0,-0.35277777,25.364465,25.321664)"
         inkscape:export-xdpi="300"
         inkscape:export-ydpi="300">
        <path
           d="M 0,0 C 0.951,0 1.791,-0.171 2.531,-0.462 1.702,1.12 -0.03,2.22 -2.054,2.22 c -2.824,0 -5.113,-2.124 -5.113,-4.742 0,-0.985 0.324,-1.899 0.879,-2.657 C -5.743,-2.41 -3.651,0 0,0"
           style="fill:#414042;fill-opacity:1;fill-rule:nonzero;stroke:none"
           id="path1588"
           inkscape:connector-curvature="0" />
      </g>
    </g>
  </g>
</svg>
