<?xml version="1.0" encoding="UTF-8" standalone="no"?>
<!-- Created with Inkscape (http://www.inkscape.org/) -->

<svg
   xmlns:dc="http://purl.org/dc/elements/1.1/"
   xmlns:cc="http://creativecommons.org/ns#"
   xmlns:rdf="http://www.w3.org/1999/02/22-rdf-syntax-ns#"
   xmlns:svg="http://www.w3.org/2000/svg"
   xmlns="http://www.w3.org/2000/svg"
   xmlns:xlink="http://www.w3.org/1999/xlink"
   xmlns:sodipodi="http://sodipodi.sourceforge.net/DTD/sodipodi-0.dtd"
   xmlns:inkscape="http://www.inkscape.org/namespaces/inkscape"
   width="210mm"
   height="297mm"
   viewBox="0 0 210 297"
   version="1.1"
   id="svg8"
   inkscape:version="0.92.1 r15371"
   sodipodi:docname="msg_tempo.svg">
  <defs
     id="defs2">
    <inkscape:path-effect
       effect="bspline"
       id="path-effect33"
       is_visible="true"
       weight="33.333333"
       steps="2"
       helper_size="0"
       apply_no_weight="true"
       apply_with_weight="true"
       only_selected="false" />
    <linearGradient
       inkscape:collect="always"
       id="linearGradient26">
      <stop
         style="stop-color:#ffff00;stop-opacity:1;"
         offset="0"
         id="stop22" />
      <stop
         style="stop-color:#a3a35c;stop-opacity:1"
         offset="1"
         id="stop24" />
    </linearGradient>
    <linearGradient
       inkscape:collect="always"
       xlink:href="#linearGradient26"
       id="linearGradient28"
       x1="48.85342"
       y1="85.900291"
       x2="-1.7008941"
       y2="72.198654"
       gradientUnits="userSpaceOnUse"
       gradientTransform="translate(-7.2602112e-5,3.7700306e-5)" />
    <clipPath
       clipPathUnits="userSpaceOnUse"
       id="clipPath1540">
      <path
         d="m 478.423,180.674 h 82.281 v -58.451 h -82.281 z"
         id="path1538"
         inkscape:connector-curvature="0" />
    </clipPath>
  </defs>
  <sodipodi:namedview
     id="base"
     pagecolor="#ffffff"
     bordercolor="#666666"
     borderopacity="1.0"
     inkscape:pageopacity="0.0"
     inkscape:pageshadow="2"
     inkscape:zoom="1.4142136"
     inkscape:cx="280.4047"
     inkscape:cy="772.32191"
     inkscape:document-units="mm"
     inkscape:current-layer="g252"
     showgrid="false"
     inkscape:window-width="1269"
     inkscape:window-height="704"
     inkscape:window-x="0"
     inkscape:window-y="27"
     inkscape:window-maximized="1"
     showguides="false" />
  <metadata
     id="metadata5">
    <rdf:RDF>
      <cc:Work
         rdf:about="">
        <dc:format>image/svg+xml</dc:format>
        <dc:type
           rdf:resource="http://purl.org/dc/dcmitype/StillImage" />
        <dc:title />
      </cc:Work>
    </rdf:RDF>
  </metadata>
  <g
     inkscape:label="Camada 1"
     inkscape:groupmode="layer"
     id="layer1">
    <path
       style="opacity:1;fill:#ff6600;fill-opacity:1;stroke:none;stroke-width:0.98895723;stroke-linejoin:round;stroke-miterlimit:4;stroke-dasharray:none;stroke-dashoffset:0;stroke-opacity:1"
       d="M 10.488766,79.276297 H 82.151759 V 102.96145 H 10.488766 Z"
       id="rect20"
       inkscape:connector-curvature="0" />
    <g
       id="g252"
       transform="translate(-0.50051341,0.10269995)">
      <text
         xml:space="preserve"
         style="font-style:normal;font-variant:normal;font-weight:normal;font-stretch:normal;font-size:10.58333302px;line-height:1;font-family:'URW Gothic L';-inkscape-font-specification:'URW Gothic L';text-align:end;letter-spacing:0px;word-spacing:0px;text-anchor:end;fill:#ffffff;fill-opacity:1;stroke:none;stroke-width:0.06354109"
         x="80.800613"
         y="90.129272"
         id="text29"><tspan
           sodipodi:role="line"
           x="82.909012"
           y="90.129272"
           style="font-style:normal;font-variant:normal;font-weight:normal;font-stretch:normal;line-height:1;font-family:AngryBirds;-inkscape-font-specification:AngryBirds;text-align:end;text-anchor:end;fill:#ffffff;stroke-width:0.06354109"
           id="tspan31">você tem 30s </tspan><tspan
           id="tspan204"
           sodipodi:role="line"
           x="80.800613"
           y="100.75617"
           style="font-style:normal;font-variant:normal;font-weight:normal;font-stretch:normal;line-height:1;font-family:AngryBirds;-inkscape-font-specification:AngryBirds;text-align:end;text-anchor:end;fill:#ffffff;stroke-width:0.06354109">para responder</tspan></text>
      <g
         id="g1238"
         transform="matrix(0.28839075,0,0,0.28839075,12.925751,79.387063)"
         style="font-style:normal;font-variant:normal;font-weight:normal;font-stretch:normal;font-size:medium;line-height:1;font-family:'URW Gothic L';-inkscape-font-specification:'URW Gothic L';text-align:center;letter-spacing:0px;word-spacing:0px;text-anchor:middle;fill:#ffffff;fill-opacity:1;stroke:none;stroke-width:0.24015531">
        <g
           id="g1502"
           transform="matrix(0.35277777,0,0,-0.35277777,27.789165,45.642234)"
           inkscape:export-xdpi="300"
           inkscape:export-ydpi="300">
          <path
             d="m 0,0 c 0.37,0.035 0.737,0.083 1.105,0.122 0.547,0.061 1.093,0.118 1.634,0.193 0.391,0.053 0.778,0.118 1.166,0.178 0.511,0.081 1.021,0.161 1.526,0.254 0.403,0.075 0.8,0.157 1.2,0.238 0.484,0.099 0.969,0.201 1.447,0.311 0.408,0.094 0.812,0.193 1.215,0.296 0.464,0.115 0.925,0.236 1.382,0.364 0.409,0.113 0.816,0.232 1.223,0.354 0.442,0.133 0.88,0.27 1.317,0.414 0.412,0.136 0.821,0.271 1.228,0.414 0.42,0.148 0.837,0.302 1.253,0.459 0.066,0.025 0.132,0.047 0.197,0.073 23.441,7.653 40.334,28.748 40.334,53.526 0,21.529 -12.748,40.283 -31.464,49.856 -0.658,0.336 -1.323,0.656 -1.994,0.967 -0.27,0.127 -0.54,0.249 -0.811,0.372 -0.684,0.306 -1.374,0.606 -2.074,0.889 -0.21,0.085 -0.423,0.165 -0.635,0.246 -0.587,0.232 -1.18,0.453 -1.777,0.666 -0.242,0.087 -0.483,0.175 -0.726,0.258 -0.736,0.252 -1.48,0.491 -2.229,0.716 -0.237,0.07 -0.473,0.139 -0.71,0.207 -0.698,0.2 -1.4,0.391 -2.107,0.568 -0.129,0.032 -0.256,0.07 -0.386,0.101 -0.806,0.194 -1.624,0.37 -2.445,0.535 -0.22,0.044 -0.442,0.087 -0.665,0.13 -0.826,0.158 -1.657,0.302 -2.495,0.424 -0.153,0.022 -0.306,0.04 -0.457,0.06 -0.773,0.11 -1.551,0.204 -2.333,0.283 -0.164,0.016 -0.327,0.037 -0.492,0.051 -0.869,0.082 -1.742,0.145 -2.619,0.191 -0.194,0.011 -0.387,0.016 -0.579,0.025 -0.91,0.039 -1.823,0.067 -2.742,0.067 -0.995,0 -1.985,-0.027 -2.969,-0.073 -0.329,-0.014 -0.656,-0.045 -0.984,-0.065 -0.651,-0.041 -1.302,-0.081 -1.945,-0.141 -0.392,-0.038 -0.778,-0.088 -1.164,-0.132 -0.577,-0.064 -1.156,-0.127 -1.728,-0.208 -0.411,-0.058 -0.82,-0.128 -1.23,-0.194 -0.539,-0.088 -1.079,-0.174 -1.615,-0.273 -0.42,-0.079 -0.838,-0.17 -1.257,-0.257 -0.516,-0.109 -1.03,-0.218 -1.541,-0.338 -0.423,-0.1 -0.844,-0.208 -1.266,-0.316 -0.494,-0.129 -0.989,-0.26 -1.479,-0.401 -0.425,-0.12 -0.846,-0.247 -1.267,-0.377 -0.476,-0.147 -0.948,-0.298 -1.42,-0.457 -0.424,-0.142 -0.847,-0.288 -1.268,-0.438 -0.455,-0.165 -0.906,-0.336 -1.357,-0.509 -0.423,-0.164 -0.847,-0.329 -1.265,-0.502 -0.435,-0.18 -0.866,-0.367 -1.296,-0.557 -0.422,-0.184 -0.844,-0.371 -1.26,-0.565 -0.413,-0.192 -0.821,-0.396 -1.228,-0.597 -0.423,-0.209 -0.847,-0.416 -1.262,-0.635 -0.383,-0.201 -0.761,-0.411 -1.138,-0.62 -0.429,-0.237 -0.86,-0.471 -1.281,-0.717 -0.341,-0.197 -0.674,-0.41 -1.011,-0.613 -0.447,-0.272 -0.897,-0.542 -1.335,-0.824 -0.252,-0.164 -0.496,-0.337 -0.747,-0.503 -1.878,-1.256 -3.68,-2.604 -5.392,-4.049 -0.08,-0.069 -0.162,-0.131 -0.241,-0.199 -0.51,-0.434 -1.004,-0.886 -1.497,-1.336 -0.165,-0.151 -0.336,-0.3 -0.498,-0.449 -0.466,-0.437 -0.916,-0.885 -1.367,-1.335 -0.179,-0.179 -0.362,-0.353 -0.537,-0.534 -0.439,-0.449 -0.864,-0.908 -1.286,-1.37 -0.174,-0.192 -0.353,-0.379 -0.525,-0.574 -0.415,-0.465 -0.819,-0.941 -1.22,-1.421 -0.165,-0.197 -0.33,-0.396 -0.492,-0.595 -0.396,-0.488 -0.782,-0.984 -1.162,-1.486 -0.15,-0.197 -0.3,-0.395 -0.448,-0.596 -0.379,-0.513 -0.748,-1.033 -1.111,-1.56 -0.132,-0.192 -0.262,-0.387 -0.392,-0.582 -0.364,-0.543 -0.719,-1.091 -1.062,-1.646 -0.113,-0.182 -0.222,-0.365 -0.332,-0.546 -0.35,-0.578 -0.69,-1.16 -1.019,-1.753 -0.087,-0.156 -0.17,-0.314 -0.255,-0.472 -0.339,-0.623 -0.668,-1.251 -0.984,-1.888 -0.057,-0.115 -0.11,-0.234 -0.167,-0.35 -0.333,-0.684 -0.655,-1.373 -0.958,-2.07 -0.016,-0.038 -0.03,-0.077 -0.046,-0.112 -2.042,-4.726 -3.428,-9.77 -4.05,-15.03 0,0 -0.001,-0.005 -0.001,-0.007 -0.247,-2.082 -0.385,-4.195 -0.385,-6.34 0,-4.401 0.551,-8.681 1.558,-12.797 3.421,-20.813 20.048,-37.652 41.679,-42.927 0.011,-0.003 0.022,-0.007 0.033,-0.008 0.868,-0.213 1.744,-0.403 2.627,-0.575 0.057,-0.012 0.114,-0.027 0.17,-0.037 0.825,-0.159 1.657,-0.297 2.496,-0.423 0.117,-0.017 0.231,-0.041 0.351,-0.059 0.784,-0.113 1.577,-0.203 2.372,-0.284 0.171,-0.019 0.341,-0.046 0.512,-0.062 0.763,-0.073 1.53,-0.123 2.301,-0.168 0.207,-0.01 0.41,-0.033 0.62,-0.043 0.975,-0.044 1.957,-0.07 2.946,-0.07 0.944,0 1.881,0.026 2.813,0.067 0.312,0.013 0.62,0.042 0.929,0.06 C -1.229,-0.092 -0.612,-0.055 0,0"
             style="fill:#191b23;fill-opacity:1;fill-rule:nonzero;stroke:none"
             id="path1504"
             inkscape:connector-curvature="0" />
        </g>
        <g
           id="g1506"
           transform="matrix(0.35277777,0,0,-0.35277777,25.330705,43.612734)"
           inkscape:export-xdpi="300"
           inkscape:export-ydpi="300">
          <path
             d="m 0,0 c -31.322,0 -56.803,24.145 -56.803,53.827 0,29.679 25.481,53.827 56.803,53.827 31.32,0 56.803,-24.148 56.803,-53.827 C 56.803,24.145 31.32,0 0,0"
             style="fill:#6bdf3b;fill-opacity:1;fill-rule:nonzero;stroke:none"
             id="path1508"
             inkscape:connector-curvature="0" />
        </g>
        <g
           id="g1510"
           transform="matrix(0.35277777,0,0,-0.35277777,27.494575,6.7502043)"
           inkscape:export-xdpi="300"
           inkscape:export-ydpi="300">
          <path
             d="m 0,0 c 7.234,0 14.215,-1.163 20.756,-3.266 -8.01,4.097 -17.167,6.428 -26.89,6.428 -29.171,0 -53.263,-20.947 -56.438,-47.8 C -55.064,-19.171 -29.587,0 0,0"
             style="fill:#94f462;fill-opacity:1;fill-rule:nonzero;stroke:none"
             id="path1512"
             inkscape:connector-curvature="0" />
        </g>
        <g
           id="g1514"
           transform="matrix(0.35277777,0,0,-0.35277777,24.634485,43.047724)"
           inkscape:export-xdpi="300"
           inkscape:export-ydpi="300">
          <path
             d="m 0,0 c -29.756,0 -53.966,22.443 -53.966,50.03 0,27.586 24.21,50.03 53.966,50.03 29.757,0 53.966,-22.444 53.966,-50.03 C 53.966,22.443 29.757,0 0,0"
             style="fill:#236e05;fill-opacity:1;fill-rule:nonzero;stroke:none"
             id="path1516"
             inkscape:connector-curvature="0" />
        </g>
        <g
           id="g1518"
           transform="matrix(0.35277777,0,0,-0.35277777,24.634485,43.895204)"
           inkscape:export-xdpi="300"
           inkscape:export-ydpi="300">
          <path
             d="m 0,0 c -29.756,0 -53.966,22.442 -53.966,50.029 0,27.585 24.21,50.03 53.966,50.03 29.757,0 53.966,-22.445 53.966,-50.03 C 53.966,22.442 29.757,0 0,0"
             style="fill:#37a60c;fill-opacity:1;fill-rule:nonzero;stroke:none"
             id="path1520"
             inkscape:connector-curvature="0" />
        </g>
        <g
           id="g1522"
           transform="matrix(0.35277777,0,0,-0.35277777,21.854985,42.933354)"
           inkscape:export-xdpi="300"
           inkscape:export-ydpi="300">
          <path
             d="m 0,0 c -4.597,0 -9.089,0.471 -13.436,1.349 6.542,-2.619 13.748,-4.076 21.315,-4.076 27.527,0 50.29,19.21 53.55,43.926 C 52.726,17.466 28.239,0 0,0"
             style="fill:#2d9103;fill-opacity:1;fill-rule:nonzero;stroke:none"
             id="path1524"
             inkscape:connector-curvature="0" />
        </g>
        <g
           id="g1526"
           transform="matrix(0.35277777,0,0,-0.35277777,24.634485,41.766154)"
           inkscape:export-xdpi="300"
           inkscape:export-ydpi="300">
          <path
             d="m 0,0 c -26.167,0 -47.455,19.736 -47.455,43.994 0,24.258 21.288,43.993 47.455,43.993 26.166,0 47.455,-19.735 47.455,-43.993 C 47.455,19.736 26.166,0 0,0"
             style="fill:#236e05;fill-opacity:1;fill-rule:nonzero;stroke:none"
             id="path1528"
             inkscape:connector-curvature="0" />
        </g>
        <g
           id="g1530"
           transform="matrix(0.35277777,0,0,-0.35277777,40.623835,26.246014)"
           inkscape:export-xdpi="300"
           inkscape:export-ydpi="300">
          <path
             d="m 0,0 c 0,-23.207 -20.292,-42.018 -45.324,-42.018 -25.033,0 -45.324,18.811 -45.324,42.018 0,23.206 20.291,42.018 45.324,42.018 C -20.292,42.018 0,23.206 0,0"
             style="fill:#d8e0e9;fill-opacity:1;fill-rule:nonzero;stroke:none"
             id="path1532"
             inkscape:connector-curvature="0" />
        </g>
        <g
           id="g1534"
           transform="matrix(0.35277777,0,0,-0.35277777,-160.13188,75.160834)"
           inkscape:export-xdpi="300"
           inkscape:export-ydpi="300">
          <g
             id="g1536" />
          <g
             id="g1548">
            <g
               clip-path="url(#clipPath1540)"
               id="g1546"
               style="opacity:0.64999402">
              <g
                 transform="translate(559.8223,162.9775)"
                 id="g1544">
                <path
                   d="m 0,0 c 0.294,0 0.587,-0.01 0.882,-0.011 -8.215,10.711 -21.699,17.707 -36.957,17.707 -25.032,0 -45.324,-18.811 -45.324,-42.017 0,-5.833 1.291,-11.385 3.608,-16.434 C -61.582,-16.461 -32.555,0 0,0"
                   style="fill:#f9f9fa;fill-opacity:1;fill-rule:nonzero;stroke:none"
                   id="path1542"
                   inkscape:connector-curvature="0" />
              </g>
            </g>
          </g>
        </g>
        <g
           id="g1550"
           transform="matrix(0.35277777,0,0,-0.35277777,25.875725,40.799124)"
           inkscape:export-xdpi="300"
           inkscape:export-ydpi="300">
          <path
             d="m 0,0 c 0,-1.283 -1.568,-2.322 -3.503,-2.322 -1.935,0 -3.503,1.039 -3.503,2.322 v 3.915 c 0,1.283 1.568,2.322 3.503,2.322 C -1.568,6.237 0,5.198 0,3.915 Z"
             style="fill:#236e05;fill-opacity:1;fill-rule:nonzero;stroke:none"
             id="path1552"
             inkscape:connector-curvature="0" />
        </g>
        <g
           id="g1554"
           transform="matrix(0.35277777,0,0,-0.35277777,25.875725,12.926574)"
           inkscape:export-xdpi="300"
           inkscape:export-ydpi="300">
          <path
             d="m 0,0 c 0,-1.282 -1.568,-2.322 -3.503,-2.322 -1.935,0 -3.503,1.04 -3.503,2.322 v 3.915 c 0,1.284 1.568,2.322 3.503,2.322 C -1.568,6.237 0,5.199 0,3.915 Z"
             style="fill:#236e05;fill-opacity:1;fill-rule:nonzero;stroke:none"
             id="path1556"
             inkscape:connector-curvature="0" />
        </g>
        <g
           id="g1558"
           transform="matrix(0.35277777,0,0,-0.35277777,40.417455,25.026424)"
           inkscape:export-xdpi="300"
           inkscape:export-ydpi="300">
          <path
             d="M 0,0 C 1.383,0 2.506,-1.454 2.506,-3.248 2.506,-5.043 1.383,-6.495 0,-6.495 h -4.224 c -1.383,0 -2.504,1.452 -2.504,3.247 0,1.794 1.121,3.248 2.504,3.248 z"
             style="fill:#236e05;fill-opacity:1;fill-rule:nonzero;stroke:none"
             id="path1560"
             inkscape:connector-curvature="0" />
        </g>
        <g
           id="g1562"
           transform="matrix(0.35277777,0,0,-0.35277777,10.352115,25.026424)"
           inkscape:export-xdpi="300"
           inkscape:export-ydpi="300">
          <path
             d="M 0,0 C 1.385,0 2.505,-1.455 2.505,-3.248 2.505,-5.044 1.385,-6.496 0,-6.496 h -4.223 c -1.383,0 -2.506,1.452 -2.506,3.248 0,1.793 1.123,3.248 2.506,3.248 z"
             style="fill:#236e05;fill-opacity:1;fill-rule:nonzero;stroke:none"
             id="path1564"
             inkscape:connector-curvature="0" />
        </g>
        <g
           id="g1566"
           transform="matrix(0.35277777,0,0,-0.35277777,32.494435,29.720734)"
           inkscape:export-xdpi="300"
           inkscape:export-ydpi="300">
          <path
             d="M 0,0 C 0.526,-0.298 0.322,-1.497 -0.456,-2.68 -1.232,-3.861 -2.29,-4.579 -2.814,-4.282 L -24.39,7.911 c -0.524,0.298 -0.322,1.499 0.455,2.679 0.779,1.183 1.835,1.9 2.362,1.603 z"
             style="fill:#231f20;fill-opacity:1;fill-rule:nonzero;stroke:none"
             id="path1568"
             inkscape:connector-curvature="0" />
        </g>
        <g
           id="g1570"
           transform="matrix(0.35277777,0,0,-0.35277777,32.374545,30.597494)"
           inkscape:export-xdpi="300"
           inkscape:export-ydpi="300">
          <path
             d="m 0,0 c 0.676,1.117 0.837,2.204 0.34,2.485 l -14.775,8.352 C -9.632,7.214 -4.824,3.595 0,0"
             style="fill:#414042;fill-opacity:1;fill-rule:nonzero;stroke:none"
             id="path1572"
             inkscape:connector-curvature="0" />
        </g>
        <g
           id="g1574"
           transform="matrix(0.35277777,0,0,-0.35277777,25.443365,25.807794)"
           inkscape:export-xdpi="300"
           inkscape:export-ydpi="300">
          <path
             d="m 0,0 c 0,-0.687 -1.021,-1.242 -2.278,-1.242 -1.258,0 -2.279,0.555 -2.279,1.242 v 28.141 c 0,0.686 1.021,1.241 2.279,1.241 1.257,0 2.278,-0.555 2.278,-1.241 z"
             style="fill:#231f20;fill-opacity:1;fill-rule:nonzero;stroke:none"
             id="path1576"
             inkscape:connector-curvature="0" />
        </g>
        <g
           id="g1578"
           transform="matrix(0.35277777,0,0,-0.35277777,24.394345,15.465614)"
           inkscape:export-xdpi="300"
           inkscape:export-ydpi="300">
          <path
             d="m 0,0 c -0.916,-0.16 -1.583,-0.622 -1.583,-1.176 v -28.14 c 0,-0.554 0.667,-1.016 1.583,-1.177 z"
             style="fill:#414042;fill-opacity:1;fill-rule:nonzero;stroke:none"
             id="path1580"
             inkscape:connector-curvature="0" />
        </g>
        <g
           id="g1582"
           transform="matrix(0.35277777,0,0,-0.35277777,26.443495,26.211544)"
           inkscape:export-xdpi="300"
           inkscape:export-ydpi="300">
          <path
             d="m 0,0 c 0,-2.617 -2.289,-4.739 -5.112,-4.739 -2.825,0 -5.114,2.122 -5.114,4.739 0,2.618 2.289,4.742 5.114,4.742 C -2.289,4.742 0,2.618 0,0"
             style="fill:#231f20;fill-opacity:1;fill-rule:nonzero;stroke:none"
             id="path1584"
             inkscape:connector-curvature="0" />
        </g>
        <g
           id="g1586"
           transform="matrix(0.35277777,0,0,-0.35277777,25.364465,25.321664)"
           inkscape:export-xdpi="300"
           inkscape:export-ydpi="300">
          <path
             d="M 0,0 C 0.951,0 1.791,-0.171 2.531,-0.462 1.702,1.12 -0.03,2.22 -2.054,2.22 c -2.824,0 -5.113,-2.124 -5.113,-4.742 0,-0.985 0.324,-1.899 0.879,-2.657 C -5.743,-2.41 -3.651,0 0,0"
             style="fill:#414042;fill-opacity:1;fill-rule:nonzero;stroke:none"
             id="path1588"
             inkscape:connector-curvature="0" />
        </g>
      </g>
    </g>
  </g>
</svg>
