<?xml version="1.0" encoding="UTF-8" standalone="no"?>
<!-- Created with Inkscape (http://www.inkscape.org/) -->

<svg
   xmlns:dc="http://purl.org/dc/elements/1.1/"
   xmlns:cc="http://creativecommons.org/ns#"
   xmlns:rdf="http://www.w3.org/1999/02/22-rdf-syntax-ns#"
   xmlns:svg="http://www.w3.org/2000/svg"
   xmlns="http://www.w3.org/2000/svg"
   xmlns:sodipodi="http://sodipodi.sourceforge.net/DTD/sodipodi-0.dtd"
   xmlns:inkscape="http://www.inkscape.org/namespaces/inkscape"
   width="127mm"
   height="75mm"
   viewBox="0 0 127 75"
   version="1.1"
   id="svg8"
   inkscape:version="0.92.1 r15371"
   sodipodi:docname="regras (copy).svg">
  <defs
     id="defs2">
    <clipPath
       clipPathUnits="userSpaceOnUse"
       id="clipPath398">
      <path
         d="M 273.973,746.142 H 353.1 v -28.998 h -79.127 z"
         id="path396"
         inkscape:connector-curvature="0" />
    </clipPath>
  </defs>
  <sodipodi:namedview
     id="base"
     pagecolor="#ffffff"
     bordercolor="#666666"
     borderopacity="1.0"
     inkscape:pageopacity="0.0"
     inkscape:pageshadow="2"
     inkscape:zoom="0.98994949"
     inkscape:cx="140.95852"
     inkscape:cy="121.85069"
     inkscape:document-units="mm"
     inkscape:current-layer="g2794"
     showgrid="false"
     inkscape:window-width="1269"
     inkscape:window-height="704"
     inkscape:window-x="0"
     inkscape:window-y="27"
     inkscape:window-maximized="1" />
  <metadata
     id="metadata5">
    <rdf:RDF>
      <cc:Work
         rdf:about="">
        <dc:format>image/svg+xml</dc:format>
        <dc:type
           rdf:resource="http://purl.org/dc/dcmitype/StillImage" />
        <dc:title />
      </cc:Work>
    </rdf:RDF>
  </metadata>
  <g
     inkscape:label="Camada 1"
     inkscape:groupmode="layer"
     id="layer1"
     transform="translate(0,-222)">
    <g
       id="g2794"
       transform="translate(-30.860585,67.817745)">
      <path
         inkscape:connector-curvature="0"
         id="rect10"
         d="M 31.04894,154.37061 H 157.67223 V 228.9939 H 31.04894 Z"
         style="opacity:1;fill:#800080;fill-opacity:1;stroke:#800080;stroke-width:0.37671494;stroke-linecap:round;stroke-linejoin:round;stroke-miterlimit:4;stroke-dasharray:none;stroke-dashoffset:0;stroke-opacity:1" />
      <g
         id="text295"
         style="font-style:normal;font-variant:normal;font-weight:normal;font-stretch:normal;font-size:4.96419954px;line-height:1.25;font-family:'URW Gothic L';-inkscape-font-specification:'URW Gothic L';letter-spacing:0px;word-spacing:0px;fill:#ffffff;fill-opacity:1;stroke:none;stroke-width:0.12410498"
         aria-label="[Clique para esconder]">
        <path
           inkscape:connector-curvature="0"
           id="path298"
           style="font-style:normal;font-variant:normal;font-weight:normal;font-stretch:normal;font-family:AngryBirds;-inkscape-font-specification:AngryBirds;stroke-width:0.12410498;fill:#ffffff"
           d="m 110.81268,227.62289 0.005,-3.90494 1.25074,-0.08 0.0364,0.11393 -0.16482,0.0703 0.14301,0.223 -0.1818,0.11877 0.0291,0.12847 -0.53084,0.0654 -0.0751,2.49664 0.67627,-0.005 0.0291,0.13332 -0.17937,0.0897 0.16483,0.19392 -0.12847,0.12362 0.0339,0.17452 z" />
        <path
           inkscape:connector-curvature="0"
           id="path300"
           style="font-style:normal;font-variant:normal;font-weight:normal;font-stretch:normal;font-family:AngryBirds;-inkscape-font-specification:AngryBirds;stroke-width:0.12410498;fill:#ffffff"
           d="m 112.39066,225.72254 q 0.007,-0.23755 0.0291,-0.44601 0.0194,-0.23754 0.0921,-0.48963 0.0751,-0.25209 0.19876,-0.47024 0.12605,-0.21815 0.30057,-0.38783 0.17695,-0.1721 0.4048,-0.25693 0.18906,-0.0679 0.41206,-0.0679 0.0218,0 0.0461,0 0.24724,0.007 0.55023,0.13816 l 0.0194,0.0945 -0.30784,0.16725 0.26906,0.25936 -0.16968,0.0848 0.0945,0.1624 q -0.10423,-0.0291 -0.21573,-0.0436 -0.0848,-0.0121 -0.16725,-0.0121 l -0.0558,0.002 q -0.1115,0.005 -0.21816,0.0364 -0.10665,0.0315 -0.19634,0.10665 -0.0994,0.08 -0.17694,0.25209 -0.0776,0.16967 -0.12605,0.38298 -0.0461,0.2133 -0.0606,0.45327 -0.005,0.0848 -0.005,0.16483 0,0.15028 0.017,0.28845 0.0267,0.21573 0.10422,0.3854 0.0776,0.16725 0.20604,0.24239 0.0751,0.0436 0.18179,0.0582 0.0751,0.01 0.15513,0.007 0.0315,0 0.063,0 0.1115,-0.005 0.22057,-0.0218 0.1115,-0.0194 0.19876,-0.0388 -0.01,0.0242 -0.0121,0.0558 -0.002,0.0291 -0.0121,0.0582 -0.01,0.0339 -0.0145,0.0703 l 0.23755,0.11392 -0.37571,0.24724 0.32238,0.0848 -0.0412,0.0897 q -0.21815,0.08 -0.47266,0.0969 -0.0654,0.005 -0.13089,0.005 -0.18665,0 -0.36602,-0.0364 -0.23997,-0.0485 -0.44115,-0.16725 -0.20119,-0.1212 -0.30542,-0.31511 -0.10422,-0.18907 -0.15997,-0.41449 -0.0533,-0.22543 -0.0752,-0.46297 -0.017,-0.17937 -0.017,-0.35874 -0.002,-0.0582 0,-0.11877 z" />
        <path
           inkscape:connector-curvature="0"
           id="path302"
           style="font-style:normal;font-variant:normal;font-weight:normal;font-stretch:normal;font-family:AngryBirds;-inkscape-font-specification:AngryBirds;stroke-width:0.12410498;fill:#ffffff"
           d="m 114.95275,224.51542 0.0945,0.0145 0.13816,-0.0994 0.14544,0.24482 0.25693,-0.3442 0.08,0.0267 -0.0848,2.67116 h 0.81928 l -0.20361,0.1721 0.27875,0.10908 -0.14058,0.16967 0.0509,0.0703 -1.11743,0.0824 -0.0436,-0.27148 -0.26421,0.0388 z" />
        <path
           inkscape:connector-curvature="0"
           id="path304"
           style="font-style:normal;font-variant:normal;font-weight:normal;font-stretch:normal;font-family:AngryBirds;-inkscape-font-specification:AngryBirds;stroke-width:0.12410498;fill:#ffffff"
           d="m 116.86522,227.49927 v -3.08808 l 0.10908,-0.0388 0.16483,0.38783 0.20845,-0.37329 0.14786,0.08 0.14059,-0.0509 -0.0848,3.13898 -0.0606,0.0194 -0.20846,-0.29815 -0.14301,0.26179 -0.12847,-0.0485 z" />
        <path
           inkscape:connector-curvature="0"
           id="path306"
           style="font-style:normal;font-variant:normal;font-weight:normal;font-stretch:normal;font-family:AngryBirds;-inkscape-font-specification:AngryBirds;stroke-width:0.12410498;fill:#ffffff"
           d="m 117.9875,226.08855 q 0,-0.21815 0.0145,-0.42904 0.017,-0.21088 0.0606,-0.40237 0.0436,-0.19391 0.13089,-0.37086 0.0873,-0.17694 0.2327,-0.31996 0.10908,-0.10907 0.27633,-0.1624 0.16967,-0.0557 0.34904,-0.0654 0.0436,-0.002 0.0873,-0.005 0.1309,0 0.24967,0.0242 0.15998,0.0291 0.24724,0.0897 0.13332,0.0897 0.2327,0.23027 0.0994,0.14059 0.1624,0.31269 0.063,0.16968 0.0921,0.35389 0.0291,0.18422 0.0291,0.3539 0,0.0994 0.002,0.19391 0,0.0315 0.002,0.063 0,0.063 -0.005,0.12847 -0.005,0.0994 -0.0121,0.19149 -0.007,0.0921 -0.0267,0.18664 -0.0339,0.17937 -0.11877,0.35874 -0.0848,0.17695 -0.28845,0.4048 0.08,0.0897 0.16483,0.18179 0.0873,0.0921 0.12847,0.1309 l -0.0654,0.0703 -0.20846,-0.0897 -0.0242,0.17937 -0.10908,0.01 q -0.0242,-0.0242 -0.0873,-0.1018 -0.063,-0.0776 -0.13089,-0.15998 -0.11393,0.0339 -0.24724,0.0533 -0.0945,0.0146 -0.1915,0.0146 l -0.0703,-0.002 q -0.13089,-0.007 -0.25936,-0.0485 -0.12604,-0.0436 -0.23512,-0.13332 -0.0945,-0.0751 -0.16725,-0.22058 -0.0703,-0.14543 -0.11877,-0.31753 -0.0461,-0.17452 -0.0727,-0.36117 -0.0242,-0.18906 -0.0242,-0.34177 z m 0.58659,-0.13816 q -0.002,0.0436 -0.002,0.0873 0,0.0873 0.007,0.17937 0.01,0.13574 0.0388,0.26178 0.0315,0.12605 0.08,0.23755 0.0509,0.10907 0.12362,0.17209 0.0194,0.0194 0.063,0.0242 0.0461,0.005 0.097,0.005 0.0558,0 0.11877,-0.005 l -0.12362,-0.28117 0.12847,0.063 0.0897,-0.14786 0.0776,0.0776 q 0.0533,0.0533 0.1212,0.11635 0.0848,-0.12847 0.12362,-0.23513 0.0388,-0.10907 0.0558,-0.20845 0.0145,-0.0994 0.017,-0.17695 0.002,-0.08 0.002,-0.14059 0,-0.0897 -0.005,-0.20118 -0.005,-0.1115 -0.0218,-0.22543 -0.0145,-0.11392 -0.0436,-0.21573 -0.0291,-0.1018 -0.08,-0.16967 -0.0558,-0.0654 -0.14786,-0.10666 -0.0897,-0.0436 -0.19149,-0.0461 -0.005,0 -0.0121,0 -0.097,0 -0.18665,0.0388 -0.0969,0.0412 -0.15028,0.13817 -0.0751,0.13331 -0.12362,0.31995 -0.0461,0.18665 -0.0558,0.43874 z" />
        <path
           inkscape:connector-curvature="0"
           id="path308"
           style="font-style:normal;font-variant:normal;font-weight:normal;font-stretch:normal;font-family:AngryBirds;-inkscape-font-specification:AngryBirds;stroke-width:0.12410498;fill:#ffffff"
           d="m 120.41385,226.29216 q 0,-0.27875 0.002,-0.50418 0.002,-0.22542 0.0145,-0.4363 0.0121,-0.21089 0.0315,-0.43146 0.0194,-0.22058 0.0558,-0.48479 l 0.1624,0.0654 0.19392,-0.14786 0.18421,0.11392 0.0679,-0.0242 q -0.0145,0.14786 -0.0315,0.38783 -0.017,0.23755 -0.0339,0.49933 -0.017,0.25936 -0.0242,0.5066 -0.002,0.10665 -0.005,0.19634 0,0.1212 0.007,0.21573 0.0242,0.46782 0.25209,0.59386 0.0751,0.0412 0.1721,0.0412 0.19391,0 0.46782,-0.16725 0.0291,-0.0703 0.046,-0.20119 0.0194,-0.13332 0.0291,-0.29814 0.01,-0.16725 0.0145,-0.35632 0.005,-0.18907 0.005,-0.38056 0.005,-0.32238 0.007,-0.63749 0.002,-0.31753 0.0121,-0.53084 l 0.13574,-0.0339 0.16725,0.33692 0.21816,-0.31753 0.11634,-0.005 q -0.005,0.20361 -0.0121,0.56235 -0.005,0.35632 -0.01,0.79262 -0.005,0.43631 -0.005,0.90655 0,0.46782 0.01,0.88716 l -0.12362,-0.0412 -0.16725,0.14544 -0.18422,-0.1212 -0.14544,0.0703 q -0.005,-0.0242 -0.017,-0.0654 -0.0121,-0.0436 -0.0461,-0.13332 -0.14786,0.0654 -0.32723,0.11393 -0.17937,0.046 -0.35147,0.063 -0.0921,0.01 -0.17695,0.01 -0.0727,0 -0.14058,-0.007 -0.14544,-0.0145 -0.22543,-0.0751 -0.12362,-0.0897 -0.19391,-0.24724 -0.0703,-0.15998 -0.10423,-0.32723 -0.0339,-0.16967 -0.0412,-0.31511 -0.007,-0.14786 -0.007,-0.21815 z" />
        <path
           inkscape:connector-curvature="0"
           id="path310"
           style="font-style:normal;font-variant:normal;font-weight:normal;font-stretch:normal;font-family:AngryBirds;-inkscape-font-specification:AngryBirds;stroke-width:0.12410498;fill:#ffffff"
           d="m 122.97352,224.65116 0.0679,-0.15998 -0.0339,-0.0654 1.42042,-0.0945 0.0436,0.19392 -0.30784,0.2133 0.2933,0.0897 -0.0388,0.10907 -0.72475,0.0654 -0.017,0.76354 0.72476,-0.0242 -0.0824,0.25936 0.14302,0.0582 -0.0242,0.13332 -0.75142,0.0751 0.0315,0.80959 0.74899,-0.0291 -0.0485,0.25694 0.13332,0.0606 -0.0558,0.18906 -1.17076,0.0679 0.0194,-0.25208 -0.30299,0.0194 0.0315,-2.32212 -0.0606,-0.0994 0.2133,-0.18422 z" />
        <path
           inkscape:connector-curvature="0"
           id="path312"
           style="font-style:normal;font-variant:normal;font-weight:normal;font-stretch:normal;font-family:AngryBirds;-inkscape-font-specification:AngryBirds;stroke-width:0.12410498;fill:#ffffff"
           d="m 125.75861,224.54693 0.0291,-0.12119 q 0.20361,-0.0751 0.4654,-0.1309 0.2642,-0.0557 0.52599,-0.0727 0.0679,-0.005 0.13331,-0.002 0.18665,0 0.3539,0.0315 0.22542,0.0412 0.34904,0.15998 0.19876,0.19392 0.26906,0.44358 0.0485,0.16968 0.0461,0.33935 0,0.08 -0.01,0.15998 -0.0315,0.25209 -0.15271,0.49206 -0.11877,0.23754 -0.30057,0.41206 -0.0606,0.0558 -0.15513,0.11635 -0.0945,0.0582 -0.21088,0.11393 -0.11635,0.0533 -0.25451,0.1018 -0.13574,0.0461 -0.27391,0.0751 l -0.005,0.86292 -0.0897,0.0315 -0.0994,-0.27875 -0.19876,0.26906 -0.12847,-0.15029 -0.0994,0.0606 -0.0242,-2.4821 -0.10908,-0.0848 0.29815,-0.30783 z m 0.75384,0.36602 0.0267,1.1659 q 0.12362,-0.0436 0.22785,-0.0945 0.0897,-0.0388 0.1721,-0.08 0.0848,-0.0436 0.12604,-0.0776 0.10423,-0.0945 0.17695,-0.22301 0.0751,-0.12846 0.097,-0.26178 0.007,-0.0485 0.01,-0.0921 0,-0.0824 -0.0267,-0.15755 -0.0388,-0.11878 -0.16725,-0.19877 -0.0606,-0.0363 -0.15998,-0.0388 -0.007,0 -0.0121,0.002 -0.10665,0.002 -0.21088,0.0121 -0.12605,0.0194 -0.25936,0.0436 z" />
        <path
           inkscape:connector-curvature="0"
           id="path314"
           style="font-style:normal;font-variant:normal;font-weight:normal;font-stretch:normal;font-family:AngryBirds;-inkscape-font-specification:AngryBirds;stroke-width:0.12410498;fill:#ffffff"
           d="m 127.82379,227.46049 0.63992,-3.06384 0.19876,0.0606 0.18179,-0.15998 0.27391,0.33692 0.15513,-0.30299 0.1721,0.10423 0.15997,-0.0921 0.57932,3.13656 -0.10907,-0.0751 -0.1818,0.10423 -0.14059,-0.17937 -0.13331,0.13574 -0.18422,-0.67143 -0.92352,0.0751 -0.17694,0.67628 -0.0509,0.0194 -0.15756,-0.19876 -0.19876,0.15755 z m 0.81201,-1.15621 0.71021,-0.0654 -0.24724,-1.11258 -0.20845,0.0145 z" />
        <path
           inkscape:connector-curvature="0"
           id="path316"
           style="font-style:normal;font-variant:normal;font-weight:normal;font-stretch:normal;font-family:AngryBirds;-inkscape-font-specification:AngryBirds;stroke-width:0.12410498;fill:#ffffff"
           d="m 130.37861,224.53966 0.017,-0.0921 q 0.2739,-0.0897 0.5478,-0.13574 0.27633,-0.0485 0.53327,-0.0509 0.0145,0 0.0267,0 0.24239,0 0.45327,0.0412 0.22058,0.0436 0.38298,0.15028 0.14786,0.0945 0.23512,0.23754 0.0897,0.14302 0.10666,0.32239 0.005,0.0436 0.005,0.0921 0,0.13816 -0.0412,0.29329 -0.0533,0.20603 -0.18422,0.41934 -0.0242,0.0436 -0.0751,0.10908 -0.0509,0.0654 -0.1115,0.14058 -0.0582,0.0727 -0.12847,0.14544 -0.0679,0.0703 -0.13332,0.12604 0.0606,0.14302 0.12847,0.30299 0.0703,0.15756 0.13574,0.30542 0.0679,0.14543 0.12847,0.26905 0.0606,0.1212 0.0945,0.18907 l -0.0339,0.0364 -0.28845,-0.15998 -0.0145,0.24724 -0.0994,-0.0436 -0.0897,0.0606 -0.60113,-0.92836 -0.31269,0.12362 -0.0242,0.74414 -0.08,-0.01 -0.16482,-0.25936 -0.12847,0.33451 -0.0897,-0.0364 q -0.005,-0.14786 -0.017,-0.42419 -0.0121,-0.27633 -0.0218,-0.60113 -0.01,-0.32481 -0.01,-0.65931 0,-0.3345 0.0194,-0.60841 l 0.0145,-0.19391 -0.15756,-0.11392 0.26179,-0.23755 z m 0.71506,1.56101 q 0.17937,-0.0703 0.36843,-0.18907 0.18907,-0.11877 0.32723,-0.25936 0.13817,-0.14301 0.20119,-0.29572 0.0291,-0.0679 0.0291,-0.13574 0,-0.08 -0.0412,-0.15755 -0.0436,-0.08 -0.18664,-0.10181 -0.11635,-0.0194 -0.23997,-0.0194 -0.0267,0 -0.0558,0 -0.17937,0.01 -0.39268,0.0461 z" />
        <path
           inkscape:connector-curvature="0"
           id="path318"
           style="font-style:normal;font-variant:normal;font-weight:normal;font-stretch:normal;font-family:AngryBirds;-inkscape-font-specification:AngryBirds;stroke-width:0.12410498;fill:#ffffff"
           d="m 132.83647,227.46049 0.63991,-3.06384 0.19877,0.0606 0.18179,-0.15998 0.2739,0.33692 0.15513,-0.30299 0.1721,0.10423 0.15998,-0.0921 0.57932,3.13656 -0.10908,-0.0751 -0.18179,0.10423 -0.14059,-0.17937 -0.13331,0.13574 -0.18422,-0.67143 -0.92352,0.0751 -0.17694,0.67628 -0.0509,0.0194 -0.15755,-0.19876 -0.19876,0.15755 z m 0.81201,-1.15621 0.71021,-0.0654 -0.24724,-1.11258 -0.20846,0.0145 z" />
        <path
           inkscape:connector-curvature="0"
           id="path320"
           style="font-style:normal;font-variant:normal;font-weight:normal;font-stretch:normal;font-family:AngryBirds;-inkscape-font-specification:AngryBirds;stroke-width:0.12410498;fill:#ffffff"
           d="m 136.39237,224.65116 0.0679,-0.15998 -0.0339,-0.0654 1.42042,-0.0945 0.0436,0.19392 -0.30783,0.2133 0.29329,0.0897 -0.0388,0.10907 -0.72476,0.0654 -0.017,0.76354 0.72475,-0.0242 -0.0824,0.25936 0.14301,0.0582 -0.0242,0.13332 -0.75142,0.0751 0.0315,0.80959 0.749,-0.0291 -0.0485,0.25694 0.13331,0.0606 -0.0557,0.18906 -1.17075,0.0679 0.0194,-0.25208 -0.30299,0.0194 0.0315,-2.32212 -0.0606,-0.0994 0.21331,-0.18422 z" />
        <path
           inkscape:connector-curvature="0"
           id="path322"
           style="font-style:normal;font-variant:normal;font-weight:normal;font-stretch:normal;font-family:AngryBirds;-inkscape-font-specification:AngryBirds;stroke-width:0.12410498;fill:#ffffff"
           d="m 138.21758,225.55286 q 0.0194,-0.25209 0.15029,-0.46054 0.13331,-0.20846 0.33935,-0.35875 0.20603,-0.1527 0.45812,-0.24966 0.25451,-0.097 0.51872,-0.12604 0.0509,-0.007 0.12362,-0.01 0.0194,0 0.0388,0.002 0.0994,0.002 0.16968,0.007 l 0.0194,0.063 -0.32239,0.17937 0.25694,0.12362 -0.10908,0.10423 0.0752,0.14059 q -0.17937,0.0145 -0.3539,0.0485 -0.1721,0.0339 -0.31026,0.0945 -0.13574,0.0606 -0.23027,0.14786 -0.0945,0.0848 -0.11393,0.19876 -0.005,0.0291 -0.005,0.0582 0,0.0921 0.0654,0.15513 0.0848,0.0848 0.20361,0.14059 0.0606,0.0242 0.12362,0.0461 0.0654,0.0218 0.12847,0.0436 0.0606,0.0194 0.11392,0.0339 0.0558,0.0145 0.0945,0.0242 0.23754,0.0751 0.37086,0.20603 0.13574,0.1309 0.13574,0.38541 0,0.26905 -0.14786,0.47509 -0.14544,0.20603 -0.45812,0.36359 -0.12362,0.0606 -0.24967,0.1018 -0.12604,0.0412 -0.24724,0.0703 -0.11877,0.0315 -0.22542,0.0461 -0.10666,0.0145 -0.19634,0.0242 l 0.0848,-0.15756 -0.22785,-0.0654 0.0994,-0.14786 -0.0848,-0.0897 q 0.0848,-0.0194 0.18664,-0.0412 0.10181,-0.0242 0.20604,-0.0533 0.0945,-0.0291 0.19149,-0.0703 0.0969,-0.0436 0.17452,-0.10181 0.08,-0.0606 0.13089,-0.13331 0.0533,-0.0727 0.0533,-0.15513 0,-0.10423 -0.10181,-0.1721 -0.1018,-0.0679 -0.22542,-0.10666 -0.12847,-0.0436 -0.25694,-0.0727 -0.12604,-0.0315 -0.18907,-0.0557 -0.223,-0.0897 -0.35146,-0.2424 -0.10908,-0.13089 -0.10908,-0.34419 0,-0.0339 0.002,-0.0703 z" />
        <path
           inkscape:connector-curvature="0"
           id="path324"
           style="font-style:normal;font-variant:normal;font-weight:normal;font-stretch:normal;font-family:AngryBirds;-inkscape-font-specification:AngryBirds;stroke-width:0.12410498;fill:#ffffff"
           d="m 140.45244,226.02068 q 0,-0.14301 0.0412,-0.38056 0.0436,-0.23997 0.13574,-0.48478 0.0921,-0.24724 0.24239,-0.44843 0.15271,-0.20118 0.37086,-0.27148 0.2424,-0.0751 0.46297,-0.1018 0.0727,-0.01 0.15271,-0.007 0.15513,0 0.32238,0.0363 0.01,0.0146 0.0145,0.0364 0.005,0.0218 0.0145,0.0364 l -0.34177,0.1212 0.23754,0.13331 -0.10423,0.0897 0.0412,0.12362 q -0.0654,0.005 -0.14544,0.0145 -0.08,0.01 -0.15998,0.0267 -0.0776,0.0145 -0.15028,0.0339 -0.0727,0.0194 -0.12604,0.0485 -0.0994,0.0485 -0.16968,0.18422 -0.0679,0.13331 -0.1115,0.29329 -0.0412,0.15756 -0.063,0.31511 -0.0194,0.15513 -0.0194,0.24967 0,0.0848 0.0121,0.20118 0.0145,0.11635 0.0436,0.2424 0.0291,0.12362 0.08,0.23512 0.0533,0.1115 0.13816,0.18179 0.0436,0.0388 0.13332,0.0606 0.0897,0.0218 0.19876,0.0339 0.10908,0.01 0.223,0.0145 0.11635,0.005 0.21573,0.005 -0.01,0.01 -0.0218,0.0267 -0.01,0.017 -0.0242,0.0412 l 0.10423,0.11392 -0.24724,0.14059 0.27148,0.0994 q -0.01,0.0388 -0.0194,0.0582 -0.29814,0.0654 -0.59871,0.0824 -0.0436,0.002 -0.0873,0.002 -0.24724,0 -0.4557,-0.0848 -0.18906,-0.0751 -0.30784,-0.24481 -0.11877,-0.1721 -0.18664,-0.38541 -0.0654,-0.2133 -0.0921,-0.44358 -0.0242,-0.23027 -0.0242,-0.42903 z" />
        <path
           inkscape:connector-curvature="0"
           id="path326"
           style="font-style:normal;font-variant:normal;font-weight:normal;font-stretch:normal;font-family:AngryBirds;-inkscape-font-specification:AngryBirds;stroke-width:0.12410498;fill:#ffffff"
           d="m 142.55156,226.37942 q -0.01,-0.13332 -0.0121,-0.26663 0,-0.14786 0.0145,-0.29572 0.0485,-0.5066 0.14058,-0.79505 0.0921,-0.28845 0.27148,-0.44115 0.0654,-0.0558 0.16483,-0.1115 0.1018,-0.0582 0.22542,-0.0994 0.12605,-0.0436 0.26906,-0.0606 0.0679,-0.007 0.13574,-0.007 l 0.15271,0.01 -0.01,0.28845 0.24239,-0.14786 0.10423,0.15271 0.16483,-0.0654 q 0.18422,0.18907 0.28118,0.54296 0.0994,0.35147 0.0994,0.86292 0,0.16967 -0.0194,0.37086 -0.0194,0.20118 -0.0703,0.3951 -0.0485,0.19149 -0.13089,0.35389 -0.0824,0.15998 -0.20603,0.24967 -0.17453,0.12362 -0.35147,0.18906 -0.17453,0.0654 -0.34178,0.0824 -0.0776,0.007 -0.15513,0.007 -0.0848,0 -0.1624,-0.01 -0.14786,-0.0194 -0.26906,-0.0654 -0.1527,-0.0557 -0.26663,-0.22301 -0.1115,-0.16967 -0.18179,-0.40237 -0.0679,-0.23269 -0.0897,-0.51387 z m 0.59144,-0.45327 q -0.007,0.0945 -0.005,0.18664 0,0.17452 0.0242,0.3442 0.0364,0.25693 0.13574,0.41206 0.0485,0.08 0.14301,0.1212 0.0945,0.0388 0.20119,0.0388 0.10665,0 0.20361,-0.0364 0.0969,-0.0388 0.14786,-0.11877 0.0485,-0.08 0.0945,-0.23027 0.0485,-0.15271 0.0751,-0.3345 0.0291,-0.18422 0.0339,-0.38298 0,-0.0267 0,-0.0533 0,-0.16967 -0.0291,-0.32723 -0.0315,-0.18179 -0.10665,-0.32481 -0.0727,-0.14301 -0.19876,-0.21815 -0.08,-0.0485 -0.18665,-0.0485 -0.005,0 -0.0121,0 -0.11392,0.002 -0.19633,0.0776 -0.14302,0.12847 -0.22543,0.37571 -0.08,0.24481 -0.0994,0.51872 z" />
        <path
           inkscape:connector-curvature="0"
           id="path328"
           style="font-style:normal;font-variant:normal;font-weight:normal;font-stretch:normal;font-family:AngryBirds;-inkscape-font-specification:AngryBirds;stroke-width:0.12410498;fill:#ffffff"
           d="m 145.15243,224.4524 0.21816,-0.11392 0.17452,0.18179 0.21815,-0.0727 1.0132,1.83976 h 0.0994 l -0.0291,-1.82521 0.12846,-0.0751 0.22301,0.30784 0.20845,-0.31268 0.0897,0.0145 -0.005,3.18746 -0.0558,0.0339 -0.17695,-0.18422 -0.24966,0.17452 -0.0994,-0.0194 -1.00108,-1.57798 -0.12605,-0.0145 -0.0388,1.60221 -0.14301,-0.0194 -0.19392,-0.2642 -0.14543,0.29329 -0.0848,-0.0436 z" />
        <path
           inkscape:connector-curvature="0"
           id="path330"
           style="font-style:normal;font-variant:normal;font-weight:normal;font-stretch:normal;font-family:AngryBirds;-inkscape-font-specification:AngryBirds;stroke-width:0.12410498;fill:#ffffff"
           d="m 147.87208,224.69479 0.11877,-0.12847 q -0.005,-0.01 -0.017,-0.0485 -0.01,-0.0412 -0.0339,-0.097 0.13816,-0.0388 0.33693,-0.0727 0.19876,-0.0364 0.41933,-0.0412 0.0267,0 0.0533,0 0.19149,0 0.38783,0.0315 0.223,0.0339 0.41207,0.13816 0.20845,0.11392 0.33935,0.31269 0.13089,0.19876 0.19633,0.43873 0.063,0.23269 0.063,0.48963 0,0.27633 -0.0654,0.53811 -0.063,0.24966 -0.18179,0.46539 -0.11878,0.21331 -0.28845,0.34663 -0.28845,0.23269 -0.6278,0.36843 -0.33935,0.13332 -0.68112,0.16725 l -0.0364,-0.28844 -0.30784,0.0412 0.0218,-2.3003 -0.0606,-0.0388 0.15028,-0.1527 z m 0.669,0.34178 q 0,0.42176 0.005,0.79989 0,0.15998 0.005,0.32481 0.005,0.1624 0.01,0.31268 0.005,0.14786 0.0121,0.26664 0.007,0.11877 0.0194,0.19391 0.16482,-0.0485 0.30783,-0.1212 0.14302,-0.0727 0.26179,-0.17694 0.11877,-0.10423 0.20361,-0.2424 0.0848,-0.14058 0.12362,-0.3248 0.0339,-0.17937 0.0436,-0.34178 0.002,-0.0267 0,-0.0533 0,-0.13332 -0.0315,-0.24967 -0.0364,-0.13816 -0.13089,-0.24481 -0.0945,-0.10666 -0.25694,-0.16725 -0.063,-0.0218 -0.15028,-0.0218 -0.01,0 -0.017,0 -0.097,0.002 -0.18664,0.0121 -0.10423,0.0145 -0.21816,0.0339 z" />
        <path
           inkscape:connector-curvature="0"
           id="path332"
           style="font-style:normal;font-variant:normal;font-weight:normal;font-stretch:normal;font-family:AngryBirds;-inkscape-font-specification:AngryBirds;stroke-width:0.12410498;fill:#ffffff"
           d="m 150.46083,224.65116 0.0679,-0.15998 -0.0339,-0.0654 1.42042,-0.0945 0.0436,0.19392 -0.30784,0.2133 0.29329,0.0897 -0.0388,0.10907 -0.72475,0.0654 -0.017,0.76354 0.72475,-0.0242 -0.0824,0.25936 0.14301,0.0582 -0.0242,0.13332 -0.75141,0.0751 0.0315,0.80959 0.74899,-0.0291 -0.0485,0.25694 0.13332,0.0606 -0.0558,0.18906 -1.17076,0.0679 0.0194,-0.25208 -0.30299,0.0194 0.0315,-2.32212 -0.0606,-0.0994 0.21331,-0.18422 z" />
        <path
           inkscape:connector-curvature="0"
           id="path334"
           style="font-style:normal;font-variant:normal;font-weight:normal;font-stretch:normal;font-family:AngryBirds;-inkscape-font-specification:AngryBirds;stroke-width:0.12410498;fill:#ffffff"
           d="m 152.29089,224.53966 0.017,-0.0921 q 0.27391,-0.0897 0.54781,-0.13574 0.27633,-0.0485 0.53326,-0.0509 0.0146,0 0.0267,0 0.24239,0 0.45327,0.0412 0.22058,0.0436 0.38298,0.15028 0.14786,0.0945 0.23512,0.23754 0.0897,0.14302 0.10665,0.32239 0.005,0.0436 0.005,0.0921 0,0.13816 -0.0412,0.29329 -0.0533,0.20603 -0.18422,0.41934 -0.0242,0.0436 -0.0751,0.10908 -0.0509,0.0654 -0.11151,0.14058 -0.0582,0.0727 -0.12846,0.14544 -0.0679,0.0703 -0.13332,0.12604 0.0606,0.14302 0.12847,0.30299 0.0703,0.15756 0.13574,0.30542 0.0679,0.14543 0.12847,0.26905 0.0606,0.1212 0.0945,0.18907 l -0.0339,0.0364 -0.28844,-0.15998 -0.0145,0.24724 -0.0994,-0.0436 -0.0897,0.0606 -0.60114,-0.92836 -0.31268,0.12362 -0.0242,0.74414 -0.08,-0.01 -0.16483,-0.25936 -0.12847,0.33451 -0.0897,-0.0364 q -0.005,-0.14786 -0.017,-0.42419 -0.0121,-0.27633 -0.0218,-0.60113 -0.01,-0.32481 -0.01,-0.65931 0,-0.3345 0.0194,-0.60841 l 0.0145,-0.19391 -0.15756,-0.11392 0.26178,-0.23755 z m 0.71506,1.56101 q 0.17937,-0.0703 0.36844,-0.18907 0.18907,-0.11877 0.32723,-0.25936 0.13816,-0.14301 0.20119,-0.29572 0.0291,-0.0679 0.0291,-0.13574 0,-0.08 -0.0412,-0.15755 -0.0436,-0.08 -0.18665,-0.10181 -0.11635,-0.0194 -0.23997,-0.0194 -0.0267,0 -0.0557,0 -0.17937,0.01 -0.39267,0.0461 z" />
        <path
           inkscape:connector-curvature="0"
           id="path336"
           style="font-style:normal;font-variant:normal;font-weight:normal;font-stretch:normal;font-family:AngryBirds;-inkscape-font-specification:AngryBirds;stroke-width:0.12410498;fill:#ffffff"
           d="m 154.86268,224.23909 0.1721,-0.0945 -0.13817,-0.25936 0.12362,-0.0751 -0.0339,-0.11877 1.16106,-0.0994 -0.0533,3.91706 -1.16833,0.0654 -0.0242,-0.0461 0.13817,-0.0582 -0.12362,-0.27875 0.2036,-0.0848 -0.0582,-0.223 0.48963,-0.0339 0.0364,-2.5427 -0.70536,0.0654 z" />
      </g>
      <g
         id="g4593"
         transform="matrix(0.3657975,0,0,0.3657975,95.043928,163.21668)">
        <path
           sodipodi:nodetypes="cccc"
           inkscape:connector-curvature="0"
           id="path4573"
           d="M 81.183119,19.908317 C 75.707531,15.469398 72.697383,10.582217 73.098215,5.074858 74.822648,-0.9707728 80.370696,3.3298515 84.924891,4.9412233 Z"
           style="fill:#ffffff;stroke:#000000;stroke-width:0.26458332px;stroke-linecap:butt;stroke-linejoin:miter;stroke-opacity:1" />
        <path
           sodipodi:nodetypes="csssc"
           inkscape:connector-curvature="0"
           id="path5102"
           d="M 158.44585,34.421417 C 166.42835,-32.345314 99.75038,-29.578529 87.87801,-3.314 65.867199,45.379197 102.886,74.274644 133.46412,61.983694 c 12.70597,-5.107187 24.20859,-7.750047 34.61115,-22.513367 2.04398,-2.90083 -2.45807,-4.01989 -9.62942,-5.04891 z"
           style="fill:#ffffff;stroke:#000000;stroke-width:3;stroke-linecap:butt;stroke-linejoin:miter;stroke-miterlimit:4;stroke-dasharray:none;stroke-opacity:1" />
        <path
           sodipodi:nodetypes="cc"
           inkscape:connector-curvature="0"
           id="path5104"
           d="m 131.34607,14.826847 c 21.10436,-11.10979 19.21808,-1.63372 8.8199,11.22531"
           style="fill:none;stroke:#000000;stroke-width:3;stroke-linecap:round;stroke-linejoin:miter;stroke-miterlimit:4;stroke-dasharray:none;stroke-opacity:1" />
        <path
           style="fill:none;stroke:#000000;stroke-width:3;stroke-linecap:round;stroke-linejoin:miter;stroke-miterlimit:4;stroke-dasharray:none;stroke-opacity:1"
           d="M 83.51267,4.398577 C 69.564263,-4.307081 70.051929,10.720987 80.6459,21.388037"
           id="path5106"
           inkscape:connector-curvature="0"
           sodipodi:nodetypes="cc" />
        <path
           sodipodi:nodetypes="ccc"
           inkscape:connector-curvature="0"
           id="path5108"
           d="m 99.61915,-8.6388 c -0.486281,11.121001 2.67263,9.613984 7.14946,3.541321 0.58035,6.77777 4.39449,8.530725 16.5039,-2.605879"
           style="fill:none;stroke:#000000;stroke-width:2;stroke-linecap:round;stroke-linejoin:round;stroke-miterlimit:4;stroke-dasharray:none;stroke-opacity:1" />
        <g
           transform="translate(107.70952,-67.871999)"
           id="g5134">
          <path
             sodipodi:nodetypes="ccsc"
             inkscape:connector-curvature="0"
             id="path5112"
             d="m -19.347948,80.416557 c 0.803853,12.718574 17.2742803,1.69989 28.2665933,-1.018608 3.8301797,9.936552 -2.605387,39.858261 -11.077447,40.235331 C -15.689843,120.23551 -16.957611,98.890741 -19.347948,80.416557 Z"
             style="fill:#000000;stroke:#000000;stroke-width:2;stroke-linecap:butt;stroke-linejoin:miter;stroke-miterlimit:4;stroke-dasharray:none;stroke-opacity:1" />
          <path
             style="fill:#ffffff;stroke:none;stroke-width:2;stroke-linecap:butt;stroke-linejoin:miter;stroke-miterlimit:4;stroke-dasharray:none;stroke-opacity:1"
             d="M 8.3894786,79.397949 C 11.860518,90.390416 5.525002,118.52574 -2.6879694,119.18311 -24.289607,118.32404 1.2884175,81.189121 8.3894786,79.397949 Z"
             id="path5110"
             inkscape:connector-curvature="0"
             sodipodi:nodetypes="ccc" />
          <path
             style="fill:#ffffff;stroke:#000000;stroke-width:2;stroke-linecap:butt;stroke-linejoin:round;stroke-miterlimit:4;stroke-dasharray:none;stroke-opacity:1"
             d="m -2.2056927,83.922581 c 0.78863,4.82768 3.523795,8.3628 6.931596,12.35711 2.148485,-5.51172 4.604103,-10.32281 4.192742,-16.881742 z"
             id="path5120"
             inkscape:connector-curvature="0"
             sodipodi:nodetypes="cccc" />
          <path
             style="fill:#ffffff;stroke:#000000;stroke-width:2;stroke-linecap:round;stroke-linejoin:round;stroke-miterlimit:4;stroke-dasharray:none;stroke-opacity:1"
             d="m -6.6228767,84.951021 c 0.788986,3.92221 2.262171,5.90585 3.756144,7.8306 1.79403,-1.22901 2.22736496,-5.38876 2.48287696,-9.9315 z"
             id="path5122"
             inkscape:connector-curvature="0"
             sodipodi:nodetypes="cccc" />
          <path
             style="fill:#ffffff;stroke:#000000;stroke-width:2;stroke-linecap:round;stroke-linejoin:round;stroke-miterlimit:4;stroke-dasharray:none;stroke-opacity:1"
             d="m -12.279331,86.086041 c 0.557114,3.65139 1.71759,6.17602 4.0635403,7.91932 1.917701,-2.75112 1.823989,-5.73776 1.592914,-9.05434 z"
             id="path5124"
             inkscape:connector-curvature="0"
             sodipodi:nodetypes="cccc" />
          <path
             style="fill:#ffffff;stroke:#000000;stroke-width:2;stroke-linecap:round;stroke-linejoin:round;stroke-miterlimit:4;stroke-dasharray:none;stroke-opacity:1"
             d="m -18.31644,85.070621 c 0.295216,5.5716 1.489247,10.51874 4.052617,14.53845 1.893158,-2.59449 3.836992,-7.20726 1.984492,-13.52303 -2.134658,0.15068 -4.142524,-0.2058 -6.037109,-1.01542 z"
             id="path5126"
             inkscape:connector-curvature="0"
             sodipodi:nodetypes="cccc" />
        </g>
        <g
           transform="translate(-24.182166,-68.332213)"
           id="g5146">
          <ellipse
             style="opacity:1;fill:#000000;fill-opacity:1;stroke:none;stroke-width:2.38530302;stroke-linecap:round;stroke-linejoin:round;stroke-miterlimit:4;stroke-dasharray:none;stroke-dashoffset:0;stroke-opacity:1"
             id="path5136"
             cx="140.05673"
             cy="39.437862"
             rx="2.4567399"
             ry="4.9631705"
             transform="matrix(0.97210653,0.23453974,-0.32638085,0.94523835,0,0)" />
          <ellipse
             style="opacity:1;fill:#ffffff;fill-opacity:1;stroke:none;stroke-width:2;stroke-linecap:round;stroke-linejoin:round;stroke-miterlimit:4;stroke-dasharray:none;stroke-dashoffset:0;stroke-opacity:1"
             id="path5140"
             cx="139.46414"
             cy="21.461582"
             rx="0.67525333"
             ry="1.3955235"
             transform="rotate(20.458389)" />
        </g>
        <g
           transform="translate(-23.652996,-67.27388)"
           id="g5150">
          <ellipse
             transform="matrix(0.97210653,0.23453974,-0.32638085,0.94523835,0,0)"
             ry="4.9631705"
             rx="2.4567399"
             cy="37.729053"
             cx="150.7823"
             id="ellipse5138"
             style="opacity:1;fill:#000000;fill-opacity:1;stroke:none;stroke-width:2.38530302;stroke-linecap:round;stroke-linejoin:round;stroke-miterlimit:4;stroke-dasharray:none;stroke-dashoffset:0;stroke-opacity:1" />
          <ellipse
             transform="rotate(9.8825977)"
             ry="1.3955235"
             rx="0.67525333"
             cy="45.859432"
             cx="143.97752"
             id="ellipse5142"
             style="opacity:1;fill:#ffffff;fill-opacity:1;stroke:none;stroke-width:2;stroke-linecap:round;stroke-linejoin:round;stroke-miterlimit:4;stroke-dasharray:none;stroke-dashoffset:0;stroke-opacity:1" />
        </g>
      </g>
      <text
         xml:space="preserve"
         style="font-style:normal;font-variant:normal;font-weight:normal;font-stretch:normal;font-size:20.47180748px;line-height:1.25;font-family:AngryBirds;-inkscape-font-specification:AngryBirds;letter-spacing:0px;word-spacing:0px;fill:#000000;fill-opacity:1;stroke:none;stroke-width:0.51179522"
         x="56.78553"
         y="170.55591"
         id="text5030"><tspan
           sodipodi:role="line"
           id="tspan5028"
           x="56.78553"
           y="170.55591"
           style="font-style:normal;font-variant:normal;font-weight:normal;font-stretch:normal;font-family:Ballpark;-inkscape-font-specification:Ballpark;stroke-width:0.51179522">Booooo!</tspan></text>
      <text
         xml:space="preserve"
         style="font-style:normal;font-variant:normal;font-weight:normal;font-stretch:normal;font-size:7.9529705px;line-height:0.75;font-family:AngryBirds;-inkscape-font-specification:AngryBirds;letter-spacing:0.26458332px;word-spacing:0px;fill:#000000;fill-opacity:1;stroke:none;stroke-width:0.19882426"
         x="32.091599"
         y="177.5806"
         id="text5034"><tspan
           sodipodi:role="line"
           x="32.091599"
           y="177.5806"
           style="font-style:normal;font-variant:normal;font-weight:normal;font-stretch:normal;line-height:0.75;font-family:'Bello Pro';-inkscape-font-specification:'Bello Pro';letter-spacing:0.26458332px;stroke-width:0.19882426"
           id="tspan5044">Ola logic-man, voce chegou </tspan><tspan
           sodipodi:role="line"
           x="32.091599"
           y="183.94142"
           style="font-style:normal;font-variant:normal;font-weight:normal;font-stretch:normal;line-height:0.75;font-family:'Bello Pro';-inkscape-font-specification:'Bello Pro';letter-spacing:0.26458332px;stroke-width:0.19882426"
           id="tspan5040">ao final do jogo, para ganhar </tspan><tspan
           sodipodi:role="line"
           x="32.091599"
           y="190.30225"
           style="font-style:normal;font-variant:normal;font-weight:normal;font-stretch:normal;line-height:0.75;font-family:'Bello Pro';-inkscape-font-specification:'Bello Pro';letter-spacing:0.26458332px;stroke-width:0.19882426"
           id="tspan5054">tera que passar por mim.</tspan><tspan
           sodipodi:role="line"
           x="32.091599"
           y="196.66307"
           style="font-style:normal;font-variant:normal;font-weight:normal;font-stretch:normal;line-height:0.75;font-family:'Bello Pro';-inkscape-font-specification:'Bello Pro';letter-spacing:0.26458332px;stroke-width:0.19882426"
           id="tspan5064" /></text>
      <text
         xml:space="preserve"
         style="font-style:normal;font-variant:normal;font-weight:normal;font-stretch:normal;font-size:7.45251322px;line-height:1.25;font-family:AngryBirds;-inkscape-font-specification:AngryBirds;letter-spacing:0px;word-spacing:0px;fill:#000000;fill-opacity:1;stroke:none;stroke-width:0.18631282"
         x="32.263565"
         y="227.73512"
         id="text5068"><tspan
           sodipodi:role="line"
           id="tspan5066"
           x="32.263565"
           y="227.73512"
           style="font-style:normal;font-variant:normal;font-weight:normal;font-stretch:normal;font-family:'Bello Pro';-inkscape-font-specification:'Bello Pro';fill:#000000;stroke-width:0.18631282">Nao sera facil, hahaha</tspan></text>
      <text
         xml:space="preserve"
         style="font-style:normal;font-variant:normal;font-weight:normal;font-stretch:normal;font-size:8.01455212px;line-height:0.80000001;font-family:AngryBirds;-inkscape-font-specification:AngryBirds;letter-spacing:0px;word-spacing:0px;fill:#000000;fill-opacity:1;stroke:none;stroke-width:0.2003638"
         x="32.07011"
         y="199.17865"
         id="text5081"><tspan
           sodipodi:role="line"
           x="32.07011"
           y="199.17865"
           style="font-style:normal;font-variant:normal;font-weight:normal;font-stretch:normal;line-height:0.80000001;font-family:'Bello Pro';-inkscape-font-specification:'Bello Pro';stroke-width:0.2003638"
           id="tspan5089">- Se tentar passar vou te pegar.</tspan><tspan
           sodipodi:role="line"
           x="32.07011"
           y="205.98946"
           style="font-style:normal;font-variant:normal;font-weight:normal;font-stretch:normal;line-height:0.80000001;font-family:'Bello Pro';-inkscape-font-specification:'Bello Pro';stroke-width:0.2003638"
           id="tspan5085">- Voce pode usar o escudo para tentar </tspan><tspan
           sodipodi:role="line"
           x="32.07011"
           y="212.80026"
           style="font-style:normal;font-variant:normal;font-weight:normal;font-stretch:normal;line-height:0.80000001;font-family:'Bello Pro';-inkscape-font-specification:'Bello Pro';stroke-width:0.2003638"
           id="tspan6253">responder as peguntas.</tspan><tspan
           sodipodi:role="line"
           x="32.07011"
           y="219.61107"
           style="font-style:normal;font-variant:normal;font-weight:normal;font-stretch:normal;line-height:0.80000001;font-family:'Bello Pro';-inkscape-font-specification:'Bello Pro';stroke-width:0.2003638"
           id="tspan5087">- O escudo ficara ativo por 30s.</tspan></text>
    </g>
  </g>
</svg>
