<?xml version="1.0" encoding="UTF-8" standalone="no"?>
<!-- Created with Inkscape (http://www.inkscape.org/) -->

<svg
   xmlns:dc="http://purl.org/dc/elements/1.1/"
   xmlns:cc="http://creativecommons.org/ns#"
   xmlns:rdf="http://www.w3.org/1999/02/22-rdf-syntax-ns#"
   xmlns:svg="http://www.w3.org/2000/svg"
   xmlns="http://www.w3.org/2000/svg"
   xmlns:sodipodi="http://sodipodi.sourceforge.net/DTD/sodipodi-0.dtd"
   xmlns:inkscape="http://www.inkscape.org/namespaces/inkscape"
   width="210mm"
   height="297mm"
   viewBox="0 0 210 297"
   version="1.1"
   id="svg1550"
   inkscape:version="0.92.1 r15371"
   sodipodi:docname="settings.svg">
  <defs
     id="defs1544" />
  <sodipodi:namedview
     id="base"
     pagecolor="#ffffff"
     bordercolor="#666666"
     borderopacity="1.0"
     inkscape:pageopacity="0.0"
     inkscape:pageshadow="2"
     inkscape:zoom="0.98994949"
     inkscape:cx="-5.4422218"
     inkscape:cy="981.88"
     inkscape:document-units="mm"
     inkscape:current-layer="layer1"
     showgrid="false"
     inkscape:window-width="1269"
     inkscape:window-height="704"
     inkscape:window-x="0"
     inkscape:window-y="27"
     inkscape:window-maximized="1" />
  <metadata
     id="metadata1547">
    <rdf:RDF>
      <cc:Work
         rdf:about="">
        <dc:format>image/svg+xml</dc:format>
        <dc:type
           rdf:resource="http://purl.org/dc/dcmitype/StillImage" />
        <dc:title></dc:title>
      </cc:Work>
    </rdf:RDF>
  </metadata>
  <g
     inkscape:label="Camada 1"
     inkscape:groupmode="layer"
     id="layer1">
    <g
       id="g1700">
      <g
         transform="matrix(0.35277777,0,0,-0.35277777,20.773964,35.176505)"
         id="g1900">
        <path
           inkscape:connector-curvature="0"
           id="path1902"
           style="fill:#191b23;fill-opacity:1;fill-rule:nonzero;stroke:none"
           d="M 0,0 C 2.159,6.726 9.531,10.395 16.434,8.181 H 16.433 C 23.331,5.963 27.189,-1.31 25.032,-8.032 22.87,-14.766 15.5,-18.443 8.6,-16.23 1.696,-14.014 -2.16,-6.733 0,0 m 50.095,-3.361 -0.387,4.409 c 9.403,10.582 9.158,11.045 8.459,12.366 l -4.787,9.043 c -0.18,0.336 -0.538,0.78 -1.231,1.003 -1.114,0.357 -5.767,0.064 -13.832,-0.873 l -3.491,2.912 c -1.034,14.079 -1.564,14.248 -2.93,14.687 l -9.834,3.155 c -1.404,0.45 -1.947,0.624 -10.627,-10.383 L 6.912,32.621 c -6.204,5.336 -9.91,8.222 -11.023,8.578 -0.7,0.225 -1.254,0.069 -1.594,-0.102 l -9.131,-4.577 c -1.345,-0.662 -1.863,-0.917 -0.013,-14.864 l -2.879,-3.353 C -32.054,17.464 -32.21,16.974 -32.66,15.574 L -35.752,5.937 C -36.206,4.525 -36.38,3.98 -25.063,-4.699 l 0.392,-4.394 c -9.388,-10.563 -9.151,-11.023 -8.464,-12.354 l 4.775,-9.049 c 0.251,-0.479 0.69,-0.838 1.233,-1.012 1.102,-0.354 5.753,-0.057 13.833,0.881 l 3.496,-2.918 c 1.032,-14.072 1.561,-14.242 2.932,-14.682 l 9.833,-3.155 C 4.371,-51.833 4.915,-52.009 13.594,-41 l 4.543,0.336 c 6.195,-5.34 9.894,-8.226 11,-8.581 l 0.002,-0.001 c 0.69,-0.221 1.238,-0.069 1.59,0.102 l 9.157,4.579 c 1.34,0.671 1.854,0.931 -0.013,14.863 l 2.874,3.352 c 14.335,0.846 14.492,1.338 14.943,2.747 l 3.087,9.62 c 0.462,1.41 0.64,1.954 -10.682,10.622" />
      </g>
      <g
         transform="matrix(0.35277777,0,0,-0.35277777,44.309815,13.495495)"
         id="g1904">
        <path
           inkscape:connector-curvature="0"
           id="path1906"
           style="fill:#191b23;fill-opacity:1;fill-rule:nonzero;stroke:none"
           d="m 0,0 c 4.677,-0.202 8.322,-4.072 8.127,-8.629 -0.194,-4.562 -4.157,-8.113 -8.832,-7.913 -4.679,0.201 -8.326,4.076 -8.13,8.639 C -8.642,-3.345 -4.678,0.2 0.001,0 Z m 22.939,-1.436 -0.996,2.68 c 4.049,8.199 3.818,8.444 3.156,9.148 l -4.527,4.814 c -0.168,0.179 -0.467,0.394 -0.936,0.414 -0.757,0.032 -3.604,-0.945 -8.465,-2.907 L 8.497,13.93 c -3.051,8.591 -3.409,8.607 -4.335,8.646 l -6.665,0.285 c -0.951,0.041 -1.317,0.056 -4.844,-8.282 l -2.76,-0.984 c -4.775,2.263 -7.579,3.428 -8.33,3.459 -0.474,0.02 -0.794,-0.172 -0.977,-0.337 l -4.903,-4.41 c -0.726,-0.643 -1.006,-0.89 2.532,-9.26 l -1.22,-2.58 c -8.779,-2.97 -8.793,-3.302 -8.835,-4.252 l -0.28,-6.531 c -0.04,-0.957 -0.056,-1.326 8.476,-4.798 l 0.996,-2.669 c -4.041,-8.183 -3.816,-8.428 -3.161,-9.141 l 4.522,-4.819 c 0.238,-0.255 0.571,-0.404 0.939,-0.42 0.747,-0.033 3.594,0.947 8.465,2.913 l 2.677,-1.222 c 3.048,-8.587 3.406,-8.603 4.335,-8.642 l 6.664,-0.285 c 0.951,-0.039 1.32,-0.056 4.844,8.284 l 2.773,0.984 c 4.771,-2.266 7.569,-3.432 8.319,-3.464 0.468,-0.02 0.784,0.168 0.973,0.335 l 4.92,4.416 c 0.718,0.647 0.997,0.897 -2.549,9.256 l 1.217,2.58 c 8.785,2.975 8.798,3.308 8.84,4.263 l 0.279,6.519 c 0.045,0.957 0.064,1.327 -8.47,4.79" />
      </g>
      <g
         transform="matrix(0.35277777,0,0,-0.35277777,27.155642,31.824275)"
         id="g1908">
        <path
           inkscape:connector-curvature="0"
           id="path1910"
           style="fill:#710b66;fill-opacity:1;fill-rule:nonzero;stroke:none"
           d="m 0,0 c -6.546,2.101 -13.536,-1.379 -15.583,-7.757 -2.049,-6.386 1.608,-13.289 8.155,-15.39 6.543,-2.1 13.533,1.388 15.582,7.773 C 10.2,-8.999 6.541,-2.102 -0.001,0 Z m -22.095,-53.491 c -1.299,0.418 -1.801,0.578 -2.781,13.922 l -3.315,2.769 c -7.661,-0.89 -12.073,-1.172 -13.118,-0.836 -0.514,0.165 -0.93,0.506 -1.168,0.96 l -4.529,8.581 c -0.651,1.262 -0.877,1.698 8.028,11.715 l -0.374,4.167 c -10.732,8.231 -10.565,8.748 -10.135,10.086 l 2.931,9.139 c 0.427,1.328 0.576,1.792 14.162,2.589 l 2.729,3.179 c -1.756,13.225 -1.263,13.467 0.013,14.094 l 8.658,4.34 c 0.323,0.163 0.848,0.311 1.512,0.098 1.055,-0.338 4.57,-3.074 10.453,-8.134 l 4.289,0.32 c 8.232,10.438 8.746,10.273 10.078,9.846 l 9.326,-2.993 c 1.296,-0.416 1.797,-0.577 2.778,-13.927 l 3.312,-2.762 c 7.647,0.889 12.059,1.168 13.116,0.828 0.656,-0.211 0.997,-0.633 1.167,-0.95 L 39.576,4.964 C 40.24,3.711 40.472,3.273 31.554,-6.762 l 0.368,-4.182 c 10.737,-8.22 10.567,-8.736 10.13,-10.074 l -2.927,-9.122 c -0.429,-1.336 -0.578,-1.803 -14.172,-2.604 l -2.725,-3.178 C 24,-49.135 23.51,-49.382 22.24,-50.018 l -8.681,-4.342 c -0.334,-0.163 -0.854,-0.307 -1.51,-0.097 l -10e-4,10e-4 C 11,-54.12 7.491,-51.382 1.615,-46.319 l -4.307,-0.318 c -8.23,-10.439 -8.746,-10.274 -10.077,-9.845 z" />
      </g>
      <g
         transform="matrix(0.35277777,0,0,-0.35277777,30.750943,37.136925)"
         id="g1912">
        <path
           inkscape:connector-curvature="0"
           id="path1914"
           style="fill:#af1a9f;fill-opacity:1;fill-rule:nonzero;stroke:none"
           d="m 0,0 c -2.358,-7.349 -10.393,-11.375 -17.901,-8.965 -7.506,2.408 -11.704,10.36 -9.347,17.709 2.357,7.347 10.396,11.357 17.901,8.949 C -1.835,15.279 2.357,7.347 0,0 m 20.248,4.022 -0.511,5.784 c 0,0 8.605,9.656 8.299,10.232 l -4.535,8.57 C 23.183,29.203 10.273,27.676 10.273,27.676 l -4.523,3.77 c 0,0 -0.93,12.885 -1.559,13.087 l -9.327,2.992 c -0.645,0.207 -8.566,-9.868 -8.566,-9.868 l -5.861,-0.437 c 0,0 -9.934,8.575 -10.515,8.283 l -8.671,-4.346 c -0.597,-0.294 1.11,-13.014 1.11,-13.014 l -3.777,-4.4 c 0,0 -13.099,-0.752 -13.293,-1.357 l -2.933,-9.139 c -0.204,-0.637 10.146,-8.552 10.146,-8.552 l 0.515,-5.768 c 0,0 -8.6,-9.651 -8.304,-10.224 l 4.53,-8.585 c 0.307,-0.584 13.228,0.942 13.228,0.942 l 4.524,-3.777 c 0,0 0.929,-12.877 1.562,-13.08 l 9.325,-2.993 c 0.647,-0.208 8.568,9.869 8.568,9.869 l 5.88,0.435 c 0,0 9.911,-8.573 10.491,-8.288 l 8.681,4.34 c 0.602,0.303 -1.124,13.021 -1.124,13.021 l 3.774,4.401 c 0,0 13.108,0.757 13.306,1.372 l 2.931,9.133 c 0.205,0.629 -10.143,8.529 -10.143,8.529" />
      </g>
      <g
         transform="matrix(0.35277777,0,0,-0.35277777,27.453634,30.895305)"
         id="g1916">
        <path
           inkscape:connector-curvature="0"
           id="path1918"
           style="fill:#9f1a8d;fill-opacity:1;fill-rule:nonzero;stroke:none"
           d="m 0,0 c -7.997,2.566 -16.548,-1.715 -19.062,-9.545 -2.513,-7.837 1.947,-16.302 9.945,-18.869 7.994,-2.565 16.545,1.725 19.059,9.562 C 12.454,-11.025 7.995,-2.568 0,0 m -21.716,-53.612 c -0.359,1.419 -0.928,7.193 -1.302,12.39 l -0.029,0.391 -5.13,4.283 -0.393,-0.047 c -5.205,-0.614 -11.014,-1.149 -12.494,-1.066 l -4.145,7.852 c 0.791,1.262 4.526,5.674 7.982,9.553 l 0.265,0.298 -0.587,6.568 -0.321,0.247 c -4.156,3.177 -8.688,6.835 -9.7,7.937 l 2.677,8.342 c 1.462,0.331 7.319,0.813 12.595,1.115 l 0.392,0.023 4.302,5.012 -0.055,0.409 c -0.683,5.086 -1.292,10.769 -1.232,12.258 l 7.937,3.978 c 1.248,-0.748 5.825,-4.502 9.853,-7.98 l 0.291,-0.25 6.646,0.496 0.251,0.319 c 3.183,4.048 6.85,8.462 7.949,9.436 l 8.557,-2.745 c 0.36,-1.422 0.928,-7.199 1.303,-12.397 l 0.028,-0.392 5.128,-4.274 0.393,0.046 c 5.208,0.615 11.02,1.148 12.495,1.06 L 36.092,1.405 C 35.305,0.143 31.57,-4.272 28.113,-8.152 l -0.264,-0.298 0.582,-6.585 0.322,-0.247 c 4.151,-3.169 8.678,-6.815 9.696,-7.916 l -2.676,-8.337 c -1.458,-0.335 -7.324,-0.822 -12.607,-1.127 l -0.392,-0.022 -4.297,-5.013 0.055,-0.41 c 0.69,-5.088 1.305,-10.774 1.244,-12.263 l -7.944,-3.972 c -1.245,0.751 -5.812,4.505 -9.833,7.982 l -0.289,0.251 -6.667,-0.494 -0.251,-0.319 c -3.182,-4.049 -6.849,-8.463 -7.95,-9.436 z" />
      </g>
      <g
         transform="matrix(0.35277777,0,0,-0.35277777,23.284754,40.001025)"
         id="g1920">
        <path
           inkscape:connector-curvature="0"
           id="path1922"
           style="fill:#af1a9f;fill-opacity:1;fill-rule:nonzero;stroke:none"
           d="M 0,0 4.068,-2.031 -4.756,-25.825 Z" />
      </g>
      <g
         transform="matrix(0.35277777,0,0,-0.35277777,27.629,40.898135)"
         id="g1924">
        <path
           inkscape:connector-curvature="0"
           id="path1926"
           style="fill:#af1a9f;fill-opacity:1;fill-rule:nonzero;stroke:none"
           d="M 0,0 13.509,-18.814 4.04,2.076 Z" />
      </g>
      <g
         transform="matrix(0.35277777,0,0,-0.35277777,31.171594,36.574175)"
         id="g1928">
        <path
           inkscape:connector-curvature="0"
           id="path1930"
           style="fill:#af1a9f;fill-opacity:1;fill-rule:nonzero;stroke:none"
           d="M 0,0 19.616,-8.277 -2.063,-3.689 Z" />
      </g>
      <g
         transform="matrix(0.35277777,0,0,-0.35277777,21.688964,38.720475)"
         id="g1932">
        <path
           inkscape:connector-curvature="0"
           id="path1934"
           style="fill:#af1a9f;fill-opacity:1;fill-rule:nonzero;stroke:none"
           d="M 0,0 -2.2,4.458 -19.932,-6.674 Z" />
      </g>
      <g
         transform="matrix(0.35277777,0,0,-0.35277777,21.323802,33.355965)"
         id="g1936">
        <path
           inkscape:connector-curvature="0"
           id="path1938"
           style="fill:#af1a9f;fill-opacity:1;fill-rule:nonzero;stroke:none"
           d="M 0,0 -1.55,-4.029 -24.221,5.007 Z" />
      </g>
      <g
         transform="matrix(0.35277777,0,0,-0.35277777,24.414384,30.834835)"
         id="g1940">
        <path
           inkscape:connector-curvature="0"
           id="path1942"
           style="fill:#af1a9f;fill-opacity:1;fill-rule:nonzero;stroke:none"
           d="m 0,0 c 0.221,0.082 0.895,0.175 0.895,0.175 l -13.33,18.236 8.442,-20.177 C -2.689,-1.004 -1.312,-0.485 0,0" />
      </g>
      <g
         transform="matrix(0.35277777,0,0,-0.35277777,29.786659,23.557915)"
         id="g1944">
        <path
           inkscape:connector-curvature="0"
           id="path1946"
           style="fill:#af1a9f;fill-opacity:1;fill-rule:nonzero;stroke:none"
           d="m 0,0 -8.813,-20.265 c 0,0 2.18,-0.305 4.489,-1.475 z" />
      </g>
      <g
         transform="matrix(0.35277777,0,0,-0.35277777,37.601535,29.979425)"
         id="g1948">
        <path
           inkscape:connector-curvature="0"
           id="path1950"
           style="fill:#af1a9f;fill-opacity:1;fill-rule:nonzero;stroke:none"
           d="m 0,0 -20.779,-8.52 c 0,0 1.107,-1.869 1.861,-4.673 z" />
      </g>
      <g
         transform="matrix(0.35277777,0,0,-0.35277777,43.669029,14.309065)"
         id="g1952">
        <path
           inkscape:connector-curvature="0"
           id="path1954"
           style="fill:#710b66;fill-opacity:1;fill-rule:nonzero;stroke:none"
           d="m 0,0 c -4.437,0.19 -8.194,-3.172 -8.379,-7.494 -0.184,-4.327 3.272,-8.002 7.71,-8.192 4.433,-0.189 8.19,3.177 8.376,7.504 0.185,4.321 -3.272,7.991 -7.708,8.183 z m -4.62,-37.092 c -0.88,0.038 -1.221,0.053 -4.111,8.197 l -2.538,1.158 c -4.619,-1.865 -7.319,-2.794 -8.026,-2.763 -0.351,0.015 -0.667,0.156 -0.892,0.398 l -4.288,4.57 c -0.621,0.676 -0.835,0.908 2.998,8.669 l -0.944,2.531 c -8.092,3.293 -8.076,3.643 -8.038,4.55 l 0.265,6.193 c 0.039,0.901 0.052,1.216 8.378,4.032 l 1.157,2.447 c -3.356,7.937 -3.089,8.172 -2.402,8.781 l 4.651,4.183 c 0.174,0.156 0.476,0.338 0.927,0.319 0.713,-0.03 3.371,-1.133 7.898,-3.28 l 2.617,0.932 c 3.345,7.908 3.693,7.893 4.594,7.855 l 6.32,-0.27 c 0.879,-0.037 1.218,-0.052 4.112,-8.2 l 2.534,-1.153 c 4.611,1.86 7.31,2.787 8.028,2.757 0.445,-0.02 0.73,-0.224 0.889,-0.393 l 4.292,-4.566 c 0.627,-0.667 0.847,-0.9 -2.992,-8.675 l 0.944,-2.541 c 8.093,-3.284 8.074,-3.635 8.031,-4.542 l -0.265,-6.182 c -0.038,-0.906 -0.05,-1.222 -8.381,-4.044 l -1.154,-2.446 c 3.362,-7.926 3.098,-8.164 2.416,-8.777 l -4.665,-4.188 c -0.18,-0.159 -0.479,-0.337 -0.923,-0.318 -0.711,0.03 -3.364,1.136 -7.889,3.285 l -2.63,-0.934 C 2.952,-37.415 2.602,-37.4 1.7,-37.361 Z" />
      </g>
      <g
         transform="matrix(0.35277777,0,0,-0.35277777,46.816478,17.003475)"
         id="g1956">
        <path
           inkscape:connector-curvature="0"
           id="path1958"
           style="fill:#af1a9f;fill-opacity:1;fill-rule:nonzero;stroke:none"
           d="m 0,0 c -0.214,-4.98 -4.529,-8.86 -9.616,-8.643 -5.087,0.218 -9.062,4.452 -8.85,9.433 0.213,4.978 4.535,8.85 9.621,8.633 C -3.754,9.203 0.212,4.979 0,0 m 11.924,5.965 -1.307,3.516 c 0,0 3.709,7.484 3.42,7.791 L 9.748,21.835 C 9.449,22.151 1.669,18.993 1.669,18.993 l -3.462,1.576 c 0,0 -2.781,7.865 -3.208,7.883 l -6.319,0.271 c -0.437,0.018 -3.651,-7.611 -3.651,-7.611 l -3.574,-1.274 c 0,0 -7.653,3.644 -7.964,3.362 l -4.659,-4.188 c -0.322,-0.285 2.917,-7.916 2.917,-7.916 L -29.853,7.71 c 0,0 -8.03,-2.707 -8.047,-3.117 L -38.164,-1.6 c -0.02,-0.432 7.779,-3.593 7.779,-3.593 l 1.308,-3.504 c 0,0 -3.708,-7.48 -3.426,-7.788 l 4.289,-4.572 c 0.289,-0.311 8.077,2.848 8.077,2.848 l 3.463,-1.58 c 0,0 2.779,-7.862 3.209,-7.88 l 6.319,-0.27 c 0.439,-0.019 3.651,7.61 3.651,7.61 l 3.588,1.276 c 0,0 7.638,-3.645 7.951,-3.368 l 4.663,4.187 c 0.324,0.29 -2.924,7.917 -2.924,7.917 l 1.597,3.386 c 0,0 8.036,2.711 8.054,3.129 l 0.263,6.188 c 0.022,0.428 -7.773,3.579 -7.773,3.579" />
      </g>
      <g
         transform="matrix(0.35277777,0,0,-0.35277777,43.696228,13.679295)"
         id="g1960">
        <path
           inkscape:connector-curvature="0"
           id="path1962"
           style="fill:#9f1a8d;fill-opacity:1;fill-rule:nonzero;stroke:none"
           d="m 0,0 c -5.42,0.231 -10.014,-3.898 -10.241,-9.203 -0.227,-5.312 3.998,-9.821 9.417,-10.052 5.418,-0.232 10.012,3.9 10.239,9.211 C 9.641,-4.739 5.418,-0.233 0,0 m -4.363,-37.104 c -0.467,0.823 -1.808,4.323 -2.929,7.496 l -0.085,0.238 -3.927,1.79 -0.237,-0.096 c -3.138,-1.271 -6.663,-2.597 -7.6,-2.799 l -3.923,4.182 c 0.278,0.921 1.849,4.307 3.339,7.314 l 0.113,0.231 -1.487,3.991 -0.243,0.098 c -3.132,1.27 -6.578,2.773 -7.398,3.287 l 0.242,5.652 c 0.855,0.456 4.42,1.758 7.654,2.848 l 0.24,0.08 1.823,3.857 -0.103,0.245 c -1.295,3.052 -2.645,6.487 -2.861,7.426 l 4.263,3.833 c 0.904,-0.253 4.397,-1.809 7.501,-3.286 l 0.222,-0.106 4.056,1.444 0.101,0.242 c 1.29,3.065 2.82,6.441 3.339,7.236 l 5.799,-0.248 c 0.466,-0.824 1.808,-4.325 2.93,-7.499 l 0.084,-0.238 3.925,-1.787 0.236,0.097 c 3.138,1.273 6.667,2.598 7.601,2.795 L 22.238,7.042 C 21.965,6.122 20.392,2.734 18.904,-0.273 l -0.115,-0.231 1.487,-4.002 0.243,-0.098 c 3.127,-1.265 6.57,-2.763 7.392,-3.274 l -0.242,-5.649 c -0.851,-0.459 -4.421,-1.765 -7.658,-2.857 l -0.241,-0.081 -1.821,-3.857 0.105,-0.245 c 1.3,-3.052 2.655,-6.488 2.87,-7.426 l -4.268,-3.832 c -0.903,0.256 -4.39,1.813 -7.49,3.292 l -0.221,0.106 -4.067,-1.446 -0.103,-0.243 c -1.291,-3.065 -2.82,-6.441 -3.339,-7.235 z" />
      </g>
      <g
         transform="matrix(0.35277777,0,0,-0.35277777,42.655817,20.063225)"
         id="g1964">
        <path
           inkscape:connector-curvature="0"
           id="path1966"
           style="fill:#af1a9f;fill-opacity:1;fill-rule:nonzero;stroke:none"
           d="M 0,0 2.881,-0.57 1.45,-16.898 Z" />
      </g>
      <g
         transform="matrix(0.35277777,0,0,-0.35277777,45.51455,19.879605)"
         id="g1968">
        <path
           inkscape:connector-curvature="0"
           id="path1970"
           style="fill:#af1a9f;fill-opacity:1;fill-rule:nonzero;stroke:none"
           d="M 0,0 11.63,-9.41 2.162,1.983 Z" />
      </g>
      <g
         transform="matrix(0.35277777,0,0,-0.35277777,46.982178,16.581095)"
         id="g1972">
        <path
           inkscape:connector-curvature="0"
           id="path1974"
           style="fill:#af1a9f;fill-opacity:1;fill-rule:nonzero;stroke:none"
           d="M 0,0 13.633,-1.803 -0.654,-2.65 Z" />
      </g>
      <g
         transform="matrix(0.35277777,0,0,-0.35277777,41.44279,19.538365)"
         id="g1976">
        <path
           inkscape:connector-curvature="0"
           id="path1978"
           style="fill:#af1a9f;fill-opacity:1;fill-rule:nonzero;stroke:none"
           d="m 0,0 -2.131,2.4 -9.141,-9.963 z" />
      </g>
      <g
         transform="matrix(0.35277777,0,0,-0.35277777,40.298697,16.259505)"
         id="g1980">
        <path
           inkscape:connector-curvature="0"
           id="path1982"
           style="fill:#af1a9f;fill-opacity:1;fill-rule:nonzero;stroke:none"
           d="M 0,0 -0.276,-2.775 -15.94,-1.021 Z" />
      </g>
      <g
         transform="matrix(0.35277777,0,0,-0.35277777,41.792815,14.161255)"
         id="g1984">
        <path
           inkscape:connector-curvature="0"
           id="path1986"
           style="fill:#af1a9f;fill-opacity:1;fill-rule:nonzero;stroke:none"
           d="m 0,0 c 0.123,0.088 0.528,0.262 0.528,0.262 l -11.419,9.08 8.706,-11.124 C -1.504,-1.084 -0.733,-0.525 0,0" />
      </g>
      <g
         transform="matrix(0.35277777,0,0,-0.35277777,43.895372,8.7107652)"
         id="g1988">
        <path
           inkscape:connector-curvature="0"
           id="path1990"
           style="fill:#af1a9f;fill-opacity:1;fill-rule:nonzero;stroke:none"
           d="m 0,0 -2.025,-14.128 c 0,0 1.409,0.183 3.046,-0.152 z" />
      </g>
      <g
         transform="matrix(0.35277777,0,0,-0.35277777,49.859855,11.375045)"
         id="g1992">
        <path
           inkscape:connector-curvature="0"
           id="path1994"
           style="fill:#af1a9f;fill-opacity:1;fill-rule:nonzero;stroke:none"
           d="m 0,0 -11.486,-8.857 c 0,0 1.01,-0.975 1.958,-2.592 z" />
      </g>
    </g>
  </g>
</svg>
