<?xml version="1.0" encoding="UTF-8" standalone="no"?>
<!-- Created with Inkscape (http://www.inkscape.org/) -->

<svg
   xmlns:dc="http://purl.org/dc/elements/1.1/"
   xmlns:cc="http://creativecommons.org/ns#"
   xmlns:rdf="http://www.w3.org/1999/02/22-rdf-syntax-ns#"
   xmlns:svg="http://www.w3.org/2000/svg"
   xmlns="http://www.w3.org/2000/svg"
   xmlns:sodipodi="http://sodipodi.sourceforge.net/DTD/sodipodi-0.dtd"
   xmlns:inkscape="http://www.inkscape.org/namespaces/inkscape"
   width="210mm"
   height="297mm"
   viewBox="0 0 210 297"
   version="1.1"
   id="svg8"
   inkscape:version="0.92.1 r15371"
   sodipodi:docname="tela_ajuda.svg">
  <defs
     id="defs2" />
  <sodipodi:namedview
     id="base"
     pagecolor="#ffffff"
     bordercolor="#666666"
     borderopacity="1.0"
     inkscape:pageopacity="0.0"
     inkscape:pageshadow="2"
     inkscape:zoom="0.49497475"
     inkscape:cx="282.46428"
     inkscape:cy="900.51363"
     inkscape:document-units="mm"
     inkscape:current-layer="layer1"
     showgrid="false"
     inkscape:window-width="1269"
     inkscape:window-height="704"
     inkscape:window-x="0"
     inkscape:window-y="27"
     inkscape:window-maximized="1" />
  <metadata
     id="metadata5">
    <rdf:RDF>
      <cc:Work
         rdf:about="">
        <dc:format>image/svg+xml</dc:format>
        <dc:type
           rdf:resource="http://purl.org/dc/dcmitype/StillImage" />
        <dc:title />
      </cc:Work>
    </rdf:RDF>
  </metadata>
  <g
     inkscape:label="Camada 1"
     inkscape:groupmode="layer"
     id="layer1">
    <path
       style="opacity:1;fill:#ffb380;fill-opacity:1;stroke:#ffb380;stroke-width:0.37917224;stroke-linecap:round;stroke-linejoin:round;stroke-miterlimit:4;stroke-dasharray:none;stroke-dashoffset:0;stroke-opacity:1"
       d="M 10.737685,16.549222 H 137.35852 v 75.60145 H 10.737685 Z"
       id="rect10"
       inkscape:connector-curvature="0" />
    <g
       aria-label="Ajuda do ou"
       style="font-style:normal;font-variant:normal;font-weight:normal;font-stretch:normal;font-size:10.58333302px;line-height:1.25;font-family:'URW Gothic L';-inkscape-font-specification:'URW Gothic L';letter-spacing:0px;word-spacing:0px;fill:#000000;fill-opacity:1;stroke:none;stroke-width:0.26458332"
       id="text106">
      <path
         d="m 21.497978,58.595581 h 0.8255 l 1.143,-2.63525 h 3.640666 l 1.132417,2.63525 h 0.85725 l -3.3655,-7.821083 h -0.878416 z m 2.264833,-3.344333 1.534583,-3.58775 1.502834,3.58775 z"
         style="stroke-width:0.26458332"
         id="path108" />
      <path
         d="m 30.697375,52.806498 h -0.783167 v 5.386916 c 0,1.2065 -0.296333,1.629834 -1.17475,1.68275 v 0.751417 c 0.508,-0.02117 0.867834,-0.137583 1.217084,-0.391583 0.560916,-0.423334 0.740833,-0.910167 0.740833,-2.042584 z m -0.783167,-0.6985 h 0.783167 v -1.3335 h -0.783167 z"
         style="stroke-width:0.26458332"
         id="path110" />
      <path
         d="m 37.133364,52.806498 h -0.783166 v 2.973916 c 0,0.709084 -0.105833,1.153584 -0.34925,1.513417 -0.328083,0.455083 -0.846667,0.719667 -1.449917,0.719667 -0.645583,0 -1.195916,-0.264584 -1.4605,-0.73025 -0.179916,-0.296334 -0.275166,-0.762 -0.275166,-1.354667 v -3.122083 h -0.783167 v 3.122083 c 0,0.85725 0.148167,1.4605 0.455083,1.883833 0.433917,0.60325 1.132417,0.92075 2.00025,0.92075 0.899584,0 1.471084,-0.3175 1.862667,-1.037166 v 0.899583 h 0.783166 z"
         style="stroke-width:0.26458332"
         id="path112" />
      <path
         d="m 44.376828,50.774498 h -0.783167 v 2.95275 c -0.5715,-0.687917 -1.36525,-1.058333 -2.275416,-1.058333 -1.74625,0 -3.07975,1.312333 -3.07975,3.037416 0,1.7145 1.36525,3.026833 3.153833,3.026833 0.963083,0 1.61925,-0.34925 2.201333,-1.185333 v 1.04775 h 0.783167 z m -3.07975,2.614083 c 1.280583,0 2.328333,1.026584 2.328333,2.296583 0,1.27 -1.016,2.328334 -2.25425,2.328334 -1.322916,0 -2.338916,-1.016 -2.338916,-2.338917 0,-1.27 1.005417,-2.286 2.264833,-2.286 z"
         style="stroke-width:0.26458332"
         id="path114" />
      <path
         d="m 51.611032,52.806498 h -0.783166 v 1.026583 c -0.5715,-0.804333 -1.280583,-1.164166 -2.286,-1.164166 -1.735667,0 -3.048,1.312333 -3.048,3.047999 0,1.725084 1.322917,3.01625 3.100917,3.01625 0.98425,0 1.61925,-0.328083 2.233083,-1.153583 v 1.016 h 0.783166 z m -3.047999,0.582083 c 1.27,0 2.264833,0.994834 2.264833,2.286 0,1.312333 -0.973667,2.338917 -2.2225,2.338917 -1.312333,0 -2.31775,-1.026584 -2.31775,-2.3495 0,-1.259417 1.016,-2.275417 2.275417,-2.275417 z"
         style="stroke-width:0.26458332"
         id="path116" />
      <path
         d="m 61.802121,50.774498 h -0.783167 v 2.95275 c -0.5715,-0.687917 -1.36525,-1.058333 -2.275416,-1.058333 -1.74625,0 -3.07975,1.312333 -3.07975,3.037416 0,1.7145 1.36525,3.026833 3.153833,3.026833 0.963083,0 1.61925,-0.34925 2.201333,-1.185333 v 1.04775 h 0.783167 z m -3.07975,2.614083 c 1.280583,0 2.328333,1.026584 2.328333,2.296583 0,1.27 -1.016,2.328334 -2.25425,2.328334 -1.322916,0 -2.338916,-1.016 -2.338916,-2.338917 0,-1.27 1.005416,-2.286 2.264833,-2.286 z"
         style="stroke-width:0.26458332"
         id="path118" />
      <path
         d="m 65.956576,52.668915 c -1.7145,0 -3.037417,1.30175 -3.037417,2.995083 0,1.778 1.30175,3.069166 3.100917,3.069166 1.693333,0 2.942166,-1.280583 2.942166,-3.01625 0,-1.767416 -1.27,-3.047999 -3.005666,-3.047999 z m 0,0.719666 c 1.269999,0 2.211916,0.994834 2.211916,2.338917 0,1.322916 -0.910167,2.286 -2.169583,2.286 -1.3335,0 -2.286,-0.973667 -2.286,-2.328334 0,-1.312333 0.963083,-2.296583 2.243667,-2.296583 z"
         style="stroke-width:0.26458332"
         id="path120" />
      <path
         d="m 75.816439,52.668915 c -1.7145,0 -3.037417,1.30175 -3.037417,2.995083 0,1.778 1.30175,3.069166 3.100917,3.069166 1.693333,0 2.942166,-1.280583 2.942166,-3.01625 0,-1.767416 -1.27,-3.047999 -3.005666,-3.047999 z m 0,0.719666 c 1.27,0 2.211916,0.994834 2.211916,2.338917 0,1.322916 -0.910166,2.286 -2.169583,2.286 -1.3335,0 -2.286,-0.973667 -2.286,-2.328334 0,-1.312333 0.963084,-2.296583 2.243667,-2.296583 z"
         style="stroke-width:0.26458332"
         id="path122" />
      <path
         d="m 85.027079,52.806498 h -0.783166 v 2.973916 c 0,0.709084 -0.105834,1.153584 -0.34925,1.513417 -0.328084,0.455083 -0.846667,0.719667 -1.449917,0.719667 -0.645583,0 -1.195916,-0.264584 -1.4605,-0.73025 -0.179916,-0.296334 -0.275166,-0.762 -0.275166,-1.354667 v -3.122083 h -0.783167 v 3.122083 c 0,0.85725 0.148167,1.4605 0.455083,1.883833 0.433917,0.60325 1.132417,0.92075 2.00025,0.92075 0.899583,0 1.471083,-0.3175 1.862667,-1.037166 v 0.899583 h 0.783166 z"
         style="stroke-width:0.26458332"
         id="path124" />
    </g>
  </g>
</svg>
