<?xml version="1.0" encoding="UTF-8" standalone="no"?>
<!-- Created with Inkscape (http://www.inkscape.org/) -->

<svg
   xmlns:dc="http://purl.org/dc/elements/1.1/"
   xmlns:cc="http://creativecommons.org/ns#"
   xmlns:rdf="http://www.w3.org/1999/02/22-rdf-syntax-ns#"
   xmlns:svg="http://www.w3.org/2000/svg"
   xmlns="http://www.w3.org/2000/svg"
   xmlns:sodipodi="http://sodipodi.sourceforge.net/DTD/sodipodi-0.dtd"
   xmlns:inkscape="http://www.inkscape.org/namespaces/inkscape"
   width="210mm"
   height="297mm"
   viewBox="0 0 210 297"
   version="1.1"
   id="svg1018"
   inkscape:version="0.92.1 r15371"
   sodipodi:docname="07.svg">
  <defs
     id="defs1012" />
  <sodipodi:namedview
     id="base"
     pagecolor="#ffffff"
     bordercolor="#666666"
     borderopacity="1.0"
     inkscape:pageopacity="0.0"
     inkscape:pageshadow="2"
     inkscape:zoom="0.35"
     inkscape:cx="400"
     inkscape:cy="560"
     inkscape:document-units="mm"
     inkscape:current-layer="layer1"
     showgrid="false"
     inkscape:window-width="1269"
     inkscape:window-height="704"
     inkscape:window-x="0"
     inkscape:window-y="27"
     inkscape:window-maximized="1" />
  <metadata
     id="metadata1015">
    <rdf:RDF>
      <cc:Work
         rdf:about="">
        <dc:format>image/svg+xml</dc:format>
        <dc:type
           rdf:resource="http://purl.org/dc/dcmitype/StillImage" />
        <dc:title />
      </cc:Work>
    </rdf:RDF>
  </metadata>
  <g
     inkscape:label="Camada 1"
     inkscape:groupmode="layer"
     id="layer1">
    <path
       style="opacity:1;fill:#e6e6e6;fill-opacity:1;stroke:#cccccc;stroke-width:0.35506254;stroke-linecap:round;stroke-linejoin:round;stroke-miterlimit:4;stroke-dasharray:none;stroke-dashoffset:0;stroke-opacity:1"
       d="M 6.9113731,7.1509843 H 133.69577 V 41.051398 H 6.9113731 Z"
       id="rect10-6" />
    <g
       aria-label="p: São Paulo não é a capital do Brasil
q: 6 &lt; 5.
"
       style="font-style:normal;font-variant:normal;font-weight:normal;font-stretch:normal;font-size:8.14580536px;line-height:1.25;font-family:'URW Gothic L';-inkscape-font-specification:'URW Gothic L';letter-spacing:0px;word-spacing:0px;fill:#000000;fill-opacity:1;stroke:none;stroke-width:0.20364513"
       id="text14-2">
      <path
         d="m 7.974432,11.027194 0.047729,-0.198872 q 0.3341053,-0.123301 0.7636692,-0.214782 0.4335414,-0.09148 0.8631054,-0.119323 0.1113684,-0.008 0.2187594,-0.004 0.3062637,0 0.5807067,0.05171 0.369902,0.06762 0.572752,0.262511 0.32615,0.318196 0.441496,0.727872 0.07955,0.278422 0.07557,0.556843 0,0.131255 -0.01591,0.262511 -0.05171,0.413654 -0.250579,0.807421 -0.194895,0.38979 -0.493203,0.676166 -0.09944,0.09148 -0.254556,0.190917 -0.155121,0.09546 -0.346038,0.18694 -0.1909174,0.0875 -0.4176317,0.167052 -0.2227368,0.07557 -0.4494512,0.123301 l -0.00795,1.41597 -0.1471655,0.05171 -0.1630752,-0.457406 -0.3261504,0.441496 -0.2108045,-0.246601 -0.1630752,0.09944 -0.039775,-4.072903 -0.1789849,-0.13921 0.4892256,-0.505136 z m 1.236985,0.600594 0.043752,1.913151 q 0.2028497,-0.07159 0.3738798,-0.155121 0.1471654,-0.06364 0.2823985,-0.131255 0.1392108,-0.07159 0.2068268,-0.127278 0.17103,-0.155121 0.290354,-0.365925 0.1233,-0.210805 0.159097,-0.429564 0.01193,-0.07955 0.01591,-0.151143 0,-0.135233 -0.04375,-0.258534 -0.06364,-0.194895 -0.274443,-0.32615 -0.09944,-0.05966 -0.262512,-0.06364 -0.011932,0 -0.019887,0.004 -0.1750075,0.004 -0.3460376,0.01989 -0.2068271,0.03182 -0.4255866,0.07159 z"
         style="font-style:normal;font-variant:normal;font-weight:normal;font-stretch:normal;font-family:AngryBirds;-inkscape-font-specification:AngryBirds;stroke-width:0.20364513"
         id="path105" />
      <path
         d="m 12.202455,15.855811 q -0.143188,-0.15512 -0.15512,-0.32615 -0.008,-0.17103 0.0358,-0.449451 0.02386,-0.18694 0.135233,-0.330128 0.115346,-0.147166 0.278421,-0.222737 0.163075,-0.07955 0.346037,-0.07955 0.182963,0 0.346038,0.103413 0.04773,0.03182 0.07557,0.178985 0.03182,0.147166 0.01989,0.330128 -0.01193,0.182963 -0.07159,0.35797 -0.05569,0.175008 -0.163076,0.266489 -0.09944,0.07955 -0.226714,0.139211 -0.123301,0.05568 -0.246601,0.07955 -0.119324,0.02387 -0.222737,0.01193 -0.09944,-0.01193 -0.151143,-0.05966 z m 0.206827,-2.947286 q -0.147165,-0.15512 -0.15512,-0.32615 -0.008,-0.17103 0.03182,-0.449451 0.02387,-0.18694 0.135233,-0.334106 0.115346,-0.147165 0.278421,-0.222737 0.163076,-0.07955 0.346038,-0.07955 0.182962,0 0.346038,0.107391 0.04773,0.03182 0.07557,0.178985 0.03182,0.147166 0.01989,0.330128 -0.01193,0.182963 -0.07159,0.35797 -0.05568,0.175008 -0.159097,0.266489 -0.09944,0.07955 -0.226715,0.139211 -0.123301,0.05568 -0.246601,0.07955 -0.123301,0.02387 -0.226715,0.01193 -0.09944,-0.01193 -0.147165,-0.05966 z"
         style="font-style:normal;font-variant:normal;font-weight:normal;font-stretch:normal;font-family:AngryBirds;-inkscape-font-specification:AngryBirds;stroke-width:0.20364513"
         id="path107" />
      <path
         d="m 15.690673,12.065307 q -0.01989,-0.119323 -0.01989,-0.242624 0,-0.15512 0.0358,-0.318196 0.05966,-0.29433 0.214782,-0.608549 0.147165,-0.302285 0.469338,-0.568774 0.326151,-0.270466 0.739805,-0.4772934 0.417632,-0.2108045 0.879015,-0.3460376 0.461384,-0.1392105 0.882993,-0.1909173 l -0.111369,0.2704662 0.334105,0.107391 -0.51309,0.4136541 0.684121,0.17103 -0.05966,0.270466 q -0.286376,0.04773 -0.632414,0.139211 -0.34206,0.0875 -0.648323,0.218759 -0.306263,0.131256 -0.532978,0.314218 -0.222736,0.182963 -0.262511,0.417632 -0.008,0.05171 -0.008,0.103414 0,0.194894 0.131256,0.34206 0.163075,0.182962 0.409677,0.314218 0.250579,0.127278 0.517067,0.226714 0.270467,0.09944 0.433542,0.178985 0.18694,0.09944 0.350015,0.234669 0.163075,0.131256 0.262511,0.322173 0.103414,0.190918 0.131256,0.445474 0.008,0.07159 0.008,0.147165 0,0.198873 -0.05171,0.445474 -0.09944,0.421609 -0.413654,0.751737 -0.310241,0.32615 -0.767647,0.536955 -0.441496,0.20285 -0.946632,0.282399 -0.505135,0.08353 -0.974473,0.09944 l -0.07557,-0.07955 0.441496,-0.381835 -0.48127,-0.131256 0.163075,-0.13921 q -0.01591,-0.04773 -0.03977,-0.09148 -0.01591,-0.03978 -0.04375,-0.08353 -0.02387,-0.04375 -0.04773,-0.103413 0.278421,-0.03182 0.648324,-0.09944 0.369902,-0.07159 0.672188,-0.182963 0.1233,-0.04773 0.274443,-0.143188 0.155121,-0.09546 0.238647,-0.230691 0.05568,-0.09148 0.05568,-0.20285 0,-0.04773 -0.01193,-0.09944 -0.0358,-0.17103 -0.278421,-0.377857 -0.163075,-0.139211 -0.326151,-0.230692 -0.163075,-0.09148 -0.32615,-0.175008 -0.163075,-0.07955 -0.330128,-0.159097 -0.167053,-0.08353 -0.346038,-0.182963 -0.32615,-0.178985 -0.505135,-0.409677 -0.175008,-0.230691 -0.222737,-0.49718 z"
         style="font-style:normal;font-variant:normal;font-weight:normal;font-stretch:normal;font-family:AngryBirds;-inkscape-font-specification:AngryBirds;stroke-width:0.20364513"
         id="path109" />
      <path
         d="m 19.604478,15.808082 1.050045,-5.027489 0.326151,0.09944 0.298308,-0.262512 0.449451,0.552865 0.254557,-0.49718 0.282398,0.17103 0.262512,-0.151143 0.950609,5.146812 -0.178985,-0.1233 -0.298309,0.17103 -0.230691,-0.294331 -0.21876,0.222737 -0.302286,-1.101752 -1.515406,0.1233 -0.290353,1.109707 -0.08353,0.03182 -0.258534,-0.326151 -0.326151,0.258534 z m 0.226714,-6.05367 q 0.03977,-0.063639 0.07159,-0.1153459 0.0358,-0.055684 0.06762,-0.1113684 0.123301,-0.2028497 0.262511,-0.3460377 0.143188,-0.1431879 0.397745,-0.1829624 0.262511,-0.047729 0.417631,-0.00795 0.159098,0.039775 0.298309,0.1272782 0.07159,0.047729 0.13921,0.1034136 0.07159,0.051707 0.155121,0.1034135 0.09148,0.055684 0.178984,0.099436 0.0875,0.043752 0.20285,0.087504 0.107391,0.03182 0.198872,0.011932 0.09546,-0.019887 0.175008,-0.075571 0.08353,-0.059662 0.147165,-0.1312557 0.06364,-0.075571 0.123301,-0.1471654 0.06364,-0.079549 0.119323,-0.1909173 0.02387,0 0.04773,0.00795 0.02784,0.00398 0.05171,0.00398 l -0.02386,0.2028497 H 23.0569 l -0.01591,0.1869398 0.115346,0.055684 q -0.09148,0.1869398 -0.21876,0.3818346 -0.127278,0.1909169 -0.222737,0.2784209 -0.202849,0.178985 -0.457406,0.226714 -0.250579,0.04375 -0.489225,-0.03182 -0.03978,-0.01591 -0.09546,-0.04375 -0.05171,-0.02784 -0.115346,-0.06762 -0.06364,-0.03977 -0.13921,-0.0875 -0.07159,-0.05171 -0.139211,-0.1034138 -0.147165,-0.099436 -0.298308,-0.178985 -0.147166,-0.079549 -0.294331,-0.095459 -0.06364,0 -0.159098,0.087504 -0.09546,0.083526 -0.182962,0.1869399 -0.03978,0.04773 -0.07557,0.099436 -0.03182,0.04773 -0.07159,0.09148 l -0.03182,0.03978 -0.06364,-0.008 0.07159,-0.20285 h -0.246602 l 0.05171,-0.1392101 q -0.03977,-0.03182 -0.07557,-0.055684 -0.03182,-0.027842 -0.07159,-0.059662 z m 1.10573,4.156429 1.165391,-0.107391 -0.405699,-1.825647 -0.34206,0.02387 z"
         style="font-style:normal;font-variant:normal;font-weight:normal;font-stretch:normal;font-family:AngryBirds;-inkscape-font-specification:AngryBirds;stroke-width:0.20364513"
         id="path111" />
      <path
         d="m 23.836479,14.034142 q -0.01591,-0.21876 -0.01989,-0.437519 0,-0.242624 0.02386,-0.485248 0.07955,-0.831286 0.230692,-1.304602 0.151143,-0.473316 0.445474,-0.723895 0.107391,-0.09148 0.270466,-0.182962 0.167053,-0.09546 0.369902,-0.163075 0.206827,-0.07159 0.441497,-0.09944 0.111368,-0.01193 0.222736,-0.01193 l 0.250579,0.01591 -0.01591,0.473316 0.397744,-0.242624 0.17103,0.250579 0.270466,-0.107391 q 0.302286,0.31024 0.461384,0.890947 0.163075,0.57673 0.163075,1.41597 0,0.278421 -0.03182,0.608549 -0.03182,0.330128 -0.115345,0.648324 -0.07955,0.314218 -0.214782,0.580706 -0.135234,0.262512 -0.338083,0.409677 -0.286376,0.20285 -0.57673,0.310241 -0.286376,0.107391 -0.560819,0.135233 -0.127278,0.01193 -0.254557,0.01193 -0.13921,0 -0.266488,-0.01591 -0.242624,-0.03182 -0.441497,-0.107391 -0.250579,-0.09148 -0.437518,-0.365924 -0.182963,-0.278421 -0.298309,-0.660256 -0.111368,-0.381835 -0.147165,-0.843218 z m 0.970496,-0.743782 q -0.01193,0.15512 -0.008,0.306263 0,0.286376 0.03978,0.564797 0.05966,0.421609 0.222737,0.676165 0.07955,0.131256 0.234669,0.198873 0.15512,0.06364 0.330128,0.06364 0.175007,0 0.334105,-0.05966 0.159098,-0.06364 0.242624,-0.194895 0.07955,-0.131255 0.15512,-0.377857 0.07955,-0.250579 0.123301,-0.548887 0.04773,-0.302286 0.05568,-0.628436 0,-0.04375 0,-0.0875 0,-0.278421 -0.04773,-0.536955 -0.05171,-0.298308 -0.175008,-0.532977 -0.119323,-0.23467 -0.32615,-0.35797 -0.131256,-0.07955 -0.306263,-0.07955 -0.008,0 -0.01989,0 -0.18694,0.004 -0.322173,0.127278 -0.23467,0.210804 -0.369903,0.616504 -0.131255,0.401722 -0.163075,0.851173 z"
         style="font-style:normal;font-variant:normal;font-weight:normal;font-stretch:normal;font-family:AngryBirds;-inkscape-font-specification:AngryBirds;stroke-width:0.20364513"
         id="path113" />
      <path
         d="m 29.516268,10.024878 0.04773,-0.2386465 q 0.413654,-0.1630752 0.898902,-0.2386466 0.485248,-0.079549 0.938677,-0.079549 0.453429,0 0.827308,0.087504 0.37388,0.083526 0.584685,0.2466015 0.302285,0.2426237 0.465361,0.6005937 0.163075,0.353993 0.206827,0.739805 0.01591,0.147165 0.01989,0.294331 0,0.238646 -0.04773,0.469338 -0.07159,0.37388 -0.242625,0.652301 -0.365924,0.584684 -0.974473,0.930722 -0.608549,0.346038 -1.332444,0.532977 -0.01591,0.21876 -0.02784,0.481271 -0.01193,0.262511 -0.01989,0.521045 -0.008,0.254557 -0.008,0.485248 v 0.393767 l -0.178985,0.09148 -0.417632,-0.855151 -0.334105,0.692075 -0.127278,-0.107391 q -0.008,-0.202849 -0.01591,-0.540932 -0.004,-0.338083 -0.01591,-0.751737 -0.01193,-0.417631 -0.01989,-0.875038 -0.008,-0.461383 -0.01193,-0.922767 -0.004,-0.230691 -0.004,-0.449451 0.004,-0.222737 0.004,-0.437519 0.004,-0.429564 0.01193,-0.779579 l 0.206827,-0.31024 -0.222737,-0.119324 0.481271,-0.441496 z m 1.344377,2.816031 q 0.194894,-0.02387 0.369902,-0.08353 0.175007,-0.06364 0.322173,-0.135233 0.147165,-0.07159 0.250579,-0.147165 0.107391,-0.07955 0.163075,-0.131256 0.123301,-0.115346 0.226714,-0.278421 0.107391,-0.167053 0.167053,-0.350015 0.04375,-0.143188 0.04375,-0.294331 0,-0.04375 -0.004,-0.0875 -0.01591,-0.194894 -0.147165,-0.365925 -0.147165,-0.194894 -0.32615,-0.258533 -0.159098,-0.05966 -0.326151,-0.05966 -0.01989,0 -0.03977,0 -0.18694,0.008 -0.361948,0.07557 -0.175007,0.06364 -0.314218,0.131256 -0.01591,0.465361 -0.01591,0.958564 0,0.489226 -0.008,1.026181 z"
         style="font-style:normal;font-variant:normal;font-weight:normal;font-stretch:normal;font-family:AngryBirds;-inkscape-font-specification:AngryBirds;stroke-width:0.20364513"
         id="path115" />
      <path
         d="m 33.827818,15.808082 1.050045,-5.027489 0.326151,0.09944 0.298308,-0.262512 0.449451,0.552865 0.254557,-0.49718 0.282398,0.17103 0.262512,-0.151143 0.950609,5.146812 -0.178985,-0.1233 -0.298309,0.17103 -0.230691,-0.294331 -0.21876,0.222737 -0.302286,-1.101752 -1.515406,0.1233 -0.290353,1.109707 -0.08353,0.03182 -0.258534,-0.326151 -0.326151,0.258534 z m 1.332444,-1.897241 1.165391,-0.107391 -0.405699,-1.825647 -0.34206,0.02387 z"
         style="font-style:normal;font-variant:normal;font-weight:normal;font-stretch:normal;font-family:AngryBirds;-inkscape-font-specification:AngryBirds;stroke-width:0.20364513"
         id="path117" />
      <path
         d="m 38.039933,13.890954 q 0,-0.457406 0.004,-0.827309 0.004,-0.369902 0.02387,-0.71594 0.01989,-0.346037 0.05171,-0.707985 0.03182,-0.361947 0.09148,-0.795488 l 0.266488,0.107391 0.318196,-0.242624 0.302286,0.186939 0.111368,-0.03977 q -0.02387,0.242624 -0.05171,0.636391 -0.02784,0.38979 -0.05568,0.819353 -0.02784,0.425587 -0.03977,0.831286 -0.004,0.175008 -0.008,0.322173 0,0.198872 0.01193,0.353993 0.03977,0.767646 0.413654,0.974474 0.123301,0.06762 0.282399,0.06762 0.318195,0 0.767647,-0.274444 0.04773,-0.115345 0.07557,-0.330127 0.03182,-0.21876 0.04773,-0.489226 0.01591,-0.274444 0.02387,-0.584684 0.008,-0.310241 0.008,-0.624459 0.008,-0.529 0.01193,-1.046068 0.004,-0.521045 0.01989,-0.87106 l 0.222737,-0.05568 0.274444,0.552865 0.35797,-0.521046 0.190917,-0.008 q -0.008,0.334106 -0.01989,0.922767 -0.008,0.584685 -0.01591,1.300625 -0.008,0.71594 -0.008,1.487564 0,0.767646 0.01591,1.455744 l -0.20285,-0.06762 -0.274443,0.238646 -0.302286,-0.198872 -0.238647,0.115346 q -0.008,-0.03977 -0.02784,-0.107391 -0.01989,-0.07159 -0.07557,-0.218759 -0.242624,0.107391 -0.536955,0.186939 -0.294331,0.07557 -0.576729,0.103414 -0.151143,0.01591 -0.290354,0.01591 -0.119323,0 -0.230692,-0.01193 -0.238646,-0.02386 -0.369902,-0.1233 -0.20285,-0.147166 -0.318195,-0.4057 -0.115346,-0.262511 -0.171031,-0.536955 -0.05568,-0.278421 -0.06762,-0.517067 -0.01193,-0.242624 -0.01193,-0.35797 z"
         style="font-style:normal;font-variant:normal;font-weight:normal;font-stretch:normal;font-family:AngryBirds;-inkscape-font-specification:AngryBirds;stroke-width:0.20364513"
         id="path119" />
      <path
         d="m 42.474782,10.975487 0.15512,0.02387 0.226714,-0.163075 0.238647,0.401722 0.421609,-0.564797 0.131256,0.04375 -0.139211,4.383144 h 1.344376 l -0.334105,0.282398 0.457406,0.178985 -0.230692,0.278421 0.08353,0.115346 -1.833602,0.135233 -0.07159,-0.445473 -0.433541,0.06364 z"
         style="font-style:normal;font-variant:normal;font-weight:normal;font-stretch:normal;font-family:AngryBirds;-inkscape-font-specification:AngryBirds;stroke-width:0.20364513"
         id="path121" />
      <path
         d="m 45.266946,14.034142 q -0.01591,-0.21876 -0.01989,-0.437519 0,-0.242624 0.02387,-0.485248 0.07955,-0.831286 0.230692,-1.304602 0.151143,-0.473316 0.445473,-0.723895 0.107391,-0.09148 0.270467,-0.182962 0.167052,-0.09546 0.369902,-0.163075 0.206827,-0.07159 0.441496,-0.09944 0.111369,-0.01193 0.222737,-0.01193 l 0.250579,0.01591 -0.01591,0.473316 0.397745,-0.242624 0.17103,0.250579 0.270466,-0.107391 q 0.302286,0.31024 0.461383,0.890947 0.163076,0.57673 0.163076,1.41597 0,0.278421 -0.03182,0.608549 -0.03182,0.330128 -0.115346,0.648324 -0.07955,0.314218 -0.214782,0.580706 -0.135233,0.262512 -0.338083,0.409677 -0.286376,0.20285 -0.576729,0.310241 -0.286376,0.107391 -0.56082,0.135233 -0.127278,0.01193 -0.254556,0.01193 -0.139211,0 -0.266489,-0.01591 -0.242624,-0.03182 -0.441496,-0.107391 -0.250579,-0.09148 -0.437519,-0.365924 -0.182962,-0.278421 -0.298308,-0.660256 -0.111369,-0.381835 -0.147166,-0.843218 z m 0.970497,-0.743782 q -0.01193,0.15512 -0.008,0.306263 0,0.286376 0.03977,0.564797 0.05966,0.421609 0.222737,0.676165 0.07955,0.131256 0.234669,0.198873 0.155121,0.06364 0.330128,0.06364 0.175008,0 0.334106,-0.05966 0.159097,-0.06364 0.242624,-0.194895 0.07955,-0.131255 0.15512,-0.377857 0.07955,-0.250579 0.123301,-0.548887 0.04773,-0.302286 0.05568,-0.628436 0,-0.04375 0,-0.0875 0,-0.278421 -0.04773,-0.536955 -0.05171,-0.298308 -0.175008,-0.532977 -0.119323,-0.23467 -0.32615,-0.35797 -0.131256,-0.07955 -0.306264,-0.07955 -0.008,0 -0.01989,0 -0.18694,0.004 -0.322173,0.127278 -0.234669,0.210804 -0.369902,0.616504 -0.131256,0.401722 -0.163075,0.851173 z"
         style="font-style:normal;font-variant:normal;font-weight:normal;font-stretch:normal;font-family:AngryBirds;-inkscape-font-specification:AngryBirds;stroke-width:0.20364513"
         id="path123" />
      <path
         d="m 51.157544,10.872074 0.35797,-0.18694 0.286376,0.298308 0.35797,-0.119323 1.662572,3.01888 h 0.163075 l -0.04773,-2.995015 0.210804,-0.123301 0.365925,0.505135 0.34206,-0.51309 0.147166,0.02386 -0.008,5.230338 -0.09148,0.05569 -0.290354,-0.302286 -0.409676,0.286376 -0.163076,-0.03182 -1.642684,-2.589316 -0.206827,-0.02386 -0.06364,2.62909 -0.234669,-0.03182 -0.318196,-0.433542 -0.238647,0.481271 -0.13921,-0.07159 z"
         style="font-style:normal;font-variant:normal;font-weight:normal;font-stretch:normal;font-family:AngryBirds;-inkscape-font-specification:AngryBirds;stroke-width:0.20364513"
         id="path125" />
      <path
         d="m 55.449206,15.808082 1.050045,-5.027489 0.32615,0.09944 0.298309,-0.262512 0.449451,0.552865 0.254556,-0.49718 0.282399,0.17103 0.262511,-0.151143 0.950609,5.146812 -0.178985,-0.1233 -0.298308,0.17103 -0.230692,-0.294331 -0.218759,0.222737 -0.302286,-1.101752 -1.515406,0.1233 -0.290354,1.109707 -0.08353,0.03182 -0.258534,-0.326151 -0.32615,0.258534 z m 0.226714,-6.05367 q 0.03977,-0.063639 0.07159,-0.1153459 0.0358,-0.055684 0.06762,-0.1113684 0.1233,-0.2028497 0.262511,-0.3460377 0.143188,-0.1431879 0.397744,-0.1829624 0.262512,-0.047729 0.417632,-0.00795 0.159098,0.039775 0.298308,0.1272782 0.07159,0.047729 0.139211,0.1034136 0.07159,0.051707 0.15512,0.1034135 0.09148,0.055684 0.178985,0.099436 0.0875,0.043752 0.20285,0.087504 0.107391,0.03182 0.198872,0.011932 0.09546,-0.019887 0.175007,-0.075571 0.08353,-0.059662 0.147166,-0.1312557 0.06364,-0.075571 0.123301,-0.1471654 0.06364,-0.079549 0.119323,-0.1909173 0.02387,0 0.04773,0.00795 0.02784,0.00398 0.05171,0.00398 l -0.02387,0.2028497 h 0.194895 l -0.01591,0.1869398 0.115346,0.055684 q -0.09148,0.1869398 -0.218759,0.3818346 -0.127278,0.1909169 -0.222737,0.2784209 -0.20285,0.178985 -0.457406,0.226714 -0.250579,0.04375 -0.489226,-0.03182 -0.03977,-0.01591 -0.09546,-0.04375 -0.05171,-0.02784 -0.115346,-0.06762 -0.06364,-0.03977 -0.139211,-0.0875 -0.07159,-0.05171 -0.13921,-0.1034138 -0.147166,-0.099436 -0.298309,-0.178985 -0.147165,-0.079549 -0.294331,-0.095459 -0.06364,0 -0.159097,0.087504 -0.09546,0.083526 -0.182963,0.1869399 -0.03977,0.04773 -0.07557,0.099436 -0.03182,0.04773 -0.07159,0.09148 l -0.03182,0.03978 -0.06364,-0.008 0.07159,-0.20285 h -0.246601 l 0.05171,-0.1392101 q -0.03977,-0.03182 -0.07557,-0.055684 -0.03182,-0.027842 -0.07159,-0.059662 z m 1.105729,4.156429 1.165392,-0.107391 -0.4057,-1.825647 -0.34206,0.02387 z"
         style="font-style:normal;font-variant:normal;font-weight:normal;font-stretch:normal;font-family:AngryBirds;-inkscape-font-specification:AngryBirds;stroke-width:0.20364513"
         id="path127" />
      <path
         d="m 59.681207,14.034142 q -0.01591,-0.21876 -0.01989,-0.437519 0,-0.242624 0.02386,-0.485248 0.07955,-0.831286 0.230691,-1.304602 0.151143,-0.473316 0.445474,-0.723895 0.107391,-0.09148 0.270466,-0.182962 0.167053,-0.09546 0.369903,-0.163075 0.206827,-0.07159 0.441496,-0.09944 0.111368,-0.01193 0.222737,-0.01193 l 0.250579,0.01591 -0.01591,0.473316 0.397744,-0.242624 0.171031,0.250579 0.270466,-0.107391 q 0.302285,0.31024 0.461383,0.890947 0.163075,0.57673 0.163075,1.41597 0,0.278421 -0.03182,0.608549 -0.03182,0.330128 -0.115346,0.648324 -0.07955,0.314218 -0.214782,0.580706 -0.135233,0.262512 -0.338083,0.409677 -0.286376,0.20285 -0.576729,0.310241 -0.286376,0.107391 -0.56082,0.135233 -0.127278,0.01193 -0.254556,0.01193 -0.139211,0 -0.266489,-0.01591 -0.242624,-0.03182 -0.441496,-0.107391 -0.250579,-0.09148 -0.437519,-0.365924 -0.182962,-0.278421 -0.298308,-0.660256 -0.111369,-0.381835 -0.147166,-0.843218 z m 0.970497,-0.743782 q -0.01193,0.15512 -0.008,0.306263 0,0.286376 0.03977,0.564797 0.05966,0.421609 0.222737,0.676165 0.07955,0.131256 0.234669,0.198873 0.155121,0.06364 0.330128,0.06364 0.175008,0 0.334105,-0.05966 0.159098,-0.06364 0.242624,-0.194895 0.07955,-0.131255 0.155121,-0.377857 0.07955,-0.250579 0.123301,-0.548887 0.04773,-0.302286 0.05568,-0.628436 0,-0.04375 0,-0.0875 0,-0.278421 -0.04773,-0.536955 -0.05171,-0.298308 -0.175007,-0.532977 -0.119323,-0.23467 -0.32615,-0.35797 -0.131256,-0.07955 -0.306264,-0.07955 -0.008,0 -0.01989,0 -0.18694,0.004 -0.322173,0.127278 -0.234669,0.210804 -0.369902,0.616504 -0.131256,0.401722 -0.163075,0.851173 z"
         style="font-style:normal;font-variant:normal;font-weight:normal;font-stretch:normal;font-family:AngryBirds;-inkscape-font-specification:AngryBirds;stroke-width:0.20364513"
         id="path129" />
      <path
         d="m 65.468388,11.198224 0.111368,-0.262511 -0.05568,-0.107391 2.330782,-0.15512 0.07159,0.318195 -0.505135,0.350015 0.481271,0.147166 -0.06364,0.178985 -1.189256,0.107391 -0.02784,1.252894 1.189255,-0.03977 -0.135233,0.425586 0.23467,0.09546 -0.03978,0.21876 -1.233008,0.1233 0.05171,1.328467 1.22903,-0.04773 -0.07955,0.421609 0.218759,0.09944 -0.09148,0.310241 -1.921106,0.111369 0.03182,-0.413655 -0.497181,0.03182 0.05171,-3.810391 -0.09944,-0.163076 0.350015,-0.302285 z m 0.739805,-1.077887 0.910834,-1.4000605 0.18694,-0.01591 -0.05568,0.3261504 0.489225,-0.039775 -0.04773,0.1948948 0.17103,0.071594 -1.085842,0.9625415 -0.194895,-0.194895 -0.286376,0.178985 z"
         style="font-style:normal;font-variant:normal;font-weight:normal;font-stretch:normal;font-family:AngryBirds;-inkscape-font-specification:AngryBirds;stroke-width:0.20364513"
         id="path131" />
      <path
         d="m 69.799822,15.808082 1.050045,-5.027489 0.326151,0.09944 0.298308,-0.262512 0.449451,0.552865 0.254557,-0.49718 0.282398,0.17103 0.262512,-0.151143 0.950609,5.146812 -0.178985,-0.1233 -0.298309,0.17103 -0.230691,-0.294331 -0.21876,0.222737 -0.302286,-1.101752 -1.515406,0.1233 -0.290353,1.109707 -0.08353,0.03182 -0.258534,-0.326151 -0.326151,0.258534 z m 1.332444,-1.897241 1.165391,-0.107391 -0.405699,-1.825647 -0.34206,0.02387 z"
         style="font-style:normal;font-variant:normal;font-weight:normal;font-stretch:normal;font-family:AngryBirds;-inkscape-font-specification:AngryBirds;stroke-width:0.20364513"
         id="path133" />
      <path
         d="m 75.567119,13.44548 q 0,-0.234669 0.06762,-0.624459 0.07159,-0.393767 0.222737,-0.795488 0.151143,-0.4057 0.397745,-0.735828 0.250579,-0.330127 0.608549,-0.445473 0.397744,-0.123301 0.759691,-0.167053 0.119324,-0.01591 0.250579,-0.01193 0.254557,0 0.529,0.05966 0.01591,0.02387 0.02387,0.05966 0.008,0.0358 0.02387,0.05966 l -0.56082,0.198872 0.38979,0.218759 -0.17103,0.147166 0.06762,0.202849 q -0.107391,0.008 -0.238646,0.02386 -0.131256,0.01591 -0.262512,0.04375 -0.127278,0.02387 -0.246601,0.05568 -0.119324,0.03182 -0.206827,0.07955 -0.163076,0.07955 -0.278421,0.302286 -0.111369,0.218759 -0.182963,0.48127 -0.06762,0.258534 -0.103413,0.517068 -0.03182,0.254557 -0.03182,0.409677 0,0.13921 0.01989,0.330128 0.02387,0.190917 0.07159,0.397744 0.04773,0.20285 0.131256,0.385812 0.0875,0.182963 0.226714,0.298309 0.07159,0.06364 0.21876,0.09944 0.147165,0.0358 0.32615,0.05568 0.178985,0.01591 0.365925,0.02386 0.190917,0.008 0.353992,0.008 -0.01591,0.01591 -0.0358,0.04375 -0.01591,0.02784 -0.03977,0.06762 l 0.17103,0.18694 -0.405699,0.230691 0.445473,0.163076 q -0.01591,0.06364 -0.03182,0.09546 -0.489226,0.107391 -0.982429,0.135233 -0.07159,0.004 -0.143188,0.004 -0.405699,0 -0.747759,-0.139211 -0.310241,-0.1233 -0.505136,-0.401722 -0.194894,-0.282398 -0.306263,-0.632413 -0.107391,-0.350015 -0.151143,-0.727872 -0.03977,-0.377858 -0.03977,-0.704008 z"
         style="font-style:normal;font-variant:normal;font-weight:normal;font-stretch:normal;font-family:AngryBirds;-inkscape-font-specification:AngryBirds;stroke-width:0.20364513"
         id="path135" />
      <path
         d="m 78.820669,15.808082 1.050046,-5.027489 0.32615,0.09944 0.298308,-0.262512 0.449452,0.552865 0.254556,-0.49718 0.282399,0.17103 0.262511,-0.151143 0.950609,5.146812 -0.178985,-0.1233 -0.298308,0.17103 -0.230692,-0.294331 -0.21876,0.222737 -0.302285,-1.101752 -1.515406,0.1233 -0.290354,1.109707 -0.08353,0.03182 -0.258534,-0.326151 -0.32615,0.258534 z m 1.332444,-1.897241 1.165391,-0.107391 -0.405699,-1.825647 -0.34206,0.02387 z"
         style="font-style:normal;font-variant:normal;font-weight:normal;font-stretch:normal;font-family:AngryBirds;-inkscape-font-specification:AngryBirds;stroke-width:0.20364513"
         id="path137" />
      <path
         d="m 82.957205,11.027194 0.04773,-0.198872 q 0.334105,-0.123301 0.763669,-0.214782 0.433542,-0.09148 0.863106,-0.119323 0.111368,-0.008 0.218759,-0.004 0.306263,0 0.580707,0.05171 0.369902,0.06762 0.572752,0.262511 0.32615,0.318196 0.441496,0.727872 0.07955,0.278422 0.07557,0.556843 0,0.131255 -0.01591,0.262511 -0.05171,0.413654 -0.250579,0.807421 -0.194895,0.38979 -0.493203,0.676166 -0.09944,0.09148 -0.254557,0.190917 -0.15512,0.09546 -0.346037,0.18694 -0.190918,0.0875 -0.417632,0.167052 -0.222737,0.07557 -0.449451,0.123301 l -0.008,1.41597 -0.147165,0.05171 -0.163076,-0.457406 -0.32615,0.441496 -0.210804,-0.246601 -0.163076,0.09944 -0.03977,-4.072903 -0.178985,-0.13921 0.489226,-0.505136 z m 1.236985,0.600594 0.04375,1.913151 q 0.202849,-0.07159 0.373879,-0.155121 0.147166,-0.06364 0.282399,-0.131255 0.139211,-0.07159 0.206827,-0.127278 0.17103,-0.155121 0.290354,-0.365925 0.1233,-0.210805 0.159097,-0.429564 0.01193,-0.07955 0.01591,-0.151143 0,-0.135233 -0.04375,-0.258534 -0.06364,-0.194895 -0.274443,-0.32615 -0.09944,-0.05966 -0.262512,-0.06364 -0.01193,0 -0.01989,0.004 -0.175008,0.004 -0.346038,0.01989 -0.206827,0.03182 -0.425586,0.07159 z"
         style="font-style:normal;font-variant:normal;font-weight:normal;font-stretch:normal;font-family:AngryBirds;-inkscape-font-specification:AngryBirds;stroke-width:0.20364513"
         id="path139" />
      <path
         d="m 87.169324,15.871721 v -5.067264 l 0.178985,-0.06364 0.270466,0.636391 0.342061,-0.612526 0.242624,0.131255 0.230691,-0.08353 -0.13921,5.15079 -0.09944,0.03182 -0.34206,-0.489226 -0.23467,0.429564 -0.210804,-0.07955 z"
         style="font-style:normal;font-variant:normal;font-weight:normal;font-stretch:normal;font-family:AngryBirds;-inkscape-font-specification:AngryBirds;stroke-width:0.20364513"
         id="path141" />
      <path
         d="m 88.955193,11.178337 0.03978,-0.143188 3.217752,-0.230692 -0.131256,0.20285 0.230692,0.238646 -0.393767,0.250579 0.393767,0.171031 -0.03182,0.13921 -1.061977,0.07557 -0.05568,4.053015 -0.123301,0.0358 -0.266489,-0.580707 -0.18694,0.497181 -0.198872,-0.20285 -0.234669,0.147165 -0.03978,-3.901872 -0.986406,0.06364 0.03978,-0.147165 -0.139211,-0.111369 0.457406,-0.34206 z"
         style="font-style:normal;font-variant:normal;font-weight:normal;font-stretch:normal;font-family:AngryBirds;-inkscape-font-specification:AngryBirds;stroke-width:0.20364513"
         id="path143" />
      <path
         d="m 92.232611,15.808082 1.050045,-5.027489 0.326151,0.09944 0.298308,-0.262512 0.449451,0.552865 0.254557,-0.49718 0.282398,0.17103 0.262511,-0.151143 0.950609,5.146812 -0.178985,-0.1233 -0.298308,0.17103 -0.230692,-0.294331 -0.218759,0.222737 -0.302286,-1.101752 -1.515406,0.1233 -0.290353,1.109707 -0.08353,0.03182 -0.258534,-0.326151 -0.32615,0.258534 z m 1.332444,-1.897241 1.165391,-0.107391 -0.405699,-1.825647 -0.342061,0.02387 z"
         style="font-style:normal;font-variant:normal;font-weight:normal;font-stretch:normal;font-family:AngryBirds;-inkscape-font-specification:AngryBirds;stroke-width:0.20364513"
         id="path145" />
      <path
         d="m 96.679387,10.975487 0.15512,0.02387 0.226715,-0.163075 0.238646,0.401722 0.421609,-0.564797 0.131256,0.04375 -0.139211,4.383144 h 1.344376 l -0.334105,0.282398 0.457406,0.178985 -0.230692,0.278421 0.08353,0.115346 -1.833602,0.135233 -0.07159,-0.445473 -0.433541,0.06364 z"
         style="font-style:normal;font-variant:normal;font-weight:normal;font-stretch:normal;font-family:AngryBirds;-inkscape-font-specification:AngryBirds;stroke-width:0.20364513"
         id="path147" />
      <path
         d="m 101.31311,11.269818 0.1949,-0.210804 q -0.008,-0.01591 -0.0279,-0.07955 -0.0159,-0.06762 -0.0557,-0.159098 0.22671,-0.06364 0.55286,-0.119323 0.32615,-0.05966 0.6881,-0.06762 0.0438,0 0.0875,0 0.31421,0 0.63639,0.05171 0.36592,0.05568 0.67616,0.226714 0.34206,0.18694 0.55684,0.51309 0.21479,0.326151 0.32218,0.719918 0.10341,0.381834 0.10341,0.803444 0,0.453428 -0.10739,0.882992 -0.10341,0.409677 -0.29831,0.763669 -0.19489,0.350015 -0.47331,0.568775 -0.47332,0.381834 -1.03016,0.604571 -0.55684,0.21876 -1.11766,0.274444 l -0.0597,-0.473316 -0.50513,0.06762 0.0358,-3.774595 -0.0994,-0.06364 0.2466,-0.250579 z m 1.09778,0.56082 q 0,0.692075 0.008,1.312556 0,0.262512 0.008,0.532978 0.008,0.266489 0.0159,0.51309 0.008,0.242624 0.0199,0.437519 0.0119,0.194895 0.0318,0.318195 0.27047,-0.07955 0.50514,-0.198872 0.23467,-0.119323 0.42956,-0.290353 0.1949,-0.17103 0.33411,-0.397745 0.13921,-0.230691 0.20285,-0.532977 0.0557,-0.294331 0.0716,-0.56082 0.004,-0.04375 0,-0.0875 0,-0.21876 -0.0517,-0.409677 -0.0597,-0.226714 -0.21478,-0.401722 -0.15512,-0.175008 -0.42161,-0.274444 -0.10341,-0.0358 -0.2466,-0.0358 -0.0159,0 -0.0278,0 -0.1591,0.004 -0.30626,0.01989 -0.17103,0.02386 -0.35797,0.05568 z"
         style="font-style:normal;font-variant:normal;font-weight:normal;font-stretch:normal;font-family:AngryBirds;-inkscape-font-specification:AngryBirds;stroke-width:0.20364513"
         id="path149" />
      <path
         d="m 105.58091,14.034142 q -0.0159,-0.21876 -0.0199,-0.437519 0,-0.242624 0.0239,-0.485248 0.0795,-0.831286 0.2307,-1.304602 0.15114,-0.473316 0.44547,-0.723895 0.10739,-0.09148 0.27047,-0.182962 0.16705,-0.09546 0.3699,-0.163075 0.20683,-0.07159 0.4415,-0.09944 0.11136,-0.01193 0.22273,-0.01193 l 0.25058,0.01591 -0.0159,0.473316 0.39775,-0.242624 0.17103,0.250579 0.27046,-0.107391 q 0.30229,0.31024 0.46139,0.890947 0.16307,0.57673 0.16307,1.41597 0,0.278421 -0.0318,0.608549 -0.0318,0.330128 -0.11534,0.648324 -0.0795,0.314218 -0.21479,0.580706 -0.13523,0.262512 -0.33808,0.409677 -0.28638,0.20285 -0.57673,0.310241 -0.28637,0.107391 -0.56082,0.135233 -0.12728,0.01193 -0.25455,0.01193 -0.13922,0 -0.26649,-0.01591 -0.24263,-0.03182 -0.4415,-0.107391 -0.25058,-0.09148 -0.43752,-0.365924 -0.18296,-0.278421 -0.29831,-0.660256 -0.11137,-0.381835 -0.14716,-0.843218 z m 0.97049,-0.743782 q -0.0119,0.15512 -0.008,0.306263 0,0.286376 0.0398,0.564797 0.0597,0.421609 0.22274,0.676165 0.0795,0.131256 0.23467,0.198873 0.15512,0.06364 0.33013,0.06364 0.175,0 0.3341,-0.05966 0.1591,-0.06364 0.24263,-0.194895 0.0795,-0.131255 0.15512,-0.377857 0.0795,-0.250579 0.1233,-0.548887 0.0477,-0.302286 0.0557,-0.628436 0,-0.04375 0,-0.0875 0,-0.278421 -0.0477,-0.536955 -0.0517,-0.298308 -0.175,-0.532977 -0.11933,-0.23467 -0.32616,-0.35797 -0.13125,-0.07955 -0.30626,-0.07955 -0.008,0 -0.0199,0 -0.18694,0.004 -0.32217,0.127278 -0.23467,0.210804 -0.3699,0.616504 -0.13126,0.401722 -0.16308,0.851173 z"
         style="font-style:normal;font-variant:normal;font-weight:normal;font-stretch:normal;font-family:AngryBirds;-inkscape-font-specification:AngryBirds;stroke-width:0.20364513"
         id="path151" />
      <path
         d="m 111.3482,9.6231563 q 0.58469,-0.1869398 1.25687,-0.2585338 0.30229,-0.03182 0.58469,-0.035797 0.35001,0 0.67616,0.051707 0.34206,0.047729 0.62048,0.1590978 0.27843,0.107391 0.4773,0.2784211 0.19887,0.1710301 0.30626,0.4136539 0.11137,0.238647 0.11137,0.564797 0,0.09944 -0.0438,0.266489 -0.0438,0.167053 -0.16308,0.369902 -0.11932,0.20285 -0.31819,0.437519 -0.19888,0.230692 -0.50116,0.465361 0.46536,0.234669 0.73583,0.481271 0.27444,0.246601 0.4057,0.481271 0.13125,0.234669 0.14716,0.457406 0.004,0.06364 0.004,0.1233 0,0.151143 -0.0278,0.282399 -0.0795,0.334105 -0.38582,0.648323 -0.30626,0.314218 -0.72389,0.580707 -0.41366,0.262511 -0.88697,0.465361 -0.47332,0.20285 -0.87106,0.318196 -0.0239,-0.06364 -0.0597,-0.147166 -0.0318,-0.07955 -0.0716,-0.234669 l -0.48127,0.163075 -0.14716,-0.302286 -0.37388,0.103414 v -4.788843 l -0.15512,-0.210804 0.38183,-0.234669 -0.45343,-0.326151 0.17899,-0.2386464 z m 1.31256,0.9864057 q -0.0159,0.270467 -0.0159,0.676166 0,0.405699 0.0676,0.946632 0.29434,-0.07955 0.52105,-0.190918 0.22671,-0.111368 0.40172,-0.230691 0.17501,-0.119324 0.28638,-0.230692 0.11534,-0.115346 0.175,-0.20285 0.12331,-0.194895 0.12331,-0.353992 0,-0.09148 -0.0438,-0.167053 -0.11534,-0.210805 -0.35797,-0.32615 -0.20285,-0.09148 -0.47331,-0.09148 -0.0239,0 -0.0438,0 -0.29831,0.008 -0.64037,0.17103 z m 0.0398,2.979106 q -0.008,0.190917 -0.008,0.421609 0,0.230692 0.008,0.505135 0.0119,0.274444 0.0438,0.548888 0.31024,-0.131256 0.59662,-0.258534 0.29035,-0.131256 0.50911,-0.290354 0.22274,-0.159097 0.34206,-0.357969 0.10342,-0.167053 0.10342,-0.37388 0,-0.03977 -0.004,-0.0875 -0.0239,-0.250579 -0.20285,-0.381835 -0.17899,-0.131255 -0.42161,-0.167052 -0.11535,-0.01591 -0.23069,-0.01591 -0.13126,0 -0.27047,0.01989 -0.26251,0.03978 -0.43752,0.123301 -0.0159,0.123301 -0.0278,0.314218 z"
         style="font-style:normal;font-variant:normal;font-weight:normal;font-stretch:normal;font-family:AngryBirds;-inkscape-font-specification:AngryBirds;stroke-width:0.20364513"
         id="path153" />
      <path
         d="m 116.0575,11.015262 0.0278,-0.151143 q 0.44945,-0.147166 0.8989,-0.222737 0.45343,-0.07955 0.87504,-0.08353 0.0239,0 0.0438,0 0.39775,0 0.74378,0.06762 0.36195,0.07159 0.62844,0.246602 0.24262,0.15512 0.38581,0.389789 0.14717,0.234669 0.17501,0.529 0.008,0.07159 0.008,0.151143 0,0.226715 -0.0676,0.481271 -0.0875,0.338083 -0.30229,0.688098 -0.0398,0.07159 -0.1233,0.178985 -0.0835,0.107391 -0.18296,0.230691 -0.0955,0.119324 -0.21081,0.238647 -0.11136,0.115346 -0.21875,0.206827 0.0994,0.234669 0.2108,0.497181 0.11535,0.258534 0.22274,0.501158 0.11137,0.238646 0.2108,0.441496 0.0994,0.198872 0.15512,0.310241 l -0.0557,0.05966 -0.47332,-0.262511 -0.0239,0.405699 -0.16308,-0.07159 -0.14716,0.09944 -0.98641,-1.523361 -0.51309,0.20285 -0.0398,1.221075 -0.13126,-0.01591 -0.27047,-0.425586 -0.2108,0.548887 -0.14717,-0.05966 q -0.008,-0.242625 -0.0278,-0.696053 -0.0199,-0.453429 -0.0358,-0.986406 -0.0159,-0.532978 -0.0159,-1.081865 0,-0.548887 0.0318,-0.998338 l 0.0239,-0.318196 -0.25853,-0.18694 0.42956,-0.389789 z m 1.17334,2.561474 q 0.29433,-0.115346 0.60458,-0.310241 0.31024,-0.194895 0.53695,-0.425586 0.22671,-0.23467 0.33013,-0.485249 0.0477,-0.111368 0.0477,-0.222736 0,-0.131256 -0.0676,-0.258534 -0.0716,-0.131256 -0.30626,-0.167053 -0.19092,-0.03182 -0.39377,-0.03182 -0.0438,0 -0.0915,0 -0.29433,0.01591 -0.64435,0.07557 z"
         style="font-style:normal;font-variant:normal;font-weight:normal;font-stretch:normal;font-family:AngryBirds;-inkscape-font-specification:AngryBirds;stroke-width:0.20364513"
         id="path155" />
      <path
         d="m 120.09063,15.808082 1.05004,-5.027489 0.32615,0.09944 0.29831,-0.262512 0.44945,0.552865 0.25456,-0.49718 0.2824,0.17103 0.26251,-0.151143 0.95061,5.146812 -0.17899,-0.1233 -0.2983,0.17103 -0.2307,-0.294331 -0.21876,0.222737 -0.30228,-1.101752 -1.51541,0.1233 -0.29035,1.109707 -0.0835,0.03182 -0.25853,-0.326151 -0.32615,0.258534 z m 1.33244,-1.897241 1.16539,-0.107391 -0.4057,-1.825647 -0.34206,0.02387 z"
         style="font-style:normal;font-variant:normal;font-weight:normal;font-stretch:normal;font-family:AngryBirds;-inkscape-font-specification:AngryBirds;stroke-width:0.20364513"
         id="path157" />
      <path
         d="m 124.2749,12.677833 q 0.0318,-0.413654 0.2466,-0.755714 0.21876,-0.34206 0.55684,-0.588662 0.33809,-0.250579 0.75174,-0.409676 0.41763,-0.159098 0.85117,-0.206828 0.0835,-0.01193 0.20285,-0.01591 0.0318,0 0.0636,0.004 0.16308,0.004 0.27842,0.01193 l 0.0318,0.103414 -0.529,0.294331 0.42161,0.202849 -0.17898,0.171031 0.1233,0.230691 q -0.29433,0.02386 -0.58071,0.07955 -0.2824,0.05568 -0.50911,0.155121 -0.22274,0.09944 -0.37786,0.242624 -0.15512,0.13921 -0.18694,0.32615 -0.008,0.04773 -0.008,0.09546 0,0.151143 0.10739,0.254556 0.13921,0.139211 0.3341,0.230692 0.0994,0.03977 0.20285,0.07557 0.10739,0.0358 0.21081,0.07159 0.0994,0.03182 0.18694,0.05569 0.0915,0.02386 0.15512,0.03977 0.38979,0.123301 0.60855,0.338083 0.22273,0.214782 0.22273,0.632413 0,0.441497 -0.24262,0.779579 -0.23865,0.338083 -0.75174,0.596617 -0.20285,0.09944 -0.40967,0.167053 -0.20683,0.06762 -0.4057,0.115345 -0.1949,0.05171 -0.36991,0.07557 -0.175,0.02386 -0.32217,0.03977 l 0.13921,-0.258534 -0.37388,-0.107391 0.16308,-0.242624 -0.13921,-0.147165 q 0.13921,-0.03182 0.30626,-0.06762 0.16705,-0.03977 0.33808,-0.0875 0.15512,-0.04773 0.31422,-0.115346 0.1591,-0.07159 0.28638,-0.167053 0.13125,-0.09944 0.21478,-0.218759 0.0875,-0.119324 0.0875,-0.254557 0,-0.17103 -0.16705,-0.282398 -0.16705,-0.111369 -0.3699,-0.175008 -0.21081,-0.07159 -0.42161,-0.119323 -0.20683,-0.05171 -0.31024,-0.09148 -0.36593,-0.147166 -0.57673,-0.397745 -0.17899,-0.214782 -0.17899,-0.564797 0,-0.05568 0.004,-0.115346 z"
         style="font-style:normal;font-variant:normal;font-weight:normal;font-stretch:normal;font-family:AngryBirds;-inkscape-font-specification:AngryBirds;stroke-width:0.20364513"
         id="path159" />
      <path
         d="m 128.137,15.871721 v -5.067264 l 0.17898,-0.06364 0.27047,0.636391 0.34206,-0.612526 0.24262,0.131255 0.2307,-0.08353 -0.13921,5.15079 -0.0994,0.03182 -0.34206,-0.489226 -0.23467,0.429564 -0.2108,-0.07955 z"
         style="font-style:normal;font-variant:normal;font-weight:normal;font-stretch:normal;font-family:AngryBirds;-inkscape-font-specification:AngryBirds;stroke-width:0.20364513"
         id="path161" />
      <path
         d="m 130.26493,10.975487 0.15512,0.02387 0.22671,-0.163075 0.23865,0.401722 0.42161,-0.564797 0.13125,0.04375 -0.13921,4.383144 h 1.34438 l -0.33411,0.282398 0.45741,0.178985 -0.23069,0.278421 0.0835,0.115346 -1.8336,0.135233 -0.0716,-0.445473 -0.43354,0.06364 z"
         style="font-style:normal;font-variant:normal;font-weight:normal;font-stretch:normal;font-family:AngryBirds;-inkscape-font-specification:AngryBirds;stroke-width:0.20364513"
         id="path163" />
      <path
         d="m 7.9982966,23.77264 q 0,-0.357969 0.023865,-0.704007 0.027842,-0.346038 0.099436,-0.660256 0.071594,-0.318195 0.214782,-0.608549 0.1431879,-0.290353 0.3818346,-0.525022 0.178985,-0.178985 0.4534286,-0.266489 0.2784211,-0.09148 0.5727519,-0.107391 0.071594,-0.004 0.143188,-0.008 0.2147825,0 0.4096765,0.03977 0.262512,0.04773 0.4057,0.147166 0.218759,0.147165 0.381834,0.377857 0.163075,0.230692 0.266489,0.51309 0.103413,0.278421 0.151143,0.580707 0.04773,0.302286 0.04773,0.580707 0,0.163075 0.004,0.318196 0,0.05171 0.004,0.103413 0,0.103414 -0.008,0.210805 -0.008,0.163075 -0.01989,0.314218 -0.01193,0.151143 -0.04375,0.306263 -0.05568,0.294331 -0.194895,0.588662 -0.13921,0.290353 -0.473316,0.664233 0.131256,0.147165 0.270467,0.298308 0.143188,0.151143 0.210804,0.214782 l -0.107391,0.115346 -0.34206,-0.147166 -0.03977,0.294331 -0.178985,0.01591 q -0.03978,-0.03977 -0.143188,-0.167053 -0.103414,-0.127278 -0.214782,-0.262511 -0.18694,0.05568 -0.4056997,0.0875 -0.1551203,0.02386 -0.3142181,0.02386 L 9.4381314,26.1074 Q 9.2233494,26.095468 9.0125448,26.027851 8.8057178,25.956257 8.6267328,25.809092 8.4716125,25.685791 8.3522891,25.447144 8.2369433,25.208498 8.1573944,24.926099 8.0818229,24.639723 8.0380711,24.33346 7.9982966,24.023219 7.9982966,23.77264 Z m 0.9625415,-0.226714 q -0.00398,0.07159 -0.00398,0.143188 0,0.143188 0.011932,0.294331 0.01591,0.222737 0.063639,0.429564 0.051707,0.206827 0.1312556,0.389789 0.083526,0.178985 0.2028497,0.282399 0.031819,0.03182 0.1034135,0.03977 0.075571,0.008 0.1590978,0.008 0.091481,0 0.1948947,-0.008 l -0.2028496,-0.461383 0.2108045,0.103413 0.1471654,-0.242624 0.1272783,0.127279 q 0.0875,0.0875 0.198872,0.190917 0.139211,-0.210805 0.20285,-0.385812 0.06364,-0.178985 0.09148,-0.34206 0.02386,-0.163076 0.02784,-0.290354 0.004,-0.131255 0.004,-0.230691 0,-0.147166 -0.008,-0.330128 -0.008,-0.182963 -0.0358,-0.369903 -0.02386,-0.18694 -0.07159,-0.353992 -0.04773,-0.167053 -0.131256,-0.278421 -0.09148,-0.107391 -0.242624,-0.175008 -0.1471655,-0.07159 -0.3142181,-0.07557 -0.00795,0 -0.019887,0 -0.1590978,0 -0.3062632,0.06364 -0.1590978,0.06762 -0.2466016,0.226714 -0.1233007,0.21876 -0.2028496,0.525023 -0.075571,0.306263 -0.091481,0.719917 z"
         style="font-style:normal;font-variant:normal;font-weight:normal;font-stretch:normal;font-family:AngryBirds;-inkscape-font-specification:AngryBirds;stroke-width:0.20364513"
         id="path165" />
      <path
         d="m 12.122906,26.071603 q -0.143188,-0.15512 -0.15512,-0.32615 -0.008,-0.17103 0.0358,-0.449451 0.02386,-0.18694 0.135233,-0.330128 0.115346,-0.147166 0.278421,-0.222737 0.163075,-0.07955 0.346038,-0.07955 0.182962,0 0.346037,0.103413 0.04773,0.03182 0.07557,0.178985 0.03182,0.147166 0.01989,0.330128 -0.01193,0.182963 -0.07159,0.35797 -0.05568,0.175008 -0.163075,0.266489 -0.09944,0.07955 -0.226715,0.139211 -0.1233,0.05568 -0.246601,0.07955 -0.119324,0.02387 -0.222737,0.01193 -0.09944,-0.01193 -0.151143,-0.05966 z m 0.206827,-2.947286 q -0.147165,-0.15512 -0.15512,-0.32615 -0.008,-0.17103 0.03182,-0.449451 0.02387,-0.18694 0.135233,-0.334106 0.115346,-0.147165 0.278422,-0.222737 0.163075,-0.07955 0.346037,-0.07955 0.182963,0 0.346038,0.107391 0.04773,0.03182 0.07557,0.178985 0.03182,0.147166 0.01989,0.330128 -0.01193,0.182963 -0.07159,0.35797 -0.05568,0.175008 -0.159097,0.266489 -0.09944,0.07955 -0.226715,0.139211 -0.1233,0.05568 -0.246601,0.07955 -0.123301,0.02386 -0.226714,0.01193 -0.09944,-0.01193 -0.147166,-0.05966 z"
         style="font-style:normal;font-variant:normal;font-weight:normal;font-stretch:normal;font-family:AngryBirds;-inkscape-font-specification:AngryBirds;stroke-width:0.20364513"
         id="path167" />
      <path
         d="m 15.75829,23.919806 q -0.008,-0.258534 -0.01591,-0.588662 -0.008,-0.330128 0.008,-0.696053 0.01591,-0.350015 0.05171,-0.715939 0.03977,-0.369903 0.127278,-0.711963 0.07955,-0.34206 0.214782,-0.628436 0.135233,-0.290353 0.330128,-0.505135 0.198872,-0.21876 0.461383,-0.350016 0.266489,-0.135233 0.616504,-0.167052 0.413654,-0.03978 0.775602,-0.02387 0.365924,0.01591 0.640368,0.09546 l -0.06364,0.115346 0.103414,0.13921 -0.608549,0.194895 0.66821,0.318196 -0.05966,0.07955 q -0.178985,-0.02386 -0.35797,-0.0358 -0.178985,-0.01193 -0.35797,0.004 -0.242624,0.01591 -0.485249,0.09148 -0.238646,0.07159 -0.465361,0.242624 -0.147165,0.115346 -0.242624,0.270466 -0.09148,0.151143 -0.15512,0.361948 -0.05966,0.206827 -0.0875,0.48127 -0.02784,0.270467 -0.05568,0.612527 0.365925,-0.115346 0.696053,-0.147166 0.330128,-0.03182 0.608549,-0.008 0.278421,0.02386 0.485248,0.09944 0.206827,0.07159 0.322173,0.163075 0.131256,0.09944 0.250579,0.286376 0.123301,0.182962 0.206827,0.421609 0.0875,0.234669 0.123301,0.49718 0.03977,0.258534 -0.004,0.505136 -0.03977,0.278421 -0.103413,0.51309 -0.05966,0.234669 -0.159098,0.437519 -0.09546,0.20285 -0.250579,0.381835 -0.15512,0.175007 -0.381835,0.318195 -0.147165,0.09944 -0.433541,0.147165 -0.282399,0.05171 -0.596617,0.04773 -0.314218,-0.004 -0.604571,-0.07159 -0.286376,-0.06364 -0.449451,-0.194895 -0.115346,-0.09148 -0.242624,-0.258534 -0.123301,-0.167052 -0.23467,-0.413654 -0.111368,-0.246602 -0.190917,-0.572752 -0.07557,-0.32615 -0.08353,-0.735827 z m 1.093797,-0.03182 q -0.02387,0.210805 0,0.421609 0.02387,0.206828 0.08353,0.393767 0.06364,0.18694 0.159098,0.310241 0.107391,0.139211 0.266489,0.194895 0.159097,0.05568 0.322173,0.04375 0.163075,-0.01193 0.298308,-0.07159 0.13921,-0.06364 0.214782,-0.151143 0.09944,-0.131256 0.159098,-0.330128 0.05966,-0.198872 0.07159,-0.417632 0.01193,-0.222737 -0.02387,-0.437519 -0.0358,-0.214782 -0.135233,-0.369902 -0.07159,-0.123301 -0.250579,-0.194895 -0.178985,-0.07557 -0.385812,-0.08353 -0.20285,-0.008 -0.385812,0.06762 -0.182963,0.07159 -0.274444,0.242624 -0.09148,0.17103 -0.119323,0.381834 z"
         style="font-style:normal;font-variant:normal;font-weight:normal;font-stretch:normal;font-family:AngryBirds;-inkscape-font-specification:AngryBirds;stroke-width:0.20364513"
         id="path169" />
      <path
         d="m 21.60911,23.156137 1.411993,-3.372873 0.210805,-0.107391 0.31024,0.246602 0.381835,-0.246602 0.178985,0.17103 0.05568,-0.01591 -1.368241,3.094452 1.539271,3.277414 -0.03977,0.03977 -0.397745,-0.18694 -0.35797,0.38979 -0.214782,-0.01591 z"
         style="font-style:normal;font-variant:normal;font-weight:normal;font-stretch:normal;font-family:AngryBirds;-inkscape-font-specification:AngryBirds;stroke-width:0.20364513"
         id="path171" />
      <path
         d="m 26.457614,22.969197 0.03182,-3.114339 2.820008,-0.127278 0.06364,0.20285 -0.34206,0.318195 0.49718,0.234669 -0.03977,0.08353 -1.841557,0.151142 q -0.01591,0.302286 -0.02386,0.604572 -0.008,0.262511 0.004,0.548887 0.01193,0.282399 0.05171,0.509113 0.250579,-0.02386 0.505135,-0.004 0.254557,0.01989 0.473316,0.06762 0.222737,0.04375 0.393767,0.115346 0.17103,0.06762 0.258534,0.139211 0.13921,0.115345 0.222737,0.322173 0.0875,0.206827 0.111368,0.461383 0.02387,0.250579 -0.008,0.536955 -0.03182,0.286376 -0.127278,0.56082 -0.09148,0.270466 -0.246601,0.517067 -0.155121,0.242624 -0.365925,0.413655 -0.210805,0.17103 -0.485248,0.282398 -0.274444,0.107391 -0.556843,0.178985 -0.278421,0.06762 -0.544909,0.103414 -0.262512,0.0358 -0.457406,0.05171 0.01591,-0.05568 0.05966,-0.131255 0.04375,-0.07955 0.07557,-0.119324 l -0.35797,-0.07557 0.51309,-0.350015 -0.576729,-0.111369 v -0.107391 q 0.13921,-0.02386 0.34206,-0.06762 0.202849,-0.04773 0.413654,-0.107391 0.214782,-0.05966 0.417632,-0.143188 0.202849,-0.0875 0.34206,-0.194895 0.210804,-0.163075 0.330128,-0.353992 0.1233,-0.190918 0.147165,-0.381835 0.02784,-0.190917 -0.05966,-0.353993 -0.08353,-0.163075 -0.286376,-0.270466 -0.07159,-0.03182 -0.246601,-0.03977 -0.17103,-0.008 -0.377857,0 -0.206827,0.008 -0.417632,0.02387 -0.206827,0.01591 -0.346038,0.02386 l 0.07557,-0.449451 z"
         style="font-style:normal;font-variant:normal;font-weight:normal;font-stretch:normal;font-family:AngryBirds;-inkscape-font-specification:AngryBirds;stroke-width:0.20364513"
         id="path173" />
      <path
         d="m 30.260052,26.071603 q -0.143188,-0.15512 -0.155121,-0.32615 -0.008,-0.17103 0.0358,-0.449451 0.02387,-0.18694 0.135233,-0.330128 0.115346,-0.147166 0.278421,-0.222737 0.163076,-0.07955 0.346038,-0.07955 0.182962,0 0.346038,0.103413 0.04773,0.03182 0.07557,0.178985 0.03182,0.147166 0.01989,0.330128 -0.01193,0.182963 -0.07159,0.35797 -0.05568,0.175008 -0.163075,0.266489 -0.09944,0.07955 -0.226714,0.139211 -0.123301,0.05568 -0.246602,0.07955 -0.119323,0.02387 -0.222737,0.01193 -0.09944,-0.01193 -0.151142,-0.05966 z"
         style="font-style:normal;font-variant:normal;font-weight:normal;font-stretch:normal;font-family:AngryBirds;-inkscape-font-specification:AngryBirds;stroke-width:0.20364513"
         id="path175" />
    </g>
    <g
       aria-label="p    q ="
       style="font-style:normal;font-variant:normal;font-weight:normal;font-stretch:normal;font-size:20.68317604px;line-height:1.25;font-family:'URW Gothic L';-inkscape-font-specification:'URW Gothic L';letter-spacing:0px;word-spacing:0px;fill:#000000;fill-opacity:1;stroke:none;stroke-width:0.51707935"
       id="text14-7-1">
      <path
         d="m 44.431915,23.579666 0.12119,-0.504961 q 0.848334,-0.313075 1.939048,-0.545357 1.100814,-0.232282 2.191528,-0.302976 0.282778,-0.0202 0.555456,-0.0101 0.777639,0 1.474485,0.13129 0.939226,0.171686 1.454285,0.666547 0.828135,0.807937 1.121012,1.848155 0.201985,0.706945 0.191885,1.413889 0,0.333274 -0.0404,0.666548 -0.13129,1.050317 -0.636251,2.050139 -0.494861,0.989722 -1.252301,1.716865 -0.25248,0.232282 -0.646349,0.484762 -0.39387,0.242381 -0.878631,0.474663 -0.484762,0.222182 -1.060417,0.424166 -0.565556,0.191885 -1.141211,0.313076 l -0.0202,3.595317 -0.373671,0.13129 -0.414067,-1.161409 -0.828135,1.121012 -0.535258,-0.626151 -0.414068,0.252481 -0.100992,-10.341588 -0.454464,-0.353473 1.242202,-1.282599 z m 3.140853,1.52498 0.111091,4.857719 q 0.51506,-0.181786 0.949326,-0.393869 0.373671,-0.161588 0.717044,-0.333274 0.353472,-0.181786 0.525158,-0.323175 0.434266,-0.393869 0.737243,-0.929127 0.313075,-0.535258 0.403968,-1.090714 0.0303,-0.201984 0.0404,-0.38377 0,-0.343373 -0.111092,-0.656449 -0.161587,-0.494861 -0.696845,-0.828135 -0.25248,-0.151488 -0.666548,-0.161587 -0.0303,0 -0.0505,0.0101 -0.444365,0.0101 -0.878631,0.0505 -0.525158,0.08079 -1.080615,0.181786 z"
         style="font-style:normal;font-variant:normal;font-weight:normal;font-stretch:normal;font-family:AngryBirds;-inkscape-font-specification:AngryBirds;stroke-width:0.51707935"
         id="path98" />
      <path
         d="m 71.154415,30.002761 q 0,-0.908928 0.0606,-1.787559 0.07069,-0.878631 0.25248,-1.676469 0.181786,-0.807936 0.545357,-1.545178 0.363571,-0.737242 0.969524,-1.333096 0.454464,-0.454464 1.151309,-0.676646 0.706945,-0.232282 1.454286,-0.272679 0.181786,-0.0101 0.363572,-0.0202 0.545357,0 1.040218,0.100992 0.666548,0.12119 1.030119,0.37367 0.555457,0.373671 0.969524,0.959425 0.414068,0.585754 0.676647,1.302798 0.262579,0.706944 0.38377,1.474484 0.12119,0.76754 0.12119,1.474484 0,0.414068 0.0101,0.807937 0,0.131289 0.0101,0.262579 0,0.262579 -0.0202,0.535258 -0.0202,0.414068 -0.0505,0.797837 -0.0303,0.38377 -0.111091,0.777639 -0.141389,0.747342 -0.494861,1.494683 -0.353472,0.737242 -1.201806,1.686568 0.333274,0.37367 0.686746,0.75744 0.363572,0.38377 0.535258,0.545357 l -0.272678,0.292877 -0.868532,-0.37367 -0.100992,0.747341 -0.454465,0.0404 Q 77.739098,36.64804 77.476519,36.324865 77.21394,36.00169 76.931162,35.658317 q -0.474663,0.141389 -1.030119,0.222183 -0.393869,0.06059 -0.797838,0.06059 l -0.292877,-0.0101 Q 74.264971,35.900698 73.729713,35.729012 73.204554,35.547226 72.75009,35.173555 72.356221,34.86048 72.053245,34.254528 71.760368,33.648575 71.558384,32.931532 71.366499,32.204389 71.255407,31.42675 71.154415,30.639012 71.154415,30.002761 Z m 2.444008,-0.575654 q -0.0101,0.181785 -0.0101,0.363571 0,0.363572 0.0303,0.747341 0.0404,0.565556 0.161587,1.090715 0.13129,0.525159 0.333274,0.989722 0.212083,0.454464 0.51506,0.717044 0.08079,0.08079 0.262579,0.100992 0.191885,0.0202 0.403968,0.0202 0.232282,0 0.494861,-0.0202 l -0.515059,-1.171508 0.535258,0.262579 0.37367,-0.616051 0.323175,0.323174 q 0.222183,0.222183 0.50496,0.484762 0.353473,-0.535258 0.51506,-0.979623 0.161587,-0.454464 0.232282,-0.868532 0.06059,-0.414067 0.07069,-0.737242 0.0101,-0.333274 0.0101,-0.585754 0,-0.373671 -0.0202,-0.838234 -0.0202,-0.464564 -0.09089,-0.939226 -0.0606,-0.474663 -0.181786,-0.89883 -0.12119,-0.424166 -0.333273,-0.706944 -0.232282,-0.272679 -0.616052,-0.444365 -0.373671,-0.181786 -0.797837,-0.191885 -0.0202,0 -0.0505,0 -0.403969,0 -0.777639,0.161587 -0.403969,0.171687 -0.626151,0.575655 -0.313076,0.555456 -0.51506,1.333095 -0.191885,0.777639 -0.232282,1.827957 z"
         style="font-style:normal;font-variant:normal;font-weight:normal;font-stretch:normal;font-family:AngryBirds;-inkscape-font-specification:AngryBirds;stroke-width:0.51707935"
         id="path100" />
      <path
         d="m 85.727572,31.719627 0.868531,-0.575655 -0.535258,-1.030119 5.029406,-0.333274 0.313075,0.616052 -0.807937,0.605952 0.26258,1.030119 -4.938512,0.666548 0.100992,-0.565556 z m 0.07069,-5.079901 0.323175,-0.525159 -0.0606,-0.969524 4.989009,-0.181786 0.0202,0.373671 -0.626151,0.868532 0.626151,0.75744 -0.131289,0.333274 -4.776925,0.535258 0.25248,-0.575655 z"
         style="font-style:normal;font-variant:normal;font-weight:normal;font-stretch:normal;font-family:AngryBirds;-inkscape-font-specification:AngryBirds;stroke-width:0.51707935"
         id="path102" />
    </g>
    <g
       id="g734"
       transform="translate(14.068329,-99.388807)">
      <path
         style="opacity:1;fill:#ffffff;fill-opacity:1;stroke:#ffffff;stroke-width:0.10485733;stroke-linecap:round;stroke-linejoin:round;stroke-miterlimit:4;stroke-dasharray:none;stroke-dashoffset:0;stroke-opacity:1"
         d="m 43.57272,120.11445 h 9.858732 v 17.51068 H 43.57272 Z"
         id="rect847-0" />
      <g
         aria-label="?"
         style="font-style:normal;font-variant:normal;font-weight:normal;font-stretch:normal;font-size:20.05946541px;line-height:1.25;font-family:'URW Gothic L';-inkscape-font-specification:'URW Gothic L';letter-spacing:0px;word-spacing:0px;fill:#00ff00;fill-opacity:1;stroke:#000000;stroke-width:0.1442789;stroke-miterlimit:4;stroke-dasharray:none"
         id="text40-9">
        <path
           d="m 44.326724,122.04293 0.479938,-0.42117 q -0.03918,-0.0588 -0.09795,-0.13712 -0.03918,-0.0588 -0.117536,-0.12733 -0.06856,-0.0784 -0.107742,-0.15672 1.165565,-0.34281 2.321335,-0.44076 1.15577,-0.0979 2.380103,0.0588 0.979466,0.11753 1.743449,0.62686 0.763984,0.49952 1.243922,1.22433 0.479938,0.71501 0.656242,1.57694 0.186099,0.86193 -0.01959,1.72386 -0.156715,0.64645 -0.58768,1.15577 -0.430965,0.50932 -1.067618,0.94029 -0.626858,0.43096 -1.420225,0.79337 -0.793368,0.3624 -1.674887,0.68562 -0.117536,0.34281 -0.205688,0.66604 -0.07836,0.31343 -0.137126,0.61706 -0.05877,0.28405 -0.07836,0.52891 -0.01959,0.23508 -0.05877,0.39179 l -0.303634,0.26446 -0.842341,-0.76399 -0.323224,1.01865 -0.254661,-0.0392 q -0.03918,-0.24487 -0.107741,-0.64645 -0.05877,-0.41137 -0.117536,-0.88152 -0.05877,-0.47994 -0.107742,-0.97946 -0.04897,-0.49953 -0.04897,-0.94029 0.362403,-0.19589 0.86193,-0.44076 0.499528,-0.24487 1.018645,-0.51912 0.705216,-0.40158 1.243922,-0.86193 0.538706,-0.46035 0.685626,-0.93049 0.176304,-0.57789 0.05877,-1.06762 -0.117536,-0.48973 -0.42117,-0.85213 -0.303635,-0.36241 -0.754189,-0.58768 -0.450555,-0.23508 -0.930493,-0.27426 -0.577885,-0.0392 -1.283101,-0.0392 -0.705215,0 -1.469199,0.13712 l 0.783573,-0.82275 z m 0.822751,14.92706 q -0.205688,-0.14692 -0.284045,-0.3526 -0.07836,-0.21549 0,-0.46035 0.07836,-0.25466 0.323224,-0.51912 0.244866,-0.27425 0.685626,-0.53871 0.137125,-0.0784 0.411376,-0.12733 0.284045,-0.049 0.597474,-0.0686 0.313429,-0.0196 0.568091,0 0.264455,0.0196 0.342813,0.0784 0.09795,0.0588 0.195893,0.26445 0.107741,0.1959 0.117536,0.45056 0.0098,0.24487 -0.117536,0.51912 -0.117536,0.26445 -0.470144,0.50932 -0.225277,0.15671 -0.597474,0.22528 -0.372197,0.0784 -0.7346,0.10774 -0.352607,0.0294 -0.656242,0 -0.303634,-0.0294 -0.381992,-0.0882 z"
           style="font-style:normal;font-variant:normal;font-weight:normal;font-stretch:normal;font-family:AngryBirds;-inkscape-font-specification:AngryBirds;fill:#00ff00;stroke:#000000;stroke-width:0.1442789;stroke-miterlimit:4;stroke-dasharray:none"
           id="path95" />
      </g>
    </g>
    <g
       transform="matrix(0.74416102,0,0,0.74416102,96.577509,22.35031)"
       id="ID0.4852326139807701">
      <g
         id="ID0.5663091018795967">
        <g
           id="ID0.3804601556621492">
          <path
             style="fill:#003fff"
             inkscape:connector-curvature="0"
             id="ID0.027033838909119368"
             d="m 70.109,20.47 c -0.05,0.65 -0.08,1.2 -0.1,1.66 0.19,0.78 0.32,1.66 0.32,2.64 0,0.22 0.02,0.52 0.04,0.91 0.12,1.62 -0.13,3.25 -0.73,4.77 -0.48,1.23 -1.14,2.39 -2.09,3.67 -0.82,1.11 -1.84,2.06 -3.01,2.79 -2.52,1.57 -5.44,2.37 -8.69,2.37 -0.57,0 -1.14,-0.03 -1.69,-0.09 -0.08,1.01 -0.28,1.98 -0.58,2.9 -0.15,0.44 -0.32,0.88 -0.52,1.3 0.04,0.66 0.11,1.52 0.21,2.62 0.96,7.29 -3.09,11.05 -4.91,12.35 -0.38,0.26 -0.76,0.52 -1.16,0.75 1.48,2.57 1.83,4.95 1.83,6.6 0,4.6 -2.46,8.69 -6.74,11.21 -0.24,0.14 -0.49,0.27 -0.74,0.4 -0.47,0.23 -0.97,0.49 -1.49,0.76 -1.6,0.86 -3.38,1.31 -5.2,1.31 h -6.63 c -0.29,0.05 -1.31,0.25 -3.48,0.99 -4.45,1.53 -7.48,2.18 -10.12,2.18 -2.11,0 -4.13,-0.38 -6.02,-1.14 -0.54,-0.21 -1.06,-0.47 -1.56,-0.77 -0.81,-0.49 -1.62,-1.07 -2.47,-1.79 -2.59,-2.19 -4.2,-5.34 -4.51,-8.87 -0.25,-2.69 0.18,-5.18 1.28,-7.38 0.05,-0.1 0.1,-0.2 0.15,-0.29 1.98,-3.69 5.14,-6.3 9.01,-7.54 0.02,-0.57 0.04,-1.17 0.07,-1.81 V 52.9 c -4.16,-2.25 -6.78,-6.66 -6.78,-12.02 0,-4.22 1.82,-7.97 5.01,-10.41 -2.18,-1.12 -4.05,-2.81 -5.43,-4.94 -1.45,-2.1 -2.21,-4.53 -2.21,-7.1 0,-5.32 3.21,-9.93 8.61,-12.37 2.54,-1.19 5.05,-1.82 7.47,-1.88 0.53,-0.03 1.63,-0.13 3.61,-0.46 2.73,-0.48 4.49,-0.78 5.28,-0.91 0.09,-0.01 0.17,-0.02 0.26,-0.03 2.83,-0.37 6.92,-0.82 12.49,-1.36 0.24,-0.03 0.47,-0.04 0.71,-0.05 3.18,-0.11 7.7,-0.46 13.45,-1.05 1.27,-0.22 2.44,-0.32 3.56,-0.32 2.02,0 3.9,0.36 5.6,1.06 0.04,0.02 0.08,0.03 0.13,0.05 4.28,1.84 7.22,5.71 7.92,10.39 0.21,1.25 0.21,2.55 0.14,4.48 -0.01,0.6 -0.06,1.63 -0.29,4.49 z"
             transform="matrix(0.2200142,0,0,0.2200142,0,0.5)" />
        </g>
      </g>
      <g
         id="ID0.3863844624720514">
        <path
           style="fill:#ffffff"
           inkscape:connector-curvature="0"
           id="ID0.5626670885831118"
           d="m 59.399,26.437 c -0.115,0.294 -0.346,0.675 -0.692,1.144 -0.751,0.47 -1.704,0.703 -2.858,0.703 -1.213,0 -1.892,-0.469 -2.037,-1.407 -0.146,-0.938 -0.159,-2.287 -0.041,-4.046 0.233,-2.345 0.352,-3.752 0.352,-4.223 0,-1.113 -0.178,-1.964 -0.529,-2.551 -2.412,0.176 -6.235,0.44 -11.471,0.792 -7.177,0.352 -12.616,1.056 -16.322,2.111 -0.059,0.646 -0.206,1.231 -0.44,1.759 0,0.411 0,0.968 0,1.671 0,1.115 0,2.317 0,3.606 0,3.343 0.469,6.892 1.407,10.644 2.169,0.118 5.277,-0.058 9.323,-0.527 0,-0.938 -0.059,-2.257 -0.176,-3.959 -0.176,-1.992 -0.278,-3.342 -0.308,-4.046 -0.03,-0.703 -0.103,-1.377 -0.22,-2.023 -0.06,-0.82 0.028,-1.495 0.264,-2.022 0.233,-0.528 0.908,-0.82 2.023,-0.88 1.056,-0.117 1.816,0 2.287,0.352 0.469,0.353 0.732,0.896 0.791,1.628 0.058,0.733 0.117,1.422 0.176,2.066 0.177,1.994 0.293,4.692 0.353,8.093 1.289,0.352 1.935,1.231 1.935,2.639 0,0.294 -0.03,0.528 -0.088,0.704 -0.294,0.294 -0.675,0.791 -1.144,1.495 -0.059,0.118 -0.059,0.587 0,1.407 0,1.231 0.117,3.138 0.353,5.718 0.176,1.114 0.058,1.818 -0.353,2.11 -0.997,0.704 -2.082,1.056 -3.254,1.056 -1.174,0 -1.848,-0.469 -2.023,-1.407 V 43.15 c -0.061,-0.469 -0.148,-1.144 -0.267,-2.022 -0.415,-0.234 -1.36,-0.293 -2.84,-0.176 -1.064,0.176 -2.159,0.322 -3.283,0.439 -0.829,-0.058 -2.012,0.176 -3.549,0.703 -0.061,-0.352 -0.089,1.379 -0.089,5.19 v 7.213 c 0,-0.059 -0.044,0.807 -0.132,2.595 -0.088,1.789 -0.132,3.152 -0.132,4.09 0,1.583 0,2.346 0,2.287 0.058,0.059 0.146,0.146 0.262,0.264 1.396,0 3.549,-0.117 6.46,-0.352 0.115,0 0.61,-0.088 1.484,-0.264 0.581,-0.177 1.047,-0.205 1.396,-0.088 0.465,0.173 0.915,0.548 1.353,1.125 0.437,0.578 0.655,1.096 0.655,1.558 0,0.635 -0.439,1.212 -1.319,1.73 -0.587,0.288 -1.202,0.605 -1.848,0.952 -0.41,0 -0.997,0 -1.759,0 h -5.102 c -1.467,0 -3.738,0.528 -6.817,1.583 -3.078,1.056 -5.264,1.584 -6.553,1.584 -0.704,0 -1.35,-0.118 -1.936,-0.353 -0.294,-0.176 -0.631,-0.426 -1.011,-0.747 -0.383,-0.323 -0.603,-0.807 -0.66,-1.451 -0.059,-0.645 0,-1.144 0.176,-1.496 0.88,-1.641 2.375,-2.491 4.486,-2.551 3.4,-0.176 5.131,-0.277 5.189,-0.308 0.058,-0.028 0.205,-0.189 0.439,-0.484 -0.059,-1.055 0.029,-4.719 0.265,-10.995 v -9.675 c -2.874,0 -4.457,0 -4.75,0 -1.35,-0.116 -2.023,-0.988 -2.023,-2.618 0,-0.815 0.26,-1.398 0.781,-1.747 0.346,-0.232 0.895,-0.553 1.646,-0.96 0.808,-0.115 1.992,-0.378 3.554,-0.786 -0.206,-1.512 -0.411,-3.723 -0.616,-6.634 0,-0.581 0.103,-1.818 0.309,-3.709 0.204,-1.892 0.308,-3.274 0.308,-4.148 0,-1.221 -0.176,-2.035 -0.527,-2.443 -0.471,0 -1.247,0.103 -2.331,0.308 -1.086,0.206 -1.892,0.308 -2.419,0.308 -1.35,0 -2.347,-0.557 -2.991,-1.671 -0.234,-0.293 -0.352,-0.616 -0.352,-0.968 0,-0.938 0.732,-1.729 2.199,-2.375 1.231,-0.585 2.315,-0.879 3.254,-0.879 1.29,-0.059 2.991,-0.265 5.103,-0.616 2.639,-0.469 4.339,-0.762 5.102,-0.88 2.696,-0.352 6.742,-0.791 12.139,-1.319 3.518,-0.116 8.385,-0.497 14.601,-1.144 1.584,-0.292 2.727,-0.292 3.431,0 0.82,0.353 1.289,1.027 1.407,2.023 0.058,0.235 0.058,1.056 0,2.463 0,0.47 -0.088,1.789 -0.264,3.958 -0.118,1.76 -0.176,3.167 -0.176,4.223 0,0.118 0.061,0.278 0.183,0.483 0.122,0.206 0.185,0.338 0.185,0.396 -0.001,0.411 0.023,0.967 0.071,1.671 z"
           transform="matrix(0.2200142,0,0,0.2200142,0,0.5)" />
      </g>
    </g>
  </g>
</svg>
