<?xml version="1.0" encoding="UTF-8" standalone="no"?>
<!-- Created with Inkscape (http://www.inkscape.org/) -->

<svg
   xmlns:dc="http://purl.org/dc/elements/1.1/"
   xmlns:cc="http://creativecommons.org/ns#"
   xmlns:rdf="http://www.w3.org/1999/02/22-rdf-syntax-ns#"
   xmlns:svg="http://www.w3.org/2000/svg"
   xmlns="http://www.w3.org/2000/svg"
   xmlns:sodipodi="http://sodipodi.sourceforge.net/DTD/sodipodi-0.dtd"
   xmlns:inkscape="http://www.inkscape.org/namespaces/inkscape"
   width="210mm"
   height="297mm"
   viewBox="0 0 210 297"
   version="1.1"
   id="svg798"
   inkscape:version="0.92.1 r15371"
   sodipodi:docname="06.svg">
  <defs
     id="defs792" />
  <sodipodi:namedview
     id="base"
     pagecolor="#ffffff"
     bordercolor="#666666"
     borderopacity="1.0"
     inkscape:pageopacity="0.0"
     inkscape:pageshadow="2"
     inkscape:zoom="0.35"
     inkscape:cx="400"
     inkscape:cy="560"
     inkscape:document-units="mm"
     inkscape:current-layer="layer1"
     showgrid="false"
     inkscape:window-width="1269"
     inkscape:window-height="704"
     inkscape:window-x="0"
     inkscape:window-y="27"
     inkscape:window-maximized="1" />
  <metadata
     id="metadata795">
    <rdf:RDF>
      <cc:Work
         rdf:about="">
        <dc:format>image/svg+xml</dc:format>
        <dc:type
           rdf:resource="http://purl.org/dc/dcmitype/StillImage" />
        <dc:title></dc:title>
      </cc:Work>
    </rdf:RDF>
  </metadata>
  <g
     inkscape:label="Camada 1"
     inkscape:groupmode="layer"
     id="layer1">
    <path
       style="opacity:1;fill:#e6e6e6;fill-opacity:1;stroke:#cccccc;stroke-width:0.38885048;stroke-linecap:round;stroke-linejoin:round;stroke-miterlimit:4;stroke-dasharray:none;stroke-dashoffset:0;stroke-opacity:1"
       d="M 8.4401741,9.8137112 H 135.19078 V 50.483908 H 8.4401741 Z"
       id="rect10-6" />
    <g
       id="g765"
       transform="translate(-0.63493905,-90.225)">
      <g
         aria-label="Sendo A = FALSO, então:"
         style="font-style:normal;font-variant:normal;font-weight:normal;font-stretch:normal;font-size:12.41239166px;line-height:1.25;font-family:'URW Gothic L';-inkscape-font-specification:'URW Gothic L';letter-spacing:0px;word-spacing:0px;fill:#000000;fill-opacity:1;stroke:none;stroke-width:0.31030977"
         id="text14-2">
        <path
           d="m 13.898175,107.75486 q -0.0303,-0.18183 -0.0303,-0.36971 0,-0.23637 0.05455,-0.48486 0.09091,-0.44849 0.32728,-0.92729 0.224247,-0.46062 0.715167,-0.86669 0.49698,-0.41213 1.127297,-0.72729 0.636378,-0.32121 1.339423,-0.52728 0.703046,-0.21213 1.345484,-0.29092 l -0.1697,0.41213 0.509102,0.16364 -0.781836,0.63032 1.042447,0.26061 -0.09091,0.41213 q -0.436373,0.0727 -0.963657,0.21213 -0.521224,0.13334 -0.9879,0.33334 -0.466677,0.2 -0.812139,0.4788 -0.339402,0.27879 -0.400009,0.63638 -0.01212,0.0788 -0.01212,0.15757 0,0.29698 0.200005,0.52123 0.24849,0.27879 0.624256,0.4788 0.381826,0.19394 0.787896,0.34546 0.41213,0.15152 0.66062,0.27273 0.284855,0.15152 0.533345,0.35759 0.24849,0.2 0.400009,0.49092 0.157579,0.29091 0.200004,0.6788 0.01212,0.10909 0.01212,0.22425 0,0.30303 -0.07879,0.6788 -0.151518,0.64244 -0.630317,1.14548 -0.472737,0.49698 -1.169722,0.8182 -0.672742,0.30909 -1.442456,0.43031 -0.769713,0.12727 -1.484881,0.15152 l -0.115154,-0.12122 0.672742,-0.58183 -0.733349,-0.2 0.24849,-0.21213 q -0.02424,-0.0727 -0.06061,-0.13939 -0.02424,-0.0606 -0.06667,-0.12728 -0.03636,-0.0667 -0.07273,-0.15758 0.424252,-0.0485 0.9879,-0.15152 0.563649,-0.10909 1.024265,-0.27879 0.187883,-0.0727 0.418191,-0.21819 0.236369,-0.14546 0.363644,-0.35152 0.08485,-0.1394 0.08485,-0.3091 0,-0.0727 -0.01818,-0.15152 -0.05455,-0.26061 -0.424251,-0.57577 -0.248491,-0.21212 -0.496981,-0.35152 -0.24849,-0.1394 -0.49698,-0.26667 -0.248491,-0.12122 -0.503042,-0.24243 -0.254551,-0.12728 -0.527284,-0.2788 -0.49698,-0.27273 -0.769714,-0.62425 -0.266672,-0.35153 -0.339401,-0.75759 z"
           style="font-style:normal;font-variant:normal;font-weight:normal;font-stretch:normal;font-family:AngryBirds;-inkscape-font-specification:AngryBirds;stroke-width:0.31030977"
           id="path857" />
        <path
           d="m 20.122553,106.43361 0.169701,-0.4 -0.08485,-0.16364 3.551592,-0.23637 0.109093,0.48486 -0.769713,0.53334 0.733349,0.22425 -0.09697,0.27273 -1.812161,0.16364 -0.04243,1.90913 1.812161,-0.0606 -0.206065,0.6485 0.357583,0.14545 -0.06061,0.33334 -1.878829,0.18789 0.07879,2.02428 1.872768,-0.0727 -0.121215,0.64244 0.333341,0.15152 -0.139397,0.47274 -2.927337,0.1697 0.04849,-0.63032 -0.757592,0.0485 0.07879,-5.80619 -0.151518,-0.24849 0.533345,-0.46061 z"
           style="font-style:normal;font-variant:normal;font-weight:normal;font-stretch:normal;font-family:AngryBirds;-inkscape-font-specification:AngryBirds;stroke-width:0.31030977"
           id="path859" />
        <path
           d="m 24.886294,105.93663 0.545466,-0.28485 0.436374,0.45455 0.545466,-0.18182 2.533389,4.6001 h 0.24849 l -0.07273,-4.56373 0.321219,-0.18789 0.557588,0.76972 0.521223,-0.78184 0.224248,0.0364 -0.01212,7.96987 -0.139397,0.0849 -0.442434,-0.46062 -0.624256,0.43637 -0.24849,-0.0485 -2.503085,-3.94554 -0.315158,-0.0364 -0.09697,4.00615 -0.357583,-0.0485 -0.48486,-0.66062 -0.363644,0.73334 -0.212126,-0.10909 z"
           style="font-style:normal;font-variant:normal;font-weight:normal;font-stretch:normal;font-family:AngryBirds;-inkscape-font-specification:AngryBirds;stroke-width:0.31030977"
           id="path861" />
        <path
           d="m 31.686442,106.54271 0.296976,-0.32122 q -0.01212,-0.0242 -0.04243,-0.12122 -0.02424,-0.10303 -0.08485,-0.24243 0.345462,-0.097 0.842442,-0.18182 0.496981,-0.0909 1.048508,-0.10303 0.06667,0 0.133336,0 0.478799,0 0.969719,0.0788 0.557587,0.0849 1.030325,0.34546 0.521223,0.28486 0.848503,0.78184 0.32728,0.49698 0.49092,1.09699 0.157579,0.58183 0.157579,1.22427 0,0.69092 -0.16364,1.34548 -0.157579,0.62426 -0.454555,1.16366 -0.296976,0.53335 -0.721228,0.86669 -0.721228,0.58183 -1.569731,0.92123 -0.848503,0.33334 -1.703067,0.41819 l -0.09091,-0.72122 -0.769714,0.10303 0.05455,-5.75164 -0.151518,-0.097 0.375766,-0.38183 z m 1.672764,0.85456 q 0,1.05457 0.01212,2.00005 0,0.4 0.01212,0.81213 0.01212,0.40607 0.02424,0.78184 0.01212,0.3697 0.0303,0.66668 0.01818,0.29698 0.04848,0.48486 0.412131,-0.12121 0.769714,-0.30304 0.357584,-0.18182 0.65456,-0.44243 0.296976,-0.26061 0.509102,-0.60607 0.212126,-0.35153 0.309098,-0.81214 0.08485,-0.4485 0.109093,-0.85457 0.0061,-0.0667 0,-0.13333 0,-0.33334 -0.07879,-0.62426 -0.09091,-0.34546 -0.32728,-0.61213 -0.236368,-0.26668 -0.642438,-0.4182 -0.157579,-0.0545 -0.375766,-0.0545 -0.02424,0 -0.04242,0 -0.242429,0.006 -0.466677,0.0303 -0.260611,0.0364 -0.545466,0.0849 z"
           style="font-style:normal;font-variant:normal;font-weight:normal;font-stretch:normal;font-family:AngryBirds;-inkscape-font-specification:AngryBirds;stroke-width:0.31030977"
           id="path863" />
        <path
           d="m 38.189614,110.75492 q -0.02424,-0.33334 -0.0303,-0.66668 0,-0.36971 0.03637,-0.73941 0.121214,-1.26669 0.351522,-1.98792 0.230308,-0.72123 0.678803,-1.10306 0.16364,-0.13939 0.41213,-0.27879 0.254551,-0.14546 0.563649,-0.24849 0.315158,-0.10909 0.672742,-0.15152 0.169701,-0.0182 0.339401,-0.0182 l 0.381827,0.0242 -0.02424,0.72123 0.606074,-0.36971 0.260611,0.38183 0.41213,-0.16364 q 0.460617,0.47274 0.703046,1.35761 0.24849,0.8788 0.24849,2.15762 0,0.42425 -0.04849,0.92729 -0.04848,0.50304 -0.175761,0.9879 -0.121215,0.4788 -0.32728,0.88487 -0.206065,0.40001 -0.515163,0.62426 -0.436373,0.30909 -0.878807,0.47273 -0.436373,0.16364 -0.854564,0.20607 -0.193943,0.0182 -0.387887,0.0182 -0.212126,0 -0.406069,-0.0242 -0.369705,-0.0485 -0.672742,-0.16364 -0.381827,-0.1394 -0.666681,-0.55759 -0.278794,-0.42425 -0.454556,-1.00608 -0.1697,-0.58183 -0.224247,-1.28488 z m 1.47882,-1.13336 q -0.01818,0.23637 -0.01212,0.46668 0,0.43637 0.06061,0.86062 0.09091,0.64244 0.339401,1.03033 0.121215,0.2 0.357584,0.30304 0.236369,0.097 0.503041,0.097 0.266672,0 0.509102,-0.0909 0.24243,-0.097 0.369705,-0.29698 0.121215,-0.2 0.236369,-0.57577 0.121215,-0.38183 0.187883,-0.83638 0.07273,-0.46062 0.08485,-0.9576 0,-0.0667 0,-0.13333 0,-0.42426 -0.07273,-0.8182 -0.07879,-0.45456 -0.266672,-0.81214 -0.181822,-0.35759 -0.496981,-0.54547 -0.200004,-0.12121 -0.466677,-0.12121 -0.01212,0 -0.0303,0 -0.284855,0.006 -0.49092,0.19394 -0.357584,0.32122 -0.563649,0.93941 -0.200004,0.61214 -0.24849,1.297 z"
           style="font-style:normal;font-variant:normal;font-weight:normal;font-stretch:normal;font-family:AngryBirds;-inkscape-font-specification:AngryBirds;stroke-width:0.31030977"
           id="path865" />
        <path
           d="m 46.717071,113.68226 1.96368,-9.72143 0.24849,-0.13939 0.484859,0.55152 0.806078,-0.69698 0.8182,1.00608 0.521223,-0.89699 h 0.07273 l 2.115198,9.68506 -0.224248,0.097 -0.636377,-0.84244 -0.224247,0.72123 -0.454556,-0.28486 -0.24849,0.24849 -0.472738,-1.45457 -2.890972,0.0242 -0.363644,1.64852 -0.321219,-0.18182 -0.212126,0.19394 -0.236369,-0.70304 -0.593952,0.84244 z m 2.236413,-3.19401 2.393991,-0.15758 -0.939414,-3.97585 -0.496981,-0.0849 z"
           style="font-style:normal;font-variant:normal;font-weight:normal;font-stretch:normal;font-family:AngryBirds;-inkscape-font-specification:AngryBirds;stroke-width:0.31030977"
           id="path867" />
        <path
           d="m 56.911234,111.05796 0.521223,-0.34546 -0.321219,-0.6182 3.018248,-0.2 0.187882,0.3697 -0.484859,0.36365 0.15758,0.61819 -2.963701,0.40001 0.06061,-0.3394 z m 0.04243,-3.04855 0.193943,-0.31516 -0.03636,-0.58183 2.994005,-0.1091 0.01212,0.22425 -0.375766,0.52122 0.375766,0.45456 -0.07879,0.2 -2.86673,0.32122 0.151519,-0.34546 z"
           style="font-style:normal;font-variant:normal;font-weight:normal;font-stretch:normal;font-family:AngryBirds;-inkscape-font-specification:AngryBirds;stroke-width:0.31030977"
           id="path869" />
        <path
           d="m 63.202282,104.38509 0.07879,-0.18789 4.812227,-0.33334 -0.133337,0.3091 0.309098,0.41819 -0.878807,0.38789 0.781835,0.24849 -0.02424,0.13333 -2.472781,0.29092 v 2.72733 l 1.751553,-0.0849 -0.151518,0.33334 0.351523,0.3091 -0.248491,0.5091 0.133337,0.18788 -1.848525,0.28486 0.121214,3.78796 -0.272733,0.097 -0.442434,-1.00608 -0.296976,0.99396 -0.375766,-0.27273 -0.321219,0.15152 -0.127275,-7.8729 h -0.333341 l 0.127276,-0.46062 -0.187883,-0.10909 0.709106,-0.43638 z"
           style="font-style:normal;font-variant:normal;font-weight:normal;font-stretch:normal;font-family:AngryBirds;-inkscape-font-specification:AngryBirds;stroke-width:0.31030977"
           id="path871" />
        <path
           d="m 67.905414,113.68226 1.96368,-9.72143 0.24849,-0.13939 0.484859,0.55152 0.806078,-0.69698 0.8182,1.00608 0.521223,-0.89699 h 0.07273 l 2.115198,9.68506 -0.224248,0.097 -0.636377,-0.84244 -0.224247,0.72123 -0.454556,-0.28486 -0.24849,0.24849 -0.472738,-1.45457 -2.890972,0.0242 -0.363644,1.64852 -0.321219,-0.18182 -0.212126,0.19394 -0.236369,-0.70304 -0.593952,0.84244 z m 2.236413,-3.19401 2.393991,-0.15758 -0.939414,-3.97585 -0.496981,-0.0849 z"
           style="font-style:normal;font-variant:normal;font-weight:normal;font-stretch:normal;font-family:AngryBirds;-inkscape-font-specification:AngryBirds;stroke-width:0.31030977"
           id="path873" />
        <path
           d="m 75.378304,112.72466 0.06667,-8.60019 0.442434,0.20607 0.375766,-0.52123 0.545467,0.86063 0.381826,-0.69699 0.127276,0.0485 -0.139397,8.01836 2.297019,-0.0606 0.07879,0.27273 -1.096994,0.4485 1.018204,0.3697 -0.381826,0.49698 0.309097,0.22425 -3.115219,0.12122 0.08485,-0.53335 -0.545466,-0.0242 0.07273,-0.63032 z"
           style="font-style:normal;font-variant:normal;font-weight:normal;font-stretch:normal;font-family:AngryBirds;-inkscape-font-specification:AngryBirds;stroke-width:0.31030977"
           id="path875" />
        <path
           d="m 80.251134,107.75486 q -0.0303,-0.18183 -0.0303,-0.36971 0,-0.23637 0.05455,-0.48486 0.09091,-0.44849 0.32728,-0.92729 0.224247,-0.46062 0.715167,-0.86669 0.49698,-0.41213 1.127297,-0.72729 0.636377,-0.32121 1.339423,-0.52728 0.703046,-0.21213 1.345484,-0.29092 l -0.169701,0.41213 0.509102,0.16364 -0.781835,0.63032 1.042447,0.26061 -0.09091,0.41213 q -0.436373,0.0727 -0.963657,0.21213 -0.521224,0.13334 -0.987901,0.33334 -0.466677,0.2 -0.812139,0.4788 -0.339401,0.27879 -0.400008,0.63638 -0.01212,0.0788 -0.01212,0.15757 0,0.29698 0.200005,0.52123 0.24849,0.27879 0.624256,0.4788 0.381826,0.19394 0.787895,0.34546 0.412131,0.15152 0.660621,0.27273 0.284855,0.15152 0.533345,0.35759 0.24849,0.2 0.400009,0.49092 0.157579,0.29091 0.200004,0.6788 0.01212,0.10909 0.01212,0.22425 0,0.30303 -0.07879,0.6788 -0.151519,0.64244 -0.630317,1.14548 -0.472737,0.49698 -1.169722,0.8182 -0.672742,0.30909 -1.442456,0.43031 -0.769714,0.12727 -1.484881,0.15152 l -0.115154,-0.12122 0.672742,-0.58183 -0.733349,-0.2 0.24849,-0.21213 q -0.02424,-0.0727 -0.06061,-0.13939 -0.02424,-0.0606 -0.06667,-0.12728 -0.03636,-0.0667 -0.07273,-0.15758 0.424251,-0.0485 0.9879,-0.15152 0.563649,-0.10909 1.024265,-0.27879 0.187883,-0.0727 0.418191,-0.21819 0.236368,-0.14546 0.363644,-0.35152 0.08485,-0.1394 0.08485,-0.3091 0,-0.0727 -0.01818,-0.15152 -0.05455,-0.26061 -0.424252,-0.57577 -0.24849,-0.21212 -0.49698,-0.35152 -0.24849,-0.1394 -0.496981,-0.26667 -0.24849,-0.12122 -0.503041,-0.24243 -0.254551,-0.12728 -0.527284,-0.2788 -0.496981,-0.27273 -0.769714,-0.62425 -0.266672,-0.35153 -0.339401,-0.75759 z"
           style="font-style:normal;font-variant:normal;font-weight:normal;font-stretch:normal;font-family:AngryBirds;-inkscape-font-specification:AngryBirds;stroke-width:0.31030977"
           id="path877" />
        <path
           d="m 86.420966,108.73669 q 0.01212,-0.58183 0.06061,-1.07881 0.05455,-0.49698 0.127276,-0.79395 0.175761,-0.79396 0.466676,-1.33943 0.290916,-0.54546 0.672742,-0.89699 0.387888,-0.35758 0.866686,-0.52728 0.478798,-0.17576 1.024265,-0.23637 0.07273,-0.006 0.1697,-0.0121 0.04849,0 0.103033,0.006 0.16364,0.006 0.296976,0.0182 l 0.139397,0.87881 0.73941,-0.29698 0.187883,0.85457 0.781835,-0.20001 q 0.24849,0.32122 0.41213,0.66668 0.169701,0.33941 0.224248,0.77578 0.109093,0.9576 0.127275,1.91519 0,0.1394 0.0061,0.27274 0,0.81213 -0.09697,1.54548 -0.109093,0.85457 -0.381826,1.55155 -0.266673,0.69699 -0.721228,1.12124 -0.472738,0.43637 -1.096994,0.61213 -0.563649,0.16364 -1.109115,0.16364 -0.05455,0 -0.109093,0 -0.600013,-0.0182 -1.115176,-0.18788 -0.509102,-0.1697 -0.745471,-0.41819 -0.321219,-0.32122 -0.527284,-0.83032 -0.200004,-0.5091 -0.321219,-1.10306 -0.115154,-0.59395 -0.157579,-1.23639 -0.0303,-0.47879 -0.02424,-0.92729 -0.0061,-0.15152 0,-0.29698 z m 1.733371,0.11516 q 0,0.10303 0,0.20606 0,0.65456 0.09697,1.297 0.115154,0.74547 0.442433,1.24245 0.09697,0.15152 0.339402,0.25455 0.242429,0.10304 0.527284,0.11516 0.02424,0 0.04849,0 0.254551,0 0.49698,-0.10303 0.266673,-0.11516 0.424252,-0.4182 0.321219,-0.60607 0.442434,-1.32124 0.103033,-0.61819 0.103033,-1.20608 0,-0.0909 -0.0061,-0.18789 -0.01818,-0.6788 -0.139397,-1.25457 -0.115154,-0.57577 -0.260612,-0.90911 -0.187883,-0.42425 -0.484859,-0.56971 -0.236369,-0.12121 -0.49092,-0.12121 -0.06061,0 -0.121214,0.006 -0.315159,0.0364 -0.600014,0.22424 -0.278794,0.18789 -0.400008,0.42426 -0.16364,0.28485 -0.284855,0.92729 -0.115154,0.63638 -0.133336,1.39397 z"
           style="font-style:normal;font-variant:normal;font-weight:normal;font-stretch:normal;font-family:AngryBirds;-inkscape-font-specification:AngryBirds;stroke-width:0.31030977"
           id="path879" />
        <path
           d="m 93.366571,114.31257 0.545466,-3.38795 0.07273,-0.0121 0.24849,0.44849 0.933354,-0.32728 0.24849,0.28486 0.309098,0.0303 -1.648521,3.18795 -0.127275,-0.37576 z"
           style="font-style:normal;font-variant:normal;font-weight:normal;font-stretch:normal;font-family:AngryBirds;-inkscape-font-specification:AngryBirds;stroke-width:0.31030977"
           id="path881" />
        <path
           d="m 99.130336,106.43361 0.1697,-0.4 -0.08485,-0.16364 3.551594,-0.23637 0.10909,0.48486 -0.76971,0.53334 0.73335,0.22425 -0.097,0.27273 -1.81217,0.16364 -0.0424,1.90913 1.81216,-0.0606 -0.20606,0.6485 0.35758,0.14545 -0.0606,0.33334 -1.87883,0.18789 0.0788,2.02428 1.87277,-0.0727 -0.12121,0.64244 0.33334,0.15152 -0.1394,0.47274 -2.92734,0.1697 0.0485,-0.63032 -0.757594,0.0485 0.07879,-5.80619 -0.151519,-0.24849 0.533345,-0.46061 z"
           style="font-style:normal;font-variant:normal;font-weight:normal;font-stretch:normal;font-family:AngryBirds;-inkscape-font-specification:AngryBirds;stroke-width:0.31030977"
           id="path883" />
        <path
           d="m 103.89408,105.93663 0.54546,-0.28485 0.43638,0.45455 0.54546,-0.18182 2.53339,4.6001 h 0.24849 l -0.0727,-4.56373 0.32122,-0.18789 0.55759,0.76972 0.52122,-0.78184 0.22425,0.0364 -0.0121,7.96987 -0.1394,0.0849 -0.44243,-0.46062 -0.62426,0.43637 -0.24849,-0.0485 -2.50308,-3.94554 -0.31516,-0.0364 -0.097,4.00615 -0.35759,-0.0485 -0.48485,-0.66062 -0.36365,0.73334 -0.21212,-0.10909 z"
           style="font-style:normal;font-variant:normal;font-weight:normal;font-stretch:normal;font-family:AngryBirds;-inkscape-font-specification:AngryBirds;stroke-width:0.31030977"
           id="path885" />
        <path
           d="m 110.53058,106.40331 0.0606,-0.21819 4.90314,-0.35152 -0.20001,0.3091 0.35153,0.36364 -0.60002,0.38183 0.60002,0.26061 -0.0485,0.21213 -1.61822,0.11515 -0.0849,6.17589 -0.18788,0.0546 -0.40607,-0.88487 -0.28485,0.75759 -0.30304,-0.30909 -0.35758,0.22424 -0.0606,-5.94558 -1.50306,0.097 0.0606,-0.22425 -0.21212,-0.1697 0.69698,-0.52122 z"
           style="font-style:normal;font-variant:normal;font-weight:normal;font-stretch:normal;font-family:AngryBirds;-inkscape-font-specification:AngryBirds;stroke-width:0.31030977"
           id="path887" />
        <path
           d="m 116.05798,113.45801 1.60003,-7.66077 0.49698,0.15152 0.45456,-0.40001 0.68486,0.84244 0.38789,-0.75759 0.43031,0.26061 0.40001,-0.23031 1.44852,7.8426 -0.27274,-0.18789 -0.45455,0.26061 -0.35152,-0.44849 -0.33334,0.3394 -0.46062,-1.67882 -2.30914,0.18788 -0.44244,1.69095 -0.12727,0.0485 -0.39395,-0.49698 -0.49698,0.39395 z m 0.34546,-9.22444 q 0.0606,-0.097 0.10909,-0.17576 0.0546,-0.0849 0.10304,-0.16971 0.18788,-0.30909 0.40001,-0.52728 0.21818,-0.21819 0.60607,-0.27879 0.40001,-0.0727 0.63638,-0.0121 0.24243,0.0606 0.45455,0.19395 0.1091,0.0727 0.21213,0.15758 0.10909,0.0788 0.23637,0.15758 0.13939,0.0849 0.27273,0.15152 0.13334,0.0667 0.3091,0.13333 0.16364,0.0485 0.30303,0.0182 0.14546,-0.0303 0.26668,-0.11515 0.12727,-0.0909 0.22424,-0.2 0.097,-0.11516 0.18789,-0.22425 0.097,-0.12122 0.18182,-0.29092 0.0364,0 0.0727,0.0121 0.0424,0.006 0.0788,0.006 l -0.0364,0.3091 h 0.29698 l -0.0242,0.28486 0.17576,0.0849 q -0.1394,0.28485 -0.33334,0.58183 -0.19395,0.29091 -0.3394,0.42425 -0.3091,0.27273 -0.69699,0.34546 -0.38182,0.0667 -0.74547,-0.0485 -0.0606,-0.0243 -0.14546,-0.0667 -0.0788,-0.0424 -0.17576,-0.10303 -0.097,-0.0606 -0.21212,-0.13334 -0.1091,-0.0788 -0.21213,-0.15758 -0.22425,-0.15152 -0.45456,-0.27273 -0.22424,-0.12122 -0.44849,-0.14546 -0.097,0 -0.24243,0.13334 -0.14546,0.12727 -0.27879,0.28485 -0.0606,0.0727 -0.11516,0.15152 -0.0485,0.0727 -0.10909,0.1394 l -0.0485,0.0606 -0.097,-0.0121 0.10909,-0.3091 h -0.37576 l 0.0788,-0.21212 q -0.0606,-0.0485 -0.11516,-0.0849 -0.0485,-0.0424 -0.10909,-0.0909 z m 1.68489,6.33347 1.77579,-0.16364 -0.61819,-2.78188 -0.52123,0.0364 z"
           style="font-style:normal;font-variant:normal;font-weight:normal;font-stretch:normal;font-family:AngryBirds;-inkscape-font-specification:AngryBirds;stroke-width:0.31030977"
           id="path889" />
        <path
           d="m 122.5066,110.75492 q -0.0242,-0.33334 -0.0303,-0.66668 0,-0.36971 0.0364,-0.73941 0.12122,-1.26669 0.35153,-1.98792 0.2303,-0.72123 0.6788,-1.10306 0.16364,-0.13939 0.41213,-0.27879 0.25455,-0.14546 0.56365,-0.24849 0.31516,-0.10909 0.67274,-0.15152 0.1697,-0.0182 0.3394,-0.0182 l 0.38183,0.0242 -0.0242,0.72123 0.60608,-0.36971 0.26061,0.38183 0.41213,-0.16364 q 0.46062,0.47274 0.70305,1.35761 0.24849,0.8788 0.24849,2.15762 0,0.42425 -0.0485,0.92729 -0.0485,0.50304 -0.17576,0.9879 -0.12122,0.4788 -0.32728,0.88487 -0.20607,0.40001 -0.51516,0.62426 -0.43638,0.30909 -0.87881,0.47273 -0.43637,0.16364 -0.85457,0.20607 -0.19394,0.0182 -0.38788,0.0182 -0.21213,0 -0.40607,-0.0242 -0.36971,-0.0485 -0.67274,-0.16364 -0.38183,-0.1394 -0.66669,-0.55759 -0.27879,-0.42425 -0.45455,-1.00608 -0.1697,-0.58183 -0.22425,-1.28488 z m 1.47882,-1.13336 q -0.0182,0.23637 -0.0121,0.46668 0,0.43637 0.0606,0.86062 0.0909,0.64244 0.3394,1.03033 0.12121,0.2 0.35758,0.30304 0.23637,0.097 0.50304,0.097 0.26668,0 0.50911,-0.0909 0.24243,-0.097 0.3697,-0.29698 0.12122,-0.2 0.23637,-0.57577 0.12121,-0.38183 0.18788,-0.83638 0.0727,-0.46062 0.0849,-0.9576 0,-0.0667 0,-0.13333 0,-0.42426 -0.0727,-0.8182 -0.0788,-0.45456 -0.26667,-0.81214 -0.18182,-0.35759 -0.49698,-0.54547 -0.2,-0.12121 -0.46668,-0.12121 -0.0121,0 -0.0303,0 -0.28485,0.006 -0.49092,0.19394 -0.35758,0.32122 -0.56365,0.93941 -0.2,0.61214 -0.24849,1.297 z"
           style="font-style:normal;font-variant:normal;font-weight:normal;font-stretch:normal;font-family:AngryBirds;-inkscape-font-specification:AngryBirds;stroke-width:0.31030977"
           id="path891" />
        <path
           d="m 129.07039,113.53074 q -0.21819,-0.23637 -0.23637,-0.49698 -0.0121,-0.26061 0.0545,-0.68487 0.0364,-0.28485 0.20607,-0.50304 0.17576,-0.22424 0.42425,-0.3394 0.24849,-0.12121 0.52728,-0.12121 0.2788,0 0.52729,0.15758 0.0727,0.0485 0.11515,0.27273 0.0485,0.22425 0.0303,0.50304 -0.0182,0.2788 -0.1091,0.54547 -0.0849,0.26667 -0.24849,0.40607 -0.15152,0.12121 -0.34546,0.21212 -0.18788,0.0849 -0.37577,0.12122 -0.18182,0.0364 -0.3394,0.0182 -0.15152,-0.0182 -0.2303,-0.0909 z m 0.31515,-4.49101 q -0.22424,-0.23637 -0.23637,-0.49698 -0.0121,-0.26061 0.0485,-0.68486 0.0364,-0.28486 0.20607,-0.5091 0.17576,-0.22425 0.42425,-0.33941 0.24849,-0.12121 0.52728,-0.12121 0.2788,0 0.52729,0.16364 0.0727,0.0485 0.11515,0.27273 0.0485,0.22425 0.0303,0.50304 -0.0182,0.2788 -0.10909,0.54547 -0.0849,0.26667 -0.24243,0.40607 -0.15152,0.12121 -0.34546,0.21213 -0.18788,0.0849 -0.37577,0.12121 -0.18788,0.0364 -0.34546,0.0182 -0.15152,-0.0182 -0.22425,-0.0909 z"
           style="font-style:normal;font-variant:normal;font-weight:normal;font-stretch:normal;font-family:AngryBirds;-inkscape-font-specification:AngryBirds;stroke-width:0.31030977"
           id="path893" />
      </g>
      <g
         id="g748">
        <g
           aria-label="A ="
           style="font-style:normal;font-variant:normal;font-weight:normal;font-stretch:normal;font-size:15.26951599px;line-height:1.25;font-family:'URW Gothic L';-inkscape-font-specification:'URW Gothic L';letter-spacing:0px;word-spacing:0px;fill:#000000;fill-opacity:1;stroke:none;stroke-width:0.38173789"
           id="text14-7-1">
          <path
             d="m 58.178432,134.99262 2.415685,-11.95913 0.305689,-0.17148 0.596465,0.67848 0.991624,-0.85742 1.006536,1.23766 0.6412,-1.10346 h 0.08947 l 2.602081,11.9144 -0.275866,0.11929 -0.782861,-1.03636 -0.275865,0.88725 -0.559186,-0.35043 -0.305689,0.30569 -0.581554,-1.78939 -3.556425,0.0298 -0.447349,2.02798 -0.395158,-0.22367 -0.260954,0.23858 -0.290777,-0.86487 -0.73067,1.03636 z m 2.751197,-3.92921 2.945049,-0.19385 -1.155652,-4.89102 -0.611377,-0.10438 z"
             style="font-style:normal;font-variant:normal;font-weight:normal;font-stretch:normal;font-family:AngryBirds;-inkscape-font-specification:AngryBirds;stroke-width:0.38173789"
             id="path896" />
          <path
             d="m 70.719119,131.76425 0.641201,-0.42498 -0.395159,-0.76049 3.712998,-0.24604 0.23113,0.4548 -0.596465,0.44735 0.193851,0.7605 -3.645895,0.49208 0.07456,-0.41753 z m 0.05219,-3.75027 0.238586,-0.3877 -0.04474,-0.71576 3.683175,-0.13421 0.01491,0.27587 -0.462261,0.6412 0.462261,0.55918 -0.09692,0.24605 -3.526603,0.39515 0.186396,-0.42498 z"
             style="font-style:normal;font-variant:normal;font-weight:normal;font-stretch:normal;font-family:AngryBirds;-inkscape-font-specification:AngryBirds;stroke-width:0.38173789"
             id="path898" />
        </g>
        <g
           id="g734"
           transform="translate(3.1750001,0.02770251)">
          <path
             style="opacity:1;fill:#ffffff;fill-opacity:1;stroke:#ffffff;stroke-width:0.10485733;stroke-linecap:round;stroke-linejoin:round;stroke-miterlimit:4;stroke-dasharray:none;stroke-dashoffset:0;stroke-opacity:1"
             d="m 43.57272,120.11445 h 9.858732 v 17.51068 H 43.57272 Z"
             id="rect847-0" />
          <g
             aria-label="?"
             style="font-style:normal;font-variant:normal;font-weight:normal;font-stretch:normal;font-size:20.05946541px;line-height:1.25;font-family:'URW Gothic L';-inkscape-font-specification:'URW Gothic L';letter-spacing:0px;word-spacing:0px;fill:#00ff00;fill-opacity:1;stroke:#000000;stroke-width:0.1442789;stroke-miterlimit:4;stroke-dasharray:none"
             id="text40-9">
            <path
               d="m 44.326724,122.04293 0.479938,-0.42117 q -0.03918,-0.0588 -0.09795,-0.13712 -0.03918,-0.0588 -0.117536,-0.12733 -0.06856,-0.0784 -0.107742,-0.15672 1.165565,-0.34281 2.321335,-0.44076 1.15577,-0.0979 2.380103,0.0588 0.979466,0.11753 1.743449,0.62686 0.763984,0.49952 1.243922,1.22433 0.479938,0.71501 0.656242,1.57694 0.186099,0.86193 -0.01959,1.72386 -0.156715,0.64645 -0.58768,1.15577 -0.430965,0.50932 -1.067618,0.94029 -0.626858,0.43096 -1.420225,0.79337 -0.793368,0.3624 -1.674887,0.68562 -0.117536,0.34281 -0.205688,0.66604 -0.07836,0.31343 -0.137126,0.61706 -0.05877,0.28405 -0.07836,0.52891 -0.01959,0.23508 -0.05877,0.39179 l -0.303634,0.26446 -0.842341,-0.76399 -0.323224,1.01865 -0.254661,-0.0392 q -0.03918,-0.24487 -0.107741,-0.64645 -0.05877,-0.41137 -0.117536,-0.88152 -0.05877,-0.47994 -0.107742,-0.97946 -0.04897,-0.49953 -0.04897,-0.94029 0.362403,-0.19589 0.86193,-0.44076 0.499528,-0.24487 1.018645,-0.51912 0.705216,-0.40158 1.243922,-0.86193 0.538706,-0.46035 0.685626,-0.93049 0.176304,-0.57789 0.05877,-1.06762 -0.117536,-0.48973 -0.42117,-0.85213 -0.303635,-0.36241 -0.754189,-0.58768 -0.450555,-0.23508 -0.930493,-0.27426 -0.577885,-0.0392 -1.283101,-0.0392 -0.705215,0 -1.469199,0.13712 l 0.783573,-0.82275 z m 0.822751,14.92706 q -0.205688,-0.14692 -0.284045,-0.3526 -0.07836,-0.21549 0,-0.46035 0.07836,-0.25466 0.323224,-0.51912 0.244866,-0.27425 0.685626,-0.53871 0.137125,-0.0784 0.411376,-0.12733 0.284045,-0.049 0.597474,-0.0686 0.313429,-0.0196 0.568091,0 0.264455,0.0196 0.342813,0.0784 0.09795,0.0588 0.195893,0.26445 0.107741,0.1959 0.117536,0.45056 0.0098,0.24487 -0.117536,0.51912 -0.117536,0.26445 -0.470144,0.50932 -0.225277,0.15671 -0.597474,0.22528 -0.372197,0.0784 -0.7346,0.10774 -0.352607,0.0294 -0.656242,0 -0.303634,-0.0294 -0.381992,-0.0882 z"
               style="font-style:normal;font-variant:normal;font-weight:normal;font-stretch:normal;font-family:AngryBirds;-inkscape-font-specification:AngryBirds;fill:#00ff00;stroke:#000000;stroke-width:0.1442789;stroke-miterlimit:4;stroke-dasharray:none"
               id="path902" />
          </g>
        </g>
        <g
           transform="matrix(0.60814044,0,0,0.60814044,79.376499,122.67193)"
           id="ID0.1613758858293295">
          <g
             id="ID0.04199532698839903">
            <g
               id="ID0.4123793593607843">
              <path
                 style="fill:#003fff"
                 inkscape:connector-curvature="0"
                 id="ID0.6994774197228253"
                 d="m 71.96,13.2 c 0,1.65 -0.3,3.3 -0.88,4.93 -1.58,4.67 -5.11,7.97 -9.67,9.25 -0.32,2.11 -0.91,5.63 -2.03,11.87 -0.03,0.14 -0.05,0.28 -0.08,0.42 -0.96,4.34 -2.33,10.95 -4.05,19.65 -0.33,1.97 -0.75,3.88 -1.26,5.67 -0.4,2.16 -0.83,4.3 -1.28,6.39 -0.03,0.15 -0.07,0.31 -0.11,0.46 -1.54,5.89 -5.22,10.23 -10.36,12.22 -0.06,0.02 -0.11,0.04 -0.16,0.06 -2.28,0.84 -4.22,1.23 -6.13,1.23 -2.62,0 -5.07,-0.76 -7.11,-2.21 C 27.15,81.97 25.28,80.43 24.03,77.95 23.54,76.97 23.2,75.92 23.02,74.83 23,74.74 22.91,74.22 22.6,72.96 22.31,72.13 21.61,70.14 20.5,67 20.43,66.79 20.36,66.57 20.3,66.36 19.96,65.18 19.43,63.39 18.71,60.99 17.94,58.65 17.2,56.24 16.49,53.82 15.35,50.27 13.68,44.92 11.41,37.52 10,37.24 8.62,36.8 7.3,36.18 6.48,35.79 5.71,35.31 5,34.73 1.82,32.13 0,28.29 0,24.19 0,18.1 3.67,12.93 9.36,11.03 9.43,11.01 9.49,10.99 9.56,10.97 12.8,9.96 15.62,9.37 18.15,9.2 18.89,9.04 19.73,8.89 20.7,8.74 21.55,8.61 22.42,8.59 23.27,8.66 23.41,8.65 23.77,8.61 24.41,8.48 26.2,8.12 27.54,7.91 28.65,7.81 28.88,7.44 29.13,7.08 29.4,6.74 31.15,4.54 34.46,1.8 40.27,1.19 40.36,1.18 40.45,1.17 40.53,1.16 41.9,1.05 44.01,0.85 46.86,0.57 47.05,0.55 47.25,0.54 47.45,0.53 48.73,0.47 50.45,0.41 52.62,0.36 54.32,0.22 55.41,0.13 55.89,0.08 56.34,0.03 56.8,0 57.26,0 c 9.65,0 14.7,6.64 14.7,13.2 z"
                 transform="matrix(0.23988406,0,0,0.23988406,0.25,0)" />
            </g>
          </g>
          <g
             id="ID0.1456912192516029">
            <path
               style="fill:#ffffff"
               inkscape:connector-curvature="0"
               id="ID0.9227194082923234"
               d="m 60.693,14.517 c -0.527,1.643 -1.759,2.463 -3.694,2.463 -0.411,0 -1.231,-0.058 -2.463,-0.176 -0.998,-0.116 -1.759,-0.146 -2.287,-0.088 -0.118,0.06 -0.294,0.176 -0.527,0.352 -0.176,0.88 -0.471,3.05 -0.88,6.51 -0.235,1.994 -0.998,6.567 -2.287,13.722 -0.998,4.516 -2.375,11.201 -4.134,20.055 -0.294,1.818 -0.675,3.519 -1.144,5.102 -0.411,2.229 -0.851,4.429 -1.319,6.598 -0.646,2.463 -1.877,4.046 -3.694,4.75 -1.583,0.585 -2.61,0.703 -3.079,0.352 -0.763,-0.527 -1.202,-0.91 -1.319,-1.144 -0.118,-0.703 -0.352,-1.759 -0.703,-3.166 -0.118,-0.353 -0.88,-2.521 -2.287,-6.51 -0.352,-1.231 -0.91,-3.107 -1.671,-5.63 -0.764,-2.345 -1.496,-4.719 -2.199,-7.124 -1.174,-3.636 -2.962,-9.382 -5.366,-17.24 -0.41,-2.053 -1.114,-4.516 -2.11,-7.389 -2.463,0.587 -4.047,0.879 -4.75,0.879 -0.998,0 -1.936,-0.204 -2.814,-0.615 -0.646,-0.528 -0.968,-1.201 -0.968,-2.023 0,-1.407 0.615,-2.315 1.847,-2.727 2.815,-0.88 5.102,-1.319 6.861,-1.319 0.585,-0.176 1.465,-0.352 2.639,-0.528 1.056,0.118 2.463,0 4.222,-0.352 1.76,-0.352 2.932,-0.527 3.519,-0.527 0.88,0 1.672,0.176 2.375,0.527 0.586,0.528 0.88,1.203 0.88,2.023 0,1.466 -0.704,2.405 -2.111,2.814 -1.29,0.06 -3.05,0.439 -5.277,1.144 0.117,2.054 0.381,3.725 0.792,5.014 0.879,2.639 2.11,6.305 3.694,10.995 0.058,0.587 0.204,1.379 0.439,2.375 1.231,4.692 3.312,11.318 6.245,19.879 0.352,-0.819 0.792,-2.429 1.319,-4.828 0.645,-3.395 1.056,-5.414 1.231,-6.059 1.056,-4.097 1.964,-8.281 2.727,-12.555 1.113,-5.853 1.7,-8.925 1.76,-9.218 0.761,-3.687 1.289,-6.643 1.583,-8.867 0.233,-1.639 0.439,-3.248 0.615,-4.829 -0.059,-0.058 -0.118,-0.116 -0.176,-0.176 -3.988,0.06 -6.157,0.06 -6.509,0 -0.527,0 -1.231,-0.462 -2.111,-1.387 0,-0.058 0.044,-0.145 0.132,-0.26 0.089,-0.115 0.161,-0.203 0.221,-0.261 -0.06,-0.347 -0.03,-0.837 0.088,-1.474 0.645,-0.808 1.788,-1.3 3.431,-1.474 1.407,-0.115 3.576,-0.317 6.509,-0.607 1.289,-0.058 3.048,-0.115 5.277,-0.173 2.814,-0.23 4.163,-0.347 4.046,-0.347 2.463,0 3.694,0.734 3.694,2.199 -0.003,0.412 -0.091,0.852 -0.267,1.32 z"
               transform="matrix(0.23988406,0,0,0.23988406,0.25,0)" />
          </g>
        </g>
      </g>
    </g>
  </g>
</svg>
