<?xml version="1.0" encoding="UTF-8" standalone="no"?>
<!-- Created with Inkscape (http://www.inkscape.org/) -->

<svg
   xmlns:dc="http://purl.org/dc/elements/1.1/"
   xmlns:cc="http://creativecommons.org/ns#"
   xmlns:rdf="http://www.w3.org/1999/02/22-rdf-syntax-ns#"
   xmlns:svg="http://www.w3.org/2000/svg"
   xmlns="http://www.w3.org/2000/svg"
   xmlns:sodipodi="http://sodipodi.sourceforge.net/DTD/sodipodi-0.dtd"
   xmlns:inkscape="http://www.inkscape.org/namespaces/inkscape"
   width="210mm"
   height="297mm"
   viewBox="0 0 210 297"
   version="1.1"
   id="svg109"
   inkscape:version="0.92.1 r15371"
   sodipodi:docname="103.svg">
  <defs
     id="defs103" />
  <sodipodi:namedview
     id="base"
     pagecolor="#ffffff"
     bordercolor="#666666"
     borderopacity="1.0"
     inkscape:pageopacity="0.0"
     inkscape:pageshadow="2"
     inkscape:zoom="0.35"
     inkscape:cx="400"
     inkscape:cy="560"
     inkscape:document-units="mm"
     inkscape:current-layer="layer1"
     showgrid="false"
     inkscape:window-width="1366"
     inkscape:window-height="704"
     inkscape:window-x="0"
     inkscape:window-y="27"
     inkscape:window-maximized="1" />
  <metadata
     id="metadata106">
    <rdf:RDF>
      <cc:Work
         rdf:about="">
        <dc:format>image/svg+xml</dc:format>
        <dc:type
           rdf:resource="http://purl.org/dc/dcmitype/StillImage" />
        <dc:title></dc:title>
      </cc:Work>
    </rdf:RDF>
  </metadata>
  <g
     inkscape:label="Camada 1"
     inkscape:groupmode="layer"
     id="layer1">
    <path
       style="opacity:1;fill:#cccccc;fill-opacity:1;stroke:#cccccc;stroke-width:0.37417138;stroke-linecap:round;stroke-linejoin:round;stroke-miterlimit:4;stroke-dasharray:none;stroke-dashoffset:0;stroke-opacity:1"
       d="M 10.700697,10.566266 H 137.46596 V 48.219464 H 10.700697 Z"
       id="rect10-6" />
    <g
       transform="matrix(0.64435768,0,0,0.64435768,52.911411,31.498353)"
       id="ID0.7293403940275311-6">
      <g
         id="layer1-3-0">
        <g
           id="text10-6">
          <path
             style="fill:#003fff;stroke:none;stroke-width:2.32666159"
             inkscape:connector-curvature="0"
             id="path9-2"
             d="M -5.574,39.692 -70.757,76.991 V 54.924 L -44.291,39.728 -70.757,24.605 V 2.538 Z"
             transform="matrix(1.4872706e-4,0.24039923,0.24039923,-1.4872706e-4,-0.5,17.5)" />
        </g>
      </g>
    </g>
    <g
       aria-label="q: O Brasil está localizado na América Central.
p: Manaus é um estado brasileiro."
       style="font-style:normal;font-variant:normal;font-weight:normal;font-stretch:normal;font-size:6.45928288px;line-height:1.25;font-family:'URW Gothic L';-inkscape-font-specification:'URW Gothic L';letter-spacing:0px;word-spacing:0px;fill:#000000;fill-opacity:1;stroke:none;stroke-width:0.16148205"
       id="text14-2">
      <path
         d="m 11.773137,15.964874 q 0,-0.283855 0.01892,-0.558249 0.02208,-0.274393 0.07885,-0.523555 0.05677,-0.252316 0.170313,-0.482554 0.113542,-0.230238 0.302779,-0.416321 0.141927,-0.141927 0.35955,-0.211314 0.220776,-0.07254 0.454168,-0.08516 0.05677,-0.0032 0.113542,-0.0063 0.170313,0 0.324857,0.03154 0.20816,0.03785 0.321702,0.116696 0.173467,0.116696 0.302779,0.299625 0.129312,0.182929 0.211315,0.406859 0.082,0.220776 0.11985,0.460476 0.03785,0.2397 0.03785,0.460477 0,0.129311 0.0032,0.252315 0,0.041 0.0032,0.082 0,0.082 -0.0063,0.167159 -0.0063,0.129312 -0.01577,0.249162 -0.0095,0.11985 -0.03469,0.242854 -0.04416,0.233392 -0.154544,0.466784 -0.110388,0.230238 -0.375319,0.526709 0.10408,0.116696 0.214468,0.236546 0.113542,0.11985 0.167159,0.170313 l -0.08516,0.09147 -0.27124,-0.116696 -0.03154,0.233392 -0.141928,0.01262 q -0.03154,-0.03154 -0.113542,-0.132465 -0.082,-0.100927 -0.170313,-0.208161 -0.148235,0.04415 -0.321703,0.06939 -0.123003,0.01892 -0.249161,0.01892 l -0.09146,-0.0032 q -0.170313,-0.0095 -0.337472,-0.06308 -0.164005,-0.05677 -0.305933,-0.173467 -0.123004,-0.09777 -0.217622,-0.287009 -0.09147,-0.189237 -0.154544,-0.413168 -0.05992,-0.227084 -0.09462,-0.469938 -0.03154,-0.246007 -0.03154,-0.444706 z m 0.763255,-0.179775 q -0.0032,0.05677 -0.0032,0.113542 0,0.113542 0.0095,0.233392 0.01262,0.176621 0.05046,0.340626 0.041,0.164006 0.10408,0.309087 0.06623,0.141928 0.160851,0.22393 0.02523,0.02523 0.082,0.03154 0.05992,0.0063 0.126158,0.0063 0.07254,0 0.154543,-0.0063 l -0.160851,-0.365858 0.167159,0.082 0.116696,-0.192391 0.100926,0.100926 q 0.06939,0.06939 0.157698,0.15139 0.110388,-0.16716 0.160851,-0.305933 0.05046,-0.141928 0.07254,-0.27124 0.01892,-0.129311 0.02208,-0.230238 0.0032,-0.10408 0.0032,-0.182929 0,-0.116696 -0.0063,-0.261777 -0.0063,-0.145082 -0.02839,-0.293317 -0.01892,-0.148236 -0.05677,-0.280702 -0.03785,-0.132465 -0.10408,-0.220776 -0.07254,-0.08516 -0.192391,-0.138773 -0.116696,-0.05677 -0.249162,-0.05992 -0.0063,0 -0.01577,0 -0.126158,0 -0.242854,0.05046 -0.126157,0.05362 -0.195544,0.179775 -0.09777,0.173467 -0.160852,0.416321 -0.05992,0.242854 -0.07254,0.570864 z"
         style="font-style:normal;font-variant:normal;font-weight:normal;font-stretch:normal;font-family:AngryBirds;-inkscape-font-specification:AngryBirds;stroke-width:0.16148205"
         id="path144" />
      <path
         d="m 15.043779,17.787855 q -0.113542,-0.123004 -0.123004,-0.258623 -0.0063,-0.13562 0.02839,-0.356396 0.01892,-0.148236 0.107234,-0.261778 0.09146,-0.116696 0.220776,-0.176621 0.129312,-0.06308 0.274394,-0.06308 0.145081,0 0.274393,0.082 0.03785,0.02523 0.05992,0.141927 0.02523,0.116696 0.01577,0.261778 -0.0095,0.145081 -0.05677,0.283855 -0.04416,0.138774 -0.129312,0.211314 -0.07885,0.06308 -0.179775,0.110389 -0.09777,0.04415 -0.195545,0.06308 -0.09462,0.01892 -0.176621,0.0095 -0.07885,-0.0095 -0.11985,-0.04731 z m 0.164006,-2.337074 q -0.116697,-0.123004 -0.123004,-0.258624 -0.0063,-0.13562 0.02523,-0.356396 0.01892,-0.148235 0.107234,-0.264932 0.09147,-0.116696 0.220777,-0.176621 0.129311,-0.06308 0.274393,-0.06308 0.145082,0 0.274393,0.08516 0.03785,0.02523 0.05993,0.141928 0.02523,0.116696 0.01577,0.261777 -0.0095,0.145082 -0.05677,0.283855 -0.04415,0.138774 -0.126158,0.211315 -0.07885,0.06308 -0.179775,0.110388 -0.09777,0.04415 -0.195545,0.06308 -0.09777,0.01892 -0.179774,0.0095 -0.07885,-0.0095 -0.116696,-0.04731 z"
         style="font-style:normal;font-variant:normal;font-weight:normal;font-stretch:normal;font-family:AngryBirds;-inkscape-font-specification:AngryBirds;stroke-width:0.16148205"
         id="path146" />
      <path
         d="m 17.803483,15.293083 q 0.0063,-0.302779 0.03154,-0.561402 0.02839,-0.258624 0.06623,-0.413167 0.09146,-0.413167 0.242854,-0.697022 0.151389,-0.283856 0.350088,-0.466785 0.201852,-0.186082 0.451014,-0.274393 0.249162,-0.09146 0.533017,-0.123004 0.03785,-0.0032 0.08831,-0.0063 0.02523,0 0.05362,0.0032 0.08516,0.0032 0.154543,0.0095 l 0.07254,0.457322 0.384782,-0.154543 0.09777,0.444706 0.406859,-0.10408 q 0.129312,0.167159 0.214468,0.346934 0.08831,0.176621 0.116696,0.403705 0.05677,0.498324 0.06623,0.996648 0,0.07254 0.0032,0.141927 0,0.422629 -0.05046,0.804257 -0.05677,0.444706 -0.198699,0.80741 -0.138773,0.362704 -0.375319,0.58348 -0.246008,0.227084 -0.570865,0.318549 -0.293317,0.08516 -0.577172,0.08516 -0.02839,0 -0.05677,0 -0.312241,-0.0095 -0.580326,-0.09777 -0.264932,-0.08831 -0.387936,-0.217622 -0.167159,-0.16716 -0.274393,-0.432091 -0.10408,-0.264932 -0.167159,-0.574018 -0.05992,-0.309087 -0.082,-0.643405 -0.01577,-0.249162 -0.01262,-0.482554 -0.0032,-0.07885 0,-0.154544 z m 0.902028,0.05993 q 0,0.05362 0,0.107234 0,0.340627 0.05046,0.674945 0.05993,0.387936 0.230239,0.646559 0.05046,0.07885 0.176621,0.132466 0.126157,0.05362 0.274393,0.05992 0.01262,0 0.02523,0 0.132465,0 0.258623,-0.05362 0.138774,-0.05992 0.220776,-0.217623 0.16716,-0.315394 0.230239,-0.68756 0.05362,-0.321702 0.05362,-0.627635 0,-0.04731 -0.0032,-0.09777 -0.0095,-0.353242 -0.07254,-0.652867 -0.05992,-0.299625 -0.13562,-0.473092 -0.09777,-0.220776 -0.252316,-0.296471 -0.123003,-0.06308 -0.255469,-0.06308 -0.03154,0 -0.06308,0.0032 -0.164005,0.01892 -0.312241,0.116696 -0.145081,0.09777 -0.20816,0.220777 -0.08516,0.148235 -0.148236,0.482554 -0.05992,0.331164 -0.06939,0.725407 z"
         style="font-style:normal;font-variant:normal;font-weight:normal;font-stretch:normal;font-family:AngryBirds;-inkscape-font-specification:AngryBirds;stroke-width:0.16148205"
         id="path148" />
      <path
         d="m 22.786718,12.845621 q 0.46363,-0.148236 0.996647,-0.205007 0.2397,-0.02523 0.46363,-0.02839 0.277548,0 0.536171,0.041 0.27124,0.03785 0.492016,0.126158 0.220776,0.08516 0.378474,0.220776 0.157697,0.13562 0.242853,0.32801 0.08831,0.189237 0.08831,0.447861 0,0.07885 -0.03469,0.211314 -0.03469,0.132466 -0.129312,0.293317 -0.09462,0.160852 -0.252316,0.346935 -0.157697,0.182928 -0.397397,0.369011 0.369011,0.186083 0.58348,0.381628 0.217622,0.195545 0.321702,0.381627 0.104081,0.186083 0.116696,0.362704 0.0032,0.05046 0.0032,0.09777 0,0.11985 -0.02208,0.22393 -0.06308,0.264931 -0.305933,0.514093 -0.242854,0.249162 -0.574018,0.460476 -0.328011,0.208161 -0.70333,0.369012 -0.37532,0.160851 -0.690715,0.252316 -0.01892,-0.05046 -0.04731,-0.116696 -0.02523,-0.06308 -0.05677,-0.186083 l -0.381628,0.129312 -0.116696,-0.2397 -0.296471,0.082 v -3.797351 l -0.123004,-0.16716 0.302779,-0.186082 -0.35955,-0.258624 0.141928,-0.189237 z m 1.040802,0.782178 q -0.01262,0.214469 -0.01262,0.536171 0,0.321703 0.05362,0.75064 0.233392,-0.06308 0.413167,-0.15139 0.179775,-0.08831 0.318548,-0.182929 0.138774,-0.09462 0.227085,-0.182929 0.09146,-0.09146 0.138773,-0.160851 0.09777,-0.154543 0.09777,-0.280701 0,-0.07254 -0.03469,-0.132466 -0.09146,-0.167159 -0.283855,-0.258624 -0.160851,-0.07254 -0.37532,-0.07254 -0.01892,0 -0.03469,0 -0.236546,0.0063 -0.507786,0.135619 z m 0.03154,2.362307 q -0.0063,0.151389 -0.0063,0.334318 0,0.182929 0.0063,0.400551 0.0095,0.217622 0.03469,0.435245 0.246008,-0.10408 0.473092,-0.205007 0.230238,-0.10408 0.403705,-0.230238 0.176622,-0.126158 0.27124,-0.283855 0.082,-0.132466 0.082,-0.296471 0,-0.03154 -0.0032,-0.06939 -0.01892,-0.198699 -0.160852,-0.302779 -0.141927,-0.10408 -0.334318,-0.132466 -0.09146,-0.01262 -0.182929,-0.01262 -0.10408,0 -0.214468,0.01577 -0.208161,0.03154 -0.346934,0.09777 -0.01262,0.09777 -0.02208,0.249162 z"
         style="font-style:normal;font-variant:normal;font-weight:normal;font-stretch:normal;font-family:AngryBirds;-inkscape-font-specification:AngryBirds;stroke-width:0.16148205"
         id="path150" />
      <path
         d="m 26.520992,13.949502 0.02208,-0.11985 q 0.356396,-0.116696 0.712792,-0.176621 0.359549,-0.06308 0.693868,-0.06623 0.01892,0 0.03469,0 0.315395,0 0.589788,0.05362 0.287009,0.05677 0.498324,0.195545 0.192391,0.123004 0.305933,0.309087 0.116696,0.186083 0.138773,0.419475 0.0063,0.05677 0.0063,0.11985 0,0.179775 -0.05362,0.381627 -0.06939,0.268086 -0.2397,0.545633 -0.03154,0.05677 -0.09777,0.141928 -0.06623,0.08516 -0.145082,0.182928 -0.07569,0.09462 -0.167159,0.189237 -0.08831,0.09146 -0.173467,0.164005 0.07885,0.186083 0.167159,0.394244 0.09146,0.205006 0.176621,0.397397 0.08831,0.189237 0.167159,0.350088 0.07885,0.157698 0.123004,0.246008 l -0.04415,0.04731 -0.37532,-0.20816 -0.01892,0.321702 -0.129312,-0.05677 -0.116696,0.07885 -0.782179,-1.207962 -0.406859,0.160852 -0.03154,0.968261 -0.10408,-0.01262 -0.214468,-0.337472 -0.167159,0.435245 -0.116696,-0.04731 q -0.0063,-0.192391 -0.02208,-0.551941 -0.01577,-0.35955 -0.02839,-0.782179 -0.01262,-0.422629 -0.01262,-0.857873 0,-0.435245 0.02523,-0.791641 l 0.01892,-0.252316 -0.205007,-0.148235 0.340627,-0.309087 z m 0.930414,2.031142 q 0.233392,-0.09146 0.4794,-0.246008 0.246008,-0.154544 0.425783,-0.337472 0.179775,-0.186083 0.261777,-0.384782 0.03785,-0.08831 0.03785,-0.176621 0,-0.10408 -0.05362,-0.205007 -0.05677,-0.10408 -0.242854,-0.132465 -0.15139,-0.02523 -0.312241,-0.02523 -0.03469,0 -0.07254,0 -0.233392,0.01262 -0.510939,0.05992 z"
         style="font-style:normal;font-variant:normal;font-weight:normal;font-stretch:normal;font-family:AngryBirds;-inkscape-font-specification:AngryBirds;stroke-width:0.16148205"
         id="path152" />
      <path
         d="m 29.719093,17.750008 0.832642,-3.986589 0.258624,0.07885 0.236546,-0.208161 0.356396,0.438399 0.201852,-0.394243 0.223931,0.135619 0.20816,-0.11985 0.753793,4.081207 -0.141927,-0.09777 -0.236546,0.13562 -0.182929,-0.233392 -0.173467,0.176621 -0.2397,-0.873644 -1.201654,0.09777 -0.230238,0.879951 -0.06623,0.02523 -0.205007,-0.258623 -0.258623,0.205006 z m 1.056572,-1.504433 0.924107,-0.08516 -0.321703,-1.447662 -0.271239,0.01892 z"
         style="font-style:normal;font-variant:normal;font-weight:normal;font-stretch:normal;font-family:AngryBirds;-inkscape-font-specification:AngryBirds;stroke-width:0.16148205"
         id="path154" />
      <path
         d="m 33.037046,15.267852 q 0.02523,-0.328011 0.195544,-0.59925 0.173468,-0.27124 0.441553,-0.466784 0.268085,-0.198699 0.596096,-0.324857 0.331164,-0.126158 0.674945,-0.164005 0.06623,-0.0095 0.160851,-0.01262 0.02523,0 0.05046,0.0032 0.129312,0.0032 0.220776,0.0095 l 0.02523,0.082 -0.419475,0.233392 0.334318,0.160851 -0.141927,0.13562 0.09777,0.182929 q -0.233392,0.01892 -0.460476,0.06308 -0.22393,0.04416 -0.403705,0.123004 -0.176621,0.07885 -0.299625,0.192391 -0.123004,0.110388 -0.148236,0.258624 -0.0063,0.03785 -0.0063,0.07569 0,0.119849 0.08516,0.201852 0.110388,0.110388 0.264931,0.182929 0.07885,0.03154 0.160852,0.05992 0.08516,0.02839 0.167159,0.05677 0.07885,0.02523 0.148235,0.04415 0.07254,0.01892 0.123004,0.03154 0.309087,0.09777 0.482554,0.268085 0.176621,0.170313 0.176621,0.501478 0,0.350088 -0.192391,0.618173 -0.189236,0.268086 -0.596096,0.473092 -0.160851,0.07885 -0.324856,0.132466 -0.164005,0.05362 -0.321703,0.09146 -0.154543,0.041 -0.293317,0.05993 -0.138773,0.01892 -0.255469,0.03154 l 0.110388,-0.205007 -0.296471,-0.08516 0.129312,-0.192391 -0.110389,-0.116696 q 0.110389,-0.02523 0.242854,-0.05362 0.132466,-0.03154 0.268086,-0.06939 0.123004,-0.03785 0.249162,-0.09146 0.126157,-0.05677 0.227084,-0.132466 0.10408,-0.07885 0.170313,-0.173467 0.06939,-0.09462 0.06939,-0.201853 0,-0.135619 -0.132466,-0.22393 -0.132466,-0.08831 -0.293317,-0.138774 -0.167159,-0.05677 -0.334318,-0.09462 -0.164006,-0.041 -0.246008,-0.07254 -0.290163,-0.116696 -0.457323,-0.315394 -0.141927,-0.170314 -0.141927,-0.447861 0,-0.04415 0.0032,-0.09146 z"
         style="font-style:normal;font-variant:normal;font-weight:normal;font-stretch:normal;font-family:AngryBirds;-inkscape-font-specification:AngryBirds;stroke-width:0.16148205"
         id="path156" />
      <path
         d="m 36.099528,17.800471 v -4.018128 l 0.141927,-0.05046 0.214469,0.504631 0.271239,-0.485708 0.192391,0.104081 0.182929,-0.06623 -0.110388,4.084361 -0.07885,0.02523 -0.27124,-0.387935 -0.186082,0.340626 -0.16716,-0.06308 z"
         style="font-style:normal;font-variant:normal;font-weight:normal;font-stretch:normal;font-family:AngryBirds;-inkscape-font-specification:AngryBirds;stroke-width:0.16148205"
         id="path158" />
      <path
         d="m 37.786889,13.917963 0.123004,0.01892 0.179775,-0.129312 0.189237,0.318549 0.334319,-0.44786 0.10408,0.03469 -0.110388,3.475649 h 1.066034 l -0.264932,0.22393 0.362704,0.141928 -0.182929,0.220776 0.06623,0.09146 -1.45397,0.107234 -0.05677,-0.353242 -0.34378,0.05046 z"
         style="font-style:normal;font-variant:normal;font-weight:normal;font-stretch:normal;font-family:AngryBirds;-inkscape-font-specification:AngryBirds;stroke-width:0.16148205"
         id="path160" />
      <path
         d="m 41.461236,14.094584 0.08831,-0.208161 -0.04415,-0.08516 1.848212,-0.123003 0.05677,0.252315 -0.400551,0.277548 0.381628,0.116696 -0.05046,0.141927 -0.94303,0.08516 -0.02208,0.993493 0.94303,-0.03154 -0.107234,0.337472 0.186083,0.0757 -0.03154,0.173467 -0.977723,0.09777 0.041,1.053418 0.97457,-0.03785 -0.06308,0.334318 0.173467,0.07885 -0.07254,0.246008 -1.523356,0.08831 0.02523,-0.32801 -0.394243,0.02523 0.041,-3.021481 -0.07885,-0.129311 0.277547,-0.2397 z"
         style="font-style:normal;font-variant:normal;font-weight:normal;font-stretch:normal;font-family:AngryBirds;-inkscape-font-specification:AngryBirds;stroke-width:0.16148205"
         id="path162" />
      <path
         d="m 43.836158,15.267852 q 0.02523,-0.328011 0.195545,-0.59925 0.173467,-0.27124 0.441552,-0.466784 0.268086,-0.198699 0.596096,-0.324857 0.331165,-0.126158 0.674945,-0.164005 0.06623,-0.0095 0.160851,-0.01262 0.02523,0 0.05046,0.0032 0.129312,0.0032 0.220777,0.0095 l 0.02523,0.082 -0.419475,0.233392 0.334319,0.160851 -0.141928,0.13562 0.09777,0.182929 q -0.233392,0.01892 -0.460476,0.06308 -0.22393,0.04416 -0.403705,0.123004 -0.176621,0.07885 -0.299625,0.192391 -0.123004,0.110388 -0.148236,0.258624 -0.0063,0.03785 -0.0063,0.07569 0,0.119849 0.08516,0.201852 0.110388,0.110388 0.264932,0.182929 0.07885,0.03154 0.160851,0.05992 0.08516,0.02839 0.167159,0.05677 0.07885,0.02523 0.148236,0.04415 0.07254,0.01892 0.123004,0.03154 0.309086,0.09777 0.482553,0.268085 0.176621,0.170313 0.176621,0.501478 0,0.350088 -0.19239,0.618173 -0.189237,0.268086 -0.596096,0.473092 -0.160852,0.07885 -0.324857,0.132466 -0.164005,0.05362 -0.321702,0.09146 -0.154544,0.041 -0.293317,0.05993 -0.138774,0.01892 -0.25547,0.03154 l 0.110388,-0.205007 -0.296471,-0.08516 0.129312,-0.192391 -0.110388,-0.116696 q 0.110388,-0.02523 0.242854,-0.05362 0.132465,-0.03154 0.268085,-0.06939 0.123004,-0.03785 0.249162,-0.09146 0.126158,-0.05677 0.227084,-0.132466 0.10408,-0.07885 0.170313,-0.173467 0.06939,-0.09462 0.06939,-0.201853 0,-0.135619 -0.132466,-0.22393 -0.132465,-0.08831 -0.293317,-0.138774 -0.167159,-0.05677 -0.334318,-0.09462 -0.164005,-0.041 -0.246008,-0.07254 -0.290163,-0.116696 -0.457322,-0.315394 -0.141928,-0.170314 -0.141928,-0.447861 0,-0.04415 0.0032,-0.09146 z"
         style="font-style:normal;font-variant:normal;font-weight:normal;font-stretch:normal;font-family:AngryBirds;-inkscape-font-specification:AngryBirds;stroke-width:0.16148205"
         id="path164" />
      <path
         d="m 46.712559,14.078814 0.03154,-0.113542 2.551543,-0.182929 -0.10408,0.160851 0.182929,0.189237 -0.312241,0.198699 0.312241,0.135619 -0.02523,0.110388 -0.842103,0.05992 -0.04416,3.213872 -0.09777,0.02839 -0.211314,-0.460477 -0.148236,0.394244 -0.157697,-0.160852 -0.186083,0.116696 -0.03154,-3.094021 -0.782178,0.05046 0.03154,-0.116696 -0.110388,-0.08831 0.362704,-0.271239 z"
         style="font-style:normal;font-variant:normal;font-weight:normal;font-stretch:normal;font-family:AngryBirds;-inkscape-font-specification:AngryBirds;stroke-width:0.16148205"
         id="path166" />
      <path
         d="m 49.588957,17.750008 0.832642,-3.986589 0.258623,0.07885 0.236546,-0.208161 0.356396,0.438399 0.201853,-0.394243 0.22393,0.135619 0.20816,-0.11985 0.753794,4.081207 -0.141928,-0.09777 -0.236546,0.13562 -0.182929,-0.233392 -0.173467,0.176621 -0.2397,-0.873644 -1.201653,0.09777 -0.230239,0.879951 -0.06623,0.02523 -0.205007,-0.258623 -0.258624,0.205006 z m 1.056572,-1.504433 0.924106,-0.08516 -0.321702,-1.447662 -0.27124,0.01892 z m 0.170313,-3.049866 0.722254,-1.11019 0.148235,-0.01262 -0.04416,0.255469 0.387935,-0.03154 -0.041,0.154543 0.13562,0.05992 -0.857874,0.760101 -0.154543,-0.154543 -0.227084,0.141928 z"
         style="font-style:normal;font-variant:normal;font-weight:normal;font-stretch:normal;font-family:AngryBirds;-inkscape-font-specification:AngryBirds;stroke-width:0.16148205"
         id="path168" />
      <path
         d="m 54.401882,13.917963 0.123004,0.01892 0.179774,-0.129312 0.189237,0.318549 0.334319,-0.44786 0.10408,0.03469 -0.110388,3.475649 h 1.066034 l -0.264932,0.22393 0.362704,0.141928 -0.182929,0.220776 0.06623,0.09146 -1.453969,0.107234 -0.05677,-0.353242 -0.343781,0.05046 z"
         style="font-style:normal;font-variant:normal;font-weight:normal;font-stretch:normal;font-family:AngryBirds;-inkscape-font-specification:AngryBirds;stroke-width:0.16148205"
         id="path170" />
      <path
         d="m 56.615953,16.343348 q -0.01262,-0.173468 -0.01577,-0.346935 0,-0.19239 0.01892,-0.384781 0.06308,-0.659175 0.182928,-1.034495 0.11985,-0.375319 0.353243,-0.574018 0.08516,-0.07254 0.214468,-0.145081 0.132466,-0.0757 0.293317,-0.129312 0.164005,-0.05677 0.350088,-0.07885 0.08831,-0.0095 0.176621,-0.0095 l 0.198699,0.01262 -0.01262,0.37532 0.315395,-0.192391 0.135619,0.198699 0.214469,-0.08516 q 0.2397,0.246008 0.365857,0.706484 0.129312,0.457322 0.129312,1.122805 0,0.220776 -0.02523,0.482554 -0.02523,0.261778 -0.09146,0.514093 -0.06308,0.249162 -0.170313,0.460476 -0.107234,0.208161 -0.268085,0.324857 -0.227084,0.160851 -0.457323,0.246008 -0.227084,0.08516 -0.444706,0.107234 -0.100926,0.0095 -0.201853,0.0095 -0.110388,0 -0.211314,-0.01262 -0.192391,-0.02523 -0.350088,-0.08516 -0.198699,-0.07254 -0.346934,-0.290164 -0.145082,-0.220776 -0.236546,-0.523555 -0.08831,-0.302779 -0.116696,-0.668636 z m 0.769563,-0.589788 q -0.0095,0.123003 -0.0063,0.242853 0,0.227085 0.03154,0.447861 0.04731,0.334318 0.176621,0.536171 0.06308,0.10408 0.186083,0.157697 0.123004,0.05046 0.261778,0.05046 0.138773,0 0.264931,-0.04731 0.126158,-0.05046 0.192391,-0.154543 0.06308,-0.104081 0.123004,-0.299625 0.06308,-0.198699 0.09777,-0.435245 0.03785,-0.2397 0.04416,-0.498323 0,-0.03469 0,-0.06939 0,-0.220777 -0.03785,-0.425783 -0.041,-0.236546 -0.138774,-0.422629 -0.09462,-0.186083 -0.258623,-0.283855 -0.10408,-0.06308 -0.242854,-0.06308 -0.0063,0 -0.01577,0 -0.148235,0.0032 -0.255469,0.100926 -0.186083,0.167159 -0.293318,0.488862 -0.10408,0.318549 -0.129311,0.674945 z"
         style="font-style:normal;font-variant:normal;font-weight:normal;font-stretch:normal;font-family:AngryBirds;-inkscape-font-specification:AngryBirds;stroke-width:0.16148205"
         id="path172" />
      <path
         d="m 59.864517,15.876563 q 0,-0.186082 0.05362,-0.495169 0.05677,-0.312241 0.176621,-0.63079 0.11985,-0.321702 0.315395,-0.58348 0.198698,-0.261777 0.482554,-0.353242 0.315394,-0.09777 0.602403,-0.132465 0.09462,-0.01262 0.198699,-0.0095 0.201853,0 0.419475,0.04731 0.01262,0.01892 0.01892,0.04731 0.0063,0.02839 0.01892,0.04731 l -0.444706,0.157698 0.309087,0.173467 -0.13562,0.116696 0.05362,0.160851 q -0.08516,0.0063 -0.189237,0.01892 -0.10408,0.01262 -0.20816,0.03469 -0.100927,0.01892 -0.195545,0.04415 -0.09462,0.02523 -0.164005,0.06308 -0.129312,0.06308 -0.220776,0.2397 -0.08831,0.173467 -0.145082,0.381628 -0.05362,0.205006 -0.082,0.410013 -0.02523,0.201852 -0.02523,0.324856 0,0.110389 0.01577,0.261778 0.01892,0.151389 0.05677,0.315395 0.03785,0.160851 0.10408,0.305932 0.06939,0.145082 0.179775,0.236546 0.05677,0.05046 0.173467,0.07885 0.116696,0.02839 0.258624,0.04415 0.141927,0.01262 0.290163,0.01892 0.151389,0.0063 0.280701,0.0063 -0.01262,0.01262 -0.02839,0.03469 -0.01262,0.02208 -0.03154,0.05362 l 0.13562,0.148236 -0.321703,0.182929 0.353242,0.129312 q -0.01262,0.05046 -0.02523,0.07569 -0.387935,0.08516 -0.779024,0.107235 -0.05677,0.0032 -0.113542,0.0032 -0.321703,0 -0.592942,-0.110389 -0.246008,-0.09777 -0.400552,-0.318548 -0.154543,-0.22393 -0.242854,-0.501478 -0.08516,-0.277547 -0.11985,-0.577172 -0.03154,-0.299625 -0.03154,-0.558249 z"
         style="font-style:normal;font-variant:normal;font-weight:normal;font-stretch:normal;font-family:AngryBirds;-inkscape-font-specification:AngryBirds;stroke-width:0.16148205"
         id="path174" />
      <path
         d="m 62.444444,17.750008 0.832642,-3.986589 0.258624,0.07885 0.236546,-0.208161 0.356396,0.438399 0.201853,-0.394243 0.22393,0.135619 0.20816,-0.11985 0.753794,4.081207 -0.141928,-0.09777 -0.236546,0.13562 -0.182929,-0.233392 -0.173467,0.176621 -0.2397,-0.873644 -1.201654,0.09777 -0.230238,0.879951 -0.06623,0.02523 -0.205006,-0.258623 -0.258624,0.205006 z m 1.056573,-1.504433 0.924106,-0.08516 -0.321703,-1.447662 -0.271239,0.01892 z"
         style="font-style:normal;font-variant:normal;font-weight:normal;font-stretch:normal;font-family:AngryBirds;-inkscape-font-specification:AngryBirds;stroke-width:0.16148205"
         id="path176" />
      <path
         d="m 65.970558,13.917963 0.123004,0.01892 0.179774,-0.129312 0.189237,0.318549 0.334319,-0.44786 0.10408,0.03469 -0.110388,3.475649 h 1.066034 l -0.264932,0.22393 0.362704,0.141928 -0.182929,0.220776 0.06623,0.09146 -1.453969,0.107234 -0.05677,-0.353242 -0.343781,0.05046 z"
         style="font-style:normal;font-variant:normal;font-weight:normal;font-stretch:normal;font-family:AngryBirds;-inkscape-font-specification:AngryBirds;stroke-width:0.16148205"
         id="path178" />
      <path
         d="m 68.459021,17.800471 v -4.018128 l 0.141927,-0.05046 0.214469,0.504631 0.271239,-0.485708 0.192391,0.104081 0.182929,-0.06623 -0.110388,4.084361 -0.07885,0.02523 -0.271239,-0.387935 -0.186083,0.340626 -0.167159,-0.06308 z"
         style="font-style:normal;font-variant:normal;font-weight:normal;font-stretch:normal;font-family:AngryBirds;-inkscape-font-specification:AngryBirds;stroke-width:0.16148205"
         id="path180" />
      <path
         d="m 69.979222,14.208126 0.258623,-0.236546 -0.252315,-0.170314 0.03154,-0.08831 2.163607,-0.10408 0.05992,0.154543 -0.182928,0.179775 0.195544,0.182929 -1.207961,2.926863 1.148036,0.03154 0.0063,0.129312 -0.315395,0.277547 0.277548,0.08831 -0.116696,0.10408 0.03154,0.09146 -1.756748,0.07569 0.0063,-0.242854 -0.315395,-0.06623 1.21427,-3.176024 -1.201654,0.02523 z"
         style="font-style:normal;font-variant:normal;font-weight:normal;font-stretch:normal;font-family:AngryBirds;-inkscape-font-specification:AngryBirds;stroke-width:0.16148205"
         id="path182" />
      <path
         d="m 72.473997,17.750008 0.832642,-3.986589 0.258624,0.07885 0.236546,-0.208161 0.356395,0.438399 0.201853,-0.394243 0.22393,0.135619 0.208161,-0.11985 0.753793,4.081207 -0.141928,-0.09777 -0.236546,0.13562 -0.182928,-0.233392 -0.173468,0.176621 -0.239699,-0.873644 -1.201654,0.09777 -0.230238,0.879951 -0.06623,0.02523 -0.205007,-0.258623 -0.258623,0.205006 z m 1.056572,-1.504433 0.924106,-0.08516 -0.321702,-1.447662 -0.271239,0.01892 z"
         style="font-style:normal;font-variant:normal;font-weight:normal;font-stretch:normal;font-family:AngryBirds;-inkscape-font-specification:AngryBirds;stroke-width:0.16148205"
         id="path184" />
      <path
         d="m 75.814023,14.151355 0.154544,-0.16716 q -0.0063,-0.01262 -0.02208,-0.06308 -0.01262,-0.05362 -0.04416,-0.126157 0.179775,-0.05046 0.438398,-0.09462 0.258624,-0.04731 0.545633,-0.05362 0.03469,0 0.06939,0 0.249162,0 0.504632,0.041 0.290163,0.04416 0.536171,0.179775 0.271239,0.148236 0.441552,0.40686 0.170313,0.258623 0.25547,0.570864 0.082,0.302779 0.082,0.637097 0,0.35955 -0.08516,0.700176 -0.082,0.324857 -0.236546,0.605558 -0.154544,0.277547 -0.37532,0.451014 -0.37532,0.302779 -0.816872,0.4794 -0.441553,0.173467 -0.886259,0.217623 l -0.04731,-0.37532 -0.400552,0.05362 0.02839,-2.993095 -0.07885,-0.05046 0.195545,-0.198698 z m 0.87049,0.444706 q 0,0.548787 0.0063,1.040802 0,0.208161 0.0063,0.422629 0.0063,0.211315 0.01262,0.406859 0.0063,0.192391 0.01577,0.346935 0.0095,0.154543 0.02523,0.252315 0.214468,-0.06308 0.400551,-0.157697 0.186083,-0.09462 0.340626,-0.230238 0.154543,-0.13562 0.264932,-0.315395 0.110388,-0.182929 0.160851,-0.422629 0.04416,-0.233392 0.05677,-0.444706 0.0032,-0.03469 0,-0.06939 0,-0.173467 -0.041,-0.324856 -0.04731,-0.179775 -0.170314,-0.318549 -0.123003,-0.138774 -0.334318,-0.217622 -0.082,-0.02839 -0.195545,-0.02839 -0.01261,0 -0.02208,0 -0.126158,0.0032 -0.242854,0.01577 -0.13562,0.01892 -0.283855,0.04415 z"
         style="font-style:normal;font-variant:normal;font-weight:normal;font-stretch:normal;font-family:AngryBirds;-inkscape-font-specification:AngryBirds;stroke-width:0.16148205"
         id="path186" />
      <path
         d="m 79.198209,16.343348 q -0.01262,-0.173468 -0.01577,-0.346935 0,-0.19239 0.01892,-0.384781 0.06308,-0.659175 0.182929,-1.034495 0.11985,-0.375319 0.353242,-0.574018 0.08516,-0.07254 0.214468,-0.145081 0.132466,-0.0757 0.293317,-0.129312 0.164005,-0.05677 0.350088,-0.07885 0.08831,-0.0095 0.176621,-0.0095 l 0.198699,0.01262 -0.01262,0.37532 0.315395,-0.192391 0.13562,0.198699 0.214468,-0.08516 q 0.2397,0.246008 0.365858,0.706484 0.129312,0.457322 0.129312,1.122805 0,0.220776 -0.02523,0.482554 -0.02523,0.261778 -0.09146,0.514093 -0.06308,0.249162 -0.170314,0.460476 -0.107234,0.208161 -0.268085,0.324857 -0.227084,0.160851 -0.457322,0.246008 -0.227084,0.08516 -0.444707,0.107234 -0.100926,0.0095 -0.201852,0.0095 -0.110388,0 -0.211315,-0.01262 -0.192391,-0.02523 -0.350088,-0.08516 -0.198699,-0.07254 -0.346934,-0.290164 -0.145082,-0.220776 -0.236546,-0.523555 -0.08831,-0.302779 -0.116696,-0.668636 z m 0.769563,-0.589788 q -0.0095,0.123003 -0.0063,0.242853 0,0.227085 0.03154,0.447861 0.04731,0.334318 0.176621,0.536171 0.06308,0.10408 0.186082,0.157697 0.123004,0.05046 0.261778,0.05046 0.138774,0 0.264932,-0.04731 0.126157,-0.05046 0.19239,-0.154543 0.06308,-0.104081 0.123004,-0.299625 0.06308,-0.198699 0.09777,-0.435245 0.03785,-0.2397 0.04415,-0.498323 0,-0.03469 0,-0.06939 0,-0.220777 -0.03785,-0.425783 -0.041,-0.236546 -0.138773,-0.422629 -0.09462,-0.186083 -0.258624,-0.283855 -0.10408,-0.06308 -0.242854,-0.06308 -0.0063,0 -0.01577,0 -0.148236,0.0032 -0.25547,0.100926 -0.186083,0.167159 -0.293317,0.488862 -0.10408,0.318549 -0.129312,0.674945 z"
         style="font-style:normal;font-variant:normal;font-weight:normal;font-stretch:normal;font-family:AngryBirds;-inkscape-font-specification:AngryBirds;stroke-width:0.16148205"
         id="path188" />
      <path
         d="m 83.869201,13.83596 0.283855,-0.148236 0.227084,0.236546 0.283856,-0.09462 1.318349,2.393846 h 0.129312 l -0.03785,-2.374922 0.167159,-0.09777 0.290163,0.400552 0.27124,-0.40686 0.116696,0.01892 -0.0063,4.14744 -0.07254,0.04415 -0.230238,-0.2397 -0.324857,0.227085 -0.129312,-0.02523 -1.30258,-2.053219 -0.164005,-0.01892 -0.05046,2.084759 -0.186083,-0.02523 -0.252316,-0.34378 -0.189236,0.381628 -0.110388,-0.05677 z"
         style="font-style:normal;font-variant:normal;font-weight:normal;font-stretch:normal;font-family:AngryBirds;-inkscape-font-specification:AngryBirds;stroke-width:0.16148205"
         id="path190" />
      <path
         d="m 87.272314,17.750008 0.832642,-3.986589 0.258623,0.07885 0.236546,-0.208161 0.356396,0.438399 0.201853,-0.394243 0.22393,0.135619 0.208161,-0.11985 0.753793,4.081207 -0.141928,-0.09777 -0.236546,0.13562 -0.182929,-0.233392 -0.173467,0.176621 -0.2397,-0.873644 -1.201653,0.09777 -0.230238,0.879951 -0.06623,0.02523 -0.205007,-0.258623 -0.258623,0.205006 z m 1.056572,-1.504433 0.924106,-0.08516 -0.321702,-1.447662 -0.27124,0.01892 z"
         style="font-style:normal;font-variant:normal;font-weight:normal;font-stretch:normal;font-family:AngryBirds;-inkscape-font-specification:AngryBirds;stroke-width:0.16148205"
         id="path192" />
      <path
         d="m 91.747763,17.866704 1.021878,-5.058931 0.129312,-0.07254 0.252316,0.287009 0.419475,-0.362704 0.425783,0.523555 0.271239,-0.466784 h 0.03785 l 1.100727,5.040007 -0.116696,0.05046 -0.331165,-0.438399 -0.116696,0.37532 -0.236546,-0.148236 -0.129311,0.129312 -0.246008,-0.756947 -1.504433,0.01262 -0.189237,0.857873 -0.167159,-0.09462 -0.110388,0.100926 -0.123004,-0.365858 -0.309087,0.438399 z m 1.163806,-1.66213 1.245809,-0.082 -0.488862,-2.068989 -0.258623,-0.04415 z"
         style="font-style:normal;font-variant:normal;font-weight:normal;font-stretch:normal;font-family:AngryBirds;-inkscape-font-specification:AngryBirds;stroke-width:0.16148205"
         id="path194" />
      <path
         d="m 95.68389,17.910859 0.198699,-4.210519 0.201852,-0.08516 0.246008,0.561402 0.271239,-0.451014 0.13562,0.135619 0.113542,-0.09777 0.58348,1.816673 h 0.104081 l 0.574018,-1.835597 0.186083,0.141928 0.252316,-0.198699 0.220776,0.315395 0.283855,-0.258624 0.192391,4.030744 -0.123004,0.03154 -0.205007,-0.346934 -0.129312,0.321702 -0.116696,-0.10408 -0.160851,0.06623 -0.141927,-1.971217 -0.116696,-0.03154 -0.678099,1.819827 -0.116696,-0.100926 -0.123004,0.05046 -0.665483,-1.706285 -0.10408,-0.01262 -0.13562,2.002756 -0.198698,0.05677 -0.246008,-0.391089 -0.192391,0.482554 z"
         style="font-style:normal;font-variant:normal;font-weight:normal;font-stretch:normal;font-family:AngryBirds;-inkscape-font-specification:AngryBirds;stroke-width:0.16148205"
         id="path196" />
      <path
         d="m 99.620016,14.094584 0.08831,-0.208161 -0.04416,-0.08516 1.848209,-0.123003 0.0568,0.252315 -0.40055,0.277548 0.38163,0.116696 -0.0505,0.141927 -0.94303,0.08516 -0.0221,0.993493 0.94303,-0.03154 -0.10723,0.337472 0.18608,0.0757 -0.0315,0.173467 -0.97772,0.09777 0.041,1.053418 0.97457,-0.03785 -0.0631,0.334318 0.17346,0.07885 -0.0725,0.246008 -1.52335,0.08831 0.0252,-0.32801 -0.394244,0.02523 0.041,-3.021481 -0.07885,-0.129311 0.277547,-0.2397 z m 0.586634,-0.85472 0.72225,-1.110189 0.14824,-0.01262 -0.0442,0.258624 0.38794,-0.03154 -0.0378,0.154544 0.13562,0.05677 -0.86103,0.763255 -0.15454,-0.154544 -0.22708,0.141928 z"
         style="font-style:normal;font-variant:normal;font-weight:normal;font-stretch:normal;font-family:AngryBirds;-inkscape-font-specification:AngryBirds;stroke-width:0.16148205"
         id="path198" />
      <path
         d="m 101.8877,13.949502 0.0221,-0.11985 q 0.35639,-0.116696 0.71279,-0.176621 0.35955,-0.06308 0.69387,-0.06623 0.0189,0 0.0347,0 0.3154,0 0.58979,0.05362 0.28701,0.05677 0.49832,0.195545 0.19239,0.123004 0.30594,0.309087 0.11669,0.186083 0.13877,0.419475 0.006,0.05677 0.006,0.11985 0,0.179775 -0.0536,0.381627 -0.0694,0.268086 -0.2397,0.545633 -0.0315,0.05677 -0.0978,0.141928 -0.0662,0.08516 -0.14508,0.182928 -0.0757,0.09462 -0.16716,0.189237 -0.0883,0.09146 -0.17347,0.164005 0.0789,0.186083 0.16716,0.394244 0.0915,0.205006 0.17662,0.397397 0.0883,0.189237 0.16716,0.350088 0.0789,0.157698 0.123,0.246008 l -0.0442,0.04731 -0.37532,-0.20816 -0.0189,0.321702 -0.12932,-0.05677 -0.11669,0.07885 -0.78218,-1.207962 -0.40686,0.160852 -0.0315,0.968261 -0.10408,-0.01262 -0.21447,-0.337472 -0.16716,0.435245 -0.11669,-0.04731 q -0.006,-0.192391 -0.0221,-0.551941 -0.0158,-0.35955 -0.0284,-0.782179 -0.0126,-0.422629 -0.0126,-0.857873 0,-0.435245 0.0252,-0.791641 l 0.0189,-0.252316 -0.205,-0.148235 0.34062,-0.309087 z m 0.93041,2.031142 q 0.2334,-0.09146 0.4794,-0.246008 0.24601,-0.154544 0.42579,-0.337472 0.17977,-0.186083 0.26178,-0.384782 0.0378,-0.08831 0.0378,-0.176621 0,-0.10408 -0.0536,-0.205007 -0.0568,-0.10408 -0.24286,-0.132465 -0.15139,-0.02523 -0.31224,-0.02523 -0.0347,0 -0.0725,0 -0.23339,0.01262 -0.51094,0.05992 z"
         style="font-style:normal;font-variant:normal;font-weight:normal;font-stretch:normal;font-family:AngryBirds;-inkscape-font-specification:AngryBirds;stroke-width:0.16148205"
         id="path200" />
      <path
         d="m 105.32235,17.800471 v -4.018128 l 0.14193,-0.05046 0.21447,0.504631 0.27124,-0.485708 0.19239,0.104081 0.18293,-0.06623 -0.11039,4.084361 -0.0789,0.02523 -0.27124,-0.387935 -0.18608,0.340626 -0.16716,-0.06308 z"
         style="font-style:normal;font-variant:normal;font-weight:normal;font-stretch:normal;font-family:AngryBirds;-inkscape-font-specification:AngryBirds;stroke-width:0.16148205"
         id="path202" />
      <path
         d="m 106.77001,15.876563 q 0,-0.186082 0.0536,-0.495169 0.0568,-0.312241 0.17662,-0.63079 0.11985,-0.321702 0.31539,-0.58348 0.1987,-0.261777 0.48256,-0.353242 0.31539,-0.09777 0.6024,-0.132465 0.0946,-0.01262 0.1987,-0.0095 0.20185,0 0.41948,0.04731 0.0126,0.01892 0.0189,0.04731 0.006,0.02839 0.0189,0.04731 l -0.4447,0.157698 0.30908,0.173467 -0.13562,0.116696 0.0536,0.160851 q -0.0852,0.0063 -0.18924,0.01892 -0.10408,0.01262 -0.20816,0.03469 -0.10092,0.01892 -0.19554,0.04415 -0.0946,0.02523 -0.16401,0.06308 -0.12931,0.06308 -0.22077,0.2397 -0.0883,0.173467 -0.14508,0.381628 -0.0536,0.205006 -0.082,0.410013 -0.0252,0.201852 -0.0252,0.324856 0,0.110389 0.0158,0.261778 0.0189,0.151389 0.0568,0.315395 0.0379,0.160851 0.10408,0.305932 0.0694,0.145082 0.17978,0.236546 0.0568,0.05046 0.17346,0.07885 0.1167,0.02839 0.25863,0.04415 0.14193,0.01262 0.29016,0.01892 0.15139,0.0063 0.2807,0.0063 -0.0126,0.01262 -0.0284,0.03469 -0.0126,0.02208 -0.0315,0.05362 l 0.13562,0.148236 -0.32171,0.182929 0.35325,0.129312 q -0.0126,0.05046 -0.0252,0.07569 -0.38794,0.08516 -0.77903,0.107235 -0.0568,0.0032 -0.11354,0.0032 -0.3217,0 -0.59294,-0.110389 -0.24601,-0.09777 -0.40055,-0.318548 -0.15455,-0.22393 -0.24286,-0.501478 -0.0852,-0.277547 -0.11985,-0.577172 -0.0315,-0.299625 -0.0315,-0.558249 z"
         style="font-style:normal;font-variant:normal;font-weight:normal;font-stretch:normal;font-family:AngryBirds;-inkscape-font-specification:AngryBirds;stroke-width:0.16148205"
         id="path204" />
      <path
         d="m 109.34994,17.750008 0.83264,-3.986589 0.25863,0.07885 0.23654,-0.208161 0.3564,0.438399 0.20185,-0.394243 0.22393,0.135619 0.20816,-0.11985 0.7538,4.081207 -0.14193,-0.09777 -0.23655,0.13562 -0.18293,-0.233392 -0.17346,0.176621 -0.2397,-0.873644 -1.20166,0.09777 -0.23023,0.879951 -0.0662,0.02523 -0.205,-0.258623 -0.25863,0.205006 z m 1.05658,-1.504433 0.9241,-0.08516 -0.3217,-1.447662 -0.27124,0.01892 z"
         style="font-style:normal;font-variant:normal;font-weight:normal;font-stretch:normal;font-family:AngryBirds;-inkscape-font-specification:AngryBirds;stroke-width:0.16148205"
         id="path206" />
      <path
         d="m 113.94524,15.488628 q 0.009,-0.309087 0.0379,-0.580326 0.0252,-0.309087 0.11985,-0.637097 0.0978,-0.328011 0.25862,-0.611866 0.16401,-0.283855 0.39109,-0.504632 0.23024,-0.22393 0.52671,-0.334318 0.24601,-0.08831 0.53617,-0.08831 0.0284,0 0.0599,0 0.3217,0.0095 0.71594,0.179775 l 0.0252,0.123003 -0.40055,0.217623 0.35009,0.337472 -0.22077,0.110388 0.123,0.211315 q -0.13562,-0.03785 -0.2807,-0.05677 -0.11039,-0.01577 -0.21762,-0.01577 l -0.0725,0.0032 q -0.14508,0.0063 -0.28385,0.04731 -0.13877,0.041 -0.25547,0.138774 -0.12931,0.10408 -0.23024,0.32801 -0.10092,0.220776 -0.164,0.498324 -0.0599,0.277547 -0.0789,0.589788 -0.006,0.110388 -0.006,0.214468 0,0.195545 0.0221,0.37532 0.0347,0.280701 0.13562,0.501477 0.10092,0.217623 0.26808,0.315395 0.0978,0.05677 0.23655,0.07569 0.0978,0.01262 0.20185,0.0095 0.041,0 0.082,0 0.14509,-0.0063 0.28701,-0.02839 0.14508,-0.02523 0.25863,-0.05046 -0.0126,0.03154 -0.0158,0.07254 -0.003,0.03785 -0.0158,0.07569 -0.0126,0.04416 -0.0189,0.09146 l 0.30909,0.148235 -0.48886,0.321703 0.41947,0.110388 -0.0536,0.116696 q -0.28386,0.10408 -0.61502,0.126158 -0.0852,0.0063 -0.17032,0.0063 -0.24285,0 -0.47624,-0.04731 -0.31224,-0.06308 -0.57402,-0.217623 -0.26178,-0.157697 -0.3974,-0.410013 -0.13562,-0.246008 -0.20816,-0.539325 -0.0694,-0.293317 -0.0978,-0.602404 -0.0221,-0.233392 -0.0221,-0.466784 -0.003,-0.07569 0,-0.154543 z"
         style="font-style:normal;font-variant:normal;font-weight:normal;font-stretch:normal;font-family:AngryBirds;-inkscape-font-specification:AngryBirds;stroke-width:0.16148205"
         id="path208" />
      <path
         d="m 117.09288,14.094584 0.0883,-0.208161 -0.0442,-0.08516 1.84822,-0.123003 0.0568,0.252315 -0.40055,0.277548 0.38162,0.116696 -0.0505,0.141927 -0.94303,0.08516 -0.0221,0.993493 0.94303,-0.03154 -0.10723,0.337472 0.18608,0.0757 -0.0315,0.173467 -0.97772,0.09777 0.041,1.053418 0.97457,-0.03785 -0.0631,0.334318 0.17347,0.07885 -0.0725,0.246008 -1.52336,0.08831 0.0252,-0.32801 -0.39424,0.02523 0.041,-3.021481 -0.0789,-0.129311 0.27755,-0.2397 z"
         style="font-style:normal;font-variant:normal;font-weight:normal;font-stretch:normal;font-family:AngryBirds;-inkscape-font-specification:AngryBirds;stroke-width:0.16148205"
         id="path210" />
      <path
         d="m 119.57188,13.83596 0.28386,-0.148236 0.22708,0.236546 0.28386,-0.09462 1.31835,2.393846 h 0.12931 l -0.0379,-2.374922 0.16716,-0.09777 0.29016,0.400552 0.27124,-0.40686 0.1167,0.01892 -0.006,4.14744 -0.0725,0.04415 -0.23024,-0.2397 -0.32485,0.227085 -0.12932,-0.02523 -1.30258,-2.053219 -0.164,-0.01892 -0.0505,2.084759 -0.18609,-0.02523 -0.25231,-0.34378 -0.18924,0.381628 -0.11039,-0.05677 z"
         style="font-style:normal;font-variant:normal;font-weight:normal;font-stretch:normal;font-family:AngryBirds;-inkscape-font-specification:AngryBirds;stroke-width:0.16148205"
         id="path212" />
      <path
         d="m 123.02545,14.078814 0.0315,-0.113542 2.55154,-0.182929 -0.10408,0.160851 0.18293,0.189237 -0.31224,0.198699 0.31224,0.135619 -0.0252,0.110388 -0.8421,0.05992 -0.0442,3.213872 -0.0978,0.02839 -0.21131,-0.460477 -0.14824,0.394244 -0.1577,-0.160852 -0.18608,0.116696 -0.0315,-3.094021 -0.78218,0.05046 0.0315,-0.116696 -0.11039,-0.08831 0.36271,-0.271239 z"
         style="font-style:normal;font-variant:normal;font-weight:normal;font-stretch:normal;font-family:AngryBirds;-inkscape-font-specification:AngryBirds;stroke-width:0.16148205"
         id="path214" />
      <path
         d="m 126.0217,13.949502 0.0221,-0.11985 q 0.3564,-0.116696 0.71279,-0.176621 0.35955,-0.06308 0.69387,-0.06623 0.0189,0 0.0347,0 0.3154,0 0.58979,0.05362 0.28701,0.05677 0.49833,0.195545 0.19239,0.123004 0.30593,0.309087 0.1167,0.186083 0.13877,0.419475 0.006,0.05677 0.006,0.11985 0,0.179775 -0.0536,0.381627 -0.0694,0.268086 -0.2397,0.545633 -0.0315,0.05677 -0.0978,0.141928 -0.0662,0.08516 -0.14508,0.182928 -0.0757,0.09462 -0.16716,0.189237 -0.0883,0.09146 -0.17347,0.164005 0.0789,0.186083 0.16716,0.394244 0.0915,0.205006 0.17662,0.397397 0.0883,0.189237 0.16716,0.350088 0.0788,0.157698 0.12301,0.246008 l -0.0442,0.04731 -0.37532,-0.20816 -0.0189,0.321702 -0.12931,-0.05677 -0.1167,0.07885 -0.78218,-1.207962 -0.40686,0.160852 -0.0315,0.968261 -0.10408,-0.01262 -0.21447,-0.337472 -0.16715,0.435245 -0.1167,-0.04731 q -0.006,-0.192391 -0.0221,-0.551941 -0.0158,-0.35955 -0.0284,-0.782179 -0.0126,-0.422629 -0.0126,-0.857873 0,-0.435245 0.0252,-0.791641 l 0.0189,-0.252316 -0.20501,-0.148235 0.34063,-0.309087 z m 0.93042,2.031142 q 0.23339,-0.09146 0.4794,-0.246008 0.24601,-0.154544 0.42578,-0.337472 0.17978,-0.186083 0.26178,-0.384782 0.0378,-0.08831 0.0378,-0.176621 0,-0.10408 -0.0536,-0.205007 -0.0568,-0.10408 -0.24286,-0.132465 -0.15139,-0.02523 -0.31224,-0.02523 -0.0347,0 -0.0725,0 -0.23339,0.01262 -0.51094,0.05992 z"
         style="font-style:normal;font-variant:normal;font-weight:normal;font-stretch:normal;font-family:AngryBirds;-inkscape-font-specification:AngryBirds;stroke-width:0.16148205"
         id="path216" />
      <path
         d="m 129.21981,17.750008 0.83264,-3.986589 0.25862,0.07885 0.23655,-0.208161 0.3564,0.438399 0.20185,-0.394243 0.22393,0.135619 0.20816,-0.11985 0.75379,4.081207 -0.14193,-0.09777 -0.23654,0.13562 -0.18293,-0.233392 -0.17347,0.176621 -0.2397,-0.873644 -1.20165,0.09777 -0.23024,0.879951 -0.0662,0.02523 -0.20501,-0.258623 -0.25862,0.205006 z m 1.05657,-1.504433 0.92411,-0.08516 -0.32171,-1.447662 -0.27124,0.01892 z"
         style="font-style:normal;font-variant:normal;font-weight:normal;font-stretch:normal;font-family:AngryBirds;-inkscape-font-specification:AngryBirds;stroke-width:0.16148205"
         id="path218" />
      <path
         d="m 132.74592,13.917963 0.123,0.01892 0.17978,-0.129312 0.18923,0.318549 0.33432,-0.44786 0.10408,0.03469 -0.11039,3.475649 h 1.06604 l -0.26493,0.22393 0.3627,0.141928 -0.18293,0.220776 0.0662,0.09146 -1.45397,0.107234 -0.0568,-0.353242 -0.34378,0.05046 z"
         style="font-style:normal;font-variant:normal;font-weight:normal;font-stretch:normal;font-family:AngryBirds;-inkscape-font-specification:AngryBirds;stroke-width:0.16148205"
         id="path220" />
      <path
         d="m 135.247,17.787855 q -0.11354,-0.123004 -0.123,-0.258623 -0.006,-0.13562 0.0284,-0.356396 0.0189,-0.148236 0.10724,-0.261778 0.0915,-0.116696 0.22077,-0.176621 0.12931,-0.06308 0.2744,-0.06308 0.14508,0 0.27439,0.082 0.0378,0.02523 0.0599,0.141927 0.0252,0.116696 0.0158,0.261778 -0.009,0.145081 -0.0568,0.283855 -0.0442,0.138774 -0.12931,0.211314 -0.0788,0.06308 -0.17977,0.110389 -0.0978,0.04415 -0.19555,0.06308 -0.0946,0.01892 -0.17662,0.0095 -0.0788,-0.0095 -0.11985,-0.04731 z"
         style="font-style:normal;font-variant:normal;font-weight:normal;font-stretch:normal;font-family:AngryBirds;-inkscape-font-specification:AngryBirds;stroke-width:0.16148205"
         id="path222" />
      <path
         d="m 11.754213,22.05966 0.03785,-0.157698 q 0.264932,-0.09777 0.605558,-0.170313 0.34378,-0.07254 0.684406,-0.09462 0.08831,-0.0063 0.173467,-0.0032 0.242854,0 0.460477,0.041 0.293317,0.05362 0.454168,0.208161 0.258624,0.252315 0.350088,0.577172 0.06308,0.220776 0.05992,0.441552 0,0.104081 -0.01262,0.208161 -0.041,0.32801 -0.198698,0.640251 -0.154544,0.309087 -0.39109,0.536171 -0.07885,0.07254 -0.201852,0.151389 -0.123004,0.07569 -0.274394,0.148236 -0.151389,0.06939 -0.331164,0.132466 -0.176621,0.05992 -0.356396,0.09777 l -0.0063,1.122805 -0.116696,0.041 -0.129312,-0.362704 -0.258623,0.350089 -0.16716,-0.195545 -0.129311,0.07885 -0.03154,-3.229641 -0.141927,-0.110388 0.387935,-0.400551 z m 0.980877,0.476245 0.03469,1.517049 q 0.160851,-0.05677 0.296471,-0.123004 0.116696,-0.05046 0.22393,-0.10408 0.110388,-0.05677 0.164005,-0.100927 0.13562,-0.123004 0.230238,-0.290163 0.09777,-0.167159 0.126158,-0.340626 0.0095,-0.06308 0.01262,-0.11985 0,-0.107234 -0.03469,-0.205006 -0.05046,-0.154544 -0.217622,-0.258624 -0.07885,-0.04731 -0.20816,-0.05046 -0.0095,0 -0.01577,0.0032 -0.138774,0.0032 -0.274393,0.01577 -0.164006,0.02523 -0.337473,0.05677 z"
         style="font-style:normal;font-variant:normal;font-weight:normal;font-stretch:normal;font-family:AngryBirds;-inkscape-font-specification:AngryBirds;stroke-width:0.16148205"
         id="path224" />
      <path
         d="m 15.106858,25.888551 q -0.113542,-0.123004 -0.123004,-0.258624 -0.0063,-0.135619 0.02839,-0.356396 0.01892,-0.148235 0.107234,-0.261777 0.09146,-0.116696 0.220776,-0.176621 0.129312,-0.06308 0.274394,-0.06308 0.145081,0 0.274393,0.082 0.03785,0.02523 0.05992,0.141928 0.02523,0.116696 0.01577,0.261777 -0.0095,0.145082 -0.05677,0.283856 -0.04416,0.138773 -0.129312,0.211314 -0.07885,0.06308 -0.179775,0.110388 -0.09777,0.04416 -0.195545,0.06308 -0.09462,0.01892 -0.176621,0.0095 -0.07885,-0.0095 -0.11985,-0.04731 z m 0.164005,-2.337075 q -0.116696,-0.123004 -0.123004,-0.258623 -0.0063,-0.13562 0.02523,-0.356396 0.01892,-0.148236 0.107234,-0.264932 0.09147,-0.116696 0.220776,-0.176621 0.129312,-0.06308 0.274394,-0.06308 0.145081,0 0.274393,0.08516 0.03785,0.02523 0.05992,0.141927 0.02523,0.116696 0.01577,0.261778 -0.0095,0.145082 -0.05677,0.283855 -0.04415,0.138774 -0.126158,0.211315 -0.07885,0.06308 -0.179775,0.110388 -0.09777,0.04415 -0.195545,0.06308 -0.09777,0.01892 -0.179775,0.0095 -0.07885,-0.0095 -0.116696,-0.04731 z"
         style="font-style:normal;font-variant:normal;font-weight:normal;font-stretch:normal;font-family:AngryBirds;-inkscape-font-specification:AngryBirds;stroke-width:0.16148205"
         id="path226" />
      <path
         d="m 17.70571,25.945322 0.684407,-5.011621 0.176621,0.03154 0.154543,-0.082 0.198699,0.605558 0.233392,-0.536171 0.19239,-0.05046 0.693869,2.545235 0.148235,0.01892 0.760101,-2.520004 0.160852,0.07885 0.318548,-0.220776 0.227084,0.160851 0.173468,-0.02523 0.586634,4.973774 -0.223931,-0.167159 -0.145081,0.252316 -0.296471,-0.387935 -0.148236,0.438398 -0.09146,-0.0063 -0.302779,-2.706086 -0.148235,0.03154 -0.794795,2.583083 -0.03154,0.01577 -0.233392,-0.536171 -0.110388,0.501477 -0.06308,-0.0063 -0.697022,-2.510541 -0.13562,-0.0063 -0.369011,2.583082 -0.07254,-0.03154 -0.154544,0.06939 -0.217622,-0.413167 -0.381627,0.37532 z"
         style="font-style:normal;font-variant:normal;font-weight:normal;font-stretch:normal;font-family:AngryBirds;-inkscape-font-specification:AngryBirds;stroke-width:0.16148205"
         id="path228" />
      <path
         d="m 22.591174,25.850703 0.832642,-3.986588 0.258624,0.07885 0.236546,-0.20816 0.356396,0.438399 0.201852,-0.394244 0.22393,0.13562 0.208161,-0.11985 0.753793,4.081207 -0.141928,-0.09777 -0.236546,0.135619 -0.182928,-0.233392 -0.173468,0.176621 -0.239699,-0.873643 -1.201654,0.09777 -0.230238,0.879952 -0.06623,0.02523 -0.205007,-0.258623 -0.258623,0.205006 z m 1.056572,-1.504432 0.924106,-0.08516 -0.321702,-1.447661 -0.271239,0.01892 z"
         style="font-style:normal;font-variant:normal;font-weight:normal;font-stretch:normal;font-family:AngryBirds;-inkscape-font-specification:AngryBirds;stroke-width:0.16148205"
         id="path230" />
      <path
         d="m 26.013206,21.936656 0.283855,-0.148236 0.227084,0.236546 0.283855,-0.09462 1.31835,2.393845 h 0.129312 l -0.03785,-2.374922 0.167159,-0.09777 0.290163,0.400551 0.271239,-0.406859 0.116696,0.01892 -0.0063,4.14744 -0.07254,0.04415 -0.230238,-0.2397 -0.324857,0.227084 -0.129312,-0.02523 -1.30258,-2.05322 -0.164005,-0.01892 -0.05046,2.084758 -0.186083,-0.02523 -0.252316,-0.34378 -0.189237,0.381627 -0.110388,-0.05677 z"
         style="font-style:normal;font-variant:normal;font-weight:normal;font-stretch:normal;font-family:AngryBirds;-inkscape-font-specification:AngryBirds;stroke-width:0.16148205"
         id="path232" />
      <path
         d="m 29.416315,25.850703 0.832642,-3.986588 0.258623,0.07885 0.236546,-0.20816 0.356396,0.438399 0.201853,-0.394244 0.22393,0.13562 0.208161,-0.11985 0.753793,4.081207 -0.141928,-0.09777 -0.236546,0.135619 -0.182929,-0.233392 -0.173467,0.176621 -0.2397,-0.873643 -1.201653,0.09777 -0.230238,0.879952 -0.06623,0.02523 -0.205007,-0.258623 -0.258623,0.205006 z m 1.056572,-1.504432 0.924106,-0.08516 -0.321702,-1.447661 -0.27124,0.01892 z"
         style="font-style:normal;font-variant:normal;font-weight:normal;font-stretch:normal;font-family:AngryBirds;-inkscape-font-specification:AngryBirds;stroke-width:0.16148205"
         id="path234" />
      <path
         d="m 32.756343,24.330501 q 0,-0.362704 0.0032,-0.656021 0.0032,-0.293317 0.01892,-0.56771 0.01577,-0.274394 0.041,-0.561403 0.02523,-0.287009 0.07254,-0.630789 l 0.211314,0.08516 0.252316,-0.192391 0.2397,0.148235 0.08831,-0.03154 q -0.01892,0.192391 -0.041,0.504631 -0.02208,0.309087 -0.04415,0.649713 -0.02208,0.337473 -0.03154,0.659175 -0.0032,0.138774 -0.0063,0.25547 0,0.157697 0.0095,0.280701 0.03154,0.608712 0.32801,0.772717 0.09777,0.05362 0.22393,0.05362 0.252316,0 0.608712,-0.217622 0.03785,-0.09146 0.05992,-0.261778 0.02523,-0.173467 0.03785,-0.387935 0.01262,-0.217623 0.01892,-0.46363 0.0063,-0.246008 0.0063,-0.49517 0.0063,-0.419475 0.0095,-0.829488 0.0032,-0.413167 0.01577,-0.690714 l 0.176621,-0.04416 0.217623,0.438399 0.283855,-0.413167 0.151389,-0.0063 q -0.0063,0.264932 -0.01577,0.731716 -0.0063,0.46363 -0.01262,1.03134 -0.0063,0.567711 -0.0063,1.179576 0,0.608712 0.01262,1.154345 l -0.160852,-0.05362 -0.217622,0.189237 -0.2397,-0.157698 -0.189237,0.09146 q -0.0063,-0.03154 -0.02208,-0.08516 -0.01577,-0.05677 -0.05992,-0.173467 -0.192391,0.08516 -0.425783,0.148236 -0.233392,0.05992 -0.457322,0.082 -0.11985,0.01262 -0.230238,0.01262 -0.09462,0 -0.182929,-0.0095 -0.189237,-0.01892 -0.293317,-0.09777 -0.160852,-0.116696 -0.252316,-0.321703 -0.09146,-0.20816 -0.13562,-0.425783 -0.04416,-0.220776 -0.05362,-0.410013 -0.0095,-0.19239 -0.0095,-0.283855 z"
         style="font-style:normal;font-variant:normal;font-weight:normal;font-stretch:normal;font-family:AngryBirds;-inkscape-font-specification:AngryBirds;stroke-width:0.16148205"
         id="path236" />
      <path
         d="m 36.064834,23.368547 q 0.02523,-0.32801 0.195545,-0.599249 0.173467,-0.27124 0.441552,-0.466785 0.268086,-0.198698 0.596096,-0.324856 0.331165,-0.126158 0.674945,-0.164005 0.06623,-0.0095 0.160851,-0.01262 0.02523,0 0.05046,0.0032 0.129312,0.0032 0.220776,0.0095 l 0.02523,0.082 -0.419475,0.233392 0.334318,0.160852 -0.141927,0.135619 0.09777,0.182929 q -0.233392,0.01892 -0.460476,0.06308 -0.22393,0.04415 -0.403705,0.123004 -0.176621,0.07885 -0.299625,0.192391 -0.123004,0.110388 -0.148236,0.258623 -0.0063,0.03785 -0.0063,0.07569 0,0.11985 0.08516,0.201853 0.110388,0.110388 0.264932,0.182929 0.07885,0.03154 0.160851,0.05992 0.08516,0.02839 0.167159,0.05677 0.07885,0.02523 0.148235,0.04415 0.07254,0.01892 0.123004,0.03154 0.309087,0.09777 0.482554,0.268086 0.176621,0.170313 0.176621,0.501477 0,0.350089 -0.19239,0.618174 -0.189237,0.268085 -0.596096,0.473092 -0.160852,0.07885 -0.324857,0.132466 -0.164005,0.05362 -0.321702,0.09146 -0.154544,0.041 -0.293318,0.05992 -0.138773,0.01892 -0.255469,0.03154 l 0.110388,-0.205007 -0.296471,-0.08516 0.129312,-0.192391 -0.110388,-0.116696 q 0.110388,-0.02523 0.242854,-0.05362 0.132465,-0.03154 0.268085,-0.06939 0.123004,-0.03785 0.249162,-0.09146 0.126158,-0.05677 0.227084,-0.132465 0.10408,-0.07885 0.170313,-0.173467 0.06939,-0.09462 0.06939,-0.201853 0,-0.13562 -0.132466,-0.22393 -0.132466,-0.08831 -0.293317,-0.138774 -0.167159,-0.05677 -0.334318,-0.09462 -0.164006,-0.041 -0.246008,-0.07254 -0.290163,-0.116696 -0.457322,-0.315395 -0.141928,-0.170313 -0.141928,-0.44786 0,-0.04415 0.0032,-0.09146 z"
         style="font-style:normal;font-variant:normal;font-weight:normal;font-stretch:normal;font-family:AngryBirds;-inkscape-font-specification:AngryBirds;stroke-width:0.16148205"
         id="path238" />
      <path
         d="m 40.313199,22.195279 0.08831,-0.20816 -0.04416,-0.08516 1.848212,-0.123004 0.05677,0.252316 -0.400551,0.277547 0.381628,0.116696 -0.05046,0.141928 -0.94303,0.08516 -0.02208,0.993493 0.94303,-0.03154 -0.107234,0.337473 0.186083,0.07569 -0.03154,0.173467 -0.977723,0.09777 0.041,1.053418 0.97457,-0.03785 -0.06308,0.334318 0.173467,0.07885 -0.07254,0.246007 -1.523356,0.08831 0.02523,-0.328011 -0.394243,0.02523 0.041,-3.021481 -0.07885,-0.129312 0.277547,-0.2397 z m 0.586635,-0.854719 0.722253,-1.11019 0.148236,-0.01262 -0.04415,0.258623 0.387935,-0.03154 -0.03785,0.154543 0.135619,0.05677 -0.861027,0.763255 -0.154544,-0.154543 -0.227084,0.141928 z"
         style="font-style:normal;font-variant:normal;font-weight:normal;font-stretch:normal;font-family:AngryBirds;-inkscape-font-specification:AngryBirds;stroke-width:0.16148205"
         id="path240" />
      <path
         d="m 43.88347,24.330501 q 0,-0.362704 0.0032,-0.656021 0.0032,-0.293317 0.01892,-0.56771 0.01577,-0.274394 0.041,-0.561403 0.02523,-0.287009 0.07254,-0.630789 l 0.211314,0.08516 0.252316,-0.192391 0.2397,0.148235 0.08831,-0.03154 q -0.01892,0.192391 -0.041,0.504631 -0.02208,0.309087 -0.04415,0.649713 -0.02208,0.337473 -0.03154,0.659175 -0.0032,0.138774 -0.0063,0.25547 0,0.157697 0.0095,0.280701 0.03154,0.608712 0.328011,0.772717 0.09777,0.05362 0.22393,0.05362 0.252316,0 0.608712,-0.217622 0.03785,-0.09146 0.05992,-0.261778 0.02523,-0.173467 0.03785,-0.387935 0.01262,-0.217623 0.01892,-0.46363 0.0063,-0.246008 0.0063,-0.49517 0.0063,-0.419475 0.0095,-0.829488 0.0032,-0.413167 0.01577,-0.690714 l 0.176621,-0.04416 0.217622,0.438399 0.283856,-0.413167 0.151389,-0.0063 q -0.0063,0.264932 -0.01577,0.731716 -0.0063,0.46363 -0.01262,1.03134 -0.0063,0.567711 -0.0063,1.179576 0,0.608712 0.01261,1.154345 l -0.160851,-0.05362 -0.217622,0.189237 -0.2397,-0.157698 -0.189237,0.09146 q -0.0063,-0.03154 -0.02208,-0.08516 -0.01577,-0.05677 -0.05992,-0.173467 -0.19239,0.08516 -0.425782,0.148236 -0.233392,0.05992 -0.457323,0.082 -0.11985,0.01262 -0.230238,0.01262 -0.09462,0 -0.182929,-0.0095 -0.189236,-0.01892 -0.293317,-0.09777 -0.160851,-0.116696 -0.252315,-0.321703 -0.09146,-0.20816 -0.13562,-0.425783 -0.04415,-0.220776 -0.05362,-0.410013 -0.0095,-0.19239 -0.0095,-0.283855 z"
         style="font-style:normal;font-variant:normal;font-weight:normal;font-stretch:normal;font-family:AngryBirds;-inkscape-font-specification:AngryBirds;stroke-width:0.16148205"
         id="path242" />
      <path
         d="m 47.239268,26.011555 0.198699,-4.210519 0.201852,-0.08516 0.246008,0.561403 0.271239,-0.451015 0.13562,0.13562 0.113542,-0.09777 0.58348,1.816673 h 0.104081 l 0.574018,-1.835597 0.186083,0.141928 0.252316,-0.198699 0.220776,0.315395 0.283855,-0.258624 0.192391,4.030744 -0.123004,0.03154 -0.205007,-0.346935 -0.129312,0.321703 -0.116696,-0.10408 -0.160851,0.06623 -0.141927,-1.971217 -0.116696,-0.03154 -0.678099,1.819828 -0.116696,-0.100927 -0.123004,0.05046 -0.665483,-1.706286 -0.10408,-0.01262 -0.13562,2.002756 -0.198698,0.05677 -0.246008,-0.39109 -0.192391,0.482554 z"
         style="font-style:normal;font-variant:normal;font-weight:normal;font-stretch:normal;font-family:AngryBirds;-inkscape-font-specification:AngryBirds;stroke-width:0.16148205"
         id="path244" />
      <path
         d="m 52.462201,22.195279 0.08831,-0.20816 -0.04415,-0.08516 1.848213,-0.123004 0.05677,0.252316 -0.400552,0.277547 0.381628,0.116696 -0.05046,0.141928 -0.94303,0.08516 -0.02208,0.993493 0.94303,-0.03154 -0.107234,0.337473 0.186083,0.07569 -0.03154,0.173467 -0.977723,0.09777 0.041,1.053418 0.97457,-0.03785 -0.06308,0.334318 0.173467,0.07885 -0.07254,0.246007 -1.523356,0.08831 0.02523,-0.328011 -0.394243,0.02523 0.041,-3.021481 -0.07885,-0.129312 0.277547,-0.2397 z"
         style="font-style:normal;font-variant:normal;font-weight:normal;font-stretch:normal;font-family:AngryBirds;-inkscape-font-specification:AngryBirds;stroke-width:0.16148205"
         id="path246" />
      <path
         d="m 54.837127,23.368547 q 0.02523,-0.32801 0.195545,-0.599249 0.173467,-0.27124 0.441552,-0.466785 0.268086,-0.198698 0.596096,-0.324856 0.331165,-0.126158 0.674945,-0.164005 0.06623,-0.0095 0.160851,-0.01262 0.02523,0 0.05046,0.0032 0.129312,0.0032 0.220777,0.0095 l 0.02523,0.082 -0.419475,0.233392 0.334319,0.160852 -0.141928,0.135619 0.09777,0.182929 q -0.233392,0.01892 -0.460476,0.06308 -0.22393,0.04415 -0.403705,0.123004 -0.176621,0.07885 -0.299625,0.192391 -0.123004,0.110388 -0.148236,0.258623 -0.0063,0.03785 -0.0063,0.07569 0,0.11985 0.08516,0.201853 0.110388,0.110388 0.264932,0.182929 0.07885,0.03154 0.160851,0.05992 0.08516,0.02839 0.167159,0.05677 0.07885,0.02523 0.148236,0.04415 0.07254,0.01892 0.123003,0.03154 0.309087,0.09777 0.482554,0.268086 0.176621,0.170313 0.176621,0.501477 0,0.350089 -0.19239,0.618174 -0.189237,0.268085 -0.596096,0.473092 -0.160852,0.07885 -0.324857,0.132466 -0.164005,0.05362 -0.321702,0.09146 -0.154544,0.041 -0.293317,0.05992 -0.138774,0.01892 -0.25547,0.03154 l 0.110388,-0.205007 -0.296471,-0.08516 0.129312,-0.192391 -0.110388,-0.116696 q 0.110388,-0.02523 0.242854,-0.05362 0.132465,-0.03154 0.268085,-0.06939 0.123004,-0.03785 0.249162,-0.09146 0.126158,-0.05677 0.227084,-0.132465 0.10408,-0.07885 0.170313,-0.173467 0.06939,-0.09462 0.06939,-0.201853 0,-0.13562 -0.132466,-0.22393 -0.132466,-0.08831 -0.293317,-0.138774 -0.167159,-0.05677 -0.334318,-0.09462 -0.164005,-0.041 -0.246008,-0.07254 -0.290163,-0.116696 -0.457322,-0.315395 -0.141928,-0.170313 -0.141928,-0.44786 0,-0.04415 0.0032,-0.09146 z"
         style="font-style:normal;font-variant:normal;font-weight:normal;font-stretch:normal;font-family:AngryBirds;-inkscape-font-specification:AngryBirds;stroke-width:0.16148205"
         id="path248" />
      <path
         d="m 57.713524,22.17951 0.03154,-0.113543 2.551542,-0.182928 -0.10408,0.160851 0.182929,0.189237 -0.312241,0.198698 0.312241,0.13562 -0.02523,0.110388 -0.842104,0.05992 -0.04415,3.213872 -0.09777,0.02839 -0.211314,-0.460476 -0.148236,0.394243 -0.157697,-0.160851 -0.186083,0.116696 -0.03154,-3.094022 -0.782179,0.05046 0.03154,-0.116696 -0.110388,-0.08831 0.362704,-0.271239 z"
         style="font-style:normal;font-variant:normal;font-weight:normal;font-stretch:normal;font-family:AngryBirds;-inkscape-font-specification:AngryBirds;stroke-width:0.16148205"
         id="path250" />
      <path
         d="m 60.312376,25.850703 0.832642,-3.986588 0.258623,0.07885 0.236546,-0.20816 0.356396,0.438399 0.201853,-0.394244 0.22393,0.13562 0.208161,-0.11985 0.753793,4.081207 -0.141928,-0.09777 -0.236546,0.135619 -0.182929,-0.233392 -0.173467,0.176621 -0.2397,-0.873643 -1.201653,0.09777 -0.230238,0.879952 -0.06623,0.02523 -0.205007,-0.258623 -0.258623,0.205006 z m 1.056572,-1.504432 0.924106,-0.08516 -0.321702,-1.447661 -0.27124,0.01892 z"
         style="font-style:normal;font-variant:normal;font-weight:normal;font-stretch:normal;font-family:AngryBirds;-inkscape-font-specification:AngryBirds;stroke-width:0.16148205"
         id="path252" />
      <path
         d="m 63.652406,22.25205 0.154544,-0.167159 q -0.0063,-0.01262 -0.02208,-0.06308 -0.01262,-0.05362 -0.04416,-0.126158 0.179775,-0.05046 0.438398,-0.09462 0.258624,-0.04731 0.545633,-0.05362 0.03469,0 0.06939,0 0.249162,0 0.504631,0.041 0.290163,0.04415 0.536171,0.179775 0.27124,0.148236 0.441553,0.406859 0.170313,0.258624 0.255469,0.570865 0.082,0.302778 0.082,0.637097 0,0.35955 -0.08516,0.700176 -0.082,0.324856 -0.236546,0.605558 -0.154544,0.277547 -0.37532,0.451014 -0.37532,0.302779 -0.816872,0.4794 -0.441553,0.173467 -0.886259,0.217622 l -0.04731,-0.375319 -0.400551,0.05362 0.02839,-2.993096 -0.07885,-0.05046 0.195545,-0.198698 z m 0.870489,0.444707 q 0,0.548786 0.0063,1.040802 0,0.208161 0.0063,0.422629 0.0063,0.211314 0.01262,0.406859 0.0063,0.192391 0.01577,0.346934 0.0095,0.154544 0.02523,0.252316 0.214469,-0.06308 0.400552,-0.157697 0.186082,-0.09462 0.340626,-0.230238 0.154543,-0.13562 0.264931,-0.315395 0.110388,-0.182929 0.160852,-0.422629 0.04416,-0.233392 0.05677,-0.444706 0.0032,-0.03469 0,-0.06939 0,-0.173467 -0.041,-0.324857 -0.04731,-0.179775 -0.170313,-0.318548 -0.123004,-0.138774 -0.334318,-0.217623 -0.082,-0.02839 -0.195545,-0.02839 -0.01262,0 -0.02208,0 -0.126158,0.0032 -0.242854,0.01577 -0.13562,0.01892 -0.283856,0.04415 z"
         style="font-style:normal;font-variant:normal;font-weight:normal;font-stretch:normal;font-family:AngryBirds;-inkscape-font-specification:AngryBirds;stroke-width:0.16148205"
         id="path254" />
      <path
         d="m 67.036592,24.444043 q -0.01262,-0.173467 -0.01577,-0.346934 0,-0.192391 0.01892,-0.384781 0.06308,-0.659175 0.182929,-1.034495 0.11985,-0.37532 0.353242,-0.574018 0.08516,-0.07254 0.214468,-0.145082 0.132466,-0.07569 0.293317,-0.129312 0.164005,-0.05677 0.350088,-0.07885 0.08831,-0.0095 0.176621,-0.0095 l 0.198699,0.01262 -0.01262,0.375319 0.315395,-0.19239 0.135619,0.198698 0.214469,-0.08516 q 0.2397,0.246008 0.365858,0.706484 0.129311,0.457322 0.129311,1.122805 0,0.220776 -0.02523,0.482554 -0.02523,0.261777 -0.09146,0.514093 -0.06308,0.249162 -0.170313,0.460476 -0.107234,0.208161 -0.268085,0.324857 -0.227084,0.160851 -0.457323,0.246008 -0.227084,0.08516 -0.444706,0.107234 -0.100926,0.0095 -0.201853,0.0095 -0.110388,0 -0.211314,-0.01262 -0.192391,-0.02523 -0.350088,-0.08516 -0.198699,-0.07254 -0.346934,-0.290163 -0.145082,-0.220776 -0.236546,-0.523555 -0.08831,-0.302779 -0.116696,-0.668637 z m 0.769563,-0.589788 q -0.0095,0.123004 -0.0063,0.242854 0,0.227084 0.03154,0.447861 0.04731,0.334318 0.176621,0.53617 0.06308,0.104081 0.186083,0.157698 0.123004,0.05046 0.261778,0.05046 0.138773,0 0.264931,-0.04731 0.126158,-0.05046 0.192391,-0.154544 0.06308,-0.10408 0.123004,-0.299625 0.06308,-0.198698 0.09777,-0.435244 0.03785,-0.2397 0.04416,-0.498324 0,-0.03469 0,-0.06939 0,-0.220776 -0.03785,-0.425782 -0.041,-0.236546 -0.138774,-0.422629 -0.09462,-0.186083 -0.258623,-0.283855 -0.10408,-0.06308 -0.242854,-0.06308 -0.0063,0 -0.01577,0 -0.148235,0.0032 -0.255469,0.100926 -0.186083,0.167159 -0.293318,0.488862 -0.10408,0.318548 -0.129311,0.674944 z"
         style="font-style:normal;font-variant:normal;font-weight:normal;font-stretch:normal;font-family:AngryBirds;-inkscape-font-specification:AngryBirds;stroke-width:0.16148205"
         id="path256" />
      <path
         d="m 71.619277,22.28359 0.179775,-0.2397 -0.07885,-0.249162 q 0.315395,-0.08516 0.652867,-0.123004 0.268086,-0.03154 0.517248,-0.03154 0.06308,0 0.123004,0 0.302778,0.0095 0.558248,0.07885 0.25547,0.06939 0.403705,0.189237 0.173467,0.148236 0.264932,0.369012 0.07885,0.192391 0.07885,0.410013 0,0.03154 0,0.06308 -0.01262,0.252316 -0.135619,0.520401 -0.123004,0.268086 -0.369012,0.510939 0.20816,0.09146 0.403705,0.2397 0.195545,0.148236 0.25547,0.350088 0.03785,0.129312 0.03785,0.246008 0,0.06623 -0.01262,0.129312 -0.03154,0.173467 -0.11985,0.328011 -0.08831,0.154543 -0.22393,0.280701 -0.135619,0.126158 -0.277547,0.230238 -0.154543,0.110388 -0.35955,0.192391 -0.201853,0.07885 -0.432091,0.132465 -0.227084,0.05677 -0.46363,0.07885 -0.182929,0.01892 -0.356396,0.01577 -0.05046,0 -0.09777,0 v -0.350088 l -0.312241,0.01262 q 0.0032,-0.230239 0.0032,-0.463631 0,-0.466784 -0.0095,-0.949338 -0.0032,-0.2397 -0.0032,-0.495169 0,-0.51094 0.01577,-1.075496 h -0.08516 q -0.03469,0 -0.06939,-0.0063 l 0.123004,-0.217622 z m 0.933568,1.952293 q -0.04416,0.264931 -0.04416,0.485708 0,0.217622 0.03154,0.495169 0.07885,0.01892 0.179774,0.01892 0.07885,0 0.173468,-0.01262 0.211314,-0.02523 0.397397,-0.110388 0.186083,-0.08831 0.312241,-0.230238 0.110388,-0.123004 0.110388,-0.296471 0,-0.02523 -0.0032,-0.05362 -0.01262,-0.160852 -0.13562,-0.246008 -0.123004,-0.08516 -0.296471,-0.113542 -0.09777,-0.01577 -0.205006,-0.01577 -0.082,0 -0.16716,0.0095 -0.195544,0.02208 -0.353242,0.06939 z m -0.02523,-1.220578 q -0.0032,0.082 0,0.170314 0,0.176621 0.0063,0.384781 0.198698,-0.01892 0.394243,-0.08516 0.195545,-0.06939 0.34378,-0.170313 0.148236,-0.100926 0.236546,-0.220776 0.09146,-0.11985 0.09146,-0.236546 0,-0.154543 -0.104081,-0.249162 -0.100926,-0.09777 -0.255469,-0.138773 -0.110388,-0.03154 -0.242854,-0.03154 -0.05046,0 -0.100926,0.0032 -0.186083,0.01577 -0.356396,0.08831 -0.0063,0.2397 -0.01262,0.485707 z"
         style="font-style:normal;font-variant:normal;font-weight:normal;font-stretch:normal;font-family:AngryBirds;-inkscape-font-specification:AngryBirds;stroke-width:0.16148205"
         id="path258" />
      <path
         d="m 74.776376,22.050198 0.02208,-0.11985 q 0.356396,-0.116696 0.712792,-0.176621 0.35955,-0.06308 0.693868,-0.06623 0.01892,0 0.03469,0 0.315394,0 0.589788,0.05362 0.287009,0.05677 0.498323,0.195545 0.192391,0.123004 0.305933,0.309086 0.116696,0.186083 0.138774,0.419475 0.0063,0.05677 0.0063,0.11985 0,0.179775 -0.05362,0.381628 -0.06939,0.268085 -0.2397,0.545633 -0.03154,0.05677 -0.09777,0.141927 -0.06623,0.08516 -0.145081,0.182929 -0.07569,0.09462 -0.167159,0.189237 -0.08831,0.09146 -0.173468,0.164005 0.07885,0.186083 0.16716,0.394243 0.09146,0.205007 0.176621,0.397398 0.08831,0.189237 0.167159,0.350088 0.07885,0.157697 0.123004,0.246008 l -0.04416,0.04731 -0.375319,-0.208161 -0.01892,0.321703 -0.129312,-0.05677 -0.116696,0.07885 -0.782178,-1.207962 -0.40686,0.160851 -0.03154,0.968262 -0.10408,-0.01262 -0.214469,-0.337472 -0.167159,0.435245 -0.116696,-0.04731 q -0.0063,-0.19239 -0.02208,-0.55194 -0.01577,-0.35955 -0.02839,-0.782179 -0.01262,-0.422629 -0.01262,-0.857874 0,-0.435244 0.02523,-0.79164 l 0.01892,-0.252316 -0.205006,-0.148236 0.340626,-0.309086 z m 0.930415,2.031141 q 0.233392,-0.09146 0.4794,-0.246007 0.246007,-0.154544 0.425782,-0.337473 0.179775,-0.186083 0.261778,-0.384781 0.03785,-0.08831 0.03785,-0.176621 0,-0.104081 -0.05362,-0.205007 -0.05677,-0.10408 -0.242854,-0.132466 -0.151389,-0.02523 -0.31224,-0.02523 -0.03469,0 -0.07254,0 -0.233392,0.01262 -0.51094,0.05992 z"
         style="font-style:normal;font-variant:normal;font-weight:normal;font-stretch:normal;font-family:AngryBirds;-inkscape-font-specification:AngryBirds;stroke-width:0.16148205"
         id="path260" />
      <path
         d="m 77.974478,25.850703 0.832642,-3.986588 0.258623,0.07885 0.236546,-0.20816 0.356396,0.438399 0.201853,-0.394244 0.22393,0.13562 0.20816,-0.11985 0.753794,4.081207 -0.141928,-0.09777 -0.236546,0.135619 -0.182929,-0.233392 -0.173467,0.176621 -0.2397,-0.873643 -1.201654,0.09777 -0.230238,0.879952 -0.06623,0.02523 -0.205006,-0.258623 -0.258624,0.205006 z m 1.056572,-1.504432 0.924106,-0.08516 -0.321702,-1.447661 -0.27124,0.01892 z"
         style="font-style:normal;font-variant:normal;font-weight:normal;font-stretch:normal;font-family:AngryBirds;-inkscape-font-specification:AngryBirds;stroke-width:0.16148205"
         id="path262" />
      <path
         d="m 81.292434,23.368547 q 0.02523,-0.32801 0.195545,-0.599249 0.173467,-0.27124 0.441552,-0.466785 0.268086,-0.198698 0.596096,-0.324856 0.331165,-0.126158 0.674945,-0.164005 0.06623,-0.0095 0.160851,-0.01262 0.02523,0 0.05046,0.0032 0.129312,0.0032 0.220777,0.0095 l 0.02523,0.082 -0.419475,0.233392 0.334319,0.160852 -0.141928,0.135619 0.09777,0.182929 q -0.233392,0.01892 -0.460476,0.06308 -0.22393,0.04415 -0.403705,0.123004 -0.176621,0.07885 -0.299625,0.192391 -0.123004,0.110388 -0.148236,0.258623 -0.0063,0.03785 -0.0063,0.07569 0,0.11985 0.08516,0.201853 0.110388,0.110388 0.264932,0.182929 0.07885,0.03154 0.160851,0.05992 0.08516,0.02839 0.167159,0.05677 0.07885,0.02523 0.148236,0.04415 0.07254,0.01892 0.123004,0.03154 0.309086,0.09777 0.482553,0.268086 0.176621,0.170313 0.176621,0.501477 0,0.350089 -0.19239,0.618174 -0.189237,0.268085 -0.596096,0.473092 -0.160852,0.07885 -0.324857,0.132466 -0.164005,0.05362 -0.321702,0.09146 -0.154544,0.041 -0.293317,0.05992 -0.138774,0.01892 -0.25547,0.03154 l 0.110388,-0.205007 -0.296471,-0.08516 0.129312,-0.192391 -0.110388,-0.116696 q 0.110388,-0.02523 0.242854,-0.05362 0.132465,-0.03154 0.268085,-0.06939 0.123004,-0.03785 0.249162,-0.09146 0.126158,-0.05677 0.227084,-0.132465 0.10408,-0.07885 0.170313,-0.173467 0.06939,-0.09462 0.06939,-0.201853 0,-0.13562 -0.132466,-0.22393 -0.132466,-0.08831 -0.293317,-0.138774 -0.167159,-0.05677 -0.334318,-0.09462 -0.164005,-0.041 -0.246008,-0.07254 -0.290163,-0.116696 -0.457322,-0.315395 -0.141928,-0.170313 -0.141928,-0.44786 0,-0.04415 0.0032,-0.09146 z"
         style="font-style:normal;font-variant:normal;font-weight:normal;font-stretch:normal;font-family:AngryBirds;-inkscape-font-specification:AngryBirds;stroke-width:0.16148205"
         id="path264" />
      <path
         d="m 84.354914,25.901167 v -4.018128 l 0.141928,-0.05046 0.214468,0.504632 0.271239,-0.485708 0.192391,0.10408 0.182929,-0.06623 -0.110388,4.084361 -0.07885,0.02523 -0.271239,-0.387935 -0.186083,0.340626 -0.167159,-0.06308 z"
         style="font-style:normal;font-variant:normal;font-weight:normal;font-stretch:normal;font-family:AngryBirds;-inkscape-font-specification:AngryBirds;stroke-width:0.16148205"
         id="path266" />
      <path
         d="m 86.042274,22.018658 0.123004,0.01892 0.179775,-0.129312 0.189237,0.318549 0.334318,-0.447861 0.10408,0.03469 -0.110388,3.475649 h 1.066034 l -0.264931,0.22393 0.362703,0.141928 -0.182929,0.220776 0.06623,0.09147 -1.453969,0.107234 -0.05677,-0.353242 -0.34378,0.05046 z"
         style="font-style:normal;font-variant:normal;font-weight:normal;font-stretch:normal;font-family:AngryBirds;-inkscape-font-specification:AngryBirds;stroke-width:0.16148205"
         id="path268" />
      <path
         d="m 88.429815,22.195279 0.08831,-0.20816 -0.04416,-0.08516 1.848213,-0.123004 0.05677,0.252316 -0.400551,0.277547 0.381627,0.116696 -0.05046,0.141928 -0.94303,0.08516 -0.02208,0.993493 0.94303,-0.03154 -0.107234,0.337473 0.186083,0.07569 -0.03154,0.173467 -0.977724,0.09777 0.041,1.053418 0.97457,-0.03785 -0.06308,0.334318 0.173467,0.07885 -0.07254,0.246007 -1.523356,0.08831 0.02523,-0.328011 -0.394244,0.02523 0.041,-3.021481 -0.07885,-0.129312 0.277547,-0.2397 z"
         style="font-style:normal;font-variant:normal;font-weight:normal;font-stretch:normal;font-family:AngryBirds;-inkscape-font-specification:AngryBirds;stroke-width:0.16148205"
         id="path270" />
      <path
         d="m 90.927737,25.901167 v -4.018128 l 0.141927,-0.05046 0.214469,0.504632 0.271239,-0.485708 0.192391,0.10408 0.182929,-0.06623 -0.110389,4.084361 -0.07885,0.02523 -0.27124,-0.387935 -0.186082,0.340626 -0.16716,-0.06308 z"
         style="font-style:normal;font-variant:normal;font-weight:normal;font-stretch:normal;font-family:AngryBirds;-inkscape-font-specification:AngryBirds;stroke-width:0.16148205"
         id="path272" />
      <path
         d="m 92.413244,22.050198 0.02208,-0.11985 q 0.356395,-0.116696 0.712791,-0.176621 0.35955,-0.06308 0.693869,-0.06623 0.01892,0 0.03469,0 0.315395,0 0.589788,0.05362 0.287009,0.05677 0.498324,0.195545 0.192391,0.123004 0.305933,0.309086 0.116696,0.186083 0.138773,0.419475 0.0063,0.05677 0.0063,0.11985 0,0.179775 -0.05362,0.381628 -0.06939,0.268085 -0.2397,0.545633 -0.03154,0.05677 -0.09777,0.141927 -0.06623,0.08516 -0.145082,0.182929 -0.07569,0.09462 -0.167159,0.189237 -0.08831,0.09146 -0.173467,0.164005 0.07885,0.186083 0.167159,0.394243 0.09146,0.205007 0.176621,0.397398 0.08831,0.189237 0.167159,0.350088 0.07885,0.157697 0.123004,0.246008 l -0.04415,0.04731 -0.37532,-0.208161 -0.01892,0.321703 -0.129312,-0.05677 -0.116696,0.07885 -0.782179,-1.207962 -0.406859,0.160851 -0.03154,0.968262 -0.10408,-0.01262 -0.214468,-0.337472 -0.167159,0.435245 -0.116696,-0.04731 q -0.0063,-0.19239 -0.02208,-0.55194 -0.01577,-0.35955 -0.02839,-0.782179 -0.01261,-0.422629 -0.01261,-0.857874 0,-0.435244 0.02523,-0.79164 l 0.01892,-0.252316 -0.205007,-0.148236 0.340627,-0.309086 z m 0.930414,2.031141 q 0.233392,-0.09146 0.4794,-0.246007 0.246008,-0.154544 0.425783,-0.337473 0.179775,-0.186083 0.261777,-0.384781 0.03785,-0.08831 0.03785,-0.176621 0,-0.104081 -0.05362,-0.205007 -0.05677,-0.10408 -0.242854,-0.132466 -0.15139,-0.02523 -0.312241,-0.02523 -0.03469,0 -0.07254,0 -0.233392,0.01262 -0.510939,0.05992 z"
         style="font-style:normal;font-variant:normal;font-weight:normal;font-stretch:normal;font-family:AngryBirds;-inkscape-font-specification:AngryBirds;stroke-width:0.16148205"
         id="path274" />
      <path
         d="m 95.762738,24.444043 q -0.01261,-0.173467 -0.01577,-0.346934 0,-0.192391 0.01892,-0.384781 0.06308,-0.659175 0.182929,-1.034495 0.11985,-0.37532 0.353242,-0.574018 0.08516,-0.07254 0.214469,-0.145082 0.132465,-0.07569 0.293317,-0.129312 0.164005,-0.05677 0.350088,-0.07885 0.08831,-0.0095 0.176621,-0.0095 l 0.198698,0.01262 -0.01262,0.375319 0.315394,-0.19239 0.13562,0.198698 0.214468,-0.08516 q 0.2397,0.246008 0.365858,0.706484 0.129312,0.457322 0.129312,1.122805 0,0.220776 -0.02523,0.482554 -0.02523,0.261777 -0.09146,0.514093 -0.06308,0.249162 -0.170313,0.460476 -0.107234,0.208161 -0.268086,0.324857 -0.227084,0.160851 -0.457322,0.246008 -0.227084,0.08516 -0.444706,0.107234 -0.100927,0.0095 -0.201853,0.0095 -0.110388,0 -0.211314,-0.01262 -0.192391,-0.02523 -0.350088,-0.08516 -0.198699,-0.07254 -0.346935,-0.290163 -0.145081,-0.220776 -0.236546,-0.523555 -0.08831,-0.302779 -0.116696,-0.668637 z m 0.769563,-0.589788 q -0.0095,0.123004 -0.0063,0.242854 0,0.227084 0.03154,0.447861 0.04731,0.334318 0.176621,0.53617 0.06308,0.104081 0.186083,0.157698 0.123004,0.05046 0.261777,0.05046 0.138774,0 0.264932,-0.04731 0.126158,-0.05046 0.192391,-0.154544 0.06308,-0.10408 0.123004,-0.299625 0.06308,-0.198698 0.09777,-0.435244 0.03785,-0.2397 0.04416,-0.498324 0,-0.03469 0,-0.06939 0,-0.220776 -0.03785,-0.425782 -0.041,-0.236546 -0.138774,-0.422629 -0.09462,-0.186083 -0.258623,-0.283855 -0.104081,-0.06308 -0.242854,-0.06308 -0.0063,0 -0.01577,0 -0.148236,0.0032 -0.25547,0.100926 -0.186083,0.167159 -0.293317,0.488862 -0.10408,0.318548 -0.129312,0.674944 z"
         style="font-style:normal;font-variant:normal;font-weight:normal;font-stretch:normal;font-family:AngryBirds;-inkscape-font-specification:AngryBirds;stroke-width:0.16148205"
         id="path276" />
      <path
         d="m 99.178466,25.888551 q -0.113542,-0.123004 -0.123004,-0.258624 -0.0063,-0.135619 0.02839,-0.356396 0.01892,-0.148235 0.107235,-0.261777 0.09146,-0.116696 0.220776,-0.176621 0.129312,-0.06308 0.274393,-0.06308 0.145082,0 0.274394,0.082 0.03785,0.02523 0.05993,0.141928 0.0252,0.116696 0.0158,0.261777 -0.009,0.145082 -0.05677,0.283856 -0.04416,0.138773 -0.129312,0.211314 -0.07885,0.06308 -0.179775,0.110388 -0.09777,0.04416 -0.195544,0.06308 -0.09462,0.01892 -0.176621,0.0095 -0.07885,-0.0095 -0.11985,-0.04731 z"
         style="font-style:normal;font-variant:normal;font-weight:normal;font-stretch:normal;font-family:AngryBirds;-inkscape-font-specification:AngryBirds;stroke-width:0.16148205"
         id="path278" />
    </g>
    <g
       aria-label="p    q = "
       style="font-style:normal;font-variant:normal;font-weight:normal;font-stretch:normal;font-size:20.68317604px;line-height:1.25;font-family:'URW Gothic L';-inkscape-font-specification:'URW Gothic L';letter-spacing:0px;word-spacing:0px;fill:#000000;fill-opacity:1;stroke:none;stroke-width:0.51707935"
       id="text14-7-1">
      <path
         d="m 40.868499,30.955753 0.121191,-0.50496 q 0.848333,-0.313076 1.939048,-0.545358 1.100813,-0.232281 2.191527,-0.302976 0.282778,-0.0202 0.555457,-0.0101 0.777639,0 1.474484,0.13129 0.939226,0.171686 1.454286,0.666547 0.828135,0.807937 1.121012,1.848155 0.201984,0.706945 0.191885,1.413889 0,0.333274 -0.0404,0.666548 -0.13129,1.050317 -0.63625,2.050139 -0.494861,0.989722 -1.252302,1.716865 -0.25248,0.232282 -0.646349,0.484762 -0.393869,0.242381 -0.878631,0.474663 -0.484762,0.222182 -1.060417,0.424167 -0.565555,0.191884 -1.14121,0.313075 l -0.0202,3.595318 -0.37367,0.131289 -0.414068,-1.161408 -0.828135,1.121012 -0.535258,-0.626151 -0.414067,0.25248 -0.100992,-10.341588 -0.454465,-0.353472 1.242203,-1.2826 z m 3.140854,1.52498 0.111091,4.857719 q 0.51506,-0.181786 0.949325,-0.393869 0.373671,-0.161588 0.717044,-0.333274 0.353472,-0.181786 0.525159,-0.323175 0.434266,-0.393869 0.737242,-0.929127 0.313075,-0.535258 0.403968,-1.090714 0.0303,-0.201984 0.0404,-0.38377 0,-0.343373 -0.111091,-0.656448 -0.161587,-0.494862 -0.696845,-0.828135 -0.252481,-0.151489 -0.666548,-0.161588 -0.0303,0 -0.0505,0.0101 -0.444365,0.0101 -0.878631,0.0505 -0.525159,0.08079 -1.080615,0.181785 z"
         style="font-style:normal;font-variant:normal;font-weight:normal;font-stretch:normal;font-family:AngryBirds;-inkscape-font-specification:AngryBirds;stroke-width:0.51707935"
         id="path281" />
      <path
         d="m 67.591,37.378849 q 0,-0.908929 0.0606,-1.78756 0.0707,-0.878631 0.25248,-1.676468 0.181786,-0.807937 0.545357,-1.545179 0.363572,-0.737242 0.969524,-1.333095 0.454465,-0.454465 1.15131,-0.676647 0.706944,-0.232282 1.454286,-0.272679 0.181785,-0.0101 0.363571,-0.0202 0.545357,0 1.040219,0.100992 0.666547,0.12119 1.030119,0.37367 0.555456,0.373671 0.969524,0.959425 0.414067,0.585754 0.676646,1.302798 0.26258,0.706944 0.38377,1.474484 0.121191,0.76754 0.121191,1.474484 0,0.414068 0.0101,0.807937 0,0.13129 0.0101,0.262579 0,0.26258 -0.0202,0.535258 -0.0202,0.414068 -0.0505,0.797838 -0.0303,0.383769 -0.111092,0.777639 -0.141388,0.747341 -0.494861,1.494682 -0.353472,0.737242 -1.201805,1.686568 0.333273,0.37367 0.686746,0.75744 0.363571,0.38377 0.535258,0.545357 l -0.272679,0.292877 -0.868532,-0.37367 -0.100992,0.747341 -0.454464,0.0404 q -0.100992,-0.100992 -0.363572,-0.424167 -0.262579,-0.323174 -0.545357,-0.666547 -0.474662,0.141389 -1.030119,0.222182 -0.393869,0.06059 -0.797837,0.06059 l -0.292877,-0.0101 q -0.545357,-0.0303 -1.080615,-0.201984 -0.525159,-0.181786 -0.979623,-0.555456 -0.39387,-0.313076 -0.696846,-0.919028 Q 68.196952,41.024662 67.994968,40.307619 67.803083,39.580476 67.691992,38.802837 67.591,38.015099 67.591,37.378849 Z m 2.444008,-0.575655 q -0.0101,0.181786 -0.0101,0.363571 0,0.363572 0.0303,0.747342 0.0404,0.565555 0.161588,1.090714 0.131289,0.525159 0.333273,0.989722 0.212084,0.454465 0.51506,0.717044 0.08079,0.08079 0.262579,0.100992 0.191885,0.0202 0.403969,0.0202 0.232281,0 0.494861,-0.0202 l -0.51506,-1.171508 0.535258,0.262579 0.373671,-0.616051 0.323175,0.323174 q 0.222182,0.222183 0.50496,0.484762 0.353472,-0.535258 0.515059,-0.979623 0.161588,-0.454464 0.232282,-0.868532 0.0606,-0.414067 0.0707,-0.737242 0.0101,-0.333273 0.0101,-0.585754 0,-0.37367 -0.0202,-0.838234 -0.0202,-0.464563 -0.09089,-0.939226 -0.0606,-0.474663 -0.181786,-0.89883 -0.121191,-0.424166 -0.333274,-0.706944 -0.232282,-0.272679 -0.616052,-0.444365 -0.37367,-0.181786 -0.797837,-0.191885 -0.0202,0 -0.0505,0 -0.403968,0 -0.777639,0.161587 -0.403968,0.171687 -0.626151,0.575655 -0.313075,0.555456 -0.515059,1.333095 -0.191885,0.777639 -0.232282,1.827957 z"
         style="font-style:normal;font-variant:normal;font-weight:normal;font-stretch:normal;font-family:AngryBirds;-inkscape-font-specification:AngryBirds;stroke-width:0.51707935"
         id="path283" />
      <path
         d="m 82.164156,39.095714 0.868532,-0.575655 -0.535258,-1.030119 5.029405,-0.333274 0.313075,0.616052 -0.807936,0.605952 0.262579,1.030119 -4.938512,0.666548 0.100992,-0.565556 z m 0.0707,-5.079901 0.323174,-0.525159 -0.0606,-0.969524 4.989008,-0.181786 0.0202,0.373671 -0.626151,0.868532 0.626151,0.75744 -0.13129,0.333274 -4.776925,0.535258 0.25248,-0.575655 z"
         style="font-style:normal;font-variant:normal;font-weight:normal;font-stretch:normal;font-family:AngryBirds;-inkscape-font-specification:AngryBirds;stroke-width:0.51707935"
         id="path285" />
    </g>
    <g
       id="g734"
       transform="translate(49.356391,-92.012718)">
      <path
         style="opacity:1;fill:#ffffff;fill-opacity:1;stroke:#ffffff;stroke-width:0.10485733;stroke-linecap:round;stroke-linejoin:round;stroke-miterlimit:4;stroke-dasharray:none;stroke-dashoffset:0;stroke-opacity:1"
         d="m 43.57272,120.11445 h 9.858732 v 17.51068 H 43.57272 Z"
         id="rect847-0" />
      <g
         aria-label="?"
         style="font-style:normal;font-variant:normal;font-weight:normal;font-stretch:normal;font-size:20.05946541px;line-height:1.25;font-family:'URW Gothic L';-inkscape-font-specification:'URW Gothic L';letter-spacing:0px;word-spacing:0px;fill:#00ff00;fill-opacity:1;stroke:#000000;stroke-width:0.1442789;stroke-miterlimit:4;stroke-dasharray:none"
         id="text40-9">
        <path
           d="m 44.326724,122.04293 0.479938,-0.42117 q -0.03918,-0.0588 -0.09795,-0.13712 -0.03918,-0.0588 -0.117536,-0.12733 -0.06856,-0.0784 -0.107742,-0.15672 1.165565,-0.34281 2.321335,-0.44076 1.15577,-0.0979 2.380103,0.0588 0.979466,0.11753 1.743449,0.62686 0.763984,0.49952 1.243922,1.22433 0.479938,0.71501 0.656242,1.57694 0.186099,0.86193 -0.01959,1.72386 -0.156715,0.64645 -0.58768,1.15577 -0.430965,0.50932 -1.067618,0.94029 -0.626858,0.43096 -1.420225,0.79337 -0.793368,0.3624 -1.674887,0.68562 -0.117536,0.34281 -0.205688,0.66604 -0.07836,0.31343 -0.137126,0.61706 -0.05877,0.28405 -0.07836,0.52891 -0.01959,0.23508 -0.05877,0.39179 l -0.303634,0.26446 -0.842341,-0.76399 -0.323224,1.01865 -0.254661,-0.0392 q -0.03918,-0.24487 -0.107741,-0.64645 -0.05877,-0.41137 -0.117536,-0.88152 -0.05877,-0.47994 -0.107742,-0.97946 -0.04897,-0.49953 -0.04897,-0.94029 0.362403,-0.19589 0.86193,-0.44076 0.499528,-0.24487 1.018645,-0.51912 0.705216,-0.40158 1.243922,-0.86193 0.538706,-0.46035 0.685626,-0.93049 0.176304,-0.57789 0.05877,-1.06762 -0.117536,-0.48973 -0.42117,-0.85213 -0.303635,-0.36241 -0.754189,-0.58768 -0.450555,-0.23508 -0.930493,-0.27426 -0.577885,-0.0392 -1.283101,-0.0392 -0.705215,0 -1.469199,0.13712 l 0.783573,-0.82275 z m 0.822751,14.92706 q -0.205688,-0.14692 -0.284045,-0.3526 -0.07836,-0.21549 0,-0.46035 0.07836,-0.25466 0.323224,-0.51912 0.244866,-0.27425 0.685626,-0.53871 0.137125,-0.0784 0.411376,-0.12733 0.284045,-0.049 0.597474,-0.0686 0.313429,-0.0196 0.568091,0 0.264455,0.0196 0.342813,0.0784 0.09795,0.0588 0.195893,0.26445 0.107741,0.1959 0.117536,0.45056 0.0098,0.24487 -0.117536,0.51912 -0.117536,0.26445 -0.470144,0.50932 -0.225277,0.15671 -0.597474,0.22528 -0.372197,0.0784 -0.7346,0.10774 -0.352607,0.0294 -0.656242,0 -0.303634,-0.0294 -0.381992,-0.0882 z"
           style="font-style:normal;font-variant:normal;font-weight:normal;font-stretch:normal;font-family:AngryBirds;-inkscape-font-specification:AngryBirds;fill:#00ff00;stroke:#000000;stroke-width:0.1442789;stroke-miterlimit:4;stroke-dasharray:none"
           id="path289" />
      </g>
    </g>
  </g>
</svg>
