<?xml version="1.0" encoding="UTF-8" standalone="no"?>
<!-- Created with Inkscape (http://www.inkscape.org/) -->

<svg
   xmlns:dc="http://purl.org/dc/elements/1.1/"
   xmlns:cc="http://creativecommons.org/ns#"
   xmlns:rdf="http://www.w3.org/1999/02/22-rdf-syntax-ns#"
   xmlns:svg="http://www.w3.org/2000/svg"
   xmlns="http://www.w3.org/2000/svg"
   xmlns:sodipodi="http://sodipodi.sourceforge.net/DTD/sodipodi-0.dtd"
   xmlns:inkscape="http://www.inkscape.org/namespaces/inkscape"
   width="210mm"
   height="297mm"
   viewBox="0 0 210 297"
   version="1.1"
   id="svg430"
   inkscape:version="0.92.1 r15371"
   sodipodi:docname="104.svg">
  <defs
     id="defs424" />
  <sodipodi:namedview
     id="base"
     pagecolor="#ffffff"
     bordercolor="#666666"
     borderopacity="1.0"
     inkscape:pageopacity="0.0"
     inkscape:pageshadow="2"
     inkscape:zoom="0.35"
     inkscape:cx="400"
     inkscape:cy="560"
     inkscape:document-units="mm"
     inkscape:current-layer="layer1"
     showgrid="false"
     inkscape:window-width="1366"
     inkscape:window-height="704"
     inkscape:window-x="0"
     inkscape:window-y="27"
     inkscape:window-maximized="1" />
  <metadata
     id="metadata427">
    <rdf:RDF>
      <cc:Work
         rdf:about="">
        <dc:format>image/svg+xml</dc:format>
        <dc:type
           rdf:resource="http://purl.org/dc/dcmitype/StillImage" />
        <dc:title></dc:title>
      </cc:Work>
    </rdf:RDF>
  </metadata>
  <g
     inkscape:label="Camada 1"
     inkscape:groupmode="layer"
     id="layer1">
    <path
       style="opacity:1;fill:#e6e6e6;fill-opacity:1;stroke:#cccccc;stroke-width:0.35642663;stroke-linecap:round;stroke-linejoin:round;stroke-miterlimit:4;stroke-dasharray:none;stroke-dashoffset:0;stroke-opacity:1"
       d="M 7.7218437,7.7617426 H 134.39719 V 41.952531 H 7.7218437 Z"
       id="rect10" />
    <g
       aria-label="(10-5)&gt;5 ="
       style="font-style:normal;font-variant:normal;font-weight:normal;font-stretch:normal;font-size:15.26951599px;line-height:1.25;font-family:'URW Gothic L';-inkscape-font-specification:'URW Gothic L';letter-spacing:0px;word-spacing:0px;fill:#000000;fill-opacity:1;stroke:none;stroke-width:0.38173789"
       id="text14">
      <path
         d="m 50.263318,30.411724 q -0.09692,-0.924522 -0.09692,-1.856499 0,-0.939433 0.02982,-1.722294 0.01491,-0.365335 0.126749,-0.969257 0.119293,-0.603921 0.298233,-1.222754 0.186395,-0.618833 0.402614,-1.148196 0.223674,-0.536819 0.454805,-0.782861 0.365335,-0.395158 0.887242,-0.678479 0.529363,-0.283321 1.066182,-0.432438 0.02982,0.02982 0.07456,0.0671 0.04473,0.03728 0.07456,0.0671 l -0.484629,0.685935 0.790317,0.350424 v 0.09692 q -0.492084,0.365336 -0.812684,1.043815 -0.313144,0.67848 -0.49954,1.528443 -0.17894,0.842507 -0.238586,1.767029 -0.05219,0.924521 -0.02237,1.789396 0.03728,0.864875 0.141661,1.573178 0.104381,0.708303 0.246042,1.118373 0.04473,0.149116 0.156572,0.372791 0.119293,0.223674 0.275865,0.469716 0.164028,0.246042 0.380247,0.477172 0.223675,0.223675 0.49954,0.395159 -0.119293,0.07456 -0.275865,0.171484 -0.156572,0.08947 -0.350424,0.193851 l 0.41007,0.656112 q -0.02982,0.02982 -0.05219,0.03728 -0.02237,0.0075 -0.05219,0.03728 -0.05965,0.05965 -0.09693,0.07456 -0.290777,-0.01491 -0.618833,-0.104381 -0.3206,-0.08947 -0.648656,-0.238586 -0.3206,-0.141661 -0.596465,-0.320601 -0.26841,-0.171483 -0.439894,-0.37279 -0.454805,-0.551731 -0.693391,-1.371871 -0.238586,-0.827596 -0.335512,-1.752117 z"
         style="font-style:normal;font-variant:normal;font-weight:normal;font-stretch:normal;font-family:AngryBirds;-inkscape-font-specification:AngryBirds;stroke-width:0.38173789"
         id="path567" />
      <path
         d="m 54.87847,24.193571 3.071797,-2.624448 0.439893,0.849963 0.745582,-0.454805 -0.08947,10.057899 1.707383,-0.01491 0.09692,0.462261 -0.767949,0.529363 0.738126,0.477172 -0.402614,0.41007 -4.764268,0.07456 0.566642,-0.469716 -0.842507,-0.536819 0.477172,-0.290777 -0.275865,-0.559187 1.72975,-0.201307 -0.275866,-7.127762 -1.379326,0.671024 -0.253498,-0.171484 0.529363,-1.036359 z"
         style="font-style:normal;font-variant:normal;font-weight:normal;font-stretch:normal;font-family:AngryBirds;-inkscape-font-specification:AngryBirds;stroke-width:0.38173789"
         id="path569" />
      <path
         d="m 61.827293,26.952224 q 0.02982,-0.469717 0.23113,-1.14074 0.208763,-0.671024 0.506996,-1.334592 0.298233,-0.663568 0.656112,-1.207842 0.357879,-0.544275 0.693391,-0.760494 0.290777,-0.186395 0.6412,-0.313144 0.35788,-0.126749 0.730671,-0.201307 0.37279,-0.07456 0.745581,-0.09693 0.372791,-0.02982 0.723215,0.02237 l -0.208763,1.312224 1.081093,-0.462261 0.104382,0.477172 0.753038,-0.156572 q 0.536819,0.700847 0.87233,1.72975 0.335512,1.021447 0.350424,2.244201 0.01491,1.342048 -0.156572,2.490244 -0.164028,1.14074 -0.484629,2.020526 -0.3206,0.879787 -0.790316,1.468797 -0.462261,0.581553 -1.043815,0.812684 -0.41007,0.171484 -0.917066,0.246042 -0.506995,0.07456 -1.028902,0.04474 -0.514452,-0.02982 -0.99908,-0.17894 -0.477173,-0.141661 -0.857419,-0.402614 -1.066182,-0.745582 -1.40915,-2.415685 -0.342968,-1.677559 -0.193851,-4.197626 z m 1.878866,0.917066 q 0,0.119293 0.01491,0.618833 0.01491,0.499539 0.08947,1.110916 0.07456,0.611378 0.246042,1.207843 0.17894,0.58901 0.484629,0.879787 0.201307,0.201307 0.46226,0.260953 0.260954,0.05965 0.514452,0.03728 0.260954,-0.02237 0.49954,-0.104381 0.238586,-0.08201 0.387702,-0.193851 0.260954,-0.186396 0.469717,-0.596466 0.216219,-0.41007 0.357879,-0.894698 0.149116,-0.492084 0.23113,-0.991624 0.08947,-0.506996 0.08947,-0.887242 0,-0.506996 0.0075,-1.021447 0.0075,-0.521908 -0.08201,-0.99908 -0.08201,-0.484628 -0.305688,-0.917066 -0.216219,-0.439893 -0.671024,-0.790316 -0.201307,-0.149117 -0.417526,-0.186396 -0.208763,-0.04473 -0.424982,-0.02237 -0.216218,0.02237 -0.417525,0.111837 -0.193852,0.08201 -0.365335,0.186395 -0.305689,0.201307 -0.521908,0.618833 -0.208763,0.41007 -0.350423,0.879787 -0.134205,0.469716 -0.208763,0.939433 -0.07456,0.462261 -0.08947,0.753038 z"
         style="font-style:normal;font-variant:normal;font-weight:normal;font-stretch:normal;font-family:AngryBirds;-inkscape-font-specification:AngryBirds;stroke-width:0.38173789"
         id="path571" />
      <path
         d="m 70.893567,28.174978 0.365335,-0.290777 -0.260953,-0.589009 3.146355,-0.246042 -0.49954,0.305688 0.611377,0.864875 -0.857419,0.551731 0.335512,0.506995 -2.699006,0.514452 -0.111837,-0.223675 0.723214,-0.581554 z"
         style="font-style:normal;font-variant:normal;font-weight:normal;font-stretch:normal;font-family:AngryBirds;-inkscape-font-specification:AngryBirds;stroke-width:0.38173789"
         id="path573" />
      <path
         d="m 75.545999,27.996039 0.05965,-5.837906 5.286176,-0.238586 0.119293,0.380246 -0.641201,0.596466 0.931978,0.439893 -0.07456,0.156572 -3.452044,0.283321 q -0.02982,0.566643 -0.04473,1.133285 -0.01491,0.492084 0.0075,1.028903 0.02237,0.529363 0.09693,0.954344 0.469717,-0.04473 0.946889,-0.0075 0.477172,0.03728 0.887242,0.126749 0.417526,0.08201 0.738126,0.216218 0.320601,0.126749 0.484629,0.260954 0.260953,0.216219 0.417525,0.603921 0.164028,0.387703 0.208763,0.864875 0.04474,0.469717 -0.01491,1.006536 -0.05965,0.536818 -0.238587,1.05127 -0.171483,0.506996 -0.46226,0.969256 -0.290777,0.454805 -0.685936,0.775405 -0.395158,0.320601 -0.909609,0.529364 -0.514452,0.201307 -1.043815,0.335511 -0.521907,0.126749 -1.021447,0.193852 -0.492084,0.0671 -0.857419,0.09693 0.02982,-0.104381 0.111837,-0.246042 0.08201,-0.149116 0.141661,-0.223674 L 75.866599,33.304581 76.8284,32.648469 75.747306,32.439706 v -0.201307 q 0.260954,-0.04474 0.6412,-0.126749 0.380247,-0.08947 0.775405,-0.201307 0.402615,-0.111837 0.782861,-0.268409 0.380247,-0.164028 0.641201,-0.365335 0.395158,-0.305689 0.618833,-0.663568 0.23113,-0.35788 0.275865,-0.715759 0.05219,-0.357879 -0.111837,-0.663568 -0.156573,-0.305688 -0.536819,-0.506995 -0.134205,-0.05965 -0.462261,-0.07456 -0.3206,-0.01491 -0.708303,0 -0.387702,0.01491 -0.782861,0.04473 -0.387702,0.02982 -0.648656,0.04473 l 0.141661,-0.842507 z"
         style="font-style:normal;font-variant:normal;font-weight:normal;font-stretch:normal;font-family:AngryBirds;-inkscape-font-specification:AngryBirds;stroke-width:0.38173789"
         id="path575" />
      <path
         d="m 82.114576,22.814245 0.626289,0.09692 0.104381,-0.753037 0.506996,0.05219 0.134205,-0.432437 q 0.275865,0.134205 0.611377,0.328056 0.335512,0.193851 0.596465,0.372791 0.335512,0.260954 0.611377,0.715759 0.275866,0.447349 0.454805,0.954344 0.186396,0.49954 0.290777,0.984168 0.104382,0.477173 0.134205,0.76795 0.05965,0.87233 0.0671,1.78194 0.01491,0.90961 -0.08201,1.804308 -0.08947,0.887243 -0.305688,1.767029 -0.208763,0.879787 -0.559187,1.670103 -0.149116,0.350424 -0.417525,0.656112 -0.26841,0.305689 -0.611378,0.559187 -0.335511,0.253498 -0.73067,0.447349 -0.395158,0.201307 -0.82014,0.305689 -0.134205,-0.08947 -0.246042,-0.193852 l 0.01491,-0.02982 q 0.04474,-0.04474 0.07456,-0.111837 0.08947,-0.149117 0.08947,-0.283321 0,-0.126749 -0.05965,-0.216219 -0.171484,-0.246042 -0.208763,-0.477173 0.492084,-0.305688 0.812685,-0.954344 0.328056,-0.648656 0.521907,-1.476252 0.201307,-0.835052 0.290777,-1.752118 0.09692,-0.917065 0.09692,-1.759573 0,-0.849963 -0.0671,-1.535898 -0.0671,-0.685936 -0.193851,-1.043815 -0.04474,-0.149116 -0.208763,-0.447349 -0.156572,-0.298233 -0.387703,-0.633745 -0.223674,-0.335511 -0.514451,-0.656112 -0.290777,-0.3206 -0.626289,-0.506995 z"
         style="font-style:normal;font-variant:normal;font-weight:normal;font-stretch:normal;font-family:AngryBirds;-inkscape-font-specification:AngryBirds;stroke-width:0.38173789"
         id="path577" />
      <path
         d="m 87.020502,22.023928 0.0671,-0.05965 0.745582,0.335512 0.685935,-0.715758 0.380247,0.02982 3.206002,6.136139 -2.63936,6.322533 -0.395158,0.193852 -0.581554,-0.469717 -0.700847,0.454805 -0.350424,-0.305688 -0.111837,0.03728 2.564802,-5.822994 z"
         style="font-style:normal;font-variant:normal;font-weight:normal;font-stretch:normal;font-family:AngryBirds;-inkscape-font-specification:AngryBirds;stroke-width:0.38173789"
         id="path579" />
      <path
         d="m 92.992614,27.996039 0.05965,-5.837906 5.286175,-0.238586 0.119293,0.380246 -0.6412,0.596466 0.931977,0.439893 -0.07456,0.156572 -3.452044,0.283321 q -0.02982,0.566643 -0.04473,1.133285 -0.01491,0.492084 0.0075,1.028903 0.02237,0.529363 0.09692,0.954344 0.469717,-0.04473 0.946889,-0.0075 0.477173,0.03728 0.887243,0.126749 0.417525,0.08201 0.738126,0.216218 0.3206,0.126749 0.484628,0.260954 0.260953,0.216219 0.417526,0.603921 0.164028,0.387703 0.208763,0.864875 0.04473,0.469717 -0.01491,1.006536 -0.05965,0.536818 -0.238586,1.05127 -0.171484,0.506996 -0.462261,0.969256 -0.290777,0.454805 -0.685935,0.775405 -0.395159,0.320601 -0.90961,0.529364 -0.514452,0.201307 -1.043815,0.335511 -0.521907,0.126749 -1.021447,0.193852 -0.492084,0.0671 -0.857419,0.09693 0.02982,-0.104381 0.111837,-0.246042 0.08201,-0.149116 0.141661,-0.223674 l -0.671024,-0.141661 0.961801,-0.656112 -1.081094,-0.208763 v -0.201307 q 0.260954,-0.04474 0.641201,-0.126749 0.380246,-0.08947 0.775405,-0.201307 0.402614,-0.111837 0.782861,-0.268409 0.380246,-0.164028 0.6412,-0.365335 0.395158,-0.305689 0.618833,-0.663568 0.23113,-0.35788 0.275865,-0.715759 0.05219,-0.357879 -0.111837,-0.663568 -0.156572,-0.305688 -0.536819,-0.506995 -0.134205,-0.05965 -0.462261,-0.07456 -0.3206,-0.01491 -0.708303,0 -0.387702,0.01491 -0.78286,0.04473 -0.387703,0.02982 -0.648657,0.04473 l 0.141661,-0.842507 z"
         style="font-style:normal;font-variant:normal;font-weight:normal;font-stretch:normal;font-family:AngryBirds;-inkscape-font-specification:AngryBirds;stroke-width:0.38173789"
         id="path581" />
      <path
         d="m 103.14744,30.769603 0.6412,-0.424982 -0.39516,-0.760493 3.713,-0.246042 0.23113,0.454805 -0.59647,0.447349 0.19385,0.760493 -3.64589,0.492084 0.0746,-0.417525 z m 0.0522,-3.750277 0.23858,-0.387702 -0.0447,-0.715759 3.68317,-0.134205 0.0149,0.275866 -0.46227,0.6412 0.46227,0.559187 -0.0969,0.246042 -3.5266,0.395158 0.18639,-0.424982 z"
         style="font-style:normal;font-variant:normal;font-weight:normal;font-stretch:normal;font-family:AngryBirds;-inkscape-font-specification:AngryBirds;stroke-width:0.38173789"
         id="path583" />
    </g>
    <g
       id="g18"
       transform="matrix(1.442789,0,0,1.442789,58.289143,-150.71626)">
      <path
         style="opacity:1;fill:#ffffff;fill-opacity:1;stroke:#ffffff;stroke-width:0.1;stroke-linecap:round;stroke-linejoin:round;stroke-miterlimit:4;stroke-dasharray:none;stroke-dashoffset:0;stroke-opacity:1"
         d="m 36.947174,116.61086 h 10.583333 v 14.83557 H 36.947174 Z"
         id="rect847" />
      <g
         aria-label="?"
         style="font-style:normal;font-variant:normal;font-weight:normal;font-stretch:normal;font-size:13.90325642px;line-height:1.25;font-family:'URW Gothic L';-inkscape-font-specification:'URW Gothic L';letter-spacing:0px;word-spacing:0px;fill:#00ff00;fill-opacity:1;stroke:#000000;stroke-width:0.1;stroke-miterlimit:4;stroke-dasharray:none"
         id="text40">
        <path
           d="m 39.261911,119.27773 0.332646,-0.29191 q -0.02716,-0.0407 -0.06789,-0.095 -0.02716,-0.0407 -0.08146,-0.0883 -0.04752,-0.0543 -0.07468,-0.10862 0.807855,-0.23761 1.608922,-0.3055 0.801066,-0.0679 1.649654,0.0407 0.67887,0.0815 1.208388,0.43447 0.529519,0.34623 0.862165,0.84859 0.332646,0.49558 0.454843,1.09298 0.128985,0.59741 -0.01358,1.19481 -0.108619,0.44806 -0.407321,0.80107 -0.298703,0.35301 -0.739969,0.65171 -0.434476,0.29871 -0.984361,0.54989 -0.549885,0.25118 -1.160868,0.47521 -0.08146,0.2376 -0.142562,0.46163 -0.05431,0.21724 -0.09504,0.42769 -0.04073,0.19687 -0.05431,0.36659 -0.01358,0.16293 -0.04073,0.27155 l -0.21045,0.18329 -0.583828,-0.52952 -0.224027,0.70603 -0.176506,-0.0272 q -0.02716,-0.16972 -0.07468,-0.44805 -0.04073,-0.28513 -0.08146,-0.61099 -0.04073,-0.33264 -0.07468,-0.67887 -0.03394,-0.34622 -0.03394,-0.65171 0.251181,-0.13577 0.597405,-0.30549 0.346224,-0.16972 0.706025,-0.3598 0.488786,-0.27834 0.862165,-0.59741 0.373378,-0.31907 0.475209,-0.64493 0.122196,-0.40053 0.04073,-0.73996 -0.08146,-0.33944 -0.291914,-0.59062 -0.21045,-0.25118 -0.52273,-0.40732 -0.31228,-0.16293 -0.644927,-0.19009 -0.400533,-0.0272 -0.889319,-0.0272 -0.488786,0 -1.018305,0.095 l 0.543096,-0.57025 z m 0.570251,10.34598 q -0.142563,-0.10183 -0.196873,-0.24439 -0.05431,-0.14935 0,-0.31907 0.05431,-0.17651 0.224027,-0.3598 0.169718,-0.19008 0.475209,-0.37338 0.09504,-0.0543 0.285126,-0.0882 0.196872,-0.034 0.41411,-0.0475 0.217239,-0.0136 0.393745,0 0.183295,0.0136 0.237604,0.0543 0.06789,0.0407 0.135774,0.18329 0.07468,0.13578 0.08146,0.31228 0.0068,0.16972 -0.08146,0.3598 -0.08146,0.1833 -0.325857,0.35301 -0.15614,0.10862 -0.414111,0.15614 -0.25797,0.0543 -0.509152,0.0747 -0.244394,0.0204 -0.454843,0 -0.21045,-0.0204 -0.264759,-0.0611 z"
           style="font-style:normal;font-variant:normal;font-weight:normal;font-stretch:normal;font-family:AngryBirds;-inkscape-font-specification:AngryBirds;fill:#00ff00;stroke:#000000;stroke-width:0.1;stroke-miterlimit:4;stroke-dasharray:none"
           id="path564" />
      </g>
    </g>
    <g
       transform="matrix(0.64435768,0,0,0.64435768,32.786059,22.872184)"
       id="ID0.7293403940275311">
      <g
         id="layer1-3">
        <g
           id="text10">
          <path
             style="fill:#003fff;stroke:none;stroke-width:2.32666159"
             inkscape:connector-curvature="0"
             id="path9"
             d="M -5.574,39.692 -70.757,76.991 V 54.924 L -44.291,39.728 -70.757,24.605 V 2.538 Z"
             transform="matrix(1.4872706e-4,0.24039923,0.24039923,-1.4872706e-4,-0.5,17.5)" />
        </g>
      </g>
    </g>
    <g
       transform="matrix(0.74416102,0,0,0.74416102,15.181259,21.100214)"
       id="ID0.4852326139807701">
      <g
         id="ID0.5663091018795967">
        <g
           id="ID0.3804601556621492">
          <path
             style="fill:#003fff"
             inkscape:connector-curvature="0"
             id="ID0.027033838909119368"
             d="m 70.109,20.47 c -0.05,0.65 -0.08,1.2 -0.1,1.66 0.19,0.78 0.32,1.66 0.32,2.64 0,0.22 0.02,0.52 0.04,0.91 0.12,1.62 -0.13,3.25 -0.73,4.77 -0.48,1.23 -1.14,2.39 -2.09,3.67 -0.82,1.11 -1.84,2.06 -3.01,2.79 -2.52,1.57 -5.44,2.37 -8.69,2.37 -0.57,0 -1.14,-0.03 -1.69,-0.09 -0.08,1.01 -0.28,1.98 -0.58,2.9 -0.15,0.44 -0.32,0.88 -0.52,1.3 0.04,0.66 0.11,1.52 0.21,2.62 0.96,7.29 -3.09,11.05 -4.91,12.35 -0.38,0.26 -0.76,0.52 -1.16,0.75 1.48,2.57 1.83,4.95 1.83,6.6 0,4.6 -2.46,8.69 -6.74,11.21 -0.24,0.14 -0.49,0.27 -0.74,0.4 -0.47,0.23 -0.97,0.49 -1.49,0.76 -1.6,0.86 -3.38,1.31 -5.2,1.31 h -6.63 c -0.29,0.05 -1.31,0.25 -3.48,0.99 -4.45,1.53 -7.48,2.18 -10.12,2.18 -2.11,0 -4.13,-0.38 -6.02,-1.14 -0.54,-0.21 -1.06,-0.47 -1.56,-0.77 -0.81,-0.49 -1.62,-1.07 -2.47,-1.79 -2.59,-2.19 -4.2,-5.34 -4.51,-8.87 -0.25,-2.69 0.18,-5.18 1.28,-7.38 0.05,-0.1 0.1,-0.2 0.15,-0.29 1.98,-3.69 5.14,-6.3 9.01,-7.54 0.02,-0.57 0.04,-1.17 0.07,-1.81 V 52.9 c -4.16,-2.25 -6.78,-6.66 -6.78,-12.02 0,-4.22 1.82,-7.97 5.01,-10.41 -2.18,-1.12 -4.05,-2.81 -5.43,-4.94 -1.45,-2.1 -2.21,-4.53 -2.21,-7.1 0,-5.32 3.21,-9.93 8.61,-12.37 2.54,-1.19 5.05,-1.82 7.47,-1.88 0.53,-0.03 1.63,-0.13 3.61,-0.46 2.73,-0.48 4.49,-0.78 5.28,-0.91 0.09,-0.01 0.17,-0.02 0.26,-0.03 2.83,-0.37 6.92,-0.82 12.49,-1.36 0.24,-0.03 0.47,-0.04 0.71,-0.05 3.18,-0.11 7.7,-0.46 13.45,-1.05 1.27,-0.22 2.44,-0.32 3.56,-0.32 2.02,0 3.9,0.36 5.6,1.06 0.04,0.02 0.08,0.03 0.13,0.05 4.28,1.84 7.22,5.71 7.92,10.39 0.21,1.25 0.21,2.55 0.14,4.48 -0.01,0.6 -0.06,1.63 -0.29,4.49 z"
             transform="matrix(0.2200142,0,0,0.2200142,0,0.5)" />
        </g>
      </g>
      <g
         id="ID0.3863844624720514">
        <path
           style="fill:#ffffff"
           inkscape:connector-curvature="0"
           id="ID0.5626670885831118"
           d="m 59.399,26.437 c -0.115,0.294 -0.346,0.675 -0.692,1.144 -0.751,0.47 -1.704,0.703 -2.858,0.703 -1.213,0 -1.892,-0.469 -2.037,-1.407 -0.146,-0.938 -0.159,-2.287 -0.041,-4.046 0.233,-2.345 0.352,-3.752 0.352,-4.223 0,-1.113 -0.178,-1.964 -0.529,-2.551 -2.412,0.176 -6.235,0.44 -11.471,0.792 -7.177,0.352 -12.616,1.056 -16.322,2.111 -0.059,0.646 -0.206,1.231 -0.44,1.759 0,0.411 0,0.968 0,1.671 0,1.115 0,2.317 0,3.606 0,3.343 0.469,6.892 1.407,10.644 2.169,0.118 5.277,-0.058 9.323,-0.527 0,-0.938 -0.059,-2.257 -0.176,-3.959 -0.176,-1.992 -0.278,-3.342 -0.308,-4.046 -0.03,-0.703 -0.103,-1.377 -0.22,-2.023 -0.06,-0.82 0.028,-1.495 0.264,-2.022 0.233,-0.528 0.908,-0.82 2.023,-0.88 1.056,-0.117 1.816,0 2.287,0.352 0.469,0.353 0.732,0.896 0.791,1.628 0.058,0.733 0.117,1.422 0.176,2.066 0.177,1.994 0.293,4.692 0.353,8.093 1.289,0.352 1.935,1.231 1.935,2.639 0,0.294 -0.03,0.528 -0.088,0.704 -0.294,0.294 -0.675,0.791 -1.144,1.495 -0.059,0.118 -0.059,0.587 0,1.407 0,1.231 0.117,3.138 0.353,5.718 0.176,1.114 0.058,1.818 -0.353,2.11 -0.997,0.704 -2.082,1.056 -3.254,1.056 -1.174,0 -1.848,-0.469 -2.023,-1.407 V 43.15 c -0.061,-0.469 -0.148,-1.144 -0.267,-2.022 -0.415,-0.234 -1.36,-0.293 -2.84,-0.176 -1.064,0.176 -2.159,0.322 -3.283,0.439 -0.829,-0.058 -2.012,0.176 -3.549,0.703 -0.061,-0.352 -0.089,1.379 -0.089,5.19 v 7.213 c 0,-0.059 -0.044,0.807 -0.132,2.595 -0.088,1.789 -0.132,3.152 -0.132,4.09 0,1.583 0,2.346 0,2.287 0.058,0.059 0.146,0.146 0.262,0.264 1.396,0 3.549,-0.117 6.46,-0.352 0.115,0 0.61,-0.088 1.484,-0.264 0.581,-0.177 1.047,-0.205 1.396,-0.088 0.465,0.173 0.915,0.548 1.353,1.125 0.437,0.578 0.655,1.096 0.655,1.558 0,0.635 -0.439,1.212 -1.319,1.73 -0.587,0.288 -1.202,0.605 -1.848,0.952 -0.41,0 -0.997,0 -1.759,0 h -5.102 c -1.467,0 -3.738,0.528 -6.817,1.583 -3.078,1.056 -5.264,1.584 -6.553,1.584 -0.704,0 -1.35,-0.118 -1.936,-0.353 -0.294,-0.176 -0.631,-0.426 -1.011,-0.747 -0.383,-0.323 -0.603,-0.807 -0.66,-1.451 -0.059,-0.645 0,-1.144 0.176,-1.496 0.88,-1.641 2.375,-2.491 4.486,-2.551 3.4,-0.176 5.131,-0.277 5.189,-0.308 0.058,-0.028 0.205,-0.189 0.439,-0.484 -0.059,-1.055 0.029,-4.719 0.265,-10.995 v -9.675 c -2.874,0 -4.457,0 -4.75,0 -1.35,-0.116 -2.023,-0.988 -2.023,-2.618 0,-0.815 0.26,-1.398 0.781,-1.747 0.346,-0.232 0.895,-0.553 1.646,-0.96 0.808,-0.115 1.992,-0.378 3.554,-0.786 -0.206,-1.512 -0.411,-3.723 -0.616,-6.634 0,-0.581 0.103,-1.818 0.309,-3.709 0.204,-1.892 0.308,-3.274 0.308,-4.148 0,-1.221 -0.176,-2.035 -0.527,-2.443 -0.471,0 -1.247,0.103 -2.331,0.308 -1.086,0.206 -1.892,0.308 -2.419,0.308 -1.35,0 -2.347,-0.557 -2.991,-1.671 -0.234,-0.293 -0.352,-0.616 -0.352,-0.968 0,-0.938 0.732,-1.729 2.199,-2.375 1.231,-0.585 2.315,-0.879 3.254,-0.879 1.29,-0.059 2.991,-0.265 5.103,-0.616 2.639,-0.469 4.339,-0.762 5.102,-0.88 2.696,-0.352 6.742,-0.791 12.139,-1.319 3.518,-0.116 8.385,-0.497 14.601,-1.144 1.584,-0.292 2.727,-0.292 3.431,0 0.82,0.353 1.289,1.027 1.407,2.023 0.058,0.235 0.058,1.056 0,2.463 0,0.47 -0.088,1.789 -0.264,3.958 -0.118,1.76 -0.176,3.167 -0.176,4.223 0,0.118 0.061,0.278 0.183,0.483 0.122,0.206 0.185,0.338 0.185,0.396 -0.001,0.411 0.023,0.967 0.071,1.671 z"
           transform="matrix(0.2200142,0,0,0.2200142,0,0.5)" />
      </g>
    </g>
    <g
       aria-label="Use um conectivo lógico para completar a expressão:"
       style="font-style:normal;font-variant:normal;font-weight:normal;font-stretch:normal;font-size:5.78488922px;line-height:1.25;font-family:'URW Gothic L';-inkscape-font-specification:'URW Gothic L';letter-spacing:0px;word-spacing:0px;fill:#000000;fill-opacity:1;stroke:none;stroke-width:0.14462222"
       id="text14-2-3">
      <path
         d="m 9.1405195,11.968201 q 0,-0.299413 0.016948,-0.635546 0.019773,-0.336134 0.039545,-0.638372 0.019772,-0.305063 0.04237,-0.542333 0.022597,-0.2372713 0.03672,-0.353082 l 0.07909,-0.039545 0.1271094,0.1666546 0.1525313,-0.155356 0.1553559,0.4858406 0.2937643,-0.3869777 q -0.02825,0.2203227 -0.05367,0.5140867 -0.02542,0.293764 -0.04237,0.618599 -0.014123,0.324835 -0.016948,0.652495 0,0.03955 0,0.07909 0,0.282466 0.019773,0.53386 0.019773,0.28529 0.062142,0.511262 0.04237,0.225972 0.118636,0.336134 0.104512,0.149706 0.225972,0.20055 0.09886,0.04237 0.2062,0.04237 0.0226,0 0.04802,0 0.132759,-0.0113 0.268342,-0.06214 0.135583,-0.05367 0.262693,-0.112986 0,-0.237271 -0.0028,-0.547982 -0.0028,-0.313537 -0.0028,-0.65532 0,-0.341783 -0.0028,-0.686391 -0.0028,-0.347432 -0.0028,-0.64967 v -0.52821 -0.3389582 l 0.09886,-0.056493 0.254219,0.5366843 0.220323,-0.4914899 q 0.04519,0.00565 0.135583,0.016948 0.09039,0.011299 0.152531,0.016948 0,0.1553559 0.0028,0.44912 0.0056,0.290939 0.0056,0.669443 v 0.8135 q 0,0.434996 -0.0085,0.878467 -0.0056,0.440646 -0.01412,0.861519 -0.0085,0.418048 -0.01977,0.765481 l -0.06779,0.03955 -0.214674,-0.432172 -0.214674,0.386977 -0.183602,-0.04519 -0.02542,-0.237271 q -0.265517,0.138408 -0.539509,0.225972 -0.273991,0.08474 -0.514086,0.110162 -0.107337,0.0113 -0.2062,0.01412 -0.1186356,0 -0.2203231,-0.01977 Q 9.6263598,14.247696 9.5529188,14.160132 9.3551931,13.93416 9.2478563,13.366405 9.1405195,12.795825 9.1405195,11.968201 Z"
         style="font-style:normal;font-variant:normal;font-weight:normal;font-stretch:normal;font-family:AngryBirds;-inkscape-font-specification:AngryBirds;stroke-width:0.14462222"
         id="path474" />
      <path
         d="m 12.434065,11.9795 q 0.0226,-0.293764 0.175128,-0.536684 0.155356,-0.24292 0.395452,-0.418049 0.240095,-0.177953 0.533859,-0.290939 0.296589,-0.112986 0.604476,-0.146882 0.05932,-0.0085 0.144057,-0.0113 0.0226,0 0.04519,0.0028 0.11581,0.0028 0.197725,0.0085 l 0.0226,0.07344 -0.375678,0.209024 0.299413,0.144058 -0.12711,0.12146 0.08756,0.16383 q -0.209025,0.01695 -0.4124,0.05649 -0.20055,0.03955 -0.361555,0.110161 -0.158181,0.07062 -0.268342,0.172304 -0.110162,0.09886 -0.132759,0.231622 -0.0056,0.03389 -0.0056,0.06779 0,0.107337 0.07627,0.180778 0.09886,0.09886 0.237271,0.16383 0.07062,0.02825 0.144058,0.05367 0.07627,0.02542 0.149706,0.05084 0.07062,0.0226 0.132759,0.03955 0.06497,0.01695 0.110161,0.02825 0.276816,0.08756 0.432172,0.240095 0.158181,0.152531 0.158181,0.44912 0,0.313537 -0.172304,0.553632 -0.169479,0.240096 -0.533859,0.423698 -0.144058,0.07062 -0.29094,0.118635 -0.146882,0.04802 -0.288114,0.08192 -0.138408,0.03672 -0.262693,0.05367 -0.124285,0.01695 -0.228797,0.02825 l 0.09886,-0.183602 -0.265517,-0.07627 0.11581,-0.172304 -0.09886,-0.104512 q 0.09886,-0.0226 0.217499,-0.04802 0.118635,-0.02825 0.240095,-0.06214 0.110162,-0.0339 0.223148,-0.08192 0.112986,-0.05084 0.203375,-0.118636 0.09321,-0.07062 0.152531,-0.155356 0.06214,-0.08474 0.06214,-0.180777 0,-0.12146 -0.118635,-0.200551 -0.118635,-0.07909 -0.262693,-0.124284 -0.149706,-0.05084 -0.299413,-0.08474 -0.146882,-0.03672 -0.220323,-0.06497 -0.259868,-0.104512 -0.409574,-0.282465 -0.12711,-0.152532 -0.12711,-0.401101 0,-0.03955 0.0028,-0.08192 z"
         style="font-style:normal;font-variant:normal;font-weight:normal;font-stretch:normal;font-family:AngryBirds;-inkscape-font-specification:AngryBirds;stroke-width:0.14462222"
         id="path476" />
      <path
         d="m 15.086414,10.928729 0.07909,-0.186427 -0.03955,-0.07627 1.655247,-0.110161 0.05084,0.225972 -0.358731,0.24857 0.341783,0.104512 -0.04519,0.127109 -0.844571,0.07627 -0.01977,0.889766 0.844572,-0.02825 -0.09604,0.302238 0.166655,0.06779 -0.02825,0.155355 -0.875642,0.08756 0.03672,0.943434 0.872817,-0.0339 -0.05649,0.299413 0.155356,0.07062 -0.06497,0.220323 -1.364307,0.07909 0.0226,-0.293764 -0.353082,0.0226 0.03672,-2.706018 -0.07062,-0.11581 0.248569,-0.214674 z"
         style="font-style:normal;font-variant:normal;font-weight:normal;font-stretch:normal;font-family:AngryBirds;-inkscape-font-specification:AngryBirds;stroke-width:0.14462222"
         id="path478" />
      <path
         d="m 18.385608,12.841019 q 0,-0.324835 0.0028,-0.587528 0.0028,-0.262692 0.01695,-0.508437 0.01412,-0.245745 0.03672,-0.502788 0.0226,-0.257044 0.06497,-0.564931 l 0.189252,0.07627 0.225972,-0.172304 0.214674,0.132759 0.07909,-0.02825 q -0.01695,0.172304 -0.03672,0.451944 -0.01977,0.276816 -0.03955,0.581879 -0.01977,0.302238 -0.02825,0.590352 -0.0028,0.124285 -0.0056,0.228797 0,0.141233 0.0085,0.251394 0.02825,0.545158 0.293764,0.69204 0.08756,0.04802 0.20055,0.04802 0.225972,0 0.545158,-0.194902 0.0339,-0.08191 0.05367,-0.234446 0.0226,-0.155356 0.0339,-0.347432 0.0113,-0.194901 0.01695,-0.415224 0.0056,-0.220323 0.0056,-0.443471 0.0056,-0.375678 0.0085,-0.742883 0.0028,-0.37003 0.01412,-0.618599 l 0.15818,-0.03954 0.194901,0.392626 0.254219,-0.370029 0.135584,-0.0056 q -0.0056,0.23727 -0.01412,0.655319 -0.0056,0.415224 -0.0113,0.923662 -0.0057,0.508437 -0.0057,1.05642 0,0.545158 0.0113,1.033823 l -0.144057,-0.04802 -0.194901,0.169479 -0.214674,-0.141233 -0.169479,0.08191 q -0.0056,-0.02825 -0.01977,-0.07627 -0.01412,-0.05084 -0.05367,-0.155355 -0.172304,0.07626 -0.381328,0.132758 -0.209025,0.05367 -0.409575,0.07344 -0.107337,0.0113 -0.2062,0.0113 -0.08474,0 -0.16383,-0.0085 -0.169479,-0.01695 -0.262692,-0.08756 -0.144058,-0.104513 -0.225972,-0.288115 -0.08192,-0.186427 -0.121461,-0.381328 -0.03955,-0.197726 -0.04802,-0.367205 -0.0085,-0.172304 -0.0085,-0.254219 z"
         style="font-style:normal;font-variant:normal;font-weight:normal;font-stretch:normal;font-family:AngryBirds;-inkscape-font-specification:AngryBirds;stroke-width:0.14462222"
         id="path480" />
      <path
         d="m 21.391039,14.346559 0.177953,-3.770911 0.180777,-0.07627 0.220323,0.502788 0.242921,-0.403925 0.12146,0.12146 0.101687,-0.08756 0.522561,1.627 h 0.09321 l 0.514087,-1.643948 0.166655,0.127109 0.225972,-0.177953 0.197726,0.282465 0.254219,-0.231621 0.172303,3.609906 -0.110161,0.02825 -0.183603,-0.310712 -0.11581,0.288114 -0.104512,-0.09321 -0.144058,0.05932 -0.127109,-1.765408 -0.104512,-0.02825 -0.607301,1.629825 -0.104512,-0.09039 -0.110161,0.04519 -0.596002,-1.528137 -0.09321,-0.0113 -0.12146,1.793655 -0.177953,0.05084 -0.220323,-0.350257 -0.172304,0.432172 z"
         style="font-style:normal;font-variant:normal;font-weight:normal;font-stretch:normal;font-family:AngryBirds;-inkscape-font-specification:AngryBirds;stroke-width:0.14462222"
         id="path482" />
      <path
         d="m 26.020644,12.524658 q 0,-0.166654 0.04802,-0.44347 0.05084,-0.279641 0.158181,-0.564931 0.107337,-0.288115 0.282465,-0.522561 0.177953,-0.234446 0.432172,-0.316361 0.282465,-0.08756 0.539509,-0.118635 0.08474,-0.0113 0.177953,-0.0085 0.180778,0 0.375679,0.04237 0.0113,0.01695 0.01695,0.04237 0.0056,0.02542 0.01695,0.04237 l -0.398276,0.141233 0.276816,0.155356 -0.121461,0.104512 0.04802,0.144057 q -0.07627,0.0056 -0.16948,0.01695 -0.09321,0.0113 -0.186427,0.03107 -0.09039,0.01695 -0.175128,0.03955 -0.08474,0.0226 -0.146882,0.05649 -0.115811,0.05649 -0.197726,0.214674 -0.07909,0.155356 -0.129934,0.341783 -0.04802,0.183602 -0.07344,0.367205 -0.0226,0.180778 -0.0226,0.290939 0,0.09886 0.01412,0.234446 0.01695,0.135584 0.05084,0.282466 0.0339,0.144057 0.09321,0.273991 0.06214,0.129934 0.161006,0.211849 0.05084,0.04519 0.155356,0.07062 0.104512,0.02542 0.231621,0.03954 0.12711,0.0113 0.259868,0.01695 0.135584,0.0056 0.251394,0.0056 -0.0113,0.0113 -0.02542,0.03107 -0.0113,0.01977 -0.02825,0.04802 l 0.12146,0.132759 -0.288115,0.163829 0.316362,0.115811 q -0.0113,0.04519 -0.0226,0.06779 -0.347432,0.07627 -0.697689,0.09604 -0.05084,0.0028 -0.101687,0.0028 -0.288115,0 -0.531035,-0.09886 -0.220323,-0.08756 -0.358731,-0.28529 -0.138408,-0.20055 -0.217498,-0.44912 -0.07627,-0.248569 -0.107337,-0.516911 -0.02825,-0.268342 -0.02825,-0.499964 z"
         style="font-style:normal;font-variant:normal;font-weight:normal;font-stretch:normal;font-family:AngryBirds;-inkscape-font-specification:AngryBirds;stroke-width:0.14462222"
         id="path484" />
      <path
         d="m 28.466795,12.942707 q -0.0113,-0.155356 -0.01412,-0.310712 0,-0.172304 0.01695,-0.344608 0.05649,-0.590352 0.16383,-0.926486 0.107336,-0.336134 0.316361,-0.514087 0.07626,-0.06497 0.192076,-0.129934 0.118635,-0.06779 0.262693,-0.115811 0.146882,-0.05084 0.313536,-0.07062 0.07909,-0.0085 0.158181,-0.0085 l 0.177953,0.0113 -0.0113,0.336133 0.282466,-0.172303 0.12146,0.177953 0.192076,-0.07627 q 0.214674,0.220323 0.32766,0.632722 0.115811,0.409575 0.115811,1.005577 0,0.197726 -0.0226,0.432172 -0.0226,0.234446 -0.08192,0.460418 -0.05649,0.223148 -0.152531,0.412399 -0.09604,0.186428 -0.240095,0.29094 -0.203375,0.144057 -0.409575,0.220323 -0.203375,0.07626 -0.398276,0.09604 -0.09039,0.0085 -0.180778,0.0085 -0.09886,0 -0.189252,-0.0113 -0.172303,-0.0226 -0.313536,-0.07626 -0.177953,-0.06497 -0.310712,-0.259868 -0.129934,-0.197726 -0.211849,-0.468893 -0.07909,-0.271167 -0.104512,-0.598826 z m 0.689215,-0.52821 q -0.0085,0.110161 -0.0056,0.217498 0,0.203375 0.02825,0.401101 0.04237,0.299413 0.15818,0.480191 0.05649,0.09321 0.166655,0.141232 0.110161,0.04519 0.234446,0.04519 0.124285,0 0.237271,-0.04237 0.112986,-0.04519 0.172303,-0.138408 0.05649,-0.09321 0.110162,-0.268342 0.05649,-0.177953 0.08756,-0.389802 0.0339,-0.214674 0.03955,-0.446295 0,-0.03107 0,-0.06214 0,-0.197725 -0.0339,-0.381328 -0.03672,-0.211849 -0.124284,-0.378503 -0.08474,-0.166655 -0.231622,-0.254219 -0.09321,-0.05649 -0.217498,-0.05649 -0.0056,0 -0.01412,0 -0.132759,0.0028 -0.228797,0.09039 -0.166655,0.149706 -0.262693,0.437821 -0.09321,0.28529 -0.115811,0.604476 z"
         style="font-style:normal;font-variant:normal;font-weight:normal;font-stretch:normal;font-family:AngryBirds;-inkscape-font-specification:AngryBirds;stroke-width:0.14462222"
         id="path486" />
      <path
         d="m 31.497647,10.697108 0.254219,-0.132759 0.203375,0.211849 0.254219,-0.08474 1.180705,2.143912 h 0.115811 l -0.0339,-2.126964 0.149706,-0.08756 0.259869,0.358731 0.24292,-0.36438 0.104512,0.01695 -0.0056,3.714418 -0.06497,0.03955 -0.206199,-0.214673 -0.290939,0.203375 -0.115811,-0.0226 -1.166582,-1.83885 -0.146882,-0.01695 -0.04519,1.867095 -0.166655,-0.0226 -0.225972,-0.307887 -0.169479,0.341783 -0.09886,-0.05084 z"
         style="font-style:normal;font-variant:normal;font-weight:normal;font-stretch:normal;font-family:AngryBirds;-inkscape-font-specification:AngryBirds;stroke-width:0.14462222"
         id="path488" />
      <path
         d="m 34.666907,10.928729 0.07909,-0.186427 -0.03955,-0.07627 1.655247,-0.110161 0.05084,0.225972 -0.358731,0.24857 0.341783,0.104512 -0.04519,0.127109 -0.844571,0.07627 -0.01977,0.889766 0.844572,-0.02825 -0.09604,0.302238 0.166655,0.06779 -0.02825,0.155355 -0.875642,0.08756 0.03672,0.943434 0.872818,-0.0339 -0.05649,0.299413 0.155356,0.07062 -0.06497,0.220323 -1.364307,0.07909 0.0226,-0.293764 -0.353082,0.0226 0.03672,-2.706018 -0.07062,-0.11581 0.24857,-0.214674 z"
         style="font-style:normal;font-variant:normal;font-weight:normal;font-stretch:normal;font-family:AngryBirds;-inkscape-font-specification:AngryBirds;stroke-width:0.14462222"
         id="path490" />
      <path
         d="m 36.765624,12.524658 q 0,-0.166654 0.04802,-0.44347 0.05084,-0.279641 0.158181,-0.564931 0.107337,-0.288115 0.282465,-0.522561 0.177953,-0.234446 0.432172,-0.316361 0.282465,-0.08756 0.539509,-0.118635 0.08474,-0.0113 0.177953,-0.0085 0.180778,0 0.375679,0.04237 0.0113,0.01695 0.01695,0.04237 0.0056,0.02542 0.01695,0.04237 l -0.398276,0.141233 0.276816,0.155356 -0.12146,0.104512 0.04802,0.144057 q -0.07626,0.0056 -0.169479,0.01695 -0.09321,0.0113 -0.186427,0.03107 -0.09039,0.01695 -0.175128,0.03955 -0.08474,0.0226 -0.146882,0.05649 -0.115811,0.05649 -0.197726,0.214674 -0.07909,0.155356 -0.129934,0.341783 -0.04802,0.183602 -0.07344,0.367205 -0.0226,0.180778 -0.0226,0.290939 0,0.09886 0.01412,0.234446 0.01695,0.135584 0.05084,0.282466 0.0339,0.144057 0.09321,0.273991 0.06214,0.129934 0.161006,0.211849 0.05084,0.04519 0.155355,0.07062 0.104513,0.02542 0.231622,0.03954 0.127109,0.0113 0.259868,0.01695 0.135583,0.0056 0.251394,0.0056 -0.0113,0.0113 -0.02542,0.03107 -0.0113,0.01977 -0.02825,0.04802 l 0.12146,0.132759 -0.288115,0.163829 0.316361,0.115811 q -0.0113,0.04519 -0.0226,0.06779 -0.347432,0.07627 -0.697689,0.09604 -0.05084,0.0028 -0.101688,0.0028 -0.288114,0 -0.531034,-0.09886 -0.220323,-0.08756 -0.358731,-0.28529 -0.138408,-0.20055 -0.217499,-0.44912 -0.07626,-0.248569 -0.107336,-0.516911 -0.02825,-0.268342 -0.02825,-0.499964 z"
         style="font-style:normal;font-variant:normal;font-weight:normal;font-stretch:normal;font-family:AngryBirds;-inkscape-font-specification:AngryBirds;stroke-width:0.14462222"
         id="path492" />
      <path
         d="m 39.121386,10.914606 0.02825,-0.101688 2.285145,-0.163829 -0.09321,0.144057 0.16383,0.169479 -0.279641,0.177953 0.279641,0.12146 -0.0226,0.09886 -0.754183,0.05367 -0.03955,2.878322 -0.08756,0.02542 -0.189252,-0.4124 -0.132758,0.353082 -0.141233,-0.144057 -0.166655,0.104512 -0.02825,-2.770985 -0.700514,0.04519 0.02825,-0.104512 -0.09886,-0.07909 0.324835,-0.24292 z"
         style="font-style:normal;font-variant:normal;font-weight:normal;font-stretch:normal;font-family:AngryBirds;-inkscape-font-specification:AngryBirds;stroke-width:0.14462222"
         id="path494" />
      <path
         d="m 41.909319,14.247696 v -3.598607 l 0.12711,-0.04519 0.192076,0.451945 0.24292,-0.434997 0.172304,0.09321 0.16383,-0.05932 -0.09886,3.657925 -0.07062,0.0226 -0.24292,-0.347433 -0.166655,0.305063 -0.149707,-0.05649 z"
         style="font-style:normal;font-variant:normal;font-weight:normal;font-stretch:normal;font-family:AngryBirds;-inkscape-font-specification:AngryBirds;stroke-width:0.14462222"
         id="path496" />
      <path
         d="m 43.154989,10.603894 0.09321,-0.03955 0.259868,0.471717 0.104513,-0.415224 0.166654,0.115811 0.127109,-0.161005 0.536684,2.827477 0.104513,-0.02825 0.700514,-2.782284 0.09886,0.0452 0.172304,-0.09886 0.152532,0.418049 0.32201,-0.353082 0.03672,0.02825 -1.042296,3.691821 -0.12711,-0.0113 -0.161005,-0.225972 -0.268342,0.24857 -0.09604,-0.01695 -0.24292,-0.330485 -0.135584,0.282466 -0.08474,-0.0339 z"
         style="font-style:normal;font-variant:normal;font-weight:normal;font-stretch:normal;font-family:AngryBirds;-inkscape-font-specification:AngryBirds;stroke-width:0.14462222"
         id="path498" />
      <path
         d="m 46.23951,12.942707 q -0.0113,-0.155356 -0.01412,-0.310712 0,-0.172304 0.01695,-0.344608 0.05649,-0.590352 0.16383,-0.926486 0.107337,-0.336134 0.316361,-0.514087 0.07627,-0.06497 0.192077,-0.129934 0.118635,-0.06779 0.262692,-0.115811 0.146882,-0.05084 0.313537,-0.07062 0.07909,-0.0085 0.15818,-0.0085 l 0.177954,0.0113 -0.0113,0.336133 0.282465,-0.172303 0.12146,0.177953 0.192077,-0.07627 q 0.214673,0.220323 0.327659,0.632722 0.115811,0.409575 0.115811,1.005577 0,0.197726 -0.0226,0.432172 -0.0226,0.234446 -0.08192,0.460418 -0.05649,0.223148 -0.152531,0.412399 -0.09604,0.186428 -0.240096,0.29094 -0.203375,0.144057 -0.409574,0.220323 -0.203375,0.07626 -0.398276,0.09604 -0.09039,0.0085 -0.180778,0.0085 -0.09886,0 -0.189252,-0.0113 -0.172304,-0.0226 -0.313536,-0.07626 -0.177954,-0.06497 -0.310712,-0.259868 -0.129934,-0.197726 -0.211849,-0.468893 -0.07909,-0.271167 -0.104512,-0.598826 z m 0.689215,-0.52821 q -0.0085,0.110161 -0.0056,0.217498 0,0.203375 0.02825,0.401101 0.04237,0.299413 0.158181,0.480191 0.05649,0.09321 0.166654,0.141232 0.110162,0.04519 0.234446,0.04519 0.124285,0 0.237271,-0.04237 0.112986,-0.04519 0.172304,-0.138408 0.05649,-0.09321 0.110162,-0.268342 0.05649,-0.177953 0.08756,-0.389802 0.0339,-0.214674 0.03954,-0.446295 0,-0.03107 0,-0.06214 0,-0.197725 -0.0339,-0.381328 -0.03672,-0.211849 -0.124285,-0.378503 -0.08474,-0.166655 -0.231621,-0.254219 -0.09321,-0.05649 -0.217498,-0.05649 -0.0056,0 -0.01412,0 -0.132758,0.0028 -0.228797,0.09039 -0.166654,0.149706 -0.262692,0.437821 -0.09321,0.28529 -0.115811,0.604476 z"
         style="font-style:normal;font-variant:normal;font-weight:normal;font-stretch:normal;font-family:AngryBirds;-inkscape-font-specification:AngryBirds;stroke-width:0.14462222"
         id="path500" />
      <path
         d="m 50.516034,10.770549 0.110161,0.01695 0.161005,-0.115811 0.16948,0.28529 0.299413,-0.401101 0.09321,0.03107 -0.09886,3.112768 h 0.954732 l -0.237271,0.20055 0.324835,0.127109 -0.163829,0.197726 0.05932,0.08192 -1.302165,0.09604 -0.05084,-0.316361 -0.307888,0.04519 z"
         style="font-style:normal;font-variant:normal;font-weight:normal;font-stretch:normal;font-family:AngryBirds;-inkscape-font-specification:AngryBirds;stroke-width:0.14462222"
         id="path502" />
      <path
         d="m 52.772935,13.541533 q -0.07909,-0.271167 -0.107337,-0.596002 -0.02542,-0.327659 0.0056,-0.658144 0.05649,-0.590352 0.16383,-0.926486 0.107337,-0.336134 0.316361,-0.514087 0.07627,-0.06497 0.192077,-0.129934 0.118635,-0.06779 0.262692,-0.115811 0.146882,-0.05084 0.313537,-0.07062 0.166654,-0.01977 0.336134,0.0028 l -0.0113,0.336133 0.282465,-0.172303 0.12146,0.177953 0.192077,-0.07627 q 0.214673,0.220323 0.32766,0.632722 0.11581,0.409575 0.11581,1.005577 0,0.197726 -0.0226,0.432172 -0.0226,0.234446 -0.08192,0.460418 -0.05649,0.223148 -0.152531,0.412399 -0.09604,0.186428 -0.240096,0.29094 -0.203375,0.144057 -0.409574,0.220323 -0.203375,0.07626 -0.401101,0.09604 -0.194901,0.01977 -0.37003,-0.0028 -0.172303,-0.0226 -0.310711,-0.07626 -0.177953,-0.06497 -0.310712,-0.259868 Q 52.85485,13.8127 52.772935,13.541533 Z m 0.703338,-1.731512 q -0.09321,0.28529 -0.118635,0.604476 -0.0226,0.319185 0.01977,0.621423 0.04519,0.299413 0.161005,0.477367 0.05649,0.09321 0.166654,0.141232 0.110162,0.04519 0.234447,0.04519 0.124284,0 0.23727,-0.04237 0.112987,-0.04519 0.172304,-0.138408 0.05649,-0.09321 0.110162,-0.268342 0.05649,-0.177953 0.08756,-0.389802 0.0339,-0.214674 0.03955,-0.446295 0.0056,-0.231622 -0.0339,-0.443471 -0.03672,-0.211849 -0.124285,-0.378503 -0.08474,-0.166655 -0.231621,-0.254219 -0.09886,-0.05649 -0.231622,-0.05367 -0.132758,0.0028 -0.228796,0.08756 -0.166655,0.149706 -0.259869,0.437821 z m 0.155356,-1.686318 0.646846,-0.9942778 0.132759,-0.011299 -0.03955,0.2287969 0.347433,-0.028247 -0.03672,0.138408 0.12146,0.053668 -0.768305,0.6807416 -0.138408,-0.138408 -0.203375,0.127109 z"
         style="font-style:normal;font-variant:normal;font-weight:normal;font-stretch:normal;font-family:AngryBirds;-inkscape-font-specification:AngryBirds;stroke-width:0.14462222"
         id="path504" />
      <path
         d="m 55.654081,12.908811 q -0.01412,-0.132759 -0.01412,-0.268342 0,-0.138408 0.01412,-0.28529 0.0339,-0.353082 0.09604,-0.632722 0.06497,-0.279641 0.175128,-0.488665 0.110162,-0.209025 0.282466,-0.347433 0.175128,-0.138408 0.434996,-0.220323 0.254219,-0.08192 0.494315,-0.09321 0.05649,-0.0028 0.11581,-0.0056 0.186427,0 0.384153,0.03672 l 0.03672,0.06779 -0.307888,0.115811 0.237271,0.220322 -0.155356,0.104513 0.07909,0.149706 q -0.09321,0.0056 -0.2062,0.01695 -0.110162,0.0085 -0.223148,0.03107 -0.112986,0.0226 -0.211849,0.05367 -0.09886,0.03107 -0.161005,0.08474 -0.144057,0.115811 -0.234446,0.364381 -0.09039,0.248569 -0.110161,0.536684 -0.0057,0.08192 -0.0057,0.163829 0,0.2062 0.03672,0.409575 0.05084,0.282465 0.186427,0.474542 0.07062,0.09321 0.169479,0.144057 0.101687,0.04802 0.217498,0.06214 0.05367,0.0056 0.104512,0.0056 l 0.12711,-0.0085 q 0.115811,-0.01695 0.214673,-0.05932 0.0113,-0.293764 0.0226,-0.56493 0.0085,-0.180778 0.0056,-0.341783 0,-0.07909 0,-0.152532 l 0.110161,-0.07344 0.189252,0.347433 0.225972,-0.336134 0.07627,-0.0226 q -0.0085,0.299413 -0.0085,0.618599 0,0.15818 0.0028,0.324835 0.0056,0.491489 0.01695,0.988628 l -0.203375,0.06779 -0.155356,-0.305063 -0.254219,0.209025 q 0,-0.02825 -0.0028,-0.06497 -0.0028,-0.03954 -0.01977,-0.104512 -0.344608,0.112986 -0.629898,0.112986 -0.06497,0 -0.127109,-0.0057 -0.333309,-0.03107 -0.516912,-0.180777 -0.12146,-0.09886 -0.228797,-0.268342 -0.107336,-0.172304 -0.180777,-0.395452 -0.07062,-0.223147 -0.09886,-0.48584 z"
         style="font-style:normal;font-variant:normal;font-weight:normal;font-stretch:normal;font-family:AngryBirds;-inkscape-font-specification:AngryBirds;stroke-width:0.14462222"
         id="path506" />
      <path
         d="m 58.461783,14.247696 v -3.598607 l 0.127109,-0.04519 0.192077,0.451945 0.24292,-0.434997 0.172304,0.09321 0.163829,-0.05932 -0.09886,3.657925 -0.07062,0.0226 -0.24292,-0.347433 -0.166654,0.305063 -0.149707,-0.05649 z"
         style="font-style:normal;font-variant:normal;font-weight:normal;font-stretch:normal;font-family:AngryBirds;-inkscape-font-specification:AngryBirds;stroke-width:0.14462222"
         id="path508" />
      <path
         d="m 59.7583,12.524658 q 0,-0.166654 0.04802,-0.44347 0.05084,-0.279641 0.158181,-0.564931 0.107336,-0.288115 0.282465,-0.522561 0.177953,-0.234446 0.432172,-0.316361 0.282465,-0.08756 0.539508,-0.118635 0.08474,-0.0113 0.177954,-0.0085 0.180777,0 0.375678,0.04237 0.0113,0.01695 0.01695,0.04237 0.0056,0.02542 0.01695,0.04237 l -0.398276,0.141233 0.276816,0.155356 -0.12146,0.104512 0.04802,0.144057 q -0.07626,0.0056 -0.169479,0.01695 -0.09321,0.0113 -0.186427,0.03107 -0.09039,0.01695 -0.175129,0.03955 -0.08474,0.0226 -0.146882,0.05649 -0.11581,0.05649 -0.197725,0.214674 -0.07909,0.155356 -0.129934,0.341783 -0.04802,0.183602 -0.07344,0.367205 -0.0226,0.180778 -0.0226,0.290939 0,0.09886 0.01412,0.234446 0.01695,0.135584 0.05084,0.282466 0.0339,0.144057 0.09321,0.273991 0.06214,0.129934 0.161005,0.211849 0.05084,0.04519 0.155356,0.07062 0.104512,0.02542 0.231622,0.03954 0.127109,0.0113 0.259868,0.01695 0.135583,0.0056 0.251394,0.0056 -0.0113,0.0113 -0.02542,0.03107 -0.0113,0.01977 -0.02825,0.04802 l 0.12146,0.132759 -0.288115,0.163829 0.316361,0.115811 q -0.0113,0.04519 -0.0226,0.06779 -0.347432,0.07627 -0.697689,0.09604 -0.05084,0.0028 -0.101688,0.0028 -0.288114,0 -0.531035,-0.09886 -0.220323,-0.08756 -0.358731,-0.28529 -0.138408,-0.20055 -0.217498,-0.44912 -0.07626,-0.248569 -0.107337,-0.516911 Q 59.7583,12.75628 59.7583,12.524658 Z"
         style="font-style:normal;font-variant:normal;font-weight:normal;font-stretch:normal;font-family:AngryBirds;-inkscape-font-specification:AngryBirds;stroke-width:0.14462222"
         id="path510" />
      <path
         d="m 62.204449,12.942707 q -0.0113,-0.155356 -0.01412,-0.310712 0,-0.172304 0.01695,-0.344608 0.05649,-0.590352 0.16383,-0.926486 0.107337,-0.336134 0.316361,-0.514087 0.07627,-0.06497 0.192077,-0.129934 0.118635,-0.06779 0.262692,-0.115811 0.146882,-0.05084 0.313537,-0.07062 0.07909,-0.0085 0.158181,-0.0085 l 0.177953,0.0113 -0.0113,0.336133 0.282465,-0.172303 0.12146,0.177953 0.192077,-0.07627 q 0.214673,0.220323 0.32766,0.632722 0.11581,0.409575 0.11581,1.005577 0,0.197726 -0.0226,0.432172 -0.0226,0.234446 -0.08191,0.460418 -0.05649,0.223148 -0.152531,0.412399 -0.09604,0.186428 -0.240096,0.29094 -0.203375,0.144057 -0.409574,0.220323 -0.203375,0.07626 -0.398276,0.09604 -0.09039,0.0085 -0.180778,0.0085 -0.09886,0 -0.189252,-0.0113 -0.172304,-0.0226 -0.313536,-0.07626 -0.177953,-0.06497 -0.310712,-0.259868 -0.129934,-0.197726 -0.211849,-0.468893 -0.07909,-0.271167 -0.104512,-0.598826 z m 0.689215,-0.52821 q -0.0085,0.110161 -0.0056,0.217498 0,0.203375 0.02825,0.401101 0.04237,0.299413 0.158181,0.480191 0.05649,0.09321 0.166654,0.141232 0.110162,0.04519 0.234447,0.04519 0.124284,0 0.23727,-0.04237 0.112987,-0.04519 0.172304,-0.138408 0.05649,-0.09321 0.110162,-0.268342 0.05649,-0.177953 0.08756,-0.389802 0.0339,-0.214674 0.03955,-0.446295 0,-0.03107 0,-0.06214 0,-0.197725 -0.0339,-0.381328 -0.03672,-0.211849 -0.124284,-0.378503 -0.08474,-0.166655 -0.231622,-0.254219 -0.09321,-0.05649 -0.217498,-0.05649 -0.0056,0 -0.01412,0 -0.132758,0.0028 -0.228796,0.09039 -0.166655,0.149706 -0.262693,0.437821 -0.09321,0.28529 -0.115811,0.604476 z"
         style="font-style:normal;font-variant:normal;font-weight:normal;font-stretch:normal;font-family:AngryBirds;-inkscape-font-specification:AngryBirds;stroke-width:0.14462222"
         id="path512" />
      <path
         d="m 66.26065,10.807269 0.0339,-0.141233 q 0.237271,-0.08756 0.542333,-0.152531 0.307887,-0.06497 0.61295,-0.08474 0.07909,-0.0056 0.155356,-0.0028 0.217498,0 0.412399,0.03672 0.262693,0.04802 0.40675,0.186428 0.231622,0.225972 0.313537,0.516911 0.05649,0.197726 0.05367,0.395451 0,0.09321 -0.0113,0.186428 -0.03672,0.293763 -0.177953,0.573404 -0.138408,0.276816 -0.350257,0.480191 -0.07062,0.06497 -0.180777,0.135583 -0.110162,0.06779 -0.245745,0.132759 -0.135584,0.06214 -0.296589,0.118636 -0.15818,0.05367 -0.319186,0.08756 l -0.0056,1.005576 -0.104512,0.03672 -0.115811,-0.324835 -0.231621,0.313536 -0.149707,-0.175128 -0.115811,0.07062 -0.02825,-2.892445 -0.12711,-0.09886 0.347433,-0.35873 z m 0.878467,0.426523 0.03107,1.358658 q 0.144058,-0.05084 0.265518,-0.110162 0.104512,-0.04519 0.20055,-0.09321 0.09886,-0.05084 0.146882,-0.09039 0.12146,-0.110162 0.2062,-0.259868 0.08756,-0.149707 0.112986,-0.305063 0.0085,-0.05649 0.0113,-0.107337 0,-0.09604 -0.03107,-0.183602 -0.04519,-0.138408 -0.194901,-0.231622 -0.07062,-0.04237 -0.186427,-0.04519 -0.0085,0 -0.01412,0.0028 -0.124285,0.0028 -0.245745,0.01412 -0.146882,0.0226 -0.302238,0.05084 z"
         style="font-style:normal;font-variant:normal;font-weight:normal;font-stretch:normal;font-family:AngryBirds;-inkscape-font-specification:AngryBirds;stroke-width:0.14462222"
         id="path514" />
      <path
         d="m 68.667254,14.202502 0.745708,-3.570361 0.231622,0.07062 0.211849,-0.186427 0.319186,0.392627 0.180778,-0.353082 0.20055,0.12146 0.186427,-0.107337 0.675092,3.655101 -0.127109,-0.08756 -0.211849,0.12146 -0.16383,-0.209024 -0.155356,0.15818 -0.214674,-0.782429 -1.076193,0.08756 -0.206199,0.788078 -0.05932,0.0226 -0.183602,-0.231622 -0.231622,0.183603 z m 0.946259,-1.34736 0.827623,-0.07627 -0.288115,-1.296516 -0.24292,0.01695 z"
         style="font-style:normal;font-variant:normal;font-weight:normal;font-stretch:normal;font-family:AngryBirds;-inkscape-font-specification:AngryBirds;stroke-width:0.14462222"
         id="path516" />
      <path
         d="m 71.644441,10.798795 0.01977,-0.107337 q 0.319185,-0.104512 0.638371,-0.15818 0.322011,-0.05649 0.621424,-0.05932 0.01695,0 0.03107,0 0.282465,0 0.52821,0.04802 0.257044,0.05084 0.446295,0.175129 0.172304,0.110161 0.273992,0.276816 0.104512,0.166654 0.124284,0.375678 0.0057,0.05084 0.0057,0.107337 0,0.161005 -0.04802,0.341783 -0.06214,0.240096 -0.214674,0.488665 -0.02825,0.05084 -0.08756,0.12711 -0.05932,0.07626 -0.129934,0.163829 -0.06779,0.08474 -0.149707,0.16948 -0.07909,0.08191 -0.155356,0.146882 0.07062,0.166654 0.149707,0.353081 0.08191,0.183603 0.15818,0.355906 0.07909,0.16948 0.149707,0.313537 0.07062,0.141233 0.110161,0.220323 l -0.03955,0.04237 -0.336133,-0.186427 -0.01695,0.288114 -0.115811,-0.05084 -0.104512,0.07062 -0.700514,-1.081842 -0.364381,0.144057 -0.02825,0.867168 -0.09321,-0.0113 -0.192076,-0.302238 -0.149707,0.389802 -0.104512,-0.04237 q -0.0056,-0.172304 -0.01977,-0.494314 -0.01412,-0.32201 -0.02542,-0.700514 -0.0113,-0.378503 -0.0113,-0.768306 0,-0.389802 0.0226,-0.708987 l 0.01695,-0.225973 -0.183602,-0.132758 0.305062,-0.276816 z m 0.833273,1.819077 q 0.209024,-0.08192 0.429347,-0.220323 0.220323,-0.138408 0.381328,-0.302238 0.161005,-0.166655 0.234446,-0.344608 0.0339,-0.07909 0.0339,-0.15818 0,-0.09321 -0.04802,-0.183603 -0.05084,-0.09321 -0.217498,-0.118635 -0.135584,-0.0226 -0.279641,-0.0226 -0.03107,0 -0.06497,0 -0.209024,0.0113 -0.457594,0.05367 z"
         style="font-style:normal;font-variant:normal;font-weight:normal;font-stretch:normal;font-family:AngryBirds;-inkscape-font-specification:AngryBirds;stroke-width:0.14462222"
         id="path518" />
      <path
         d="m 74.508639,14.202502 0.745708,-3.570361 0.231622,0.07062 0.211849,-0.186427 0.319186,0.392627 0.180777,-0.353082 0.200551,0.12146 0.186427,-0.107337 0.675092,3.655101 -0.127109,-0.08756 -0.211849,0.12146 -0.16383,-0.209024 -0.155356,0.15818 -0.214674,-0.782429 -1.076193,0.08756 -0.206199,0.788078 -0.05932,0.0226 -0.183602,-0.231622 -0.231622,0.183603 z m 0.946259,-1.34736 0.827623,-0.07627 -0.288115,-1.296516 -0.24292,0.01695 z"
         style="font-style:normal;font-variant:normal;font-weight:normal;font-stretch:normal;font-family:AngryBirds;-inkscape-font-specification:AngryBirds;stroke-width:0.14462222"
         id="path520" />
      <path
         d="m 78.604381,12.524658 q 0,-0.166654 0.04802,-0.44347 0.05084,-0.279641 0.15818,-0.564931 0.107337,-0.288115 0.282466,-0.522561 0.177953,-0.234446 0.432171,-0.316361 0.282466,-0.08756 0.539509,-0.118635 0.08474,-0.0113 0.177953,-0.0085 0.180778,0 0.375679,0.04237 0.0113,0.01695 0.01695,0.04237 0.0056,0.02542 0.01695,0.04237 l -0.398276,0.141233 0.276816,0.155356 -0.12146,0.104512 0.04802,0.144057 q -0.07627,0.0056 -0.169479,0.01695 -0.09321,0.0113 -0.186427,0.03107 -0.09039,0.01695 -0.175129,0.03955 -0.08474,0.0226 -0.146882,0.05649 -0.115811,0.05649 -0.197725,0.214674 -0.07909,0.155356 -0.129934,0.341783 -0.04802,0.183602 -0.07344,0.367205 -0.0226,0.180778 -0.0226,0.290939 0,0.09886 0.01412,0.234446 0.01695,0.135584 0.05084,0.282466 0.0339,0.144057 0.09321,0.273991 0.06214,0.129934 0.161005,0.211849 0.05084,0.04519 0.155356,0.07062 0.104512,0.02542 0.231622,0.03954 0.127109,0.0113 0.259868,0.01695 0.135583,0.0056 0.251394,0.0056 -0.0113,0.0113 -0.02542,0.03107 -0.0113,0.01977 -0.02825,0.04802 l 0.12146,0.132759 -0.288114,0.163829 0.316361,0.115811 q -0.0113,0.04519 -0.0226,0.06779 -0.347433,0.07627 -0.69769,0.09604 -0.05084,0.0028 -0.101687,0.0028 -0.288115,0 -0.531035,-0.09886 -0.220323,-0.08756 -0.358731,-0.28529 -0.138408,-0.20055 -0.217498,-0.44912 -0.07627,-0.248569 -0.107337,-0.516911 -0.02825,-0.268342 -0.02825,-0.499964 z"
         style="font-style:normal;font-variant:normal;font-weight:normal;font-stretch:normal;font-family:AngryBirds;-inkscape-font-specification:AngryBirds;stroke-width:0.14462222"
         id="path522" />
      <path
         d="m 81.050533,12.942707 q -0.0113,-0.155356 -0.01412,-0.310712 0,-0.172304 0.01695,-0.344608 0.05649,-0.590352 0.16383,-0.926486 0.107337,-0.336134 0.316361,-0.514087 0.07627,-0.06497 0.192076,-0.129934 0.118636,-0.06779 0.262693,-0.115811 0.146882,-0.05084 0.313537,-0.07062 0.07909,-0.0085 0.15818,-0.0085 l 0.177953,0.0113 -0.0113,0.336133 0.282465,-0.172303 0.12146,0.177953 0.192076,-0.07627 q 0.214674,0.220323 0.32766,0.632722 0.115811,0.409575 0.115811,1.005577 0,0.197726 -0.0226,0.432172 -0.0226,0.234446 -0.08191,0.460418 -0.05649,0.223148 -0.152531,0.412399 -0.09604,0.186428 -0.240096,0.29094 -0.203375,0.144057 -0.409575,0.220323 -0.203375,0.07626 -0.398276,0.09604 -0.09039,0.0085 -0.180778,0.0085 -0.09886,0 -0.189251,-0.0113 -0.172304,-0.0226 -0.313537,-0.07626 -0.177953,-0.06497 -0.310712,-0.259868 -0.129934,-0.197726 -0.211849,-0.468893 -0.07909,-0.271167 -0.104512,-0.598826 z m 0.689216,-0.52821 q -0.0085,0.110161 -0.0057,0.217498 0,0.203375 0.02825,0.401101 0.04237,0.299413 0.15818,0.480191 0.05649,0.09321 0.166655,0.141232 0.110161,0.04519 0.234446,0.04519 0.124285,0 0.237271,-0.04237 0.112986,-0.04519 0.172304,-0.138408 0.05649,-0.09321 0.110161,-0.268342 0.05649,-0.177953 0.08756,-0.389802 0.0339,-0.214674 0.03955,-0.446295 0,-0.03107 0,-0.06214 0,-0.197725 -0.0339,-0.381328 -0.03672,-0.211849 -0.124285,-0.378503 -0.08474,-0.166655 -0.231621,-0.254219 -0.09321,-0.05649 -0.217499,-0.05649 -0.0056,0 -0.01412,0 -0.132759,0.0028 -0.228797,0.09039 -0.166654,0.149706 -0.262693,0.437821 -0.09321,0.28529 -0.11581,0.604476 z"
         style="font-style:normal;font-variant:normal;font-weight:normal;font-stretch:normal;font-family:AngryBirds;-inkscape-font-specification:AngryBirds;stroke-width:0.14462222"
         id="path524" />
      <path
         d="m 84.030542,14.346559 0.177953,-3.770911 0.180778,-0.07627 0.220323,0.502788 0.24292,-0.403925 0.12146,0.12146 0.101688,-0.08756 0.52256,1.627 h 0.09321 l 0.514087,-1.643948 0.166654,0.127109 0.225973,-0.177953 0.197725,0.282465 0.254219,-0.231621 0.172304,3.609906 -0.110162,0.02825 -0.183602,-0.310712 -0.115811,0.288114 -0.104512,-0.09321 -0.144057,0.05932 -0.12711,-1.765408 -0.104512,-0.02825 -0.6073,1.629825 -0.104512,-0.09039 -0.110162,0.04519 -0.596002,-1.528137 -0.09321,-0.0113 -0.12146,1.793655 -0.177953,0.05084 -0.220323,-0.350257 -0.172304,0.432172 z"
         style="font-style:normal;font-variant:normal;font-weight:normal;font-stretch:normal;font-family:AngryBirds;-inkscape-font-specification:AngryBirds;stroke-width:0.14462222"
         id="path526" />
      <path
         d="m 87.502044,10.807269 0.0339,-0.141233 q 0.237271,-0.08756 0.542333,-0.152531 0.307887,-0.06497 0.61295,-0.08474 0.07909,-0.0056 0.155356,-0.0028 0.217498,0 0.412399,0.03672 0.262693,0.04802 0.40675,0.186428 0.231622,0.225972 0.313537,0.516911 0.05649,0.197726 0.05367,0.395451 0,0.09321 -0.0113,0.186428 -0.03672,0.293763 -0.177953,0.573404 -0.138408,0.276816 -0.350257,0.480191 -0.07062,0.06497 -0.180777,0.135583 -0.110162,0.06779 -0.245745,0.132759 -0.135584,0.06214 -0.296589,0.118636 -0.15818,0.05367 -0.319186,0.08756 l -0.0056,1.005576 -0.104512,0.03672 -0.115811,-0.324835 -0.231621,0.313536 -0.149707,-0.175128 -0.115811,0.07062 -0.02825,-2.892445 -0.12711,-0.09886 0.347433,-0.35873 z m 0.878467,0.426523 0.03107,1.358658 q 0.144058,-0.05084 0.265518,-0.110162 0.104512,-0.04519 0.20055,-0.09321 0.09886,-0.05084 0.146882,-0.09039 0.12146,-0.110162 0.2062,-0.259868 0.08756,-0.149707 0.112986,-0.305063 0.0085,-0.05649 0.0113,-0.107337 0,-0.09604 -0.03107,-0.183602 -0.04519,-0.138408 -0.194901,-0.231622 -0.07062,-0.04237 -0.186427,-0.04519 -0.0085,0 -0.01412,0.0028 -0.124285,0.0028 -0.245745,0.01412 -0.146882,0.0226 -0.302238,0.05084 z"
         style="font-style:normal;font-variant:normal;font-weight:normal;font-stretch:normal;font-family:AngryBirds;-inkscape-font-specification:AngryBirds;stroke-width:0.14462222"
         id="path528" />
      <path
         d="m 90.569611,10.770549 0.110162,0.01695 0.161005,-0.115811 0.169479,0.28529 0.299413,-0.401101 0.09321,0.03107 -0.09886,3.112768 h 0.954733 l -0.237271,0.20055 0.324835,0.127109 -0.16383,0.197726 0.05932,0.08192 -1.302165,0.09604 -0.05084,-0.316361 -0.307887,0.04519 z"
         style="font-style:normal;font-variant:normal;font-weight:normal;font-stretch:normal;font-family:AngryBirds;-inkscape-font-specification:AngryBirds;stroke-width:0.14462222"
         id="path530" />
      <path
         d="m 92.707873,10.928729 0.07909,-0.186427 -0.03955,-0.07627 1.655247,-0.110161 0.05084,0.225972 -0.358731,0.24857 0.341783,0.104512 -0.04519,0.127109 -0.844571,0.07627 -0.01977,0.889766 0.844572,-0.02825 -0.09604,0.302238 0.166655,0.06779 -0.02825,0.155355 -0.875642,0.08756 0.03672,0.943434 0.872817,-0.0339 -0.05649,0.299413 0.155356,0.07062 -0.06497,0.220323 -1.364307,0.07909 0.0226,-0.293764 -0.353082,0.0226 0.03672,-2.706018 -0.07062,-0.11581 0.248569,-0.214674 z"
         style="font-style:normal;font-variant:normal;font-weight:normal;font-stretch:normal;font-family:AngryBirds;-inkscape-font-specification:AngryBirds;stroke-width:0.14462222"
         id="path532" />
      <path
         d="m 94.778344,10.914606 0.02825,-0.101688 2.285144,-0.163829 -0.09321,0.144057 0.16383,0.169479 -0.279641,0.177953 0.279641,0.12146 -0.0226,0.09886 -0.754182,0.05367 -0.03955,2.878322 -0.08756,0.02542 -0.189252,-0.4124 -0.132759,0.353082 -0.141232,-0.144057 -0.166655,0.104512 -0.02825,-2.770985 -0.700514,0.04519 0.02825,-0.104512 -0.09886,-0.07909 0.324835,-0.24292 z"
         style="font-style:normal;font-variant:normal;font-weight:normal;font-stretch:normal;font-family:AngryBirds;-inkscape-font-specification:AngryBirds;stroke-width:0.14462222"
         id="path534" />
      <path
         d="m 97.10586,14.202502 0.745709,-3.570361 0.231621,0.07062 0.211849,-0.186427 0.319186,0.392627 0.180778,-0.353082 0.20055,0.12146 0.186427,-0.107337 0.675092,3.655101 -0.127109,-0.08756 -0.211849,0.12146 -0.16383,-0.209024 -0.155356,0.15818 -0.214673,-0.782429 -1.076193,0.08756 -0.2062,0.788078 -0.05932,0.0226 -0.183602,-0.231622 -0.231622,0.183603 z m 0.946259,-1.34736 0.827623,-0.07627 -0.288114,-1.296516 -0.24292,0.01695 z"
         style="font-style:normal;font-variant:normal;font-weight:normal;font-stretch:normal;font-family:AngryBirds;-inkscape-font-specification:AngryBirds;stroke-width:0.14462222"
         id="path536" />
      <path
         d="m 100.08305,10.798795 0.0198,-0.107337 q 0.31919,-0.104512 0.63837,-0.15818 0.32201,-0.05649 0.62143,-0.05932 0.0169,0 0.0311,0 0.28246,0 0.52821,0.04802 0.25704,0.05084 0.44629,0.175129 0.17231,0.110161 0.27399,0.276816 0.10452,0.166654 0.12429,0.375678 0.006,0.05084 0.006,0.107337 0,0.161005 -0.048,0.341783 -0.0621,0.240096 -0.21468,0.488665 -0.0282,0.05084 -0.0876,0.12711 -0.0593,0.07626 -0.12993,0.163829 -0.0678,0.08474 -0.14971,0.16948 -0.0791,0.08191 -0.15536,0.146882 0.0706,0.166654 0.14971,0.353081 0.0819,0.183603 0.15818,0.355906 0.0791,0.16948 0.14971,0.313537 0.0706,0.141233 0.11016,0.220323 l -0.0396,0.04237 -0.33613,-0.186427 -0.0169,0.288114 -0.11581,-0.05084 -0.10451,0.07062 -0.70052,-1.081842 -0.36438,0.144057 -0.0282,0.867168 -0.0932,-0.0113 -0.19207,-0.302238 -0.14971,0.389802 -0.10451,-0.04237 q -0.006,-0.172304 -0.0198,-0.494314 -0.0141,-0.32201 -0.0254,-0.700514 -0.0113,-0.378503 -0.0113,-0.768306 0,-0.389802 0.0226,-0.708987 l 0.0169,-0.225973 -0.1836,-0.132758 0.30506,-0.276816 z m 0.83327,1.819077 q 0.20902,-0.08192 0.42935,-0.220323 0.22032,-0.138408 0.38133,-0.302238 0.161,-0.166655 0.23444,-0.344608 0.0339,-0.07909 0.0339,-0.15818 0,-0.09321 -0.048,-0.183603 -0.0509,-0.09321 -0.2175,-0.118635 -0.13558,-0.0226 -0.27964,-0.0226 -0.0311,0 -0.065,0 -0.20902,0.0113 -0.45759,0.05367 z"
         style="font-style:normal;font-variant:normal;font-weight:normal;font-stretch:normal;font-family:AngryBirds;-inkscape-font-specification:AngryBirds;stroke-width:0.14462222"
         id="path538" />
      <path
         d="m 104.0997,14.202502 0.74571,-3.570361 0.23162,0.07062 0.21185,-0.186427 0.31919,0.392627 0.18078,-0.353082 0.20055,0.12146 0.18642,-0.107337 0.6751,3.655101 -0.12711,-0.08756 -0.21185,0.12146 -0.16383,-0.209024 -0.15536,0.15818 -0.21467,-0.782429 -1.0762,0.08756 -0.20619,0.788078 -0.0593,0.0226 -0.1836,-0.231622 -0.23163,0.183603 z m 0.94626,-1.34736 0.82763,-0.07627 -0.28812,-1.296516 -0.24292,0.01695 z"
         style="font-style:normal;font-variant:normal;font-weight:normal;font-stretch:normal;font-family:AngryBirds;-inkscape-font-specification:AngryBirds;stroke-width:0.14462222"
         id="path540" />
      <path
         d="m 108.24346,10.928729 0.0791,-0.186427 -0.0395,-0.07627 1.65525,-0.110161 0.0508,0.225972 -0.35873,0.24857 0.34178,0.104512 -0.0452,0.127109 -0.84457,0.07627 -0.0198,0.889766 0.84457,-0.02825 -0.096,0.302238 0.16665,0.06779 -0.0282,0.155355 -0.87564,0.08756 0.0367,0.943434 0.87282,-0.0339 -0.0565,0.299413 0.15535,0.07062 -0.065,0.220323 -1.36431,0.07909 0.0226,-0.293764 -0.35309,0.0226 0.0367,-2.706018 -0.0706,-0.11581 0.24857,-0.214674 z"
         style="font-style:normal;font-variant:normal;font-weight:normal;font-stretch:normal;font-family:AngryBirds;-inkscape-font-specification:AngryBirds;stroke-width:0.14462222"
         id="path542" />
      <path
         d="m 110.33653,10.666036 0.0819,-0.05084 0.29941,0.225972 0.0113,-0.254219 0.065,0.02825 0.1497,-0.06497 0.53386,1.217425 0.55363,-1.273918 0.14406,0.03389 0.0424,0.401101 0.28812,-0.28529 0.0819,0.02825 -0.67227,1.714564 0.71746,1.768233 -0.1949,-0.0339 -0.0254,0.132759 -0.31636,-0.166655 -0.10451,0.138408 -0.53386,-1.158108 -0.51974,1.273919 h -0.16665 l -0.0537,-0.265517 -0.29376,0.166654 -0.0537,-0.02825 0.66097,-1.666546 z"
         style="font-style:normal;font-variant:normal;font-weight:normal;font-stretch:normal;font-family:AngryBirds;-inkscape-font-specification:AngryBirds;stroke-width:0.14462222"
         id="path544" />
      <path
         d="m 112.79963,10.807269 0.0339,-0.141233 q 0.23728,-0.08756 0.54234,-0.152531 0.30788,-0.06497 0.61295,-0.08474 0.0791,-0.0056 0.15535,-0.0028 0.2175,0 0.4124,0.03672 0.2627,0.04802 0.40675,0.186428 0.23162,0.225972 0.31354,0.516911 0.0565,0.197726 0.0537,0.395451 0,0.09321 -0.0113,0.186428 -0.0367,0.293763 -0.17795,0.573404 -0.13841,0.276816 -0.35026,0.480191 -0.0706,0.06497 -0.18078,0.135583 -0.11016,0.06779 -0.24574,0.132759 -0.13559,0.06214 -0.29659,0.118636 -0.15818,0.05367 -0.31919,0.08756 l -0.006,1.005576 -0.10451,0.03672 -0.11581,-0.324835 -0.23162,0.313536 -0.14971,-0.175128 -0.11581,0.07062 -0.0282,-2.892445 -0.12711,-0.09886 0.34744,-0.35873 z m 0.87847,0.426523 0.0311,1.358658 q 0.14405,-0.05084 0.26551,-0.110162 0.10452,-0.04519 0.20055,-0.09321 0.0989,-0.05084 0.14689,-0.09039 0.12146,-0.110162 0.2062,-0.259868 0.0876,-0.149707 0.11298,-0.305063 0.008,-0.05649 0.0113,-0.107337 0,-0.09604 -0.0311,-0.183602 -0.0452,-0.138408 -0.1949,-0.231622 -0.0706,-0.04237 -0.18643,-0.04519 -0.008,0 -0.0141,0.0028 -0.12429,0.0028 -0.24575,0.01412 -0.14688,0.0226 -0.30223,0.05084 z"
         style="font-style:normal;font-variant:normal;font-weight:normal;font-stretch:normal;font-family:AngryBirds;-inkscape-font-specification:AngryBirds;stroke-width:0.14462222"
         id="path546" />
      <path
         d="m 115.68643,10.798795 0.0198,-0.107337 q 0.31918,-0.104512 0.63837,-0.15818 0.32201,-0.05649 0.62142,-0.05932 0.0169,0 0.0311,0 0.28247,0 0.52821,0.04802 0.25705,0.05084 0.4463,0.175129 0.1723,0.110161 0.27399,0.276816 0.10451,0.166654 0.12429,0.375678 0.006,0.05084 0.006,0.107337 0,0.161005 -0.048,0.341783 -0.0621,0.240096 -0.21468,0.488665 -0.0282,0.05084 -0.0876,0.12711 -0.0593,0.07626 -0.12994,0.163829 -0.0678,0.08474 -0.1497,0.16948 -0.0791,0.08191 -0.15536,0.146882 0.0706,0.166654 0.14971,0.353081 0.0819,0.183603 0.15818,0.355906 0.0791,0.16948 0.14971,0.313537 0.0706,0.141233 0.11016,0.220323 l -0.0396,0.04237 -0.33613,-0.186427 -0.0169,0.288114 -0.11581,-0.05084 -0.10451,0.07062 -0.70052,-1.081842 -0.36438,0.144057 -0.0282,0.867168 -0.0932,-0.0113 -0.19207,-0.302238 -0.14971,0.389802 -0.10451,-0.04237 q -0.006,-0.172304 -0.0198,-0.494314 -0.0141,-0.32201 -0.0254,-0.700514 -0.0113,-0.378503 -0.0113,-0.768306 0,-0.389802 0.0226,-0.708987 l 0.0169,-0.225973 -0.1836,-0.132758 0.30506,-0.276816 z m 0.83327,1.819077 q 0.20902,-0.08192 0.42935,-0.220323 0.22032,-0.138408 0.38132,-0.302238 0.16101,-0.166655 0.23445,-0.344608 0.0339,-0.07909 0.0339,-0.15818 0,-0.09321 -0.048,-0.183603 -0.0509,-0.09321 -0.2175,-0.118635 -0.13559,-0.0226 -0.27964,-0.0226 -0.0311,0 -0.065,0 -0.20902,0.0113 -0.45759,0.05367 z"
         style="font-style:normal;font-variant:normal;font-weight:normal;font-stretch:normal;font-family:AngryBirds;-inkscape-font-specification:AngryBirds;stroke-width:0.14462222"
         id="path548" />
      <path
         d="m 118.67208,10.928729 0.0791,-0.186427 -0.0395,-0.07627 1.65525,-0.110161 0.0508,0.225972 -0.35873,0.24857 0.34178,0.104512 -0.0452,0.127109 -0.84457,0.07627 -0.0198,0.889766 0.84457,-0.02825 -0.096,0.302238 0.16665,0.06779 -0.0282,0.155355 -0.87564,0.08756 0.0367,0.943434 0.87282,-0.0339 -0.0565,0.299413 0.15535,0.07062 -0.065,0.220323 -1.36431,0.07909 0.0226,-0.293764 -0.35309,0.0226 0.0367,-2.706018 -0.0706,-0.11581 0.24857,-0.214674 z"
         style="font-style:normal;font-variant:normal;font-weight:normal;font-stretch:normal;font-family:AngryBirds;-inkscape-font-specification:AngryBirds;stroke-width:0.14462222"
         id="path550" />
      <path
         d="m 120.79905,11.9795 q 0.0226,-0.293764 0.17513,-0.536684 0.15535,-0.24292 0.39545,-0.418049 0.24009,-0.177953 0.53386,-0.290939 0.29659,-0.112986 0.60447,-0.146882 0.0593,-0.0085 0.14406,-0.0113 0.0226,0 0.0452,0.0028 0.11581,0.0028 0.19773,0.0085 l 0.0226,0.07344 -0.37568,0.209024 0.29941,0.144058 -0.12711,0.12146 0.0876,0.16383 q -0.20903,0.01695 -0.4124,0.05649 -0.20055,0.03955 -0.36156,0.110161 -0.15818,0.07062 -0.26834,0.172304 -0.11016,0.09886 -0.13276,0.231622 -0.006,0.03389 -0.006,0.06779 0,0.107337 0.0763,0.180778 0.0989,0.09886 0.23727,0.16383 0.0706,0.02825 0.14405,0.05367 0.0763,0.02542 0.14971,0.05084 0.0706,0.0226 0.13276,0.03955 0.065,0.01695 0.11016,0.02825 0.27682,0.08756 0.43217,0.240095 0.15818,0.152531 0.15818,0.44912 0,0.313537 -0.1723,0.553632 -0.16948,0.240096 -0.53386,0.423698 -0.14406,0.07062 -0.29094,0.118635 -0.14688,0.04802 -0.28811,0.08192 -0.13841,0.03672 -0.2627,0.05367 -0.12428,0.01695 -0.22879,0.02825 l 0.0989,-0.183602 -0.26552,-0.07627 0.11581,-0.172304 -0.0989,-0.104512 q 0.0989,-0.0226 0.2175,-0.04802 0.11863,-0.02825 0.24009,-0.06214 0.11017,-0.0339 0.22315,-0.08192 0.11299,-0.05084 0.20338,-0.118636 0.0932,-0.07062 0.15253,-0.155356 0.0621,-0.08474 0.0621,-0.180777 0,-0.12146 -0.11863,-0.200551 -0.11864,-0.07909 -0.2627,-0.124284 -0.1497,-0.05084 -0.29941,-0.08474 -0.14688,-0.03672 -0.22032,-0.06497 -0.25987,-0.104512 -0.40958,-0.282465 -0.12711,-0.152532 -0.12711,-0.401101 0,-0.03955 0.003,-0.08192 z"
         style="font-style:normal;font-variant:normal;font-weight:normal;font-stretch:normal;font-family:AngryBirds;-inkscape-font-specification:AngryBirds;stroke-width:0.14462222"
         id="path552" />
      <path
         d="m 123.43162,11.9795 q 0.0226,-0.293764 0.17513,-0.536684 0.15536,-0.24292 0.39545,-0.418049 0.2401,-0.177953 0.53386,-0.290939 0.29659,-0.112986 0.60448,-0.146882 0.0593,-0.0085 0.14406,-0.0113 0.0226,0 0.0452,0.0028 0.11581,0.0028 0.19773,0.0085 l 0.0226,0.07344 -0.37568,0.209024 0.29942,0.144058 -0.12711,0.12146 0.0876,0.16383 q -0.20902,0.01695 -0.4124,0.05649 -0.20055,0.03955 -0.36155,0.110161 -0.15818,0.07062 -0.26834,0.172304 -0.11017,0.09886 -0.13276,0.231622 -0.006,0.03389 -0.006,0.06779 0,0.107337 0.0763,0.180778 0.0989,0.09886 0.23727,0.16383 0.0706,0.02825 0.14406,0.05367 0.0763,0.02542 0.14971,0.05084 0.0706,0.0226 0.13276,0.03955 0.065,0.01695 0.11016,0.02825 0.27681,0.08756 0.43217,0.240095 0.15818,0.152531 0.15818,0.44912 0,0.313537 -0.1723,0.553632 -0.16948,0.240096 -0.53386,0.423698 -0.14406,0.07062 -0.29094,0.118635 -0.14688,0.04802 -0.28812,0.08192 -0.1384,0.03672 -0.26269,0.05367 -0.12428,0.01695 -0.2288,0.02825 l 0.0989,-0.183602 -0.26552,-0.07627 0.11581,-0.172304 -0.0989,-0.104512 q 0.0989,-0.0226 0.2175,-0.04802 0.11863,-0.02825 0.24009,-0.06214 0.11016,-0.0339 0.22315,-0.08192 0.11298,-0.05084 0.20337,-0.118636 0.0932,-0.07062 0.15253,-0.155356 0.0622,-0.08474 0.0622,-0.180777 0,-0.12146 -0.11864,-0.200551 -0.11863,-0.07909 -0.26269,-0.124284 -0.14971,-0.05084 -0.29941,-0.08474 -0.14689,-0.03672 -0.22033,-0.06497 -0.25987,-0.104512 -0.40957,-0.282465 -0.12711,-0.152532 -0.12711,-0.401101 0,-0.03955 0.003,-0.08192 z"
         style="font-style:normal;font-variant:normal;font-weight:normal;font-stretch:normal;font-family:AngryBirds;-inkscape-font-specification:AngryBirds;stroke-width:0.14462222"
         id="path554" />
      <path
         d="m 125.96251,14.202502 0.74571,-3.570361 0.23162,0.07062 0.21185,-0.186427 0.31919,0.392627 0.18077,-0.353082 0.20055,0.12146 0.18643,-0.107337 0.67509,3.655101 -0.12711,-0.08756 -0.21184,0.12146 -0.16383,-0.209024 -0.15536,0.15818 -0.21467,-0.782429 -1.0762,0.08756 -0.2062,0.788078 -0.0593,0.0226 -0.18361,-0.231622 -0.23162,0.183603 z m 0.16101,-4.2991219 q 0.0282,-0.045194 0.0508,-0.081915 0.0254,-0.039545 0.048,-0.07909 0.0876,-0.1440573 0.18643,-0.2457448 0.10168,-0.1016875 0.28246,-0.129934 0.18643,-0.033896 0.29659,-0.00565 0.11299,0.028246 0.21185,0.090389 0.0508,0.033896 0.0989,0.073441 0.0508,0.03672 0.11016,0.073441 0.065,0.039545 0.12711,0.070616 0.0622,0.031071 0.14406,0.062142 0.0763,0.022597 0.14123,0.00847 0.0678,-0.014123 0.12429,-0.053668 0.0593,-0.04237 0.10451,-0.093214 0.0452,-0.053668 0.0876,-0.1045121 0.0452,-0.056493 0.0847,-0.1355834 0.017,0 0.0339,0.00565 0.0198,0.00282 0.0367,0.00282 l -0.0169,0.1440573 h 0.13841 l -0.0113,0.1327587 0.0819,0.039545 q -0.065,0.1327587 -0.15536,0.2711667 -0.0904,0.1355834 -0.15818,0.1977254 -0.14406,0.12711 -0.32483,0.161006 -0.17796,0.03107 -0.34744,-0.0226 -0.0282,-0.0113 -0.0678,-0.03107 -0.0367,-0.01977 -0.0819,-0.04802 -0.0452,-0.02825 -0.0989,-0.06214 -0.0508,-0.03672 -0.0989,-0.07344 -0.10451,-0.070617 -0.21185,-0.1271097 -0.10451,-0.056493 -0.20902,-0.067792 -0.0452,0 -0.11299,0.062142 -0.0678,0.059318 -0.12993,0.132759 -0.0282,0.03389 -0.0537,0.07062 -0.0226,0.0339 -0.0508,0.06497 l -0.0226,0.02825 -0.0452,-0.0056 0.0508,-0.144057 h -0.17513 l 0.0367,-0.098863 q -0.0282,-0.022597 -0.0537,-0.039545 -0.0226,-0.019772 -0.0508,-0.04237 z m 0.78525,2.9517619 0.82762,-0.07627 -0.28811,-1.296516 -0.24292,0.01695 z"
         style="font-style:normal;font-variant:normal;font-weight:normal;font-stretch:normal;font-family:AngryBirds;-inkscape-font-specification:AngryBirds;stroke-width:0.14462222"
         id="path556" />
      <path
         d="m 128.96795,12.942707 q -0.0113,-0.155356 -0.0141,-0.310712 0,-0.172304 0.0169,-0.344608 0.0565,-0.590352 0.16383,-0.926486 0.10734,-0.336134 0.31636,-0.514087 0.0763,-0.06497 0.19208,-0.129934 0.11863,-0.06779 0.26269,-0.115811 0.14688,-0.05084 0.31354,-0.07062 0.0791,-0.0085 0.15818,-0.0085 l 0.17795,0.0113 -0.0113,0.336133 0.28247,-0.172303 0.12146,0.177953 0.19207,-0.07627 q 0.21468,0.220323 0.32766,0.632722 0.11581,0.409575 0.11581,1.005577 0,0.197726 -0.0226,0.432172 -0.0226,0.234446 -0.0819,0.460418 -0.0565,0.223148 -0.15253,0.412399 -0.096,0.186428 -0.2401,0.29094 -0.20337,0.144057 -0.40957,0.220323 -0.20337,0.07626 -0.39828,0.09604 -0.0904,0.0085 -0.18077,0.0085 -0.0989,0 -0.18926,-0.0113 -0.1723,-0.0226 -0.31353,-0.07626 -0.17796,-0.06497 -0.31071,-0.259868 -0.12994,-0.197726 -0.21185,-0.468893 -0.0791,-0.271167 -0.10451,-0.598826 z m 0.68921,-0.52821 q -0.008,0.110161 -0.006,0.217498 0,0.203375 0.0282,0.401101 0.0424,0.299413 0.15818,0.480191 0.0565,0.09321 0.16665,0.141232 0.11016,0.04519 0.23445,0.04519 0.12428,0 0.23727,-0.04237 0.11299,-0.04519 0.1723,-0.138408 0.0565,-0.09321 0.11017,-0.268342 0.0565,-0.177953 0.0876,-0.389802 0.0339,-0.214674 0.0395,-0.446295 0,-0.03107 0,-0.06214 0,-0.197725 -0.0339,-0.381328 -0.0367,-0.211849 -0.12429,-0.378503 -0.0847,-0.166655 -0.23162,-0.254219 -0.0932,-0.05649 -0.2175,-0.05649 -0.006,0 -0.0141,0 -0.13276,0.0028 -0.2288,0.09039 -0.16665,0.149706 -0.26269,0.437821 -0.0932,0.28529 -0.11581,0.604476 z"
         style="font-style:normal;font-variant:normal;font-weight:normal;font-stretch:normal;font-family:AngryBirds;-inkscape-font-specification:AngryBirds;stroke-width:0.14462222"
         id="path558" />
      <path
         d="m 132.02704,14.236398 q -0.10168,-0.110162 -0.11016,-0.231622 -0.006,-0.12146 0.0254,-0.319186 0.017,-0.132758 0.096,-0.234446 0.0819,-0.104512 0.19773,-0.15818 0.11581,-0.05649 0.24574,-0.05649 0.12994,0 0.24575,0.07344 0.0339,0.0226 0.0537,0.127109 0.0226,0.104512 0.0141,0.234446 -0.008,0.129934 -0.0508,0.254219 -0.0395,0.124285 -0.11581,0.189252 -0.0706,0.05649 -0.16101,0.09886 -0.0876,0.03955 -0.17513,0.05649 -0.0847,0.01695 -0.15818,0.0085 -0.0706,-0.0085 -0.10734,-0.04237 z m 0.14689,-2.093068 q -0.10452,-0.110162 -0.11017,-0.231622 -0.006,-0.12146 0.0226,-0.319185 0.0169,-0.132759 0.096,-0.237271 0.0819,-0.104512 0.19773,-0.158181 0.11581,-0.05649 0.24574,-0.05649 0.12993,0 0.24575,0.07627 0.0339,0.0226 0.0537,0.127109 0.0226,0.104512 0.0141,0.234446 -0.008,0.129934 -0.0508,0.254219 -0.0395,0.124285 -0.11298,0.189252 -0.0706,0.05649 -0.16101,0.09886 -0.0876,0.03955 -0.17513,0.05649 -0.0876,0.01695 -0.161,0.0085 -0.0706,-0.0085 -0.10451,-0.04237 z"
         style="font-style:normal;font-variant:normal;font-weight:normal;font-stretch:normal;font-family:AngryBirds;-inkscape-font-specification:AngryBirds;stroke-width:0.14462222"
         id="path560" />
    </g>
  </g>
</svg>
