<?xml version="1.0" encoding="UTF-8" standalone="no"?>
<!-- Created with Inkscape (http://www.inkscape.org/) -->

<svg
   xmlns:dc="http://purl.org/dc/elements/1.1/"
   xmlns:cc="http://creativecommons.org/ns#"
   xmlns:rdf="http://www.w3.org/1999/02/22-rdf-syntax-ns#"
   xmlns:svg="http://www.w3.org/2000/svg"
   xmlns="http://www.w3.org/2000/svg"
   xmlns:sodipodi="http://sodipodi.sourceforge.net/DTD/sodipodi-0.dtd"
   xmlns:inkscape="http://www.inkscape.org/namespaces/inkscape"
   width="210mm"
   height="297mm"
   viewBox="0 0 210 297"
   version="1.1"
   id="svg740"
   inkscape:version="0.92.1 r15371"
   sodipodi:docname="105.svg">
  <defs
     id="defs734" />
  <sodipodi:namedview
     id="base"
     pagecolor="#ffffff"
     bordercolor="#666666"
     borderopacity="1.0"
     inkscape:pageopacity="0.0"
     inkscape:pageshadow="2"
     inkscape:zoom="0.35"
     inkscape:cx="400"
     inkscape:cy="560"
     inkscape:document-units="mm"
     inkscape:current-layer="layer1"
     showgrid="false"
     inkscape:window-width="1366"
     inkscape:window-height="704"
     inkscape:window-x="0"
     inkscape:window-y="27"
     inkscape:window-maximized="1" />
  <metadata
     id="metadata737">
    <rdf:RDF>
      <cc:Work
         rdf:about="">
        <dc:format>image/svg+xml</dc:format>
        <dc:type
           rdf:resource="http://purl.org/dc/dcmitype/StillImage" />
        <dc:title></dc:title>
      </cc:Work>
    </rdf:RDF>
  </metadata>
  <g
     inkscape:label="Camada 1"
     inkscape:groupmode="layer"
     id="layer1">
    <path
       style="opacity:1;fill:#e6e6e6;fill-opacity:1;stroke:#cccccc;stroke-width:0.35642663;stroke-linecap:round;stroke-linejoin:round;stroke-miterlimit:4;stroke-dasharray:none;stroke-dashoffset:0;stroke-opacity:1"
       d="M 10.745661,11.541511 H 137.42101 V 45.732299 H 10.745661 Z"
       id="rect334" />
    <g
       aria-label="q: 7 é um número primo.
p: 5 é um número primo."
       style="font-style:normal;font-variant:normal;font-weight:normal;font-stretch:normal;font-size:6.45928288px;line-height:1.25;font-family:'URW Gothic L';-inkscape-font-specification:'URW Gothic L';letter-spacing:0px;word-spacing:0px;fill:#000000;fill-opacity:1;stroke:none;stroke-width:0.16148205"
       id="text14-2">
      <path
         d="m 11.828802,16.76906 q 0,-0.283855 0.01892,-0.558249 0.02208,-0.274393 0.07885,-0.523555 0.05677,-0.252316 0.170313,-0.482554 0.113542,-0.230238 0.302779,-0.416321 0.141927,-0.141927 0.35955,-0.211314 0.220776,-0.07254 0.454168,-0.08516 0.05677,-0.0032 0.113542,-0.0063 0.170313,0 0.324857,0.03154 0.20816,0.03785 0.321702,0.116696 0.173467,0.116696 0.302779,0.299625 0.129312,0.182929 0.211315,0.406859 0.082,0.220776 0.11985,0.460476 0.03785,0.2397 0.03785,0.460476 0,0.129312 0.0032,0.252316 0,0.041 0.0032,0.082 0,0.082 -0.0063,0.167159 -0.0063,0.129312 -0.01577,0.249162 -0.0095,0.11985 -0.03469,0.242854 -0.04415,0.233392 -0.154544,0.466784 -0.110388,0.230238 -0.375319,0.526709 0.10408,0.116696 0.214468,0.236546 0.113542,0.11985 0.167159,0.170313 l -0.08516,0.09146 -0.27124,-0.116696 -0.03154,0.233392 -0.141928,0.01262 q -0.03154,-0.03154 -0.113542,-0.132466 -0.082,-0.100926 -0.170313,-0.20816 -0.148235,0.04415 -0.321703,0.06939 -0.123003,0.01892 -0.249161,0.01892 l -0.09146,-0.0032 q -0.170313,-0.0095 -0.337472,-0.06308 -0.164005,-0.05677 -0.305933,-0.173467 -0.123004,-0.09777 -0.217622,-0.28701 -0.09146,-0.189236 -0.154544,-0.413167 -0.05992,-0.227084 -0.09462,-0.469938 -0.03154,-0.246008 -0.03154,-0.444706 z m 0.763255,-0.179775 q -0.0032,0.05677 -0.0032,0.113542 0,0.113542 0.0095,0.233392 0.01262,0.176621 0.05046,0.340626 0.041,0.164005 0.10408,0.309087 0.06623,0.141928 0.160851,0.22393 0.02523,0.02523 0.082,0.03154 0.05993,0.0063 0.126158,0.0063 0.07254,0 0.154543,-0.0063 l -0.160851,-0.365858 0.167159,0.082 0.116696,-0.19239 0.100926,0.100926 q 0.06939,0.06939 0.157698,0.151389 0.110388,-0.167159 0.160851,-0.305932 0.05046,-0.141928 0.07254,-0.27124 0.01892,-0.129312 0.02208,-0.230238 0.0032,-0.10408 0.0032,-0.182929 0,-0.116696 -0.0063,-0.261777 -0.0063,-0.145082 -0.02839,-0.293317 -0.01892,-0.148236 -0.05677,-0.280702 -0.03785,-0.132465 -0.10408,-0.220776 -0.07254,-0.08516 -0.192391,-0.138774 -0.116696,-0.05677 -0.249162,-0.05992 -0.0063,0 -0.01577,0 -0.126158,0 -0.242854,0.05046 -0.126157,0.05362 -0.195544,0.179775 -0.09777,0.173467 -0.160852,0.41632 -0.05992,0.242854 -0.07254,0.570865 z"
         style="font-style:normal;font-variant:normal;font-weight:normal;font-stretch:normal;font-family:AngryBirds;-inkscape-font-specification:AngryBirds;stroke-width:0.16148205"
         id="path785" />
      <path
         d="m 15.099444,18.592041 q -0.113542,-0.123004 -0.123004,-0.258624 -0.0063,-0.135619 0.02839,-0.356396 0.01892,-0.148235 0.107234,-0.261777 0.09147,-0.116696 0.220776,-0.176621 0.129312,-0.06308 0.274394,-0.06308 0.145081,0 0.274393,0.082 0.03785,0.02523 0.05992,0.141928 0.02523,0.116696 0.01577,0.261778 -0.0095,0.145081 -0.05677,0.283855 -0.04415,0.138774 -0.129312,0.211314 -0.07885,0.06308 -0.179775,0.110388 -0.09777,0.04416 -0.195545,0.06308 -0.09462,0.01892 -0.176621,0.0095 -0.07885,-0.0095 -0.11985,-0.04731 z m 0.164006,-2.337075 q -0.116697,-0.123003 -0.123004,-0.258623 -0.0063,-0.13562 0.02523,-0.356396 0.01892,-0.148236 0.107234,-0.264932 0.09146,-0.116696 0.220777,-0.176621 0.129311,-0.06308 0.274393,-0.06308 0.145082,0 0.274393,0.08516 0.03785,0.02523 0.05992,0.141928 0.02523,0.116696 0.01577,0.261777 -0.0095,0.145082 -0.05677,0.283855 -0.04415,0.138774 -0.126158,0.211315 -0.07885,0.06308 -0.179775,0.110388 -0.09777,0.04415 -0.195544,0.06308 -0.09777,0.01892 -0.179775,0.0095 -0.07885,-0.0095 -0.116696,-0.04731 z"
         style="font-style:normal;font-variant:normal;font-weight:normal;font-stretch:normal;font-family:AngryBirds;-inkscape-font-specification:AngryBirds;stroke-width:0.16148205"
         id="path787" />
      <path
         d="m 17.919073,13.709731 0.01262,-0.10408 2.201455,-0.167159 -0.06308,0.334318 0.369012,-0.03154 -0.02208,0.277547 0.201853,0.01262 -1.602205,4.462835 -0.167159,-0.08831 -0.141928,0.08831 -0.01892,-0.419475 -0.485708,0.548786 -0.05046,-0.02523 1.308887,-4.166364 h -1.252116 l 0.09777,-0.186083 -0.258624,-0.135619 0.387936,-0.277548 z"
         style="font-style:normal;font-variant:normal;font-weight:normal;font-stretch:normal;font-family:AngryBirds;-inkscape-font-specification:AngryBirds;stroke-width:0.16148205"
         id="path789" />
      <path
         d="m 22.063359,14.898769 0.08831,-0.20816 -0.04415,-0.08516 1.848213,-0.123004 0.05677,0.252316 -0.400551,0.277547 0.381627,0.116697 -0.05046,0.141927 -0.94303,0.08516 -0.02208,0.993493 0.94303,-0.03154 -0.107234,0.337473 0.186083,0.07569 -0.03154,0.173468 -0.977723,0.09777 0.041,1.053418 0.97457,-0.03785 -0.06308,0.334318 0.173467,0.07885 -0.07254,0.246008 -1.523356,0.08831 0.02523,-0.32801 -0.394244,0.02523 0.041,-3.021481 -0.07885,-0.129312 0.277547,-0.2397 z m 0.586634,-0.854719 0.722254,-1.110189 0.148235,-0.01262 -0.04415,0.258623 0.387935,-0.03154 -0.03785,0.154543 0.13562,0.05677 -0.861028,0.763256 -0.154543,-0.154544 -0.227084,0.141928 z"
         style="font-style:normal;font-variant:normal;font-weight:normal;font-stretch:normal;font-family:AngryBirds;-inkscape-font-specification:AngryBirds;stroke-width:0.16148205"
         id="path791" />
      <path
         d="m 25.633626,17.033991 q 0,-0.362704 0.0032,-0.656021 0.0032,-0.293317 0.01892,-0.56771 0.01577,-0.274393 0.041,-0.561403 0.02523,-0.287009 0.07254,-0.630789 l 0.211314,0.08516 0.252316,-0.192391 0.2397,0.148235 0.08831,-0.03154 q -0.01892,0.192391 -0.041,0.504631 -0.02208,0.309087 -0.04415,0.649713 -0.02208,0.337473 -0.03154,0.659175 -0.0032,0.138774 -0.0063,0.25547 0,0.157697 0.0095,0.280701 0.03154,0.608712 0.32801,0.772717 0.09777,0.05362 0.22393,0.05362 0.252316,0 0.608712,-0.217622 0.03785,-0.09146 0.05992,-0.261778 0.02523,-0.173467 0.03785,-0.387935 0.01262,-0.217622 0.01892,-0.46363 0.0063,-0.246008 0.0063,-0.49517 0.0063,-0.419475 0.0095,-0.829488 0.0032,-0.413167 0.01577,-0.690714 l 0.176622,-0.04415 0.217622,0.438398 0.283855,-0.413167 0.151389,-0.0063 q -0.0063,0.264932 -0.01577,0.731716 -0.0063,0.46363 -0.01262,1.031341 -0.0063,0.56771 -0.0063,1.179576 0,0.608711 0.01262,1.154344 l -0.160851,-0.05362 -0.217623,0.189237 -0.2397,-0.157698 -0.189237,0.09146 q -0.0063,-0.03154 -0.02208,-0.08516 -0.01577,-0.05677 -0.05992,-0.173467 -0.192391,0.08516 -0.425783,0.148236 -0.233392,0.05992 -0.457322,0.082 -0.11985,0.01262 -0.230238,0.01262 -0.09462,0 -0.182929,-0.0095 -0.189237,-0.01892 -0.293317,-0.09777 -0.160852,-0.116696 -0.252316,-0.321703 -0.09146,-0.20816 -0.13562,-0.425782 -0.04415,-0.220777 -0.05362,-0.410013 -0.0095,-0.192391 -0.0095,-0.283856 z"
         style="font-style:normal;font-variant:normal;font-weight:normal;font-stretch:normal;font-family:AngryBirds;-inkscape-font-specification:AngryBirds;stroke-width:0.16148205"
         id="path793" />
      <path
         d="m 28.989425,18.715045 0.198699,-4.210519 0.201853,-0.08516 0.246007,0.561402 0.27124,-0.451014 0.135619,0.135619 0.113543,-0.09777 0.58348,1.816673 h 0.10408 l 0.574018,-1.835597 0.186083,0.141928 0.252316,-0.198699 0.220776,0.315395 0.283855,-0.258624 0.192391,4.030744 -0.123004,0.03154 -0.205006,-0.346934 -0.129312,0.321702 -0.116696,-0.10408 -0.160852,0.06623 -0.141927,-1.971217 -0.116696,-0.03154 -0.678099,1.819827 -0.116696,-0.100926 -0.123004,0.05046 -0.665482,-1.706285 -0.104081,-0.01262 -0.135619,2.002756 -0.198699,0.05677 -0.246008,-0.391089 -0.192391,0.482553 z"
         style="font-style:normal;font-variant:normal;font-weight:normal;font-stretch:normal;font-family:AngryBirds;-inkscape-font-specification:AngryBirds;stroke-width:0.16148205"
         id="path795" />
      <path
         d="m 34.294365,14.640146 0.283855,-0.148236 0.227085,0.236546 0.283855,-0.09462 1.31835,2.393845 h 0.129311 l -0.03785,-2.374921 0.167159,-0.09777 0.290163,0.400551 0.27124,-0.406859 0.116696,0.01892 -0.0063,4.14744 -0.07254,0.04415 -0.230238,-0.2397 -0.324857,0.227084 -0.129311,-0.02523 -1.30258,-2.053219 -0.164006,-0.01892 -0.05046,2.084759 -0.186083,-0.02523 -0.252315,-0.34378 -0.189237,0.381627 -0.110388,-0.05677 z"
         style="font-style:normal;font-variant:normal;font-weight:normal;font-stretch:normal;font-family:AngryBirds;-inkscape-font-specification:AngryBirds;stroke-width:0.16148205"
         id="path797" />
      <path
         d="m 37.833092,17.033991 q 0,-0.362704 0.0032,-0.656021 0.0032,-0.293317 0.01892,-0.56771 0.01577,-0.274393 0.041,-0.561403 0.02523,-0.287009 0.07254,-0.630789 l 0.211314,0.08516 0.252316,-0.192391 0.2397,0.148235 0.08831,-0.03154 q -0.01892,0.192391 -0.041,0.504631 -0.02208,0.309087 -0.04416,0.649713 -0.02208,0.337473 -0.03154,0.659175 -0.0095,0.321703 0.0032,0.536171 0.03154,0.608712 0.328011,0.772717 0.296471,0.164005 0.832642,-0.164005 0.03785,-0.09146 0.05992,-0.261778 0.02523,-0.173467 0.03785,-0.387935 0.01262,-0.217622 0.01892,-0.46363 0.0063,-0.246008 0.0063,-0.49517 0.0063,-0.419475 0.0095,-0.829488 0.0032,-0.413167 0.01577,-0.690714 l 0.176621,-0.04415 0.217623,0.438398 0.283855,-0.413167 0.151389,-0.0063 q -0.0063,0.264932 -0.01577,0.731716 -0.0063,0.46363 -0.01262,1.031341 -0.0063,0.56771 -0.0063,1.179576 0,0.608711 0.01262,1.154344 l -0.160852,-0.05362 -0.217622,0.189237 -0.2397,-0.157698 -0.189237,0.09146 q -0.0063,-0.03154 -0.02208,-0.08516 -0.01577,-0.05677 -0.05992,-0.173467 -0.192391,0.08516 -0.425783,0.148236 -0.233392,0.05992 -0.457322,0.082 -0.220777,0.02208 -0.413167,0.0032 -0.189237,-0.01892 -0.293318,-0.09777 -0.160851,-0.116696 -0.252315,-0.321703 -0.09146,-0.20816 -0.13562,-0.425782 -0.04416,-0.220777 -0.05362,-0.410013 -0.0095,-0.192391 -0.0095,-0.283856 z m 1.16696,-2.930016 0.725408,-1.113343 0.148236,-0.01262 -0.04731,0.258623 0.387936,-0.03154 -0.03785,0.154543 0.135619,0.05992 -0.857873,0.760102 -0.157698,-0.154544 -0.22393,0.141928 z"
         style="font-style:normal;font-variant:normal;font-weight:normal;font-stretch:normal;font-family:AngryBirds;-inkscape-font-specification:AngryBirds;stroke-width:0.16148205"
         id="path799" />
      <path
         d="m 41.188892,18.715045 0.198699,-4.210519 0.201852,-0.08516 0.246008,0.561402 0.271239,-0.451014 0.13562,0.135619 0.113542,-0.09777 0.58348,1.816673 h 0.104081 l 0.574018,-1.835597 0.186083,0.141928 0.252316,-0.198699 0.220776,0.315395 0.283855,-0.258624 0.192391,4.030744 -0.123004,0.03154 -0.205007,-0.346934 -0.129311,0.321702 -0.116697,-0.10408 -0.160851,0.06623 -0.141927,-1.971217 -0.116696,-0.03154 -0.678099,1.819827 -0.116696,-0.100926 -0.123004,0.05046 -0.665483,-1.706285 -0.10408,-0.01262 -0.13562,2.002756 -0.198698,0.05677 -0.246008,-0.391089 -0.192391,0.482553 z"
         style="font-style:normal;font-variant:normal;font-weight:normal;font-stretch:normal;font-family:AngryBirds;-inkscape-font-specification:AngryBirds;stroke-width:0.16148205"
         id="path801" />
      <path
         d="m 45.125018,14.898769 0.08831,-0.20816 -0.04415,-0.08516 1.848213,-0.123004 0.05677,0.252316 -0.400552,0.277547 0.381628,0.116697 -0.05046,0.141927 -0.94303,0.08516 -0.02208,0.993493 0.94303,-0.03154 -0.107234,0.337473 0.186083,0.07569 -0.03154,0.173468 -0.977723,0.09777 0.041,1.053418 0.97457,-0.03785 -0.06308,0.334318 0.173467,0.07885 -0.07254,0.246008 -1.523356,0.08831 0.02523,-0.32801 -0.394243,0.02523 0.041,-3.021481 -0.07885,-0.129312 0.277547,-0.2397 z"
         style="font-style:normal;font-variant:normal;font-weight:normal;font-stretch:normal;font-family:AngryBirds;-inkscape-font-specification:AngryBirds;stroke-width:0.16148205"
         id="path803" />
      <path
         d="m 47.506247,14.753688 0.02208,-0.11985 q 0.356396,-0.116696 0.712792,-0.176621 0.35955,-0.06308 0.693868,-0.06623 0.01892,0 0.03469,0 0.315395,0 0.589788,0.05362 0.28701,0.05677 0.498324,0.195545 0.192391,0.123004 0.305933,0.309087 0.116696,0.186082 0.138774,0.419474 0.0063,0.05677 0.0063,0.11985 0,0.179775 -0.05362,0.381628 -0.06939,0.268085 -0.2397,0.545633 -0.03154,0.05677 -0.09777,0.141927 -0.06623,0.08516 -0.145082,0.182929 -0.07569,0.09462 -0.167159,0.189237 -0.08831,0.09146 -0.173467,0.164005 0.07885,0.186083 0.167159,0.394244 0.09146,0.205006 0.176621,0.397397 0.08831,0.189237 0.16716,0.350088 0.07885,0.157697 0.123004,0.246008 l -0.04416,0.04731 -0.375319,-0.20816 -0.01892,0.321702 -0.129312,-0.05677 -0.116696,0.07885 -0.782179,-1.207962 -0.406859,0.160851 -0.03154,0.968262 -0.104081,-0.01262 -0.214468,-0.337472 -0.167159,0.435245 -0.116696,-0.04731 q -0.0063,-0.19239 -0.02208,-0.55194 -0.01577,-0.35955 -0.02839,-0.782179 -0.01262,-0.422629 -0.01262,-0.857873 0,-0.435245 0.02523,-0.791641 l 0.01892,-0.252316 -0.205006,-0.148235 0.340626,-0.309087 z m 0.930414,2.031142 q 0.233393,-0.09146 0.4794,-0.246008 0.246008,-0.154544 0.425783,-0.337473 0.179775,-0.186082 0.261778,-0.384781 0.03785,-0.08831 0.03785,-0.176621 0,-0.10408 -0.05362,-0.205007 -0.05677,-0.10408 -0.242854,-0.132465 -0.151389,-0.02523 -0.312241,-0.02523 -0.03469,0 -0.07254,0 -0.233392,0.01262 -0.51094,0.05992 z"
         style="font-style:normal;font-variant:normal;font-weight:normal;font-stretch:normal;font-family:AngryBirds;-inkscape-font-specification:AngryBirds;stroke-width:0.16148205"
         id="path805" />
      <path
         d="m 50.855738,17.147533 q -0.01262,-0.173467 -0.01577,-0.346934 0,-0.19239 0.01892,-0.384781 0.06308,-0.659175 0.182929,-1.034495 0.11985,-0.375319 0.353242,-0.574018 0.08516,-0.07254 0.214468,-0.145082 0.132466,-0.07569 0.293317,-0.129311 0.164005,-0.05677 0.350088,-0.07885 0.08831,-0.0095 0.176621,-0.0095 l 0.198699,0.01262 -0.01262,0.37532 0.315395,-0.192391 0.135619,0.198698 0.214469,-0.08516 q 0.2397,0.246008 0.365858,0.706484 0.129311,0.457322 0.129311,1.122805 0,0.220776 -0.02523,0.482554 -0.02523,0.261777 -0.09146,0.514093 -0.06308,0.249162 -0.170313,0.460476 -0.107234,0.208161 -0.268085,0.324857 -0.227084,0.160851 -0.457322,0.246008 -0.227085,0.08516 -0.444707,0.107234 -0.100926,0.0095 -0.201852,0.0095 -0.110389,0 -0.211315,-0.01262 -0.192391,-0.02523 -0.350088,-0.08516 -0.198699,-0.07254 -0.346934,-0.290163 -0.145082,-0.220776 -0.236546,-0.523555 -0.08831,-0.302779 -0.116696,-0.668637 z m 0.769563,-0.589788 q -0.0095,0.123004 -0.0063,0.242854 0,0.227084 0.03154,0.447861 0.04731,0.334318 0.176621,0.536171 0.06308,0.10408 0.186083,0.157697 0.123004,0.05046 0.261778,0.05046 0.138774,0 0.264931,-0.04731 0.126158,-0.05046 0.192391,-0.154543 0.06308,-0.104081 0.123004,-0.299625 0.06308,-0.198699 0.09777,-0.435245 0.03785,-0.2397 0.04416,-0.498324 0,-0.03469 0,-0.06939 0,-0.220777 -0.03785,-0.425783 -0.041,-0.236546 -0.138773,-0.422629 -0.09462,-0.186083 -0.258624,-0.283855 -0.10408,-0.06308 -0.242854,-0.06308 -0.0063,0 -0.01577,0 -0.148235,0.0032 -0.255469,0.100926 -0.186083,0.167159 -0.293317,0.488862 -0.104081,0.318548 -0.129312,0.674944 z"
         style="font-style:normal;font-variant:normal;font-weight:normal;font-stretch:normal;font-family:AngryBirds;-inkscape-font-specification:AngryBirds;stroke-width:0.16148205"
         id="path807" />
      <path
         d="m 55.384806,14.76315 0.03785,-0.157698 q 0.264931,-0.09777 0.605557,-0.170313 0.34378,-0.07254 0.684407,-0.09462 0.08831,-0.0063 0.173467,-0.0032 0.242854,0 0.460476,0.041 0.293317,0.05362 0.454168,0.208161 0.258624,0.252315 0.350088,0.577172 0.06308,0.220776 0.05992,0.441552 0,0.104081 -0.01262,0.208161 -0.041,0.32801 -0.198699,0.640251 -0.154543,0.309087 -0.391089,0.536171 -0.07885,0.07254 -0.201853,0.15139 -0.123004,0.07569 -0.274393,0.148235 -0.15139,0.06939 -0.331165,0.132466 -0.176621,0.05992 -0.356396,0.09777 l -0.0063,1.122805 -0.116696,0.041 -0.129311,-0.362703 -0.258624,0.350088 -0.167159,-0.195545 -0.129312,0.07885 -0.03154,-3.229642 -0.141927,-0.110388 0.387935,-0.400551 z m 0.980878,0.476246 0.03469,1.517048 q 0.160851,-0.05677 0.296471,-0.123004 0.116696,-0.05046 0.22393,-0.10408 0.110388,-0.05677 0.164005,-0.100926 0.13562,-0.123004 0.230239,-0.290164 0.09777,-0.167159 0.126157,-0.340626 0.0095,-0.06308 0.01262,-0.11985 0,-0.107234 -0.03469,-0.205006 -0.05046,-0.154544 -0.217623,-0.258624 -0.07885,-0.04731 -0.20816,-0.05046 -0.0095,0 -0.01577,0.0032 -0.138773,0.0032 -0.274393,0.01577 -0.164005,0.02523 -0.337472,0.05677 z"
         style="font-style:normal;font-variant:normal;font-weight:normal;font-stretch:normal;font-family:AngryBirds;-inkscape-font-specification:AngryBirds;stroke-width:0.16148205"
         id="path809" />
      <path
         d="m 58.608142,14.753688 0.02208,-0.11985 q 0.356396,-0.116696 0.712792,-0.176621 0.35955,-0.06308 0.693868,-0.06623 0.01892,0 0.03469,0 0.315394,0 0.589788,0.05362 0.287009,0.05677 0.498323,0.195545 0.192391,0.123004 0.305933,0.309087 0.116696,0.186082 0.138774,0.419474 0.0063,0.05677 0.0063,0.11985 0,0.179775 -0.05362,0.381628 -0.06939,0.268085 -0.2397,0.545633 -0.03154,0.05677 -0.09777,0.141927 -0.06623,0.08516 -0.145081,0.182929 -0.0757,0.09462 -0.167159,0.189237 -0.08831,0.09146 -0.173467,0.164005 0.07885,0.186083 0.167159,0.394244 0.09146,0.205006 0.176621,0.397397 0.08831,0.189237 0.167159,0.350088 0.07885,0.157697 0.123004,0.246008 l -0.04416,0.04731 -0.37532,-0.20816 -0.01892,0.321702 -0.129311,-0.05677 -0.116697,0.07885 -0.782178,-1.207962 -0.406859,0.160851 -0.03154,0.968262 -0.10408,-0.01262 -0.214469,-0.337472 -0.167159,0.435245 -0.116696,-0.04731 q -0.0063,-0.19239 -0.02208,-0.55194 -0.01577,-0.35955 -0.02839,-0.782179 -0.01262,-0.422629 -0.01262,-0.857873 0,-0.435245 0.02523,-0.791641 l 0.01892,-0.252316 -0.205007,-0.148235 0.340626,-0.309087 z m 0.930414,2.031142 q 0.233392,-0.09146 0.4794,-0.246008 0.246008,-0.154544 0.425783,-0.337473 0.179774,-0.186082 0.261777,-0.384781 0.03785,-0.08831 0.03785,-0.176621 0,-0.10408 -0.05362,-0.205007 -0.05677,-0.10408 -0.242854,-0.132465 -0.151389,-0.02523 -0.31224,-0.02523 -0.03469,0 -0.07254,0 -0.233392,0.01262 -0.510939,0.05992 z"
         style="font-style:normal;font-variant:normal;font-weight:normal;font-stretch:normal;font-family:AngryBirds;-inkscape-font-specification:AngryBirds;stroke-width:0.16148205"
         id="path811" />
      <path
         d="m 62.042789,18.604657 v -4.018128 l 0.141927,-0.05046 0.214469,0.504631 0.271239,-0.485708 0.192391,0.10408 0.182929,-0.06623 -0.110388,4.084361 -0.07885,0.02523 -0.271239,-0.387935 -0.186083,0.340626 -0.167159,-0.06308 z"
         style="font-style:normal;font-variant:normal;font-weight:normal;font-stretch:normal;font-family:AngryBirds;-inkscape-font-specification:AngryBirds;stroke-width:0.16148205"
         id="path813" />
      <path
         d="m 63.569297,18.715045 0.198699,-4.210519 0.201853,-0.08516 0.246008,0.561402 0.271239,-0.451014 0.13562,0.135619 0.113542,-0.09777 0.58348,1.816673 h 0.10408 l 0.574018,-1.835597 0.186083,0.141928 0.252316,-0.198699 0.220776,0.315395 0.283855,-0.258624 0.192391,4.030744 -0.123004,0.03154 -0.205006,-0.346934 -0.129312,0.321702 -0.116696,-0.10408 -0.160851,0.06623 -0.141928,-1.971217 -0.116696,-0.03154 -0.678099,1.819827 -0.116696,-0.100926 -0.123003,0.05046 -0.665483,-1.706285 -0.10408,-0.01262 -0.13562,2.002756 -0.198699,0.05677 -0.246008,-0.391089 -0.19239,0.482553 z"
         style="font-style:normal;font-variant:normal;font-weight:normal;font-stretch:normal;font-family:AngryBirds;-inkscape-font-specification:AngryBirds;stroke-width:0.16148205"
         id="path815" />
      <path
         d="m 67.521193,17.147533 q -0.01262,-0.173467 -0.01577,-0.346934 0,-0.19239 0.01892,-0.384781 0.06308,-0.659175 0.182929,-1.034495 0.11985,-0.375319 0.353242,-0.574018 0.08516,-0.07254 0.214468,-0.145082 0.132466,-0.07569 0.293317,-0.129311 0.164005,-0.05677 0.350088,-0.07885 0.08831,-0.0095 0.176621,-0.0095 l 0.198699,0.01262 -0.01262,0.37532 0.315395,-0.192391 0.135619,0.198698 0.214469,-0.08516 q 0.2397,0.246008 0.365858,0.706484 0.129311,0.457322 0.129311,1.122805 0,0.220776 -0.02523,0.482554 -0.02523,0.261777 -0.09146,0.514093 -0.06308,0.249162 -0.170313,0.460476 -0.107234,0.208161 -0.268085,0.324857 -0.227084,0.160851 -0.457323,0.246008 -0.227084,0.08516 -0.444706,0.107234 -0.100926,0.0095 -0.201853,0.0095 -0.110388,0 -0.211314,-0.01262 -0.192391,-0.02523 -0.350088,-0.08516 -0.198699,-0.07254 -0.346934,-0.290163 -0.145082,-0.220776 -0.236546,-0.523555 -0.08831,-0.302779 -0.116696,-0.668637 z m 0.769563,-0.589788 q -0.0095,0.123004 -0.0063,0.242854 0,0.227084 0.03154,0.447861 0.04731,0.334318 0.176621,0.536171 0.06308,0.10408 0.186083,0.157697 0.123004,0.05046 0.261778,0.05046 0.138773,0 0.264931,-0.04731 0.126158,-0.05046 0.192391,-0.154543 0.06308,-0.104081 0.123004,-0.299625 0.06308,-0.198699 0.09777,-0.435245 0.03785,-0.2397 0.04416,-0.498324 0,-0.03469 0,-0.06939 0,-0.220777 -0.03785,-0.425783 -0.041,-0.236546 -0.138773,-0.422629 -0.09462,-0.186083 -0.258624,-0.283855 -0.10408,-0.06308 -0.242854,-0.06308 -0.0063,0 -0.01577,0 -0.148235,0.0032 -0.255469,0.100926 -0.186083,0.167159 -0.293317,0.488862 -0.104081,0.318548 -0.129312,0.674944 z"
         style="font-style:normal;font-variant:normal;font-weight:normal;font-stretch:normal;font-family:AngryBirds;-inkscape-font-specification:AngryBirds;stroke-width:0.16148205"
         id="path817" />
      <path
         d="m 70.936916,18.592041 q -0.113542,-0.123004 -0.123004,-0.258624 -0.0063,-0.135619 0.02839,-0.356396 0.01892,-0.148235 0.107234,-0.261777 0.09146,-0.116696 0.220776,-0.176621 0.129312,-0.06308 0.274394,-0.06308 0.145081,0 0.274393,0.082 0.03785,0.02523 0.05993,0.141928 0.02523,0.116696 0.01577,0.261778 -0.0095,0.145081 -0.05677,0.283855 -0.04416,0.138774 -0.129312,0.211314 -0.07885,0.06308 -0.179775,0.110388 -0.09777,0.04416 -0.195545,0.06308 -0.09462,0.01892 -0.176621,0.0095 -0.07885,-0.0095 -0.11985,-0.04731 z"
         style="font-style:normal;font-variant:normal;font-weight:normal;font-stretch:normal;font-family:AngryBirds;-inkscape-font-specification:AngryBirds;stroke-width:0.16148205"
         id="path819" />
      <path
         d="m 11.809878,22.863845 0.03785,-0.157697 q 0.264932,-0.09777 0.605558,-0.170313 0.34378,-0.07254 0.684406,-0.09462 0.08831,-0.0063 0.173467,-0.0032 0.242854,0 0.460477,0.041 0.293317,0.05362 0.454168,0.20816 0.258624,0.252316 0.350088,0.577173 0.06308,0.220776 0.05992,0.441552 0,0.10408 -0.01262,0.208161 -0.041,0.32801 -0.198698,0.640251 -0.154544,0.309087 -0.39109,0.536171 -0.07885,0.07254 -0.201852,0.151389 -0.123004,0.07569 -0.274394,0.148236 -0.151389,0.06939 -0.331164,0.132465 -0.176621,0.05993 -0.356396,0.09777 l -0.0063,1.122805 -0.116696,0.041 -0.129312,-0.362704 -0.258623,0.350088 -0.16716,-0.195544 -0.129311,0.07885 -0.03154,-3.229641 -0.141927,-0.110388 0.387935,-0.400551 z m 0.980877,0.476246 0.03469,1.517049 q 0.160851,-0.05677 0.296471,-0.123004 0.116696,-0.05046 0.22393,-0.10408 0.110388,-0.05677 0.164005,-0.100927 0.13562,-0.123004 0.230238,-0.290163 0.09777,-0.167159 0.126158,-0.340626 0.0095,-0.06308 0.01262,-0.11985 0,-0.107234 -0.03469,-0.205007 -0.05046,-0.154543 -0.217622,-0.258623 -0.07885,-0.04731 -0.20816,-0.05046 -0.0095,0 -0.01577,0.0032 -0.138774,0.0032 -0.274393,0.01577 -0.164006,0.02523 -0.337473,0.05677 z"
         style="font-style:normal;font-variant:normal;font-weight:normal;font-stretch:normal;font-family:AngryBirds;-inkscape-font-specification:AngryBirds;stroke-width:0.16148205"
         id="path821" />
      <path
         d="m 15.162523,26.692737 q -0.113542,-0.123004 -0.123004,-0.258624 -0.0063,-0.13562 0.02839,-0.356396 0.01892,-0.148235 0.107234,-0.261777 0.09146,-0.116697 0.220776,-0.176621 0.129312,-0.06308 0.274394,-0.06308 0.145081,0 0.274393,0.082 0.03785,0.02523 0.05992,0.141928 0.02523,0.116696 0.01577,0.261777 -0.0095,0.145082 -0.05677,0.283856 -0.04416,0.138773 -0.129312,0.211314 -0.07885,0.06308 -0.179775,0.110388 -0.09777,0.04415 -0.195545,0.06308 -0.09462,0.01892 -0.176621,0.0095 -0.07885,-0.0095 -0.11985,-0.04731 z m 0.164005,-2.337075 q -0.116696,-0.123004 -0.123004,-0.258623 -0.0063,-0.13562 0.02523,-0.356396 0.01892,-0.148236 0.107234,-0.264932 0.09146,-0.116696 0.220777,-0.176621 0.129311,-0.06308 0.274393,-0.06308 0.145081,0 0.274393,0.08516 0.03785,0.02523 0.05992,0.141927 0.02523,0.116696 0.01577,0.261778 -0.0095,0.145081 -0.05677,0.283855 -0.04415,0.138774 -0.126158,0.211314 -0.07885,0.06308 -0.179775,0.110389 -0.09777,0.04415 -0.195545,0.06308 -0.09777,0.01892 -0.179775,0.0095 -0.07885,-0.0095 -0.116696,-0.04731 z"
         style="font-style:normal;font-variant:normal;font-weight:normal;font-stretch:normal;font-family:AngryBirds;-inkscape-font-specification:AngryBirds;stroke-width:0.16148205"
         id="path823" />
      <path
         d="m 18.038922,24.232658 0.02523,-2.46954 2.236148,-0.100926 0.05046,0.160851 -0.271239,0.252316 0.394243,0.186083 -0.03154,0.06623 -1.460277,0.11985 q -0.01262,0.2397 -0.01892,0.4794 -0.0063,0.208161 0.0032,0.435245 0.0095,0.22393 0.041,0.403705 0.198699,-0.01892 0.400551,-0.0032 0.201853,0.01577 0.37532,0.05362 0.176621,0.03469 0.312241,0.09146 0.135619,0.05362 0.205006,0.110388 0.110388,0.09146 0.176621,0.25547 0.06939,0.164005 0.08831,0.365857 0.01892,0.198699 -0.0063,0.425783 -0.02523,0.227084 -0.100926,0.444707 -0.07254,0.214468 -0.195545,0.410013 -0.123004,0.192391 -0.290163,0.32801 -0.167159,0.13562 -0.384782,0.22393 -0.217622,0.08516 -0.441552,0.141928 -0.220776,0.05362 -0.432091,0.082 -0.20816,0.02839 -0.362704,0.041 0.01262,-0.04415 0.04731,-0.10408 0.03469,-0.06308 0.05992,-0.09462 l -0.283855,-0.05992 0.406859,-0.277547 -0.457322,-0.08831 v -0.08516 q 0.110388,-0.01892 0.271239,-0.05362 0.160852,-0.03785 0.328011,-0.08516 0.170313,-0.04731 0.331164,-0.113542 0.160852,-0.06939 0.27124,-0.154543 0.167159,-0.129312 0.261777,-0.280701 0.09777,-0.15139 0.116696,-0.302779 0.02208,-0.15139 -0.04731,-0.280702 -0.06623,-0.129311 -0.227084,-0.214468 -0.05677,-0.02523 -0.195545,-0.03154 -0.135619,-0.0063 -0.299625,0 -0.164005,0.0063 -0.331164,0.01892 -0.164005,0.01262 -0.274393,0.01892 l 0.05992,-0.356396 z"
         style="font-style:normal;font-variant:normal;font-weight:normal;font-stretch:normal;font-family:AngryBirds;-inkscape-font-specification:AngryBirds;stroke-width:0.16148205"
         id="path825" />
      <path
         d="m 22.227364,22.999465 0.08831,-0.20816 -0.04415,-0.08516 1.848213,-0.123004 0.05677,0.252316 -0.400551,0.277547 0.381627,0.116696 -0.05046,0.141928 -0.94303,0.08516 -0.02208,0.993494 0.94303,-0.03154 -0.107235,0.337472 0.186083,0.07569 -0.03154,0.173467 -0.977724,0.09777 0.041,1.053418 0.974569,-0.03785 -0.06308,0.334319 0.173467,0.07885 -0.07254,0.246008 -1.523356,0.08831 0.02523,-0.328011 -0.394244,0.02523 0.041,-3.021481 -0.07885,-0.129312 0.277547,-0.2397 z m 0.586634,-0.854719 0.722254,-1.11019 0.148235,-0.01261 -0.04415,0.258623 0.387936,-0.03154 -0.03785,0.154543 0.13562,0.05677 -0.861028,0.763255 -0.154543,-0.154543 -0.227084,0.141927 z"
         style="font-style:normal;font-variant:normal;font-weight:normal;font-stretch:normal;font-family:AngryBirds;-inkscape-font-specification:AngryBirds;stroke-width:0.16148205"
         id="path827" />
      <path
         d="m 25.797632,25.134687 q 0,-0.362704 0.0032,-0.656021 0.0032,-0.293317 0.01892,-0.56771 0.01577,-0.274394 0.041,-0.561403 0.02523,-0.287009 0.07254,-0.630789 l 0.211315,0.08516 0.252316,-0.19239 0.239699,0.148235 0.08831,-0.03154 q -0.01892,0.19239 -0.041,0.504631 -0.02208,0.309087 -0.04416,0.649713 -0.02208,0.337472 -0.03154,0.659175 -0.0032,0.138774 -0.0063,0.25547 0,0.157697 0.0095,0.280701 0.03154,0.608712 0.32801,0.772717 0.09777,0.05362 0.223931,0.05362 0.252315,0 0.608711,-0.217622 0.03785,-0.09146 0.05992,-0.261778 0.02523,-0.173467 0.03785,-0.387935 0.01262,-0.217623 0.01892,-0.46363 0.0063,-0.246008 0.0063,-0.49517 0.0063,-0.419475 0.0095,-0.829488 0.0032,-0.413167 0.01577,-0.690714 l 0.176621,-0.04416 0.217622,0.438399 0.283855,-0.413167 0.15139,-0.0063 q -0.0063,0.264932 -0.01577,0.731716 -0.0063,0.46363 -0.01262,1.03134 -0.0063,0.567711 -0.0063,1.179576 0,0.608712 0.01262,1.154345 l -0.160851,-0.05362 -0.217622,0.189236 -0.2397,-0.157697 -0.189237,0.09147 q -0.0063,-0.03154 -0.02208,-0.08516 -0.01577,-0.05677 -0.05992,-0.173467 -0.192391,0.08516 -0.425783,0.148235 -0.233392,0.05992 -0.457322,0.082 -0.11985,0.01262 -0.230238,0.01262 -0.09462,0 -0.182929,-0.0095 -0.189237,-0.01892 -0.293317,-0.09777 -0.160851,-0.116696 -0.252316,-0.321703 -0.09146,-0.20816 -0.135619,-0.425783 -0.04416,-0.220776 -0.05362,-0.410013 -0.0095,-0.192391 -0.0095,-0.283855 z"
         style="font-style:normal;font-variant:normal;font-weight:normal;font-stretch:normal;font-family:AngryBirds;-inkscape-font-specification:AngryBirds;stroke-width:0.16148205"
         id="path829" />
      <path
         d="m 29.153431,26.815741 0.198698,-4.210519 0.201853,-0.08516 0.246008,0.561403 0.271239,-0.451015 0.13562,0.13562 0.113542,-0.09777 0.58348,1.816673 h 0.10408 l 0.574019,-1.835597 0.186082,0.141928 0.252316,-0.198699 0.220776,0.315395 0.283856,-0.258624 0.19239,4.030744 -0.123004,0.03154 -0.205006,-0.346934 -0.129312,0.321703 -0.116696,-0.10408 -0.160851,0.06623 -0.141928,-1.971216 -0.116696,-0.03154 -0.678098,1.819828 -0.116696,-0.100927 -0.123004,0.05046 -0.665483,-1.706285 -0.10408,-0.01262 -0.13562,2.002757 -0.198699,0.05677 -0.246008,-0.39109 -0.19239,0.482554 z"
         style="font-style:normal;font-variant:normal;font-weight:normal;font-stretch:normal;font-family:AngryBirds;-inkscape-font-specification:AngryBirds;stroke-width:0.16148205"
         id="path831" />
      <path
         d="m 34.458371,22.740841 0.283855,-0.148235 0.227084,0.236546 0.283855,-0.09462 1.31835,2.393845 h 0.129312 l -0.03785,-2.374922 0.167159,-0.09777 0.290164,0.400551 0.271239,-0.406859 0.116696,0.01892 -0.0063,4.14744 -0.07254,0.04415 -0.230238,-0.2397 -0.324856,0.227084 -0.129312,-0.02523 -1.30258,-2.05322 -0.164005,-0.01892 -0.05046,2.084758 -0.186083,-0.02523 -0.252316,-0.34378 -0.189237,0.381627 -0.110388,-0.05677 z"
         style="font-style:normal;font-variant:normal;font-weight:normal;font-stretch:normal;font-family:AngryBirds;-inkscape-font-specification:AngryBirds;stroke-width:0.16148205"
         id="path833" />
      <path
         d="m 37.997097,25.134687 q 0,-0.362704 0.0032,-0.656021 0.0032,-0.293317 0.01892,-0.56771 0.01577,-0.274394 0.041,-0.561403 0.02523,-0.287009 0.07254,-0.630789 l 0.211315,0.08516 0.252315,-0.19239 0.2397,0.148235 0.08831,-0.03154 q -0.01892,0.19239 -0.041,0.504631 -0.02208,0.309087 -0.04415,0.649713 -0.02208,0.337472 -0.03154,0.659175 -0.0095,0.321703 0.0032,0.536171 0.03154,0.608712 0.32801,0.772717 0.296471,0.164005 0.832642,-0.164005 0.03785,-0.09146 0.05992,-0.261778 0.02523,-0.173467 0.03785,-0.387935 0.01262,-0.217623 0.01892,-0.46363 0.0063,-0.246008 0.0063,-0.49517 0.0063,-0.419475 0.0095,-0.829488 0.0032,-0.413167 0.01577,-0.690714 l 0.176621,-0.04416 0.217622,0.438399 0.283855,-0.413167 0.15139,-0.0063 q -0.0063,0.264932 -0.01577,0.731716 -0.0063,0.46363 -0.01262,1.03134 -0.0063,0.567711 -0.0063,1.179576 0,0.608712 0.01262,1.154345 l -0.160851,-0.05362 -0.217623,0.189236 -0.2397,-0.157697 -0.189236,0.09147 q -0.0063,-0.03154 -0.02208,-0.08516 -0.01577,-0.05677 -0.05992,-0.173467 -0.192391,0.08516 -0.425783,0.148235 -0.233392,0.05992 -0.457322,0.082 -0.220776,0.02208 -0.413167,0.0032 -0.189237,-0.01892 -0.293317,-0.09777 -0.160852,-0.116696 -0.252316,-0.321703 -0.09146,-0.20816 -0.13562,-0.425783 -0.04415,-0.220776 -0.05362,-0.410013 -0.0095,-0.192391 -0.0095,-0.283855 z m 1.166961,-2.930016 0.725407,-1.113344 0.148236,-0.01262 -0.04731,0.258623 0.387935,-0.03154 -0.03785,0.154543 0.13562,0.05992 -0.857874,0.760101 -0.157697,-0.154543 -0.223931,0.141927 z"
         style="font-style:normal;font-variant:normal;font-weight:normal;font-stretch:normal;font-family:AngryBirds;-inkscape-font-specification:AngryBirds;stroke-width:0.16148205"
         id="path835" />
      <path
         d="m 41.352897,26.815741 0.198699,-4.210519 0.201853,-0.08516 0.246007,0.561403 0.27124,-0.451015 0.135619,0.13562 0.113543,-0.09777 0.58348,1.816673 h 0.10408 l 0.574018,-1.835597 0.186083,0.141928 0.252316,-0.198699 0.220776,0.315395 0.283855,-0.258624 0.192391,4.030744 -0.123004,0.03154 -0.205006,-0.346934 -0.129312,0.321703 -0.116696,-0.10408 -0.160852,0.06623 -0.141927,-1.971216 -0.116696,-0.03154 -0.678099,1.819828 -0.116696,-0.100927 -0.123004,0.05046 -0.665482,-1.706285 -0.104081,-0.01262 -0.135619,2.002757 -0.198699,0.05677 -0.246008,-0.39109 -0.192391,0.482554 z"
         style="font-style:normal;font-variant:normal;font-weight:normal;font-stretch:normal;font-family:AngryBirds;-inkscape-font-specification:AngryBirds;stroke-width:0.16148205"
         id="path837" />
      <path
         d="m 45.289023,22.999465 0.08831,-0.20816 -0.04416,-0.08516 1.848213,-0.123004 0.05677,0.252316 -0.400551,0.277547 0.381627,0.116696 -0.05046,0.141928 -0.94303,0.08516 -0.02208,0.993494 0.94303,-0.03154 -0.107234,0.337472 0.186083,0.07569 -0.03154,0.173467 -0.977724,0.09777 0.041,1.053418 0.97457,-0.03785 -0.06308,0.334319 0.173467,0.07885 -0.07254,0.246008 -1.523356,0.08831 0.02523,-0.328011 -0.394244,0.02523 0.041,-3.021481 -0.07885,-0.129312 0.277547,-0.2397 z"
         style="font-style:normal;font-variant:normal;font-weight:normal;font-stretch:normal;font-family:AngryBirds;-inkscape-font-specification:AngryBirds;stroke-width:0.16148205"
         id="path839" />
      <path
         d="m 47.670252,22.854384 0.02208,-0.11985 q 0.356396,-0.116696 0.712792,-0.176621 0.35955,-0.06308 0.693868,-0.06623 0.01892,0 0.03469,0 0.315394,0 0.589788,0.05362 0.287009,0.05677 0.498323,0.195544 0.192391,0.123004 0.305933,0.309087 0.116696,0.186083 0.138774,0.419475 0.0063,0.05677 0.0063,0.11985 0,0.179775 -0.05362,0.381628 -0.06939,0.268085 -0.2397,0.545632 -0.03154,0.05677 -0.09777,0.141928 -0.06623,0.08516 -0.145081,0.182929 -0.0757,0.09462 -0.167159,0.189237 -0.08831,0.09146 -0.173467,0.164005 0.07885,0.186083 0.167159,0.394243 0.09146,0.205007 0.176621,0.397398 0.08831,0.189236 0.167159,0.350088 0.07885,0.157697 0.123004,0.246008 l -0.04415,0.04731 -0.37532,-0.208161 -0.01892,0.321703 -0.129312,-0.05677 -0.116696,0.07885 -0.782178,-1.207961 -0.40686,0.160851 -0.03154,0.968262 -0.10408,-0.01262 -0.214469,-0.337472 -0.167159,0.435244 -0.116696,-0.04731 q -0.0063,-0.192391 -0.02208,-0.55194 -0.01577,-0.35955 -0.02839,-0.782179 -0.01262,-0.422629 -0.01262,-0.857874 0,-0.435244 0.02523,-0.79164 l 0.01892,-0.252316 -0.205007,-0.148236 0.340626,-0.309086 z m 0.930415,2.031141 q 0.233392,-0.09146 0.4794,-0.246008 0.246007,-0.154543 0.425782,-0.337472 0.179775,-0.186083 0.261778,-0.384781 0.03785,-0.08831 0.03785,-0.176621 0,-0.104081 -0.05362,-0.205007 -0.05677,-0.10408 -0.242854,-0.132466 -0.151389,-0.02523 -0.31224,-0.02523 -0.03469,0 -0.07254,0 -0.233392,0.01262 -0.510939,0.05992 z"
         style="font-style:normal;font-variant:normal;font-weight:normal;font-stretch:normal;font-family:AngryBirds;-inkscape-font-specification:AngryBirds;stroke-width:0.16148205"
         id="path841" />
      <path
         d="m 51.019743,25.248229 q -0.01262,-0.173467 -0.01577,-0.346934 0,-0.192391 0.01892,-0.384782 0.06308,-0.659174 0.182929,-1.034494 0.11985,-0.37532 0.353242,-0.574018 0.08516,-0.07254 0.214468,-0.145082 0.132466,-0.07569 0.293317,-0.129312 0.164006,-0.05677 0.350089,-0.07885 0.08831,-0.0095 0.176621,-0.0095 l 0.198698,0.01262 -0.01262,0.375319 0.315395,-0.192391 0.13562,0.198699 0.214468,-0.08516 q 0.2397,0.246007 0.365858,0.706484 0.129312,0.457322 0.129312,1.122805 0,0.220776 -0.02523,0.482553 -0.02523,0.261778 -0.09146,0.514094 -0.06308,0.249162 -0.170313,0.460476 -0.107235,0.208161 -0.268086,0.324857 -0.227084,0.160851 -0.457322,0.246007 -0.227084,0.08516 -0.444707,0.107235 -0.100926,0.0095 -0.201852,0.0095 -0.110388,0 -0.211315,-0.01262 -0.19239,-0.02523 -0.350088,-0.08516 -0.198698,-0.07254 -0.346934,-0.290163 -0.145081,-0.220776 -0.236546,-0.523555 -0.08831,-0.302779 -0.116696,-0.668637 z m 0.769563,-0.589788 q -0.0095,0.123004 -0.0063,0.242854 0,0.227084 0.03154,0.44786 0.04731,0.334319 0.176621,0.536171 0.06308,0.104081 0.186083,0.157698 0.123003,0.05046 0.261777,0.05046 0.138774,0 0.264932,-0.04731 0.126158,-0.05046 0.19239,-0.154544 0.06308,-0.10408 0.123004,-0.299625 0.06308,-0.198698 0.09777,-0.435244 0.03785,-0.2397 0.04416,-0.498324 0,-0.03469 0,-0.06939 0,-0.220776 -0.03785,-0.425783 -0.041,-0.236546 -0.138774,-0.422628 -0.09462,-0.186083 -0.258624,-0.283856 -0.10408,-0.06308 -0.242854,-0.06308 -0.0063,0 -0.01577,0 -0.148236,0.0032 -0.25547,0.100927 -0.186083,0.167159 -0.293317,0.488861 -0.10408,0.318549 -0.129312,0.674945 z"
         style="font-style:normal;font-variant:normal;font-weight:normal;font-stretch:normal;font-family:AngryBirds;-inkscape-font-specification:AngryBirds;stroke-width:0.16148205"
         id="path843" />
      <path
         d="m 55.548811,22.863845 0.03785,-0.157697 q 0.264931,-0.09777 0.605558,-0.170313 0.34378,-0.07254 0.684406,-0.09462 0.08831,-0.0063 0.173467,-0.0032 0.242854,0 0.460476,0.041 0.293317,0.05362 0.454169,0.20816 0.258623,0.252316 0.350088,0.577173 0.06308,0.220776 0.05992,0.441552 0,0.10408 -0.01262,0.208161 -0.041,0.32801 -0.198699,0.640251 -0.154543,0.309087 -0.391089,0.536171 -0.07885,0.07254 -0.201853,0.151389 -0.123004,0.07569 -0.274393,0.148236 -0.15139,0.06939 -0.331164,0.132465 -0.176622,0.05993 -0.356396,0.09777 l -0.0063,1.122805 -0.116696,0.041 -0.129312,-0.362704 -0.258624,0.350088 -0.167159,-0.195544 -0.129312,0.07885 -0.03154,-3.229641 -0.141928,-0.110388 0.387936,-0.400551 z m 0.980878,0.476246 0.03469,1.517049 q 0.160852,-0.05677 0.296471,-0.123004 0.116696,-0.05046 0.22393,-0.10408 0.110389,-0.05677 0.164006,-0.100927 0.135619,-0.123004 0.230238,-0.290163 0.09777,-0.167159 0.126158,-0.340626 0.0095,-0.06308 0.01262,-0.11985 0,-0.107234 -0.03469,-0.205007 -0.05046,-0.154543 -0.217622,-0.258623 -0.07885,-0.04731 -0.208161,-0.05046 -0.0095,0 -0.01577,0.0032 -0.138774,0.0032 -0.274394,0.01577 -0.164005,0.02523 -0.337472,0.05677 z"
         style="font-style:normal;font-variant:normal;font-weight:normal;font-stretch:normal;font-family:AngryBirds;-inkscape-font-specification:AngryBirds;stroke-width:0.16148205"
         id="path845" />
      <path
         d="m 58.772147,22.854384 0.02208,-0.11985 q 0.356396,-0.116696 0.712792,-0.176621 0.35955,-0.06308 0.693869,-0.06623 0.01892,0 0.03469,0 0.315395,0 0.589788,0.05362 0.287009,0.05677 0.498324,0.195544 0.19239,0.123004 0.305933,0.309087 0.116696,0.186083 0.138773,0.419475 0.0063,0.05677 0.0063,0.11985 0,0.179775 -0.05362,0.381628 -0.06939,0.268085 -0.2397,0.545632 -0.03154,0.05677 -0.09777,0.141928 -0.06623,0.08516 -0.145082,0.182929 -0.07569,0.09462 -0.167159,0.189237 -0.08831,0.09146 -0.173467,0.164005 0.07885,0.186083 0.167159,0.394243 0.09146,0.205007 0.176621,0.397398 0.08831,0.189236 0.167159,0.350088 0.07885,0.157697 0.123004,0.246008 l -0.04415,0.04731 -0.37532,-0.208161 -0.01892,0.321703 -0.129312,-0.05677 -0.116696,0.07885 -0.782179,-1.207961 -0.406859,0.160851 -0.03154,0.968262 -0.10408,-0.01262 -0.214468,-0.337472 -0.167159,0.435244 -0.116696,-0.04731 q -0.0063,-0.192391 -0.02208,-0.55194 -0.01577,-0.35955 -0.02839,-0.782179 -0.01261,-0.422629 -0.01261,-0.857874 0,-0.435244 0.02523,-0.79164 l 0.01892,-0.252316 -0.205007,-0.148236 0.340627,-0.309086 z m 0.930414,2.031141 q 0.233392,-0.09146 0.4794,-0.246008 0.246008,-0.154543 0.425783,-0.337472 0.179775,-0.186083 0.261777,-0.384781 0.03785,-0.08831 0.03785,-0.176621 0,-0.104081 -0.05362,-0.205007 -0.05677,-0.10408 -0.242854,-0.132466 -0.15139,-0.02523 -0.312241,-0.02523 -0.03469,0 -0.07254,0 -0.233392,0.01262 -0.510939,0.05992 z"
         style="font-style:normal;font-variant:normal;font-weight:normal;font-stretch:normal;font-family:AngryBirds;-inkscape-font-specification:AngryBirds;stroke-width:0.16148205"
         id="path847" />
      <path
         d="m 62.206794,26.705352 v -4.018128 l 0.141928,-0.05046 0.214468,0.504632 0.271239,-0.485708 0.192391,0.10408 0.182929,-0.06623 -0.110388,4.084361 -0.07885,0.02523 -0.271239,-0.387936 -0.186083,0.340627 -0.167159,-0.06308 z"
         style="font-style:normal;font-variant:normal;font-weight:normal;font-stretch:normal;font-family:AngryBirds;-inkscape-font-specification:AngryBirds;stroke-width:0.16148205"
         id="path849" />
      <path
         d="m 63.733303,26.815741 0.198698,-4.210519 0.201853,-0.08516 0.246008,0.561403 0.271239,-0.451015 0.13562,0.13562 0.113542,-0.09777 0.58348,1.816673 h 0.10408 l 0.574019,-1.835597 0.186083,0.141928 0.252315,-0.198699 0.220777,0.315395 0.283855,-0.258624 0.19239,4.030744 -0.123003,0.03154 -0.205007,-0.346934 -0.129312,0.321703 -0.116696,-0.10408 -0.160851,0.06623 -0.141928,-1.971216 -0.116696,-0.03154 -0.678098,1.819828 -0.116696,-0.100927 -0.123004,0.05046 -0.665483,-1.706285 -0.10408,-0.01262 -0.13562,2.002757 -0.198699,0.05677 -0.246007,-0.39109 -0.192391,0.482554 z"
         style="font-style:normal;font-variant:normal;font-weight:normal;font-stretch:normal;font-family:AngryBirds;-inkscape-font-specification:AngryBirds;stroke-width:0.16148205"
         id="path851" />
      <path
         d="m 67.685198,25.248229 q -0.01262,-0.173467 -0.01577,-0.346934 0,-0.192391 0.01892,-0.384782 0.06308,-0.659174 0.182929,-1.034494 0.11985,-0.37532 0.353242,-0.574018 0.08516,-0.07254 0.214468,-0.145082 0.132466,-0.07569 0.293317,-0.129312 0.164006,-0.05677 0.350088,-0.07885 0.08831,-0.0095 0.176621,-0.0095 l 0.198699,0.01262 -0.01262,0.375319 0.315395,-0.192391 0.13562,0.198699 0.214468,-0.08516 q 0.2397,0.246007 0.365858,0.706484 0.129312,0.457322 0.129312,1.122805 0,0.220776 -0.02523,0.482553 -0.02523,0.261778 -0.09146,0.514094 -0.06308,0.249162 -0.170314,0.460476 -0.107234,0.208161 -0.268085,0.324857 -0.227084,0.160851 -0.457322,0.246007 -0.227084,0.08516 -0.444707,0.107235 -0.100926,0.0095 -0.201852,0.0095 -0.110388,0 -0.211315,-0.01262 -0.192391,-0.02523 -0.350088,-0.08516 -0.198698,-0.07254 -0.346934,-0.290163 -0.145082,-0.220776 -0.236546,-0.523555 -0.08831,-0.302779 -0.116696,-0.668637 z m 0.769563,-0.589788 q -0.0095,0.123004 -0.0063,0.242854 0,0.227084 0.03154,0.44786 0.04731,0.334319 0.176621,0.536171 0.06308,0.104081 0.186082,0.157698 0.123004,0.05046 0.261778,0.05046 0.138774,0 0.264932,-0.04731 0.126157,-0.05046 0.19239,-0.154544 0.06308,-0.10408 0.123004,-0.299625 0.06308,-0.198698 0.09777,-0.435244 0.03785,-0.2397 0.04416,-0.498324 0,-0.03469 0,-0.06939 0,-0.220776 -0.03785,-0.425783 -0.041,-0.236546 -0.138773,-0.422628 -0.09462,-0.186083 -0.258624,-0.283856 -0.10408,-0.06308 -0.242854,-0.06308 -0.0063,0 -0.01577,0 -0.148236,0.0032 -0.25547,0.100927 -0.186083,0.167159 -0.293317,0.488861 -0.10408,0.318549 -0.129312,0.674945 z"
         style="font-style:normal;font-variant:normal;font-weight:normal;font-stretch:normal;font-family:AngryBirds;-inkscape-font-specification:AngryBirds;stroke-width:0.16148205"
         id="path853" />
      <path
         d="m 71.100922,26.692737 q -0.113543,-0.123004 -0.123004,-0.258624 -0.0063,-0.13562 0.02839,-0.356396 0.01892,-0.148235 0.107234,-0.261777 0.09146,-0.116697 0.220777,-0.176621 0.129311,-0.06308 0.274393,-0.06308 0.145082,0 0.274393,0.082 0.03785,0.02523 0.05993,0.141928 0.02523,0.116696 0.01577,0.261777 -0.0095,0.145082 -0.05677,0.283856 -0.04416,0.138773 -0.129312,0.211314 -0.07885,0.06308 -0.179775,0.110388 -0.09777,0.04415 -0.195544,0.06308 -0.09462,0.01892 -0.176621,0.0095 -0.07885,-0.0095 -0.11985,-0.04731 z"
         style="font-style:normal;font-variant:normal;font-weight:normal;font-stretch:normal;font-family:AngryBirds;-inkscape-font-specification:AngryBirds;stroke-width:0.16148205"
         id="path855" />
    </g>
    <g
       aria-label="p    q = "
       style="font-style:normal;font-variant:normal;font-weight:normal;font-stretch:normal;font-size:20.68317604px;line-height:1.25;font-family:'URW Gothic L';-inkscape-font-specification:'URW Gothic L';letter-spacing:0px;word-spacing:0px;fill:#000000;fill-opacity:1;stroke:none;stroke-width:0.51707935"
       id="text14-7-1">
      <path
         d="m 41.799804,29.834633 0.121191,-0.504961 q 0.848333,-0.313075 1.939047,-0.545357 1.100814,-0.232282 2.191528,-0.302976 0.282778,-0.0202 0.555457,-0.0101 0.777639,0 1.474484,0.131289 0.939226,0.171687 1.454286,0.666548 0.828135,0.807936 1.121012,1.848155 0.201984,0.706944 0.191885,1.413889 0,0.333274 -0.0404,0.666547 -0.13129,1.050318 -0.63625,2.05014 -0.494861,0.989722 -1.252302,1.716865 -0.25248,0.232281 -0.646349,0.484762 -0.393869,0.242381 -0.878631,0.474662 -0.484762,0.222183 -1.060417,0.424167 -0.565555,0.191885 -1.14121,0.313075 l -0.0202,3.595318 -0.37367,0.13129 -0.414068,-1.161409 -0.828135,1.121012 -0.535258,-0.626151 -0.414067,0.25248 -0.100992,-10.341588 -0.454465,-0.353472 1.242203,-1.282599 z m 3.140854,1.52498 0.111091,4.857718 q 0.515059,-0.181785 0.949325,-0.393869 0.373671,-0.161587 0.717044,-0.333274 0.353472,-0.181785 0.525159,-0.323174 0.434266,-0.393869 0.737242,-0.929127 0.313075,-0.535258 0.403968,-1.090715 0.0303,-0.201984 0.0404,-0.383769 0,-0.343373 -0.111091,-0.656449 -0.161588,-0.494861 -0.696846,-0.828135 -0.25248,-0.151488 -0.666547,-0.161587 -0.0303,0 -0.0505,0.0101 -0.444365,0.0101 -0.878631,0.0505 -0.525159,0.08079 -1.080615,0.181786 z"
         style="font-style:normal;font-variant:normal;font-weight:normal;font-stretch:normal;font-family:AngryBirds;-inkscape-font-specification:AngryBirds;stroke-width:0.51707935"
         id="path778" />
      <path
         d="m 68.522305,36.257728 q 0,-0.908928 0.06059,-1.787559 0.07069,-0.878631 0.25248,-1.676469 0.181786,-0.807936 0.545357,-1.545178 0.363572,-0.737243 0.969524,-1.333096 0.454465,-0.454464 1.15131,-0.676647 0.706944,-0.232281 1.454286,-0.272678 0.181785,-0.0101 0.363571,-0.0202 0.545357,0 1.040218,0.100992 0.666548,0.121191 1.03012,0.373671 0.555456,0.373671 0.969523,0.959425 0.414068,0.585754 0.676647,1.302797 0.26258,0.706945 0.38377,1.474485 0.121191,0.767539 0.121191,1.474484 0,0.414067 0.0101,0.807936 0,0.13129 0.0101,0.26258 0,0.262579 -0.0202,0.535258 -0.0202,0.414067 -0.0505,0.797837 -0.0303,0.38377 -0.111092,0.777639 -0.141389,0.747341 -0.494861,1.494683 -0.353472,0.737242 -1.201805,1.686567 0.333273,0.373671 0.686746,0.757441 0.363571,0.38377 0.535258,0.545357 l -0.272679,0.292877 -0.868532,-0.373671 -0.100992,0.747342 -0.454464,0.0404 q -0.100992,-0.100993 -0.363572,-0.424167 -0.262579,-0.323175 -0.545357,-0.666548 -0.474663,0.141389 -1.030119,0.222183 -0.393869,0.06059 -0.797837,0.06059 l -0.292877,-0.0101 q -0.545357,-0.0303 -1.080615,-0.201984 -0.525159,-0.181786 -0.979624,-0.555457 -0.393869,-0.313075 -0.696845,-0.919028 -0.292877,-0.605952 -0.494861,-1.322996 -0.191885,-0.727143 -0.302976,-1.504782 -0.100992,-0.787738 -0.100992,-1.423988 z m 2.444008,-0.575655 q -0.0101,0.181786 -0.0101,0.363572 0,0.363571 0.0303,0.747341 0.0404,0.565556 0.161588,1.090715 0.131289,0.525158 0.333273,0.989722 0.212084,0.454464 0.51506,0.717044 0.08079,0.08079 0.262579,0.100992 0.191885,0.0202 0.403969,0.0202 0.232281,0 0.494861,-0.0202 l -0.51506,-1.171508 0.535258,0.262579 0.373671,-0.616052 0.323174,0.323175 q 0.222183,0.222183 0.504961,0.484762 0.353472,-0.535258 0.515059,-0.979623 0.161588,-0.454464 0.232282,-0.868532 0.0606,-0.414067 0.0707,-0.737242 0.0101,-0.333274 0.0101,-0.585754 0,-0.373671 -0.0202,-0.838234 -0.0202,-0.464564 -0.09089,-0.939227 -0.0606,-0.474662 -0.181786,-0.898829 -0.121191,-0.424167 -0.333274,-0.706944 -0.232282,-0.272679 -0.616052,-0.444366 -0.37367,-0.181785 -0.797837,-0.191885 -0.0202,0 -0.0505,0 -0.403968,0 -0.777639,0.161588 -0.403968,0.171686 -0.626151,0.575655 -0.313075,0.555456 -0.515059,1.333095 -0.191885,0.777639 -0.232282,1.827956 z"
         style="font-style:normal;font-variant:normal;font-weight:normal;font-stretch:normal;font-family:AngryBirds;-inkscape-font-specification:AngryBirds;stroke-width:0.51707935"
         id="path780" />
      <path
         d="m 83.095461,37.974593 0.868532,-0.575654 -0.535258,-1.03012 5.029405,-0.333273 0.313075,0.616051 -0.807936,0.605953 0.262579,1.030119 -4.938512,0.666547 0.100992,-0.565555 z m 0.0707,-5.079901 0.323174,-0.525159 -0.06059,-0.969523 4.989008,-0.181786 0.0202,0.373671 -0.626151,0.868531 0.626151,0.757441 -0.13129,0.333274 -4.776925,0.535258 0.25248,-0.575655 z"
         style="font-style:normal;font-variant:normal;font-weight:normal;font-stretch:normal;font-family:AngryBirds;-inkscape-font-specification:AngryBirds;stroke-width:0.51707935"
         id="path782" />
    </g>
    <g
       id="g734"
       transform="translate(50.421338,-93.133813)">
      <path
         style="opacity:1;fill:#ffffff;fill-opacity:1;stroke:#ffffff;stroke-width:0.10485733;stroke-linecap:round;stroke-linejoin:round;stroke-miterlimit:4;stroke-dasharray:none;stroke-dashoffset:0;stroke-opacity:1"
         d="m 43.57272,120.11445 h 9.858732 v 17.51068 H 43.57272 Z"
         id="rect847-0" />
      <g
         aria-label="?"
         style="font-style:normal;font-variant:normal;font-weight:normal;font-stretch:normal;font-size:20.05946541px;line-height:1.25;font-family:'URW Gothic L';-inkscape-font-specification:'URW Gothic L';letter-spacing:0px;word-spacing:0px;fill:#00ff00;fill-opacity:1;stroke:#000000;stroke-width:0.1442789;stroke-miterlimit:4;stroke-dasharray:none"
         id="text40-9">
        <path
           d="m 44.326724,122.04293 0.479938,-0.42117 q -0.03918,-0.0588 -0.09795,-0.13712 -0.03918,-0.0588 -0.117536,-0.12733 -0.06856,-0.0784 -0.107742,-0.15672 1.165565,-0.34281 2.321335,-0.44076 1.15577,-0.0979 2.380103,0.0588 0.979466,0.11753 1.743449,0.62686 0.763984,0.49952 1.243922,1.22433 0.479938,0.71501 0.656242,1.57694 0.186099,0.86193 -0.01959,1.72386 -0.156715,0.64645 -0.58768,1.15577 -0.430965,0.50932 -1.067618,0.94029 -0.626858,0.43096 -1.420225,0.79337 -0.793368,0.3624 -1.674887,0.68562 -0.117536,0.34281 -0.205688,0.66604 -0.07836,0.31343 -0.137126,0.61706 -0.05877,0.28405 -0.07836,0.52891 -0.01959,0.23508 -0.05877,0.39179 l -0.303634,0.26446 -0.842341,-0.76399 -0.323224,1.01865 -0.254661,-0.0392 q -0.03918,-0.24487 -0.107741,-0.64645 -0.05877,-0.41137 -0.117536,-0.88152 -0.05877,-0.47994 -0.107742,-0.97946 -0.04897,-0.49953 -0.04897,-0.94029 0.362403,-0.19589 0.86193,-0.44076 0.499528,-0.24487 1.018645,-0.51912 0.705216,-0.40158 1.243922,-0.86193 0.538706,-0.46035 0.685626,-0.93049 0.176304,-0.57789 0.05877,-1.06762 -0.117536,-0.48973 -0.42117,-0.85213 -0.303635,-0.36241 -0.754189,-0.58768 -0.450555,-0.23508 -0.930493,-0.27426 -0.577885,-0.0392 -1.283101,-0.0392 -0.705215,0 -1.469199,0.13712 l 0.783573,-0.82275 z m 0.822751,14.92706 q -0.205688,-0.14692 -0.284045,-0.3526 -0.07836,-0.21549 0,-0.46035 0.07836,-0.25466 0.323224,-0.51912 0.244866,-0.27425 0.685626,-0.53871 0.137125,-0.0784 0.411376,-0.12733 0.284045,-0.049 0.597474,-0.0686 0.313429,-0.0196 0.568091,0 0.264455,0.0196 0.342813,0.0784 0.09795,0.0588 0.195893,0.26445 0.107741,0.1959 0.117536,0.45056 0.0098,0.24487 -0.117536,0.51912 -0.117536,0.26445 -0.470144,0.50932 -0.225277,0.15671 -0.597474,0.22528 -0.372197,0.0784 -0.7346,0.10774 -0.352607,0.0294 -0.656242,0 -0.303634,-0.0294 -0.381992,-0.0882 z"
           style="font-style:normal;font-variant:normal;font-weight:normal;font-stretch:normal;font-family:AngryBirds;-inkscape-font-specification:AngryBirds;fill:#00ff00;stroke:#000000;stroke-width:0.1442789;stroke-miterlimit:4;stroke-dasharray:none"
           id="path775" />
      </g>
    </g>
    <g
       transform="matrix(0.6276263,0,0,0.6276263,52.725338,30.634365)"
       id="ID0.6630116063170135">
      <g
         id="layer1-6">
        <g
           id="text10-7">
          <path
             style="fill:#003fff;stroke:none;stroke-width:2.32666159"
             inkscape:connector-curvature="0"
             id="path9-5"
             d="M -5.574,39.692 -70.757,76.991 V 54.924 L -44.291,39.728 -70.757,24.605 V 2.538 Z"
             transform="matrix(1.5269185e-4,-0.24680784,0.24680784,1.5269185e-4,0.05,-1.3)" />
        </g>
      </g>
    </g>
  </g>
</svg>
