<?xml version="1.0" encoding="UTF-8" standalone="no"?>
<!-- Created with Inkscape (http://www.inkscape.org/) -->

<svg
   xmlns:dc="http://purl.org/dc/elements/1.1/"
   xmlns:cc="http://creativecommons.org/ns#"
   xmlns:rdf="http://www.w3.org/1999/02/22-rdf-syntax-ns#"
   xmlns:svg="http://www.w3.org/2000/svg"
   xmlns="http://www.w3.org/2000/svg"
   xmlns:sodipodi="http://sodipodi.sourceforge.net/DTD/sodipodi-0.dtd"
   xmlns:inkscape="http://www.inkscape.org/namespaces/inkscape"
   width="210mm"
   height="297mm"
   viewBox="0 0 210 297"
   version="1.1"
   id="svg911"
   inkscape:version="0.92.1 r15371"
   sodipodi:docname="106.svg">
  <defs
     id="defs905" />
  <sodipodi:namedview
     id="base"
     pagecolor="#ffffff"
     bordercolor="#666666"
     borderopacity="1.0"
     inkscape:pageopacity="0.0"
     inkscape:pageshadow="2"
     inkscape:zoom="1.4"
     inkscape:cx="98.520666"
     inkscape:cy="974.68089"
     inkscape:document-units="mm"
     inkscape:current-layer="layer1"
     showgrid="false"
     inkscape:window-width="1366"
     inkscape:window-height="704"
     inkscape:window-x="0"
     inkscape:window-y="27"
     inkscape:window-maximized="1" />
  <metadata
     id="metadata908">
    <rdf:RDF>
      <cc:Work
         rdf:about="">
        <dc:format>image/svg+xml</dc:format>
        <dc:type
           rdf:resource="http://purl.org/dc/dcmitype/StillImage" />
        <dc:title />
      </cc:Work>
    </rdf:RDF>
  </metadata>
  <g
     inkscape:label="Camada 1"
     inkscape:groupmode="layer"
     id="layer1">
    <path
       style="opacity:1;fill:#e6e6e6;fill-opacity:1;stroke:#cccccc;stroke-width:0.35642663;stroke-linecap:round;stroke-linejoin:round;stroke-miterlimit:4;stroke-dasharray:none;stroke-dashoffset:0;stroke-opacity:1"
       d="M 8.477808,7.0057955 H 135.15315 V 41.196584 H 8.477808 Z"
       id="rect10" />
    <g
       transform="matrix(0.60814045,0,0,0.60814045,119.61111,21.07865)"
       id="ID0.1613758858293295">
      <g
         id="ID0.04199532698839903">
        <g
           id="ID0.4123793593607843">
          <path
             style="fill:#003fff"
             inkscape:connector-curvature="0"
             id="ID0.6994774197228253"
             d="m 71.96,13.2 c 0,1.65 -0.3,3.3 -0.88,4.93 -1.58,4.67 -5.11,7.97 -9.67,9.25 -0.32,2.11 -0.91,5.63 -2.03,11.87 -0.03,0.14 -0.05,0.28 -0.08,0.42 -0.96,4.34 -2.33,10.95 -4.05,19.65 -0.33,1.97 -0.75,3.88 -1.26,5.67 -0.4,2.16 -0.83,4.3 -1.28,6.39 -0.03,0.15 -0.07,0.31 -0.11,0.46 -1.54,5.89 -5.22,10.23 -10.36,12.22 -0.06,0.02 -0.11,0.04 -0.16,0.06 -2.28,0.84 -4.22,1.23 -6.13,1.23 -2.62,0 -5.07,-0.76 -7.11,-2.21 C 27.15,81.97 25.28,80.43 24.03,77.95 23.54,76.97 23.2,75.92 23.02,74.83 23,74.74 22.91,74.22 22.6,72.96 22.31,72.13 21.61,70.14 20.5,67 20.43,66.79 20.36,66.57 20.3,66.36 19.96,65.18 19.43,63.39 18.71,60.99 17.94,58.65 17.2,56.24 16.49,53.82 15.35,50.27 13.68,44.92 11.41,37.52 10,37.24 8.62,36.8 7.3,36.18 6.48,35.79 5.71,35.31 5,34.73 1.82,32.13 0,28.29 0,24.19 0,18.1 3.67,12.93 9.36,11.03 9.43,11.01 9.49,10.99 9.56,10.97 12.8,9.96 15.62,9.37 18.15,9.2 18.89,9.04 19.73,8.89 20.7,8.74 21.55,8.61 22.42,8.59 23.27,8.66 23.41,8.65 23.77,8.61 24.41,8.48 26.2,8.12 27.54,7.91 28.65,7.81 28.88,7.44 29.13,7.08 29.4,6.74 31.15,4.54 34.46,1.8 40.27,1.19 40.36,1.18 40.45,1.17 40.53,1.16 41.9,1.05 44.01,0.85 46.86,0.57 47.05,0.55 47.25,0.54 47.45,0.53 48.73,0.47 50.45,0.41 52.62,0.36 54.32,0.22 55.41,0.13 55.89,0.08 56.34,0.03 56.8,0 57.26,0 c 9.65,0 14.7,6.64 14.7,13.2 z"
             transform="matrix(0.23988406,0,0,0.23988406,0.25,0)" />
        </g>
      </g>
      <g
         id="ID0.1456912192516029">
        <path
           style="fill:#ffffff"
           inkscape:connector-curvature="0"
           id="ID0.9227194082923234"
           d="m 60.693,14.517 c -0.527,1.643 -1.759,2.463 -3.694,2.463 -0.411,0 -1.231,-0.058 -2.463,-0.176 -0.998,-0.116 -1.759,-0.146 -2.287,-0.088 -0.118,0.06 -0.294,0.176 -0.527,0.352 -0.176,0.88 -0.471,3.05 -0.88,6.51 -0.235,1.994 -0.998,6.567 -2.287,13.722 -0.998,4.516 -2.375,11.201 -4.134,20.055 -0.294,1.818 -0.675,3.519 -1.144,5.102 -0.411,2.229 -0.851,4.429 -1.319,6.598 -0.646,2.463 -1.877,4.046 -3.694,4.75 -1.583,0.585 -2.61,0.703 -3.079,0.352 -0.763,-0.527 -1.202,-0.91 -1.319,-1.144 -0.118,-0.703 -0.352,-1.759 -0.703,-3.166 -0.118,-0.353 -0.88,-2.521 -2.287,-6.51 -0.352,-1.231 -0.91,-3.107 -1.671,-5.63 -0.764,-2.345 -1.496,-4.719 -2.199,-7.124 -1.174,-3.636 -2.962,-9.382 -5.366,-17.24 -0.41,-2.053 -1.114,-4.516 -2.11,-7.389 -2.463,0.587 -4.047,0.879 -4.75,0.879 -0.998,0 -1.936,-0.204 -2.814,-0.615 -0.646,-0.528 -0.968,-1.201 -0.968,-2.023 0,-1.407 0.615,-2.315 1.847,-2.727 2.815,-0.88 5.102,-1.319 6.861,-1.319 0.585,-0.176 1.465,-0.352 2.639,-0.528 1.056,0.118 2.463,0 4.222,-0.352 1.76,-0.352 2.932,-0.527 3.519,-0.527 0.88,0 1.672,0.176 2.375,0.527 0.586,0.528 0.88,1.203 0.88,2.023 0,1.466 -0.704,2.405 -2.111,2.814 -1.29,0.06 -3.05,0.439 -5.277,1.144 0.117,2.054 0.381,3.725 0.792,5.014 0.879,2.639 2.11,6.305 3.694,10.995 0.058,0.587 0.204,1.379 0.439,2.375 1.231,4.692 3.312,11.318 6.245,19.879 0.352,-0.819 0.792,-2.429 1.319,-4.828 0.645,-3.395 1.056,-5.414 1.231,-6.059 1.056,-4.097 1.964,-8.281 2.727,-12.555 1.113,-5.853 1.7,-8.925 1.76,-9.218 0.761,-3.687 1.289,-6.643 1.583,-8.867 0.233,-1.639 0.439,-3.248 0.615,-4.829 -0.059,-0.058 -0.118,-0.116 -0.176,-0.176 -3.988,0.06 -6.157,0.06 -6.509,0 -0.527,0 -1.231,-0.462 -2.111,-1.387 0,-0.058 0.044,-0.145 0.132,-0.26 0.089,-0.115 0.161,-0.203 0.221,-0.261 -0.06,-0.347 -0.03,-0.837 0.088,-1.474 0.645,-0.808 1.788,-1.3 3.431,-1.474 1.407,-0.115 3.576,-0.317 6.509,-0.607 1.289,-0.058 3.048,-0.115 5.277,-0.173 2.814,-0.23 4.163,-0.347 4.046,-0.347 2.463,0 3.694,0.734 3.694,2.199 -0.003,0.412 -0.091,0.852 -0.267,1.32 z"
           transform="matrix(0.23988406,0,0,0.23988406,0.25,0)" />
      </g>
    </g>
    <g
       id="g18"
       transform="matrix(1.442789,0,0,1.442789,13.04536,-151.64295)">
      <path
         style="opacity:1;fill:#ffffff;fill-opacity:1;stroke:#ffffff;stroke-width:0.1;stroke-linecap:round;stroke-linejoin:round;stroke-miterlimit:4;stroke-dasharray:none;stroke-dashoffset:0;stroke-opacity:1"
         d="m 36.947174,116.61086 h 10.583333 v 14.83557 H 36.947174 Z"
         id="rect847" />
      <g
         aria-label="?"
         style="font-style:normal;font-variant:normal;font-weight:normal;font-stretch:normal;font-size:13.90325642px;line-height:1.25;font-family:'URW Gothic L';-inkscape-font-specification:'URW Gothic L';letter-spacing:0px;word-spacing:0px;fill:#00ff00;fill-opacity:1;stroke:#000000;stroke-width:0.1;stroke-miterlimit:4;stroke-dasharray:none"
         id="text40">
        <path
           d="m 39.261911,119.27773 0.332646,-0.29191 q -0.02716,-0.0407 -0.06789,-0.095 -0.02716,-0.0407 -0.08146,-0.0883 -0.04752,-0.0543 -0.07468,-0.10862 0.807855,-0.23761 1.608922,-0.3055 0.801066,-0.0679 1.649654,0.0407 0.67887,0.0815 1.208388,0.43447 0.529519,0.34623 0.862165,0.84859 0.332646,0.49558 0.454843,1.09298 0.128985,0.59741 -0.01358,1.19481 -0.108619,0.44806 -0.407321,0.80107 -0.298703,0.35301 -0.739969,0.65171 -0.434476,0.29871 -0.984361,0.54989 -0.549885,0.25118 -1.160868,0.47521 -0.08146,0.2376 -0.142562,0.46163 -0.05431,0.21724 -0.09504,0.42769 -0.04073,0.19687 -0.05431,0.36659 -0.01358,0.16293 -0.04073,0.27155 l -0.21045,0.18329 -0.583828,-0.52952 -0.224027,0.70603 -0.176506,-0.0272 q -0.02716,-0.16972 -0.07468,-0.44805 -0.04073,-0.28513 -0.08146,-0.61099 -0.04073,-0.33264 -0.07468,-0.67887 -0.03394,-0.34622 -0.03394,-0.65171 0.251181,-0.13577 0.597405,-0.30549 0.346224,-0.16972 0.706025,-0.3598 0.488786,-0.27834 0.862165,-0.59741 0.373378,-0.31907 0.475209,-0.64493 0.122196,-0.40053 0.04073,-0.73996 -0.08146,-0.33944 -0.291914,-0.59062 -0.21045,-0.25118 -0.52273,-0.40732 -0.31228,-0.16293 -0.644927,-0.19009 -0.400533,-0.0272 -0.889319,-0.0272 -0.488786,0 -1.018305,0.095 l 0.543096,-0.57025 z m 0.570251,10.34598 q -0.142563,-0.10183 -0.196873,-0.24439 -0.05431,-0.14935 0,-0.31907 0.05431,-0.17651 0.224027,-0.3598 0.169718,-0.19008 0.475209,-0.37338 0.09504,-0.0543 0.285126,-0.0882 0.196872,-0.034 0.41411,-0.0475 0.217239,-0.0136 0.393745,0 0.183295,0.0136 0.237604,0.0543 0.06789,0.0407 0.135774,0.18329 0.07468,0.13578 0.08146,0.31228 0.0068,0.16972 -0.08146,0.3598 -0.08146,0.1833 -0.325857,0.35301 -0.15614,0.10862 -0.414111,0.15614 -0.25797,0.0543 -0.509152,0.0747 -0.244394,0.0204 -0.454843,0 -0.21045,-0.0204 -0.264759,-0.0611 z"
           style="font-style:normal;font-variant:normal;font-weight:normal;font-stretch:normal;font-family:AngryBirds;-inkscape-font-specification:AngryBirds;fill:#00ff00;stroke:#000000;stroke-width:0.1;stroke-miterlimit:4;stroke-dasharray:none"
           id="path979" />
      </g>
    </g>
    <g
       aria-label="Use um conectivo lógico para completar a expressão:"
       style="font-style:normal;font-variant:normal;font-weight:normal;font-stretch:normal;font-size:5.78488922px;line-height:1.25;font-family:'URW Gothic L';-inkscape-font-specification:'URW Gothic L';letter-spacing:0px;word-spacing:0px;fill:#000000;fill-opacity:1;stroke:none;stroke-width:0.14462222"
       id="text14-2-3">
      <path
         d="m 9.8964838,11.212249 q 0,-0.299414 0.016948,-0.635547 0.019773,-0.336134 0.039545,-0.6383719 0.019773,-0.3050625 0.04237,-0.5423333 0.022597,-0.2372709 0.03672,-0.3530817 l 0.07909,-0.039545 0.12711,0.1666545 0.152531,-0.1553559 0.155356,0.4858403 0.293764,-0.3869774 q -0.02825,0.2203229 -0.05367,0.5140868 -0.02542,0.2937639 -0.04237,0.6185987 -0.01412,0.324835 -0.01695,0.652495 0,0.03955 0,0.07909 0,0.282466 0.01977,0.53386 0.01977,0.28529 0.06214,0.511262 0.04237,0.225972 0.118635,0.336134 0.104512,0.149706 0.225972,0.20055 0.09886,0.04237 0.2062,0.04237 0.0226,0 0.04802,0 0.132759,-0.0113 0.268342,-0.06214 0.135583,-0.05367 0.262693,-0.112986 0,-0.23727 -0.0028,-0.547982 -0.0028,-0.313537 -0.0028,-0.65532 0,-0.341783 -0.0028,-0.68639 -0.0028,-0.347433 -0.0028,-0.6496706 V 9.3592763 9.0203179 l 0.09886,-0.056493 0.254219,0.536684 0.220323,-0.4914896 q 0.04519,0.00565 0.135583,0.016948 0.09039,0.011299 0.152531,0.016948 0,0.155356 0.0028,0.4491199 0.0056,0.2909392 0.0056,0.669443 v 0.8135 q 0,0.434996 -0.0085,0.878467 -0.0056,0.440646 -0.01412,0.861519 -0.0085,0.418049 -0.01977,0.765481 l -0.06779,0.03955 -0.214674,-0.432172 -0.214673,0.386978 -0.183603,-0.04519 -0.02542,-0.237271 q -0.265517,0.138408 -0.539508,0.225973 -0.273992,0.08474 -0.514087,0.110161 -0.107337,0.0113 -0.2062,0.01412 -0.118635,0 -0.220323,-0.01977 -0.186427,-0.03107 -0.259868,-0.118636 -0.197726,-0.225972 -0.305062,-0.793727 -0.1073372,-0.57058 -0.1073372,-1.398203 z"
         style="font-style:normal;font-variant:normal;font-weight:normal;font-stretch:normal;font-family:AngryBirds;-inkscape-font-specification:AngryBirds;stroke-width:0.14462222"
         id="path982" />
      <path
         d="m 13.190029,11.223547 q 0.0226,-0.293764 0.175129,-0.536684 0.155355,-0.24292 0.395451,-0.418048 0.240095,-0.177954 0.533859,-0.2909397 0.296589,-0.1129862 0.604476,-0.146882 0.05932,-0.00847 0.144057,-0.011299 0.0226,0 0.04519,0.00282 0.115811,0.00282 0.197726,0.00847 l 0.0226,0.073441 -0.375679,0.2090247 0.299413,0.144057 -0.127109,0.12146 0.08756,0.16383 q -0.209024,0.01695 -0.412399,0.05649 -0.200551,0.03955 -0.361556,0.110161 -0.15818,0.07062 -0.268342,0.172304 -0.110161,0.09886 -0.132759,0.231622 -0.0056,0.0339 -0.0056,0.06779 0,0.107337 0.07627,0.180778 0.09886,0.09886 0.237271,0.16383 0.07062,0.02825 0.144057,0.05367 0.07626,0.02542 0.149706,0.05084 0.07062,0.0226 0.132759,0.03954 0.06497,0.01695 0.110162,0.02825 0.276816,0.08756 0.432171,0.240095 0.158181,0.152532 0.158181,0.44912 0,0.313537 -0.172304,0.553632 -0.169479,0.240096 -0.533859,0.423698 -0.144057,0.07062 -0.290939,0.118636 -0.146882,0.04802 -0.288115,0.08191 -0.138408,0.03672 -0.262693,0.05367 -0.124284,0.01695 -0.228797,0.02825 l 0.09886,-0.183602 -0.265517,-0.07627 0.115811,-0.172303 -0.09886,-0.104513 q 0.09886,-0.0226 0.217498,-0.04802 0.118635,-0.02825 0.240096,-0.06214 0.110161,-0.0339 0.223147,-0.08192 0.112986,-0.05084 0.203375,-0.118635 0.09321,-0.07062 0.152531,-0.155356 0.06214,-0.08474 0.06214,-0.180778 0,-0.12146 -0.118636,-0.200551 -0.118635,-0.07909 -0.262692,-0.124284 -0.149707,-0.05084 -0.299414,-0.08474 -0.146882,-0.03672 -0.220323,-0.06497 -0.259868,-0.104512 -0.409574,-0.282465 -0.12711,-0.152531 -0.12711,-0.401101 0,-0.03955 0.0028,-0.08192 z"
         style="font-style:normal;font-variant:normal;font-weight:normal;font-stretch:normal;font-family:AngryBirds;-inkscape-font-specification:AngryBirds;stroke-width:0.14462222"
         id="path984" />
      <path
         d="m 15.842378,10.172776 0.07909,-0.1864268 -0.03955,-0.076266 1.655247,-0.1101615 0.05084,0.2259719 -0.358731,0.24857 0.341783,0.104512 -0.04519,0.127109 -0.844571,0.07627 -0.01977,0.889766 0.844571,-0.02825 -0.09604,0.302238 0.166654,0.06779 -0.02825,0.155356 -0.875643,0.08756 0.03672,0.943434 0.872818,-0.0339 -0.05649,0.299413 0.155356,0.07062 -0.06497,0.220323 -1.364307,0.07909 0.0226,-0.293764 -0.353081,0.0226 0.03672,-2.706017 -0.07062,-0.115811 0.248569,-0.214674 z"
         style="font-style:normal;font-variant:normal;font-weight:normal;font-stretch:normal;font-family:AngryBirds;-inkscape-font-specification:AngryBirds;stroke-width:0.14462222"
         id="path986" />
      <path
         d="m 19.141573,12.085066 q 0,-0.324835 0.0028,-0.587527 0.0028,-0.262693 0.01695,-0.508438 0.01412,-0.245745 0.03672,-0.502788 0.0226,-0.257044 0.06497,-0.5649308 l 0.189251,0.076266 0.225973,-0.1723038 0.214673,0.1327587 0.07909,-0.028246 q -0.01695,0.1723038 -0.03672,0.4519448 -0.01977,0.276816 -0.03955,0.581878 -0.01977,0.302238 -0.02825,0.590353 -0.0028,0.124284 -0.0056,0.228796 0,0.141233 0.0085,0.251395 0.02825,0.545158 0.293764,0.69204 0.08756,0.04802 0.20055,0.04802 0.225973,0 0.545158,-0.194901 0.0339,-0.08192 0.05367,-0.234447 0.0226,-0.155355 0.0339,-0.347432 0.0113,-0.194901 0.01695,-0.415224 0.0056,-0.220323 0.0056,-0.44347 0.0056,-0.375679 0.0085,-0.742884 0.0028,-0.37003 0.01412,-0.6185991 l 0.158181,-0.039545 0.194901,0.3926272 0.254218,-0.37003 0.135584,-0.00565 q -0.0056,0.2372708 -0.01412,0.6553193 -0.0056,0.415224 -0.0113,0.923662 -0.0056,0.508437 -0.0056,1.05642 0,0.545158 0.0113,1.033823 l -0.144057,-0.04802 -0.194901,0.169479 -0.214674,-0.141233 -0.169479,0.08192 q -0.0056,-0.02825 -0.01977,-0.07626 -0.01412,-0.05084 -0.05367,-0.155356 -0.172304,0.07626 -0.381328,0.132758 -0.209024,0.05367 -0.409575,0.07344 -0.107337,0.0113 -0.206199,0.0113 -0.08474,0 -0.16383,-0.0085 -0.169479,-0.01695 -0.262693,-0.08756 -0.144057,-0.104512 -0.225972,-0.288115 -0.08191,-0.186427 -0.12146,-0.381328 -0.03955,-0.197726 -0.04802,-0.367205 -0.0085,-0.172304 -0.0085,-0.254219 z"
         style="font-style:normal;font-variant:normal;font-weight:normal;font-stretch:normal;font-family:AngryBirds;-inkscape-font-specification:AngryBirds;stroke-width:0.14462222"
         id="path988" />
      <path
         d="m 22.147003,13.590606 0.177953,-3.7709113 0.180778,-0.076266 0.220323,0.5027879 0.24292,-0.4039251 0.12146,0.1214601 0.101687,-0.087564 0.522561,1.6270002 h 0.09321 l 0.514087,-1.6439482 0.166654,0.1271094 0.225972,-0.1779531 0.197726,0.2824649 0.254219,-0.2316212 0.172304,3.6099062 -0.110162,0.02825 -0.183602,-0.310712 -0.115811,0.288115 -0.104512,-0.09321 -0.144058,0.05932 -0.127109,-1.765408 -0.104512,-0.02825 -0.6073,1.629825 -0.104513,-0.09039 -0.110161,0.04519 -0.596002,-1.528137 -0.09321,-0.0113 -0.12146,1.793654 -0.177954,0.05084 -0.220323,-0.350257 -0.172303,0.432172 z"
         style="font-style:normal;font-variant:normal;font-weight:normal;font-stretch:normal;font-family:AngryBirds;-inkscape-font-specification:AngryBirds;stroke-width:0.14462222"
         id="path990" />
      <path
         d="m 26.776608,11.768705 q 0,-0.166654 0.04802,-0.44347 0.05084,-0.279641 0.15818,-0.564931 0.107337,-0.288114 0.282465,-0.522561 0.177954,-0.234446 0.432172,-0.3163608 0.282466,-0.087564 0.539509,-0.1186354 0.08474,-0.011299 0.177953,-0.00847 0.180778,0 0.375679,0.04237 0.0113,0.016948 0.01695,0.04237 0.0056,0.025422 0.01695,0.04237 l -0.398276,0.1412328 0.276816,0.155356 -0.12146,0.104512 0.04802,0.144057 q -0.07627,0.0056 -0.169479,0.01695 -0.09321,0.0113 -0.186427,0.03107 -0.09039,0.01695 -0.175129,0.03955 -0.08474,0.0226 -0.146882,0.05649 -0.115811,0.05649 -0.197726,0.214673 -0.07909,0.155356 -0.129934,0.341783 -0.04802,0.183603 -0.07344,0.367205 -0.0226,0.180778 -0.0226,0.290939 0,0.09886 0.01412,0.234446 0.01695,0.135584 0.05084,0.282466 0.0339,0.144057 0.09321,0.273991 0.06214,0.129934 0.161005,0.211849 0.05084,0.04519 0.155356,0.07062 0.104512,0.02542 0.231621,0.03955 0.12711,0.0113 0.259868,0.01695 0.135584,0.0056 0.251395,0.0056 -0.0113,0.0113 -0.02542,0.03107 -0.0113,0.01977 -0.02825,0.04802 l 0.12146,0.132759 -0.288114,0.16383 0.316361,0.11581 q -0.0113,0.0452 -0.0226,0.06779 -0.347433,0.07627 -0.69769,0.09604 -0.05084,0.0028 -0.101687,0.0028 -0.288115,0 -0.531035,-0.09886 -0.220323,-0.08756 -0.358731,-0.28529 -0.138408,-0.20055 -0.217498,-0.44912 -0.07627,-0.248569 -0.107337,-0.516911 -0.02825,-0.268342 -0.02825,-0.499964 z"
         style="font-style:normal;font-variant:normal;font-weight:normal;font-stretch:normal;font-family:AngryBirds;-inkscape-font-specification:AngryBirds;stroke-width:0.14462222"
         id="path992" />
      <path
         d="m 29.222759,12.186754 q -0.0113,-0.155356 -0.01412,-0.310712 0,-0.172304 0.01695,-0.344608 0.05649,-0.590352 0.16383,-0.926486 0.107337,-0.336133 0.316361,-0.514087 0.07627,-0.06497 0.192076,-0.1299337 0.118636,-0.067792 0.262693,-0.1158107 0.146882,-0.050844 0.313537,-0.070616 0.07909,-0.00847 0.15818,-0.00847 l 0.177953,0.011299 -0.0113,0.3361341 0.282465,-0.1723042 0.12146,0.1779532 0.192076,-0.07627 q 0.214674,0.220323 0.32766,0.632723 0.115811,0.409574 0.115811,1.005576 0,0.197726 -0.0226,0.432172 -0.0226,0.234446 -0.08192,0.460418 -0.05649,0.223148 -0.152532,0.4124 -0.09604,0.186427 -0.240095,0.290939 -0.203375,0.144057 -0.409575,0.220323 -0.203375,0.07626 -0.398276,0.09604 -0.09039,0.0085 -0.180778,0.0085 -0.09886,0 -0.189251,-0.0113 -0.172304,-0.0226 -0.313537,-0.07626 -0.177953,-0.06497 -0.310712,-0.259868 -0.129934,-0.197726 -0.211849,-0.468893 -0.07909,-0.271166 -0.104512,-0.598826 z m 0.689216,-0.52821 q -0.0085,0.110161 -0.0057,0.217498 0,0.203375 0.02825,0.401101 0.04237,0.299413 0.15818,0.480191 0.05649,0.09321 0.166655,0.141232 0.110161,0.04519 0.234446,0.04519 0.124285,0 0.237271,-0.04237 0.112986,-0.04519 0.172304,-0.138408 0.05649,-0.09321 0.110161,-0.268342 0.05649,-0.177953 0.08756,-0.389802 0.0339,-0.214674 0.03955,-0.446295 0,-0.03107 0,-0.06214 0,-0.197725 -0.0339,-0.381328 -0.03672,-0.211849 -0.124285,-0.378503 -0.08474,-0.166655 -0.231621,-0.254219 -0.09321,-0.05649 -0.217499,-0.05649 -0.0056,0 -0.01412,0 -0.132759,0.0028 -0.228797,0.09039 -0.166654,0.149706 -0.262693,0.437821 -0.09321,0.28529 -0.11581,0.604476 z"
         style="font-style:normal;font-variant:normal;font-weight:normal;font-stretch:normal;font-family:AngryBirds;-inkscape-font-specification:AngryBirds;stroke-width:0.14462222"
         id="path994" />
      <path
         d="m 32.253612,9.9411548 0.254218,-0.1327587 0.203375,0.2118489 0.254219,-0.084739 1.180705,2.1439115 h 0.115811 l -0.0339,-2.1269636 0.149707,-0.087564 0.259868,0.3587309 0.24292,-0.3643802 0.104512,0.016948 -0.0056,3.7144182 -0.06497,0.03955 -0.2062,-0.214674 -0.290939,0.203375 -0.115811,-0.0226 -1.166582,-1.838849 -0.146882,-0.01695 -0.04519,1.867095 -0.166654,-0.0226 -0.225973,-0.307887 -0.169479,0.341783 -0.09886,-0.05084 z"
         style="font-style:normal;font-variant:normal;font-weight:normal;font-stretch:normal;font-family:AngryBirds;-inkscape-font-specification:AngryBirds;stroke-width:0.14462222"
         id="path996" />
      <path
         d="m 35.422871,10.172776 0.07909,-0.1864268 -0.03955,-0.076266 1.655247,-0.1101615 0.05084,0.2259719 -0.358731,0.24857 0.341783,0.104512 -0.04519,0.127109 -0.844571,0.07627 -0.01977,0.889766 0.844571,-0.02825 -0.09604,0.302238 0.166654,0.06779 -0.02825,0.155356 -0.875643,0.08756 0.03672,0.943434 0.872818,-0.0339 -0.05649,0.299413 0.155356,0.07062 -0.06497,0.220323 -1.364307,0.07909 0.0226,-0.293764 -0.353081,0.0226 0.03672,-2.706017 -0.07062,-0.115811 0.248569,-0.214674 z"
         style="font-style:normal;font-variant:normal;font-weight:normal;font-stretch:normal;font-family:AngryBirds;-inkscape-font-specification:AngryBirds;stroke-width:0.14462222"
         id="path998" />
      <path
         d="m 37.521588,11.768705 q 0,-0.166654 0.04802,-0.44347 0.05084,-0.279641 0.158181,-0.564931 0.107337,-0.288114 0.282465,-0.522561 0.177953,-0.234446 0.432172,-0.3163608 0.282466,-0.087564 0.539509,-0.1186354 0.08474,-0.011299 0.177953,-0.00847 0.180778,0 0.375679,0.04237 0.0113,0.016948 0.01695,0.04237 0.0056,0.025422 0.01695,0.04237 l -0.398276,0.1412328 0.276816,0.155356 -0.12146,0.104512 0.04802,0.144057 q -0.07627,0.0056 -0.169479,0.01695 -0.09321,0.0113 -0.186428,0.03107 -0.09039,0.01695 -0.175128,0.03955 -0.08474,0.0226 -0.146882,0.05649 -0.115811,0.05649 -0.197726,0.214673 -0.07909,0.155356 -0.129934,0.341783 -0.04802,0.183603 -0.07344,0.367205 -0.0226,0.180778 -0.0226,0.290939 0,0.09886 0.01412,0.234446 0.01695,0.135584 0.05084,0.282466 0.0339,0.144057 0.09321,0.273991 0.06214,0.129934 0.161005,0.211849 0.05084,0.04519 0.155356,0.07062 0.104512,0.02542 0.231621,0.03955 0.12711,0.0113 0.259868,0.01695 0.135584,0.0056 0.251394,0.0056 -0.0113,0.0113 -0.02542,0.03107 -0.0113,0.01977 -0.02825,0.04802 l 0.12146,0.132759 -0.288114,0.16383 0.316361,0.11581 q -0.0113,0.0452 -0.0226,0.06779 -0.347432,0.07627 -0.697689,0.09604 -0.05084,0.0028 -0.101687,0.0028 -0.288115,0 -0.531035,-0.09886 -0.220323,-0.08756 -0.358731,-0.28529 -0.138408,-0.20055 -0.217498,-0.44912 -0.07627,-0.248569 -0.107337,-0.516911 -0.02825,-0.268342 -0.02825,-0.499964 z"
         style="font-style:normal;font-variant:normal;font-weight:normal;font-stretch:normal;font-family:AngryBirds;-inkscape-font-specification:AngryBirds;stroke-width:0.14462222"
         id="path1000" />
      <path
         d="m 39.87735,10.158653 0.02825,-0.101687 2.285144,-0.1638303 -0.09321,0.1440573 0.16383,0.169479 -0.27964,0.177953 0.27964,0.12146 -0.0226,0.09886 -0.754182,0.05367 -0.03954,2.878321 -0.08757,0.02542 -0.189251,-0.412399 -0.132759,0.353081 -0.141233,-0.144057 -0.166654,0.104512 -0.02825,-2.770985 -0.700514,0.04519 0.02825,-0.104512 -0.09886,-0.07909 0.324835,-0.24292 z"
         style="font-style:normal;font-variant:normal;font-weight:normal;font-stretch:normal;font-family:AngryBirds;-inkscape-font-specification:AngryBirds;stroke-width:0.14462222"
         id="path1002" />
      <path
         d="M 42.665284,13.491744 V 9.8931357 l 0.127109,-0.045195 0.192076,0.4519448 0.24292,-0.4349969 0.172304,0.093214 0.16383,-0.059318 -0.09886,3.657926 -0.07062,0.0226 -0.24292,-0.347433 -0.166655,0.305063 -0.149706,-0.05649 z"
         style="font-style:normal;font-variant:normal;font-weight:normal;font-stretch:normal;font-family:AngryBirds;-inkscape-font-specification:AngryBirds;stroke-width:0.14462222"
         id="path1004" />
      <path
         d="m 43.910953,9.8479412 0.09321,-0.039545 0.259868,0.4717169 0.104512,-0.4152239 0.166654,0.1158108 0.12711,-0.1610052 0.536684,2.8274773 0.104512,-0.02825 0.700514,-2.7822834 0.09886,0.045195 0.172304,-0.098863 0.152531,0.4180488 0.32201,-0.3530818 0.03672,0.028247 -1.042297,3.6918212 -0.12711,-0.0113 -0.161005,-0.225973 -0.268342,0.24857 -0.09604,-0.01695 -0.24292,-0.330485 -0.135584,0.282466 -0.08474,-0.0339 z"
         style="font-style:normal;font-variant:normal;font-weight:normal;font-stretch:normal;font-family:AngryBirds;-inkscape-font-specification:AngryBirds;stroke-width:0.14462222"
         id="path1006" />
      <path
         d="m 46.995474,12.186754 q -0.0113,-0.155356 -0.01412,-0.310712 0,-0.172304 0.01695,-0.344608 0.05649,-0.590352 0.163829,-0.926486 0.107337,-0.336133 0.316362,-0.514087 0.07626,-0.06497 0.192076,-0.1299337 0.118635,-0.067792 0.262693,-0.1158107 0.146882,-0.050844 0.313536,-0.070616 0.07909,-0.00847 0.158181,-0.00847 l 0.177953,0.011299 -0.0113,0.3361341 0.282466,-0.1723042 0.12146,0.1779532 0.192076,-0.07627 q 0.214674,0.220323 0.32766,0.632723 0.115811,0.409574 0.115811,1.005576 0,0.197726 -0.0226,0.432172 -0.0226,0.234446 -0.08191,0.460418 -0.05649,0.223148 -0.152531,0.4124 -0.09604,0.186427 -0.240095,0.290939 -0.203375,0.144057 -0.409575,0.220323 -0.203375,0.07626 -0.398276,0.09604 -0.09039,0.0085 -0.180778,0.0085 -0.09886,0 -0.189252,-0.0113 -0.172304,-0.0226 -0.313536,-0.07626 -0.177953,-0.06497 -0.310712,-0.259868 -0.129934,-0.197726 -0.211849,-0.468893 -0.07909,-0.271166 -0.104512,-0.598826 z m 0.689215,-0.52821 q -0.0085,0.110161 -0.0056,0.217498 0,0.203375 0.02825,0.401101 0.04237,0.299413 0.158181,0.480191 0.05649,0.09321 0.166655,0.141232 0.110161,0.04519 0.234446,0.04519 0.124284,0 0.237271,-0.04237 0.112986,-0.04519 0.172303,-0.138408 0.05649,-0.09321 0.110162,-0.268342 0.05649,-0.177953 0.08756,-0.389802 0.0339,-0.214674 0.03954,-0.446295 0,-0.03107 0,-0.06214 0,-0.197725 -0.0339,-0.381328 -0.03672,-0.211849 -0.124284,-0.378503 -0.08474,-0.166655 -0.231622,-0.254219 -0.09321,-0.05649 -0.217498,-0.05649 -0.0056,0 -0.01412,0 -0.132759,0.0028 -0.228797,0.09039 -0.166655,0.149706 -0.262693,0.437821 -0.09321,0.28529 -0.115811,0.604476 z"
         style="font-style:normal;font-variant:normal;font-weight:normal;font-stretch:normal;font-family:AngryBirds;-inkscape-font-specification:AngryBirds;stroke-width:0.14462222"
         id="path1008" />
      <path
         d="m 51.271998,10.014596 0.110162,0.01695 0.161005,-0.1158111 0.169479,0.2852901 0.299413,-0.4011009 0.09321,0.031071 -0.09886,3.1127677 h 0.954733 l -0.237271,0.20055 0.324835,0.12711 -0.16383,0.197725 0.05932,0.08192 -1.302165,0.09604 -0.05084,-0.316361 -0.307887,0.04519 z"
         style="font-style:normal;font-variant:normal;font-weight:normal;font-stretch:normal;font-family:AngryBirds;-inkscape-font-specification:AngryBirds;stroke-width:0.14462222"
         id="path1010" />
      <path
         d="m 53.528899,12.78558 q -0.07909,-0.271166 -0.107337,-0.596001 -0.02542,-0.32766 0.0056,-0.658145 0.05649,-0.590352 0.16383,-0.926486 0.107336,-0.336133 0.316361,-0.514087 0.07626,-0.06497 0.192076,-0.1299337 0.118635,-0.067792 0.262693,-0.1158107 0.146882,-0.050844 0.313536,-0.070616 0.166655,-0.019773 0.336134,0.00282 l -0.0113,0.3361341 0.282466,-0.1723042 0.12146,0.1779532 0.192076,-0.07627 q 0.214674,0.220323 0.32766,0.632723 0.115811,0.409574 0.115811,1.005576 0,0.197726 -0.0226,0.432172 -0.0226,0.234446 -0.08192,0.460418 -0.05649,0.223148 -0.152531,0.4124 -0.09604,0.186427 -0.240095,0.290939 -0.203375,0.144057 -0.409575,0.220323 -0.203375,0.07626 -0.401101,0.09604 -0.194901,0.01977 -0.370029,-0.0028 -0.172304,-0.0226 -0.310712,-0.07626 -0.177953,-0.06497 -0.310712,-0.259868 -0.129934,-0.197726 -0.211849,-0.468893 z m 0.703339,-1.731512 q -0.09321,0.28529 -0.118636,0.604476 -0.0226,0.319186 0.01977,0.621423 0.04519,0.299414 0.161005,0.477367 0.05649,0.09321 0.166655,0.141232 0.110161,0.04519 0.234446,0.04519 0.124285,0 0.237271,-0.04237 0.112986,-0.04519 0.172303,-0.138408 0.05649,-0.09321 0.110162,-0.268342 0.05649,-0.177953 0.08756,-0.389802 0.0339,-0.214674 0.03954,-0.446295 0.0057,-0.231622 -0.0339,-0.443471 -0.03672,-0.211849 -0.124285,-0.378503 -0.08474,-0.166655 -0.231622,-0.254219 -0.09886,-0.05649 -0.231621,-0.05367 -0.132759,0.0028 -0.228797,0.08756 -0.166655,0.149706 -0.259868,0.437821 z m 0.155356,-1.6863178 0.646845,-0.9942778 0.132759,-0.011299 -0.03954,0.2287969 0.347432,-0.028247 -0.03672,0.138408 0.12146,0.053668 -0.768306,0.6807414 -0.138408,-0.138408 -0.203375,0.1271094 z"
         style="font-style:normal;font-variant:normal;font-weight:normal;font-stretch:normal;font-family:AngryBirds;-inkscape-font-specification:AngryBirds;stroke-width:0.14462222"
         id="path1012" />
      <path
         d="m 56.410045,12.152858 q -0.01412,-0.132759 -0.01412,-0.268342 0,-0.138408 0.01412,-0.28529 0.0339,-0.353082 0.09604,-0.632722 0.06497,-0.279641 0.175129,-0.488665 0.110161,-0.209024 0.282465,-0.347432 0.175128,-0.1384085 0.434997,-0.2203234 0.254218,-0.081915 0.494314,-0.093214 0.05649,-0.00282 0.115811,-0.00565 0.186427,0 0.384152,0.03672 l 0.03672,0.067792 -0.307887,0.1158111 0.237271,0.220323 -0.155356,0.104512 0.07909,0.149706 q -0.09321,0.0056 -0.2062,0.01695 -0.110161,0.0085 -0.223147,0.03107 -0.112986,0.0226 -0.211849,0.05367 -0.09886,0.03107 -0.161006,0.08474 -0.144057,0.115811 -0.234446,0.364381 -0.09039,0.248569 -0.110161,0.536684 -0.0057,0.08192 -0.0057,0.16383 0,0.206199 0.03672,0.409574 0.05084,0.282466 0.186427,0.474542 0.07062,0.09321 0.169479,0.144057 0.101688,0.04802 0.217499,0.06214 0.05367,0.0056 0.104512,0.0056 l 0.127109,-0.0085 q 0.115811,-0.01695 0.214674,-0.05932 0.0113,-0.293764 0.0226,-0.56493 0.0085,-0.180778 0.0056,-0.341783 0,-0.07909 0,-0.152532 l 0.110162,-0.07344 0.189251,0.347433 0.225973,-0.336134 0.07626,-0.0226 q -0.0085,0.299413 -0.0085,0.618599 0,0.15818 0.0028,0.324835 0.0056,0.49149 0.01695,0.988628 l -0.203375,0.06779 -0.155356,-0.305062 -0.254219,0.209024 q 0,-0.02825 -0.0028,-0.06497 -0.0028,-0.03955 -0.01977,-0.104512 -0.344608,0.112986 -0.629898,0.112986 -0.06497,0 -0.127109,-0.0056 -0.333309,-0.03107 -0.516911,-0.180778 -0.121461,-0.09886 -0.228797,-0.268342 -0.107337,-0.172304 -0.180778,-0.395452 -0.07062,-0.223147 -0.09886,-0.48584 z"
         style="font-style:normal;font-variant:normal;font-weight:normal;font-stretch:normal;font-family:AngryBirds;-inkscape-font-specification:AngryBirds;stroke-width:0.14462222"
         id="path1014" />
      <path
         d="M 59.217747,13.491744 V 9.8931357 l 0.127109,-0.045195 0.192077,0.4519448 0.24292,-0.4349969 0.172304,0.093214 0.16383,-0.059318 -0.09886,3.657926 -0.07062,0.0226 -0.242921,-0.347433 -0.166654,0.305063 -0.149707,-0.05649 z"
         style="font-style:normal;font-variant:normal;font-weight:normal;font-stretch:normal;font-family:AngryBirds;-inkscape-font-specification:AngryBirds;stroke-width:0.14462222"
         id="path1016" />
      <path
         d="m 60.514264,11.768705 q 0,-0.166654 0.04802,-0.44347 0.05084,-0.279641 0.158181,-0.564931 0.107337,-0.288114 0.282465,-0.522561 0.177953,-0.234446 0.432172,-0.3163608 0.282465,-0.087564 0.539509,-0.1186354 0.08474,-0.011299 0.177953,-0.00847 0.180778,0 0.375679,0.04237 0.0113,0.016948 0.01695,0.04237 0.0056,0.025422 0.01695,0.04237 l -0.398277,0.1412328 0.276816,0.155356 -0.12146,0.104512 0.04802,0.144057 q -0.07626,0.0056 -0.169479,0.01695 -0.09321,0.0113 -0.186427,0.03107 -0.09039,0.01695 -0.175128,0.03955 -0.08474,0.0226 -0.146882,0.05649 -0.115811,0.05649 -0.197726,0.214673 -0.07909,0.155356 -0.129934,0.341783 -0.04802,0.183603 -0.07344,0.367205 -0.0226,0.180778 -0.0226,0.290939 0,0.09886 0.01412,0.234446 0.01695,0.135584 0.05084,0.282466 0.0339,0.144057 0.09321,0.273991 0.06214,0.129934 0.161006,0.211849 0.05084,0.04519 0.155356,0.07062 0.104512,0.02542 0.231621,0.03955 0.127109,0.0113 0.259868,0.01695 0.135583,0.0056 0.251394,0.0056 -0.0113,0.0113 -0.02542,0.03107 -0.0113,0.01977 -0.02825,0.04802 l 0.12146,0.132759 -0.288115,0.16383 0.316361,0.11581 q -0.0113,0.0452 -0.0226,0.06779 -0.347432,0.07627 -0.697689,0.09604 -0.05084,0.0028 -0.101688,0.0028 -0.288114,0 -0.531034,-0.09886 -0.220323,-0.08756 -0.358731,-0.28529 -0.138408,-0.20055 -0.217499,-0.44912 -0.07626,-0.248569 -0.107336,-0.516911 -0.02825,-0.268342 -0.02825,-0.499964 z"
         style="font-style:normal;font-variant:normal;font-weight:normal;font-stretch:normal;font-family:AngryBirds;-inkscape-font-specification:AngryBirds;stroke-width:0.14462222"
         id="path1018" />
      <path
         d="m 62.960413,12.186754 q -0.0113,-0.155356 -0.01412,-0.310712 0,-0.172304 0.01695,-0.344608 0.05649,-0.590352 0.16383,-0.926486 0.107336,-0.336133 0.316361,-0.514087 0.07626,-0.06497 0.192076,-0.1299337 0.118635,-0.067792 0.262693,-0.1158107 0.146882,-0.050844 0.313536,-0.070616 0.07909,-0.00847 0.158181,-0.00847 l 0.177953,0.011299 -0.0113,0.3361341 0.282466,-0.1723042 0.12146,0.1779532 0.192076,-0.07627 q 0.214674,0.220323 0.32766,0.632723 0.115811,0.409574 0.115811,1.005576 0,0.197726 -0.0226,0.432172 -0.0226,0.234446 -0.08191,0.460418 -0.05649,0.223148 -0.152531,0.4124 -0.09604,0.186427 -0.240095,0.290939 -0.203375,0.144057 -0.409575,0.220323 -0.203375,0.07626 -0.398276,0.09604 -0.09039,0.0085 -0.180778,0.0085 -0.09886,0 -0.189252,-0.0113 -0.172303,-0.0226 -0.313536,-0.07626 -0.177953,-0.06497 -0.310712,-0.259868 -0.129934,-0.197726 -0.211849,-0.468893 -0.07909,-0.271166 -0.104512,-0.598826 z m 0.689215,-0.52821 q -0.0085,0.110161 -0.0056,0.217498 0,0.203375 0.02825,0.401101 0.04237,0.299413 0.15818,0.480191 0.05649,0.09321 0.166655,0.141232 0.110161,0.04519 0.234446,0.04519 0.124285,0 0.237271,-0.04237 0.112986,-0.04519 0.172303,-0.138408 0.05649,-0.09321 0.110162,-0.268342 0.05649,-0.177953 0.08756,-0.389802 0.0339,-0.214674 0.03955,-0.446295 0,-0.03107 0,-0.06214 0,-0.197725 -0.0339,-0.381328 -0.03672,-0.211849 -0.124285,-0.378503 -0.08474,-0.166655 -0.231622,-0.254219 -0.09321,-0.05649 -0.217498,-0.05649 -0.0056,0 -0.01412,0 -0.132759,0.0028 -0.228797,0.09039 -0.166655,0.149706 -0.262693,0.437821 -0.09321,0.28529 -0.115811,0.604476 z"
         style="font-style:normal;font-variant:normal;font-weight:normal;font-stretch:normal;font-family:AngryBirds;-inkscape-font-specification:AngryBirds;stroke-width:0.14462222"
         id="path1020" />
      <path
         d="m 67.016614,10.051316 0.0339,-0.1412324 q 0.237271,-0.087564 0.542333,-0.1525313 0.307888,-0.064967 0.61295,-0.08474 0.07909,-0.00565 0.155356,-0.00282 0.217498,0 0.412399,0.036721 0.262693,0.048019 0.40675,0.1864271 0.231622,0.2259723 0.313537,0.5169113 0.05649,0.197726 0.05367,0.395452 0,0.09321 -0.0113,0.186427 -0.03672,0.293764 -0.177953,0.573404 -0.138408,0.276816 -0.350257,0.480191 -0.07062,0.06497 -0.180778,0.135584 -0.110162,0.06779 -0.245745,0.132758 -0.135583,0.06214 -0.296589,0.118636 -0.15818,0.05367 -0.319185,0.08756 l -0.0057,1.005576 -0.104512,0.03672 -0.115811,-0.324835 -0.231621,0.313536 -0.149707,-0.175128 -0.115811,0.07062 -0.02825,-2.892445 -0.127109,-0.09886 0.347432,-0.358731 z m 0.878467,0.426523 0.03107,1.358658 q 0.144058,-0.05084 0.265518,-0.110162 0.104512,-0.04519 0.20055,-0.09321 0.09886,-0.05084 0.146882,-0.09039 0.12146,-0.110161 0.2062,-0.259868 0.08756,-0.149707 0.112986,-0.305063 0.0085,-0.05649 0.0113,-0.107336 0,-0.09604 -0.03107,-0.183603 -0.04519,-0.138408 -0.194901,-0.231621 -0.07062,-0.04237 -0.186427,-0.04519 -0.0085,0 -0.01412,0.0028 -0.124285,0.0028 -0.245745,0.01412 -0.146882,0.0226 -0.302238,0.05084 z"
         style="font-style:normal;font-variant:normal;font-weight:normal;font-stretch:normal;font-family:AngryBirds;-inkscape-font-specification:AngryBirds;stroke-width:0.14462222"
         id="path1022" />
      <path
         d="m 69.423218,13.446549 0.745709,-3.5703612 0.231621,0.070616 0.211849,-0.1864271 0.319186,0.392627 0.180778,-0.3530819 0.20055,0.1214601 0.186427,-0.1073368 0.675092,3.6551006 -0.127109,-0.08756 -0.211849,0.12146 -0.16383,-0.209024 -0.155356,0.15818 -0.214673,-0.782428 -1.076193,0.08756 -0.2062,0.788078 -0.05932,0.0226 -0.183602,-0.231621 -0.231622,0.183602 z m 0.946259,-1.347359 0.827623,-0.07627 -0.288114,-1.296516 -0.24292,0.01695 z"
         style="font-style:normal;font-variant:normal;font-weight:normal;font-stretch:normal;font-family:AngryBirds;-inkscape-font-specification:AngryBirds;stroke-width:0.14462222"
         id="path1024" />
      <path
         d="m 72.400405,10.042842 0.01977,-0.1073365 q 0.319186,-0.1045122 0.638371,-0.1581806 0.322011,-0.056493 0.621424,-0.059318 0.01695,0 0.03107,0 0.282466,0 0.52821,0.048019 0.257044,0.050844 0.446296,0.1751285 0.172303,0.1101612 0.273991,0.2768162 0.104512,0.166654 0.124285,0.375679 0.0056,0.05084 0.0056,0.107336 0,0.161006 -0.04802,0.341783 -0.06214,0.240096 -0.214674,0.488665 -0.02825,0.05084 -0.08756,0.12711 -0.05932,0.07627 -0.129934,0.16383 -0.06779,0.08474 -0.149707,0.169479 -0.07909,0.08191 -0.155356,0.146882 0.07062,0.166654 0.149707,0.353081 0.08191,0.183603 0.158181,0.355907 0.07909,0.169479 0.149706,0.313536 0.07062,0.141233 0.110162,0.220323 l -0.03955,0.04237 -0.336133,-0.186427 -0.01695,0.288114 -0.115811,-0.05084 -0.104512,0.07062 -0.700514,-1.081842 -0.36438,0.144057 -0.02825,0.867169 -0.09321,-0.0113 -0.192077,-0.302238 -0.149706,0.389802 -0.104512,-0.04237 q -0.0057,-0.172303 -0.01977,-0.494314 -0.01412,-0.32201 -0.02542,-0.700514 -0.0113,-0.378503 -0.0113,-0.768305 0,-0.389802 0.0226,-0.708988 l 0.01695,-0.225972 -0.183603,-0.132759 0.305063,-0.276816 z m 0.833273,1.819077 q 0.209024,-0.08192 0.429347,-0.220323 0.220323,-0.138408 0.381328,-0.302238 0.161006,-0.166655 0.234447,-0.344608 0.0339,-0.07909 0.0339,-0.15818 0,-0.09321 -0.04802,-0.183603 -0.05084,-0.09321 -0.217498,-0.118635 -0.135583,-0.0226 -0.279641,-0.0226 -0.03107,0 -0.06497,0 -0.209024,0.0113 -0.457593,0.05367 z"
         style="font-style:normal;font-variant:normal;font-weight:normal;font-stretch:normal;font-family:AngryBirds;-inkscape-font-specification:AngryBirds;stroke-width:0.14462222"
         id="path1026" />
      <path
         d="m 75.264603,13.446549 0.745709,-3.5703612 0.231621,0.070616 0.211849,-0.1864271 0.319186,0.392627 0.180778,-0.3530819 0.20055,0.1214601 0.186427,-0.1073368 0.675092,3.6551006 -0.127109,-0.08756 -0.211849,0.12146 -0.16383,-0.209024 -0.155356,0.15818 -0.214674,-0.782428 -1.076192,0.08756 -0.2062,0.788078 -0.05932,0.0226 -0.183602,-0.231621 -0.231622,0.183602 z m 0.946259,-1.347359 0.827623,-0.07627 -0.288114,-1.296516 -0.24292,0.01695 z"
         style="font-style:normal;font-variant:normal;font-weight:normal;font-stretch:normal;font-family:AngryBirds;-inkscape-font-specification:AngryBirds;stroke-width:0.14462222"
         id="path1028" />
      <path
         d="m 79.360345,11.768705 q 0,-0.166654 0.04802,-0.44347 0.05084,-0.279641 0.158181,-0.564931 0.107336,-0.288114 0.282465,-0.522561 0.177953,-0.234446 0.432172,-0.3163608 0.282465,-0.087564 0.539508,-0.1186354 0.08474,-0.011299 0.177954,-0.00847 0.180777,0 0.375678,0.04237 0.0113,0.016948 0.01695,0.04237 0.0056,0.025422 0.01695,0.04237 l -0.398276,0.1412328 0.276816,0.155356 -0.12146,0.104512 0.04802,0.144057 q -0.07627,0.0056 -0.169479,0.01695 -0.09321,0.0113 -0.186427,0.03107 -0.09039,0.01695 -0.175129,0.03955 -0.08474,0.0226 -0.146881,0.05649 -0.115811,0.05649 -0.197726,0.214673 -0.07909,0.155356 -0.129934,0.341783 -0.04802,0.183603 -0.07344,0.367205 -0.0226,0.180778 -0.0226,0.290939 0,0.09886 0.01412,0.234446 0.01695,0.135584 0.05084,0.282466 0.0339,0.144057 0.09321,0.273991 0.06214,0.129934 0.161005,0.211849 0.05084,0.04519 0.155356,0.07062 0.104512,0.02542 0.231622,0.03955 0.127109,0.0113 0.259868,0.01695 0.135583,0.0056 0.251394,0.0056 -0.0113,0.0113 -0.02542,0.03107 -0.0113,0.01977 -0.02825,0.04802 l 0.12146,0.132759 -0.288115,0.16383 0.316361,0.11581 q -0.0113,0.0452 -0.0226,0.06779 -0.347432,0.07627 -0.697689,0.09604 -0.05084,0.0028 -0.101688,0.0028 -0.288114,0 -0.531035,-0.09886 -0.220322,-0.08756 -0.35873,-0.28529 -0.138408,-0.20055 -0.217499,-0.44912 -0.07627,-0.248569 -0.107337,-0.516911 -0.02825,-0.268342 -0.02825,-0.499964 z"
         style="font-style:normal;font-variant:normal;font-weight:normal;font-stretch:normal;font-family:AngryBirds;-inkscape-font-specification:AngryBirds;stroke-width:0.14462222"
         id="path1030" />
      <path
         d="m 81.806498,12.186754 q -0.0113,-0.155356 -0.01412,-0.310712 0,-0.172304 0.01695,-0.344608 0.05649,-0.590352 0.16383,-0.926486 0.107337,-0.336133 0.316361,-0.514087 0.07627,-0.06497 0.192077,-0.1299337 0.118635,-0.067792 0.262692,-0.1158107 0.146882,-0.050844 0.313537,-0.070616 0.07909,-0.00847 0.15818,-0.00847 l 0.177954,0.011299 -0.0113,0.3361341 0.282465,-0.1723042 0.12146,0.1779532 0.192077,-0.07627 q 0.214673,0.220323 0.327659,0.632723 0.115811,0.409574 0.115811,1.005576 0,0.197726 -0.0226,0.432172 -0.0226,0.234446 -0.08191,0.460418 -0.05649,0.223148 -0.152531,0.4124 -0.09604,0.186427 -0.240096,0.290939 -0.203375,0.144057 -0.409574,0.220323 -0.203375,0.07626 -0.398276,0.09604 -0.09039,0.0085 -0.180778,0.0085 -0.09886,0 -0.189252,-0.0113 -0.172304,-0.0226 -0.313536,-0.07626 -0.177954,-0.06497 -0.310712,-0.259868 -0.129934,-0.197726 -0.211849,-0.468893 -0.07909,-0.271166 -0.104512,-0.598826 z m 0.689215,-0.52821 q -0.0085,0.110161 -0.0056,0.217498 0,0.203375 0.02825,0.401101 0.04237,0.299413 0.158181,0.480191 0.05649,0.09321 0.166654,0.141232 0.110162,0.04519 0.234446,0.04519 0.124285,0 0.237271,-0.04237 0.112986,-0.04519 0.172304,-0.138408 0.05649,-0.09321 0.110162,-0.268342 0.05649,-0.177953 0.08756,-0.389802 0.0339,-0.214674 0.03954,-0.446295 0,-0.03107 0,-0.06214 0,-0.197725 -0.0339,-0.381328 -0.03672,-0.211849 -0.124285,-0.378503 -0.08474,-0.166655 -0.231621,-0.254219 -0.09321,-0.05649 -0.217498,-0.05649 -0.0057,0 -0.01412,0 -0.132758,0.0028 -0.228797,0.09039 -0.166654,0.149706 -0.262692,0.437821 -0.09321,0.28529 -0.115811,0.604476 z"
         style="font-style:normal;font-variant:normal;font-weight:normal;font-stretch:normal;font-family:AngryBirds;-inkscape-font-specification:AngryBirds;stroke-width:0.14462222"
         id="path1032" />
      <path
         d="m 84.786506,13.590606 0.177953,-3.7709113 0.180778,-0.076266 0.220323,0.5027879 0.24292,-0.4039251 0.12146,0.1214601 0.101688,-0.087564 0.522561,1.6270002 h 0.09321 l 0.514087,-1.6439482 0.166655,0.1271094 0.225972,-0.1779531 0.197726,0.2824649 0.254218,-0.2316212 0.172304,3.6099062 -0.110161,0.02825 -0.183603,-0.310712 -0.115811,0.288115 -0.104512,-0.09321 -0.144057,0.05932 -0.127109,-1.765408 -0.104513,-0.02825 -0.6073,1.629825 -0.104512,-0.09039 -0.110162,0.04519 -0.596001,-1.528137 -0.09321,-0.0113 -0.12146,1.793654 -0.177953,0.05084 -0.220323,-0.350257 -0.172304,0.432172 z"
         style="font-style:normal;font-variant:normal;font-weight:normal;font-stretch:normal;font-family:AngryBirds;-inkscape-font-specification:AngryBirds;stroke-width:0.14462222"
         id="path1034" />
      <path
         d="m 88.258008,10.051316 0.0339,-0.1412324 q 0.237271,-0.087564 0.542333,-0.1525313 0.307888,-0.064967 0.61295,-0.08474 0.07909,-0.00565 0.155356,-0.00282 0.217498,0 0.412399,0.036721 0.262693,0.048019 0.40675,0.1864271 0.231622,0.2259723 0.313537,0.5169113 0.05649,0.197726 0.05367,0.395452 0,0.09321 -0.0113,0.186427 -0.03672,0.293764 -0.177953,0.573404 -0.138408,0.276816 -0.350257,0.480191 -0.07062,0.06497 -0.180778,0.135584 -0.110162,0.06779 -0.245745,0.132758 -0.135583,0.06214 -0.296589,0.118636 -0.15818,0.05367 -0.319185,0.08756 l -0.0057,1.005576 -0.104512,0.03672 -0.115811,-0.324835 -0.231621,0.313536 -0.149707,-0.175128 -0.11581,0.07062 -0.02825,-2.892445 -0.127109,-0.09886 0.347432,-0.358731 z m 0.878467,0.426523 0.03107,1.358658 q 0.144057,-0.05084 0.265517,-0.110162 0.104512,-0.04519 0.20055,-0.09321 0.09886,-0.05084 0.146882,-0.09039 0.12146,-0.110161 0.2062,-0.259868 0.08756,-0.149707 0.112986,-0.305063 0.0085,-0.05649 0.0113,-0.107336 0,-0.09604 -0.03107,-0.183603 -0.04519,-0.138408 -0.194901,-0.231621 -0.07062,-0.04237 -0.186427,-0.04519 -0.0085,0 -0.01412,0.0028 -0.124285,0.0028 -0.245745,0.01412 -0.146882,0.0226 -0.302238,0.05084 z"
         style="font-style:normal;font-variant:normal;font-weight:normal;font-stretch:normal;font-family:AngryBirds;-inkscape-font-specification:AngryBirds;stroke-width:0.14462222"
         id="path1036" />
      <path
         d="m 91.325575,10.014596 0.110162,0.01695 0.161005,-0.1158111 0.169479,0.2852901 0.299414,-0.4011009 0.09321,0.031071 -0.09886,3.1127677 h 0.954733 l -0.237271,0.20055 0.324835,0.12711 -0.16383,0.197725 0.05932,0.08192 -1.302165,0.09604 -0.05084,-0.316361 -0.307887,0.04519 z"
         style="font-style:normal;font-variant:normal;font-weight:normal;font-stretch:normal;font-family:AngryBirds;-inkscape-font-specification:AngryBirds;stroke-width:0.14462222"
         id="path1038" />
      <path
         d="m 93.463837,10.172776 0.07909,-0.1864268 -0.03955,-0.076266 1.655247,-0.1101615 0.05084,0.2259719 -0.358731,0.24857 0.341783,0.104512 -0.0452,0.127109 -0.844571,0.07627 -0.01977,0.889766 0.844571,-0.02825 -0.09604,0.302238 0.166654,0.06779 -0.02825,0.155356 -0.875643,0.08756 0.03672,0.943434 0.872818,-0.0339 -0.05649,0.299413 0.155356,0.07062 -0.06497,0.220323 -1.364307,0.07909 0.0226,-0.293764 -0.353081,0.0226 0.03672,-2.706017 -0.07062,-0.115811 0.248569,-0.214674 z"
         style="font-style:normal;font-variant:normal;font-weight:normal;font-stretch:normal;font-family:AngryBirds;-inkscape-font-specification:AngryBirds;stroke-width:0.14462222"
         id="path1040" />
      <path
         d="m 95.534308,10.158653 0.02825,-0.101687 2.285145,-0.1638303 -0.09321,0.1440573 0.16383,0.169479 -0.279641,0.177953 0.279641,0.12146 -0.0226,0.09886 -0.754183,0.05367 -0.03955,2.878321 -0.08756,0.02542 -0.189252,-0.412399 -0.132758,0.353081 -0.141233,-0.144057 -0.166655,0.104512 -0.02825,-2.770985 -0.700514,0.04519 0.02825,-0.104512 -0.09886,-0.07909 0.324835,-0.24292 z"
         style="font-style:normal;font-variant:normal;font-weight:normal;font-stretch:normal;font-family:AngryBirds;-inkscape-font-specification:AngryBirds;stroke-width:0.14462222"
         id="path1042" />
      <path
         d="m 97.861825,13.446549 0.745708,-3.5703612 0.231622,0.070616 0.211848,-0.1864271 0.319186,0.392627 0.180778,-0.3530819 0.20055,0.1214601 0.186428,-0.1073368 0.675095,3.6551006 -0.12711,-0.08756 -0.21185,0.12146 -0.16383,-0.209024 -0.155358,0.15818 -0.214673,-0.782428 -1.076193,0.08756 -0.2062,0.788078 -0.05932,0.0226 -0.183603,-0.231621 -0.231621,0.183602 z m 0.946258,-1.347359 0.827624,-0.07627 -0.288115,-1.296516 -0.24292,0.01695 z"
         style="font-style:normal;font-variant:normal;font-weight:normal;font-stretch:normal;font-family:AngryBirds;-inkscape-font-specification:AngryBirds;stroke-width:0.14462222"
         id="path1044" />
      <path
         d="m 100.83901,10.042842 0.0198,-0.1073365 q 0.31919,-0.1045122 0.63838,-0.1581806 0.32201,-0.056493 0.62142,-0.059318 0.017,0 0.0311,0 0.28247,0 0.52821,0.048019 0.25704,0.050844 0.4463,0.1751285 0.1723,0.1101612 0.27399,0.2768162 0.10451,0.166654 0.12428,0.375679 0.006,0.05084 0.006,0.107336 0,0.161006 -0.048,0.341783 -0.0621,0.240096 -0.21467,0.488665 -0.0282,0.05084 -0.0876,0.12711 -0.0593,0.07627 -0.12993,0.16383 -0.0678,0.08474 -0.14971,0.169479 -0.0791,0.08191 -0.15535,0.146882 0.0706,0.166654 0.1497,0.353081 0.0819,0.183603 0.15818,0.355907 0.0791,0.169479 0.14971,0.313536 0.0706,0.141233 0.11016,0.220323 l -0.0395,0.04237 -0.33614,-0.186427 -0.0169,0.288114 -0.11581,-0.05084 -0.10452,0.07062 -0.70051,-1.081842 -0.36438,0.144057 -0.0282,0.867169 -0.0932,-0.0113 -0.19208,-0.302238 -0.1497,0.389802 -0.10452,-0.04237 q -0.006,-0.172303 -0.0198,-0.494314 -0.0141,-0.32201 -0.0254,-0.700514 -0.0113,-0.378503 -0.0113,-0.768305 0,-0.389802 0.0226,-0.708988 l 0.0169,-0.225972 -0.18361,-0.132759 0.30507,-0.276816 z m 0.83327,1.819077 q 0.20903,-0.08192 0.42935,-0.220323 0.22032,-0.138408 0.38133,-0.302238 0.161,-0.166655 0.23445,-0.344608 0.0339,-0.07909 0.0339,-0.15818 0,-0.09321 -0.048,-0.183603 -0.0508,-0.09321 -0.2175,-0.118635 -0.13558,-0.0226 -0.27964,-0.0226 -0.0311,0 -0.065,0 -0.20903,0.0113 -0.4576,0.05367 z"
         style="font-style:normal;font-variant:normal;font-weight:normal;font-stretch:normal;font-family:AngryBirds;-inkscape-font-specification:AngryBirds;stroke-width:0.14462222"
         id="path1046" />
      <path
         d="m 104.85567,13.446549 0.74571,-3.5703612 0.23162,0.070616 0.21185,-0.1864271 0.31918,0.392627 0.18078,-0.3530819 0.20055,0.1214601 0.18643,-0.1073368 0.67509,3.6551006 -0.12711,-0.08756 -0.21185,0.12146 -0.16383,-0.209024 -0.15535,0.15818 -0.21468,-0.782428 -1.07619,0.08756 -0.2062,0.788078 -0.0593,0.0226 -0.1836,-0.231621 -0.23162,0.183602 z m 0.94626,-1.347359 0.82762,-0.07627 -0.28811,-1.296516 -0.24293,0.01695 z"
         style="font-style:normal;font-variant:normal;font-weight:normal;font-stretch:normal;font-family:AngryBirds;-inkscape-font-specification:AngryBirds;stroke-width:0.14462222"
         id="path1048" />
      <path
         d="m 108.99943,10.172776 0.0791,-0.1864268 -0.0395,-0.076266 1.65525,-0.1101615 0.0508,0.2259719 -0.35873,0.24857 0.34179,0.104512 -0.0452,0.127109 -0.84457,0.07627 -0.0198,0.889766 0.84457,-0.02825 -0.096,0.302238 0.16666,0.06779 -0.0282,0.155356 -0.87564,0.08756 0.0367,0.943434 0.87281,-0.0339 -0.0565,0.299413 0.15536,0.07062 -0.065,0.220323 -1.36431,0.07909 0.0226,-0.293764 -0.35308,0.0226 0.0367,-2.706017 -0.0706,-0.115811 0.24857,-0.214674 z"
         style="font-style:normal;font-variant:normal;font-weight:normal;font-stretch:normal;font-family:AngryBirds;-inkscape-font-specification:AngryBirds;stroke-width:0.14462222"
         id="path1050" />
      <path
         d="m 111.0925,9.9100836 0.0819,-0.050844 0.29941,0.2259722 0.0113,-0.2542187 0.065,0.028246 0.14971,-0.064967 0.53386,1.2174252 0.55363,-1.2739182 0.14406,0.033896 0.0424,0.4011004 0.28811,-0.2852896 0.0819,0.028246 -0.67226,1.7145641 0.71746,1.768233 -0.1949,-0.0339 -0.0254,0.132759 -0.31637,-0.166655 -0.10451,0.138408 -0.53386,-1.158107 -0.51973,1.273918 h -0.16666 l -0.0537,-0.265517 -0.29376,0.166654 -0.0537,-0.02825 0.66097,-1.666546 z"
         style="font-style:normal;font-variant:normal;font-weight:normal;font-stretch:normal;font-family:AngryBirds;-inkscape-font-specification:AngryBirds;stroke-width:0.14462222"
         id="path1052" />
      <path
         d="m 113.55559,10.051316 0.0339,-0.1412324 q 0.23727,-0.087564 0.54233,-0.1525313 0.30789,-0.064967 0.61295,-0.08474 0.0791,-0.00565 0.15536,-0.00282 0.2175,0 0.4124,0.036721 0.26269,0.048019 0.40675,0.1864271 0.23162,0.2259723 0.31353,0.5169113 0.0565,0.197726 0.0537,0.395452 0,0.09321 -0.0113,0.186427 -0.0367,0.293764 -0.17795,0.573404 -0.13841,0.276816 -0.35026,0.480191 -0.0706,0.06497 -0.18077,0.135584 -0.11017,0.06779 -0.24575,0.132758 -0.13558,0.06214 -0.29659,0.118636 -0.15818,0.05367 -0.31918,0.08756 l -0.006,1.005576 -0.10452,0.03672 -0.11581,-0.324835 -0.23162,0.313536 -0.1497,-0.175128 -0.11581,0.07062 -0.0282,-2.892445 -0.12711,-0.09886 0.34743,-0.358731 z m 0.87847,0.426523 0.0311,1.358658 q 0.14406,-0.05084 0.26552,-0.110162 0.10451,-0.04519 0.20055,-0.09321 0.0989,-0.05084 0.14688,-0.09039 0.12146,-0.110161 0.2062,-0.259868 0.0876,-0.149707 0.11299,-0.305063 0.008,-0.05649 0.0113,-0.107336 0,-0.09604 -0.0311,-0.183603 -0.0452,-0.138408 -0.1949,-0.231621 -0.0706,-0.04237 -0.18642,-0.04519 -0.008,0 -0.0141,0.0028 -0.12428,0.0028 -0.24574,0.01412 -0.14688,0.0226 -0.30224,0.05084 z"
         style="font-style:normal;font-variant:normal;font-weight:normal;font-stretch:normal;font-family:AngryBirds;-inkscape-font-specification:AngryBirds;stroke-width:0.14462222"
         id="path1054" />
      <path
         d="m 116.44239,10.042842 0.0198,-0.1073365 q 0.31919,-0.1045122 0.63837,-0.1581806 0.32201,-0.056493 0.62143,-0.059318 0.017,0 0.0311,0 0.28246,0 0.52821,0.048019 0.25704,0.050844 0.44629,0.1751285 0.17231,0.1101612 0.274,0.2768162 0.10451,0.166654 0.12428,0.375679 0.006,0.05084 0.006,0.107336 0,0.161006 -0.048,0.341783 -0.0621,0.240096 -0.21467,0.488665 -0.0282,0.05084 -0.0876,0.12711 -0.0593,0.07627 -0.12993,0.16383 -0.0678,0.08474 -0.14971,0.169479 -0.0791,0.08191 -0.15535,0.146882 0.0706,0.166654 0.1497,0.353081 0.0819,0.183603 0.15818,0.355907 0.0791,0.169479 0.14971,0.313536 0.0706,0.141233 0.11016,0.220323 l -0.0395,0.04237 -0.33614,-0.186427 -0.0169,0.288114 -0.11581,-0.05084 -0.10451,0.07062 -0.70051,-1.081842 -0.36438,0.144057 -0.0282,0.867169 -0.0932,-0.0113 -0.19208,-0.302238 -0.14971,0.389802 -0.10451,-0.04237 q -0.006,-0.172303 -0.0198,-0.494314 -0.0141,-0.32201 -0.0254,-0.700514 -0.0113,-0.378503 -0.0113,-0.768305 0,-0.389802 0.0226,-0.708988 l 0.0169,-0.225972 -0.1836,-0.132759 0.30506,-0.276816 z m 0.83327,1.819077 q 0.20903,-0.08192 0.42935,-0.220323 0.22032,-0.138408 0.38133,-0.302238 0.161,-0.166655 0.23444,-0.344608 0.0339,-0.07909 0.0339,-0.15818 0,-0.09321 -0.048,-0.183603 -0.0508,-0.09321 -0.2175,-0.118635 -0.13558,-0.0226 -0.27964,-0.0226 -0.0311,0 -0.065,0 -0.20902,0.0113 -0.45759,0.05367 z"
         style="font-style:normal;font-variant:normal;font-weight:normal;font-stretch:normal;font-family:AngryBirds;-inkscape-font-specification:AngryBirds;stroke-width:0.14462222"
         id="path1056" />
      <path
         d="m 119.42805,10.172776 0.0791,-0.1864268 -0.0396,-0.076266 1.65525,-0.1101615 0.0508,0.2259719 -0.35873,0.24857 0.34179,0.104512 -0.0452,0.127109 -0.84457,0.07627 -0.0198,0.889766 0.84457,-0.02825 -0.096,0.302238 0.16665,0.06779 -0.0282,0.155356 -0.87564,0.08756 0.0367,0.943434 0.87281,-0.0339 -0.0565,0.299413 0.15536,0.07062 -0.065,0.220323 -1.36431,0.07909 0.0226,-0.293764 -0.35308,0.0226 0.0367,-2.706017 -0.0706,-0.115811 0.24857,-0.214674 z"
         style="font-style:normal;font-variant:normal;font-weight:normal;font-stretch:normal;font-family:AngryBirds;-inkscape-font-specification:AngryBirds;stroke-width:0.14462222"
         id="path1058" />
      <path
         d="m 121.55501,11.223547 q 0.0226,-0.293764 0.17513,-0.536684 0.15536,-0.24292 0.39545,-0.418048 0.2401,-0.177954 0.53386,-0.2909397 0.29659,-0.1129862 0.60448,-0.146882 0.0593,-0.00847 0.14405,-0.011299 0.0226,0 0.0452,0.00282 0.11581,0.00282 0.19772,0.00847 l 0.0226,0.073441 -0.37568,0.2090247 0.29942,0.144057 -0.12711,0.12146 0.0876,0.16383 q -0.20902,0.01695 -0.4124,0.05649 -0.20055,0.03955 -0.36155,0.110161 -0.15819,0.07062 -0.26835,0.172304 -0.11016,0.09886 -0.13276,0.231622 -0.006,0.0339 -0.006,0.06779 0,0.107337 0.0763,0.180778 0.0989,0.09886 0.23727,0.16383 0.0706,0.02825 0.14406,0.05367 0.0763,0.02542 0.14971,0.05084 0.0706,0.0226 0.13275,0.03954 0.065,0.01695 0.11017,0.02825 0.27681,0.08756 0.43217,0.240095 0.15818,0.152532 0.15818,0.44912 0,0.313537 -0.17231,0.553632 -0.16947,0.240096 -0.53385,0.423698 -0.14406,0.07062 -0.29094,0.118636 -0.14689,0.04802 -0.28812,0.08191 -0.13841,0.03672 -0.26269,0.05367 -0.12429,0.01695 -0.2288,0.02825 l 0.0989,-0.183602 -0.26551,-0.07627 0.11581,-0.172303 -0.0989,-0.104513 q 0.0989,-0.0226 0.21749,-0.04802 0.11864,-0.02825 0.2401,-0.06214 0.11016,-0.0339 0.22315,-0.08192 0.11298,-0.05084 0.20337,-0.118635 0.0932,-0.07062 0.15253,-0.155356 0.0622,-0.08474 0.0622,-0.180778 0,-0.12146 -0.11864,-0.200551 -0.11864,-0.07909 -0.26269,-0.124284 -0.14971,-0.05084 -0.29942,-0.08474 -0.14688,-0.03672 -0.22032,-0.06497 -0.25987,-0.104512 -0.40957,-0.282465 -0.12711,-0.152531 -0.12711,-0.401101 0,-0.03955 0.003,-0.08192 z"
         style="font-style:normal;font-variant:normal;font-weight:normal;font-stretch:normal;font-family:AngryBirds;-inkscape-font-specification:AngryBirds;stroke-width:0.14462222"
         id="path1060" />
      <path
         d="m 124.18759,11.223547 q 0.0226,-0.293764 0.17513,-0.536684 0.15535,-0.24292 0.39545,-0.418048 0.24009,-0.177954 0.53386,-0.2909397 0.29659,-0.1129862 0.60447,-0.146882 0.0593,-0.00847 0.14406,-0.011299 0.0226,0 0.0452,0.00282 0.11581,0.00282 0.19773,0.00847 l 0.0226,0.073441 -0.37568,0.2090247 0.29941,0.144057 -0.12711,0.12146 0.0876,0.16383 q -0.20903,0.01695 -0.4124,0.05649 -0.20055,0.03955 -0.36156,0.110161 -0.15818,0.07062 -0.26834,0.172304 -0.11016,0.09886 -0.13276,0.231622 -0.006,0.0339 -0.006,0.06779 0,0.107337 0.0763,0.180778 0.0989,0.09886 0.23727,0.16383 0.0706,0.02825 0.14406,0.05367 0.0763,0.02542 0.1497,0.05084 0.0706,0.0226 0.13276,0.03954 0.065,0.01695 0.11016,0.02825 0.27682,0.08756 0.43217,0.240095 0.15818,0.152532 0.15818,0.44912 0,0.313537 -0.1723,0.553632 -0.16948,0.240096 -0.53386,0.423698 -0.14406,0.07062 -0.29094,0.118636 -0.14688,0.04802 -0.28811,0.08191 -0.13841,0.03672 -0.2627,0.05367 -0.12428,0.01695 -0.22879,0.02825 l 0.0989,-0.183602 -0.26552,-0.07627 0.11581,-0.172303 -0.0989,-0.104513 q 0.0989,-0.0226 0.2175,-0.04802 0.11863,-0.02825 0.24009,-0.06214 0.11017,-0.0339 0.22315,-0.08192 0.11299,-0.05084 0.20338,-0.118635 0.0932,-0.07062 0.15253,-0.155356 0.0621,-0.08474 0.0621,-0.180778 0,-0.12146 -0.11863,-0.200551 -0.11864,-0.07909 -0.2627,-0.124284 -0.1497,-0.05084 -0.29941,-0.08474 -0.14688,-0.03672 -0.22032,-0.06497 -0.25987,-0.104512 -0.40958,-0.282465 -0.12711,-0.152531 -0.12711,-0.401101 0,-0.03955 0.003,-0.08192 z"
         style="font-style:normal;font-variant:normal;font-weight:normal;font-stretch:normal;font-family:AngryBirds;-inkscape-font-specification:AngryBirds;stroke-width:0.14462222"
         id="path1062" />
      <path
         d="m 126.71848,13.446549 0.7457,-3.5703612 0.23163,0.070616 0.21184,-0.1864271 0.31919,0.392627 0.18078,-0.3530819 0.20055,0.1214601 0.18643,-0.1073368 0.67509,3.6551006 -0.12711,-0.08756 -0.21185,0.12146 -0.16383,-0.209024 -0.15536,0.15818 -0.21467,-0.782428 -1.07619,0.08756 -0.2062,0.788078 -0.0593,0.0226 -0.1836,-0.231621 -0.23162,0.183602 z m 0.161,-4.2991217 q 0.0282,-0.045194 0.0508,-0.081915 0.0254,-0.039545 0.048,-0.07909 0.0876,-0.1440573 0.18643,-0.2457448 0.10169,-0.1016875 0.28247,-0.1299341 0.18642,-0.033896 0.29658,-0.00565 0.11299,0.028247 0.21185,0.090389 0.0508,0.033896 0.0989,0.073441 0.0508,0.036721 0.11016,0.073441 0.065,0.039545 0.12711,0.070616 0.0621,0.031071 0.14405,0.062142 0.0763,0.022597 0.14124,0.00847 0.0678,-0.014123 0.12428,-0.053668 0.0593,-0.04237 0.10451,-0.093213 0.0452,-0.053668 0.0876,-0.1045122 0.0452,-0.056493 0.0847,-0.1355833 0.017,0 0.0339,0.00565 0.0198,0.00282 0.0367,0.00282 l -0.0169,0.1440573 h 0.1384 l -0.0113,0.1327587 0.0819,0.039545 q -0.065,0.1327587 -0.15535,0.2711666 -0.0904,0.1355834 -0.15819,0.1977258 -0.14405,0.1271093 -0.32483,0.1610052 -0.17795,0.031071 -0.34743,-0.022597 -0.0282,-0.011299 -0.0678,-0.031071 -0.0367,-0.019773 -0.0819,-0.048019 -0.0452,-0.028247 -0.0989,-0.062142 -0.0508,-0.03672 -0.0989,-0.073441 -0.10451,-0.070616 -0.21184,-0.1271094 -0.10452,-0.056493 -0.20903,-0.067792 -0.0452,0 -0.11298,0.062142 -0.0678,0.059318 -0.12994,0.1327587 -0.0282,0.033896 -0.0537,0.070616 -0.0226,0.033896 -0.0508,0.064967 l -0.0226,0.028246 -0.0452,-0.00565 0.0508,-0.1440573 h -0.17513 l 0.0367,-0.098863 q -0.0282,-0.022597 -0.0537,-0.039545 -0.0226,-0.019773 -0.0508,-0.04237 z m 0.78525,2.9517627 0.82763,-0.07627 -0.28812,-1.296516 -0.24292,0.01695 z"
         style="font-style:normal;font-variant:normal;font-weight:normal;font-stretch:normal;font-family:AngryBirds;-inkscape-font-specification:AngryBirds;stroke-width:0.14462222"
         id="path1064" />
      <path
         d="m 129.72391,12.186754 q -0.0113,-0.155356 -0.0141,-0.310712 0,-0.172304 0.0169,-0.344608 0.0565,-0.590352 0.16383,-0.926486 0.10734,-0.336133 0.31637,-0.514087 0.0763,-0.06497 0.19207,-0.1299337 0.11864,-0.067792 0.26269,-0.1158107 0.14689,-0.050844 0.31354,-0.070616 0.0791,-0.00847 0.15818,-0.00847 l 0.17795,0.011299 -0.0113,0.3361341 0.28246,-0.1723042 0.12146,0.1779532 0.19208,-0.07627 q 0.21467,0.220323 0.32766,0.632723 0.11581,0.409574 0.11581,1.005576 0,0.197726 -0.0226,0.432172 -0.0226,0.234446 -0.0819,0.460418 -0.0565,0.223148 -0.15254,0.4124 -0.096,0.186427 -0.24009,0.290939 -0.20338,0.144057 -0.40958,0.220323 -0.20337,0.07626 -0.39827,0.09604 -0.0904,0.0085 -0.18078,0.0085 -0.0989,0 -0.18925,-0.0113 -0.17231,-0.0226 -0.31354,-0.07626 -0.17795,-0.06497 -0.31071,-0.259868 -0.12993,-0.197726 -0.21185,-0.468893 -0.0791,-0.271166 -0.10451,-0.598826 z m 0.68921,-0.52821 q -0.008,0.110161 -0.006,0.217498 0,0.203375 0.0282,0.401101 0.0424,0.299413 0.15818,0.480191 0.0565,0.09321 0.16666,0.141232 0.11016,0.04519 0.23444,0.04519 0.12429,0 0.23727,-0.04237 0.11299,-0.04519 0.17231,-0.138408 0.0565,-0.09321 0.11016,-0.268342 0.0565,-0.177953 0.0876,-0.389802 0.0339,-0.214674 0.0395,-0.446295 0,-0.03107 0,-0.06214 0,-0.197725 -0.0339,-0.381328 -0.0367,-0.211849 -0.12428,-0.378503 -0.0847,-0.166655 -0.23162,-0.254219 -0.0932,-0.05649 -0.2175,-0.05649 -0.006,0 -0.0141,0 -0.13276,0.0028 -0.2288,0.09039 -0.16666,0.149706 -0.26269,0.437821 -0.0932,0.28529 -0.11582,0.604476 z"
         style="font-style:normal;font-variant:normal;font-weight:normal;font-stretch:normal;font-family:AngryBirds;-inkscape-font-specification:AngryBirds;stroke-width:0.14462222"
         id="path1066" />
      <path
         d="m 132.78301,13.480445 q -0.10169,-0.110162 -0.11016,-0.231622 -0.006,-0.12146 0.0254,-0.319185 0.0169,-0.132759 0.096,-0.234447 0.0819,-0.104512 0.19772,-0.15818 0.11581,-0.05649 0.24575,-0.05649 0.12993,0 0.24574,0.07344 0.0339,0.0226 0.0537,0.127109 0.0226,0.104512 0.0141,0.234446 -0.008,0.129934 -0.0508,0.254219 -0.0395,0.124285 -0.11581,0.189252 -0.0706,0.05649 -0.16101,0.09886 -0.0876,0.03955 -0.17512,0.05649 -0.0847,0.01695 -0.15818,0.0085 -0.0706,-0.0085 -0.10734,-0.04237 z m 0.14688,-2.093068 q -0.10451,-0.110161 -0.11016,-0.231621 -0.006,-0.121461 0.0226,-0.319186 0.0169,-0.132759 0.096,-0.237271 0.0819,-0.104512 0.19773,-0.158181 0.11581,-0.05649 0.24574,-0.05649 0.12994,0 0.24575,0.07627 0.0339,0.0226 0.0537,0.127109 0.0226,0.104512 0.0141,0.234446 -0.008,0.129935 -0.0508,0.254219 -0.0395,0.124285 -0.11299,0.189252 -0.0706,0.05649 -0.161,0.09886 -0.0876,0.03955 -0.17513,0.05649 -0.0876,0.01695 -0.16101,0.0085 -0.0706,-0.0085 -0.10451,-0.04237 z"
         style="font-style:normal;font-variant:normal;font-weight:normal;font-stretch:normal;font-family:AngryBirds;-inkscape-font-specification:AngryBirds;stroke-width:0.14462222"
         id="path1068" />
    </g>
    <rect
       style="opacity:1;fill:#ffb380;fill-opacity:1;stroke:#ffb380;stroke-width:0.45588291;stroke-linecap:round;stroke-linejoin:round;stroke-miterlimit:4;stroke-dasharray:none;stroke-dashoffset:0;stroke-opacity:1"
       id="rect1090"
       width="29.06975"
       height="15.949785"
       x="82.463989"
       y="19.324072"
       ry="4.1622024" />
    <g
       aria-label="3 &gt; 5 ="
       style="font-style:normal;font-variant:normal;font-weight:normal;font-stretch:normal;font-size:15.26951599px;line-height:1.25;font-family:'URW Gothic L';-inkscape-font-specification:'URW Gothic L';letter-spacing:0px;word-spacing:0px;fill:#000000;fill-opacity:1;stroke:none;stroke-width:0.38173789"
       id="text14">
      <path
         d="m 83.320823,32.359261 0.08947,-0.305688 q 0.492084,-0.07456 1.043814,-0.223675 0.559187,-0.149116 1.096006,-0.357879 0.536819,-0.216219 0.984168,-0.49954 0.454805,-0.283321 0.708302,-0.633744 0.260954,-0.350424 0.283322,-0.753038 0.02237,-0.402614 -0.298233,-0.879787 -0.104382,-0.149116 -0.350424,-0.23113 -0.246042,-0.08947 -0.544274,-0.134205 -0.290777,-0.04474 -0.618833,-0.05219 -0.328056,-0.0075 -0.58901,-0.0075 l 0.134205,-0.447349 -0.3206,-0.260954 0.581553,-0.454805 -0.73067,-0.469717 q 0.454805,-0.246042 0.931978,-0.596465 0.484628,-0.350423 0.82014,-0.760493 0.335511,-0.417526 0.41007,-0.879787 0.08201,-0.469717 -0.26841,-0.939433 -0.305688,-0.395159 -0.760493,-0.477173 -0.447349,-0.08947 -0.879787,-0.05965 -0.305688,0.02982 -0.656112,0.07456 -0.350423,0.04474 -0.715759,0.104382 l 0.44735,-0.58901 -0.626289,-0.23113 0.626289,-0.424982 -0.44735,-0.506996 q 0.566643,-0.171484 1.230211,-0.253498 0.663567,-0.08201 1.297312,-0.08947 0.633744,-0.0075 1.155652,0.04474 0.529363,0.05219 0.805228,0.164028 0.656112,0.260953 0.969257,0.864874 0.313144,0.596466 0.23113,1.394239 -0.08201,0.790316 -0.566642,1.707382 -0.477173,0.917066 -1.40915,1.804308 1.036359,0.350423 1.588089,0.812684 0.551731,0.454805 0.685936,0.775405 0.216218,0.536819 0.14166,1.110917 -0.0671,0.566642 -0.357879,1.103461 -0.290777,0.529363 -0.745582,1.006536 -0.454805,0.469716 -1.006535,0.805228 -0.790317,0.492084 -1.781941,0.738126 -0.984168,0.253498 -1.856499,0.335512 0.01491,-0.04474 0.05219,-0.111837 l 0.05965,-0.119293 0.05965,-0.119293 -0.395158,-0.156573 0.790316,-0.656112 z"
         style="font-style:normal;font-variant:normal;font-weight:normal;font-stretch:normal;font-family:AngryBirds;-inkscape-font-specification:AngryBirds;stroke-width:0.38173789"
         id="path969" />
      <path
         d="m 93.81116,21.361929 0.0671,-0.05965 0.745582,0.335512 0.685935,-0.715759 0.380247,0.02982 3.206002,6.136139 -2.63936,6.322534 -0.395158,0.193851 -0.581554,-0.469717 -0.700847,0.454805 -0.350424,-0.305688 -0.111837,0.03728 2.564802,-5.822994 z"
         style="font-style:normal;font-variant:normal;font-weight:normal;font-stretch:normal;font-family:AngryBirds;-inkscape-font-specification:AngryBirds;stroke-width:0.38173789"
         id="path971" />
      <path
         d="m 102.82524,27.33404 0.0597,-5.837906 5.28618,-0.238586 0.11929,0.380247 -0.6412,0.596465 0.93198,0.439893 -0.0746,0.156572 -3.45205,0.283322 q -0.0298,0.566642 -0.0447,1.133284 -0.0149,0.492084 0.007,1.028903 0.0224,0.529363 0.0969,0.954345 0.46972,-0.04473 0.94689,-0.0075 0.47717,0.03728 0.88724,0.126749 0.41753,0.08201 0.73813,0.216218 0.3206,0.126749 0.48463,0.260954 0.26095,0.216219 0.41752,0.603921 0.16403,0.387703 0.20876,0.864875 0.0447,0.469717 -0.0149,1.006536 -0.0596,0.536819 -0.23858,1.05127 -0.17149,0.506996 -0.46226,0.969257 -0.29078,0.454805 -0.68594,0.775405 -0.39516,0.3206 -0.90961,0.529363 -0.51445,0.201307 -1.04381,0.335512 -0.52191,0.126749 -1.02145,0.193851 -0.49208,0.0671 -0.85742,0.09693 0.0298,-0.104382 0.11184,-0.246042 0.082,-0.149117 0.14166,-0.223675 l -0.67103,-0.141661 0.9618,-0.656112 -1.08109,-0.208762 V 31.5764 q 0.26095,-0.04473 0.6412,-0.126748 0.38025,-0.08947 0.77541,-0.201308 0.40261,-0.111837 0.78286,-0.268409 0.38024,-0.164028 0.6412,-0.365335 0.39516,-0.305689 0.61883,-0.663568 0.23113,-0.357879 0.27587,-0.715759 0.0522,-0.357879 -0.11184,-0.663567 -0.15657,-0.305689 -0.53682,-0.506996 -0.1342,-0.05965 -0.46226,-0.07456 -0.3206,-0.01491 -0.7083,0 -0.38771,0.01491 -0.78286,0.04474 -0.38771,0.02982 -0.64866,0.04473 l 0.14166,-0.842508 z"
         style="font-style:normal;font-variant:normal;font-weight:normal;font-stretch:normal;font-family:AngryBirds;-inkscape-font-specification:AngryBirds;stroke-width:0.38173789"
         id="path973" />
      <path
         d="m 112.98007,30.107604 0.6412,-0.424981 -0.39516,-0.760494 3.713,-0.246042 0.23113,0.454805 -0.59647,0.447349 0.19385,0.760494 -3.64589,0.492084 0.0746,-0.417526 z m 0.0522,-3.750276 0.23858,-0.387703 -0.0447,-0.715759 3.68317,-0.134204 0.0149,0.275865 -0.46227,0.6412 0.46227,0.559187 -0.0969,0.246042 -3.5266,0.395158 0.18639,-0.424982 z"
         style="font-style:normal;font-variant:normal;font-weight:normal;font-stretch:normal;font-family:AngryBirds;-inkscape-font-specification:AngryBirds;stroke-width:0.38173789"
         id="path975" />
    </g>
    <rect
       ry="4.1622024"
       y="19.324072"
       x="11.469415"
       height="15.949785"
       width="54.026779"
       id="rect83"
       style="opacity:1;fill:#ffb380;fill-opacity:1;stroke:#ffb380;stroke-width:0.62149435;stroke-linecap:round;stroke-linejoin:round;stroke-miterlimit:4;stroke-dasharray:none;stroke-dashoffset:0;stroke-opacity:1" />
    <g
       aria-label="(10-6)=4 "
       style="font-style:normal;font-variant:normal;font-weight:normal;font-stretch:normal;font-size:15.26951599px;line-height:1.25;font-family:'URW Gothic L';-inkscape-font-specification:'URW Gothic L';letter-spacing:0px;word-spacing:0px;fill:#000000;fill-opacity:1;stroke:none;stroke-width:0.38173789"
       id="text14-7">
      <path
         d="m 13.755718,29.496761 q -0.09693,-0.924522 -0.09693,-1.856499 0,-0.939433 0.02982,-1.722294 0.01491,-0.365335 0.126749,-0.969256 0.119293,-0.603922 0.298233,-1.222755 0.186395,-0.618832 0.402614,-1.148196 0.223675,-0.536818 0.454805,-0.78286 0.365335,-0.395159 0.887242,-0.67848 0.529363,-0.283321 1.066182,-0.432437 0.02982,0.02982 0.07456,0.0671 0.04473,0.03728 0.07456,0.0671 l -0.484628,0.685936 0.790316,0.350423 v 0.09693 q -0.492084,0.365335 -0.812684,1.043814 -0.313144,0.67848 -0.49954,1.528443 -0.178939,0.842508 -0.238586,1.767029 -0.05219,0.924521 -0.02237,1.789396 0.03728,0.864875 0.14166,1.573178 0.104382,0.708303 0.246042,1.118373 0.04473,0.149116 0.156572,0.372791 0.119293,0.223674 0.275866,0.469716 0.164028,0.246042 0.380246,0.477173 0.223675,0.223674 0.49954,0.395158 -0.119293,0.07456 -0.275865,0.171484 -0.156572,0.08947 -0.350424,0.193851 l 0.41007,0.656112 q -0.02982,0.02982 -0.05219,0.03728 -0.02237,0.0075 -0.05219,0.03728 -0.05965,0.05965 -0.09693,0.07456 -0.290777,-0.01491 -0.618833,-0.104382 -0.3206,-0.08947 -0.648656,-0.238586 -0.3206,-0.141661 -0.596465,-0.3206 -0.26841,-0.171484 -0.439893,-0.372791 -0.454805,-0.551731 -0.693392,-1.371871 -0.238586,-0.827596 -0.335511,-1.752117 z"
         style="font-style:normal;font-variant:normal;font-weight:normal;font-stretch:normal;font-family:AngryBirds;-inkscape-font-specification:AngryBirds;fill:#000000;stroke-width:0.38173789"
         id="path952" />
      <path
         d="m 18.370869,23.278608 3.071797,-2.624448 0.439893,0.849964 0.745582,-0.454805 -0.08947,10.057899 1.707382,-0.01491 0.09693,0.462261 -0.76795,0.529363 0.738126,0.477172 -0.402614,0.41007 -4.764268,0.07456 0.566642,-0.469716 -0.842507,-0.536819 0.477172,-0.290777 -0.275865,-0.559186 1.72975,-0.201307 -0.275865,-7.127763 -1.379327,0.671024 -0.253498,-0.171484 0.529363,-1.036359 z"
         style="font-style:normal;font-variant:normal;font-weight:normal;font-stretch:normal;font-family:AngryBirds;-inkscape-font-specification:AngryBirds;fill:#000000;stroke-width:0.38173789"
         id="path954" />
      <path
         d="m 25.319692,26.037261 q 0.02982,-0.469716 0.23113,-1.14074 0.208763,-0.671024 0.506996,-1.334592 0.298233,-0.663567 0.656112,-1.207842 0.357879,-0.544275 0.693391,-0.760494 0.290777,-0.186395 0.641201,-0.313144 0.357879,-0.126749 0.73067,-0.201307 0.372791,-0.07456 0.745582,-0.09693 0.37279,-0.02982 0.723214,0.02237 l -0.208763,1.312224 1.081094,-0.462261 0.104381,0.477172 0.753038,-0.156572 q 0.536819,0.700847 0.872331,1.72975 0.335511,1.021447 0.350423,2.244201 0.01491,1.342048 -0.156572,2.490244 -0.164028,1.14074 -0.484628,2.020527 -0.320601,0.879786 -0.790317,1.468796 -0.462261,0.581554 -1.043815,0.812684 -0.41007,0.171484 -0.917065,0.246042 -0.506996,0.07456 -1.028903,0.04474 -0.514452,-0.02982 -0.99908,-0.17894 -0.477172,-0.14166 -0.857419,-0.402614 -1.066182,-0.745582 -1.40915,-2.415685 -0.342967,-1.677559 -0.193851,-4.197626 z m 1.878866,0.917066 q 0,0.119293 0.01491,0.618833 0.01491,0.49954 0.08947,1.110917 0.07456,0.611377 0.246042,1.207842 0.178939,0.58901 0.484628,0.879787 0.201307,0.201307 0.462261,0.260953 0.260953,0.05965 0.514451,0.03728 0.260954,-0.02237 0.49954,-0.104382 0.238586,-0.08201 0.387702,-0.193851 0.260954,-0.186396 0.469717,-0.596466 0.216219,-0.41007 0.357879,-0.894698 0.149117,-0.492084 0.231131,-0.991624 0.08947,-0.506995 0.08947,-0.887242 0,-0.506996 0.0075,-1.021447 0.0075,-0.521907 -0.08201,-0.99908 -0.08201,-0.484628 -0.305688,-0.917065 -0.216219,-0.439894 -0.671024,-0.790317 -0.201307,-0.149117 -0.417526,-0.186396 -0.208763,-0.04473 -0.424981,-0.02237 -0.216219,0.02237 -0.417526,0.111837 -0.193851,0.08201 -0.365335,0.186396 -0.305689,0.201307 -0.521908,0.618833 -0.208762,0.41007 -0.350423,0.879786 -0.134205,0.469717 -0.208763,0.939433 -0.07456,0.462261 -0.08947,0.753038 z"
         style="font-style:normal;font-variant:normal;font-weight:normal;font-stretch:normal;font-family:AngryBirds;-inkscape-font-specification:AngryBirds;fill:#000000;stroke-width:0.38173789"
         id="path956" />
      <path
         d="m 34.385967,27.260015 0.365335,-0.290777 -0.260954,-0.589009 3.146355,-0.246042 -0.499539,0.305688 0.611377,0.864875 -0.857419,0.551731 0.335511,0.506996 -2.699006,0.514451 -0.111837,-0.223675 0.723214,-0.581553 z"
         style="font-style:normal;font-variant:normal;font-weight:normal;font-stretch:normal;font-family:AngryBirds;-inkscape-font-specification:AngryBirds;fill:#000000;stroke-width:0.38173789"
         id="path958" />
      <path
         d="m 39.05331,28.863016 q -0.01491,-0.484628 -0.02982,-1.103461 -0.01491,-0.618833 0.01491,-1.304768 0.02982,-0.656112 0.09693,-1.342047 0.07456,-0.693391 0.238586,-1.334592 0.149116,-0.6412 0.402614,-1.178019 0.253498,-0.544275 0.618833,-0.946889 0.372791,-0.41007 0.864875,-0.656112 0.49954,-0.253498 1.155652,-0.313144 0.775405,-0.07456 1.453884,-0.04473 0.685936,0.02982 1.200387,0.178939 l -0.119293,0.216219 0.193851,0.260954 -1.14074,0.365335 1.252578,0.596465 -0.111838,0.149117 q -0.335512,-0.04473 -0.671023,-0.0671 -0.335512,-0.02237 -0.671024,0.0075 -0.454805,0.02982 -0.90961,0.171484 -0.447349,0.134205 -0.872331,0.454805 -0.275865,0.216219 -0.454805,0.506995 -0.171483,0.283322 -0.290776,0.67848 -0.111838,0.387703 -0.164028,0.902154 -0.05219,0.506996 -0.104382,1.148196 0.685935,-0.216219 1.304768,-0.275865 0.618833,-0.05965 1.14074,-0.01491 0.521908,0.04474 0.90961,0.186396 0.387703,0.134204 0.603922,0.305688 0.246042,0.186396 0.469716,0.536819 0.231131,0.342968 0.387703,0.790317 0.164028,0.439893 0.23113,0.931977 0.07456,0.484628 -0.0075,0.946889 -0.07456,0.521907 -0.193851,0.961801 -0.111837,0.439893 -0.298233,0.82014 -0.178939,0.380246 -0.469716,0.715758 -0.290777,0.328056 -0.715759,0.596466 -0.275865,0.186395 -0.812684,0.275865 -0.529363,0.09693 -1.118373,0.08947 -0.589009,-0.0075 -1.133284,-0.134205 -0.536819,-0.119293 -0.842508,-0.365335 -0.216218,-0.171484 -0.454805,-0.484628 -0.23113,-0.313145 -0.439893,-0.775405 -0.208763,-0.462261 -0.357879,-1.073638 -0.141661,-0.611377 -0.156572,-1.379327 z m 2.05035,-0.05965 q -0.04473,0.395158 0,0.790317 0.04474,0.387702 0.156572,0.738126 0.119293,0.350423 0.298233,0.581553 0.201307,0.260954 0.499539,0.365335 0.298233,0.104382 0.603922,0.08201 0.305688,-0.02237 0.559186,-0.134204 0.260954,-0.119293 0.402614,-0.283321 0.186396,-0.246042 0.298233,-0.618833 0.111837,-0.372791 0.134205,-0.782861 0.02237,-0.417526 -0.04474,-0.82014 -0.0671,-0.402614 -0.253498,-0.693391 -0.134205,-0.231131 -0.469717,-0.365335 -0.335511,-0.141661 -0.723214,-0.156573 -0.380247,-0.01491 -0.723214,0.126749 -0.342968,0.134205 -0.514452,0.454805 -0.171484,0.3206 -0.223674,0.715759 z"
         style="font-style:normal;font-variant:normal;font-weight:normal;font-stretch:normal;font-family:AngryBirds;-inkscape-font-specification:AngryBirds;fill:#000000;stroke-width:0.38173789"
         id="path960" />
      <path
         d="m 46.799904,21.899282 0.626288,0.09693 0.104382,-0.753038 0.506996,0.05219 0.134204,-0.432438 q 0.275866,0.134205 0.611377,0.328056 0.335512,0.193852 0.596466,0.372791 0.335512,0.260954 0.611377,0.715759 0.275865,0.447349 0.454805,0.954344 0.186395,0.49954 0.290777,0.984169 0.104381,0.477172 0.134204,0.767949 0.05965,0.872331 0.0671,1.78194 0.01491,0.90961 -0.08201,1.804308 -0.08947,0.887243 -0.305689,1.767029 -0.208763,0.879787 -0.559186,1.670104 -0.149116,0.350423 -0.417526,0.656112 -0.268409,0.305688 -0.611377,0.559186 -0.335512,0.253498 -0.73067,0.447349 -0.395159,0.201307 -0.82014,0.305689 -0.134205,-0.08947 -0.246042,-0.193852 l 0.01491,-0.02982 q 0.04474,-0.04474 0.07456,-0.111837 0.08947,-0.149116 0.08947,-0.283321 0,-0.126749 -0.05965,-0.216219 -0.171484,-0.246042 -0.208763,-0.477172 0.492084,-0.305689 0.812684,-0.954345 0.328056,-0.648656 0.521907,-1.476252 0.201308,-0.835052 0.290777,-1.752117 0.09693,-0.917066 0.09693,-1.759574 0,-0.849963 -0.0671,-1.535898 -0.0671,-0.685935 -0.193852,-1.043815 -0.04474,-0.149116 -0.208763,-0.447349 -0.156572,-0.298233 -0.387702,-0.633744 -0.223675,-0.335512 -0.514452,-0.656112 -0.290777,-0.320601 -0.626288,-0.506996 z"
         style="font-style:normal;font-variant:normal;font-weight:normal;font-stretch:normal;font-family:AngryBirds;-inkscape-font-specification:AngryBirds;fill:#000000;stroke-width:0.38173789"
         id="path962" />
      <path
         d="m 52.026433,29.85464 0.641201,-0.424981 -0.395159,-0.760494 3.712998,-0.246042 0.23113,0.454805 -0.596465,0.447349 0.193851,0.760494 -3.645895,0.492084 0.07456,-0.417526 z m 0.05219,-3.750276 0.238586,-0.387703 -0.04474,-0.715759 3.683174,-0.134204 0.01491,0.275865 -0.462261,0.6412 0.462261,0.559187 -0.09693,0.246042 -3.526602,0.395158 0.186396,-0.424982 z"
         style="font-style:normal;font-variant:normal;font-weight:normal;font-stretch:normal;font-family:AngryBirds;-inkscape-font-specification:AngryBirds;fill:#000000;stroke-width:0.38173789"
         id="path964" />
      <path
         d="m 57.044197,28.773547 0.506995,-7.634758 0.08947,-0.02982 0.275865,0.976712 0.626289,-0.6412 0.171484,0.521907 0.439893,-0.156572 -0.260953,5.360734 2.661727,-0.260954 v -5.875185 l 0.07456,-0.05965 0.596465,1.05127 0.790317,-0.991624 0.305689,0.02982 0.04474,5.934832 1.058726,-0.134205 0.01491,0.335512 -1.058726,0.760493 0.887243,0.342968 -0.350424,0.49954 0.231131,0.305688 -0.827596,0.119293 0.04474,3.72791 -0.350424,0.07456 -0.514451,-0.626289 -0.275866,0.961801 -0.492084,-0.08947 -0.178939,-3.981407 -3.787556,0.223674 v -0.790316 z"
         style="font-style:normal;font-variant:normal;font-weight:normal;font-stretch:normal;font-family:AngryBirds;-inkscape-font-specification:AngryBirds;fill:#000000;stroke-width:0.38173789"
         id="path966" />
    </g>
  </g>
</svg>
