<?xml version="1.0" encoding="UTF-8" standalone="no"?>
<!-- Created with Inkscape (http://www.inkscape.org/) -->

<svg
   xmlns:dc="http://purl.org/dc/elements/1.1/"
   xmlns:cc="http://creativecommons.org/ns#"
   xmlns:rdf="http://www.w3.org/1999/02/22-rdf-syntax-ns#"
   xmlns:svg="http://www.w3.org/2000/svg"
   xmlns="http://www.w3.org/2000/svg"
   xmlns:sodipodi="http://sodipodi.sourceforge.net/DTD/sodipodi-0.dtd"
   xmlns:inkscape="http://www.inkscape.org/namespaces/inkscape"
   width="210mm"
   height="297mm"
   viewBox="0 0 210 297"
   version="1.1"
   id="svg1148"
   inkscape:version="0.92.1 r15371"
   sodipodi:docname="107.svg">
  <defs
     id="defs1142" />
  <sodipodi:namedview
     id="base"
     pagecolor="#ffffff"
     bordercolor="#666666"
     borderopacity="1.0"
     inkscape:pageopacity="0.0"
     inkscape:pageshadow="2"
     inkscape:zoom="0.35"
     inkscape:cx="400"
     inkscape:cy="560"
     inkscape:document-units="mm"
     inkscape:current-layer="layer1"
     showgrid="false"
     inkscape:window-width="1366"
     inkscape:window-height="704"
     inkscape:window-x="0"
     inkscape:window-y="27"
     inkscape:window-maximized="1" />
  <metadata
     id="metadata1145">
    <rdf:RDF>
      <cc:Work
         rdf:about="">
        <dc:format>image/svg+xml</dc:format>
        <dc:type
           rdf:resource="http://purl.org/dc/dcmitype/StillImage" />
        <dc:title></dc:title>
      </cc:Work>
    </rdf:RDF>
  </metadata>
  <g
     inkscape:label="Camada 1"
     inkscape:groupmode="layer"
     id="layer1">
    <path
       style="opacity:1;fill:#e6e6e6;fill-opacity:1;stroke:#cccccc;stroke-width:0.35642663;stroke-linecap:round;stroke-linejoin:round;stroke-miterlimit:4;stroke-dasharray:none;stroke-dashoffset:0;stroke-opacity:1"
       d="M 6.2099452,8.5176935 H 132.88529 V 42.708482 H 6.2099452 Z"
       id="rect10" />
    <g
       transform="matrix(0.60814045,0,0,0.60814045,121.2364,23.243424)"
       id="ID0.1613758858293295">
      <g
         id="ID0.04199532698839903">
        <g
           id="ID0.4123793593607843">
          <path
             style="fill:#003fff"
             inkscape:connector-curvature="0"
             id="ID0.6994774197228253"
             d="m 71.96,13.2 c 0,1.65 -0.3,3.3 -0.88,4.93 -1.58,4.67 -5.11,7.97 -9.67,9.25 -0.32,2.11 -0.91,5.63 -2.03,11.87 -0.03,0.14 -0.05,0.28 -0.08,0.42 -0.96,4.34 -2.33,10.95 -4.05,19.65 -0.33,1.97 -0.75,3.88 -1.26,5.67 -0.4,2.16 -0.83,4.3 -1.28,6.39 -0.03,0.15 -0.07,0.31 -0.11,0.46 -1.54,5.89 -5.22,10.23 -10.36,12.22 -0.06,0.02 -0.11,0.04 -0.16,0.06 -2.28,0.84 -4.22,1.23 -6.13,1.23 -2.62,0 -5.07,-0.76 -7.11,-2.21 C 27.15,81.97 25.28,80.43 24.03,77.95 23.54,76.97 23.2,75.92 23.02,74.83 23,74.74 22.91,74.22 22.6,72.96 22.31,72.13 21.61,70.14 20.5,67 20.43,66.79 20.36,66.57 20.3,66.36 19.96,65.18 19.43,63.39 18.71,60.99 17.94,58.65 17.2,56.24 16.49,53.82 15.35,50.27 13.68,44.92 11.41,37.52 10,37.24 8.62,36.8 7.3,36.18 6.48,35.79 5.71,35.31 5,34.73 1.82,32.13 0,28.29 0,24.19 0,18.1 3.67,12.93 9.36,11.03 9.43,11.01 9.49,10.99 9.56,10.97 12.8,9.96 15.62,9.37 18.15,9.2 18.89,9.04 19.73,8.89 20.7,8.74 21.55,8.61 22.42,8.59 23.27,8.66 23.41,8.65 23.77,8.61 24.41,8.48 26.2,8.12 27.54,7.91 28.65,7.81 28.88,7.44 29.13,7.08 29.4,6.74 31.15,4.54 34.46,1.8 40.27,1.19 40.36,1.18 40.45,1.17 40.53,1.16 41.9,1.05 44.01,0.85 46.86,0.57 47.05,0.55 47.25,0.54 47.45,0.53 48.73,0.47 50.45,0.41 52.62,0.36 54.32,0.22 55.41,0.13 55.89,0.08 56.34,0.03 56.8,0 57.26,0 c 9.65,0 14.7,6.64 14.7,13.2 z"
             transform="matrix(0.23988406,0,0,0.23988406,0.25,0)" />
        </g>
      </g>
      <g
         id="ID0.1456912192516029">
        <path
           style="fill:#ffffff"
           inkscape:connector-curvature="0"
           id="ID0.9227194082923234"
           d="m 60.693,14.517 c -0.527,1.643 -1.759,2.463 -3.694,2.463 -0.411,0 -1.231,-0.058 -2.463,-0.176 -0.998,-0.116 -1.759,-0.146 -2.287,-0.088 -0.118,0.06 -0.294,0.176 -0.527,0.352 -0.176,0.88 -0.471,3.05 -0.88,6.51 -0.235,1.994 -0.998,6.567 -2.287,13.722 -0.998,4.516 -2.375,11.201 -4.134,20.055 -0.294,1.818 -0.675,3.519 -1.144,5.102 -0.411,2.229 -0.851,4.429 -1.319,6.598 -0.646,2.463 -1.877,4.046 -3.694,4.75 -1.583,0.585 -2.61,0.703 -3.079,0.352 -0.763,-0.527 -1.202,-0.91 -1.319,-1.144 -0.118,-0.703 -0.352,-1.759 -0.703,-3.166 -0.118,-0.353 -0.88,-2.521 -2.287,-6.51 -0.352,-1.231 -0.91,-3.107 -1.671,-5.63 -0.764,-2.345 -1.496,-4.719 -2.199,-7.124 -1.174,-3.636 -2.962,-9.382 -5.366,-17.24 -0.41,-2.053 -1.114,-4.516 -2.11,-7.389 -2.463,0.587 -4.047,0.879 -4.75,0.879 -0.998,0 -1.936,-0.204 -2.814,-0.615 -0.646,-0.528 -0.968,-1.201 -0.968,-2.023 0,-1.407 0.615,-2.315 1.847,-2.727 2.815,-0.88 5.102,-1.319 6.861,-1.319 0.585,-0.176 1.465,-0.352 2.639,-0.528 1.056,0.118 2.463,0 4.222,-0.352 1.76,-0.352 2.932,-0.527 3.519,-0.527 0.88,0 1.672,0.176 2.375,0.527 0.586,0.528 0.88,1.203 0.88,2.023 0,1.466 -0.704,2.405 -2.111,2.814 -1.29,0.06 -3.05,0.439 -5.277,1.144 0.117,2.054 0.381,3.725 0.792,5.014 0.879,2.639 2.11,6.305 3.694,10.995 0.058,0.587 0.204,1.379 0.439,2.375 1.231,4.692 3.312,11.318 6.245,19.879 0.352,-0.819 0.792,-2.429 1.319,-4.828 0.645,-3.395 1.056,-5.414 1.231,-6.059 1.056,-4.097 1.964,-8.281 2.727,-12.555 1.113,-5.853 1.7,-8.925 1.76,-9.218 0.761,-3.687 1.289,-6.643 1.583,-8.867 0.233,-1.639 0.439,-3.248 0.615,-4.829 -0.059,-0.058 -0.118,-0.116 -0.176,-0.176 -3.988,0.06 -6.157,0.06 -6.509,0 -0.527,0 -1.231,-0.462 -2.111,-1.387 0,-0.058 0.044,-0.145 0.132,-0.26 0.089,-0.115 0.161,-0.203 0.221,-0.261 -0.06,-0.347 -0.03,-0.837 0.088,-1.474 0.645,-0.808 1.788,-1.3 3.431,-1.474 1.407,-0.115 3.576,-0.317 6.509,-0.607 1.289,-0.058 3.048,-0.115 5.277,-0.173 2.814,-0.23 4.163,-0.347 4.046,-0.347 2.463,0 3.694,0.734 3.694,2.199 -0.003,0.412 -0.091,0.852 -0.267,1.32 z"
           transform="matrix(0.23988406,0,0,0.23988406,0.25,0)" />
      </g>
    </g>
    <g
       aria-label="="
       style="font-style:normal;font-variant:normal;font-weight:normal;font-stretch:normal;font-size:15.26951599px;line-height:1.25;font-family:'URW Gothic L';-inkscape-font-specification:'URW Gothic L';letter-spacing:0px;word-spacing:0px;fill:#000000;fill-opacity:1;stroke:none;stroke-width:0.38173789"
       id="text14">
      <path
         d="m 117.0651,31.601344 0.64121,-0.424981 -0.39516,-0.760494 3.71299,-0.246042 0.23113,0.454805 -0.59646,0.447349 0.19385,0.760494 -3.64589,0.492084 0.0745,-0.417526 z m 0.0522,-3.750276 0.23858,-0.387703 -0.0447,-0.715758 3.68317,-0.134205 0.0149,0.275865 -0.46226,0.6412 0.46226,0.559187 -0.0969,0.246042 -3.52661,0.395158 0.1864,-0.424981 z"
         style="font-style:normal;font-variant:normal;font-weight:normal;font-stretch:normal;font-family:AngryBirds;-inkscape-font-specification:AngryBirds;stroke-width:0.38173789"
         id="path1197" />
    </g>
    <g
       id="g18"
       transform="matrix(1.442789,0,0,1.442789,-2.9808281,-149.47818)">
      <path
         style="opacity:1;fill:#ffffff;fill-opacity:1;stroke:#ffffff;stroke-width:0.1;stroke-linecap:round;stroke-linejoin:round;stroke-miterlimit:4;stroke-dasharray:none;stroke-dashoffset:0;stroke-opacity:1"
         d="m 36.947174,116.61086 h 10.583333 v 14.83557 H 36.947174 Z"
         id="rect847" />
      <g
         aria-label="?"
         style="font-style:normal;font-variant:normal;font-weight:normal;font-stretch:normal;font-size:13.90325642px;line-height:1.25;font-family:'URW Gothic L';-inkscape-font-specification:'URW Gothic L';letter-spacing:0px;word-spacing:0px;fill:#00ff00;fill-opacity:1;stroke:#000000;stroke-width:0.1;stroke-miterlimit:4;stroke-dasharray:none"
         id="text40">
        <path
           d="m 39.261911,119.27773 0.332646,-0.29191 q -0.02716,-0.0407 -0.06789,-0.095 -0.02716,-0.0407 -0.08146,-0.0883 -0.04752,-0.0543 -0.07468,-0.10862 0.807855,-0.23761 1.608922,-0.3055 0.801066,-0.0679 1.649654,0.0407 0.67887,0.0815 1.208388,0.43447 0.529519,0.34623 0.862165,0.84859 0.332646,0.49558 0.454843,1.09298 0.128985,0.59741 -0.01358,1.19481 -0.108619,0.44806 -0.407321,0.80107 -0.298703,0.35301 -0.739969,0.65171 -0.434476,0.29871 -0.984361,0.54989 -0.549885,0.25118 -1.160868,0.47521 -0.08146,0.2376 -0.142562,0.46163 -0.05431,0.21724 -0.09504,0.42769 -0.04073,0.19687 -0.05431,0.36659 -0.01358,0.16293 -0.04073,0.27155 l -0.21045,0.18329 -0.583828,-0.52952 -0.224027,0.70603 -0.176506,-0.0272 q -0.02716,-0.16972 -0.07468,-0.44805 -0.04073,-0.28513 -0.08146,-0.61099 -0.04073,-0.33264 -0.07468,-0.67887 -0.03394,-0.34622 -0.03394,-0.65171 0.251181,-0.13577 0.597405,-0.30549 0.346224,-0.16972 0.706025,-0.3598 0.488786,-0.27834 0.862165,-0.59741 0.373378,-0.31907 0.475209,-0.64493 0.122196,-0.40053 0.04073,-0.73996 -0.08146,-0.33944 -0.291914,-0.59062 -0.21045,-0.25118 -0.52273,-0.40732 -0.31228,-0.16293 -0.644927,-0.19009 -0.400533,-0.0272 -0.889319,-0.0272 -0.488786,0 -1.018305,0.095 l 0.543096,-0.57025 z m 0.570251,10.34598 q -0.142563,-0.10183 -0.196873,-0.24439 -0.05431,-0.14935 0,-0.31907 0.05431,-0.17651 0.224027,-0.3598 0.169718,-0.19008 0.475209,-0.37338 0.09504,-0.0543 0.285126,-0.0882 0.196872,-0.034 0.41411,-0.0475 0.217239,-0.0136 0.393745,0 0.183295,0.0136 0.237604,0.0543 0.06789,0.0407 0.135774,0.18329 0.07468,0.13578 0.08146,0.31228 0.0068,0.16972 -0.08146,0.3598 -0.08146,0.1833 -0.325857,0.35301 -0.15614,0.10862 -0.414111,0.15614 -0.25797,0.0543 -0.509152,0.0747 -0.244394,0.0204 -0.454843,0 -0.21045,-0.0204 -0.264759,-0.0611 z"
           style="font-style:normal;font-variant:normal;font-weight:normal;font-stretch:normal;font-family:AngryBirds;-inkscape-font-specification:AngryBirds;fill:#00ff00;stroke:#000000;stroke-width:0.1;stroke-miterlimit:4;stroke-dasharray:none"
           id="path1201" />
      </g>
    </g>
    <g
       aria-label="Use um conectivo lógico para completar a expressão:"
       style="font-style:normal;font-variant:normal;font-weight:normal;font-stretch:normal;font-size:5.78488922px;line-height:1.25;font-family:'URW Gothic L';-inkscape-font-specification:'URW Gothic L';letter-spacing:0px;word-spacing:0px;fill:#000000;fill-opacity:1;stroke:none;stroke-width:0.14462222"
       id="text14-2-3">
      <path
         d="m 7.628621,12.724152 q 0,-0.299413 0.016948,-0.635547 0.019773,-0.336133 0.039545,-0.638371 0.019773,-0.305063 0.04237,-0.542333 0.022597,-0.237271 0.036721,-0.353082 l 0.07909,-0.03955 0.1271094,0.166654 0.1525313,-0.155356 0.1553559,0.485841 0.2937639,-0.386978 q -0.028247,0.220323 -0.053668,0.514087 -0.025422,0.293764 -0.04237,0.618599 -0.014123,0.324835 -0.016948,0.652495 0,0.03955 0,0.07909 0,0.282465 0.019773,0.53386 0.019773,0.28529 0.062142,0.511262 0.04237,0.225972 0.1186354,0.336133 0.1045122,0.149707 0.2259723,0.200551 0.098863,0.04237 0.2061996,0.04237 0.022597,0 0.048019,0 0.1327587,-0.0113 0.268342,-0.06214 0.1355834,-0.05367 0.2626928,-0.112986 0,-0.237271 -0.00282,-0.547983 -0.00282,-0.313536 -0.00282,-0.655319 0,-0.341783 -0.00282,-0.686391 -0.00282,-0.347432 -0.00282,-0.64967 v -0.52821 -0.338958 l 0.098863,-0.05649 0.2542187,0.536684 0.220323,-0.49149 q 0.04519,0.0056 0.135583,0.01695 0.09039,0.0113 0.152532,0.01695 0,0.155356 0.0028,0.44912 0.0057,0.290939 0.0057,0.669442 v 0.813501 q 0,0.434996 -0.0085,0.878467 -0.0056,0.440645 -0.01412,0.861519 -0.0085,0.418048 -0.01977,0.765481 l -0.06779,0.03954 -0.214674,-0.432172 -0.2146731,0.386977 -0.1836025,-0.04519 -0.025422,-0.237271 q -0.2655173,0.138408 -0.5395087,0.225972 -0.2739913,0.08474 -0.5140868,0.110162 -0.1073368,0.0113 -0.2061997,0.01412 -0.1186354,0 -0.2203229,-0.01977 Q 8.1144613,15.003647 8.0410203,14.916083 7.8432946,14.690111 7.7359578,14.122356 7.628621,13.551776 7.628621,12.724152 Z"
         style="font-style:normal;font-variant:normal;font-weight:normal;font-stretch:normal;font-family:AngryBirds;-inkscape-font-specification:AngryBirds;stroke-width:0.14462222"
         id="path1204" />
      <path
         d="m 10.922166,12.735451 q 0.0226,-0.293764 0.175129,-0.536684 0.155356,-0.24292 0.395451,-0.418049 0.240096,-0.177953 0.53386,-0.290939 0.296588,-0.112986 0.604475,-0.146882 0.05932,-0.0085 0.144058,-0.0113 0.0226,0 0.04519,0.0028 0.115811,0.0028 0.197726,0.0085 l 0.0226,0.07344 -0.375679,0.209024 0.299413,0.144058 -0.127109,0.12146 0.08756,0.16383 q -0.209024,0.01695 -0.412399,0.05649 -0.20055,0.03955 -0.361556,0.110161 -0.15818,0.07062 -0.268342,0.172304 -0.110161,0.09886 -0.132758,0.231622 -0.0057,0.0339 -0.0057,0.06779 0,0.107337 0.07627,0.180778 0.09886,0.09886 0.237271,0.16383 0.07062,0.02825 0.144057,0.05367 0.07627,0.02542 0.149707,0.05084 0.07062,0.0226 0.132758,0.03955 0.06497,0.01695 0.110162,0.02825 0.276816,0.08756 0.432172,0.240095 0.15818,0.152531 0.15818,0.44912 0,0.313536 -0.172304,0.553632 -0.169479,0.240095 -0.533859,0.423698 -0.144057,0.07062 -0.290939,0.118635 -0.146882,0.04802 -0.288115,0.08192 -0.138408,0.03672 -0.262693,0.05367 -0.124284,0.01695 -0.228796,0.02825 l 0.09886,-0.183602 -0.265517,-0.07627 0.115811,-0.172304 -0.09886,-0.104512 q 0.09886,-0.0226 0.217498,-0.04802 0.118636,-0.02825 0.240096,-0.06214 0.110161,-0.0339 0.223147,-0.08191 0.112986,-0.05084 0.203375,-0.118636 0.09321,-0.07062 0.152532,-0.155356 0.06214,-0.08474 0.06214,-0.180777 0,-0.12146 -0.118635,-0.200551 -0.118636,-0.07909 -0.262693,-0.124284 -0.149707,-0.05084 -0.299413,-0.08474 -0.146882,-0.03672 -0.220323,-0.06497 -0.259868,-0.104512 -0.409575,-0.282465 -0.127109,-0.152532 -0.127109,-0.401101 0,-0.03955 0.0028,-0.08192 z"
         style="font-style:normal;font-variant:normal;font-weight:normal;font-stretch:normal;font-family:AngryBirds;-inkscape-font-specification:AngryBirds;stroke-width:0.14462222"
         id="path1206" />
      <path
         d="m 13.574516,11.68468 0.07909,-0.186427 -0.03955,-0.07627 1.655246,-0.110161 0.05084,0.225972 -0.358731,0.24857 0.341783,0.104512 -0.04519,0.127109 -0.844572,0.07627 -0.01977,0.889765 0.844571,-0.02825 -0.09604,0.302238 0.166654,0.06779 -0.02825,0.155356 -0.875642,0.08756 0.03672,0.943434 0.872818,-0.0339 -0.05649,0.299413 0.155356,0.07062 -0.06497,0.220323 -1.364308,0.07909 0.0226,-0.293764 -0.353081,0.0226 0.03672,-2.706018 -0.07062,-0.11581 0.248569,-0.214674 z"
         style="font-style:normal;font-variant:normal;font-weight:normal;font-stretch:normal;font-family:AngryBirds;-inkscape-font-specification:AngryBirds;stroke-width:0.14462222"
         id="path1208" />
      <path
         d="m 16.87371,13.59697 q 0,-0.324835 0.0028,-0.587528 0.0028,-0.262692 0.01695,-0.508437 0.01412,-0.245745 0.03672,-0.502788 0.0226,-0.257044 0.06497,-0.564931 l 0.189252,0.07627 0.225972,-0.172304 0.214674,0.132758 0.07909,-0.02825 q -0.01695,0.172304 -0.03672,0.451944 -0.01977,0.276816 -0.03955,0.581879 -0.01977,0.302238 -0.02825,0.590352 -0.0028,0.124285 -0.0056,0.228797 0,0.141233 0.0085,0.251394 0.02825,0.545158 0.293764,0.69204 0.08756,0.04802 0.200551,0.04802 0.225972,0 0.545158,-0.194901 0.03389,-0.08192 0.05367,-0.234446 0.0226,-0.155356 0.0339,-0.347432 0.0113,-0.194901 0.01695,-0.415224 0.0056,-0.220323 0.0056,-0.443471 0.0056,-0.375678 0.0085,-0.742883 0.0028,-0.37003 0.01412,-0.618599 l 0.158181,-0.03955 0.194901,0.392626 0.254219,-0.370029 0.135583,-0.0056 q -0.0056,0.237271 -0.01412,0.65532 -0.0056,0.415224 -0.0113,0.923661 -0.0056,0.508438 -0.0056,1.056421 0,0.545158 0.0113,1.033823 l -0.144057,-0.04802 -0.194901,0.169479 -0.214674,-0.141233 -0.169479,0.08192 q -0.0056,-0.02825 -0.01977,-0.07627 -0.01412,-0.05084 -0.05367,-0.155356 -0.172304,0.07627 -0.381328,0.132759 -0.209024,0.05367 -0.409574,0.07344 -0.107337,0.0113 -0.2062,0.0113 -0.08474,0 -0.16383,-0.0085 -0.169479,-0.01695 -0.262693,-0.08756 -0.144057,-0.104513 -0.225972,-0.288115 -0.08192,-0.186427 -0.12146,-0.381328 -0.03955,-0.197726 -0.04802,-0.367205 -0.0085,-0.172304 -0.0085,-0.254219 z"
         style="font-style:normal;font-variant:normal;font-weight:normal;font-stretch:normal;font-family:AngryBirds;-inkscape-font-specification:AngryBirds;stroke-width:0.14462222"
         id="path1210" />
      <path
         d="m 19.87914,15.10251 0.177953,-3.770912 0.180778,-0.07626 0.220323,0.502788 0.24292,-0.403925 0.12146,0.12146 0.101688,-0.08756 0.52256,1.627 h 0.09321 l 0.514087,-1.643948 0.166654,0.127109 0.225973,-0.177953 0.197725,0.282465 0.254219,-0.231621 0.172304,3.609906 -0.110162,0.02825 -0.183602,-0.310712 -0.115811,0.288114 -0.104512,-0.09321 -0.144057,0.05932 -0.12711,-1.765409 -0.104512,-0.02825 -0.6073,1.629825 -0.104512,-0.09039 -0.110162,0.04519 -0.596002,-1.528137 -0.09321,-0.0113 -0.12146,1.793655 -0.177953,0.05084 -0.220323,-0.350257 -0.172304,0.432172 z"
         style="font-style:normal;font-variant:normal;font-weight:normal;font-stretch:normal;font-family:AngryBirds;-inkscape-font-specification:AngryBirds;stroke-width:0.14462222"
         id="path1212" />
      <path
         d="m 24.508746,13.280609 q 0,-0.166655 0.04802,-0.443471 0.05084,-0.27964 0.15818,-0.56493 0.107337,-0.288115 0.282466,-0.522561 0.177953,-0.234446 0.432172,-0.316361 0.282465,-0.08756 0.539508,-0.118635 0.08474,-0.0113 0.177953,-0.0085 0.180778,0 0.375679,0.04237 0.0113,0.01695 0.01695,0.04237 0.0056,0.02542 0.01695,0.04237 l -0.398276,0.141233 0.276816,0.155356 -0.12146,0.104512 0.04802,0.144057 q -0.07627,0.0056 -0.169479,0.01695 -0.09321,0.0113 -0.186427,0.03107 -0.09039,0.01695 -0.175129,0.03955 -0.08474,0.0226 -0.146882,0.05649 -0.11581,0.05649 -0.197725,0.214674 -0.07909,0.155356 -0.129934,0.341783 -0.04802,0.183602 -0.07344,0.367205 -0.0226,0.180778 -0.0226,0.290939 0,0.09886 0.01412,0.234446 0.01695,0.135584 0.05084,0.282466 0.0339,0.144057 0.09321,0.273991 0.06214,0.129934 0.161005,0.211849 0.05084,0.04519 0.155356,0.07062 0.104512,0.02542 0.231622,0.03955 0.127109,0.0113 0.259868,0.01695 0.135583,0.0057 0.251394,0.0057 -0.0113,0.0113 -0.02542,0.03107 -0.0113,0.01977 -0.02825,0.04802 l 0.12146,0.132759 -0.288114,0.163829 0.316361,0.115811 q -0.0113,0.04519 -0.0226,0.06779 -0.347433,0.07627 -0.69769,0.09604 -0.05084,0.0028 -0.101687,0.0028 -0.288115,0 -0.531035,-0.09886 -0.220323,-0.08756 -0.358731,-0.28529 -0.138408,-0.20055 -0.217498,-0.44912 -0.07627,-0.248569 -0.107337,-0.516911 -0.02825,-0.268342 -0.02825,-0.499964 z"
         style="font-style:normal;font-variant:normal;font-weight:normal;font-stretch:normal;font-family:AngryBirds;-inkscape-font-specification:AngryBirds;stroke-width:0.14462222"
         id="path1214" />
      <path
         d="m 26.954896,13.698658 q -0.0113,-0.155356 -0.01412,-0.310712 0,-0.172304 0.01695,-0.344608 0.05649,-0.590352 0.16383,-0.926486 0.107337,-0.336134 0.316361,-0.514087 0.07627,-0.06497 0.192077,-0.129934 0.118635,-0.06779 0.262692,-0.115811 0.146882,-0.05084 0.313537,-0.07062 0.07909,-0.0085 0.15818,-0.0085 l 0.177953,0.0113 -0.0113,0.336133 0.282465,-0.172303 0.12146,0.177953 0.192077,-0.07627 q 0.214673,0.220323 0.327659,0.632722 0.115811,0.409575 0.115811,1.005577 0,0.197725 -0.0226,0.432172 -0.0226,0.234446 -0.08191,0.460418 -0.05649,0.223148 -0.152531,0.412399 -0.09604,0.186428 -0.240096,0.29094 -0.203375,0.144057 -0.409575,0.220323 -0.203375,0.07626 -0.398276,0.09604 -0.09039,0.0085 -0.180777,0.0085 -0.09886,0 -0.189252,-0.0113 -0.172304,-0.0226 -0.313537,-0.07627 -0.177953,-0.06497 -0.310711,-0.259869 -0.129934,-0.197725 -0.211849,-0.468892 -0.07909,-0.271167 -0.104513,-0.598826 z m 0.689216,-0.52821 q -0.0085,0.110161 -0.0056,0.217498 0,0.203375 0.02825,0.401101 0.04237,0.299413 0.158181,0.480191 0.05649,0.09321 0.166654,0.141232 0.110162,0.04519 0.234446,0.04519 0.124285,0 0.237271,-0.04237 0.112986,-0.04519 0.172304,-0.138408 0.05649,-0.09321 0.110161,-0.268342 0.05649,-0.177953 0.08756,-0.389802 0.0339,-0.214674 0.03955,-0.446295 0,-0.03107 0,-0.06214 0,-0.197726 -0.0339,-0.381328 -0.03672,-0.211849 -0.124285,-0.378503 -0.08474,-0.166655 -0.231621,-0.254219 -0.09321,-0.05649 -0.217499,-0.05649 -0.0056,0 -0.01412,0 -0.132759,0.0028 -0.228797,0.09039 -0.166654,0.149706 -0.262692,0.437821 -0.09321,0.28529 -0.115811,0.604476 z"
         style="font-style:normal;font-variant:normal;font-weight:normal;font-stretch:normal;font-family:AngryBirds;-inkscape-font-specification:AngryBirds;stroke-width:0.14462222"
         id="path1216" />
      <path
         d="m 29.985749,11.453059 0.254219,-0.132759 0.203375,0.211849 0.254218,-0.08474 1.180705,2.143912 h 0.115811 l -0.0339,-2.126964 0.149707,-0.08756 0.259868,0.358731 0.24292,-0.36438 0.104512,0.01695 -0.0056,3.714418 -0.06497,0.03954 -0.2062,-0.214673 -0.290939,0.203375 -0.115811,-0.0226 -1.166581,-1.838849 -0.146882,-0.01695 -0.04519,1.867096 -0.166654,-0.0226 -0.225973,-0.307887 -0.169479,0.341783 -0.09886,-0.05084 z"
         style="font-style:normal;font-variant:normal;font-weight:normal;font-stretch:normal;font-family:AngryBirds;-inkscape-font-specification:AngryBirds;stroke-width:0.14462222"
         id="path1218" />
      <path
         d="m 33.155009,11.68468 0.07909,-0.186427 -0.03955,-0.07627 1.655246,-0.110161 0.05084,0.225972 -0.358731,0.24857 0.341783,0.104512 -0.04519,0.127109 -0.844572,0.07627 -0.01977,0.889765 0.844571,-0.02825 -0.09604,0.302238 0.166654,0.06779 -0.02825,0.155356 -0.875643,0.08756 0.03672,0.943434 0.872818,-0.0339 -0.05649,0.299413 0.155356,0.07062 -0.06497,0.220323 -1.364308,0.07909 0.0226,-0.293764 -0.353081,0.0226 0.03672,-2.706018 -0.07062,-0.11581 0.248569,-0.214674 z"
         style="font-style:normal;font-variant:normal;font-weight:normal;font-stretch:normal;font-family:AngryBirds;-inkscape-font-specification:AngryBirds;stroke-width:0.14462222"
         id="path1220" />
      <path
         d="m 35.253726,13.280609 q 0,-0.166655 0.04802,-0.443471 0.05084,-0.27964 0.15818,-0.56493 0.107337,-0.288115 0.282466,-0.522561 0.177953,-0.234446 0.432171,-0.316361 0.282466,-0.08756 0.539509,-0.118635 0.08474,-0.0113 0.177953,-0.0085 0.180778,0 0.375679,0.04237 0.0113,0.01695 0.01695,0.04237 0.0056,0.02542 0.01695,0.04237 l -0.398276,0.141233 0.276816,0.155356 -0.12146,0.104512 0.04802,0.144057 q -0.07627,0.0056 -0.169479,0.01695 -0.09321,0.0113 -0.186427,0.03107 -0.09039,0.01695 -0.175129,0.03955 -0.08474,0.0226 -0.146882,0.05649 -0.115811,0.05649 -0.197726,0.214674 -0.07909,0.155356 -0.129934,0.341783 -0.04802,0.183602 -0.07344,0.367205 -0.0226,0.180778 -0.0226,0.290939 0,0.09886 0.01412,0.234446 0.01695,0.135584 0.05084,0.282466 0.0339,0.144057 0.09321,0.273991 0.06214,0.129934 0.161005,0.211849 0.05084,0.04519 0.155356,0.07062 0.104512,0.02542 0.231621,0.03955 0.12711,0.0113 0.259869,0.01695 0.135583,0.0057 0.251394,0.0057 -0.0113,0.0113 -0.02542,0.03107 -0.0113,0.01977 -0.02825,0.04802 l 0.12146,0.132759 -0.288114,0.163829 0.316361,0.115811 q -0.0113,0.04519 -0.0226,0.06779 -0.347433,0.07627 -0.69769,0.09604 -0.05084,0.0028 -0.101687,0.0028 -0.288115,0 -0.531035,-0.09886 -0.220323,-0.08756 -0.358731,-0.28529 -0.138408,-0.20055 -0.217498,-0.44912 -0.07627,-0.248569 -0.107337,-0.516911 -0.02825,-0.268342 -0.02825,-0.499964 z"
         style="font-style:normal;font-variant:normal;font-weight:normal;font-stretch:normal;font-family:AngryBirds;-inkscape-font-specification:AngryBirds;stroke-width:0.14462222"
         id="path1222" />
      <path
         d="m 37.609487,11.670557 0.02825,-0.101688 2.285144,-0.16383 -0.09321,0.144058 0.16383,0.169479 -0.279641,0.177953 0.279641,0.12146 -0.0226,0.09886 -0.754182,0.05367 -0.03955,2.878322 -0.08756,0.02542 -0.189252,-0.4124 -0.132759,0.353082 -0.141233,-0.144057 -0.166654,0.104512 -0.02825,-2.770985 -0.700513,0.04519 0.02825,-0.104512 -0.09886,-0.07909 0.324835,-0.24292 z"
         style="font-style:normal;font-variant:normal;font-weight:normal;font-stretch:normal;font-family:AngryBirds;-inkscape-font-specification:AngryBirds;stroke-width:0.14462222"
         id="path1224" />
      <path
         d="m 40.397421,15.003647 v -3.598608 l 0.127109,-0.04519 0.192077,0.451944 0.24292,-0.434996 0.172303,0.09321 0.16383,-0.05932 -0.09886,3.657925 -0.07062,0.0226 -0.24292,-0.347433 -0.166654,0.305063 -0.149707,-0.05649 z"
         style="font-style:normal;font-variant:normal;font-weight:normal;font-stretch:normal;font-family:AngryBirds;-inkscape-font-specification:AngryBirds;stroke-width:0.14462222"
         id="path1226" />
      <path
         d="m 41.64309,11.359845 0.09321,-0.03955 0.259868,0.471717 0.104512,-0.415224 0.166655,0.115811 0.127109,-0.161006 0.536684,2.827478 0.104512,-0.02825 0.700514,-2.782284 0.09886,0.04519 0.172304,-0.09886 0.152531,0.418049 0.32201,-0.353082 0.03672,0.02825 -1.042297,3.691821 -0.127109,-0.0113 -0.161006,-0.225972 -0.268342,0.24857 -0.09604,-0.01695 -0.24292,-0.330485 -0.135583,0.282466 -0.08474,-0.0339 z"
         style="font-style:normal;font-variant:normal;font-weight:normal;font-stretch:normal;font-family:AngryBirds;-inkscape-font-specification:AngryBirds;stroke-width:0.14462222"
         id="path1228" />
      <path
         d="m 44.727611,13.698658 q -0.0113,-0.155356 -0.01412,-0.310712 0,-0.172304 0.01695,-0.344608 0.05649,-0.590352 0.16383,-0.926486 0.107336,-0.336134 0.316361,-0.514087 0.07626,-0.06497 0.192076,-0.129934 0.118636,-0.06779 0.262693,-0.115811 0.146882,-0.05084 0.313536,-0.07062 0.07909,-0.0085 0.158181,-0.0085 l 0.177953,0.0113 -0.0113,0.336133 0.282466,-0.172303 0.12146,0.177953 0.192076,-0.07627 q 0.214674,0.220323 0.32766,0.632722 0.115811,0.409575 0.115811,1.005577 0,0.197725 -0.0226,0.432172 -0.0226,0.234446 -0.08191,0.460418 -0.05649,0.223148 -0.152532,0.412399 -0.09604,0.186428 -0.240095,0.29094 -0.203375,0.144057 -0.409575,0.220323 -0.203375,0.07626 -0.398276,0.09604 -0.09039,0.0085 -0.180778,0.0085 -0.09886,0 -0.189251,-0.0113 -0.172304,-0.0226 -0.313537,-0.07627 -0.177953,-0.06497 -0.310712,-0.259869 -0.129934,-0.197725 -0.211849,-0.468892 -0.07909,-0.271167 -0.104512,-0.598826 z m 0.689215,-0.52821 q -0.0085,0.110161 -0.0056,0.217498 0,0.203375 0.02825,0.401101 0.04237,0.299413 0.15818,0.480191 0.05649,0.09321 0.166655,0.141232 0.110161,0.04519 0.234446,0.04519 0.124285,0 0.237271,-0.04237 0.112986,-0.04519 0.172304,-0.138408 0.05649,-0.09321 0.110161,-0.268342 0.05649,-0.177953 0.08756,-0.389802 0.0339,-0.214674 0.03954,-0.446295 0,-0.03107 0,-0.06214 0,-0.197726 -0.0339,-0.381328 -0.03672,-0.211849 -0.124285,-0.378503 -0.08474,-0.166655 -0.231622,-0.254219 -0.09321,-0.05649 -0.217498,-0.05649 -0.0056,0 -0.01412,0 -0.132759,0.0028 -0.228797,0.09039 -0.166655,0.149706 -0.262693,0.437821 -0.09321,0.28529 -0.115811,0.604476 z"
         style="font-style:normal;font-variant:normal;font-weight:normal;font-stretch:normal;font-family:AngryBirds;-inkscape-font-specification:AngryBirds;stroke-width:0.14462222"
         id="path1230" />
      <path
         d="m 49.004135,11.5265 0.110162,0.01695 0.161005,-0.11581 0.169479,0.28529 0.299413,-0.401101 0.09321,0.03107 -0.09886,3.112768 h 0.954733 l -0.237271,0.20055 0.324835,0.127109 -0.16383,0.197726 0.05932,0.08192 -1.302165,0.09604 -0.05084,-0.316361 -0.307887,0.04519 z"
         style="font-style:normal;font-variant:normal;font-weight:normal;font-stretch:normal;font-family:AngryBirds;-inkscape-font-specification:AngryBirds;stroke-width:0.14462222"
         id="path1232" />
      <path
         d="m 51.261036,14.297484 q -0.07909,-0.271167 -0.107336,-0.596002 -0.02542,-0.327659 0.0056,-0.658144 0.05649,-0.590352 0.16383,-0.926486 0.107337,-0.336134 0.316361,-0.514087 0.07627,-0.06497 0.192076,-0.129934 0.118636,-0.06779 0.262693,-0.115811 0.146882,-0.05084 0.313536,-0.07062 0.166655,-0.01977 0.336134,0.0028 l -0.0113,0.336133 0.282465,-0.172303 0.12146,0.177953 0.192076,-0.07627 q 0.214674,0.220323 0.32766,0.632722 0.115811,0.409575 0.115811,1.005577 0,0.197725 -0.0226,0.432172 -0.0226,0.234446 -0.08191,0.460418 -0.05649,0.223148 -0.152532,0.412399 -0.09604,0.186428 -0.240095,0.29094 -0.203375,0.144057 -0.409575,0.220323 -0.203375,0.07626 -0.4011,0.09604 -0.194902,0.01977 -0.37003,-0.0028 -0.172304,-0.0226 -0.310712,-0.07627 -0.177953,-0.06497 -0.310712,-0.259869 -0.129934,-0.197725 -0.211849,-0.468892 z m 0.703339,-1.731512 q -0.09321,0.28529 -0.118635,0.604476 -0.0226,0.319185 0.01977,0.621423 0.04519,0.299413 0.161005,0.477367 0.05649,0.09321 0.166655,0.141232 0.110161,0.04519 0.234446,0.04519 0.124285,0 0.237271,-0.04237 0.112986,-0.04519 0.172304,-0.138408 0.05649,-0.09321 0.110161,-0.268342 0.05649,-0.177953 0.08756,-0.389802 0.0339,-0.214674 0.03955,-0.446295 0.0056,-0.231622 -0.0339,-0.443471 -0.03672,-0.211849 -0.124285,-0.378503 -0.08474,-0.166655 -0.231622,-0.254219 -0.09886,-0.05649 -0.231621,-0.05367 -0.132759,0.0028 -0.228797,0.08757 -0.166655,0.149706 -0.259868,0.437821 z m 0.155356,-1.686318 0.646845,-0.9942778 0.132759,-0.011299 -0.03955,0.2287965 0.347432,-0.02825 -0.03672,0.138408 0.12146,0.05367 -0.768306,0.680742 -0.138408,-0.138408 -0.203375,0.127109 z"
         style="font-style:normal;font-variant:normal;font-weight:normal;font-stretch:normal;font-family:AngryBirds;-inkscape-font-specification:AngryBirds;stroke-width:0.14462222"
         id="path1234" />
      <path
         d="m 54.142182,13.664762 q -0.01412,-0.132759 -0.01412,-0.268342 0,-0.138408 0.01412,-0.28529 0.0339,-0.353082 0.09604,-0.632722 0.06497,-0.279641 0.175129,-0.488665 0.110161,-0.209025 0.282465,-0.347433 0.175129,-0.138408 0.434997,-0.220323 0.254218,-0.08192 0.494314,-0.09321 0.05649,-0.0028 0.115811,-0.0056 0.186427,0 0.384153,0.03672 l 0.03672,0.06779 -0.307887,0.11581 0.237271,0.220323 -0.155356,0.104513 0.07909,0.149706 q -0.09321,0.0056 -0.2062,0.01695 -0.110161,0.0085 -0.223147,0.03107 -0.112986,0.0226 -0.211849,0.05367 -0.09886,0.03107 -0.161005,0.08474 -0.144058,0.115811 -0.234447,0.36438 -0.09039,0.24857 -0.110161,0.536685 -0.0056,0.08191 -0.0056,0.163829 0,0.2062 0.03672,0.409575 0.05084,0.282465 0.186427,0.474542 0.07062,0.09321 0.169479,0.144057 0.101688,0.04802 0.217499,0.06214 0.05367,0.0056 0.104512,0.0056 l 0.127109,-0.0085 q 0.115811,-0.01695 0.214674,-0.05932 0.0113,-0.293764 0.0226,-0.564931 0.0085,-0.180777 0.0056,-0.341783 0,-0.07909 0,-0.152531 l 0.110162,-0.07344 0.189252,0.347433 0.225972,-0.336134 0.07626,-0.0226 q -0.0085,0.299413 -0.0085,0.618599 0,0.15818 0.0028,0.324835 0.0056,0.491489 0.01695,0.988628 l -0.203375,0.06779 -0.155356,-0.305063 -0.254219,0.209025 q 0,-0.02825 -0.0028,-0.06497 -0.0028,-0.03955 -0.01977,-0.104512 -0.344607,0.112986 -0.629897,0.112986 -0.06497,0 -0.12711,-0.0057 -0.333309,-0.03107 -0.516911,-0.180777 -0.12146,-0.09886 -0.228797,-0.268342 -0.107337,-0.172304 -0.180778,-0.395452 -0.07062,-0.223147 -0.09886,-0.48584 z"
         style="font-style:normal;font-variant:normal;font-weight:normal;font-stretch:normal;font-family:AngryBirds;-inkscape-font-specification:AngryBirds;stroke-width:0.14462222"
         id="path1236" />
      <path
         d="m 56.949884,15.003647 v -3.598608 l 0.12711,-0.04519 0.192076,0.451944 0.24292,-0.434996 0.172304,0.09321 0.16383,-0.05932 -0.09886,3.657925 -0.07062,0.0226 -0.24292,-0.347433 -0.166655,0.305063 -0.149707,-0.05649 z"
         style="font-style:normal;font-variant:normal;font-weight:normal;font-stretch:normal;font-family:AngryBirds;-inkscape-font-specification:AngryBirds;stroke-width:0.14462222"
         id="path1238" />
      <path
         d="m 58.246401,13.280609 q 0,-0.166655 0.04802,-0.443471 0.05084,-0.27964 0.158181,-0.56493 0.107337,-0.288115 0.282465,-0.522561 0.177953,-0.234446 0.432172,-0.316361 0.282465,-0.08756 0.539509,-0.118635 0.08474,-0.0113 0.177953,-0.0085 0.180778,0 0.375679,0.04237 0.0113,0.01695 0.01695,0.04237 0.0056,0.02542 0.01695,0.04237 l -0.398276,0.141233 0.276816,0.155356 -0.12146,0.104512 0.04802,0.144057 q -0.07627,0.0056 -0.16948,0.01695 -0.09321,0.0113 -0.186427,0.03107 -0.09039,0.01695 -0.175128,0.03955 -0.08474,0.0226 -0.146882,0.05649 -0.115811,0.05649 -0.197726,0.214674 -0.07909,0.155356 -0.129934,0.341783 -0.04802,0.183602 -0.07344,0.367205 -0.0226,0.180778 -0.0226,0.290939 0,0.09886 0.01412,0.234446 0.01695,0.135584 0.05084,0.282466 0.0339,0.144057 0.09321,0.273991 0.06214,0.129934 0.161005,0.211849 0.05084,0.04519 0.155356,0.07062 0.104512,0.02542 0.231621,0.03955 0.12711,0.0113 0.259868,0.01695 0.135584,0.0057 0.251394,0.0057 -0.0113,0.0113 -0.02542,0.03107 -0.0113,0.01977 -0.02825,0.04802 l 0.12146,0.132759 -0.288114,0.163829 0.316361,0.115811 q -0.0113,0.04519 -0.0226,0.06779 -0.347432,0.07627 -0.697689,0.09604 -0.05084,0.0028 -0.101687,0.0028 -0.288115,0 -0.531035,-0.09886 -0.220323,-0.08756 -0.358731,-0.28529 -0.138408,-0.20055 -0.217498,-0.44912 -0.07627,-0.248569 -0.107337,-0.516911 -0.02825,-0.268342 -0.02825,-0.499964 z"
         style="font-style:normal;font-variant:normal;font-weight:normal;font-stretch:normal;font-family:AngryBirds;-inkscape-font-specification:AngryBirds;stroke-width:0.14462222"
         id="path1240" />
      <path
         d="m 60.69255,13.698658 q -0.0113,-0.155356 -0.01412,-0.310712 0,-0.172304 0.01695,-0.344608 0.05649,-0.590352 0.16383,-0.926486 0.107337,-0.336134 0.316361,-0.514087 0.07626,-0.06497 0.192076,-0.129934 0.118636,-0.06779 0.262693,-0.115811 0.146882,-0.05084 0.313536,-0.07062 0.07909,-0.0085 0.158181,-0.0085 l 0.177953,0.0113 -0.0113,0.336133 0.282465,-0.172303 0.12146,0.177953 0.192076,-0.07627 q 0.214674,0.220323 0.32766,0.632722 0.115811,0.409575 0.115811,1.005577 0,0.197725 -0.0226,0.432172 -0.0226,0.234446 -0.08191,0.460418 -0.05649,0.223148 -0.152532,0.412399 -0.09604,0.186428 -0.240095,0.29094 -0.203375,0.144057 -0.409575,0.220323 -0.203375,0.07626 -0.398276,0.09604 -0.09039,0.0085 -0.180778,0.0085 -0.09886,0 -0.189251,-0.0113 -0.172304,-0.0226 -0.313537,-0.07627 -0.177953,-0.06497 -0.310712,-0.259869 -0.129934,-0.197725 -0.211849,-0.468892 -0.07909,-0.271167 -0.104512,-0.598826 z m 0.689216,-0.52821 q -0.0085,0.110161 -0.0056,0.217498 0,0.203375 0.02825,0.401101 0.04237,0.299413 0.15818,0.480191 0.05649,0.09321 0.166655,0.141232 0.110161,0.04519 0.234446,0.04519 0.124285,0 0.237271,-0.04237 0.112986,-0.04519 0.172304,-0.138408 0.05649,-0.09321 0.110161,-0.268342 0.05649,-0.177953 0.08756,-0.389802 0.0339,-0.214674 0.03955,-0.446295 0,-0.03107 0,-0.06214 0,-0.197726 -0.0339,-0.381328 -0.03672,-0.211849 -0.124285,-0.378503 -0.08474,-0.166655 -0.231622,-0.254219 -0.09321,-0.05649 -0.217498,-0.05649 -0.0056,0 -0.01412,0 -0.132759,0.0028 -0.228797,0.09039 -0.166655,0.149706 -0.262693,0.437821 -0.09321,0.28529 -0.11581,0.604476 z"
         style="font-style:normal;font-variant:normal;font-weight:normal;font-stretch:normal;font-family:AngryBirds;-inkscape-font-specification:AngryBirds;stroke-width:0.14462222"
         id="path1242" />
      <path
         d="m 64.748751,11.56322 0.0339,-0.141233 q 0.237271,-0.08756 0.542334,-0.152531 0.307887,-0.06497 0.612949,-0.08474 0.07909,-0.0056 0.155356,-0.0028 0.217499,0 0.4124,0.03672 0.262692,0.04802 0.40675,0.186427 0.231621,0.225973 0.313536,0.516912 0.05649,0.197726 0.05367,0.395451 0,0.09321 -0.0113,0.186427 -0.03672,0.293764 -0.177953,0.573405 -0.138408,0.276816 -0.350257,0.480191 -0.07062,0.06497 -0.180778,0.135583 -0.110161,0.06779 -0.245745,0.132759 -0.135583,0.06214 -0.296588,0.118635 -0.158181,0.05367 -0.319186,0.08756 l -0.0056,1.005576 -0.104513,0.03672 -0.11581,-0.324835 -0.231622,0.313536 -0.149707,-0.175128 -0.11581,0.07062 -0.02825,-2.892445 -0.127109,-0.09886 0.347432,-0.358731 z m 0.878468,0.426523 0.03107,1.358658 q 0.144057,-0.05084 0.265517,-0.110162 0.104512,-0.04519 0.20055,-0.09321 0.09886,-0.05084 0.146882,-0.09039 0.12146,-0.110162 0.2062,-0.259868 0.08756,-0.149707 0.112986,-0.305063 0.0085,-0.05649 0.0113,-0.107337 0,-0.09604 -0.03107,-0.183602 -0.04519,-0.138408 -0.194901,-0.231622 -0.07062,-0.04237 -0.186428,-0.04519 -0.0085,0 -0.01412,0.0028 -0.124285,0.0028 -0.245745,0.01412 -0.146882,0.0226 -0.302237,0.05084 z"
         style="font-style:normal;font-variant:normal;font-weight:normal;font-stretch:normal;font-family:AngryBirds;-inkscape-font-specification:AngryBirds;stroke-width:0.14462222"
         id="path1244" />
      <path
         d="m 67.155356,14.958453 0.745708,-3.570361 0.231621,0.07062 0.211849,-0.186427 0.319186,0.392627 0.180778,-0.353082 0.20055,0.12146 0.186427,-0.107337 0.675092,3.655101 -0.127109,-0.08756 -0.211849,0.12146 -0.16383,-0.209024 -0.155356,0.15818 -0.214673,-0.782429 -1.076193,0.08756 -0.2062,0.788078 -0.05932,0.0226 -0.183603,-0.231622 -0.231621,0.183603 z m 0.946258,-1.34736 0.827624,-0.07627 -0.288115,-1.296516 -0.24292,0.01695 z"
         style="font-style:normal;font-variant:normal;font-weight:normal;font-stretch:normal;font-family:AngryBirds;-inkscape-font-specification:AngryBirds;stroke-width:0.14462222"
         id="path1246" />
      <path
         d="m 70.132543,11.554746 0.01977,-0.107337 q 0.319186,-0.104512 0.638372,-0.15818 0.32201,-0.05649 0.621423,-0.05932 0.01695,0 0.03107,0 0.282466,0 0.528211,0.04802 0.257043,0.05084 0.446295,0.175129 0.172304,0.110161 0.273991,0.276816 0.104512,0.166654 0.124285,0.375678 0.0056,0.05084 0.0056,0.107337 0,0.161005 -0.04802,0.341783 -0.06214,0.240096 -0.214674,0.488665 -0.02825,0.05084 -0.08756,0.12711 -0.05932,0.07626 -0.129934,0.163829 -0.06779,0.08474 -0.149707,0.16948 -0.07909,0.08192 -0.155355,0.146882 0.07062,0.166654 0.149706,0.353081 0.08191,0.183603 0.158181,0.355906 0.07909,0.16948 0.149706,0.313537 0.07062,0.141233 0.110162,0.220323 l -0.03954,0.04237 -0.336134,-0.186427 -0.01695,0.288114 -0.115811,-0.05084 -0.104512,0.07062 -0.700514,-1.081842 -0.36438,0.144057 -0.02825,0.867168 -0.09321,-0.0113 -0.192076,-0.302238 -0.149707,0.389802 -0.104512,-0.04237 q -0.0057,-0.172304 -0.01977,-0.494314 -0.01412,-0.32201 -0.02542,-0.700514 -0.0113,-0.378503 -0.0113,-0.768306 0,-0.389802 0.0226,-0.708987 l 0.01695,-0.225973 -0.183603,-0.132758 0.305063,-0.276816 z m 0.833272,1.819077 q 0.209024,-0.08192 0.429347,-0.220323 0.220323,-0.138408 0.381329,-0.302238 0.161005,-0.166655 0.234446,-0.344608 0.0339,-0.07909 0.0339,-0.15818 0,-0.09321 -0.04802,-0.183603 -0.05084,-0.09321 -0.217498,-0.118635 -0.135583,-0.0226 -0.27964,-0.0226 -0.03107,0 -0.06497,0 -0.209025,0.0113 -0.457594,0.05367 z"
         style="font-style:normal;font-variant:normal;font-weight:normal;font-stretch:normal;font-family:AngryBirds;-inkscape-font-specification:AngryBirds;stroke-width:0.14462222"
         id="path1248" />
      <path
         d="m 72.99674,14.958453 0.745709,-3.570361 0.231621,0.07062 0.211849,-0.186427 0.319186,0.392627 0.180778,-0.353082 0.20055,0.12146 0.186427,-0.107337 0.675092,3.655101 -0.127109,-0.08756 -0.211849,0.12146 -0.16383,-0.209024 -0.155356,0.15818 -0.214673,-0.782429 -1.076193,0.08756 -0.2062,0.788078 -0.05932,0.0226 -0.183602,-0.231622 -0.231622,0.183603 z m 0.946259,-1.34736 0.827623,-0.07627 -0.288114,-1.296516 -0.24292,0.01695 z"
         style="font-style:normal;font-variant:normal;font-weight:normal;font-stretch:normal;font-family:AngryBirds;-inkscape-font-specification:AngryBirds;stroke-width:0.14462222"
         id="path1250" />
      <path
         d="m 77.092482,13.280609 q 0,-0.166655 0.04802,-0.443471 0.05084,-0.27964 0.158181,-0.56493 0.107337,-0.288115 0.282465,-0.522561 0.177953,-0.234446 0.432172,-0.316361 0.282465,-0.08756 0.539509,-0.118635 0.08474,-0.0113 0.177953,-0.0085 0.180778,0 0.375679,0.04237 0.0113,0.01695 0.01695,0.04237 0.0056,0.02542 0.01695,0.04237 l -0.398276,0.141233 0.276816,0.155356 -0.12146,0.104512 0.04802,0.144057 q -0.07626,0.0056 -0.169479,0.01695 -0.09321,0.0113 -0.186427,0.03107 -0.09039,0.01695 -0.175128,0.03955 -0.08474,0.0226 -0.146882,0.05649 -0.115811,0.05649 -0.197726,0.214674 -0.07909,0.155356 -0.129934,0.341783 -0.04802,0.183602 -0.07344,0.367205 -0.0226,0.180778 -0.0226,0.290939 0,0.09886 0.01412,0.234446 0.01695,0.135584 0.05084,0.282466 0.0339,0.144057 0.09321,0.273991 0.06214,0.129934 0.161006,0.211849 0.05084,0.04519 0.155355,0.07062 0.104513,0.02542 0.231622,0.03955 0.127109,0.0113 0.259868,0.01695 0.135583,0.0057 0.251394,0.0057 -0.0113,0.0113 -0.02542,0.03107 -0.0113,0.01977 -0.02825,0.04802 l 0.12146,0.132759 -0.288115,0.163829 0.316361,0.115811 q -0.0113,0.04519 -0.0226,0.06779 -0.347432,0.07627 -0.697689,0.09604 -0.05084,0.0028 -0.101688,0.0028 -0.288114,0 -0.531034,-0.09886 -0.220323,-0.08756 -0.358731,-0.28529 -0.138408,-0.20055 -0.217499,-0.44912 -0.07627,-0.248569 -0.107336,-0.516911 -0.02825,-0.268342 -0.02825,-0.499964 z"
         style="font-style:normal;font-variant:normal;font-weight:normal;font-stretch:normal;font-family:AngryBirds;-inkscape-font-specification:AngryBirds;stroke-width:0.14462222"
         id="path1252" />
      <path
         d="m 79.538635,13.698658 q -0.0113,-0.155356 -0.01412,-0.310712 0,-0.172304 0.01695,-0.344608 0.05649,-0.590352 0.16383,-0.926486 0.107337,-0.336134 0.316361,-0.514087 0.07627,-0.06497 0.192077,-0.129934 0.118635,-0.06779 0.262693,-0.115811 0.146882,-0.05084 0.313536,-0.07062 0.07909,-0.0085 0.158181,-0.0085 l 0.177953,0.0113 -0.0113,0.336133 0.282465,-0.172303 0.121461,0.177953 0.192076,-0.07627 q 0.214674,0.220323 0.32766,0.632722 0.11581,0.409575 0.11581,1.005577 0,0.197725 -0.0226,0.432172 -0.0226,0.234446 -0.08191,0.460418 -0.05649,0.223148 -0.152531,0.412399 -0.09604,0.186428 -0.240095,0.29094 -0.203376,0.144057 -0.409575,0.220323 -0.203375,0.07626 -0.398276,0.09604 -0.09039,0.0085 -0.180778,0.0085 -0.09886,0 -0.189252,-0.0113 -0.172304,-0.0226 -0.313536,-0.07627 -0.177953,-0.06497 -0.310712,-0.259869 -0.129934,-0.197725 -0.211849,-0.468892 -0.07909,-0.271167 -0.104512,-0.598826 z m 0.689215,-0.52821 q -0.0085,0.110161 -0.0056,0.217498 0,0.203375 0.02825,0.401101 0.04237,0.299413 0.158181,0.480191 0.05649,0.09321 0.166654,0.141232 0.110162,0.04519 0.234447,0.04519 0.124284,0 0.23727,-0.04237 0.112987,-0.04519 0.172304,-0.138408 0.05649,-0.09321 0.110162,-0.268342 0.05649,-0.177953 0.08756,-0.389802 0.0339,-0.214674 0.03955,-0.446295 0,-0.03107 0,-0.06214 0,-0.197726 -0.0339,-0.381328 -0.03672,-0.211849 -0.124284,-0.378503 -0.08474,-0.166655 -0.231622,-0.254219 -0.09321,-0.05649 -0.217498,-0.05649 -0.0056,0 -0.01412,0 -0.132758,0.0028 -0.228796,0.09039 -0.166655,0.149706 -0.262693,0.437821 -0.09321,0.28529 -0.115811,0.604476 z"
         style="font-style:normal;font-variant:normal;font-weight:normal;font-stretch:normal;font-family:AngryBirds;-inkscape-font-specification:AngryBirds;stroke-width:0.14462222"
         id="path1254" />
      <path
         d="m 82.518643,15.10251 0.177954,-3.770912 0.180777,-0.07626 0.220323,0.502788 0.24292,-0.403925 0.121461,0.12146 0.101687,-0.08756 0.522561,1.627 h 0.09321 l 0.514087,-1.643948 0.166655,0.127109 0.225972,-0.177953 0.197726,0.282465 0.254218,-0.231621 0.172304,3.609906 -0.110161,0.02825 -0.183603,-0.310712 -0.11581,0.288114 -0.104513,-0.09321 -0.144057,0.05932 -0.127109,-1.765409 -0.104512,-0.02825 -0.607301,1.629825 -0.104512,-0.09039 -0.110161,0.04519 -0.596002,-1.528137 -0.09321,-0.0113 -0.12146,1.793655 -0.177953,0.05084 -0.220323,-0.350257 -0.172304,0.432172 z"
         style="font-style:normal;font-variant:normal;font-weight:normal;font-stretch:normal;font-family:AngryBirds;-inkscape-font-specification:AngryBirds;stroke-width:0.14462222"
         id="path1256" />
      <path
         d="m 85.990145,11.56322 0.0339,-0.141233 q 0.237271,-0.08756 0.542334,-0.152531 0.307887,-0.06497 0.612949,-0.08474 0.07909,-0.0056 0.155356,-0.0028 0.217499,0 0.4124,0.03672 0.262692,0.04802 0.40675,0.186427 0.231621,0.225973 0.313536,0.516912 0.05649,0.197726 0.05367,0.395451 0,0.09321 -0.0113,0.186427 -0.03672,0.293764 -0.177953,0.573405 -0.138408,0.276816 -0.350257,0.480191 -0.07062,0.06497 -0.180778,0.135583 -0.110161,0.06779 -0.245745,0.132759 -0.135583,0.06214 -0.296588,0.118635 -0.158181,0.05367 -0.319186,0.08756 l -0.0056,1.005576 -0.104513,0.03672 -0.11581,-0.324835 -0.231622,0.313536 -0.149707,-0.175128 -0.11581,0.07062 -0.02825,-2.892445 -0.127109,-0.09886 0.347432,-0.358731 z m 0.878468,0.426523 0.03107,1.358658 q 0.144057,-0.05084 0.265517,-0.110162 0.104512,-0.04519 0.20055,-0.09321 0.09886,-0.05084 0.146882,-0.09039 0.121461,-0.110162 0.2062,-0.259868 0.08756,-0.149707 0.112986,-0.305063 0.0085,-0.05649 0.0113,-0.107337 0,-0.09604 -0.03107,-0.183602 -0.0452,-0.138408 -0.194901,-0.231622 -0.07062,-0.04237 -0.186428,-0.04519 -0.0085,0 -0.01412,0.0028 -0.124285,0.0028 -0.245745,0.01412 -0.146882,0.0226 -0.302237,0.05084 z"
         style="font-style:normal;font-variant:normal;font-weight:normal;font-stretch:normal;font-family:AngryBirds;-inkscape-font-specification:AngryBirds;stroke-width:0.14462222"
         id="path1258" />
      <path
         d="m 89.057713,11.5265 0.110161,0.01695 0.161005,-0.11581 0.16948,0.28529 0.299413,-0.401101 0.09321,0.03107 -0.09886,3.112768 h 0.954733 l -0.237271,0.20055 0.324835,0.127109 -0.163829,0.197726 0.05932,0.08192 -1.302165,0.09604 -0.05084,-0.316361 -0.307887,0.04519 z"
         style="font-style:normal;font-variant:normal;font-weight:normal;font-stretch:normal;font-family:AngryBirds;-inkscape-font-specification:AngryBirds;stroke-width:0.14462222"
         id="path1260" />
      <path
         d="m 91.195975,11.68468 0.07909,-0.186427 -0.03955,-0.07627 1.655246,-0.110161 0.05084,0.225972 -0.358731,0.24857 0.341783,0.104512 -0.04519,0.127109 -0.844572,0.07627 -0.01977,0.889765 0.844571,-0.02825 -0.09604,0.302238 0.166654,0.06779 -0.02825,0.155356 -0.875642,0.08756 0.03672,0.943434 0.872818,-0.0339 -0.05649,0.299413 0.155356,0.07062 -0.06497,0.220323 -1.364308,0.07909 0.0226,-0.293764 -0.353081,0.0226 0.03672,-2.706018 -0.07062,-0.11581 0.248569,-0.214674 z"
         style="font-style:normal;font-variant:normal;font-weight:normal;font-stretch:normal;font-family:AngryBirds;-inkscape-font-specification:AngryBirds;stroke-width:0.14462222"
         id="path1262" />
      <path
         d="m 93.266445,11.670557 0.02825,-0.101688 2.285144,-0.16383 -0.09321,0.144058 0.16383,0.169479 -0.279641,0.177953 0.279641,0.12146 -0.0226,0.09886 -0.754182,0.05367 -0.03955,2.878322 -0.08756,0.02542 -0.189252,-0.4124 -0.132758,0.353082 -0.141233,-0.144057 -0.166654,0.104512 -0.02825,-2.770985 -0.700514,0.04519 0.02825,-0.104512 -0.09886,-0.07909 0.324835,-0.24292 z"
         style="font-style:normal;font-variant:normal;font-weight:normal;font-stretch:normal;font-family:AngryBirds;-inkscape-font-specification:AngryBirds;stroke-width:0.14462222"
         id="path1264" />
      <path
         d="m 95.593962,14.958453 0.745708,-3.570361 0.231622,0.07062 0.211849,-0.186427 0.319185,0.392627 0.180778,-0.353082 0.200551,0.12146 0.186427,-0.107337 0.675092,3.655101 -0.12711,-0.08756 -0.211849,0.12146 -0.163829,-0.209024 -0.155356,0.15818 -0.214674,-0.782429 -1.076193,0.08756 -0.206199,0.788078 -0.05932,0.0226 -0.183603,-0.231622 -0.231621,0.183603 z m 0.946259,-1.34736 0.827623,-0.07627 -0.288115,-1.296516 -0.24292,0.01695 z"
         style="font-style:normal;font-variant:normal;font-weight:normal;font-stretch:normal;font-family:AngryBirds;-inkscape-font-specification:AngryBirds;stroke-width:0.14462222"
         id="path1266" />
      <path
         d="m 98.571149,11.554746 0.01977,-0.107337 q 0.319186,-0.104512 0.638372,-0.15818 0.32201,-0.05649 0.621424,-0.05932 0.01695,0 0.03107,0 0.282462,0 0.528212,0.04802 0.25704,0.05084 0.44629,0.175129 0.17231,0.110161 0.27399,0.276816 0.10452,0.166654 0.12429,0.375678 0.006,0.05084 0.006,0.107337 0,0.161005 -0.048,0.341783 -0.0621,0.240096 -0.21467,0.488665 -0.0282,0.05084 -0.0876,0.12711 -0.0593,0.07626 -0.12993,0.163829 -0.0678,0.08474 -0.14971,0.16948 -0.0791,0.08192 -0.15536,0.146882 0.0706,0.166654 0.14971,0.353081 0.0819,0.183603 0.15818,0.355906 0.0791,0.16948 0.14971,0.313537 0.0706,0.141233 0.11016,0.220323 l -0.0396,0.04237 -0.33613,-0.186427 -0.0169,0.288114 -0.11581,-0.05084 -0.10451,0.07062 -0.700514,-1.081842 -0.36438,0.144057 -0.02825,0.867168 -0.09321,-0.0113 -0.192076,-0.302238 -0.149707,0.389802 -0.104512,-0.04237 q -0.0056,-0.172304 -0.01977,-0.494314 -0.01412,-0.32201 -0.02542,-0.700514 -0.0113,-0.378503 -0.0113,-0.768306 0,-0.389802 0.0226,-0.708987 l 0.01695,-0.225973 -0.183602,-0.132758 0.305062,-0.276816 z m 0.833272,1.819077 q 0.209025,-0.08192 0.429348,-0.220323 0.220321,-0.138408 0.381331,-0.302238 0.161,-0.166655 0.23444,-0.344608 0.0339,-0.07909 0.0339,-0.15818 0,-0.09321 -0.048,-0.183603 -0.0508,-0.09321 -0.2175,-0.118635 -0.13558,-0.0226 -0.279639,-0.0226 -0.03107,0 -0.06497,0 -0.209025,0.0113 -0.457594,0.05367 z"
         style="font-style:normal;font-variant:normal;font-weight:normal;font-stretch:normal;font-family:AngryBirds;-inkscape-font-specification:AngryBirds;stroke-width:0.14462222"
         id="path1268" />
      <path
         d="m 102.5878,14.958453 0.74571,-3.570361 0.23162,0.07062 0.21185,-0.186427 0.31919,0.392627 0.18078,-0.353082 0.20055,0.12146 0.18642,-0.107337 0.6751,3.655101 -0.12711,-0.08756 -0.21185,0.12146 -0.16383,-0.209024 -0.15536,0.15818 -0.21467,-0.782429 -1.07619,0.08756 -0.2062,0.788078 -0.0593,0.0226 -0.1836,-0.231622 -0.23163,0.183603 z m 0.94626,-1.34736 0.82763,-0.07627 -0.28812,-1.296516 -0.24292,0.01695 z"
         style="font-style:normal;font-variant:normal;font-weight:normal;font-stretch:normal;font-family:AngryBirds;-inkscape-font-specification:AngryBirds;stroke-width:0.14462222"
         id="path1270" />
      <path
         d="m 106.73157,11.68468 0.0791,-0.186427 -0.0396,-0.07627 1.65525,-0.110161 0.0508,0.225972 -0.35873,0.24857 0.34178,0.104512 -0.0452,0.127109 -0.84457,0.07627 -0.0198,0.889765 0.84457,-0.02825 -0.096,0.302238 0.16665,0.06779 -0.0282,0.155356 -0.87565,0.08756 0.0367,0.943434 0.87282,-0.0339 -0.0565,0.299413 0.15535,0.07062 -0.065,0.220323 -1.36431,0.07909 0.0226,-0.293764 -0.35308,0.0226 0.0367,-2.706018 -0.0706,-0.11581 0.24857,-0.214674 z"
         style="font-style:normal;font-variant:normal;font-weight:normal;font-stretch:normal;font-family:AngryBirds;-inkscape-font-specification:AngryBirds;stroke-width:0.14462222"
         id="path1272" />
      <path
         d="m 108.82463,11.421987 0.0819,-0.05084 0.29941,0.225972 0.0113,-0.254219 0.065,0.02825 0.1497,-0.06497 0.53386,1.217425 0.55364,-1.273918 0.14405,0.03389 0.0424,0.401101 0.28812,-0.28529 0.0819,0.02825 -0.67227,1.714564 0.71747,1.768233 -0.1949,-0.0339 -0.0254,0.132759 -0.31636,-0.166655 -0.10451,0.138408 -0.53386,-1.158108 -0.51974,1.273919 h -0.16665 l -0.0537,-0.265518 -0.29376,0.166655 -0.0537,-0.02825 0.66097,-1.666545 z"
         style="font-style:normal;font-variant:normal;font-weight:normal;font-stretch:normal;font-family:AngryBirds;-inkscape-font-specification:AngryBirds;stroke-width:0.14462222"
         id="path1274" />
      <path
         d="m 111.28773,11.56322 0.0339,-0.141233 q 0.23727,-0.08756 0.54233,-0.152531 0.30789,-0.06497 0.61295,-0.08474 0.0791,-0.0056 0.15535,-0.0028 0.2175,0 0.4124,0.03672 0.2627,0.04802 0.40675,0.186427 0.23163,0.225973 0.31354,0.516912 0.0565,0.197726 0.0537,0.395451 0,0.09321 -0.0113,0.186427 -0.0367,0.293764 -0.17795,0.573405 -0.13841,0.276816 -0.35026,0.480191 -0.0706,0.06497 -0.18078,0.135583 -0.11016,0.06779 -0.24574,0.132759 -0.13559,0.06214 -0.29659,0.118635 -0.15818,0.05367 -0.31919,0.08756 l -0.006,1.005576 -0.10451,0.03672 -0.11581,-0.324835 -0.23162,0.313536 -0.14971,-0.175128 -0.11581,0.07062 -0.0282,-2.892445 -0.12711,-0.09886 0.34743,-0.358731 z m 0.87847,0.426523 0.0311,1.358658 q 0.14406,-0.05084 0.26552,-0.110162 0.10451,-0.04519 0.20055,-0.09321 0.0989,-0.05084 0.14688,-0.09039 0.12146,-0.110162 0.2062,-0.259868 0.0876,-0.149707 0.11298,-0.305063 0.008,-0.05649 0.0113,-0.107337 0,-0.09604 -0.0311,-0.183602 -0.0452,-0.138408 -0.1949,-0.231622 -0.0706,-0.04237 -0.18643,-0.04519 -0.008,0 -0.0141,0.0028 -0.12428,0.0028 -0.24575,0.01412 -0.14688,0.0226 -0.30223,0.05084 z"
         style="font-style:normal;font-variant:normal;font-weight:normal;font-stretch:normal;font-family:AngryBirds;-inkscape-font-specification:AngryBirds;stroke-width:0.14462222"
         id="path1276" />
      <path
         d="m 114.17453,11.554746 0.0198,-0.107337 q 0.31919,-0.104512 0.63837,-0.15818 0.32201,-0.05649 0.62142,-0.05932 0.017,0 0.0311,0 0.28246,0 0.52821,0.04802 0.25704,0.05084 0.44629,0.175129 0.17231,0.110161 0.27399,0.276816 0.10451,0.166654 0.12429,0.375678 0.006,0.05084 0.006,0.107337 0,0.161005 -0.048,0.341783 -0.0621,0.240096 -0.21468,0.488665 -0.0282,0.05084 -0.0876,0.12711 -0.0593,0.07626 -0.12993,0.163829 -0.0678,0.08474 -0.14971,0.16948 -0.0791,0.08192 -0.15536,0.146882 0.0706,0.166654 0.14971,0.353081 0.0819,0.183603 0.15818,0.355906 0.0791,0.16948 0.14971,0.313537 0.0706,0.141233 0.11016,0.220323 l -0.0396,0.04237 -0.33613,-0.186427 -0.017,0.288114 -0.11581,-0.05084 -0.10451,0.07062 -0.70052,-1.081842 -0.36438,0.144057 -0.0282,0.867168 -0.0932,-0.0113 -0.19207,-0.302238 -0.14971,0.389802 -0.10451,-0.04237 q -0.006,-0.172304 -0.0198,-0.494314 -0.0141,-0.32201 -0.0254,-0.700514 -0.0113,-0.378503 -0.0113,-0.768306 0,-0.389802 0.0226,-0.708987 l 0.0169,-0.225973 -0.1836,-0.132758 0.30506,-0.276816 z m 0.83327,1.819077 q 0.20902,-0.08192 0.42935,-0.220323 0.22032,-0.138408 0.38133,-0.302238 0.161,-0.166655 0.23444,-0.344608 0.0339,-0.07909 0.0339,-0.15818 0,-0.09321 -0.048,-0.183603 -0.0508,-0.09321 -0.2175,-0.118635 -0.13558,-0.0226 -0.27964,-0.0226 -0.0311,0 -0.065,0 -0.20902,0.0113 -0.45759,0.05367 z"
         style="font-style:normal;font-variant:normal;font-weight:normal;font-stretch:normal;font-family:AngryBirds;-inkscape-font-specification:AngryBirds;stroke-width:0.14462222"
         id="path1278" />
      <path
         d="m 117.16019,11.68468 0.0791,-0.186427 -0.0395,-0.07627 1.65525,-0.110161 0.0508,0.225972 -0.35873,0.24857 0.34178,0.104512 -0.0452,0.127109 -0.84457,0.07627 -0.0198,0.889765 0.84458,-0.02825 -0.096,0.302238 0.16665,0.06779 -0.0282,0.155356 -0.87565,0.08756 0.0367,0.943434 0.87282,-0.0339 -0.0565,0.299413 0.15535,0.07062 -0.065,0.220323 -1.36431,0.07909 0.0226,-0.293764 -0.35308,0.0226 0.0367,-2.706018 -0.0706,-0.11581 0.24857,-0.214674 z"
         style="font-style:normal;font-variant:normal;font-weight:normal;font-stretch:normal;font-family:AngryBirds;-inkscape-font-specification:AngryBirds;stroke-width:0.14462222"
         id="path1280" />
      <path
         d="m 119.28715,12.735451 q 0.0226,-0.293764 0.17513,-0.536684 0.15535,-0.24292 0.39545,-0.418049 0.24009,-0.177953 0.53386,-0.290939 0.29659,-0.112986 0.60447,-0.146882 0.0593,-0.0085 0.14406,-0.0113 0.0226,0 0.0452,0.0028 0.11581,0.0028 0.19772,0.0085 l 0.0226,0.07344 -0.37568,0.209024 0.29941,0.144058 -0.12711,0.12146 0.0876,0.16383 q -0.20903,0.01695 -0.4124,0.05649 -0.20055,0.03955 -0.36156,0.110161 -0.15818,0.07062 -0.26834,0.172304 -0.11016,0.09886 -0.13276,0.231622 -0.006,0.0339 -0.006,0.06779 0,0.107337 0.0763,0.180778 0.0989,0.09886 0.23727,0.16383 0.0706,0.02825 0.14406,0.05367 0.0763,0.02542 0.1497,0.05084 0.0706,0.0226 0.13276,0.03955 0.065,0.01695 0.11016,0.02825 0.27682,0.08756 0.43218,0.240095 0.15818,0.152531 0.15818,0.44912 0,0.313536 -0.17231,0.553632 -0.16948,0.240095 -0.53386,0.423698 -0.14405,0.07062 -0.29094,0.118635 -0.14688,0.04802 -0.28811,0.08192 -0.13841,0.03672 -0.26269,0.05367 -0.12429,0.01695 -0.2288,0.02825 l 0.0989,-0.183602 -0.26552,-0.07627 0.11582,-0.172304 -0.0989,-0.104512 q 0.0989,-0.0226 0.2175,-0.04802 0.11864,-0.02825 0.2401,-0.06214 0.11016,-0.0339 0.22314,-0.08191 0.11299,-0.05084 0.20338,-0.118636 0.0932,-0.07062 0.15253,-0.155356 0.0621,-0.08474 0.0621,-0.180777 0,-0.12146 -0.11863,-0.200551 -0.11864,-0.07909 -0.2627,-0.124284 -0.1497,-0.05084 -0.29941,-0.08474 -0.14688,-0.03672 -0.22032,-0.06497 -0.25987,-0.104512 -0.40958,-0.282465 -0.12711,-0.152532 -0.12711,-0.401101 0,-0.03955 0.003,-0.08192 z"
         style="font-style:normal;font-variant:normal;font-weight:normal;font-stretch:normal;font-family:AngryBirds;-inkscape-font-specification:AngryBirds;stroke-width:0.14462222"
         id="path1282" />
      <path
         d="m 121.91972,12.735451 q 0.0226,-0.293764 0.17513,-0.536684 0.15536,-0.24292 0.39545,-0.418049 0.2401,-0.177953 0.53386,-0.290939 0.29659,-0.112986 0.60448,-0.146882 0.0593,-0.0085 0.14406,-0.0113 0.0226,0 0.0452,0.0028 0.11581,0.0028 0.19773,0.0085 l 0.0226,0.07344 -0.37567,0.209024 0.29941,0.144058 -0.12711,0.12146 0.0876,0.16383 q -0.20902,0.01695 -0.4124,0.05649 -0.20055,0.03955 -0.36155,0.110161 -0.15818,0.07062 -0.26834,0.172304 -0.11016,0.09886 -0.13276,0.231622 -0.006,0.0339 -0.006,0.06779 0,0.107337 0.0763,0.180778 0.0989,0.09886 0.23728,0.16383 0.0706,0.02825 0.14405,0.05367 0.0763,0.02542 0.14971,0.05084 0.0706,0.0226 0.13276,0.03955 0.065,0.01695 0.11016,0.02825 0.27682,0.08756 0.43217,0.240095 0.15818,0.152531 0.15818,0.44912 0,0.313536 -0.1723,0.553632 -0.16948,0.240095 -0.53386,0.423698 -0.14406,0.07062 -0.29094,0.118635 -0.14688,0.04802 -0.28812,0.08192 -0.1384,0.03672 -0.26269,0.05367 -0.12428,0.01695 -0.2288,0.02825 l 0.0989,-0.183602 -0.26552,-0.07627 0.11581,-0.172304 -0.0989,-0.104512 q 0.0989,-0.0226 0.2175,-0.04802 0.11863,-0.02825 0.24009,-0.06214 0.11016,-0.0339 0.22315,-0.08191 0.11299,-0.05084 0.20337,-0.118636 0.0932,-0.07062 0.15254,-0.155356 0.0621,-0.08474 0.0621,-0.180777 0,-0.12146 -0.11864,-0.200551 -0.11863,-0.07909 -0.26269,-0.124284 -0.14971,-0.05084 -0.29941,-0.08474 -0.14689,-0.03672 -0.22033,-0.06497 -0.25986,-0.104512 -0.40957,-0.282465 -0.12711,-0.152532 -0.12711,-0.401101 0,-0.03955 0.003,-0.08192 z"
         style="font-style:normal;font-variant:normal;font-weight:normal;font-stretch:normal;font-family:AngryBirds;-inkscape-font-specification:AngryBirds;stroke-width:0.14462222"
         id="path1284" />
      <path
         d="m 124.45061,14.958453 0.74571,-3.570361 0.23162,0.07062 0.21185,-0.186427 0.31919,0.392627 0.18078,-0.353082 0.20055,0.12146 0.18642,-0.107337 0.6751,3.655101 -0.12711,-0.08756 -0.21185,0.12146 -0.16383,-0.209024 -0.15536,0.15818 -0.21467,-0.782429 -1.0762,0.08756 -0.2062,0.788078 -0.0593,0.0226 -0.18361,-0.231622 -0.23162,0.183603 z m 0.16101,-4.299122 q 0.0282,-0.04519 0.0508,-0.08192 0.0254,-0.03954 0.048,-0.07909 0.0876,-0.144057 0.18643,-0.245745 0.10169,-0.101687 0.28246,-0.129934 0.18643,-0.0339 0.29659,-0.0056 0.11299,0.02825 0.21185,0.09039 0.0508,0.03389 0.0989,0.07344 0.0508,0.03672 0.11017,0.07344 0.065,0.03955 0.1271,0.07062 0.0622,0.03107 0.14406,0.06214 0.0763,0.0226 0.14123,0.0085 0.0678,-0.01412 0.12429,-0.05367 0.0593,-0.04237 0.10451,-0.09321 0.0452,-0.05367 0.0876,-0.104512 0.0452,-0.05649 0.0847,-0.135583 0.0169,0 0.0339,0.0056 0.0198,0.0028 0.0367,0.0028 l -0.017,0.144057 h 0.13841 l -0.0113,0.132759 0.0819,0.03954 q -0.065,0.132759 -0.15536,0.271167 -0.0904,0.135583 -0.15818,0.197725 -0.14406,0.12711 -0.32483,0.161005 -0.17796,0.03107 -0.34744,-0.0226 -0.0282,-0.0113 -0.0678,-0.03107 -0.0367,-0.01977 -0.0819,-0.04802 -0.0452,-0.02825 -0.0989,-0.06214 -0.0508,-0.03672 -0.0989,-0.07344 -0.10451,-0.07062 -0.21185,-0.12711 -0.10451,-0.05649 -0.20902,-0.06779 -0.0452,0 -0.11299,0.06214 -0.0678,0.05932 -0.12993,0.132759 -0.0282,0.03389 -0.0537,0.07062 -0.0226,0.0339 -0.0508,0.06497 l -0.0226,0.02825 -0.0452,-0.0056 0.0508,-0.144057 h -0.17513 l 0.0367,-0.09886 q -0.0282,-0.0226 -0.0537,-0.03955 -0.0226,-0.01977 -0.0508,-0.04237 z m 0.78525,2.951762 0.82763,-0.07627 -0.28812,-1.296516 -0.24292,0.01695 z"
         style="font-style:normal;font-variant:normal;font-weight:normal;font-stretch:normal;font-family:AngryBirds;-inkscape-font-specification:AngryBirds;stroke-width:0.14462222"
         id="path1286" />
      <path
         d="m 127.45605,13.698658 q -0.0113,-0.155356 -0.0141,-0.310712 0,-0.172304 0.017,-0.344608 0.0565,-0.590352 0.16383,-0.926486 0.10734,-0.336134 0.31636,-0.514087 0.0763,-0.06497 0.19208,-0.129934 0.11863,-0.06779 0.26269,-0.115811 0.14688,-0.05084 0.31354,-0.07062 0.0791,-0.0085 0.15818,-0.0085 l 0.17795,0.0113 -0.0113,0.336133 0.28247,-0.172303 0.12146,0.177953 0.19207,-0.07627 q 0.21468,0.220323 0.32766,0.632722 0.11582,0.409575 0.11582,1.005577 0,0.197725 -0.0226,0.432172 -0.0226,0.234446 -0.0819,0.460418 -0.0565,0.223148 -0.15253,0.412399 -0.096,0.186428 -0.24009,0.29094 -0.20338,0.144057 -0.40958,0.220323 -0.20337,0.07626 -0.39827,0.09604 -0.0904,0.0085 -0.18078,0.0085 -0.0989,0 -0.18925,-0.0113 -0.17231,-0.0226 -0.31354,-0.07627 -0.17795,-0.06497 -0.31071,-0.259869 -0.12994,-0.197725 -0.21185,-0.468892 -0.0791,-0.271167 -0.10451,-0.598826 z m 0.68921,-0.52821 q -0.008,0.110161 -0.006,0.217498 0,0.203375 0.0282,0.401101 0.0424,0.299413 0.15818,0.480191 0.0565,0.09321 0.16665,0.141232 0.11017,0.04519 0.23445,0.04519 0.12429,0 0.23727,-0.04237 0.11299,-0.04519 0.17231,-0.138408 0.0565,-0.09321 0.11016,-0.268342 0.0565,-0.177953 0.0876,-0.389802 0.0339,-0.214674 0.0395,-0.446295 0,-0.03107 0,-0.06214 0,-0.197726 -0.0339,-0.381328 -0.0367,-0.211849 -0.12428,-0.378503 -0.0847,-0.166655 -0.23163,-0.254219 -0.0932,-0.05649 -0.21749,-0.05649 -0.006,0 -0.0141,0 -0.13276,0.0028 -0.22879,0.09039 -0.16666,0.149706 -0.2627,0.437821 -0.0932,0.28529 -0.11581,0.604476 z"
         style="font-style:normal;font-variant:normal;font-weight:normal;font-stretch:normal;font-family:AngryBirds;-inkscape-font-specification:AngryBirds;stroke-width:0.14462222"
         id="path1288" />
      <path
         d="m 130.51515,14.992349 q -0.10169,-0.110162 -0.11017,-0.231622 -0.006,-0.12146 0.0254,-0.319186 0.0169,-0.132758 0.096,-0.234446 0.0819,-0.104512 0.19773,-0.15818 0.11581,-0.05649 0.24574,-0.05649 0.12994,0 0.24575,0.07344 0.0339,0.0226 0.0537,0.127109 0.0226,0.104512 0.0141,0.234446 -0.008,0.129934 -0.0508,0.254219 -0.0395,0.124285 -0.11581,0.189252 -0.0706,0.05649 -0.16101,0.09886 -0.0876,0.03955 -0.17513,0.05649 -0.0847,0.01695 -0.15818,0.0085 -0.0706,-0.0085 -0.10733,-0.04237 z m 0.14688,-2.093068 q -0.10451,-0.110162 -0.11016,-0.231622 -0.006,-0.12146 0.0226,-0.319185 0.017,-0.132759 0.096,-0.237271 0.0819,-0.104512 0.19773,-0.158181 0.11581,-0.05649 0.24574,-0.05649 0.12994,0 0.24575,0.07627 0.0339,0.0226 0.0537,0.127109 0.0226,0.104512 0.0141,0.234446 -0.008,0.129934 -0.0509,0.254219 -0.0395,0.124285 -0.11298,0.189252 -0.0706,0.05649 -0.16101,0.09886 -0.0876,0.03955 -0.17513,0.05649 -0.0876,0.01695 -0.161,0.0085 -0.0706,-0.0085 -0.10451,-0.04237 z"
         style="font-style:normal;font-variant:normal;font-weight:normal;font-stretch:normal;font-family:AngryBirds;-inkscape-font-specification:AngryBirds;stroke-width:0.14462222"
         id="path1290" />
    </g>
    <path
       style="opacity:1;fill:#e580ff;fill-opacity:1;stroke:#e580ff;stroke-width:0.54321522;stroke-linecap:round;stroke-linejoin:round;stroke-miterlimit:4;stroke-dasharray:none;stroke-dashoffset:0;stroke-opacity:1"
       d="m 11.701859,21.494089 h 32.949785 c 2.30586,0 4.162202,1.856342 4.162202,4.162202 v 7.625381 c 0,2.30586 -1.856342,4.162202 -4.162202,4.162202 H 11.701859 c -2.3058596,0 -4.1622019,-1.856342 -4.1622019,-4.162202 v -7.625381 c 0,-2.30586 1.8563423,-4.162202 4.1622019,-4.162202 z"
       id="rect1090" />
    <g
       aria-label="2+5 = 7 "
       style="font-style:normal;font-variant:normal;font-weight:normal;font-stretch:normal;font-size:15.26951599px;line-height:1.25;font-family:'URW Gothic L';-inkscape-font-specification:'URW Gothic L';letter-spacing:0px;word-spacing:0px;fill:#000000;fill-opacity:1;stroke:none;stroke-width:0.38173789"
       id="text14-7">
      <path
         d="M 8.899547,35.277071 9.2797937,34.85209 Q 9.1605006,34.635871 9.0486633,34.471843 8.9442819,34.300359 8.9144586,34.225801 q 0.1491164,-0.246042 0.4398933,-0.73067 0.2907769,-0.492084 0.6412004,-1.125829 0.3504237,-0.633744 0.7306697,-1.364415 0.387703,-0.73067 0.738126,-1.468796 0.290777,-0.611377 0.551731,-1.185475 0.260954,-0.581554 0.417526,-1.066182 0.164028,-0.492084 0.201307,-0.879787 0.03728,-0.395158 -0.104381,-0.626288 -0.104382,-0.171484 -0.432438,-0.223675 -0.328056,-0.05965 -0.767949,-0.05219 -0.432438,0.0075 -0.931978,0.07456 -0.4920836,0.0671 -0.9170652,0.14166 l 0.4249816,-0.6412 -0.6262887,-0.246042 0.41007,-0.529363 q -0.059646,-0.04473 -0.1192931,-0.111838 -0.059646,-0.04473 -0.1267489,-0.09693 -0.059647,-0.05219 -0.1342047,-0.111838 0.4697165,-0.186395 1.073638,-0.342967 0.603921,-0.164028 1.237666,-0.246042 0.633744,-0.08201 1.237666,-0.05965 0.603921,0.02237 1.096005,0.216219 0.872331,0.350423 1.081093,1.118373 0.216219,0.760493 -0.134204,1.819219 -0.305689,0.917066 -0.656112,1.752118 -0.350424,0.827596 -0.753038,1.677559 -0.395158,0.857419 -0.872331,1.752117 -0.469716,0.894698 -1.05127,1.975792 0.454805,0 0.946889,0.0075 0.492084,0.0075 0.939433,0.01491 0.454805,0.0075 0.82014,0.02237 0.365335,0.01491 0.596465,0.01491 l 0.149117,0.417525 -1.051271,0.574098 0.976713,0.35788 -0.186396,0.454805 H 9.1306773 Z"
         style="font-style:normal;font-variant:normal;font-weight:normal;font-stretch:normal;font-family:AngryBirds;-inkscape-font-specification:AngryBirds;fill:#000000;stroke-width:0.38173789"
         id="path1294" />
      <path
         d="m 15.885649,30.669375 0.611377,-0.521907 -0.275865,-1.021447 1.72975,-0.156572 0.01491,-2.162187 0.82014,-0.05219 0.492084,-0.529363 0.469717,0.02982 v 2.63936 l 1.878866,-0.134205 0.02982,0.260954 -0.529363,0.73067 0.514452,0.536819 -0.04473,0.283321 -1.878867,0.432437 -0.134204,2.445509 h -0.827596 l -0.656112,-0.0671 -0.104382,-2.162187 -2.020526,0.119293 z"
         style="font-style:normal;font-variant:normal;font-weight:normal;font-stretch:normal;font-family:AngryBirds;-inkscape-font-specification:AngryBirds;fill:#000000;stroke-width:0.38173789"
         id="path1296" />
      <path
         d="m 22.662988,29.692663 0.05965,-5.837905 5.286176,-0.238587 0.119293,0.380247 -0.641201,0.596466 0.931978,0.439893 -0.07456,0.156572 -3.452044,0.283321 q -0.02982,0.566642 -0.04473,1.133284 -0.01491,0.492084 0.0075,1.028903 0.02237,0.529364 0.09693,0.954345 0.469717,-0.04473 0.946889,-0.0075 0.477172,0.03728 0.887242,0.126749 0.417526,0.08201 0.738127,0.216219 0.3206,0.126749 0.484628,0.260954 0.260953,0.216218 0.417526,0.603921 0.164028,0.387702 0.208762,0.864875 0.04473,0.469716 -0.01491,1.006535 -0.05965,0.536819 -0.238586,1.051271 -0.171484,0.506995 -0.462261,0.969256 -0.290777,0.454805 -0.685935,0.775405 -0.395159,0.3206 -0.90961,0.529363 -0.514452,0.201307 -1.043815,0.335512 -0.521907,0.126749 -1.021447,0.193851 -0.492084,0.0671 -0.857419,0.09693 0.02982,-0.104381 0.111837,-0.246042 0.08201,-0.149116 0.141661,-0.223675 l -0.671024,-0.14166 0.961801,-0.656112 -1.081094,-0.208763 v -0.201307 q 0.260954,-0.04473 0.6412,-0.126749 0.380247,-0.08947 0.775406,-0.201307 0.402614,-0.111837 0.78286,-0.26841 0.380247,-0.164028 0.641201,-0.365335 0.395158,-0.305688 0.618833,-0.663567 0.23113,-0.35788 0.275865,-0.715759 0.05219,-0.357879 -0.111837,-0.663568 -0.156572,-0.305688 -0.536819,-0.506996 -0.134205,-0.05965 -0.462261,-0.07456 -0.3206,-0.01491 -0.708303,0 -0.387702,0.01491 -0.782861,0.04473 -0.387702,0.02982 -0.648656,0.04473 l 0.141661,-0.842507 z"
         style="font-style:normal;font-variant:normal;font-weight:normal;font-stretch:normal;font-family:AngryBirds;-inkscape-font-specification:AngryBirds;fill:#000000;stroke-width:0.38173789"
         id="path1298" />
      <path
         d="m 32.817813,32.466228 0.6412,-0.424982 -0.395158,-0.760493 3.712998,-0.246042 0.23113,0.454805 -0.596465,0.447349 0.193851,0.760493 -3.645895,0.492084 0.07456,-0.417526 z m 0.05219,-3.750277 0.238586,-0.387702 -0.04474,-0.715759 3.683174,-0.134205 0.01491,0.275866 -0.462261,0.6412 0.462261,0.559186 -0.09693,0.246042 -3.526602,0.395159 0.186396,-0.424982 z"
         style="font-style:normal;font-variant:normal;font-weight:normal;font-stretch:normal;font-family:AngryBirds;-inkscape-font-specification:AngryBirds;fill:#000000;stroke-width:0.38173789"
         id="path1300" />
      <path
         d="m 40.989391,23.966595 0.02982,-0.246042 5.204161,-0.395159 -0.149116,0.790317 0.872331,-0.07456 -0.05219,0.656112 0.477172,0.02982 -3.787555,10.549983 -0.395159,-0.208763 -0.335512,0.208763 -0.04473,-0.991624 -1.148196,1.297313 -0.119293,-0.05965 3.094165,-9.849136 h -2.95996 l 0.23113,-0.439893 -0.611377,-0.3206 0.917066,-0.656112 z"
         style="font-style:normal;font-variant:normal;font-weight:normal;font-stretch:normal;font-family:AngryBirds;-inkscape-font-specification:AngryBirds;fill:#000000;stroke-width:0.38173789"
         id="path1302" />
    </g>
    <path
       style="opacity:1;fill:#e580ff;fill-opacity:1;stroke:#e580ff;stroke-width:0.5919528;stroke-linecap:round;stroke-linejoin:round;stroke-miterlimit:4;stroke-dasharray:none;stroke-dashoffset:0;stroke-opacity:1"
       d="m 71.314882,21.518457 h 40.863988 c 2.29881,0 4.14948,1.85067 4.14948,4.149485 v 7.602081 c 0,2.298814 -1.85067,4.149484 -4.14948,4.149484 H 71.314882 c -2.298814,0 -4.149484,-1.85067 -4.149484,-4.149484 v -7.602081 c 0,-2.298815 1.85067,-4.149485 4.149484,-4.149485 z"
       id="rect1090-5" />
    <g
       aria-label="10-3 = 6 "
       style="font-style:normal;font-variant:normal;font-weight:normal;font-stretch:normal;font-size:15.26951599px;line-height:1.25;font-family:'URW Gothic L';-inkscape-font-specification:'URW Gothic L';letter-spacing:0px;word-spacing:0px;fill:#000000;fill-opacity:1;stroke:none;stroke-width:0.38173789"
       id="text14-7-3">
      <path
         d="m 68.486007,25.715513 3.071797,-2.624448 0.439894,0.849964 0.745581,-0.454805 -0.08947,10.057899 1.707382,-0.01491 0.09693,0.462261 -0.76795,0.529363 0.738126,0.477172 -0.402614,0.41007 -4.764268,0.07456 0.566642,-0.469716 -0.842507,-0.536819 0.477172,-0.290777 -0.275865,-0.559186 1.72975,-0.201308 -0.275865,-7.127762 -1.379327,0.671024 -0.253498,-0.171484 0.529363,-1.036359 z"
         style="font-style:normal;font-variant:normal;font-weight:normal;font-stretch:normal;font-family:AngryBirds;-inkscape-font-specification:AngryBirds;fill:#000000;stroke-width:0.38173789"
         id="path1306" />
      <path
         d="m 75.43483,28.474166 q 0.02982,-0.469716 0.23113,-1.14074 0.208763,-0.671024 0.506996,-1.334592 0.298232,-0.663567 0.656112,-1.207842 0.357879,-0.544275 0.693391,-0.760494 0.290777,-0.186395 0.6412,-0.313144 0.357879,-0.126749 0.73067,-0.201307 0.372791,-0.07456 0.745582,-0.09693 0.372791,-0.02982 0.723215,0.02237 l -0.208763,1.312224 1.081093,-0.462261 0.104382,0.477172 0.753037,-0.156572 q 0.536819,0.700847 0.872331,1.72975 0.335512,1.021447 0.350424,2.244201 0.01491,1.342048 -0.156573,2.490244 -0.164028,1.14074 -0.484628,2.020526 -0.3206,0.879787 -0.790317,1.468797 -0.46226,0.581554 -1.043814,0.812684 -0.41007,0.171484 -0.917066,0.246042 -0.506995,0.07456 -1.028903,0.04473 -0.514451,-0.02982 -0.999079,-0.17894 -0.477173,-0.14166 -0.857419,-0.402614 -1.066182,-0.745582 -1.40915,-2.415685 -0.342968,-1.677559 -0.193851,-4.197626 z m 1.878866,0.917066 q 0,0.119293 0.01491,0.618833 0.01491,0.49954 0.08947,1.110917 0.07456,0.611377 0.246042,1.207842 0.17894,0.58901 0.484628,0.879787 0.201308,0.201307 0.462261,0.260953 0.260954,0.05965 0.514452,0.03728 0.260953,-0.02237 0.49954,-0.104381 0.238586,-0.08201 0.387702,-0.193851 0.260954,-0.186396 0.469717,-0.596466 0.216218,-0.41007 0.357879,-0.894698 0.149116,-0.492084 0.23113,-0.991624 0.08947,-0.506995 0.08947,-0.887242 0,-0.506996 0.0075,-1.021447 0.0075,-0.521908 -0.08201,-0.99908 -0.08201,-0.484628 -0.305689,-0.917066 -0.216218,-0.439893 -0.671023,-0.790316 -0.201307,-0.149117 -0.417526,-0.186396 -0.208763,-0.04473 -0.424982,-0.02237 -0.216219,0.02237 -0.417526,0.111837 -0.193851,0.08201 -0.365335,0.186395 -0.305688,0.201308 -0.521907,0.618833 -0.208763,0.41007 -0.350423,0.879787 -0.134205,0.469717 -0.208763,0.939433 -0.07456,0.462261 -0.08947,0.753038 z"
         style="font-style:normal;font-variant:normal;font-weight:normal;font-stretch:normal;font-family:AngryBirds;-inkscape-font-specification:AngryBirds;fill:#000000;stroke-width:0.38173789"
         id="path1308" />
      <path
         d="m 84.501106,29.69692 0.365335,-0.290777 -0.260954,-0.589009 3.146355,-0.246042 -0.499539,0.305688 0.611377,0.864875 -0.857419,0.551731 0.335511,0.506995 -2.699006,0.514452 -0.111837,-0.223675 0.723214,-0.581553 z"
         style="font-style:normal;font-variant:normal;font-weight:normal;font-stretch:normal;font-family:AngryBirds;-inkscape-font-specification:AngryBirds;fill:#000000;stroke-width:0.38173789"
         id="path1310" />
      <path
         d="m 89.093889,34.543202 0.08947,-0.305688 q 0.492084,-0.07456 1.043815,-0.223675 0.559186,-0.149116 1.096005,-0.357879 0.536819,-0.216219 0.984168,-0.49954 0.454805,-0.283321 0.708303,-0.633745 0.260954,-0.350423 0.283321,-0.753037 0.02237,-0.402614 -0.298233,-0.879787 -0.104381,-0.149116 -0.350423,-0.23113 -0.246042,-0.08947 -0.544275,-0.134205 -0.290777,-0.04473 -0.618833,-0.05219 -0.328056,-0.0075 -0.589009,-0.0075 l 0.134204,-0.44735 -0.3206,-0.260953 0.581554,-0.454805 -0.73067,-0.469717 q 0.454805,-0.246042 0.931977,-0.596465 0.484628,-0.350424 0.82014,-0.760494 0.335512,-0.417525 0.41007,-0.879786 0.08201,-0.469717 -0.268409,-0.939433 -0.305689,-0.395159 -0.760494,-0.477173 -0.447349,-0.08947 -0.879786,-0.05965 -0.305689,0.02982 -0.656112,0.07456 -0.350424,0.04473 -0.715759,0.104381 l 0.447349,-0.589009 -0.626289,-0.231131 0.626289,-0.424981 -0.447349,-0.506996 q 0.566642,-0.171484 1.23021,-0.253498 0.663568,-0.08201 1.297312,-0.08947 0.633745,-0.0075 1.155652,0.04473 0.529363,0.05219 0.805229,0.164028 0.656112,0.260954 0.969256,0.864875 0.313144,0.596466 0.23113,1.394238 -0.08201,0.790317 -0.566642,1.707383 -0.477172,0.917065 -1.409149,1.804308 1.036358,0.350423 1.588089,0.812684 0.55173,0.454805 0.685935,0.775405 0.216219,0.536819 0.141661,1.110917 -0.0671,0.566642 -0.35788,1.103461 -0.290776,0.529363 -0.745581,1.006536 -0.454805,0.469716 -1.006536,0.805228 -0.790317,0.492084 -1.78194,0.738126 -0.984168,0.253498 -1.856499,0.335512 0.01491,-0.04473 0.05219,-0.111837 l 0.05965,-0.119293 0.05965,-0.119294 -0.395159,-0.156572 0.790317,-0.656112 z"
         style="font-style:normal;font-variant:normal;font-weight:normal;font-stretch:normal;font-family:AngryBirds;-inkscape-font-specification:AngryBirds;fill:#000000;stroke-width:0.38173789"
         id="path1312" />
      <path
         d="m 99.904826,32.291545 0.641204,-0.424982 -0.39516,-0.760493 3.713,-0.246042 0.23113,0.454805 -0.59647,0.447349 0.19385,0.760493 -3.64589,0.492084 0.0746,-0.417525 z m 0.05219,-3.750277 0.238583,-0.387702 -0.0447,-0.715759 3.68317,-0.134204 0.0149,0.275865 -0.46226,0.6412 0.46226,0.559187 -0.0969,0.246042 -3.5266,0.395158 0.18639,-0.424982 z"
         style="font-style:normal;font-variant:normal;font-weight:normal;font-stretch:normal;font-family:AngryBirds;-inkscape-font-specification:AngryBirds;fill:#000000;stroke-width:0.38173789"
         id="path1314" />
      <path
         d="m 108.22552,31.299921 q -0.0149,-0.484628 -0.0298,-1.103461 -0.0149,-0.618833 0.0149,-1.304768 0.0298,-0.656112 0.0969,-1.342047 0.0746,-0.693391 0.23859,-1.334592 0.14912,-0.6412 0.40261,-1.178019 0.2535,-0.544275 0.61884,-0.946889 0.37279,-0.41007 0.86487,-0.656112 0.49954,-0.253498 1.15565,-0.313144 0.77541,-0.07456 1.45389,-0.04473 0.68593,0.02982 1.20039,0.178939 l -0.1193,0.216219 0.19385,0.260954 -1.14074,0.365335 1.25258,0.596465 -0.11184,0.149117 q -0.33551,-0.04473 -0.67102,-0.0671 -0.33551,-0.02237 -0.67102,0.0075 -0.45481,0.02982 -0.90961,0.171484 -0.44735,0.134205 -0.87233,0.454805 -0.27587,0.216218 -0.45481,0.506995 -0.17148,0.283321 -0.29078,0.67848 -0.11183,0.387702 -0.16402,0.902154 -0.0522,0.506996 -0.10439,1.148196 0.68594,-0.216219 1.30477,-0.275865 0.61884,-0.05965 1.14074,-0.01491 0.52191,0.04473 0.90961,0.186395 0.38771,0.134205 0.60392,0.305689 0.24605,0.186395 0.46972,0.536819 0.23113,0.342968 0.3877,0.790317 0.16403,0.439893 0.23113,0.931977 0.0746,0.484628 -0.007,0.946889 -0.0746,0.521907 -0.19385,0.9618 -0.11184,0.439894 -0.29824,0.82014 -0.17894,0.380247 -0.46971,0.715759 -0.29078,0.328056 -0.71576,0.596466 -0.27587,0.186395 -0.81269,0.275865 -0.52936,0.09692 -1.11837,0.08947 -0.58901,-0.0075 -1.13328,-0.134205 -0.53682,-0.119293 -0.84251,-0.365335 -0.21622,-0.171484 -0.4548,-0.484628 -0.23114,-0.313145 -0.4399,-0.775406 -0.20876,-0.46226 -0.35788,-1.073637 -0.14166,-0.611377 -0.15657,-1.379327 z m 2.05035,-0.05965 q -0.0447,0.395158 0,0.790316 0.0447,0.387703 0.15657,0.738126 0.1193,0.350424 0.29824,0.581554 0.2013,0.260954 0.49954,0.365335 0.29823,0.104382 0.60392,0.08201 0.30568,-0.02237 0.55918,-0.134204 0.26096,-0.119293 0.40262,-0.283321 0.18639,-0.246042 0.29823,-0.618833 0.11184,-0.372791 0.1342,-0.782861 0.0224,-0.417526 -0.0447,-0.82014 -0.0671,-0.402614 -0.2535,-0.693391 -0.1342,-0.231131 -0.46971,-0.365336 -0.33552,-0.14166 -0.72322,-0.156572 -0.38025,-0.01491 -0.72321,0.126749 -0.34297,0.134205 -0.51446,0.454805 -0.17148,0.3206 -0.22367,0.715759 z"
         style="font-style:normal;font-variant:normal;font-weight:normal;font-stretch:normal;font-family:AngryBirds;-inkscape-font-specification:AngryBirds;fill:#000000;stroke-width:0.38173789"
         id="path1316" />
    </g>
  </g>
</svg>
