<?xml version="1.0" encoding="UTF-8" standalone="no"?>
<!-- Created with Inkscape (http://www.inkscape.org/) -->

<svg
   xmlns:dc="http://purl.org/dc/elements/1.1/"
   xmlns:cc="http://creativecommons.org/ns#"
   xmlns:rdf="http://www.w3.org/1999/02/22-rdf-syntax-ns#"
   xmlns:svg="http://www.w3.org/2000/svg"
   xmlns="http://www.w3.org/2000/svg"
   xmlns:sodipodi="http://sodipodi.sourceforge.net/DTD/sodipodi-0.dtd"
   xmlns:inkscape="http://www.inkscape.org/namespaces/inkscape"
   width="210mm"
   height="297mm"
   viewBox="0 0 210 297"
   version="1.1"
   id="svg1731"
   inkscape:version="0.92.1 r15371"
   sodipodi:docname="109.svg">
  <defs
     id="defs1725" />
  <sodipodi:namedview
     id="base"
     pagecolor="#ffffff"
     bordercolor="#666666"
     borderopacity="1.0"
     inkscape:pageopacity="0.0"
     inkscape:pageshadow="2"
     inkscape:zoom="0.35"
     inkscape:cx="400"
     inkscape:cy="560"
     inkscape:document-units="mm"
     inkscape:current-layer="layer1"
     showgrid="false"
     inkscape:window-width="1366"
     inkscape:window-height="704"
     inkscape:window-x="0"
     inkscape:window-y="27"
     inkscape:window-maximized="1" />
  <metadata
     id="metadata1728">
    <rdf:RDF>
      <cc:Work
         rdf:about="">
        <dc:format>image/svg+xml</dc:format>
        <dc:type
           rdf:resource="http://purl.org/dc/dcmitype/StillImage" />
        <dc:title></dc:title>
      </cc:Work>
    </rdf:RDF>
  </metadata>
  <g
     inkscape:label="Camada 1"
     inkscape:groupmode="layer"
     id="layer1">
    <path
       style="opacity:1;fill:#e6e6e6;fill-opacity:1;stroke:#cccccc;stroke-width:0.38010541;stroke-linecap:round;stroke-linejoin:round;stroke-miterlimit:4;stroke-dasharray:none;stroke-dashoffset:0;stroke-opacity:1"
       d="M 6.9777412,7.6790938 H 133.6294 V 46.570905 H 6.9777412 Z"
       id="rect334" />
    <g
       aria-label="q: Thor faz parte dos Vingadores.
p: Superman faz parte dos Vingadores.
então:"
       style="font-style:normal;font-variant:normal;font-weight:normal;font-stretch:normal;font-size:5.82200384px;line-height:1.25;font-family:'URW Gothic L';-inkscape-font-specification:'URW Gothic L';letter-spacing:0px;word-spacing:0px;fill:#000000;fill-opacity:1;stroke:none;stroke-width:0.14555006"
       id="text14-2">
      <path
         d="m 8.0458256,12.575857 q 0,-0.25585 0.017057,-0.503172 0.019899,-0.247321 0.071069,-0.4719 0.05117,-0.227422 0.1535099,-0.434945 0.1023399,-0.207522 0.2729064,-0.375246 0.1279249,-0.127925 0.3240764,-0.190466 0.1989943,-0.06538 0.4093597,-0.07676 0.05117,-0.0028 0.1023399,-0.0057 0.1535098,0 0.2928058,0.02843 0.1876232,0.03411 0.2899631,0.105183 0.1563522,0.105182 0.2729062,0.270063 0.116554,0.164881 0.190466,0.366718 0.07391,0.198995 0.108026,0.415046 0.03411,0.216051 0.03411,0.415045 0,0.116554 0.0028,0.227422 0,0.03696 0.0028,0.07391 0,0.07391 -0.0057,0.150667 -0.0057,0.116554 -0.01421,0.224579 -0.0085,0.108026 -0.03127,0.218894 -0.0398,0.210365 -0.139296,0.420731 -0.0995,0.207522 -0.338291,0.474743 0.09381,0.105183 0.193309,0.213208 0.10234,0.108026 0.150667,0.15351 l -0.07676,0.08244 -0.244478,-0.105183 -0.02843,0.210365 -0.1279251,0.01137 q -0.028428,-0.02843 -0.10234,-0.119397 -0.073912,-0.09097 -0.1535098,-0.187623 -0.1336105,0.0398 -0.2899631,0.06254 -0.1108682,0.01706 -0.2245792,0.01706 l -0.08244,-0.0028 Q 8.9214004,14.236037 8.7707333,14.18771 8.622909,14.13654 8.4949841,14.031358 8.3841159,13.943232 8.2988326,13.772665 8.2163921,13.602099 8.1595366,13.400261 8.1055239,13.195582 8.0742534,12.976688 8.0458256,12.754952 8.0458256,12.575857 Z m 0.6879516,-0.162039 q -0.00284,0.05117 -0.00284,0.10234 0,0.10234 0.00853,0.210366 0.011371,0.159195 0.045484,0.307019 0.036956,0.147825 0.093812,0.278592 0.059698,0.127925 0.1449815,0.201838 0.022742,0.02274 0.073912,0.02843 0.054013,0.0057 0.113711,0.0057 0.065384,0 0.139296,-0.0057 l -0.1449816,-0.329762 0.1506671,0.07391 0.1051827,-0.173409 0.090969,0.09097 q 0.062541,0.06254 0.1421388,0.136453 0.099497,-0.150667 0.1449815,-0.275749 0.045484,-0.127925 0.065384,-0.244479 0.017057,-0.116553 0.019899,-0.207522 0.00284,-0.09381 0.00284,-0.164881 0,-0.105183 -0.00569,-0.235951 -0.00569,-0.130767 -0.025585,-0.264378 -0.017057,-0.13361 -0.05117,-0.253007 Q 9.8111891,11.5752 9.7514908,11.495602 9.686107,11.418847 9.5780815,11.37052 9.4728988,11.31935 9.3535022,11.316507 q -0.00569,0 -0.014214,0 -0.113711,0 -0.2188937,0.04549 -0.113711,0.04833 -0.1762521,0.162038 -0.088126,0.156352 -0.1449815,0.375246 -0.054013,0.218894 -0.065384,0.514542 z"
         style="font-style:normal;font-variant:normal;font-weight:normal;font-stretch:normal;font-family:AngryBirds;-inkscape-font-specification:AngryBirds;stroke-width:0.14555006"
         id="path1772" />
      <path
         d="m 10.993784,14.218981 q -0.10234,-0.110868 -0.110869,-0.233108 -0.0057,-0.122239 0.02558,-0.321233 0.01706,-0.133611 0.09666,-0.235951 0.08244,-0.105182 0.198994,-0.159195 0.116554,-0.05686 0.247321,-0.05686 0.130768,0 0.247322,0.07391 0.03411,0.02274 0.05401,0.127925 0.02274,0.105183 0.01421,0.235951 -0.0085,0.130767 -0.05117,0.25585 -0.0398,0.125082 -0.116553,0.190465 -0.07107,0.05686 -0.162039,0.0995 -0.08813,0.0398 -0.176252,0.05686 -0.08528,0.01706 -0.159195,0.0085 -0.07107,-0.0085 -0.108025,-0.04264 z m 0.147824,-2.106497 q -0.105183,-0.110868 -0.110868,-0.233107 -0.0057,-0.12224 0.02274,-0.321234 0.01706,-0.13361 0.09665,-0.238793 0.08244,-0.105183 0.198994,-0.159195 0.116554,-0.05686 0.247322,-0.05686 0.130768,0 0.247321,0.07676 0.03411,0.02274 0.05401,0.127925 0.02274,0.105183 0.01421,0.23595 -0.0085,0.130768 -0.05117,0.25585 -0.0398,0.125082 -0.113711,0.190466 -0.07107,0.05686 -0.162038,0.0995 -0.08813,0.0398 -0.176252,0.05686 -0.08813,0.01706 -0.162038,0.0085 -0.07107,-0.0085 -0.105183,-0.04264 z"
         style="font-style:normal;font-variant:normal;font-weight:normal;font-stretch:normal;font-family:AngryBirds;-inkscape-font-specification:AngryBirds;stroke-width:0.14555006"
         id="path1774" />
      <path
         d="m 13.481212,10.608656 0.315548,-0.201837 -0.309863,-0.227422 0.176252,-0.2615353 -0.07676,-0.1108682 2.322548,-0.1051827 -0.09097,0.2075226 0.179095,0.1648806 -0.400831,0.227422 0.400831,0.0995 -0.01706,0.162038 -0.878417,0.05117 -0.02274,3.527884 -0.159195,0.07107 -0.30702,-0.454844 -0.233107,0.443473 -0.0597,-0.04833 -0.01137,-3.522199 -0.790291,0.07107 z"
         style="font-style:normal;font-variant:normal;font-weight:normal;font-stretch:normal;font-family:AngryBirds;-inkscape-font-specification:AngryBirds;stroke-width:0.14555006"
         id="path1776" />
      <path
         d="m 16.406428,14.275836 0.04833,-3.601796 0.238793,0.173409 0.30702,-0.267221 0.127924,0.08244 0.08813,-0.03127 -0.0398,1.577741 1.068883,-0.07391 0.0057,-1.566369 0.15351,0.184781 0.289963,-0.278592 0.204679,0.110868 0.0796,-0.02843 -0.04548,3.743935 -0.05686,0.01137 -0.198994,-0.292805 -0.173409,0.28712 -0.12224,-0.105183 -0.170566,0.0398 0.02274,-1.378746 -1.063198,0.0796 0.0057,1.304834 -0.164881,0.04264 -0.179095,-0.221736 -0.210366,0.238793 -0.110868,-0.06538 z"
         style="font-style:normal;font-variant:normal;font-weight:normal;font-stretch:normal;font-family:AngryBirds;-inkscape-font-specification:AngryBirds;stroke-width:0.14555006"
         id="path1778" />
      <path
         d="m 19.411241,12.91699 q -0.01137,-0.156353 -0.01421,-0.312706 0,-0.173409 0.01706,-0.346818 0.05686,-0.59414 0.164881,-0.93243 0.108025,-0.338291 0.31839,-0.517386 0.07675,-0.06538 0.193309,-0.130767 0.119397,-0.06823 0.264378,-0.116554 0.147825,-0.05117 0.315548,-0.07107 0.0796,-0.0085 0.159196,-0.0085 l 0.179095,0.01137 -0.01137,0.338291 0.284278,-0.17341 0.122239,0.179095 0.193309,-0.07676 q 0.216051,0.221737 0.329762,0.636782 0.116554,0.412202 0.116554,1.012028 0,0.198994 -0.02274,0.434945 -0.02274,0.23595 -0.08244,0.463372 -0.05685,0.224579 -0.15351,0.415045 -0.09665,0.187623 -0.241636,0.292806 -0.20468,0.144982 -0.412202,0.221736 -0.20468,0.07676 -0.400831,0.09666 -0.09097,0.0085 -0.181938,0.0085 -0.0995,0 -0.190466,-0.01137 -0.173409,-0.02274 -0.315548,-0.07675 -0.179095,-0.06538 -0.312705,-0.261535 -0.130768,-0.198995 -0.213209,-0.471901 -0.0796,-0.272906 -0.105182,-0.602668 z m 0.693637,-0.531599 q -0.0085,0.110868 -0.0057,0.218893 0,0.20468 0.02843,0.403675 0.04264,0.301334 0.159196,0.483271 0.05685,0.09381 0.167723,0.142139 0.110869,0.04548 0.235951,0.04548 0.125082,0 0.238793,-0.04264 0.113711,-0.04549 0.173409,-0.139296 0.05686,-0.09381 0.110868,-0.270064 0.05686,-0.179095 0.08813,-0.392303 0.03411,-0.216051 0.0398,-0.449158 0,-0.03127 0,-0.06254 0,-0.198995 -0.03411,-0.383775 -0.03696,-0.213208 -0.125082,-0.380932 -0.08528,-0.167724 -0.233108,-0.25585 -0.09381,-0.05686 -0.218893,-0.05686 -0.0057,0 -0.01421,0 -0.133611,0.0028 -0.230265,0.09097 -0.167724,0.150667 -0.264378,0.44063 -0.09381,0.28712 -0.116554,0.608354 z"
         style="font-style:normal;font-variant:normal;font-weight:normal;font-stretch:normal;font-family:AngryBirds;-inkscape-font-specification:AngryBirds;stroke-width:0.14555006"
         id="path1780" />
      <path
         d="m 22.373414,10.759323 0.0199,-0.108025 q 0.321234,-0.105183 0.642467,-0.159196 0.324077,-0.05685 0.625411,-0.0597 0.01706,0 0.03127,0 0.284278,0 0.531599,0.04833 0.258693,0.05117 0.449159,0.176252 0.173409,0.110869 0.275749,0.278592 0.105183,0.167724 0.125082,0.378089 0.0057,0.05117 0.0057,0.108026 0,0.162038 -0.04833,0.343976 -0.06254,0.241636 -0.216051,0.4918 -0.02843,0.05117 -0.08813,0.127925 -0.0597,0.07676 -0.130768,0.164881 -0.06823,0.08528 -0.150667,0.170566 -0.0796,0.08244 -0.156353,0.147825 0.07107,0.167723 0.150667,0.355346 0.08244,0.184781 0.159196,0.35819 0.0796,0.170567 0.150667,0.315548 0.07107,0.142139 0.110868,0.221737 l -0.0398,0.04264 -0.33829,-0.187623 -0.01706,0.289963 -0.116554,-0.05117 -0.105182,0.07107 -0.705009,-1.088783 -0.366718,0.144981 -0.02843,0.872732 -0.09381,-0.01137 -0.193309,-0.304177 -0.150667,0.392303 -0.105182,-0.04264 q -0.0057,-0.17341 -0.0199,-0.497486 -0.01421,-0.324077 -0.02558,-0.705008 -0.01137,-0.380932 -0.01137,-0.773235 0,-0.392303 0.02274,-0.713537 l 0.01706,-0.227422 -0.18478,-0.13361 0.307019,-0.278592 z m 0.838618,1.830748 q 0.210366,-0.08244 0.432102,-0.221737 0.221737,-0.139296 0.383775,-0.304177 0.162038,-0.167724 0.23595,-0.346818 0.03411,-0.0796 0.03411,-0.159196 0,-0.09381 -0.04833,-0.18478 -0.05117,-0.09381 -0.218893,-0.119397 -0.136454,-0.02274 -0.281435,-0.02274 -0.03127,0 -0.06538,0 -0.210365,0.01137 -0.46053,0.05401 z"
         style="font-style:normal;font-variant:normal;font-weight:normal;font-stretch:normal;font-family:AngryBirds;-inkscape-font-specification:AngryBirds;stroke-width:0.14555006"
         id="path1782" />
      <path
         d="m 26.51818,11.023701 0.116554,-0.164881 -0.05117,-0.173409 1.856332,-0.08813 -0.105183,0.361033 0.136453,0.08244 -0.0597,0.144982 -0.960858,0.06538 -0.01706,0.855676 0.861361,-0.0199 -0.07675,0.304177 0.176252,0.07107 -0.03411,0.162038 -0.93243,0.110868 0.03411,1.483929 -0.116554,0.04548 -0.201837,-0.417888 -0.181937,0.383775 -0.06823,-0.09381 -0.159195,0.04833 -0.03411,-2.825718 -0.122239,-0.03411 0.25585,-0.156353 z"
         style="font-style:normal;font-variant:normal;font-weight:normal;font-stretch:normal;font-family:AngryBirds;-inkscape-font-specification:AngryBirds;stroke-width:0.14555006"
         id="path1784" />
      <path
         d="m 28.508123,14.184867 0.750493,-3.593268 0.233107,0.07107 0.213208,-0.187623 0.321234,0.395145 0.181938,-0.355346 0.201837,0.122239 0.187623,-0.108026 0.679423,3.678552 -0.127925,-0.08813 -0.213208,0.122239 -0.164881,-0.210365 -0.156352,0.159195 -0.216051,-0.787449 -1.083098,0.08813 -0.207522,0.793135 -0.0597,0.02274 -0.18478,-0.233108 -0.233108,0.184781 z m 0.95233,-1.356003 0.832933,-0.07675 -0.289963,-1.304834 -0.244479,0.01706 z"
         style="font-style:normal;font-variant:normal;font-weight:normal;font-stretch:normal;font-family:AngryBirds;-inkscape-font-specification:AngryBirds;stroke-width:0.14555006"
         id="path1786" />
      <path
         d="m 31.535677,10.992431 0.233108,-0.213208 -0.227422,-0.15351 0.02843,-0.0796 1.950144,-0.09381 0.05401,0.139296 -0.164881,0.162039 0.176252,0.164881 -1.088783,2.638095 1.03477,0.02843 0.0057,0.116554 -0.284278,0.250164 0.250165,0.0796 -0.105183,0.09381 0.02843,0.08244 -1.583426,0.06823 0.0057,-0.218893 -0.284277,-0.0597 1.094468,-2.862674 -1.083097,0.02274 z"
         style="font-style:normal;font-variant:normal;font-weight:normal;font-stretch:normal;font-family:AngryBirds;-inkscape-font-specification:AngryBirds;stroke-width:0.14555006"
         id="path1788" />
      <path
         d="m 35.012392,10.767852 0.03411,-0.142139 q 0.238793,-0.08813 0.545813,-0.15351 0.309862,-0.06538 0.616882,-0.08528 0.0796,-0.0057 0.156353,-0.0028 0.218893,0 0.415045,0.03696 0.264378,0.04833 0.409359,0.187623 0.233108,0.227422 0.315548,0.520228 0.05686,0.198994 0.05401,0.397989 0,0.09381 -0.01137,0.187623 -0.03696,0.295648 -0.179095,0.577083 -0.139296,0.278592 -0.352504,0.483272 -0.07107,0.06538 -0.181938,0.136453 -0.110868,0.06823 -0.247321,0.133611 -0.136453,0.06254 -0.298491,0.119396 -0.159196,0.05401 -0.321234,0.08813 l -0.0057,1.012028 -0.105182,0.03696 -0.116554,-0.326919 -0.233108,0.315548 -0.150667,-0.176252 -0.116554,0.07107 -0.02843,-2.911001 -0.127925,-0.0995 0.349661,-0.361032 z m 0.884104,0.429259 0.03127,1.367375 q 0.144982,-0.05117 0.267221,-0.110869 0.105183,-0.04548 0.201837,-0.09381 0.0995,-0.05117 0.147824,-0.09097 0.12224,-0.110868 0.207523,-0.261535 0.08813,-0.150667 0.113711,-0.30702 0.0085,-0.05686 0.01137,-0.108026 0,-0.09665 -0.03127,-0.18478 -0.04548,-0.139296 -0.196152,-0.233108 -0.07107,-0.04264 -0.187623,-0.04548 -0.0085,0 -0.01421,0.0028 -0.125082,0.0028 -0.247321,0.01421 -0.147825,0.02274 -0.304177,0.05117 z"
         style="font-style:normal;font-variant:normal;font-weight:normal;font-stretch:normal;font-family:AngryBirds;-inkscape-font-specification:AngryBirds;stroke-width:0.14555006"
         id="path1790" />
      <path
         d="m 37.434436,14.184867 0.750493,-3.593268 0.233108,0.07107 0.213208,-0.187623 0.321233,0.395145 0.181938,-0.355346 0.201837,0.122239 0.187623,-0.108026 0.679424,3.678552 -0.127925,-0.08813 -0.213208,0.122239 -0.164881,-0.210365 -0.156353,0.159195 -0.216051,-0.787449 -1.083097,0.08813 -0.207523,0.793135 -0.0597,0.02274 -0.184781,-0.233108 -0.233107,0.184781 z m 0.95233,-1.356003 0.832933,-0.07675 -0.289963,-1.304834 -0.244478,0.01706 z"
         style="font-style:normal;font-variant:normal;font-weight:normal;font-stretch:normal;font-family:AngryBirds;-inkscape-font-specification:AngryBirds;stroke-width:0.14555006"
         id="path1792" />
      <path
         d="m 40.43072,10.759323 0.0199,-0.108025 q 0.321234,-0.105183 0.642468,-0.159196 0.324076,-0.05685 0.62541,-0.0597 0.01706,0 0.03127,0 0.284277,0 0.531599,0.04833 0.258692,0.05117 0.449158,0.176252 0.173409,0.110869 0.275749,0.278592 0.105183,0.167724 0.125082,0.378089 0.0057,0.05117 0.0057,0.108026 0,0.162038 -0.04833,0.343976 -0.06254,0.241636 -0.216051,0.4918 -0.02843,0.05117 -0.08813,0.127925 -0.0597,0.07676 -0.130768,0.164881 -0.06823,0.08528 -0.150667,0.170566 -0.0796,0.08244 -0.156353,0.147825 0.07107,0.167723 0.150668,0.355346 0.08244,0.184781 0.159195,0.35819 0.0796,0.170567 0.150667,0.315548 0.07107,0.142139 0.110868,0.221737 l -0.0398,0.04264 -0.33829,-0.187623 -0.01706,0.289963 -0.116554,-0.05117 -0.105183,0.07107 -0.705008,-1.088783 -0.366718,0.144981 -0.02843,0.872732 -0.09381,-0.01137 -0.193308,-0.304177 -0.150667,0.392303 -0.105183,-0.04264 q -0.0057,-0.17341 -0.0199,-0.497486 -0.01421,-0.324077 -0.02558,-0.705008 -0.01137,-0.380932 -0.01137,-0.773235 0,-0.392303 0.02274,-0.713537 l 0.01706,-0.227422 -0.18478,-0.13361 0.30702,-0.278592 z m 0.838619,1.830748 q 0.210365,-0.08244 0.432101,-0.221737 0.221737,-0.139296 0.383775,-0.304177 0.162038,-0.167724 0.23595,-0.346818 0.03411,-0.0796 0.03411,-0.159196 0,-0.09381 -0.04833,-0.18478 -0.05117,-0.09381 -0.218894,-0.119397 -0.136453,-0.02274 -0.281435,-0.02274 -0.03127,0 -0.06538,0 -0.210365,0.01137 -0.460529,0.05401 z"
         style="font-style:normal;font-variant:normal;font-weight:normal;font-stretch:normal;font-family:AngryBirds;-inkscape-font-specification:AngryBirds;stroke-width:0.14555006"
         id="path1794" />
      <path
         d="m 43.358779,10.875877 0.02843,-0.10234 2.299805,-0.164881 -0.09381,0.144982 0.164881,0.170566 -0.281435,0.179095 0.281435,0.122239 -0.02274,0.0995 -0.759021,0.05401 -0.0398,2.896788 -0.08813,0.02558 -0.190466,-0.415045 -0.133611,0.355347 -0.142138,-0.144982 -0.167724,0.105183 -0.02843,-2.788762 -0.705008,0.04548 0.02843,-0.105183 -0.0995,-0.0796 0.32692,-0.244479 z"
         style="font-style:normal;font-variant:normal;font-weight:normal;font-stretch:normal;font-family:AngryBirds;-inkscape-font-specification:AngryBirds;stroke-width:0.14555006"
         id="path1796" />
      <path
         d="m 46.07363,10.890091 0.0796,-0.187623 -0.0398,-0.07676 1.665866,-0.110868 0.05117,0.227422 -0.361032,0.250164 0.343976,0.105182 -0.04548,0.127925 -0.84999,0.07676 -0.0199,0.895475 0.84999,-0.02843 -0.09665,0.304177 0.167723,0.06823 -0.02843,0.156353 -0.881261,0.08813 0.03696,0.949487 0.878418,-0.03411 -0.05686,0.301334 0.156353,0.07107 -0.06538,0.221737 -1.37306,0.0796 0.02274,-0.295648 -0.355347,0.02274 0.03696,-2.723379 -0.07107,-0.116554 0.250164,-0.21605 z"
         style="font-style:normal;font-variant:normal;font-weight:normal;font-stretch:normal;font-family:AngryBirds;-inkscape-font-specification:AngryBirds;stroke-width:0.14555006"
         id="path1798" />
      <path
         d="m 49.393992,10.941261 0.139296,-0.150667 q -0.0057,-0.01137 -0.0199,-0.05686 -0.01137,-0.04833 -0.0398,-0.113711 0.162038,-0.04548 0.395146,-0.08528 0.233107,-0.04264 0.4918,-0.04833 0.03127,0 0.06254,0 0.224579,0 0.454844,0.03696 0.261535,0.0398 0.483272,0.162038 0.244479,0.133611 0.397988,0.366718 0.15351,0.233108 0.230265,0.514542 0.07391,0.272907 0.07391,0.574241 0,0.324076 -0.07675,0.631096 -0.07391,0.292806 -0.213208,0.545813 -0.139296,0.250164 -0.33829,0.406517 -0.33829,0.272906 -0.736279,0.432102 -0.397988,0.156352 -0.79882,0.196151 l -0.04264,-0.33829 -0.361033,0.04833 0.02558,-2.697794 -0.07107,-0.04548 0.176252,-0.179095 z m 0.784606,0.400831 q 0,0.494643 0.0057,0.938116 0,0.187623 0.0057,0.380932 0.0057,0.190466 0.01137,0.366718 0.0057,0.173409 0.01421,0.312705 0.0085,0.139296 0.02274,0.227422 0.193308,-0.05686 0.361032,-0.142139 0.167724,-0.08528 0.30702,-0.207522 0.139296,-0.122239 0.238793,-0.284278 0.0995,-0.164881 0.144981,-0.380932 0.0398,-0.210365 0.05117,-0.400831 0.0028,-0.03127 0,-0.06254 0,-0.156353 -0.03696,-0.292806 -0.04264,-0.162038 -0.15351,-0.28712 -0.110868,-0.125082 -0.301334,-0.196152 -0.07391,-0.02558 -0.176252,-0.02558 -0.01137,0 -0.0199,0 -0.113711,0.0028 -0.218894,0.01421 -0.122239,0.01706 -0.25585,0.0398 z"
         style="font-style:normal;font-variant:normal;font-weight:normal;font-stretch:normal;font-family:AngryBirds;-inkscape-font-specification:AngryBirds;stroke-width:0.14555006"
         id="path1800" />
      <path
         d="m 52.444289,12.91699 q -0.01137,-0.156353 -0.01421,-0.312706 0,-0.173409 0.01706,-0.346818 0.05686,-0.59414 0.164881,-0.93243 0.108026,-0.338291 0.318391,-0.517386 0.07675,-0.06538 0.193309,-0.130767 0.119396,-0.06823 0.264378,-0.116554 0.147824,-0.05117 0.315548,-0.07107 0.0796,-0.0085 0.159195,-0.0085 l 0.179095,0.01137 -0.01137,0.338291 0.284278,-0.17341 0.122239,0.179095 0.193309,-0.07676 q 0.216051,0.221737 0.329762,0.636782 0.116553,0.412202 0.116553,1.012028 0,0.198994 -0.02274,0.434945 -0.02274,0.23595 -0.08244,0.463372 -0.05686,0.224579 -0.15351,0.415045 -0.09665,0.187623 -0.241636,0.292806 -0.20468,0.144982 -0.412203,0.221736 -0.204679,0.07676 -0.400831,0.09666 -0.09097,0.0085 -0.181937,0.0085 -0.0995,0 -0.190466,-0.01137 -0.17341,-0.02274 -0.315548,-0.07675 -0.179095,-0.06538 -0.312706,-0.261535 -0.130767,-0.198995 -0.213208,-0.471901 -0.0796,-0.272906 -0.105183,-0.602668 z m 0.693638,-0.531599 q -0.0085,0.110868 -0.0057,0.218893 0,0.20468 0.02843,0.403675 0.04264,0.301334 0.159195,0.483271 0.05686,0.09381 0.167724,0.142139 0.110868,0.04548 0.23595,0.04548 0.125082,0 0.238793,-0.04264 0.113711,-0.04549 0.17341,-0.139296 0.05685,-0.09381 0.110868,-0.270064 0.05685,-0.179095 0.08813,-0.392303 0.03411,-0.216051 0.0398,-0.449158 0,-0.03127 0,-0.06254 0,-0.198995 -0.03411,-0.383775 -0.03696,-0.213208 -0.125083,-0.380932 -0.08528,-0.167724 -0.233107,-0.25585 -0.09381,-0.05686 -0.218894,-0.05686 -0.0057,0 -0.01421,0 -0.13361,0.0028 -0.230265,0.09097 -0.167723,0.150667 -0.264378,0.44063 -0.09381,0.28712 -0.116553,0.608354 z"
         style="font-style:normal;font-variant:normal;font-weight:normal;font-stretch:normal;font-family:AngryBirds;-inkscape-font-specification:AngryBirds;stroke-width:0.14555006"
         id="path1802" />
      <path
         d="m 55.400777,11.947603 q 0.02274,-0.295648 0.176252,-0.540127 0.156352,-0.244479 0.397988,-0.420731 0.241636,-0.179095 0.537285,-0.292806 0.298491,-0.113711 0.608354,-0.147824 0.0597,-0.0085 0.144981,-0.01137 0.02274,0 0.04548,0.0028 0.116553,0.0028 0.198994,0.0085 l 0.02274,0.07391 -0.378089,0.210366 0.301334,0.144981 -0.127925,0.122239 0.08813,0.164881 q -0.210365,0.01706 -0.415045,0.05686 -0.201837,0.0398 -0.363875,0.110868 -0.159195,0.07107 -0.270064,0.17341 -0.110868,0.0995 -0.13361,0.233107 -0.0057,0.03411 -0.0057,0.06823 0,0.108025 0.07676,0.181937 0.0995,0.0995 0.238793,0.164881 0.07107,0.02843 0.144982,0.05401 0.07675,0.02559 0.150667,0.05117 0.07107,0.02274 0.13361,0.0398 0.06538,0.01706 0.110869,0.02843 0.278592,0.08813 0.434944,0.241635 0.159196,0.15351 0.159196,0.452002 0,0.315548 -0.17341,0.557184 -0.170566,0.241636 -0.537284,0.426416 -0.144982,0.07107 -0.292806,0.119397 -0.147824,0.04833 -0.289963,0.08244 -0.139296,0.03696 -0.264378,0.05401 -0.125082,0.01706 -0.230265,0.02843 l 0.0995,-0.184781 -0.267221,-0.07676 0.116554,-0.173409 -0.0995,-0.105183 q 0.0995,-0.02274 0.218894,-0.04833 0.119396,-0.02843 0.241636,-0.06254 0.110868,-0.03411 0.224579,-0.08244 0.113711,-0.05117 0.20468,-0.119397 0.09381,-0.07107 0.153509,-0.156353 0.06254,-0.08528 0.06254,-0.181937 0,-0.12224 -0.119397,-0.201837 -0.119397,-0.0796 -0.264378,-0.125082 -0.150667,-0.05117 -0.301334,-0.08528 -0.147825,-0.03696 -0.221737,-0.06538 -0.261535,-0.105182 -0.412202,-0.284277 -0.127925,-0.15351 -0.127925,-0.403674 0,-0.0398 0.0028,-0.08244 z"
         style="font-style:normal;font-variant:normal;font-weight:normal;font-stretch:normal;font-family:AngryBirds;-inkscape-font-specification:AngryBirds;stroke-width:0.14555006"
         id="path1804" />
      <path
         d="m 59.08217,9.7870941 0.04833,-0.034113 0.429259,0.4605292 0.06538,-0.3951454 0.179095,0.1165538 0.139296,-0.139296 0.625411,3.1782226 0.06823,0.01137 0.71638,-3.2436063 0.167724,-0.017057 0.07675,0.517385 0.343975,-0.4548439 0.17341,0.054013 -1.012028,4.3949302 -0.193309,-0.09381 -0.190466,0.159195 -0.278592,-0.343976 -0.181938,0.318391 -0.116553,-0.0398 z"
         style="font-style:normal;font-variant:normal;font-weight:normal;font-stretch:normal;font-family:AngryBirds;-inkscape-font-specification:AngryBirds;stroke-width:0.14555006"
         id="path1806" />
      <path
         d="m 62.448016,14.230352 v -3.621696 l 0.127925,-0.04548 0.193308,0.454844 0.244479,-0.437788 0.173409,0.09381 0.164881,-0.0597 -0.0995,3.681394 -0.07107,0.02274 -0.244479,-0.349661 -0.167724,0.307019 -0.150667,-0.05686 z"
         style="font-style:normal;font-variant:normal;font-weight:normal;font-stretch:normal;font-family:AngryBirds;-inkscape-font-specification:AngryBirds;stroke-width:0.14555006"
         id="path1808" />
      <path
         d="m 63.875089,10.656983 0.25585,-0.13361 0.20468,0.213208 0.255849,-0.08528 1.188281,2.157666 h 0.116553 l -0.03411,-2.14061 0.150667,-0.08813 0.261535,0.361033 0.244479,-0.366718 0.105183,0.01706 -0.0057,3.73825 -0.06538,0.0398 -0.207522,-0.216051 -0.292806,0.20468 -0.116554,-0.02274 -1.174066,-1.850647 -0.147824,-0.01706 -0.04548,1.879075 -0.167723,-0.02274 -0.227423,-0.309862 -0.170566,0.343976 -0.0995,-0.05117 z"
         style="font-style:normal;font-variant:normal;font-weight:normal;font-stretch:normal;font-family:AngryBirds;-inkscape-font-specification:AngryBirds;stroke-width:0.14555006"
         id="path1810" />
      <path
         d="m 67.093113,12.882876 q -0.01421,-0.13361 -0.01421,-0.270063 0,-0.139296 0.01421,-0.287121 0.03411,-0.355346 0.09665,-0.636781 0.06538,-0.281435 0.176252,-0.4918 0.110868,-0.210366 0.284277,-0.349662 0.176253,-0.139296 0.437788,-0.221736 0.25585,-0.08244 0.497486,-0.09381 0.05685,-0.0028 0.116553,-0.0057 0.187624,0 0.386618,0.03696 l 0.03696,0.06823 -0.309863,0.116554 0.238793,0.221737 -0.156352,0.105182 0.0796,0.150667 q -0.09381,0.0057 -0.207523,0.01706 -0.110868,0.0085 -0.224579,0.03127 -0.113711,0.02274 -0.213208,0.05401 -0.0995,0.03127 -0.162039,0.08528 -0.144981,0.116553 -0.23595,0.366718 -0.09097,0.250164 -0.110868,0.540127 -0.0057,0.08244 -0.0057,0.164881 0,0.207522 0.03696,0.412202 0.05117,0.284278 0.187623,0.477587 0.07107,0.09381 0.170567,0.144981 0.10234,0.04833 0.218894,0.06254 0.05401,0.0057 0.105182,0.0057 l 0.127925,-0.0085 q 0.116554,-0.01706 0.216051,-0.0597 0.01137,-0.295649 0.02274,-0.568555 0.0085,-0.181938 0.0057,-0.343976 0,-0.0796 0,-0.15351 l 0.110868,-0.07391 0.190466,0.349662 0.227422,-0.338291 0.07676,-0.02274 q -0.0085,0.301334 -0.0085,0.622568 0,0.159195 0.0028,0.326919 0.0057,0.494643 0.01706,0.994971 l -0.20468,0.06823 -0.156352,-0.30702 -0.25585,0.210366 q 0,-0.02843 -0.0028,-0.06538 -0.0028,-0.0398 -0.0199,-0.105183 -0.346819,0.113711 -0.633939,0.113711 -0.06538,0 -0.127925,-0.0057 -0.335448,-0.03127 -0.520228,-0.181938 -0.122239,-0.0995 -0.230265,-0.270064 -0.108025,-0.173409 -0.181937,-0.397988 -0.07107,-0.22458 -0.0995,-0.488958 z"
         style="font-style:normal;font-variant:normal;font-weight:normal;font-stretch:normal;font-family:AngryBirds;-inkscape-font-specification:AngryBirds;stroke-width:0.14555006"
         id="path1812" />
      <path
         d="m 69.705621,14.184867 0.750493,-3.593268 0.233108,0.07107 0.213208,-0.187623 0.321233,0.395145 0.181938,-0.355346 0.201837,0.122239 0.187623,-0.108026 0.679424,3.678552 -0.127925,-0.08813 -0.213208,0.122239 -0.164881,-0.210365 -0.156353,0.159195 -0.216051,-0.787449 -1.083097,0.08813 -0.207523,0.793135 -0.0597,0.02274 -0.184781,-0.233108 -0.233107,0.184781 z m 0.95233,-1.356003 0.832933,-0.07675 -0.289963,-1.304834 -0.244478,0.01706 z"
         style="font-style:normal;font-variant:normal;font-weight:normal;font-stretch:normal;font-family:AngryBirds;-inkscape-font-specification:AngryBirds;stroke-width:0.14555006"
         id="path1814" />
      <path
         d="m 72.716121,10.941261 0.139296,-0.150667 q -0.0057,-0.01137 -0.0199,-0.05686 -0.01137,-0.04833 -0.0398,-0.113711 0.162039,-0.04548 0.395146,-0.08528 0.233108,-0.04264 0.4918,-0.04833 0.03127,0 0.06254,0 0.22458,0 0.454844,0.03696 0.261536,0.0398 0.483272,0.162038 0.244479,0.133611 0.397989,0.366718 0.15351,0.233108 0.230264,0.514542 0.07391,0.272907 0.07391,0.574241 0,0.324076 -0.07675,0.631096 -0.07391,0.292806 -0.213208,0.545813 -0.139296,0.250164 -0.338291,0.406517 -0.33829,0.272906 -0.736279,0.432102 -0.397988,0.156352 -0.798819,0.196151 l -0.04264,-0.33829 -0.361032,0.04833 0.02559,-2.697794 -0.07107,-0.04548 0.176252,-0.179095 z m 0.784606,0.400831 q 0,0.494643 0.0057,0.938116 0,0.187623 0.0057,0.380932 0.0057,0.190466 0.01137,0.366718 0.0057,0.173409 0.01421,0.312705 0.0085,0.139296 0.02274,0.227422 0.193309,-0.05686 0.361032,-0.142139 0.167724,-0.08528 0.30702,-0.207522 0.139296,-0.122239 0.238793,-0.284278 0.0995,-0.164881 0.144982,-0.380932 0.0398,-0.210365 0.05117,-0.400831 0.0028,-0.03127 0,-0.06254 0,-0.156353 -0.03696,-0.292806 -0.04264,-0.162038 -0.15351,-0.28712 -0.110868,-0.125082 -0.301334,-0.196152 -0.07391,-0.02558 -0.176252,-0.02558 -0.01137,0 -0.0199,0 -0.113711,0.0028 -0.218894,0.01421 -0.122239,0.01706 -0.255849,0.0398 z"
         style="font-style:normal;font-variant:normal;font-weight:normal;font-stretch:normal;font-family:AngryBirds;-inkscape-font-specification:AngryBirds;stroke-width:0.14555006"
         id="path1816" />
      <path
         d="m 75.766422,12.91699 q -0.01137,-0.156353 -0.01421,-0.312706 0,-0.173409 0.01706,-0.346818 0.05686,-0.59414 0.164881,-0.93243 0.108026,-0.338291 0.318391,-0.517386 0.07675,-0.06538 0.193309,-0.130767 0.119396,-0.06823 0.264378,-0.116554 0.147824,-0.05117 0.315548,-0.07107 0.0796,-0.0085 0.159195,-0.0085 l 0.179095,0.01137 -0.01137,0.338291 0.284278,-0.17341 0.122239,0.179095 0.193309,-0.07676 q 0.216051,0.221737 0.329762,0.636782 0.116553,0.412202 0.116553,1.012028 0,0.198994 -0.02274,0.434945 -0.02274,0.23595 -0.08244,0.463372 -0.05686,0.224579 -0.15351,0.415045 -0.09665,0.187623 -0.241636,0.292806 -0.20468,0.144982 -0.412202,0.221736 -0.20468,0.07676 -0.400832,0.09666 -0.09097,0.0085 -0.181937,0.0085 -0.0995,0 -0.190466,-0.01137 -0.17341,-0.02274 -0.315548,-0.07675 -0.179095,-0.06538 -0.312706,-0.261535 -0.130767,-0.198995 -0.213208,-0.471901 -0.0796,-0.272906 -0.105182,-0.602668 z m 0.693637,-0.531599 q -0.0085,0.110868 -0.0057,0.218893 0,0.20468 0.02843,0.403675 0.04264,0.301334 0.159195,0.483271 0.05686,0.09381 0.167724,0.142139 0.110868,0.04548 0.23595,0.04548 0.125083,0 0.238794,-0.04264 0.113711,-0.04549 0.173409,-0.139296 0.05685,-0.09381 0.110868,-0.270064 0.05686,-0.179095 0.08813,-0.392303 0.03411,-0.216051 0.0398,-0.449158 0,-0.03127 0,-0.06254 0,-0.198995 -0.03411,-0.383775 -0.03696,-0.213208 -0.125082,-0.380932 -0.08528,-0.167724 -0.233108,-0.25585 -0.09381,-0.05686 -0.218894,-0.05686 -0.0057,0 -0.01421,0 -0.13361,0.0028 -0.230264,0.09097 -0.167724,0.150667 -0.264379,0.44063 -0.09381,0.28712 -0.116553,0.608354 z"
         style="font-style:normal;font-variant:normal;font-weight:normal;font-stretch:normal;font-family:AngryBirds;-inkscape-font-specification:AngryBirds;stroke-width:0.14555006"
         id="path1818" />
      <path
         d="m 78.728594,10.759323 0.0199,-0.108025 q 0.321233,-0.105183 0.642467,-0.159196 0.324076,-0.05685 0.625411,-0.0597 0.01706,0 0.03127,0 0.284278,0 0.531599,0.04833 0.258693,0.05117 0.449159,0.176252 0.173409,0.110869 0.275749,0.278592 0.105182,0.167724 0.125082,0.378089 0.0057,0.05117 0.0057,0.108026 0,0.162038 -0.04833,0.343976 -0.06254,0.241636 -0.216051,0.4918 -0.02843,0.05117 -0.08813,0.127925 -0.0597,0.07676 -0.130767,0.164881 -0.06823,0.08528 -0.150667,0.170566 -0.0796,0.08244 -0.156353,0.147825 0.07107,0.167723 0.150667,0.355346 0.08244,0.184781 0.159195,0.35819 0.0796,0.170567 0.150668,0.315548 0.07107,0.142139 0.110868,0.221737 l -0.0398,0.04264 -0.33829,-0.187623 -0.01706,0.289963 -0.116554,-0.05117 -0.105182,0.07107 -0.705009,-1.088783 -0.366718,0.144981 -0.02843,0.872732 -0.09381,-0.01137 -0.193309,-0.304177 -0.150667,0.392303 -0.105183,-0.04264 q -0.0057,-0.17341 -0.0199,-0.497486 -0.01421,-0.324077 -0.02558,-0.705008 -0.01137,-0.380932 -0.01137,-0.773235 0,-0.392303 0.02274,-0.713537 l 0.01706,-0.227422 -0.184781,-0.13361 0.30702,-0.278592 z m 0.838619,1.830748 q 0.210365,-0.08244 0.432102,-0.221737 0.221736,-0.139296 0.383775,-0.304177 0.162038,-0.167724 0.23595,-0.346818 0.03411,-0.0796 0.03411,-0.159196 0,-0.09381 -0.04833,-0.18478 -0.05117,-0.09381 -0.218894,-0.119397 -0.136453,-0.02274 -0.281434,-0.02274 -0.03127,0 -0.06538,0 -0.210366,0.01137 -0.46053,0.05401 z"
         style="font-style:normal;font-variant:normal;font-weight:normal;font-stretch:normal;font-family:AngryBirds;-inkscape-font-specification:AngryBirds;stroke-width:0.14555006"
         id="path1820" />
      <path
         d="m 81.733401,10.890091 0.0796,-0.187623 -0.0398,-0.07676 1.665866,-0.110868 0.05117,0.227422 -0.361032,0.250164 0.343976,0.105182 -0.04548,0.127925 -0.84999,0.07676 -0.0199,0.895475 0.84999,-0.02843 -0.09665,0.304177 0.167724,0.06823 -0.02843,0.156353 -0.88126,0.08813 0.03696,0.949487 0.878418,-0.03411 -0.05686,0.301334 0.156353,0.07107 -0.06538,0.221737 -1.37306,0.0796 0.02274,-0.295648 -0.355347,0.02274 0.03696,-2.723379 -0.07107,-0.116554 0.250164,-0.21605 z"
         style="font-style:normal;font-variant:normal;font-weight:normal;font-stretch:normal;font-family:AngryBirds;-inkscape-font-specification:AngryBirds;stroke-width:0.14555006"
         id="path1822" />
      <path
         d="m 83.874017,11.947603 q 0.02274,-0.295648 0.176252,-0.540127 0.156352,-0.244479 0.397988,-0.420731 0.241636,-0.179095 0.537285,-0.292806 0.298491,-0.113711 0.608354,-0.147824 0.0597,-0.0085 0.144981,-0.01137 0.02274,0 0.04548,0.0028 0.116553,0.0028 0.198994,0.0085 l 0.02274,0.07391 -0.378089,0.210366 0.301334,0.144981 -0.127925,0.122239 0.08813,0.164881 q -0.210365,0.01706 -0.415045,0.05686 -0.201837,0.0398 -0.363875,0.110868 -0.159196,0.07107 -0.270064,0.17341 -0.110868,0.0995 -0.13361,0.233107 -0.0057,0.03411 -0.0057,0.06823 0,0.108025 0.07676,0.181937 0.0995,0.0995 0.238793,0.164881 0.07107,0.02843 0.144982,0.05401 0.07676,0.02559 0.150667,0.05117 0.07107,0.02274 0.13361,0.0398 0.06538,0.01706 0.110869,0.02843 0.278592,0.08813 0.434944,0.241635 0.159196,0.15351 0.159196,0.452002 0,0.315548 -0.17341,0.557184 -0.170566,0.241636 -0.537284,0.426416 -0.144982,0.07107 -0.292806,0.119397 -0.147824,0.04833 -0.289963,0.08244 -0.139296,0.03696 -0.264378,0.05401 -0.125082,0.01706 -0.230265,0.02843 l 0.0995,-0.184781 -0.267221,-0.07676 0.116554,-0.173409 -0.0995,-0.105183 q 0.0995,-0.02274 0.218894,-0.04833 0.119396,-0.02843 0.241635,-0.06254 0.110869,-0.03411 0.22458,-0.08244 0.113711,-0.05117 0.20468,-0.119397 0.09381,-0.07107 0.153509,-0.156353 0.06254,-0.08528 0.06254,-0.181937 0,-0.12224 -0.119396,-0.201837 -0.119397,-0.0796 -0.264378,-0.125082 -0.150667,-0.05117 -0.301334,-0.08528 -0.147825,-0.03696 -0.221737,-0.06538 -0.261535,-0.105182 -0.412202,-0.284277 -0.127925,-0.15351 -0.127925,-0.403674 0,-0.0398 0.0028,-0.08244 z"
         style="font-style:normal;font-variant:normal;font-weight:normal;font-stretch:normal;font-family:AngryBirds;-inkscape-font-specification:AngryBirds;stroke-width:0.14555006"
         id="path1824" />
      <path
         d="m 86.645723,14.218981 q -0.10234,-0.110868 -0.110868,-0.233108 -0.0057,-0.122239 0.02559,-0.321233 0.01706,-0.133611 0.09665,-0.235951 0.08244,-0.105182 0.198994,-0.159195 0.116554,-0.05686 0.247321,-0.05686 0.130768,0 0.247322,0.07391 0.03411,0.02274 0.05401,0.127925 0.02274,0.105183 0.01421,0.235951 -0.0085,0.130767 -0.05117,0.25585 -0.0398,0.125082 -0.116553,0.190465 -0.07107,0.05686 -0.162039,0.0995 -0.08813,0.0398 -0.176252,0.05686 -0.08528,0.01706 -0.159195,0.0085 -0.07107,-0.0085 -0.108026,-0.04264 z"
         style="font-style:normal;font-variant:normal;font-weight:normal;font-stretch:normal;font-family:AngryBirds;-inkscape-font-specification:AngryBirds;stroke-width:0.14555006"
         id="path1826" />
      <path
         d="m 8.028769,18.069325 0.034113,-0.142139 q 0.2387931,-0.08813 0.5458128,-0.15351 0.3098625,-0.06538 0.6168823,-0.08528 0.079598,-0.0057 0.1563526,-0.0028 0.2188937,0 0.4150452,0.03696 0.2643778,0.04833 0.4093598,0.187623 0.233107,0.227422 0.315548,0.520228 0.05685,0.198995 0.05401,0.397989 0,0.09381 -0.01137,0.187623 -0.03696,0.295649 -0.179095,0.577083 -0.139296,0.278592 -0.352504,0.483272 -0.07107,0.06538 -0.1819381,0.136453 -0.1108682,0.06823 -0.2473214,0.133611 -0.1364532,0.06254 -0.2984914,0.119396 -0.1591955,0.05401 -0.3212336,0.08813 l -0.00569,1.012028 -0.1051827,0.03696 -0.1165538,-0.32692 -0.2331075,0.315548 -0.1506671,-0.176252 -0.1165538,0.07107 -0.028428,-2.911002 -0.1279249,-0.0995 0.3496614,-0.361033 z m 0.8841031,0.429259 0.03127,1.367375 q 0.1449815,-0.05117 0.2672209,-0.110868 0.1051827,-0.04548 0.201837,-0.09381 0.099497,-0.05117 0.1478243,-0.09097 0.1222394,-0.110868 0.2075226,-0.261535 0.088126,-0.150667 0.1137111,-0.30702 0.00853,-0.05685 0.011371,-0.108025 0,-0.09666 -0.031271,-0.184781 -0.045484,-0.139296 -0.1961515,-0.233107 -0.071069,-0.04264 -0.1876231,-0.04548 -0.00853,0 -0.014214,0.0028 -0.1250821,0.0028 -0.2473215,0.01421 -0.1478243,0.02274 -0.3041769,0.05117 z"
         style="font-style:normal;font-variant:normal;font-weight:normal;font-stretch:normal;font-family:AngryBirds;-inkscape-font-specification:AngryBirds;fill:#000080;stroke-width:0.14555006"
         id="path1828" />
      <path
         d="m 11.050639,21.520454 q -0.10234,-0.110868 -0.110868,-0.233107 -0.0057,-0.12224 0.02558,-0.321234 0.01706,-0.133611 0.09665,-0.23595 0.08244,-0.105183 0.198995,-0.159196 0.116553,-0.05685 0.247321,-0.05685 0.130768,0 0.247321,0.07391 0.03411,0.02274 0.05401,0.127925 0.02274,0.105182 0.01421,0.23595 -0.0085,0.130768 -0.05117,0.25585 -0.0398,0.125082 -0.116554,0.190466 -0.07107,0.05685 -0.162038,0.0995 -0.08813,0.0398 -0.176252,0.05685 -0.08528,0.01706 -0.159195,0.0085 -0.07107,-0.0085 -0.108026,-0.04264 z m 0.147825,-2.106496 q -0.105183,-0.110869 -0.110869,-0.233108 -0.0057,-0.122239 0.02274,-0.321234 0.01706,-0.13361 0.09666,-0.238793 0.08244,-0.105182 0.198994,-0.159195 0.116554,-0.05686 0.247322,-0.05686 0.130767,0 0.247321,0.07675 0.03411,0.02274 0.05401,0.127925 0.02274,0.105183 0.01421,0.235951 -0.0085,0.130767 -0.05117,0.255849 -0.0398,0.125082 -0.113711,0.190466 -0.07107,0.05686 -0.162039,0.0995 -0.08813,0.0398 -0.176252,0.05686 -0.08813,0.01706 -0.162038,0.0085 -0.07107,-0.0085 -0.105182,-0.04264 z"
         style="font-style:normal;font-variant:normal;font-weight:normal;font-stretch:normal;font-family:AngryBirds;-inkscape-font-specification:AngryBirds;fill:#000080;stroke-width:0.14555006"
         id="path1830" />
      <path
         d="m 13.543753,18.811289 q -0.01421,-0.08528 -0.01421,-0.173409 0,-0.110868 0.02558,-0.227422 0.04264,-0.210365 0.153509,-0.434945 0.105183,-0.216051 0.335448,-0.406517 0.233107,-0.193308 0.528756,-0.341133 0.298492,-0.150667 0.628253,-0.247321 0.329762,-0.0995 0.631097,-0.136453 l -0.0796,0.193308 0.238793,0.07676 -0.366718,0.295649 0.488957,0.122239 -0.04264,0.193309 q -0.20468,0.03411 -0.452002,0.0995 -0.244478,0.06254 -0.463372,0.156353 -0.218894,0.09381 -0.380932,0.224579 -0.159195,0.130768 -0.187623,0.298491 -0.0057,0.03696 -0.0057,0.07391 0,0.139296 0.09381,0.244478 0.116554,0.130768 0.292806,0.22458 0.179095,0.09097 0.369561,0.162038 0.193308,0.07107 0.309862,0.127925 0.133611,0.07107 0.250164,0.167723 0.116554,0.09381 0.187624,0.230265 0.07391,0.136453 0.09381,0.318391 0.0057,0.05117 0.0057,0.105183 0,0.142138 -0.03696,0.318391 -0.07107,0.301334 -0.295649,0.537284 -0.221736,0.233108 -0.548656,0.383775 -0.315548,0.144981 -0.67658,0.201837 -0.361033,0.0597 -0.69648,0.07107 l -0.05401,-0.05685 0.315548,-0.272907 -0.343976,-0.09381 0.116554,-0.0995 q -0.01137,-0.03411 -0.02843,-0.06538 -0.01137,-0.02843 -0.03127,-0.0597 -0.01706,-0.03127 -0.03411,-0.07391 0.198994,-0.02274 0.463372,-0.07107 0.264378,-0.05117 0.480429,-0.130768 0.08813,-0.03411 0.196152,-0.10234 0.110868,-0.06823 0.170566,-0.164881 0.0398,-0.06538 0.0398,-0.144981 0,-0.03411 -0.0085,-0.07107 -0.02558,-0.122239 -0.198995,-0.270063 -0.116553,-0.0995 -0.233107,-0.164881 -0.116554,-0.06538 -0.233108,-0.125082 -0.116554,-0.05686 -0.23595,-0.113711 -0.119397,-0.0597 -0.247322,-0.130768 -0.233107,-0.127925 -0.361032,-0.292806 -0.125082,-0.164881 -0.159196,-0.355347 z"
         style="font-style:normal;font-variant:normal;font-weight:normal;font-stretch:normal;font-family:AngryBirds;-inkscape-font-specification:AngryBirds;fill:#000080;stroke-width:0.14555006"
         id="path1832" />
      <path
         d="m 16.463283,20.116123 q 0,-0.326919 0.0028,-0.591297 0.0028,-0.264378 0.01706,-0.5117 0.01421,-0.247321 0.03696,-0.506014 0.02274,-0.258692 0.06538,-0.568555 l 0.190466,0.07676 0.227422,-0.173409 0.216051,0.13361 0.0796,-0.02843 q -0.01706,0.173409 -0.03696,0.454844 -0.0199,0.278592 -0.0398,0.585611 -0.0199,0.304177 -0.02843,0.59414 -0.0028,0.125082 -0.0057,0.230265 0,0.142139 0.0085,0.253007 0.02843,0.548656 0.295649,0.69648 0.08813,0.04833 0.201837,0.04833 0.227422,0 0.548656,-0.196151 0.03411,-0.08244 0.05401,-0.235951 0.02274,-0.156352 0.03411,-0.349661 0.01137,-0.196151 0.01706,-0.417888 0.0057,-0.221736 0.0057,-0.446316 0.0057,-0.378089 0.0085,-0.74765 0.0028,-0.372403 0.01421,-0.622567 l 0.159196,-0.0398 0.196151,0.395146 0.25585,-0.372404 0.136453,-0.0057 q -0.0057,0.238794 -0.01421,0.659524 -0.0057,0.417888 -0.01137,0.929588 -0.0057,0.511699 -0.0057,1.063198 0,0.548655 0.01137,1.040456 l -0.144982,-0.04833 -0.196151,0.170567 -0.216051,-0.142139 -0.170567,0.08244 q -0.0057,-0.02843 -0.0199,-0.07676 -0.01421,-0.05117 -0.05401,-0.156353 -0.173409,0.07675 -0.383775,0.133611 -0.210365,0.05401 -0.412202,0.07391 -0.108025,0.01137 -0.207523,0.01137 -0.08528,0 -0.164881,-0.0085 -0.170566,-0.01706 -0.264378,-0.08813 -0.144981,-0.105182 -0.227422,-0.289963 -0.08244,-0.187623 -0.122239,-0.383774 -0.0398,-0.198995 -0.04833,-0.369561 -0.0085,-0.173409 -0.0085,-0.25585 z"
         style="font-style:normal;font-variant:normal;font-weight:normal;font-stretch:normal;font-family:AngryBirds;-inkscape-font-specification:AngryBirds;fill:#000080;stroke-width:0.14555006"
         id="path1834" />
      <path
         d="m 19.411242,18.069325 0.03411,-0.142139 q 0.238793,-0.08813 0.545813,-0.15351 0.309863,-0.06538 0.616882,-0.08528 0.0796,-0.0057 0.156353,-0.0028 0.218894,0 0.415045,0.03696 0.264378,0.04833 0.40936,0.187623 0.233107,0.227422 0.315548,0.520228 0.05685,0.198995 0.05401,0.397989 0,0.09381 -0.01137,0.187623 -0.03696,0.295649 -0.179095,0.577083 -0.139296,0.278592 -0.352504,0.483272 -0.07107,0.06538 -0.181938,0.136453 -0.110868,0.06823 -0.247322,0.133611 -0.136453,0.06254 -0.298491,0.119396 -0.159195,0.05401 -0.321234,0.08813 l -0.0057,1.012028 -0.105183,0.03696 -0.116554,-0.32692 -0.233107,0.315548 -0.150667,-0.176252 -0.116554,0.07107 -0.02843,-2.911002 -0.127925,-0.0995 0.349662,-0.361033 z m 0.884103,0.429259 0.03127,1.367375 q 0.144981,-0.05117 0.26722,-0.110868 0.105183,-0.04548 0.201838,-0.09381 0.0995,-0.05117 0.147824,-0.09097 0.122239,-0.110868 0.207522,-0.261535 0.08813,-0.150667 0.113711,-0.30702 0.0085,-0.05685 0.01137,-0.108025 0,-0.09666 -0.03127,-0.184781 -0.04548,-0.139296 -0.196151,-0.233107 -0.07107,-0.04264 -0.187624,-0.04548 -0.0085,0 -0.01421,0.0028 -0.125082,0.0028 -0.247321,0.01421 -0.147824,0.02274 -0.304177,0.05117 z"
         style="font-style:normal;font-variant:normal;font-weight:normal;font-stretch:normal;font-family:AngryBirds;-inkscape-font-specification:AngryBirds;fill:#000080;stroke-width:0.14555006"
         id="path1836" />
      <path
         d="m 22.330771,18.191564 0.0796,-0.187623 -0.0398,-0.07676 1.665867,-0.110868 0.05117,0.227422 -0.361032,0.250164 0.343976,0.105183 -0.04548,0.127925 -0.849989,0.07676 -0.0199,0.895474 0.84999,-0.02843 -0.09665,0.304177 0.167723,0.06823 -0.02843,0.156352 -0.881261,0.08813 0.03696,0.949487 0.878418,-0.03411 -0.05686,0.301334 0.156353,0.07107 -0.06538,0.221736 -1.37306,0.0796 0.02274,-0.295649 -0.355347,0.02274 0.03696,-2.723378 -0.07107,-0.116554 0.250164,-0.216051 z"
         style="font-style:normal;font-variant:normal;font-weight:normal;font-stretch:normal;font-family:AngryBirds;-inkscape-font-specification:AngryBirds;fill:#000080;stroke-width:0.14555006"
         id="path1838" />
      <path
         d="m 24.477067,18.060797 0.0199,-0.108026 q 0.321234,-0.105183 0.642467,-0.159195 0.324077,-0.05686 0.625411,-0.0597 0.01706,0 0.03127,0 0.284278,0 0.531599,0.04833 0.258693,0.05117 0.449159,0.176252 0.173409,0.110868 0.275749,0.278592 0.105183,0.167723 0.125082,0.378089 0.0057,0.05117 0.0057,0.108025 0,0.162038 -0.04833,0.343976 -0.06254,0.241636 -0.21605,0.4918 -0.02843,0.05117 -0.08813,0.127925 -0.0597,0.07675 -0.130768,0.164881 -0.06823,0.08528 -0.150667,0.170566 -0.0796,0.08244 -0.156353,0.147825 0.07107,0.167724 0.150667,0.355347 0.08244,0.18478 0.159196,0.358189 0.0796,0.170567 0.150667,0.315548 0.07107,0.142139 0.110868,0.221737 l -0.0398,0.04264 -0.33829,-0.187624 -0.01706,0.289963 -0.116554,-0.05117 -0.105182,0.07107 -0.705009,-1.088783 -0.366718,0.144982 -0.02843,0.872732 -0.09381,-0.01137 -0.193309,-0.304177 -0.150667,0.392303 -0.105182,-0.04264 q -0.0057,-0.173409 -0.0199,-0.497486 -0.01421,-0.324076 -0.02558,-0.705008 -0.01137,-0.380932 -0.01137,-0.773235 0,-0.392303 0.02274,-0.713537 l 0.01706,-0.227422 -0.18478,-0.13361 0.307019,-0.278592 z m 0.838618,1.830747 q 0.210366,-0.08244 0.432102,-0.221737 0.221737,-0.139296 0.383775,-0.304177 0.162038,-0.167723 0.23595,-0.346818 0.03411,-0.0796 0.03411,-0.159196 0,-0.09381 -0.04833,-0.18478 -0.05117,-0.09381 -0.218893,-0.119397 -0.136454,-0.02274 -0.281435,-0.02274 -0.03127,0 -0.06538,0 -0.210365,0.01137 -0.46053,0.05401 z"
         style="font-style:normal;font-variant:normal;font-weight:normal;font-stretch:normal;font-family:AngryBirds;-inkscape-font-specification:AngryBirds;fill:#000080;stroke-width:0.14555006"
         id="path1840" />
      <path
         d="m 27.504623,21.631322 0.179095,-3.795105 0.181938,-0.07676 0.221736,0.506014 0.244479,-0.406517 0.122239,0.12224 0.10234,-0.08813 0.525914,1.637438 h 0.09381 l 0.517385,-1.654495 0.167724,0.127925 0.227422,-0.179095 0.198994,0.284278 0.25585,-0.233108 0.173409,3.633067 -0.110868,0.02843 -0.18478,-0.312706 -0.116554,0.289964 -0.105183,-0.09381 -0.144981,0.0597 -0.127925,-1.776734 -0.105183,-0.02843 -0.611197,1.640281 -0.105182,-0.09097 -0.110869,0.04548 -0.599825,-1.537942 -0.09381,-0.01137 -0.122239,1.805163 -0.179095,0.05117 -0.221736,-0.352505 -0.17341,0.434945 z"
         style="font-style:normal;font-variant:normal;font-weight:normal;font-stretch:normal;font-family:AngryBirds;-inkscape-font-specification:AngryBirds;fill:#000080;stroke-width:0.14555006"
         id="path1842" />
      <path
         d="m 30.930168,21.486341 0.750492,-3.593268 0.233108,0.07107 0.213208,-0.187623 0.321234,0.395146 0.181937,-0.355347 0.201838,0.122239 0.187623,-0.108025 0.679423,3.678551 -0.127925,-0.08813 -0.213208,0.122239 -0.164881,-0.210365 -0.156353,0.159195 -0.216051,-0.787448 -1.083097,0.08813 -0.207523,0.793134 -0.0597,0.02274 -0.18478,-0.233107 -0.233108,0.18478 z m 0.95233,-1.356004 0.832933,-0.07676 -0.289963,-1.304834 -0.244479,0.01706 z"
         style="font-style:normal;font-variant:normal;font-weight:normal;font-stretch:normal;font-family:AngryBirds;-inkscape-font-specification:AngryBirds;fill:#000080;stroke-width:0.14555006"
         id="path1844" />
      <path
         d="m 34.014579,17.958457 0.25585,-0.133611 0.20468,0.213208 0.25585,-0.08528 1.18828,2.157667 h 0.116553 l -0.03411,-2.14061 0.150667,-0.08813 0.261536,0.361032 0.244478,-0.366718 0.105183,0.01706 -0.0057,3.738249 -0.06538,0.0398 -0.207523,-0.216051 -0.292806,0.20468 -0.116554,-0.02274 -1.174066,-1.850647 -0.147824,-0.01706 -0.04548,1.879075 -0.167723,-0.02274 -0.227422,-0.309863 -0.170567,0.343976 -0.0995,-0.05117 z"
         style="font-style:normal;font-variant:normal;font-weight:normal;font-stretch:normal;font-family:AngryBirds;-inkscape-font-specification:AngryBirds;fill:#000080;stroke-width:0.14555006"
         id="path1846" />
      <path
         d="m 38.344125,18.325175 0.116553,-0.164881 -0.05117,-0.17341 1.856333,-0.08813 -0.105183,0.361033 0.136453,0.08244 -0.0597,0.144982 -0.960858,0.06538 -0.01706,0.855675 0.861361,-0.0199 -0.07676,0.304177 0.176252,0.07107 -0.03411,0.162038 -0.93243,0.110868 0.03411,1.483929 -0.116554,0.04548 -0.201837,-0.417887 -0.181937,0.383774 -0.06823,-0.09381 -0.159195,0.04833 -0.03411,-2.825719 -0.122239,-0.03411 0.25585,-0.156353 z"
         style="font-style:normal;font-variant:normal;font-weight:normal;font-stretch:normal;font-family:AngryBirds;-inkscape-font-specification:AngryBirds;fill:#000080;stroke-width:0.14555006"
         id="path1848" />
      <path
         d="m 40.33407,21.486341 0.750493,-3.593268 0.233107,0.07107 0.213208,-0.187623 0.321234,0.395146 0.181938,-0.355347 0.201837,0.122239 0.187623,-0.108025 0.679423,3.678551 -0.127925,-0.08813 -0.213208,0.122239 -0.164881,-0.210365 -0.156353,0.159195 -0.216051,-0.787448 -1.083097,0.08813 -0.207523,0.793134 -0.0597,0.02274 -0.18478,-0.233107 -0.233108,0.18478 z m 0.95233,-1.356004 0.832933,-0.07676 -0.289963,-1.304834 -0.244479,0.01706 z"
         style="font-style:normal;font-variant:normal;font-weight:normal;font-stretch:normal;font-family:AngryBirds;-inkscape-font-specification:AngryBirds;fill:#000080;stroke-width:0.14555006"
         id="path1850" />
      <path
         d="m 43.361622,18.293904 0.233108,-0.213208 -0.227423,-0.15351 0.02843,-0.0796 1.950144,-0.09381 0.05401,0.139296 -0.164881,0.162038 0.176252,0.164881 -1.088783,2.638095 1.03477,0.02843 0.0057,0.116554 -0.284278,0.250164 0.250164,0.0796 -0.105182,0.09381 0.02843,0.08244 -1.583426,0.06823 0.0057,-0.218894 -0.284277,-0.0597 1.094468,-2.862675 -1.083097,0.02274 z"
         style="font-style:normal;font-variant:normal;font-weight:normal;font-stretch:normal;font-family:AngryBirds;-inkscape-font-specification:AngryBirds;fill:#000080;stroke-width:0.14555006"
         id="path1852" />
      <path
         d="m 46.838339,18.069325 0.03411,-0.142139 q 0.238793,-0.08813 0.545812,-0.15351 0.309863,-0.06538 0.616883,-0.08528 0.0796,-0.0057 0.156352,-0.0028 0.218894,0 0.415046,0.03696 0.264378,0.04833 0.409359,0.187623 0.233108,0.227422 0.315548,0.520228 0.05686,0.198995 0.05401,0.397989 0,0.09381 -0.01137,0.187623 -0.03696,0.295649 -0.179095,0.577083 -0.139296,0.278592 -0.352504,0.483272 -0.07107,0.06538 -0.181938,0.136453 -0.110868,0.06823 -0.247321,0.133611 -0.136453,0.06254 -0.298492,0.119396 -0.159195,0.05401 -0.321233,0.08813 l -0.0057,1.012028 -0.105182,0.03696 -0.116554,-0.32692 -0.233108,0.315548 -0.150667,-0.176252 -0.116554,0.07107 -0.02843,-2.911002 -0.127925,-0.0995 0.349661,-0.361033 z m 0.884103,0.429259 0.03127,1.367375 q 0.144981,-0.05117 0.267221,-0.110868 0.105182,-0.04548 0.201837,-0.09381 0.0995,-0.05117 0.147824,-0.09097 0.122239,-0.110868 0.207523,-0.261535 0.08813,-0.150667 0.113711,-0.30702 0.0085,-0.05685 0.01137,-0.108025 0,-0.09666 -0.03127,-0.184781 -0.04548,-0.139296 -0.196151,-0.233107 -0.07107,-0.04264 -0.187623,-0.04548 -0.0085,0 -0.01421,0.0028 -0.125082,0.0028 -0.247322,0.01421 -0.147824,0.02274 -0.304177,0.05117 z"
         style="font-style:normal;font-variant:normal;font-weight:normal;font-stretch:normal;font-family:AngryBirds;-inkscape-font-specification:AngryBirds;fill:#000080;stroke-width:0.14555006"
         id="path1854" />
      <path
         d="m 49.260381,21.486341 0.750493,-3.593268 0.233108,0.07107 0.213208,-0.187623 0.321233,0.395146 0.181938,-0.355347 0.201837,0.122239 0.187623,-0.108025 0.679424,3.678551 -0.127925,-0.08813 -0.213209,0.122239 -0.16488,-0.210365 -0.156353,0.159195 -0.216051,-0.787448 -1.083097,0.08813 -0.207523,0.793134 -0.0597,0.02274 -0.184781,-0.233107 -0.233107,0.18478 z m 0.95233,-1.356004 0.832933,-0.07676 -0.289963,-1.304834 -0.244478,0.01706 z"
         style="font-style:normal;font-variant:normal;font-weight:normal;font-stretch:normal;font-family:AngryBirds;-inkscape-font-specification:AngryBirds;fill:#000080;stroke-width:0.14555006"
         id="path1856" />
      <path
         d="m 52.256667,18.060797 0.0199,-0.108026 q 0.321234,-0.105183 0.642467,-0.159195 0.324077,-0.05686 0.625411,-0.0597 0.01706,0 0.03127,0 0.284278,0 0.531599,0.04833 0.258693,0.05117 0.449159,0.176252 0.173409,0.110868 0.275749,0.278592 0.105183,0.167723 0.125082,0.378089 0.0057,0.05117 0.0057,0.108025 0,0.162038 -0.04833,0.343976 -0.06254,0.241636 -0.216051,0.4918 -0.02843,0.05117 -0.08813,0.127925 -0.0597,0.07675 -0.130768,0.164881 -0.06823,0.08528 -0.150667,0.170566 -0.0796,0.08244 -0.156353,0.147825 0.07107,0.167724 0.150667,0.355347 0.08244,0.18478 0.159196,0.358189 0.0796,0.170567 0.150667,0.315548 0.07107,0.142139 0.110868,0.221737 l -0.0398,0.04264 -0.33829,-0.187624 -0.01706,0.289963 -0.116553,-0.05117 -0.105183,0.07107 -0.705008,-1.088783 -0.366718,0.144982 -0.02843,0.872732 -0.09381,-0.01137 -0.193308,-0.304177 -0.150668,0.392303 -0.105182,-0.04264 q -0.0057,-0.173409 -0.0199,-0.497486 -0.01421,-0.324076 -0.02558,-0.705008 -0.01137,-0.380932 -0.01137,-0.773235 0,-0.392303 0.02274,-0.713537 l 0.01706,-0.227422 -0.18478,-0.13361 0.307019,-0.278592 z m 0.838618,1.830747 q 0.210366,-0.08244 0.432102,-0.221737 0.221737,-0.139296 0.383775,-0.304177 0.162038,-0.167723 0.23595,-0.346818 0.03411,-0.0796 0.03411,-0.159196 0,-0.09381 -0.04833,-0.18478 -0.05117,-0.09381 -0.218893,-0.119397 -0.136453,-0.02274 -0.281435,-0.02274 -0.03127,0 -0.06538,0 -0.210365,0.01137 -0.460529,0.05401 z"
         style="font-style:normal;font-variant:normal;font-weight:normal;font-stretch:normal;font-family:AngryBirds;-inkscape-font-specification:AngryBirds;fill:#000080;stroke-width:0.14555006"
         id="path1858" />
      <path
         d="m 55.184726,18.17735 0.02843,-0.10234 2.299805,-0.164881 -0.09381,0.144982 0.164881,0.170567 -0.281435,0.179094 0.281435,0.12224 -0.02274,0.0995 -0.759021,0.05401 -0.0398,2.896788 -0.08813,0.02558 -0.190466,-0.415046 -0.133611,0.355347 -0.142139,-0.144981 -0.167723,0.105182 -0.02843,-2.788762 -0.705008,0.04548 0.02843,-0.105182 -0.0995,-0.0796 0.326919,-0.244479 z"
         style="font-style:normal;font-variant:normal;font-weight:normal;font-stretch:normal;font-family:AngryBirds;-inkscape-font-specification:AngryBirds;fill:#000080;stroke-width:0.14555006"
         id="path1860" />
      <path
         d="m 57.899577,18.191564 0.0796,-0.187623 -0.0398,-0.07676 1.665866,-0.110868 0.05117,0.227422 -0.361032,0.250164 0.343976,0.105183 -0.04548,0.127925 -0.84999,0.07676 -0.0199,0.895474 0.84999,-0.02843 -0.09665,0.304177 0.167724,0.06823 -0.02843,0.156352 -0.88126,0.08813 0.03696,0.949487 0.878418,-0.03411 -0.05686,0.301334 0.156353,0.07107 -0.06538,0.221736 -1.373061,0.0796 0.02274,-0.295649 -0.355347,0.02274 0.03696,-2.723378 -0.07107,-0.116554 0.250165,-0.216051 z"
         style="font-style:normal;font-variant:normal;font-weight:normal;font-stretch:normal;font-family:AngryBirds;-inkscape-font-specification:AngryBirds;fill:#000080;stroke-width:0.14555006"
         id="path1862" />
      <path
         d="m 61.219939,18.242734 0.139296,-0.150667 q -0.0057,-0.01137 -0.0199,-0.05685 -0.01137,-0.04833 -0.0398,-0.113711 0.162038,-0.04548 0.395146,-0.08528 0.233107,-0.04264 0.4918,-0.04833 0.03127,0 0.06254,0 0.224579,0 0.454844,0.03696 0.261535,0.0398 0.483272,0.162038 0.244478,0.133611 0.397988,0.366718 0.15351,0.233108 0.230265,0.514543 0.07391,0.272906 0.07391,0.57424 0,0.324077 -0.07675,0.631096 -0.07391,0.292806 -0.213208,0.545813 -0.139296,0.250165 -0.33829,0.406517 -0.33829,0.272907 -0.736279,0.432102 -0.397989,0.156353 -0.79882,0.196152 l -0.04264,-0.338291 -0.361032,0.04833 0.02558,-2.697793 -0.07107,-0.04548 0.176252,-0.179095 z m 0.784606,0.400831 q 0,0.494643 0.0057,0.938116 0,0.187623 0.0057,0.380932 0.0057,0.190466 0.01137,0.366718 0.0057,0.17341 0.01421,0.312706 0.0085,0.139296 0.02274,0.227422 0.193309,-0.05686 0.361033,-0.142139 0.167724,-0.08528 0.30702,-0.207523 0.139296,-0.122239 0.238793,-0.284277 0.0995,-0.164881 0.144981,-0.380932 0.0398,-0.210366 0.05117,-0.400832 0.0028,-0.03127 0,-0.06254 0,-0.156352 -0.03696,-0.292805 -0.04264,-0.162039 -0.15351,-0.287121 -0.110868,-0.125082 -0.301334,-0.196151 -0.07391,-0.02559 -0.176252,-0.02559 -0.01137,0 -0.0199,0 -0.113711,0.0028 -0.218894,0.01421 -0.122239,0.01706 -0.25585,0.0398 z"
         style="font-style:normal;font-variant:normal;font-weight:normal;font-stretch:normal;font-family:AngryBirds;-inkscape-font-specification:AngryBirds;fill:#000080;stroke-width:0.14555006"
         id="path1864" />
      <path
         d="m 64.270236,20.218463 q -0.01137,-0.156353 -0.01421,-0.312705 0,-0.17341 0.01706,-0.346819 0.05686,-0.59414 0.164881,-0.93243 0.108025,-0.33829 0.318391,-0.517385 0.07676,-0.06538 0.193309,-0.130768 0.119396,-0.06823 0.264378,-0.116554 0.147824,-0.05117 0.315548,-0.07107 0.0796,-0.0085 0.159195,-0.0085 l 0.179095,0.01137 -0.01137,0.33829 0.284277,-0.173409 0.12224,0.179094 0.193308,-0.07675 q 0.216051,0.221736 0.329762,0.636781 0.116554,0.412203 0.116554,1.012028 0,0.198994 -0.02274,0.434945 -0.02274,0.23595 -0.08244,0.463372 -0.05685,0.224579 -0.153509,0.415045 -0.09665,0.187624 -0.241636,0.292806 -0.20468,0.144982 -0.412203,0.221737 -0.20468,0.07676 -0.400831,0.09665 -0.09097,0.0085 -0.181938,0.0085 -0.0995,0 -0.190466,-0.01137 -0.173409,-0.02274 -0.315548,-0.07676 -0.179095,-0.06538 -0.312705,-0.261535 -0.130768,-0.198994 -0.213208,-0.471901 -0.0796,-0.272906 -0.105183,-0.602668 z m 0.693637,-0.531599 q -0.0085,0.110868 -0.0057,0.218894 0,0.20468 0.02843,0.403674 0.04264,0.301334 0.159195,0.483272 0.05686,0.09381 0.167724,0.142138 0.110868,0.04548 0.23595,0.04548 0.125082,0 0.238793,-0.04264 0.113711,-0.04548 0.17341,-0.139296 0.05685,-0.09381 0.110868,-0.270063 0.05685,-0.179095 0.08813,-0.392303 0.03411,-0.216051 0.0398,-0.449159 0,-0.03127 0,-0.06254 0,-0.198994 -0.03411,-0.383775 -0.03696,-0.213208 -0.125082,-0.380932 -0.08528,-0.167723 -0.233107,-0.255849 -0.09381,-0.05686 -0.218894,-0.05686 -0.0057,0 -0.01421,0 -0.13361,0.0028 -0.230265,0.09097 -0.167723,0.150667 -0.264378,0.44063 -0.09381,0.28712 -0.116554,0.608354 z"
         style="font-style:normal;font-variant:normal;font-weight:normal;font-stretch:normal;font-family:AngryBirds;-inkscape-font-specification:AngryBirds;fill:#000080;stroke-width:0.14555006"
         id="path1866" />
      <path
         d="m 67.226724,19.249077 q 0.02274,-0.295649 0.176252,-0.540128 0.156352,-0.244478 0.397988,-0.42073 0.241636,-0.179095 0.537285,-0.292806 0.298491,-0.113711 0.608354,-0.147825 0.0597,-0.0085 0.144981,-0.01137 0.02274,0 0.04548,0.0028 0.116553,0.0028 0.198994,0.0085 l 0.02274,0.07391 -0.378089,0.210365 0.301334,0.144981 -0.127925,0.12224 0.08813,0.164881 q -0.210365,0.01706 -0.415045,0.05686 -0.201837,0.0398 -0.363875,0.110869 -0.159196,0.07107 -0.270064,0.173409 -0.110868,0.0995 -0.13361,0.233107 -0.0057,0.03411 -0.0057,0.06823 0,0.108025 0.07675,0.181938 0.0995,0.0995 0.238793,0.164881 0.07107,0.02843 0.144982,0.05401 0.07676,0.02558 0.150667,0.05117 0.07107,0.02274 0.13361,0.0398 0.06538,0.01706 0.110868,0.02843 0.278592,0.08813 0.434945,0.241636 0.159196,0.15351 0.159196,0.452001 0,0.315548 -0.17341,0.557184 -0.170566,0.241636 -0.537284,0.426416 -0.144982,0.07107 -0.292806,0.119397 -0.147824,0.04833 -0.289963,0.08244 -0.139296,0.03696 -0.264378,0.05401 -0.125082,0.01706 -0.230265,0.02843 l 0.0995,-0.184781 -0.267221,-0.07675 0.116554,-0.17341 -0.0995,-0.105182 q 0.0995,-0.02274 0.218893,-0.04833 0.119397,-0.02843 0.241636,-0.06254 0.110869,-0.03411 0.22458,-0.08244 0.113711,-0.05117 0.204679,-0.119397 0.09381,-0.07107 0.15351,-0.156352 0.06254,-0.08528 0.06254,-0.181938 0,-0.122239 -0.119396,-0.201837 -0.119397,-0.0796 -0.264378,-0.125082 -0.150667,-0.05117 -0.301334,-0.08528 -0.147825,-0.03696 -0.221737,-0.06538 -0.261535,-0.105183 -0.412202,-0.284278 -0.127925,-0.15351 -0.127925,-0.403674 0,-0.0398 0.0028,-0.08244 z"
         style="font-style:normal;font-variant:normal;font-weight:normal;font-stretch:normal;font-family:AngryBirds;-inkscape-font-specification:AngryBirds;fill:#000080;stroke-width:0.14555006"
         id="path1868" />
      <path
         d="m 70.908117,17.088567 0.04833,-0.03411 0.429259,0.46053 0.06538,-0.395146 0.179095,0.116554 0.139296,-0.139296 0.625411,3.178223 0.06823,0.01137 0.71638,-3.243607 0.167723,-0.01706 0.07676,0.517385 0.343976,-0.454844 0.173409,0.05401 -1.012028,4.394931 -0.193308,-0.09381 -0.190466,0.159196 -0.278592,-0.343976 -0.181938,0.318391 -0.116554,-0.0398 z"
         style="font-style:normal;font-variant:normal;font-weight:normal;font-stretch:normal;font-family:AngryBirds;-inkscape-font-specification:AngryBirds;fill:#000080;stroke-width:0.14555006"
         id="path1870" />
      <path
         d="m 74.273963,21.531825 v -3.621696 l 0.127924,-0.04548 0.193309,0.454844 0.244479,-0.437787 0.173409,0.09381 0.164881,-0.0597 -0.0995,3.681394 -0.07107,0.02274 -0.244479,-0.349661 -0.167724,0.30702 -0.150667,-0.05686 z"
         style="font-style:normal;font-variant:normal;font-weight:normal;font-stretch:normal;font-family:AngryBirds;-inkscape-font-specification:AngryBirds;fill:#000080;stroke-width:0.14555006"
         id="path1872" />
      <path
         d="m 75.701036,17.958457 0.25585,-0.133611 0.204679,0.213208 0.25585,-0.08528 1.18828,2.157667 h 0.116554 l -0.03411,-2.14061 0.150667,-0.08813 0.261535,0.361032 0.244479,-0.366718 0.105183,0.01706 -0.0057,3.738249 -0.06538,0.0398 -0.207522,-0.216051 -0.292806,0.20468 -0.116554,-0.02274 -1.174066,-1.850647 -0.147825,-0.01706 -0.04548,1.879075 -0.167724,-0.02274 -0.227422,-0.309863 -0.170566,0.343976 -0.0995,-0.05117 z"
         style="font-style:normal;font-variant:normal;font-weight:normal;font-stretch:normal;font-family:AngryBirds;-inkscape-font-specification:AngryBirds;fill:#000080;stroke-width:0.14555006"
         id="path1874" />
      <path
         d="m 78.919056,20.18435 q -0.01421,-0.133611 -0.01421,-0.270064 0,-0.139296 0.01421,-0.28712 0.03411,-0.355347 0.09665,-0.636782 0.06538,-0.281435 0.176252,-0.4918 0.110868,-0.210365 0.284277,-0.349661 0.176253,-0.139296 0.437788,-0.221737 0.25585,-0.08244 0.497486,-0.09381 0.05685,-0.0028 0.116553,-0.0057 0.187624,0 0.386618,0.03696 l 0.03696,0.06823 -0.309863,0.116553 0.238793,0.221737 -0.156352,0.105183 0.0796,0.150667 q -0.09381,0.0057 -0.207523,0.01706 -0.110868,0.0085 -0.224579,0.03127 -0.113711,0.02274 -0.213208,0.05401 -0.0995,0.03127 -0.162039,0.08528 -0.144981,0.116554 -0.23595,0.366718 -0.09097,0.250164 -0.110868,0.540127 -0.0057,0.08244 -0.0057,0.164881 0,0.207523 0.03696,0.412203 0.05117,0.284277 0.187623,0.477586 0.07107,0.09381 0.170567,0.144981 0.10234,0.04833 0.218894,0.06254 0.05401,0.0057 0.105182,0.0057 l 0.127925,-0.0085 q 0.116554,-0.01706 0.216051,-0.0597 0.01137,-0.295648 0.02274,-0.568555 0.0085,-0.181937 0.0057,-0.343976 0,-0.0796 0,-0.153509 l 0.110868,-0.07391 0.190466,0.349662 0.227422,-0.33829 0.07675,-0.02274 q -0.0085,0.301335 -0.0085,0.622568 0,0.159196 0.0028,0.326919 0.0057,0.494643 0.01706,0.994972 l -0.20468,0.06823 -0.156352,-0.307019 -0.25585,0.210365 q 0,-0.02843 -0.0028,-0.06538 -0.0028,-0.0398 -0.0199,-0.105183 -0.346819,0.113711 -0.633939,0.113711 -0.06538,0 -0.127925,-0.0057 -0.335448,-0.03127 -0.520228,-0.181938 -0.122239,-0.0995 -0.230265,-0.270063 -0.108025,-0.17341 -0.181937,-0.397989 -0.07107,-0.224579 -0.0995,-0.488957 z"
         style="font-style:normal;font-variant:normal;font-weight:normal;font-stretch:normal;font-family:AngryBirds;-inkscape-font-specification:AngryBirds;fill:#000080;stroke-width:0.14555006"
         id="path1876" />
      <path
         d="m 81.531564,21.486341 0.750493,-3.593268 0.233108,0.07107 0.213208,-0.187623 0.321233,0.395146 0.181938,-0.355347 0.201837,0.122239 0.187623,-0.108025 0.679424,3.678551 -0.127925,-0.08813 -0.213209,0.122239 -0.16488,-0.210365 -0.156353,0.159195 -0.216051,-0.787448 -1.083097,0.08813 -0.207523,0.793134 -0.0597,0.02274 -0.184781,-0.233107 -0.233107,0.18478 z m 0.95233,-1.356004 0.832933,-0.07676 -0.289963,-1.304834 -0.244478,0.01706 z"
         style="font-style:normal;font-variant:normal;font-weight:normal;font-stretch:normal;font-family:AngryBirds;-inkscape-font-specification:AngryBirds;fill:#000080;stroke-width:0.14555006"
         id="path1878" />
      <path
         d="m 84.542064,18.242734 0.139296,-0.150667 q -0.0057,-0.01137 -0.0199,-0.05685 -0.01137,-0.04833 -0.0398,-0.113711 0.162039,-0.04548 0.395146,-0.08528 0.233108,-0.04264 0.4918,-0.04833 0.03127,0 0.06254,0 0.22458,0 0.454844,0.03696 0.261536,0.0398 0.483272,0.162038 0.244479,0.133611 0.397989,0.366718 0.15351,0.233108 0.230264,0.514543 0.07391,0.272906 0.07391,0.57424 0,0.324077 -0.07675,0.631096 -0.07391,0.292806 -0.213208,0.545813 -0.139296,0.250165 -0.338291,0.406517 -0.33829,0.272907 -0.736279,0.432102 -0.397988,0.156353 -0.798819,0.196152 l -0.04264,-0.338291 -0.361032,0.04833 0.02558,-2.697793 -0.07107,-0.04548 0.176252,-0.179095 z m 0.784606,0.400831 q 0,0.494643 0.0057,0.938116 0,0.187623 0.0057,0.380932 0.0057,0.190466 0.01137,0.366718 0.0057,0.17341 0.01421,0.312706 0.0085,0.139296 0.02274,0.227422 0.193309,-0.05686 0.361032,-0.142139 0.167724,-0.08528 0.30702,-0.207523 0.139296,-0.122239 0.238793,-0.284277 0.0995,-0.164881 0.144982,-0.380932 0.0398,-0.210366 0.05117,-0.400832 0.0028,-0.03127 0,-0.06254 0,-0.156352 -0.03696,-0.292805 -0.04264,-0.162039 -0.15351,-0.287121 -0.110868,-0.125082 -0.301334,-0.196151 -0.07391,-0.02559 -0.176253,-0.02559 -0.01137,0 -0.0199,0 -0.113711,0.0028 -0.218894,0.01421 -0.122239,0.01706 -0.255849,0.0398 z"
         style="font-style:normal;font-variant:normal;font-weight:normal;font-stretch:normal;font-family:AngryBirds;-inkscape-font-specification:AngryBirds;fill:#000080;stroke-width:0.14555006"
         id="path1880" />
      <path
         d="m 87.592365,20.218463 q -0.01137,-0.156353 -0.01421,-0.312705 0,-0.17341 0.01706,-0.346819 0.05686,-0.59414 0.164881,-0.93243 0.108026,-0.33829 0.318391,-0.517385 0.07675,-0.06538 0.193309,-0.130768 0.119396,-0.06823 0.264378,-0.116554 0.147824,-0.05117 0.315548,-0.07107 0.0796,-0.0085 0.159195,-0.0085 l 0.179095,0.01137 -0.01137,0.33829 0.284278,-0.173409 0.122239,0.179094 0.193309,-0.07675 q 0.216051,0.221736 0.329762,0.636781 0.116553,0.412203 0.116553,1.012028 0,0.198994 -0.02274,0.434945 -0.02274,0.23595 -0.08244,0.463372 -0.05686,0.224579 -0.15351,0.415045 -0.09665,0.187624 -0.241636,0.292806 -0.20468,0.144982 -0.412202,0.221737 -0.20468,0.07676 -0.400832,0.09665 -0.09097,0.0085 -0.181937,0.0085 -0.0995,0 -0.190466,-0.01137 -0.17341,-0.02274 -0.315548,-0.07676 -0.179095,-0.06538 -0.312706,-0.261535 -0.130767,-0.198994 -0.213208,-0.471901 -0.0796,-0.272906 -0.105182,-0.602668 z m 0.693637,-0.531599 q -0.0085,0.110868 -0.0057,0.218894 0,0.20468 0.02843,0.403674 0.04264,0.301334 0.159195,0.483272 0.05686,0.09381 0.167724,0.142138 0.110868,0.04548 0.23595,0.04548 0.125083,0 0.238794,-0.04264 0.113711,-0.04548 0.173409,-0.139296 0.05685,-0.09381 0.110868,-0.270063 0.05686,-0.179095 0.08813,-0.392303 0.03411,-0.216051 0.0398,-0.449159 0,-0.03127 0,-0.06254 0,-0.198994 -0.03411,-0.383775 -0.03696,-0.213208 -0.125082,-0.380932 -0.08528,-0.167723 -0.233108,-0.255849 -0.09381,-0.05686 -0.218894,-0.05686 -0.0057,0 -0.01421,0 -0.13361,0.0028 -0.230264,0.09097 -0.167724,0.150667 -0.264379,0.44063 -0.09381,0.28712 -0.116553,0.608354 z"
         style="font-style:normal;font-variant:normal;font-weight:normal;font-stretch:normal;font-family:AngryBirds;-inkscape-font-specification:AngryBirds;fill:#000080;stroke-width:0.14555006"
         id="path1882" />
      <path
         d="m 90.554537,18.060797 0.0199,-0.108026 q 0.321233,-0.105183 0.642467,-0.159195 0.324076,-0.05686 0.625411,-0.0597 0.01706,0 0.03127,0 0.284278,0 0.531599,0.04833 0.258693,0.05117 0.449159,0.176252 0.173409,0.110868 0.275749,0.278592 0.105182,0.167723 0.125082,0.378089 0.0057,0.05117 0.0057,0.108025 0,0.162038 -0.04833,0.343976 -0.06254,0.241636 -0.216051,0.4918 -0.02843,0.05117 -0.08813,0.127925 -0.0597,0.07675 -0.130767,0.164881 -0.06823,0.08528 -0.150667,0.170566 -0.0796,0.08244 -0.156353,0.147825 0.07107,0.167724 0.150667,0.355347 0.08244,0.18478 0.159195,0.358189 0.0796,0.170567 0.150668,0.315548 0.07107,0.142139 0.110868,0.221737 l -0.0398,0.04264 -0.33829,-0.187624 -0.01706,0.289963 -0.116554,-0.05117 -0.105182,0.07107 -0.705009,-1.088783 -0.366718,0.144982 -0.02843,0.872732 -0.09381,-0.01137 -0.193309,-0.304177 -0.150667,0.392303 -0.105183,-0.04264 q -0.0057,-0.173409 -0.0199,-0.497486 -0.01421,-0.324076 -0.02559,-0.705008 -0.01137,-0.380932 -0.01137,-0.773235 0,-0.392303 0.02274,-0.713537 l 0.01706,-0.227422 -0.184781,-0.13361 0.30702,-0.278592 z m 0.838619,1.830747 q 0.210365,-0.08244 0.432102,-0.221737 0.221736,-0.139296 0.383775,-0.304177 0.162038,-0.167723 0.23595,-0.346818 0.03411,-0.0796 0.03411,-0.159196 0,-0.09381 -0.04833,-0.18478 -0.05117,-0.09381 -0.218894,-0.119397 -0.136453,-0.02274 -0.281434,-0.02274 -0.03127,0 -0.06538,0 -0.210366,0.01137 -0.46053,0.05401 z"
         style="font-style:normal;font-variant:normal;font-weight:normal;font-stretch:normal;font-family:AngryBirds;-inkscape-font-specification:AngryBirds;fill:#000080;stroke-width:0.14555006"
         id="path1884" />
      <path
         d="m 93.559352,18.191564 0.0796,-0.187623 -0.0398,-0.07676 1.665866,-0.110868 0.05117,0.227422 -0.361033,0.250164 0.343976,0.105183 -0.04548,0.127925 -0.84999,0.07676 -0.0199,0.895474 0.849989,-0.02843 -0.09665,0.304177 0.167724,0.06823 -0.02843,0.156352 -0.88126,0.08813 0.03696,0.949487 0.878417,-0.03411 -0.05685,0.301334 0.156353,0.07107 -0.06538,0.221736 -1.373061,0.0796 0.02274,-0.295649 -0.355346,0.02274 0.03696,-2.723378 -0.07107,-0.116554 0.250164,-0.216051 z"
         style="font-style:normal;font-variant:normal;font-weight:normal;font-stretch:normal;font-family:AngryBirds;-inkscape-font-specification:AngryBirds;fill:#000080;stroke-width:0.14555006"
         id="path1886" />
      <path
         d="m 95.69996,19.249077 q 0.02274,-0.295649 0.176252,-0.540128 0.156352,-0.244478 0.397988,-0.42073 0.241636,-0.179095 0.537285,-0.292806 0.298491,-0.113711 0.608354,-0.147825 0.0597,-0.0085 0.144981,-0.01137 0.02274,0 0.04548,0.0028 0.116553,0.0028 0.198994,0.0085 l 0.02274,0.07391 -0.378089,0.210365 0.301334,0.144981 -0.127925,0.12224 0.08813,0.164881 q -0.210365,0.01706 -0.415045,0.05686 -0.201837,0.0398 -0.363875,0.110869 -0.159196,0.07107 -0.270064,0.173409 -0.110868,0.0995 -0.13361,0.233107 -0.0057,0.03411 -0.0057,0.06823 0,0.108025 0.07675,0.181938 0.0995,0.0995 0.238793,0.164881 0.07107,0.02843 0.144982,0.05401 0.07676,0.02558 0.150667,0.05117 0.07107,0.02274 0.13361,0.0398 0.06538,0.01706 0.110869,0.02843 0.278592,0.08813 0.434944,0.241636 0.159196,0.15351 0.159196,0.452001 0,0.315548 -0.17341,0.557184 -0.170566,0.241636 -0.537284,0.426416 -0.144982,0.07107 -0.292806,0.119397 -0.147824,0.04833 -0.289963,0.08244 -0.139296,0.03696 -0.264378,0.05401 -0.125082,0.01706 -0.230265,0.02843 l 0.0995,-0.184781 -0.267221,-0.07675 0.116554,-0.17341 -0.0995,-0.105182 q 0.0995,-0.02274 0.218894,-0.04833 0.119396,-0.02843 0.241635,-0.06254 0.110869,-0.03411 0.22458,-0.08244 0.113711,-0.05117 0.20468,-0.119397 0.09381,-0.07107 0.153509,-0.156352 0.06254,-0.08528 0.06254,-0.181938 0,-0.122239 -0.119396,-0.201837 -0.119397,-0.0796 -0.264378,-0.125082 -0.150667,-0.05117 -0.301334,-0.08528 -0.147825,-0.03696 -0.221737,-0.06538 -0.261535,-0.105183 -0.412202,-0.284278 -0.127925,-0.15351 -0.127925,-0.403674 0,-0.0398 0.0028,-0.08244 z"
         style="font-style:normal;font-variant:normal;font-weight:normal;font-stretch:normal;font-family:AngryBirds;-inkscape-font-specification:AngryBirds;fill:#000080;stroke-width:0.14555006"
         id="path1888" />
      <path
         d="m 98.471666,21.520454 q -0.10234,-0.110868 -0.110868,-0.233107 -0.0057,-0.12224 0.02558,-0.321234 0.01706,-0.133611 0.09665,-0.23595 0.08244,-0.105183 0.198995,-0.159196 0.116554,-0.05685 0.247321,-0.05685 0.130768,0 0.247322,0.07391 0.03411,0.02274 0.05401,0.127925 0.02274,0.105182 0.01421,0.23595 -0.0085,0.130768 -0.05117,0.25585 -0.0398,0.125082 -0.116553,0.190466 -0.07107,0.05685 -0.162039,0.0995 -0.08813,0.0398 -0.176252,0.05685 -0.08528,0.01706 -0.159195,0.0085 -0.07107,-0.0085 -0.108026,-0.04264 z"
         style="font-style:normal;font-variant:normal;font-weight:normal;font-stretch:normal;font-family:AngryBirds;-inkscape-font-specification:AngryBirds;fill:#000080;stroke-width:0.14555006"
         id="path1890" />
      <path
         d="m 8.0827817,25.493037 0.079598,-0.187623 -0.039799,-0.07675 1.6658664,-0.110868 0.05117,0.227422 -0.3610324,0.250164 0.3439758,0.105183 -0.045484,0.127925 -0.8499898,0.07675 -0.019899,0.895474 0.8499898,-0.02843 -0.096654,0.304177 0.1677237,0.06823 -0.028428,0.156353 -0.8812604,0.08813 0.036956,0.949487 0.8784176,-0.03411 -0.056855,0.301334 0.1563526,0.07107 -0.065384,0.221736 -1.3730605,0.0796 0.022742,-0.295649 -0.3553469,0.02274 0.036956,-2.723379 -0.071069,-0.116554 0.2501642,-0.216051 z"
         style="font-style:normal;font-variant:normal;font-weight:normal;font-stretch:normal;font-family:AngryBirds;-inkscape-font-specification:AngryBirds;stroke-width:0.14555006"
         id="path1892" />
      <path
         d="m 10.317203,25.25993 0.25585,-0.133611 0.20468,0.213209 0.25585,-0.08528 1.18828,2.157667 h 0.116553 l -0.03411,-2.14061 0.150667,-0.08813 0.261536,0.361032 0.244478,-0.366718 0.105183,0.01706 -0.0057,3.73825 -0.06538,0.0398 -0.207523,-0.21605 -0.292806,0.204679 -0.116554,-0.02274 -1.174066,-1.850647 -0.147824,-0.01706 -0.04548,1.879074 -0.167723,-0.02274 -0.227422,-0.309862 -0.170567,0.343975 -0.0995,-0.05117 z"
         style="font-style:normal;font-variant:normal;font-weight:normal;font-stretch:normal;font-family:AngryBirds;-inkscape-font-specification:AngryBirds;stroke-width:0.14555006"
         id="path1894" />
      <path
         d="m 13.430042,25.478824 0.02843,-0.10234 2.299805,-0.164881 -0.09381,0.144981 0.164881,0.170567 -0.281435,0.179095 0.281435,0.122239 -0.02274,0.0995 -0.759021,0.05401 -0.0398,2.896788 -0.08813,0.02559 -0.190466,-0.415045 -0.133611,0.355347 -0.142139,-0.144982 -0.167723,0.105183 -0.02843,-2.788763 -0.705008,0.04548 0.02843,-0.105183 -0.0995,-0.0796 0.326919,-0.244479 z"
         style="font-style:normal;font-variant:normal;font-weight:normal;font-stretch:normal;font-family:AngryBirds;-inkscape-font-specification:AngryBirds;stroke-width:0.14555006"
         id="path1896" />
      <path
         d="m 16.022653,28.787814 0.750493,-3.593268 0.233108,0.07107 0.213208,-0.187623 0.321233,0.395146 0.181938,-0.355347 0.201837,0.122239 0.187623,-0.108025 0.679423,3.678551 -0.127924,-0.08813 -0.213209,0.12224 -0.164881,-0.210366 -0.156352,0.159196 -0.216051,-0.787449 -1.083098,0.08813 -0.207522,0.793134 -0.0597,0.02274 -0.184781,-0.233107 -0.233107,0.18478 z m 0.162038,-4.326704 q 0.02843,-0.04548 0.05117,-0.08244 0.02558,-0.0398 0.04833,-0.0796 0.08813,-0.144982 0.187623,-0.247322 0.10234,-0.102339 0.284277,-0.130767 0.187623,-0.03411 0.298492,-0.0057 0.113711,0.02843 0.213208,0.09097 0.05117,0.03411 0.0995,0.07391 0.05117,0.03696 0.110868,0.07391 0.06538,0.0398 0.127925,0.07107 0.06254,0.03127 0.144982,0.06254 0.07675,0.02274 0.142138,0.0085 0.06823,-0.01421 0.125083,-0.05401 0.0597,-0.04264 0.105182,-0.09381 0.04549,-0.05401 0.08813,-0.105183 0.04548,-0.05685 0.08528,-0.136453 0.01706,0 0.03411,0.0057 0.0199,0.0028 0.03696,0.0028 l -0.01706,0.144982 h 0.139296 l -0.01137,0.13361 0.08244,0.0398 q -0.06538,0.13361 -0.156353,0.272906 -0.09097,0.136454 -0.159195,0.198995 -0.144982,0.127925 -0.32692,0.162038 -0.179094,0.03127 -0.349661,-0.02274 -0.02843,-0.01137 -0.06823,-0.03127 -0.03696,-0.0199 -0.08244,-0.04833 -0.04548,-0.02843 -0.0995,-0.06254 -0.05117,-0.03696 -0.0995,-0.07391 -0.105183,-0.07107 -0.213208,-0.127925 -0.105183,-0.05686 -0.210366,-0.06823 -0.04548,0 -0.113711,0.06254 -0.06823,0.0597 -0.130768,0.133611 -0.02843,0.03411 -0.05401,0.07107 -0.02274,0.03411 -0.05117,0.06538 l -0.02274,0.02843 -0.04548,-0.0057 0.05117,-0.144981 h -0.176252 l 0.03696,-0.0995 q -0.02843,-0.02274 -0.05401,-0.0398 -0.02274,-0.0199 -0.05117,-0.04264 z m 0.790292,2.9707 0.832933,-0.07675 -0.289963,-1.304834 -0.244479,0.01706 z"
         style="font-style:normal;font-variant:normal;font-weight:normal;font-stretch:normal;font-family:AngryBirds;-inkscape-font-specification:AngryBirds;stroke-width:0.14555006"
         id="path1898" />
      <path
         d="m 19.047366,27.519936 q -0.01137,-0.156352 -0.01421,-0.312705 0,-0.173409 0.01706,-0.346819 0.05686,-0.59414 0.164881,-0.93243 0.108026,-0.33829 0.318391,-0.517385 0.07676,-0.06538 0.193309,-0.130768 0.119396,-0.06823 0.264378,-0.116553 0.147824,-0.05117 0.315548,-0.07107 0.0796,-0.0085 0.159195,-0.0085 l 0.179095,0.01137 -0.01137,0.33829 0.284278,-0.173409 0.122239,0.179095 0.193309,-0.07676 q 0.21605,0.221736 0.329762,0.636782 0.116553,0.412202 0.116553,1.012028 0,0.198994 -0.02274,0.434944 -0.02274,0.23595 -0.08244,0.463373 -0.05686,0.224579 -0.15351,0.415045 -0.09666,0.187623 -0.241636,0.292806 -0.20468,0.144981 -0.412203,0.221736 -0.204679,0.07675 -0.400831,0.09665 -0.09097,0.0085 -0.181938,0.0085 -0.0995,0 -0.190465,-0.01137 -0.17341,-0.02274 -0.315549,-0.07675 -0.179094,-0.06538 -0.312705,-0.261536 -0.130767,-0.198994 -0.213208,-0.4719 -0.0796,-0.272907 -0.105183,-0.602669 z m 0.693638,-0.531599 q -0.0085,0.110869 -0.0057,0.218894 0,0.20468 0.02843,0.403674 0.04264,0.301334 0.159195,0.483272 0.05686,0.09381 0.167724,0.142139 0.110868,0.04548 0.23595,0.04548 0.125082,0 0.238793,-0.04264 0.113711,-0.04548 0.17341,-0.139296 0.05686,-0.09381 0.110868,-0.270063 0.05686,-0.179095 0.08813,-0.392303 0.03411,-0.216051 0.0398,-0.449159 0,-0.03127 0,-0.06254 0,-0.198994 -0.03411,-0.383774 -0.03696,-0.213209 -0.125082,-0.380932 -0.08528,-0.167724 -0.233107,-0.25585 -0.09381,-0.05686 -0.218894,-0.05686 -0.0057,0 -0.01421,0 -0.13361,0.0028 -0.230265,0.09097 -0.167723,0.150667 -0.264378,0.44063 -0.09381,0.287121 -0.116553,0.608354 z"
         style="font-style:normal;font-variant:normal;font-weight:normal;font-stretch:normal;font-family:AngryBirds;-inkscape-font-specification:AngryBirds;stroke-width:0.14555006"
         id="path1900" />
      <path
         d="m 22.126092,28.821927 q -0.10234,-0.110868 -0.110868,-0.233107 -0.0057,-0.12224 0.02558,-0.321234 0.01706,-0.13361 0.09665,-0.23595 0.08244,-0.105183 0.198994,-0.159196 0.116554,-0.05686 0.247322,-0.05686 0.130768,0 0.247321,0.07391 0.03411,0.02274 0.05401,0.127925 0.02274,0.105183 0.01421,0.23595 -0.0085,0.130768 -0.05117,0.25585 -0.0398,0.125082 -0.116554,0.190466 -0.07107,0.05686 -0.162038,0.0995 -0.08813,0.0398 -0.176252,0.05686 -0.08528,0.01706 -0.159196,0.0085 -0.07107,-0.0085 -0.108025,-0.04264 z m 0.147824,-2.106496 q -0.105182,-0.110868 -0.110868,-0.233108 -0.0057,-0.122239 0.02274,-0.321233 0.01706,-0.133611 0.09665,-0.238793 0.08244,-0.105183 0.198994,-0.159196 0.116554,-0.05685 0.247321,-0.05685 0.130768,0 0.247322,0.07675 0.03411,0.02274 0.05401,0.127924 0.02274,0.105183 0.01421,0.235951 -0.0085,0.130767 -0.05117,0.25585 -0.0398,0.125082 -0.113711,0.190466 -0.07107,0.05686 -0.162038,0.0995 -0.08813,0.0398 -0.176252,0.05685 -0.08813,0.01706 -0.162038,0.0085 -0.07107,-0.0085 -0.105183,-0.04264 z"
         style="font-style:normal;font-variant:normal;font-weight:normal;font-stretch:normal;font-family:AngryBirds;-inkscape-font-specification:AngryBirds;stroke-width:0.14555006"
         id="path1902" />
    </g>
    <g
       aria-label="p   q = "
       style="font-style:normal;font-variant:normal;font-weight:normal;font-stretch:normal;font-size:20.68317604px;line-height:1.25;font-family:'URW Gothic L';-inkscape-font-specification:'URW Gothic L';letter-spacing:0px;word-spacing:0px;fill:#000000;fill-opacity:1;stroke:none;stroke-width:0.51707935"
       id="text14-7-1">
      <path
         d="m 37.566478,29.853401 0.121191,-0.504961 q 0.848333,-0.313075 1.939048,-0.545357 1.100813,-0.232281 2.191527,-0.302976 0.282778,-0.0202 0.555457,-0.0101 0.777639,0 1.474484,0.13129 0.939226,0.171686 1.454286,0.666547 0.828135,0.807937 1.121012,1.848155 0.201984,0.706945 0.191885,1.413889 0,0.333274 -0.0404,0.666548 -0.13129,1.050317 -0.63625,2.050139 -0.494861,0.989722 -1.252302,1.716865 -0.25248,0.232282 -0.646349,0.484762 -0.393869,0.242381 -0.878631,0.474663 -0.484762,0.222182 -1.060417,0.424166 -0.565555,0.191885 -1.14121,0.313076 l -0.0202,3.595318 -0.37367,0.131289 -0.414068,-1.161409 -0.828135,1.121012 -0.535258,-0.62615 -0.414067,0.25248 -0.100992,-10.341588 -0.454465,-0.353473 1.242203,-1.282599 z m 3.140854,1.52498 0.111091,4.857719 q 0.51506,-0.181786 0.949325,-0.393869 0.373671,-0.161588 0.717044,-0.333274 0.353472,-0.181786 0.525159,-0.323175 0.434266,-0.393869 0.737242,-0.929127 0.313075,-0.535258 0.403968,-1.090714 0.0303,-0.201984 0.0404,-0.38377 0,-0.343373 -0.111091,-0.656449 -0.161587,-0.494861 -0.696845,-0.828135 -0.252481,-0.151488 -0.666548,-0.161587 -0.0303,0 -0.0505,0.0101 -0.444365,0.0101 -0.878631,0.0505 -0.525159,0.08079 -1.080615,0.181786 z"
         style="font-style:normal;font-variant:normal;font-weight:normal;font-stretch:normal;font-family:AngryBirds;-inkscape-font-specification:AngryBirds;stroke-width:0.51707935"
         id="path1905" />
      <path
         d="m 60.168503,36.276497 q 0,-0.908929 0.06059,-1.78756 0.0707,-0.878631 0.25248,-1.676468 0.181786,-0.807937 0.545358,-1.545179 0.363571,-0.737242 0.969524,-1.333096 0.454464,-0.454464 1.151309,-0.676646 0.706945,-0.232282 1.454286,-0.272679 0.181786,-0.0101 0.363571,-0.0202 0.545358,0 1.040219,0.100992 0.666547,0.12119 1.030119,0.37367 0.555456,0.373671 0.969524,0.959425 0.414067,0.585754 0.676647,1.302798 0.262579,0.706944 0.383769,1.474484 0.121191,0.76754 0.121191,1.474484 0,0.414068 0.0101,0.807937 0,0.131289 0.0101,0.262579 0,0.26258 -0.0202,0.535258 -0.0202,0.414068 -0.0505,0.797837 -0.0303,0.38377 -0.111091,0.777639 -0.141389,0.747342 -0.494862,1.494683 -0.353472,0.737242 -1.201805,1.686568 0.333274,0.37367 0.686746,0.75744 0.363571,0.38377 0.535258,0.545357 l -0.272679,0.292877 -0.868532,-0.37367 -0.100992,0.747341 -0.454464,0.0404 q -0.100992,-0.100992 -0.363571,-0.424167 -0.26258,-0.323174 -0.545358,-0.666548 -0.474662,0.141389 -1.030119,0.222183 -0.393869,0.06059 -0.797837,0.06059 l -0.292877,-0.0101 q -0.545357,-0.0303 -1.080615,-0.201984 -0.525159,-0.181786 -0.979623,-0.555456 -0.393869,-0.313076 -0.696846,-0.919028 -0.292877,-0.605953 -0.494861,-1.322996 -0.191885,-0.727143 -0.302976,-1.504782 -0.100992,-0.787738 -0.100992,-1.423988 z m 2.444008,-0.575655 q -0.0101,0.181785 -0.0101,0.363571 0,0.363572 0.0303,0.747341 0.0404,0.565556 0.161587,1.090715 0.13129,0.525159 0.333274,0.989722 0.212083,0.454464 0.515059,0.717044 0.08079,0.08079 0.26258,0.100992 0.191885,0.0202 0.403968,0.0202 0.232282,0 0.494861,-0.0202 l -0.515059,-1.171508 0.535257,0.262579 0.373671,-0.616051 0.323175,0.323174 q 0.222182,0.222183 0.50496,0.484762 0.353472,-0.535258 0.51506,-0.979623 0.161587,-0.454464 0.232281,-0.868532 0.0606,-0.414067 0.0707,-0.737242 0.0101,-0.333274 0.0101,-0.585754 0,-0.37367 -0.0202,-0.838234 -0.0202,-0.464564 -0.09089,-0.939226 -0.0606,-0.474663 -0.181786,-0.89883 -0.12119,-0.424166 -0.333274,-0.706944 -0.232281,-0.272679 -0.616051,-0.444365 -0.373671,-0.181786 -0.797838,-0.191885 -0.0202,0 -0.0505,0 -0.403968,0 -0.777639,0.161587 -0.403968,0.171687 -0.626151,0.575655 -0.313075,0.555456 -0.515059,1.333095 -0.191885,0.777639 -0.232282,1.827957 z"
         style="font-style:normal;font-variant:normal;font-weight:normal;font-stretch:normal;font-family:AngryBirds;-inkscape-font-specification:AngryBirds;stroke-width:0.51707935"
         id="path1907" />
      <path
         d="m 74.741659,37.993362 0.868532,-0.575655 -0.535258,-1.030119 5.029405,-0.333274 0.313076,0.616052 -0.807937,0.605952 0.26258,1.030119 -4.938513,0.666548 0.100992,-0.565556 z m 0.0707,-5.079901 0.323174,-0.525159 -0.06059,-0.969524 4.989008,-0.181786 0.0202,0.373671 -0.626151,0.868532 0.626151,0.75744 -0.13129,0.333274 -4.776925,0.535258 0.25248,-0.575655 z"
         style="font-style:normal;font-variant:normal;font-weight:normal;font-stretch:normal;font-family:AngryBirds;-inkscape-font-specification:AngryBirds;stroke-width:0.51707935"
         id="path1909" />
    </g>
    <g
       id="g734"
       transform="translate(4.988608,-93.115079)">
      <path
         style="opacity:1;fill:#ffffff;fill-opacity:1;stroke:#ffffff;stroke-width:0.10485733;stroke-linecap:round;stroke-linejoin:round;stroke-miterlimit:4;stroke-dasharray:none;stroke-dashoffset:0;stroke-opacity:1"
         d="m 43.57272,120.11445 h 9.858732 v 17.51068 H 43.57272 Z"
         id="rect847-0" />
      <g
         aria-label="?"
         style="font-style:normal;font-variant:normal;font-weight:normal;font-stretch:normal;font-size:20.05946541px;line-height:1.25;font-family:'URW Gothic L';-inkscape-font-specification:'URW Gothic L';letter-spacing:0px;word-spacing:0px;fill:#00ff00;fill-opacity:1;stroke:#000000;stroke-width:0.1442789;stroke-miterlimit:4;stroke-dasharray:none"
         id="text40-9">
        <path
           d="m 44.326724,122.04293 0.479938,-0.42117 q -0.03918,-0.0588 -0.09795,-0.13712 -0.03918,-0.0588 -0.117536,-0.12733 -0.06856,-0.0784 -0.107742,-0.15672 1.165565,-0.34281 2.321335,-0.44076 1.15577,-0.0979 2.380103,0.0588 0.979466,0.11753 1.743449,0.62686 0.763984,0.49952 1.243922,1.22433 0.479938,0.71501 0.656242,1.57694 0.186099,0.86193 -0.01959,1.72386 -0.156715,0.64645 -0.58768,1.15577 -0.430965,0.50932 -1.067618,0.94029 -0.626858,0.43096 -1.420225,0.79337 -0.793368,0.3624 -1.674887,0.68562 -0.117536,0.34281 -0.205688,0.66604 -0.07836,0.31343 -0.137126,0.61706 -0.05877,0.28405 -0.07836,0.52891 -0.01959,0.23508 -0.05877,0.39179 l -0.303634,0.26446 -0.842341,-0.76399 -0.323224,1.01865 -0.254661,-0.0392 q -0.03918,-0.24487 -0.107741,-0.64645 -0.05877,-0.41137 -0.117536,-0.88152 -0.05877,-0.47994 -0.107742,-0.97946 -0.04897,-0.49953 -0.04897,-0.94029 0.362403,-0.19589 0.86193,-0.44076 0.499528,-0.24487 1.018645,-0.51912 0.705216,-0.40158 1.243922,-0.86193 0.538706,-0.46035 0.685626,-0.93049 0.176304,-0.57789 0.05877,-1.06762 -0.117536,-0.48973 -0.42117,-0.85213 -0.303635,-0.36241 -0.754189,-0.58768 -0.450555,-0.23508 -0.930493,-0.27426 -0.577885,-0.0392 -1.283101,-0.0392 -0.705215,0 -1.469199,0.13712 l 0.783573,-0.82275 z m 0.822751,14.92706 q -0.205688,-0.14692 -0.284045,-0.3526 -0.07836,-0.21549 0,-0.46035 0.07836,-0.25466 0.323224,-0.51912 0.244866,-0.27425 0.685626,-0.53871 0.137125,-0.0784 0.411376,-0.12733 0.284045,-0.049 0.597474,-0.0686 0.313429,-0.0196 0.568091,0 0.264455,0.0196 0.342813,0.0784 0.09795,0.0588 0.195893,0.26445 0.107741,0.1959 0.117536,0.45056 0.0098,0.24487 -0.117536,0.51912 -0.117536,0.26445 -0.470144,0.50932 -0.225277,0.15671 -0.597474,0.22528 -0.372197,0.0784 -0.7346,0.10774 -0.352607,0.0294 -0.656242,0 -0.303634,-0.0294 -0.381992,-0.0882 z"
           style="font-style:normal;font-variant:normal;font-weight:normal;font-stretch:normal;font-family:AngryBirds;-inkscape-font-specification:AngryBirds;fill:#00ff00;stroke:#000000;stroke-width:0.1442789;stroke-miterlimit:4;stroke-dasharray:none"
           id="path1913" />
      </g>
    </g>
    <g
       transform="matrix(0.60814045,0,0,0.60814045,81.737891,29.529146)"
       id="ID0.1613758858293295">
      <g
         id="ID0.04199532698839903">
        <g
           id="ID0.4123793593607843">
          <path
             style="fill:#003fff"
             inkscape:connector-curvature="0"
             id="ID0.6994774197228253"
             d="m 71.96,13.2 c 0,1.65 -0.3,3.3 -0.88,4.93 -1.58,4.67 -5.11,7.97 -9.67,9.25 -0.32,2.11 -0.91,5.63 -2.03,11.87 -0.03,0.14 -0.05,0.28 -0.08,0.42 -0.96,4.34 -2.33,10.95 -4.05,19.65 -0.33,1.97 -0.75,3.88 -1.26,5.67 -0.4,2.16 -0.83,4.3 -1.28,6.39 -0.03,0.15 -0.07,0.31 -0.11,0.46 -1.54,5.89 -5.22,10.23 -10.36,12.22 -0.06,0.02 -0.11,0.04 -0.16,0.06 -2.28,0.84 -4.22,1.23 -6.13,1.23 -2.62,0 -5.07,-0.76 -7.11,-2.21 C 27.15,81.97 25.28,80.43 24.03,77.95 23.54,76.97 23.2,75.92 23.02,74.83 23,74.74 22.91,74.22 22.6,72.96 22.31,72.13 21.61,70.14 20.5,67 20.43,66.79 20.36,66.57 20.3,66.36 19.96,65.18 19.43,63.39 18.71,60.99 17.94,58.65 17.2,56.24 16.49,53.82 15.35,50.27 13.68,44.92 11.41,37.52 10,37.24 8.62,36.8 7.3,36.18 6.48,35.79 5.71,35.31 5,34.73 1.82,32.13 0,28.29 0,24.19 0,18.1 3.67,12.93 9.36,11.03 9.43,11.01 9.49,10.99 9.56,10.97 12.8,9.96 15.62,9.37 18.15,9.2 18.89,9.04 19.73,8.89 20.7,8.74 21.55,8.61 22.42,8.59 23.27,8.66 23.41,8.65 23.77,8.61 24.41,8.48 26.2,8.12 27.54,7.91 28.65,7.81 28.88,7.44 29.13,7.08 29.4,6.74 31.15,4.54 34.46,1.8 40.27,1.19 40.36,1.18 40.45,1.17 40.53,1.16 41.9,1.05 44.01,0.85 46.86,0.57 47.05,0.55 47.25,0.54 47.45,0.53 48.73,0.47 50.45,0.41 52.62,0.36 54.32,0.22 55.41,0.13 55.89,0.08 56.34,0.03 56.8,0 57.26,0 c 9.65,0 14.7,6.64 14.7,13.2 z"
             transform="matrix(0.23988406,0,0,0.23988406,0.25,0)" />
        </g>
      </g>
      <g
         id="ID0.1456912192516029">
        <path
           style="fill:#ffffff"
           inkscape:connector-curvature="0"
           id="ID0.9227194082923234"
           d="m 60.693,14.517 c -0.527,1.643 -1.759,2.463 -3.694,2.463 -0.411,0 -1.231,-0.058 -2.463,-0.176 -0.998,-0.116 -1.759,-0.146 -2.287,-0.088 -0.118,0.06 -0.294,0.176 -0.527,0.352 -0.176,0.88 -0.471,3.05 -0.88,6.51 -0.235,1.994 -0.998,6.567 -2.287,13.722 -0.998,4.516 -2.375,11.201 -4.134,20.055 -0.294,1.818 -0.675,3.519 -1.144,5.102 -0.411,2.229 -0.851,4.429 -1.319,6.598 -0.646,2.463 -1.877,4.046 -3.694,4.75 -1.583,0.585 -2.61,0.703 -3.079,0.352 -0.763,-0.527 -1.202,-0.91 -1.319,-1.144 -0.118,-0.703 -0.352,-1.759 -0.703,-3.166 -0.118,-0.353 -0.88,-2.521 -2.287,-6.51 -0.352,-1.231 -0.91,-3.107 -1.671,-5.63 -0.764,-2.345 -1.496,-4.719 -2.199,-7.124 -1.174,-3.636 -2.962,-9.382 -5.366,-17.24 -0.41,-2.053 -1.114,-4.516 -2.11,-7.389 -2.463,0.587 -4.047,0.879 -4.75,0.879 -0.998,0 -1.936,-0.204 -2.814,-0.615 -0.646,-0.528 -0.968,-1.201 -0.968,-2.023 0,-1.407 0.615,-2.315 1.847,-2.727 2.815,-0.88 5.102,-1.319 6.861,-1.319 0.585,-0.176 1.465,-0.352 2.639,-0.528 1.056,0.118 2.463,0 4.222,-0.352 1.76,-0.352 2.932,-0.527 3.519,-0.527 0.88,0 1.672,0.176 2.375,0.527 0.586,0.528 0.88,1.203 0.88,2.023 0,1.466 -0.704,2.405 -2.111,2.814 -1.29,0.06 -3.05,0.439 -5.277,1.144 0.117,2.054 0.381,3.725 0.792,5.014 0.879,2.639 2.11,6.305 3.694,10.995 0.058,0.587 0.204,1.379 0.439,2.375 1.231,4.692 3.312,11.318 6.245,19.879 0.352,-0.819 0.792,-2.429 1.319,-4.828 0.645,-3.395 1.056,-5.414 1.231,-6.059 1.056,-4.097 1.964,-8.281 2.727,-12.555 1.113,-5.853 1.7,-8.925 1.76,-9.218 0.761,-3.687 1.289,-6.643 1.583,-8.867 0.233,-1.639 0.439,-3.248 0.615,-4.829 -0.059,-0.058 -0.118,-0.116 -0.176,-0.176 -3.988,0.06 -6.157,0.06 -6.509,0 -0.527,0 -1.231,-0.462 -2.111,-1.387 0,-0.058 0.044,-0.145 0.132,-0.26 0.089,-0.115 0.161,-0.203 0.221,-0.261 -0.06,-0.347 -0.03,-0.837 0.088,-1.474 0.645,-0.808 1.788,-1.3 3.431,-1.474 1.407,-0.115 3.576,-0.317 6.509,-0.607 1.289,-0.058 3.048,-0.115 5.277,-0.173 2.814,-0.23 4.163,-0.347 4.046,-0.347 2.463,0 3.694,0.734 3.694,2.199 -0.003,0.412 -0.091,0.852 -0.267,1.32 z"
           transform="matrix(0.23988406,0,0,0.23988406,0.25,0)" />
      </g>
    </g>
  </g>
</svg>
