<?xml version="1.0" encoding="UTF-8" standalone="no"?>
<!-- Created with Inkscape (http://www.inkscape.org/) -->

<svg
   xmlns:dc="http://purl.org/dc/elements/1.1/"
   xmlns:cc="http://creativecommons.org/ns#"
   xmlns:rdf="http://www.w3.org/1999/02/22-rdf-syntax-ns#"
   xmlns:svg="http://www.w3.org/2000/svg"
   xmlns="http://www.w3.org/2000/svg"
   xmlns:sodipodi="http://sodipodi.sourceforge.net/DTD/sodipodi-0.dtd"
   xmlns:inkscape="http://www.inkscape.org/namespaces/inkscape"
   width="210mm"
   height="297mm"
   viewBox="0 0 210 297"
   version="1.1"
   id="svg1999"
   inkscape:version="0.92.1 r15371"
   sodipodi:docname="110.svg">
  <defs
     id="defs1993" />
  <sodipodi:namedview
     id="base"
     pagecolor="#ffffff"
     bordercolor="#666666"
     borderopacity="1.0"
     inkscape:pageopacity="0.0"
     inkscape:pageshadow="2"
     inkscape:zoom="0.35"
     inkscape:cx="400"
     inkscape:cy="560"
     inkscape:document-units="mm"
     inkscape:current-layer="layer1"
     showgrid="false"
     inkscape:window-width="1366"
     inkscape:window-height="704"
     inkscape:window-x="0"
     inkscape:window-y="27"
     inkscape:window-maximized="1" />
  <metadata
     id="metadata1996">
    <rdf:RDF>
      <cc:Work
         rdf:about="">
        <dc:format>image/svg+xml</dc:format>
        <dc:type
           rdf:resource="http://purl.org/dc/dcmitype/StillImage" />
        <dc:title></dc:title>
      </cc:Work>
    </rdf:RDF>
  </metadata>
  <g
     inkscape:label="Camada 1"
     inkscape:groupmode="layer"
     id="layer1">
    <path
       style="opacity:1;fill:#e6e6e6;fill-opacity:1;stroke:#cccccc;stroke-width:0.35642663;stroke-linecap:round;stroke-linejoin:round;stroke-miterlimit:4;stroke-dasharray:none;stroke-dashoffset:0;stroke-opacity:1"
       d="M 14.52542,14.565322 H 141.20077 V 48.75611 H 14.52542 Z"
       id="rect10" />
    <g
       aria-label="="
       style="font-style:normal;font-variant:normal;font-weight:normal;font-stretch:normal;font-size:15.26951599px;line-height:1.25;font-family:'URW Gothic L';-inkscape-font-specification:'URW Gothic L';letter-spacing:0px;word-spacing:0px;fill:#000000;fill-opacity:1;stroke:none;stroke-width:0.38173789"
       id="text14">
      <path
         d="m 119.0306,37.648975 0.6412,-0.424982 -0.39515,-0.760494 3.71299,-0.246042 0.23113,0.454805 -0.59646,0.447349 0.19385,0.760494 -3.64589,0.492084 0.0746,-0.417526 z m 0.0522,-3.750277 0.23858,-0.387703 -0.0447,-0.715758 3.68317,-0.134205 0.0149,0.275865 -0.46226,0.641201 0.46226,0.559186 -0.0969,0.246042 -3.52661,0.395159 0.1864,-0.424982 z"
         style="font-style:normal;font-variant:normal;font-weight:normal;font-stretch:normal;font-family:AngryBirds;-inkscape-font-specification:AngryBirds;stroke-width:0.38173789"
         id="path2160" />
    </g>
    <g
       id="g18"
       transform="matrix(1.442789,0,0,1.442789,-1.0153522,-143.43056)">
      <path
         style="opacity:1;fill:#ffffff;fill-opacity:1;stroke:#ffffff;stroke-width:0.1;stroke-linecap:round;stroke-linejoin:round;stroke-miterlimit:4;stroke-dasharray:none;stroke-dashoffset:0;stroke-opacity:1"
         d="m 36.947174,116.61086 h 10.583333 v 14.83557 H 36.947174 Z"
         id="rect847" />
      <g
         aria-label="?"
         style="font-style:normal;font-variant:normal;font-weight:normal;font-stretch:normal;font-size:13.90325642px;line-height:1.25;font-family:'URW Gothic L';-inkscape-font-specification:'URW Gothic L';letter-spacing:0px;word-spacing:0px;fill:#00ff00;fill-opacity:1;stroke:#000000;stroke-width:0.1;stroke-miterlimit:4;stroke-dasharray:none"
         id="text40">
        <path
           d="m 39.261911,119.27773 0.332646,-0.29191 q -0.02716,-0.0407 -0.06789,-0.095 -0.02716,-0.0407 -0.08146,-0.0883 -0.04752,-0.0543 -0.07468,-0.10862 0.807855,-0.23761 1.608922,-0.3055 0.801066,-0.0679 1.649654,0.0407 0.67887,0.0815 1.208388,0.43447 0.529519,0.34623 0.862165,0.84859 0.332646,0.49558 0.454843,1.09298 0.128985,0.59741 -0.01358,1.19481 -0.108619,0.44806 -0.407321,0.80107 -0.298703,0.35301 -0.739969,0.65171 -0.434476,0.29871 -0.984361,0.54989 -0.549885,0.25118 -1.160868,0.47521 -0.08146,0.2376 -0.142562,0.46163 -0.05431,0.21724 -0.09504,0.42769 -0.04073,0.19687 -0.05431,0.36659 -0.01358,0.16293 -0.04073,0.27155 l -0.21045,0.18329 -0.583828,-0.52952 -0.224027,0.70603 -0.176506,-0.0272 q -0.02716,-0.16972 -0.07468,-0.44805 -0.04073,-0.28513 -0.08146,-0.61099 -0.04073,-0.33264 -0.07468,-0.67887 -0.03394,-0.34622 -0.03394,-0.65171 0.251181,-0.13577 0.597405,-0.30549 0.346224,-0.16972 0.706025,-0.3598 0.488786,-0.27834 0.862165,-0.59741 0.373378,-0.31907 0.475209,-0.64493 0.122196,-0.40053 0.04073,-0.73996 -0.08146,-0.33944 -0.291914,-0.59062 -0.21045,-0.25118 -0.52273,-0.40732 -0.31228,-0.16293 -0.644927,-0.19009 -0.400533,-0.0272 -0.889319,-0.0272 -0.488786,0 -1.018305,0.095 l 0.543096,-0.57025 z m 0.570251,10.34598 q -0.142563,-0.10183 -0.196873,-0.24439 -0.05431,-0.14935 0,-0.31907 0.05431,-0.17651 0.224027,-0.3598 0.169718,-0.19008 0.475209,-0.37338 0.09504,-0.0543 0.285126,-0.0882 0.196872,-0.034 0.41411,-0.0475 0.217239,-0.0136 0.393745,0 0.183295,0.0136 0.237604,0.0543 0.06789,0.0407 0.135774,0.18329 0.07468,0.13578 0.08146,0.31228 0.0068,0.16972 -0.08146,0.3598 -0.08146,0.1833 -0.325857,0.35301 -0.15614,0.10862 -0.414111,0.15614 -0.25797,0.0543 -0.509152,0.0747 -0.244394,0.0204 -0.454843,0 -0.21045,-0.0204 -0.264759,-0.0611 z"
           style="font-style:normal;font-variant:normal;font-weight:normal;font-stretch:normal;font-family:AngryBirds;-inkscape-font-specification:AngryBirds;fill:#00ff00;stroke:#000000;stroke-width:0.1;stroke-miterlimit:4;stroke-dasharray:none"
           id="path2157" />
      </g>
    </g>
    <g
       transform="matrix(0.74416102,0,0,0.74416102,123.54699,28.385917)"
       id="ID0.4852326139807701">
      <g
         id="ID0.5663091018795967">
        <g
           id="ID0.3804601556621492">
          <path
             style="fill:#003fff"
             inkscape:connector-curvature="0"
             id="ID0.027033838909119368"
             d="m 70.109,20.47 c -0.05,0.65 -0.08,1.2 -0.1,1.66 0.19,0.78 0.32,1.66 0.32,2.64 0,0.22 0.02,0.52 0.04,0.91 0.12,1.62 -0.13,3.25 -0.73,4.77 -0.48,1.23 -1.14,2.39 -2.09,3.67 -0.82,1.11 -1.84,2.06 -3.01,2.79 -2.52,1.57 -5.44,2.37 -8.69,2.37 -0.57,0 -1.14,-0.03 -1.69,-0.09 -0.08,1.01 -0.28,1.98 -0.58,2.9 -0.15,0.44 -0.32,0.88 -0.52,1.3 0.04,0.66 0.11,1.52 0.21,2.62 0.96,7.29 -3.09,11.05 -4.91,12.35 -0.38,0.26 -0.76,0.52 -1.16,0.75 1.48,2.57 1.83,4.95 1.83,6.6 0,4.6 -2.46,8.69 -6.74,11.21 -0.24,0.14 -0.49,0.27 -0.74,0.4 -0.47,0.23 -0.97,0.49 -1.49,0.76 -1.6,0.86 -3.38,1.31 -5.2,1.31 h -6.63 c -0.29,0.05 -1.31,0.25 -3.48,0.99 -4.45,1.53 -7.48,2.18 -10.12,2.18 -2.11,0 -4.13,-0.38 -6.02,-1.14 -0.54,-0.21 -1.06,-0.47 -1.56,-0.77 -0.81,-0.49 -1.62,-1.07 -2.47,-1.79 -2.59,-2.19 -4.2,-5.34 -4.51,-8.87 -0.25,-2.69 0.18,-5.18 1.28,-7.38 0.05,-0.1 0.1,-0.2 0.15,-0.29 1.98,-3.69 5.14,-6.3 9.01,-7.54 0.02,-0.57 0.04,-1.17 0.07,-1.81 V 52.9 c -4.16,-2.25 -6.78,-6.66 -6.78,-12.02 0,-4.22 1.82,-7.97 5.01,-10.41 -2.18,-1.12 -4.05,-2.81 -5.43,-4.94 -1.45,-2.1 -2.21,-4.53 -2.21,-7.1 0,-5.32 3.21,-9.93 8.61,-12.37 2.54,-1.19 5.05,-1.82 7.47,-1.88 0.53,-0.03 1.63,-0.13 3.61,-0.46 2.73,-0.48 4.49,-0.78 5.28,-0.91 0.09,-0.01 0.17,-0.02 0.26,-0.03 2.83,-0.37 6.92,-0.82 12.49,-1.36 0.24,-0.03 0.47,-0.04 0.71,-0.05 3.18,-0.11 7.7,-0.46 13.45,-1.05 1.27,-0.22 2.44,-0.32 3.56,-0.32 2.02,0 3.9,0.36 5.6,1.06 0.04,0.02 0.08,0.03 0.13,0.05 4.28,1.84 7.22,5.71 7.92,10.39 0.21,1.25 0.21,2.55 0.14,4.48 -0.01,0.6 -0.06,1.63 -0.29,4.49 z"
             transform="matrix(0.2200142,0,0,0.2200142,0,0.5)" />
        </g>
      </g>
      <g
         id="ID0.3863844624720514">
        <path
           style="fill:#ffffff"
           inkscape:connector-curvature="0"
           id="ID0.5626670885831118"
           d="m 59.399,26.437 c -0.115,0.294 -0.346,0.675 -0.692,1.144 -0.751,0.47 -1.704,0.703 -2.858,0.703 -1.213,0 -1.892,-0.469 -2.037,-1.407 -0.146,-0.938 -0.159,-2.287 -0.041,-4.046 0.233,-2.345 0.352,-3.752 0.352,-4.223 0,-1.113 -0.178,-1.964 -0.529,-2.551 -2.412,0.176 -6.235,0.44 -11.471,0.792 -7.177,0.352 -12.616,1.056 -16.322,2.111 -0.059,0.646 -0.206,1.231 -0.44,1.759 0,0.411 0,0.968 0,1.671 0,1.115 0,2.317 0,3.606 0,3.343 0.469,6.892 1.407,10.644 2.169,0.118 5.277,-0.058 9.323,-0.527 0,-0.938 -0.059,-2.257 -0.176,-3.959 -0.176,-1.992 -0.278,-3.342 -0.308,-4.046 -0.03,-0.703 -0.103,-1.377 -0.22,-2.023 -0.06,-0.82 0.028,-1.495 0.264,-2.022 0.233,-0.528 0.908,-0.82 2.023,-0.88 1.056,-0.117 1.816,0 2.287,0.352 0.469,0.353 0.732,0.896 0.791,1.628 0.058,0.733 0.117,1.422 0.176,2.066 0.177,1.994 0.293,4.692 0.353,8.093 1.289,0.352 1.935,1.231 1.935,2.639 0,0.294 -0.03,0.528 -0.088,0.704 -0.294,0.294 -0.675,0.791 -1.144,1.495 -0.059,0.118 -0.059,0.587 0,1.407 0,1.231 0.117,3.138 0.353,5.718 0.176,1.114 0.058,1.818 -0.353,2.11 -0.997,0.704 -2.082,1.056 -3.254,1.056 -1.174,0 -1.848,-0.469 -2.023,-1.407 V 43.15 c -0.061,-0.469 -0.148,-1.144 -0.267,-2.022 -0.415,-0.234 -1.36,-0.293 -2.84,-0.176 -1.064,0.176 -2.159,0.322 -3.283,0.439 -0.829,-0.058 -2.012,0.176 -3.549,0.703 -0.061,-0.352 -0.089,1.379 -0.089,5.19 v 7.213 c 0,-0.059 -0.044,0.807 -0.132,2.595 -0.088,1.789 -0.132,3.152 -0.132,4.09 0,1.583 0,2.346 0,2.287 0.058,0.059 0.146,0.146 0.262,0.264 1.396,0 3.549,-0.117 6.46,-0.352 0.115,0 0.61,-0.088 1.484,-0.264 0.581,-0.177 1.047,-0.205 1.396,-0.088 0.465,0.173 0.915,0.548 1.353,1.125 0.437,0.578 0.655,1.096 0.655,1.558 0,0.635 -0.439,1.212 -1.319,1.73 -0.587,0.288 -1.202,0.605 -1.848,0.952 -0.41,0 -0.997,0 -1.759,0 h -5.102 c -1.467,0 -3.738,0.528 -6.817,1.583 -3.078,1.056 -5.264,1.584 -6.553,1.584 -0.704,0 -1.35,-0.118 -1.936,-0.353 -0.294,-0.176 -0.631,-0.426 -1.011,-0.747 -0.383,-0.323 -0.603,-0.807 -0.66,-1.451 -0.059,-0.645 0,-1.144 0.176,-1.496 0.88,-1.641 2.375,-2.491 4.486,-2.551 3.4,-0.176 5.131,-0.277 5.189,-0.308 0.058,-0.028 0.205,-0.189 0.439,-0.484 -0.059,-1.055 0.029,-4.719 0.265,-10.995 v -9.675 c -2.874,0 -4.457,0 -4.75,0 -1.35,-0.116 -2.023,-0.988 -2.023,-2.618 0,-0.815 0.26,-1.398 0.781,-1.747 0.346,-0.232 0.895,-0.553 1.646,-0.96 0.808,-0.115 1.992,-0.378 3.554,-0.786 -0.206,-1.512 -0.411,-3.723 -0.616,-6.634 0,-0.581 0.103,-1.818 0.309,-3.709 0.204,-1.892 0.308,-3.274 0.308,-4.148 0,-1.221 -0.176,-2.035 -0.527,-2.443 -0.471,0 -1.247,0.103 -2.331,0.308 -1.086,0.206 -1.892,0.308 -2.419,0.308 -1.35,0 -2.347,-0.557 -2.991,-1.671 -0.234,-0.293 -0.352,-0.616 -0.352,-0.968 0,-0.938 0.732,-1.729 2.199,-2.375 1.231,-0.585 2.315,-0.879 3.254,-0.879 1.29,-0.059 2.991,-0.265 5.103,-0.616 2.639,-0.469 4.339,-0.762 5.102,-0.88 2.696,-0.352 6.742,-0.791 12.139,-1.319 3.518,-0.116 8.385,-0.497 14.601,-1.144 1.584,-0.292 2.727,-0.292 3.431,0 0.82,0.353 1.289,1.027 1.407,2.023 0.058,0.235 0.058,1.056 0,2.463 0,0.47 -0.088,1.789 -0.264,3.958 -0.118,1.76 -0.176,3.167 -0.176,4.223 0,0.118 0.061,0.278 0.183,0.483 0.122,0.206 0.185,0.338 0.185,0.396 -0.001,0.411 0.023,0.967 0.071,1.671 z"
           transform="matrix(0.2200142,0,0,0.2200142,0,0.5)" />
      </g>
    </g>
    <g
       aria-label="Use um conectivo lógico para completar a expressão:"
       style="font-style:normal;font-variant:normal;font-weight:normal;font-stretch:normal;font-size:5.78488922px;line-height:1.25;font-family:'URW Gothic L';-inkscape-font-specification:'URW Gothic L';letter-spacing:0px;word-spacing:0px;fill:#000000;fill-opacity:1;stroke:none;stroke-width:0.14462222"
       id="text14-2-3">
      <path
         d="m 15.944096,18.771772 q 0,-0.299413 0.01695,-0.635547 0.01977,-0.336133 0.03955,-0.638371 0.01977,-0.305063 0.04237,-0.542334 0.0226,-0.237271 0.03672,-0.353081 l 0.07909,-0.03955 0.127109,0.166654 0.152531,-0.155356 0.155356,0.48584 0.293764,-0.386977 q -0.02825,0.220323 -0.05367,0.514087 -0.02542,0.293764 -0.04237,0.618599 -0.01412,0.324835 -0.01695,0.652495 0,0.03955 0,0.07909 0,0.282465 0.01977,0.533859 0.01977,0.28529 0.06214,0.511263 0.04237,0.225972 0.118635,0.336133 0.104512,0.149707 0.225973,0.200551 0.09886,0.04237 0.206199,0.04237 0.0226,0 0.04802,0 0.132759,-0.0113 0.268342,-0.06214 0.135584,-0.05367 0.262693,-0.112986 0,-0.237271 -0.0028,-0.547983 -0.0028,-0.313536 -0.0028,-0.655319 0,-0.341783 -0.0028,-0.686391 -0.0028,-0.347432 -0.0028,-0.64967 V 16.9188 16.579841 l 0.09886,-0.05649 0.254219,0.536684 0.220323,-0.491489 q 0.04519,0.0056 0.135583,0.01695 0.09039,0.0113 0.152532,0.01695 0,0.155356 0.0028,0.44912 0.0056,0.290939 0.0056,0.669442 v 0.8135 q 0,0.434997 -0.0085,0.878467 -0.0056,0.440646 -0.01412,0.86152 -0.0085,0.418048 -0.01977,0.76548 l -0.06779,0.03955 -0.214674,-0.432172 -0.214673,0.386977 -0.183603,-0.04519 -0.02542,-0.237271 q -0.265518,0.138408 -0.539509,0.225972 -0.273992,0.08474 -0.514087,0.110162 -0.107337,0.0113 -0.2062,0.01412 -0.118635,0 -0.220323,-0.01977 -0.186427,-0.03107 -0.259868,-0.118635 -0.197725,-0.225972 -0.305062,-0.793728 -0.107337,-0.57058 -0.107337,-1.398203 z"
         style="font-style:normal;font-variant:normal;font-weight:normal;font-stretch:normal;font-family:AngryBirds;-inkscape-font-specification:AngryBirds;stroke-width:0.14462222"
         id="path2067" />
      <path
         d="m 19.237641,18.783071 q 0.0226,-0.293764 0.175129,-0.536684 0.155356,-0.24292 0.395451,-0.418049 0.240096,-0.177953 0.53386,-0.290939 0.296588,-0.112986 0.604475,-0.146882 0.05932,-0.0085 0.144058,-0.0113 0.0226,0 0.04519,0.0028 0.115811,0.0028 0.197726,0.0085 l 0.0226,0.07344 -0.375679,0.209024 0.299413,0.144057 -0.127109,0.121461 0.08756,0.163829 q -0.209024,0.01695 -0.412399,0.05649 -0.200551,0.03955 -0.361556,0.110162 -0.15818,0.07062 -0.268342,0.172304 -0.110161,0.09886 -0.132758,0.231621 -0.0056,0.0339 -0.0056,0.06779 0,0.107337 0.07627,0.180778 0.09886,0.09886 0.237271,0.16383 0.07062,0.02825 0.144057,0.05367 0.07627,0.02542 0.149707,0.05084 0.07062,0.0226 0.132758,0.03955 0.06497,0.01695 0.110162,0.02825 0.276816,0.08756 0.432172,0.240096 0.15818,0.152531 0.15818,0.44912 0,0.313536 -0.172304,0.553632 -0.169479,0.240095 -0.533859,0.423698 -0.144057,0.07062 -0.290939,0.118635 -0.146882,0.04802 -0.288115,0.08191 -0.138408,0.03672 -0.262693,0.05367 -0.124284,0.01695 -0.228796,0.02825 l 0.09886,-0.183602 -0.265517,-0.07627 0.115811,-0.172304 -0.09886,-0.104512 q 0.09886,-0.0226 0.217498,-0.04802 0.118636,-0.02825 0.240096,-0.06214 0.110161,-0.0339 0.223147,-0.08191 0.112986,-0.05084 0.203375,-0.118636 0.09321,-0.07062 0.152532,-0.155356 0.06214,-0.08474 0.06214,-0.180778 0,-0.12146 -0.118635,-0.20055 -0.118636,-0.07909 -0.262693,-0.124285 -0.149707,-0.05084 -0.299413,-0.08474 -0.146882,-0.03672 -0.220323,-0.06497 -0.259868,-0.104512 -0.409575,-0.282466 -0.127109,-0.152531 -0.127109,-0.4011 0,-0.03954 0.0028,-0.08191 z"
         style="font-style:normal;font-variant:normal;font-weight:normal;font-stretch:normal;font-family:AngryBirds;-inkscape-font-specification:AngryBirds;stroke-width:0.14462222"
         id="path2069" />
      <path
         d="m 21.889991,17.7323 0.07909,-0.186427 -0.03955,-0.07627 1.655246,-0.110161 0.05084,0.225972 -0.358731,0.248569 0.341783,0.104513 -0.04519,0.127109 -0.844572,0.07627 -0.01977,0.889765 0.844571,-0.02825 -0.09604,0.302238 0.166654,0.06779 -0.02825,0.155356 -0.875643,0.08756 0.03672,0.943434 0.872818,-0.0339 -0.05649,0.299413 0.155356,0.07062 -0.06497,0.220323 -1.364308,0.07909 0.0226,-0.293764 -0.353081,0.0226 0.03672,-2.706018 -0.07062,-0.115811 0.248569,-0.214673 z"
         style="font-style:normal;font-variant:normal;font-weight:normal;font-stretch:normal;font-family:AngryBirds;-inkscape-font-specification:AngryBirds;stroke-width:0.14462222"
         id="path2071" />
      <path
         d="m 25.189185,19.64459 q 0,-0.324835 0.0028,-0.587528 0.0028,-0.262693 0.01695,-0.508437 0.01412,-0.245745 0.03672,-0.502789 0.0226,-0.257043 0.06497,-0.56493 l 0.189252,0.07626 0.225972,-0.172303 0.214674,0.132758 0.07909,-0.02825 q -0.01695,0.172304 -0.03672,0.451944 -0.01977,0.276816 -0.03955,0.581879 -0.01977,0.302238 -0.02825,0.590352 -0.0028,0.124285 -0.0056,0.228797 0,0.141233 0.0085,0.251394 0.02825,0.545158 0.293764,0.69204 0.08756,0.04802 0.200551,0.04802 0.225972,0 0.545158,-0.194901 0.0339,-0.08191 0.05367,-0.234446 0.0226,-0.155356 0.0339,-0.347432 0.0113,-0.194901 0.01695,-0.415224 0.0056,-0.220323 0.0056,-0.443471 0.0056,-0.375679 0.0085,-0.742884 0.0028,-0.370029 0.01412,-0.618599 l 0.158181,-0.03955 0.194901,0.392627 0.254219,-0.370029 0.135583,-0.0057 q -0.0056,0.237271 -0.01412,0.65532 -0.0056,0.415224 -0.0113,0.923661 -0.0056,0.508438 -0.0056,1.05642 0,0.545158 0.0113,1.033823 l -0.144057,-0.04802 -0.194901,0.16948 -0.214674,-0.141233 -0.169479,0.08192 q -0.0056,-0.02825 -0.01977,-0.07627 -0.01412,-0.05084 -0.05367,-0.155356 -0.172304,0.07627 -0.381328,0.132759 -0.209024,0.05367 -0.409575,0.07344 -0.107336,0.0113 -0.206199,0.0113 -0.08474,0 -0.16383,-0.0085 -0.169479,-0.01695 -0.262693,-0.08757 -0.144057,-0.104512 -0.225972,-0.288114 -0.08192,-0.186427 -0.12146,-0.381328 -0.03955,-0.197726 -0.04802,-0.367205 -0.0085,-0.172304 -0.0085,-0.254219 z"
         style="font-style:normal;font-variant:normal;font-weight:normal;font-stretch:normal;font-family:AngryBirds;-inkscape-font-specification:AngryBirds;stroke-width:0.14462222"
         id="path2073" />
      <path
         d="m 28.194615,21.15013 0.177953,-3.770912 0.180778,-0.07627 0.220323,0.502788 0.24292,-0.403925 0.12146,0.12146 0.101688,-0.08756 0.52256,1.627 h 0.09321 l 0.514087,-1.643948 0.166654,0.12711 0.225973,-0.177953 0.197725,0.282465 0.254219,-0.231622 0.172304,3.609907 -0.110162,0.02825 -0.183602,-0.310711 -0.115811,0.288114 -0.104512,-0.09321 -0.144057,0.05932 -0.12711,-1.765408 -0.104512,-0.02825 -0.6073,1.629824 -0.104512,-0.09039 -0.110162,0.04519 -0.596002,-1.528137 -0.09321,-0.0113 -0.12146,1.793655 -0.177953,0.05084 -0.220323,-0.350257 -0.172304,0.432171 z"
         style="font-style:normal;font-variant:normal;font-weight:normal;font-stretch:normal;font-family:AngryBirds;-inkscape-font-specification:AngryBirds;stroke-width:0.14462222"
         id="path2075" />
      <path
         d="m 32.824221,19.328229 q 0,-0.166655 0.04802,-0.443471 0.05084,-0.27964 0.15818,-0.56493 0.107337,-0.288115 0.282466,-0.522561 0.177953,-0.234446 0.432172,-0.316361 0.282465,-0.08756 0.539508,-0.118636 0.08474,-0.0113 0.177953,-0.0085 0.180778,0 0.375679,0.04237 0.0113,0.01695 0.01695,0.04237 0.0056,0.02542 0.01695,0.04237 l -0.398276,0.141232 0.276816,0.155356 -0.12146,0.104513 0.04802,0.144057 q -0.07627,0.0056 -0.169479,0.01695 -0.09321,0.0113 -0.186427,0.03107 -0.09039,0.01695 -0.175129,0.03954 -0.08474,0.0226 -0.146882,0.05649 -0.11581,0.05649 -0.197725,0.214674 -0.07909,0.155356 -0.129934,0.341783 -0.04802,0.183602 -0.07344,0.367205 -0.0226,0.180777 -0.0226,0.290939 0,0.09886 0.01412,0.234446 0.01695,0.135583 0.05084,0.282465 0.0339,0.144058 0.09321,0.273992 0.06214,0.129934 0.161005,0.211849 0.05084,0.04519 0.155356,0.07062 0.104512,0.02542 0.231622,0.03955 0.127109,0.0113 0.259868,0.01695 0.135583,0.0056 0.251394,0.0056 -0.0113,0.0113 -0.02542,0.03107 -0.0113,0.01977 -0.02825,0.04802 l 0.12146,0.132758 -0.288114,0.16383 0.316361,0.115811 q -0.0113,0.04519 -0.0226,0.06779 -0.347433,0.07626 -0.69769,0.09604 -0.05084,0.0028 -0.101687,0.0028 -0.288115,0 -0.531035,-0.09886 -0.220323,-0.08756 -0.358731,-0.28529 -0.138408,-0.200551 -0.217498,-0.44912 -0.07627,-0.24857 -0.107337,-0.516912 -0.02825,-0.268342 -0.02825,-0.499963 z"
         style="font-style:normal;font-variant:normal;font-weight:normal;font-stretch:normal;font-family:AngryBirds;-inkscape-font-specification:AngryBirds;stroke-width:0.14462222"
         id="path2077" />
      <path
         d="m 35.270371,19.746277 q -0.0113,-0.155355 -0.01412,-0.310711 0,-0.172304 0.01695,-0.344608 0.05649,-0.590353 0.16383,-0.926486 0.107337,-0.336134 0.316361,-0.514087 0.07627,-0.06497 0.192077,-0.129934 0.118635,-0.06779 0.262692,-0.115811 0.146882,-0.05084 0.313537,-0.07062 0.07909,-0.0085 0.15818,-0.0085 l 0.177953,0.0113 -0.0113,0.336134 0.282465,-0.172304 0.12146,0.177953 0.192077,-0.07626 q 0.214673,0.220323 0.327659,0.632722 0.115811,0.409575 0.115811,1.005577 0,0.197725 -0.0226,0.432171 -0.0226,0.234447 -0.08191,0.460419 -0.05649,0.223147 -0.152531,0.412399 -0.09604,0.186427 -0.240096,0.290939 -0.203375,0.144058 -0.409575,0.220323 -0.203375,0.07627 -0.398276,0.09604 -0.09039,0.0085 -0.180777,0.0085 -0.09886,0 -0.189252,-0.0113 -0.172304,-0.0226 -0.313537,-0.07627 -0.177953,-0.06497 -0.310711,-0.259868 -0.129934,-0.197725 -0.211849,-0.468892 -0.07909,-0.271167 -0.104513,-0.598827 z m 0.689216,-0.52821 q -0.0085,0.110162 -0.0056,0.217499 0,0.203375 0.02825,0.4011 0.04237,0.299414 0.158181,0.480191 0.05649,0.09321 0.166654,0.141233 0.110162,0.04519 0.234446,0.04519 0.124285,0 0.237271,-0.04237 0.112986,-0.04519 0.172304,-0.138408 0.05649,-0.09321 0.110161,-0.268342 0.05649,-0.177954 0.08757,-0.389802 0.0339,-0.214674 0.03954,-0.446296 0,-0.03107 0,-0.06214 0,-0.197726 -0.0339,-0.381328 -0.03672,-0.211849 -0.124285,-0.378504 -0.08474,-0.166654 -0.231621,-0.254218 -0.09321,-0.05649 -0.217499,-0.05649 -0.0056,0 -0.01412,0 -0.132759,0.0028 -0.228797,0.09039 -0.166654,0.149707 -0.262692,0.437822 -0.09321,0.28529 -0.115811,0.604475 z"
         style="font-style:normal;font-variant:normal;font-weight:normal;font-stretch:normal;font-family:AngryBirds;-inkscape-font-specification:AngryBirds;stroke-width:0.14462222"
         id="path2079" />
      <path
         d="m 38.301224,17.500678 0.254219,-0.132758 0.203375,0.211849 0.254218,-0.08474 1.180705,2.143912 h 0.115811 l -0.0339,-2.126964 0.149707,-0.08756 0.259868,0.358731 0.24292,-0.364381 0.104512,0.01695 -0.0056,3.714419 -0.06497,0.03955 -0.2062,-0.214674 -0.290939,0.203375 -0.115811,-0.0226 -1.166581,-1.838849 -0.146882,-0.01695 -0.04519,1.867096 -0.166654,-0.0226 -0.225973,-0.307888 -0.169479,0.341783 -0.09886,-0.05084 z"
         style="font-style:normal;font-variant:normal;font-weight:normal;font-stretch:normal;font-family:AngryBirds;-inkscape-font-specification:AngryBirds;stroke-width:0.14462222"
         id="path2081" />
      <path
         d="m 41.470483,17.7323 0.07909,-0.186427 -0.03954,-0.07627 1.655246,-0.110161 0.05084,0.225972 -0.358731,0.248569 0.341783,0.104513 -0.04519,0.127109 -0.844572,0.07627 -0.01977,0.889765 0.844571,-0.02825 -0.09604,0.302238 0.166654,0.06779 -0.02825,0.155356 -0.875643,0.08756 0.03672,0.943434 0.872818,-0.0339 -0.05649,0.299413 0.155356,0.07062 -0.06497,0.220323 -1.364308,0.07909 0.0226,-0.293764 -0.353081,0.0226 0.03672,-2.706018 -0.07062,-0.115811 0.248569,-0.214673 z"
         style="font-style:normal;font-variant:normal;font-weight:normal;font-stretch:normal;font-family:AngryBirds;-inkscape-font-specification:AngryBirds;stroke-width:0.14462222"
         id="path2083" />
      <path
         d="m 43.569201,19.328229 q 0,-0.166655 0.04802,-0.443471 0.05084,-0.27964 0.15818,-0.56493 0.107337,-0.288115 0.282466,-0.522561 0.177953,-0.234446 0.432171,-0.316361 0.282466,-0.08756 0.539509,-0.118636 0.08474,-0.0113 0.177953,-0.0085 0.180778,0 0.375679,0.04237 0.0113,0.01695 0.01695,0.04237 0.0056,0.02542 0.01695,0.04237 l -0.398276,0.141232 0.276816,0.155356 -0.12146,0.104513 0.04802,0.144057 q -0.07627,0.0056 -0.169479,0.01695 -0.09321,0.0113 -0.186427,0.03107 -0.09039,0.01695 -0.175129,0.03954 -0.08474,0.0226 -0.146882,0.05649 -0.115811,0.05649 -0.197726,0.214674 -0.07909,0.155356 -0.129934,0.341783 -0.04802,0.183602 -0.07344,0.367205 -0.0226,0.180777 -0.0226,0.290939 0,0.09886 0.01412,0.234446 0.01695,0.135583 0.05084,0.282465 0.0339,0.144058 0.09321,0.273992 0.06214,0.129934 0.161005,0.211849 0.05084,0.04519 0.155356,0.07062 0.104512,0.02542 0.231621,0.03955 0.12711,0.0113 0.259869,0.01695 0.135583,0.0056 0.251394,0.0056 -0.0113,0.0113 -0.02542,0.03107 -0.0113,0.01977 -0.02825,0.04802 l 0.12146,0.132758 -0.288114,0.16383 0.316361,0.115811 q -0.0113,0.04519 -0.0226,0.06779 -0.347433,0.07626 -0.69769,0.09604 -0.05084,0.0028 -0.101687,0.0028 -0.288115,0 -0.531035,-0.09886 -0.220323,-0.08756 -0.358731,-0.28529 -0.138408,-0.200551 -0.217498,-0.44912 -0.07627,-0.24857 -0.107337,-0.516912 -0.02825,-0.268342 -0.02825,-0.499963 z"
         style="font-style:normal;font-variant:normal;font-weight:normal;font-stretch:normal;font-family:AngryBirds;-inkscape-font-specification:AngryBirds;stroke-width:0.14462222"
         id="path2085" />
      <path
         d="m 45.924962,17.718177 0.02825,-0.101688 2.285144,-0.16383 -0.09321,0.144058 0.16383,0.169479 -0.279641,0.177953 0.279641,0.12146 -0.0226,0.09886 -0.754182,0.05367 -0.03954,2.878322 -0.08756,0.02542 -0.189252,-0.412399 -0.132759,0.353082 -0.141233,-0.144058 -0.166654,0.104513 -0.02825,-2.770985 -0.700514,0.04519 0.02825,-0.104512 -0.09886,-0.07909 0.324835,-0.24292 z"
         style="font-style:normal;font-variant:normal;font-weight:normal;font-stretch:normal;font-family:AngryBirds;-inkscape-font-specification:AngryBirds;stroke-width:0.14462222"
         id="path2087" />
      <path
         d="m 48.712896,21.051267 v -3.598608 l 0.127109,-0.04519 0.192076,0.451944 0.242921,-0.434996 0.172303,0.09321 0.16383,-0.05932 -0.09886,3.657925 -0.07062,0.0226 -0.24292,-0.347432 -0.166655,0.305063 -0.149706,-0.05649 z"
         style="font-style:normal;font-variant:normal;font-weight:normal;font-stretch:normal;font-family:AngryBirds;-inkscape-font-specification:AngryBirds;stroke-width:0.14462222"
         id="path2089" />
      <path
         d="m 49.958565,17.407465 0.09321,-0.03954 0.259868,0.471717 0.104512,-0.415224 0.166655,0.11581 0.127109,-0.161005 0.536684,2.827478 0.104512,-0.02825 0.700514,-2.782283 0.09886,0.04519 0.172304,-0.09886 0.152531,0.418048 0.32201,-0.353081 0.03672,0.02825 -1.042297,3.691822 -0.127109,-0.0113 -0.161006,-0.225972 -0.268342,0.248569 -0.09604,-0.01695 -0.24292,-0.330484 -0.135583,0.282465 -0.08474,-0.0339 z"
         style="font-style:normal;font-variant:normal;font-weight:normal;font-stretch:normal;font-family:AngryBirds;-inkscape-font-specification:AngryBirds;stroke-width:0.14462222"
         id="path2091" />
      <path
         d="m 53.043086,19.746277 q -0.0113,-0.155355 -0.01412,-0.310711 0,-0.172304 0.01695,-0.344608 0.05649,-0.590353 0.16383,-0.926486 0.107336,-0.336134 0.316361,-0.514087 0.07626,-0.06497 0.192076,-0.129934 0.118636,-0.06779 0.262693,-0.115811 0.146882,-0.05084 0.313536,-0.07062 0.07909,-0.0085 0.158181,-0.0085 l 0.177953,0.0113 -0.0113,0.336134 0.282466,-0.172304 0.12146,0.177953 0.192076,-0.07626 q 0.214674,0.220323 0.32766,0.632722 0.115811,0.409575 0.115811,1.005577 0,0.197725 -0.0226,0.432171 -0.0226,0.234447 -0.08191,0.460419 -0.05649,0.223147 -0.152532,0.412399 -0.09604,0.186427 -0.240095,0.290939 -0.203375,0.144058 -0.409575,0.220323 -0.203375,0.07627 -0.398276,0.09604 -0.09039,0.0085 -0.180778,0.0085 -0.09886,0 -0.189252,-0.0113 -0.172303,-0.0226 -0.313536,-0.07627 -0.177953,-0.06497 -0.310712,-0.259868 -0.129934,-0.197725 -0.211849,-0.468892 -0.07909,-0.271167 -0.104512,-0.598827 z m 0.689215,-0.52821 q -0.0085,0.110162 -0.0056,0.217499 0,0.203375 0.02825,0.4011 0.04237,0.299414 0.15818,0.480191 0.05649,0.09321 0.166655,0.141233 0.110161,0.04519 0.234446,0.04519 0.124285,0 0.237271,-0.04237 0.112986,-0.04519 0.172304,-0.138408 0.05649,-0.09321 0.110161,-0.268342 0.05649,-0.177954 0.08756,-0.389802 0.0339,-0.214674 0.03954,-0.446296 0,-0.03107 0,-0.06214 0,-0.197726 -0.0339,-0.381328 -0.03672,-0.211849 -0.124285,-0.378504 -0.08474,-0.166654 -0.231622,-0.254218 -0.09321,-0.05649 -0.217498,-0.05649 -0.0056,0 -0.01412,0 -0.132759,0.0028 -0.228797,0.09039 -0.166655,0.149707 -0.262693,0.437822 -0.09321,0.28529 -0.115811,0.604475 z"
         style="font-style:normal;font-variant:normal;font-weight:normal;font-stretch:normal;font-family:AngryBirds;-inkscape-font-specification:AngryBirds;stroke-width:0.14462222"
         id="path2093" />
      <path
         d="m 57.31961,17.574119 0.110162,0.01695 0.161005,-0.115811 0.169479,0.28529 0.299413,-0.4011 0.09321,0.03107 -0.09886,3.112767 h 0.954733 l -0.237271,0.200551 0.324835,0.127109 -0.16383,0.197726 0.05932,0.08191 -1.302165,0.09604 -0.05084,-0.316361 -0.307887,0.04519 z"
         style="font-style:normal;font-variant:normal;font-weight:normal;font-stretch:normal;font-family:AngryBirds;-inkscape-font-specification:AngryBirds;stroke-width:0.14462222"
         id="path2095" />
      <path
         d="m 59.576511,20.345104 q -0.07909,-0.271167 -0.107336,-0.596002 -0.02542,-0.32766 0.0056,-0.658144 0.05649,-0.590353 0.16383,-0.926486 0.107337,-0.336134 0.316361,-0.514087 0.07626,-0.06497 0.192076,-0.129934 0.118636,-0.06779 0.262693,-0.115811 0.146882,-0.05084 0.313536,-0.07062 0.166655,-0.01977 0.336134,0.0028 l -0.0113,0.336134 0.282465,-0.172304 0.12146,0.177953 0.192076,-0.07626 q 0.214674,0.220323 0.32766,0.632722 0.115811,0.409575 0.115811,1.005577 0,0.197725 -0.0226,0.432171 -0.0226,0.234447 -0.08191,0.460419 -0.05649,0.223147 -0.152532,0.412399 -0.09604,0.186427 -0.240095,0.290939 -0.203375,0.144058 -0.409575,0.220323 -0.203375,0.07627 -0.401101,0.09604 -0.194901,0.01977 -0.370029,-0.0028 -0.172304,-0.0226 -0.310712,-0.07627 -0.177953,-0.06497 -0.310712,-0.259868 -0.129934,-0.197725 -0.211849,-0.468892 z m 0.703339,-1.731512 q -0.09321,0.28529 -0.118635,0.604475 -0.0226,0.319186 0.01977,0.621424 0.04519,0.299413 0.161005,0.477366 0.05649,0.09321 0.166655,0.141233 0.110161,0.04519 0.234446,0.04519 0.124285,0 0.237271,-0.04237 0.112986,-0.04519 0.172304,-0.138408 0.05649,-0.09321 0.110161,-0.268342 0.05649,-0.177954 0.08756,-0.389802 0.0339,-0.214674 0.03955,-0.446296 0.0056,-0.231621 -0.0339,-0.44347 -0.03672,-0.211849 -0.124285,-0.378504 -0.08474,-0.166654 -0.231622,-0.254218 -0.09886,-0.05649 -0.231621,-0.05367 -0.132759,0.0028 -0.228797,0.08756 -0.166655,0.149707 -0.259868,0.437822 z m 0.155356,-1.686318 0.646845,-0.994278 0.132759,-0.0113 -0.03954,0.228797 0.347432,-0.02825 -0.03672,0.138408 0.12146,0.05367 -0.768306,0.680741 -0.138408,-0.138408 -0.203375,0.12711 z"
         style="font-style:normal;font-variant:normal;font-weight:normal;font-stretch:normal;font-family:AngryBirds;-inkscape-font-specification:AngryBirds;stroke-width:0.14462222"
         id="path2097" />
      <path
         d="m 62.457657,19.712382 q -0.01412,-0.132759 -0.01412,-0.268342 0,-0.138408 0.01412,-0.28529 0.0339,-0.353082 0.09604,-0.632723 0.06497,-0.27964 0.175129,-0.488665 0.110161,-0.209024 0.282465,-0.347432 0.175129,-0.138408 0.434997,-0.220323 0.254218,-0.08191 0.494314,-0.09321 0.05649,-0.0028 0.115811,-0.0057 0.186427,0 0.384153,0.03672 l 0.03672,0.06779 -0.307887,0.115811 0.237271,0.220323 -0.155356,0.104512 0.07909,0.149707 q -0.09321,0.0056 -0.2062,0.01695 -0.110161,0.0085 -0.223147,0.03107 -0.112986,0.0226 -0.211849,0.05367 -0.09886,0.03107 -0.161005,0.08474 -0.144058,0.115811 -0.234447,0.36438 -0.09039,0.24857 -0.110161,0.536684 -0.0056,0.08192 -0.0056,0.16383 0,0.2062 0.03672,0.409575 0.05084,0.282465 0.186427,0.474542 0.07062,0.09321 0.169479,0.144057 0.101688,0.04802 0.217499,0.06214 0.05367,0.0056 0.104512,0.0056 l 0.127109,-0.0085 q 0.115811,-0.01695 0.214674,-0.05932 0.0113,-0.293764 0.0226,-0.564931 0.0085,-0.180778 0.0056,-0.341783 0,-0.07909 0,-0.152531 l 0.110162,-0.07344 0.189252,0.347432 0.225972,-0.336133 0.07626,-0.0226 q -0.0085,0.299414 -0.0085,0.618599 0,0.158181 0.0028,0.324836 0.0056,0.491489 0.01695,0.988628 l -0.203375,0.06779 -0.155356,-0.305063 -0.254219,0.209025 q 0,-0.02825 -0.0028,-0.06497 -0.0028,-0.03954 -0.01977,-0.104512 -0.344607,0.112986 -0.629897,0.112986 -0.06497,0 -0.12711,-0.0056 -0.333309,-0.03107 -0.516911,-0.180778 -0.12146,-0.09886 -0.228797,-0.268342 -0.107337,-0.172304 -0.180778,-0.395451 -0.07062,-0.223148 -0.09886,-0.48584 z"
         style="font-style:normal;font-variant:normal;font-weight:normal;font-stretch:normal;font-family:AngryBirds;-inkscape-font-specification:AngryBirds;stroke-width:0.14462222"
         id="path2099" />
      <path
         d="m 65.265359,21.051267 v -3.598608 l 0.12711,-0.04519 0.192076,0.451944 0.24292,-0.434996 0.172304,0.09321 0.16383,-0.05932 -0.09886,3.657925 -0.07062,0.0226 -0.24292,-0.347432 -0.166655,0.305063 -0.149707,-0.05649 z"
         style="font-style:normal;font-variant:normal;font-weight:normal;font-stretch:normal;font-family:AngryBirds;-inkscape-font-specification:AngryBirds;stroke-width:0.14462222"
         id="path2101" />
      <path
         d="m 66.561876,19.328229 q 0,-0.166655 0.04802,-0.443471 0.05084,-0.27964 0.158181,-0.56493 0.107337,-0.288115 0.282465,-0.522561 0.177953,-0.234446 0.432172,-0.316361 0.282465,-0.08756 0.539509,-0.118636 0.08474,-0.0113 0.177953,-0.0085 0.180778,0 0.375679,0.04237 0.0113,0.01695 0.01695,0.04237 0.0056,0.02542 0.01695,0.04237 l -0.398276,0.141232 0.276816,0.155356 -0.12146,0.104513 0.04802,0.144057 q -0.07627,0.0056 -0.16948,0.01695 -0.09321,0.0113 -0.186427,0.03107 -0.09039,0.01695 -0.175128,0.03954 -0.08474,0.0226 -0.146882,0.05649 -0.115811,0.05649 -0.197726,0.214674 -0.07909,0.155356 -0.129934,0.341783 -0.04802,0.183602 -0.07344,0.367205 -0.0226,0.180777 -0.0226,0.290939 0,0.09886 0.01412,0.234446 0.01695,0.135583 0.05084,0.282465 0.0339,0.144058 0.09321,0.273992 0.06214,0.129934 0.161005,0.211849 0.05084,0.04519 0.155356,0.07062 0.104512,0.02542 0.231621,0.03955 0.12711,0.0113 0.259868,0.01695 0.135584,0.0056 0.251394,0.0056 -0.0113,0.0113 -0.02542,0.03107 -0.0113,0.01977 -0.02825,0.04802 l 0.12146,0.132758 -0.288115,0.16383 0.316362,0.115811 q -0.0113,0.04519 -0.0226,0.06779 -0.347432,0.07626 -0.697689,0.09604 -0.05084,0.0028 -0.101687,0.0028 -0.288115,0 -0.531035,-0.09886 -0.220323,-0.08756 -0.358731,-0.28529 -0.138408,-0.200551 -0.217498,-0.44912 -0.07627,-0.24857 -0.107337,-0.516912 -0.02825,-0.268342 -0.02825,-0.499963 z"
         style="font-style:normal;font-variant:normal;font-weight:normal;font-stretch:normal;font-family:AngryBirds;-inkscape-font-specification:AngryBirds;stroke-width:0.14462222"
         id="path2103" />
      <path
         d="m 69.008025,19.746277 q -0.0113,-0.155355 -0.01412,-0.310711 0,-0.172304 0.01695,-0.344608 0.05649,-0.590353 0.16383,-0.926486 0.107337,-0.336134 0.316361,-0.514087 0.07627,-0.06497 0.192076,-0.129934 0.118636,-0.06779 0.262693,-0.115811 0.146882,-0.05084 0.313536,-0.07062 0.07909,-0.0085 0.158181,-0.0085 l 0.177953,0.0113 -0.0113,0.336134 0.282465,-0.172304 0.12146,0.177953 0.192076,-0.07626 q 0.214674,0.220323 0.32766,0.632722 0.115811,0.409575 0.115811,1.005577 0,0.197725 -0.0226,0.432171 -0.0226,0.234447 -0.08191,0.460419 -0.05649,0.223147 -0.152532,0.412399 -0.09604,0.186427 -0.240095,0.290939 -0.203375,0.144058 -0.409575,0.220323 -0.203375,0.07627 -0.398276,0.09604 -0.09039,0.0085 -0.180778,0.0085 -0.09886,0 -0.189251,-0.0113 -0.172304,-0.0226 -0.313537,-0.07627 -0.177953,-0.06497 -0.310712,-0.259868 -0.129934,-0.197725 -0.211849,-0.468892 -0.07909,-0.271167 -0.104512,-0.598827 z m 0.689216,-0.52821 q -0.0085,0.110162 -0.0057,0.217499 0,0.203375 0.02825,0.4011 0.04237,0.299414 0.15818,0.480191 0.05649,0.09321 0.166655,0.141233 0.110161,0.04519 0.234446,0.04519 0.124285,0 0.237271,-0.04237 0.112986,-0.04519 0.172304,-0.138408 0.05649,-0.09321 0.110161,-0.268342 0.05649,-0.177954 0.08756,-0.389802 0.0339,-0.214674 0.03955,-0.446296 0,-0.03107 0,-0.06214 0,-0.197726 -0.0339,-0.381328 -0.03672,-0.211849 -0.124285,-0.378504 -0.08474,-0.166654 -0.231622,-0.254218 -0.09321,-0.05649 -0.217498,-0.05649 -0.0056,0 -0.01412,0 -0.132759,0.0028 -0.228797,0.09039 -0.166655,0.149707 -0.262693,0.437822 -0.09321,0.28529 -0.11581,0.604475 z"
         style="font-style:normal;font-variant:normal;font-weight:normal;font-stretch:normal;font-family:AngryBirds;-inkscape-font-specification:AngryBirds;stroke-width:0.14462222"
         id="path2105" />
      <path
         d="m 73.064226,17.61084 0.0339,-0.141233 q 0.237271,-0.08756 0.542334,-0.152531 0.307887,-0.06497 0.612949,-0.08474 0.07909,-0.0056 0.155356,-0.0028 0.217499,0 0.4124,0.03672 0.262692,0.04802 0.40675,0.186427 0.231621,0.225972 0.313536,0.516912 0.05649,0.197725 0.05367,0.395451 0,0.09321 -0.0113,0.186427 -0.03672,0.293764 -0.177953,0.573405 -0.138408,0.276816 -0.350257,0.480191 -0.07062,0.06497 -0.180778,0.135583 -0.110161,0.06779 -0.245745,0.132759 -0.135583,0.06214 -0.296588,0.118635 -0.158181,0.05367 -0.319186,0.08756 l -0.0056,1.005577 -0.104513,0.03672 -0.11581,-0.324835 -0.231622,0.313537 -0.149707,-0.175129 -0.11581,0.07062 -0.02825,-2.892445 -0.127109,-0.09886 0.347432,-0.358731 z m 0.878468,0.426522 0.03107,1.358658 q 0.144057,-0.05084 0.265517,-0.110161 0.104512,-0.04519 0.20055,-0.09321 0.09886,-0.05084 0.146882,-0.09039 0.12146,-0.110162 0.2062,-0.259868 0.08756,-0.149707 0.112986,-0.305063 0.0085,-0.05649 0.0113,-0.107337 0,-0.09604 -0.03107,-0.183602 -0.04519,-0.138408 -0.194901,-0.231622 -0.07062,-0.04237 -0.186428,-0.04519 -0.0085,0 -0.01412,0.0028 -0.124285,0.0028 -0.245745,0.01412 -0.146882,0.0226 -0.302237,0.05084 z"
         style="font-style:normal;font-variant:normal;font-weight:normal;font-stretch:normal;font-family:AngryBirds;-inkscape-font-specification:AngryBirds;stroke-width:0.14462222"
         id="path2107" />
      <path
         d="m 75.470831,21.006073 0.745708,-3.570362 0.231621,0.07062 0.211849,-0.186427 0.319186,0.392626 0.180778,-0.353081 0.20055,0.12146 0.186427,-0.107337 0.675092,3.655101 -0.127109,-0.08756 -0.211849,0.12146 -0.16383,-0.209025 -0.155356,0.158181 -0.214673,-0.782429 -1.076193,0.08756 -0.2062,0.788079 -0.05932,0.0226 -0.183603,-0.231622 -0.231621,0.183603 z m 0.946258,-1.34736 0.827624,-0.07626 -0.288115,-1.296516 -0.24292,0.01695 z"
         style="font-style:normal;font-variant:normal;font-weight:normal;font-stretch:normal;font-family:AngryBirds;-inkscape-font-specification:AngryBirds;stroke-width:0.14462222"
         id="path2109" />
      <path
         d="m 78.448017,17.602366 0.01977,-0.107337 q 0.319186,-0.104512 0.638372,-0.158181 0.32201,-0.05649 0.621423,-0.05932 0.01695,0 0.03107,0 0.282466,0 0.528211,0.04802 0.257043,0.05084 0.446295,0.175128 0.172304,0.110162 0.273991,0.276816 0.104512,0.166655 0.124285,0.375679 0.0056,0.05084 0.0056,0.107337 0,0.161005 -0.04802,0.341783 -0.06214,0.240096 -0.214674,0.488665 -0.02825,0.05084 -0.08756,0.127109 -0.05932,0.07627 -0.129934,0.16383 -0.06779,0.08474 -0.149707,0.169479 -0.07909,0.08191 -0.155355,0.146882 0.07062,0.166655 0.149706,0.353082 0.08191,0.183602 0.158181,0.355906 0.07909,0.169479 0.149706,0.313537 0.07062,0.141232 0.110162,0.220323 l -0.03955,0.04237 -0.336134,-0.186427 -0.01695,0.288115 -0.115811,-0.05084 -0.104512,0.07062 -0.700514,-1.081843 -0.36438,0.144058 -0.02825,0.867168 -0.09321,-0.0113 -0.192077,-0.302238 -0.149706,0.389802 -0.104512,-0.04237 q -0.0057,-0.172304 -0.01977,-0.494314 -0.01412,-0.322011 -0.02542,-0.700514 -0.0113,-0.378504 -0.0113,-0.768306 0,-0.389802 0.0226,-0.708988 l 0.01695,-0.225972 -0.183603,-0.132759 0.305063,-0.276816 z m 0.833273,1.819076 q 0.209024,-0.08191 0.429347,-0.220323 0.220323,-0.138408 0.381329,-0.302237 0.161005,-0.166655 0.234446,-0.344608 0.0339,-0.07909 0.0339,-0.158181 0,-0.09321 -0.04802,-0.183602 -0.05084,-0.09321 -0.217498,-0.118636 -0.135583,-0.0226 -0.27964,-0.0226 -0.03107,0 -0.06497,0 -0.209024,0.0113 -0.457593,0.05367 z"
         style="font-style:normal;font-variant:normal;font-weight:normal;font-stretch:normal;font-family:AngryBirds;-inkscape-font-specification:AngryBirds;stroke-width:0.14462222"
         id="path2111" />
      <path
         d="m 81.312215,21.006073 0.745709,-3.570362 0.231621,0.07062 0.211849,-0.186427 0.319186,0.392626 0.180778,-0.353081 0.20055,0.12146 0.186427,-0.107337 0.675092,3.655101 -0.127109,-0.08756 -0.211849,0.12146 -0.16383,-0.209025 -0.155356,0.158181 -0.214673,-0.782429 -1.076193,0.08756 -0.2062,0.788079 -0.05932,0.0226 -0.183602,-0.231622 -0.231622,0.183603 z m 0.946259,-1.34736 0.827623,-0.07626 -0.288114,-1.296516 -0.24292,0.01695 z"
         style="font-style:normal;font-variant:normal;font-weight:normal;font-stretch:normal;font-family:AngryBirds;-inkscape-font-specification:AngryBirds;stroke-width:0.14462222"
         id="path2113" />
      <path
         d="m 85.407957,19.328229 q 0,-0.166655 0.04802,-0.443471 0.05084,-0.27964 0.158181,-0.56493 0.107337,-0.288115 0.282465,-0.522561 0.177953,-0.234446 0.432172,-0.316361 0.282465,-0.08756 0.539509,-0.118636 0.08474,-0.0113 0.177953,-0.0085 0.180778,0 0.375679,0.04237 0.0113,0.01695 0.01695,0.04237 0.0056,0.02542 0.01695,0.04237 l -0.398276,0.141232 0.276816,0.155356 -0.12146,0.104513 0.04802,0.144057 q -0.07627,0.0056 -0.169479,0.01695 -0.09321,0.0113 -0.186427,0.03107 -0.09039,0.01695 -0.175128,0.03954 -0.08474,0.0226 -0.146882,0.05649 -0.115811,0.05649 -0.197726,0.214674 -0.07909,0.155356 -0.129934,0.341783 -0.04802,0.183602 -0.07344,0.367205 -0.0226,0.180777 -0.0226,0.290939 0,0.09886 0.01412,0.234446 0.01695,0.135583 0.05084,0.282465 0.0339,0.144058 0.09321,0.273992 0.06214,0.129934 0.161006,0.211849 0.05084,0.04519 0.155355,0.07062 0.104513,0.02542 0.231622,0.03955 0.127109,0.0113 0.259868,0.01695 0.135583,0.0056 0.251394,0.0056 -0.0113,0.0113 -0.02542,0.03107 -0.0113,0.01977 -0.02825,0.04802 l 0.12146,0.132758 -0.288115,0.16383 0.316361,0.115811 q -0.0113,0.04519 -0.0226,0.06779 -0.347432,0.07626 -0.697689,0.09604 -0.05084,0.0028 -0.101688,0.0028 -0.288114,0 -0.531034,-0.09886 -0.220323,-0.08756 -0.358731,-0.28529 -0.138408,-0.200551 -0.217499,-0.44912 -0.07626,-0.24857 -0.107336,-0.516912 -0.02825,-0.268342 -0.02825,-0.499963 z"
         style="font-style:normal;font-variant:normal;font-weight:normal;font-stretch:normal;font-family:AngryBirds;-inkscape-font-specification:AngryBirds;stroke-width:0.14462222"
         id="path2115" />
      <path
         d="m 87.85411,19.746277 q -0.0113,-0.155355 -0.01412,-0.310711 0,-0.172304 0.01695,-0.344608 0.05649,-0.590353 0.16383,-0.926486 0.107337,-0.336134 0.316361,-0.514087 0.07627,-0.06497 0.192077,-0.129934 0.118635,-0.06779 0.262693,-0.115811 0.146882,-0.05084 0.313536,-0.07062 0.07909,-0.0085 0.158181,-0.0085 l 0.177953,0.0113 -0.0113,0.336134 0.282465,-0.172304 0.12146,0.177953 0.192077,-0.07626 q 0.214674,0.220323 0.32766,0.632722 0.11581,0.409575 0.11581,1.005577 0,0.197725 -0.0226,0.432171 -0.0226,0.234447 -0.08191,0.460419 -0.05649,0.223147 -0.152531,0.412399 -0.09604,0.186427 -0.240096,0.290939 -0.203375,0.144058 -0.409574,0.220323 -0.203375,0.07627 -0.398276,0.09604 -0.09039,0.0085 -0.180778,0.0085 -0.09886,0 -0.189252,-0.0113 -0.172304,-0.0226 -0.313536,-0.07627 -0.177953,-0.06497 -0.310712,-0.259868 -0.129934,-0.197725 -0.211849,-0.468892 -0.07909,-0.271167 -0.104512,-0.598827 z m 0.689215,-0.52821 q -0.0085,0.110162 -0.0056,0.217499 0,0.203375 0.02825,0.4011 0.04237,0.299414 0.158181,0.480191 0.05649,0.09321 0.166654,0.141233 0.110162,0.04519 0.234447,0.04519 0.124284,0 0.23727,-0.04237 0.112987,-0.04519 0.172304,-0.138408 0.05649,-0.09321 0.110162,-0.268342 0.05649,-0.177954 0.08756,-0.389802 0.0339,-0.214674 0.03954,-0.446296 0,-0.03107 0,-0.06214 0,-0.197726 -0.0339,-0.381328 -0.03672,-0.211849 -0.124284,-0.378504 -0.08474,-0.166654 -0.231622,-0.254218 -0.09321,-0.05649 -0.217498,-0.05649 -0.0057,0 -0.01412,0 -0.132758,0.0028 -0.228796,0.09039 -0.166655,0.149707 -0.262693,0.437822 -0.09321,0.28529 -0.115811,0.604475 z"
         style="font-style:normal;font-variant:normal;font-weight:normal;font-stretch:normal;font-family:AngryBirds;-inkscape-font-specification:AngryBirds;stroke-width:0.14462222"
         id="path2117" />
      <path
         d="m 90.834118,21.15013 0.177954,-3.770912 0.180777,-0.07627 0.220323,0.502788 0.24292,-0.403925 0.121461,0.12146 0.101687,-0.08756 0.522561,1.627 h 0.09321 l 0.514087,-1.643948 0.166655,0.12711 0.225972,-0.177953 0.197726,0.282465 0.254218,-0.231622 0.172304,3.609907 -0.110161,0.02825 -0.183603,-0.310711 -0.11581,0.288114 -0.104513,-0.09321 -0.144057,0.05932 -0.127109,-1.765408 -0.104512,-0.02825 -0.607301,1.629824 -0.104512,-0.09039 -0.110161,0.04519 -0.596002,-1.528137 -0.09321,-0.0113 -0.12146,1.793655 -0.177953,0.05084 -0.220323,-0.350257 -0.172304,0.432171 z"
         style="font-style:normal;font-variant:normal;font-weight:normal;font-stretch:normal;font-family:AngryBirds;-inkscape-font-specification:AngryBirds;stroke-width:0.14462222"
         id="path2119" />
      <path
         d="m 94.30562,17.61084 0.0339,-0.141233 q 0.237271,-0.08756 0.542334,-0.152531 0.307887,-0.06497 0.612949,-0.08474 0.07909,-0.0056 0.155356,-0.0028 0.217499,0 0.4124,0.03672 0.262692,0.04802 0.40675,0.186427 0.231621,0.225972 0.313536,0.516912 0.05649,0.197725 0.05367,0.395451 0,0.09321 -0.0113,0.186427 -0.03672,0.293764 -0.177953,0.573405 -0.138408,0.276816 -0.350257,0.480191 -0.07062,0.06497 -0.180778,0.135583 -0.110161,0.06779 -0.245745,0.132759 -0.135583,0.06214 -0.296588,0.118635 -0.158181,0.05367 -0.319186,0.08756 l -0.0056,1.005577 -0.104513,0.03672 -0.11581,-0.324835 -0.231622,0.313537 -0.149707,-0.175129 -0.11581,0.07062 -0.02825,-2.892445 -0.127109,-0.09886 0.347432,-0.358731 z m 0.878468,0.426522 0.03107,1.358658 q 0.144057,-0.05084 0.265517,-0.110161 0.104512,-0.04519 0.20055,-0.09321 0.09886,-0.05084 0.146882,-0.09039 0.12146,-0.110162 0.2062,-0.259868 0.08756,-0.149707 0.112986,-0.305063 0.0085,-0.05649 0.0113,-0.107337 0,-0.09604 -0.03107,-0.183602 -0.04519,-0.138408 -0.194901,-0.231622 -0.07062,-0.04237 -0.186428,-0.04519 -0.0085,0 -0.01412,0.0028 -0.124285,0.0028 -0.245745,0.01412 -0.146882,0.0226 -0.302237,0.05084 z"
         style="font-style:normal;font-variant:normal;font-weight:normal;font-stretch:normal;font-family:AngryBirds;-inkscape-font-specification:AngryBirds;stroke-width:0.14462222"
         id="path2121" />
      <path
         d="m 97.373188,17.574119 0.110161,0.01695 0.161005,-0.115811 0.16948,0.28529 0.299413,-0.4011 0.09321,0.03107 -0.09886,3.112767 h 0.954733 l -0.237271,0.200551 0.324835,0.127109 -0.163829,0.197726 0.05932,0.08191 -1.302165,0.09604 -0.05084,-0.316361 -0.307887,0.04519 z"
         style="font-style:normal;font-variant:normal;font-weight:normal;font-stretch:normal;font-family:AngryBirds;-inkscape-font-specification:AngryBirds;stroke-width:0.14462222"
         id="path2123" />
      <path
         d="m 99.51145,17.7323 0.07909,-0.186427 -0.03955,-0.07627 1.655245,-0.110161 0.0509,0.225972 -0.35874,0.248569 0.34179,0.104513 -0.0452,0.127109 -0.84457,0.07627 -0.0198,0.889765 0.84457,-0.02825 -0.096,0.302238 0.16666,0.06779 -0.0282,0.155356 -0.87564,0.08756 0.0367,0.943434 0.87282,-0.0339 -0.0565,0.299413 0.15536,0.07062 -0.065,0.220323 -1.364306,0.07909 0.0226,-0.293764 -0.353081,0.0226 0.03672,-2.706018 -0.07062,-0.115811 0.248569,-0.214673 z"
         style="font-style:normal;font-variant:normal;font-weight:normal;font-stretch:normal;font-family:AngryBirds;-inkscape-font-specification:AngryBirds;stroke-width:0.14462222"
         id="path2125" />
      <path
         d="m 101.58192,17.718177 0.0282,-0.101688 2.28514,-0.16383 -0.0932,0.144058 0.16383,0.169479 -0.27964,0.177953 0.27964,0.12146 -0.0226,0.09886 -0.75418,0.05367 -0.0395,2.878322 -0.0876,0.02542 -0.18925,-0.412399 -0.13276,0.353082 -0.14123,-0.144058 -0.16666,0.104513 -0.0282,-2.770985 -0.70051,0.04519 0.0282,-0.104512 -0.0989,-0.07909 0.32484,-0.24292 z"
         style="font-style:normal;font-variant:normal;font-weight:normal;font-stretch:normal;font-family:AngryBirds;-inkscape-font-specification:AngryBirds;stroke-width:0.14462222"
         id="path2127" />
      <path
         d="m 103.90944,21.006073 0.74571,-3.570362 0.23162,0.07062 0.21185,-0.186427 0.31918,0.392626 0.18078,-0.353081 0.20055,0.12146 0.18643,-0.107337 0.67509,3.655101 -0.12711,-0.08756 -0.21185,0.12146 -0.16383,-0.209025 -0.15536,0.158181 -0.21467,-0.782429 -1.07619,0.08756 -0.2062,0.788079 -0.0593,0.0226 -0.1836,-0.231622 -0.23162,0.183603 z m 0.94626,-1.34736 0.82762,-0.07626 -0.28812,-1.296516 -0.24292,0.01695 z"
         style="font-style:normal;font-variant:normal;font-weight:normal;font-stretch:normal;font-family:AngryBirds;-inkscape-font-specification:AngryBirds;stroke-width:0.14462222"
         id="path2129" />
      <path
         d="m 106.88662,17.602366 0.0198,-0.107337 q 0.31918,-0.104512 0.63837,-0.158181 0.32201,-0.05649 0.62142,-0.05932 0.0169,0 0.0311,0 0.28247,0 0.52821,0.04802 0.25705,0.05084 0.4463,0.175128 0.1723,0.110162 0.27399,0.276816 0.10451,0.166655 0.12428,0.375679 0.006,0.05084 0.006,0.107337 0,0.161005 -0.048,0.341783 -0.0621,0.240096 -0.21467,0.488665 -0.0282,0.05084 -0.0876,0.127109 -0.0593,0.07627 -0.12994,0.16383 -0.0678,0.08474 -0.1497,0.169479 -0.0791,0.08191 -0.15536,0.146882 0.0706,0.166655 0.14971,0.353082 0.0819,0.183602 0.15818,0.355906 0.0791,0.169479 0.1497,0.313537 0.0706,0.141232 0.11017,0.220323 l -0.0395,0.04237 -0.33613,-0.186427 -0.0169,0.288115 -0.11581,-0.05084 -0.10451,0.07062 -0.70052,-1.081843 -0.36438,0.144058 -0.0282,0.867168 -0.0932,-0.0113 -0.19208,-0.302238 -0.1497,0.389802 -0.10451,-0.04237 q -0.006,-0.172304 -0.0198,-0.494314 -0.0141,-0.322011 -0.0254,-0.700514 -0.0113,-0.378504 -0.0113,-0.768306 0,-0.389802 0.0226,-0.708988 l 0.017,-0.225972 -0.1836,-0.132759 0.30506,-0.276816 z m 0.83328,1.819076 q 0.20902,-0.08191 0.42934,-0.220323 0.22033,-0.138408 0.38133,-0.302237 0.16101,-0.166655 0.23445,-0.344608 0.0339,-0.07909 0.0339,-0.158181 0,-0.09321 -0.048,-0.183602 -0.0508,-0.09321 -0.21749,-0.118636 -0.13559,-0.0226 -0.27964,-0.0226 -0.0311,0 -0.065,0 -0.20903,0.0113 -0.4576,0.05367 z"
         style="font-style:normal;font-variant:normal;font-weight:normal;font-stretch:normal;font-family:AngryBirds;-inkscape-font-specification:AngryBirds;stroke-width:0.14462222"
         id="path2131" />
      <path
         d="m 110.90328,21.006073 0.74571,-3.570362 0.23162,0.07062 0.21185,-0.186427 0.31918,0.392626 0.18078,-0.353081 0.20055,0.12146 0.18643,-0.107337 0.67509,3.655101 -0.12711,-0.08756 -0.21185,0.12146 -0.16383,-0.209025 -0.15535,0.158181 -0.21468,-0.782429 -1.07619,0.08756 -0.2062,0.788079 -0.0593,0.0226 -0.1836,-0.231622 -0.23162,0.183603 z m 0.94626,-1.34736 0.82762,-0.07626 -0.28811,-1.296516 -0.24292,0.01695 z"
         style="font-style:normal;font-variant:normal;font-weight:normal;font-stretch:normal;font-family:AngryBirds;-inkscape-font-specification:AngryBirds;stroke-width:0.14462222"
         id="path2133" />
      <path
         d="m 115.04704,17.7323 0.0791,-0.186427 -0.0395,-0.07627 1.65524,-0.110161 0.0509,0.225972 -0.35873,0.248569 0.34178,0.104513 -0.0452,0.127109 -0.84457,0.07627 -0.0198,0.889765 0.84457,-0.02825 -0.096,0.302238 0.16666,0.06779 -0.0282,0.155356 -0.87564,0.08756 0.0367,0.943434 0.87282,-0.0339 -0.0565,0.299413 0.15536,0.07062 -0.065,0.220323 -1.3643,0.07909 0.0226,-0.293764 -0.35308,0.0226 0.0367,-2.706018 -0.0706,-0.115811 0.24856,-0.214673 z"
         style="font-style:normal;font-variant:normal;font-weight:normal;font-stretch:normal;font-family:AngryBirds;-inkscape-font-specification:AngryBirds;stroke-width:0.14462222"
         id="path2135" />
      <path
         d="m 117.14011,17.469607 0.0819,-0.05084 0.29942,0.225973 0.0113,-0.254219 0.065,0.02825 0.14971,-0.06497 0.53386,1.217426 0.55363,-1.273919 0.14406,0.0339 0.0424,0.401101 0.28811,-0.28529 0.0819,0.02825 -0.67227,1.714565 0.71746,1.768233 -0.1949,-0.0339 -0.0254,0.132758 -0.31636,-0.166654 -0.10451,0.138408 -0.53386,-1.158108 -0.51974,1.273919 h -0.16666 l -0.0537,-0.265518 -0.29377,0.166655 -0.0537,-0.02825 0.66097,-1.666545 z"
         style="font-style:normal;font-variant:normal;font-weight:normal;font-stretch:normal;font-family:AngryBirds;-inkscape-font-specification:AngryBirds;stroke-width:0.14462222"
         id="path2137" />
      <path
         d="m 119.60321,17.61084 0.0339,-0.141233 q 0.23727,-0.08756 0.54233,-0.152531 0.30789,-0.06497 0.61295,-0.08474 0.0791,-0.0056 0.15536,-0.0028 0.2175,0 0.4124,0.03672 0.26269,0.04802 0.40675,0.186427 0.23162,0.225972 0.31354,0.516912 0.0565,0.197725 0.0537,0.395451 0,0.09321 -0.0113,0.186427 -0.0367,0.293764 -0.17796,0.573405 -0.13841,0.276816 -0.35025,0.480191 -0.0706,0.06497 -0.18078,0.135583 -0.11016,0.06779 -0.24575,0.132759 -0.13558,0.06214 -0.29659,0.118635 -0.15818,0.05367 -0.31918,0.08756 l -0.006,1.005577 -0.10451,0.03672 -0.11581,-0.324835 -0.23163,0.313537 -0.1497,-0.175129 -0.11581,0.07062 -0.0282,-2.892445 -0.12711,-0.09886 0.34743,-0.358731 z m 0.87846,0.426522 0.0311,1.358658 q 0.14406,-0.05084 0.26552,-0.110161 0.10451,-0.04519 0.20055,-0.09321 0.0989,-0.05084 0.14688,-0.09039 0.12146,-0.110162 0.2062,-0.259868 0.0876,-0.149707 0.11299,-0.305063 0.008,-0.05649 0.0113,-0.107337 0,-0.09604 -0.0311,-0.183602 -0.0452,-0.138408 -0.1949,-0.231622 -0.0706,-0.04237 -0.18643,-0.04519 -0.008,0 -0.0141,0.0028 -0.12428,0.0028 -0.24574,0.01412 -0.14688,0.0226 -0.30224,0.05084 z"
         style="font-style:normal;font-variant:normal;font-weight:normal;font-stretch:normal;font-family:AngryBirds;-inkscape-font-specification:AngryBirds;stroke-width:0.14462222"
         id="path2139" />
      <path
         d="m 122.49,17.602366 0.0198,-0.107337 q 0.31919,-0.104512 0.63838,-0.158181 0.32201,-0.05649 0.62142,-0.05932 0.0169,0 0.0311,0 0.28247,0 0.52821,0.04802 0.25704,0.05084 0.4463,0.175128 0.1723,0.110162 0.27399,0.276816 0.10451,0.166655 0.12428,0.375679 0.006,0.05084 0.006,0.107337 0,0.161005 -0.048,0.341783 -0.0621,0.240096 -0.21467,0.488665 -0.0282,0.05084 -0.0876,0.127109 -0.0593,0.07627 -0.12993,0.16383 -0.0678,0.08474 -0.14971,0.169479 -0.0791,0.08191 -0.15535,0.146882 0.0706,0.166655 0.1497,0.353082 0.0819,0.183602 0.15819,0.355906 0.0791,0.169479 0.1497,0.313537 0.0706,0.141232 0.11016,0.220323 l -0.0395,0.04237 -0.33614,-0.186427 -0.0169,0.288115 -0.11581,-0.05084 -0.10452,0.07062 -0.70051,-1.081843 -0.36438,0.144058 -0.0282,0.867168 -0.0932,-0.0113 -0.19208,-0.302238 -0.1497,0.389802 -0.10452,-0.04237 q -0.006,-0.172304 -0.0198,-0.494314 -0.0141,-0.322011 -0.0254,-0.700514 -0.0113,-0.378504 -0.0113,-0.768306 0,-0.389802 0.0226,-0.708988 l 0.0169,-0.225972 -0.18361,-0.132759 0.30507,-0.276816 z m 0.83327,1.819076 q 0.20903,-0.08191 0.42935,-0.220323 0.22032,-0.138408 0.38133,-0.302237 0.16101,-0.166655 0.23445,-0.344608 0.0339,-0.07909 0.0339,-0.158181 0,-0.09321 -0.048,-0.183602 -0.0508,-0.09321 -0.2175,-0.118636 -0.13558,-0.0226 -0.27964,-0.0226 -0.0311,0 -0.065,0 -0.20903,0.0113 -0.4576,0.05367 z"
         style="font-style:normal;font-variant:normal;font-weight:normal;font-stretch:normal;font-family:AngryBirds;-inkscape-font-specification:AngryBirds;stroke-width:0.14462222"
         id="path2141" />
      <path
         d="m 125.47566,17.7323 0.0791,-0.186427 -0.0395,-0.07627 1.65524,-0.110161 0.0508,0.225972 -0.35874,0.248569 0.34179,0.104513 -0.0452,0.127109 -0.84457,0.07627 -0.0198,0.889765 0.84457,-0.02825 -0.096,0.302238 0.16666,0.06779 -0.0282,0.155356 -0.87564,0.08756 0.0367,0.943434 0.87282,-0.0339 -0.0565,0.299413 0.15536,0.07062 -0.065,0.220323 -1.36431,0.07909 0.0226,-0.293764 -0.35308,0.0226 0.0367,-2.706018 -0.0706,-0.115811 0.24857,-0.214673 z"
         style="font-style:normal;font-variant:normal;font-weight:normal;font-stretch:normal;font-family:AngryBirds;-inkscape-font-specification:AngryBirds;stroke-width:0.14462222"
         id="path2143" />
      <path
         d="m 127.60262,18.783071 q 0.0226,-0.293764 0.17513,-0.536684 0.15536,-0.24292 0.39545,-0.418049 0.2401,-0.177953 0.53386,-0.290939 0.29659,-0.112986 0.60448,-0.146882 0.0593,-0.0085 0.14406,-0.0113 0.0226,0 0.0452,0.0028 0.11581,0.0028 0.19773,0.0085 l 0.0226,0.07344 -0.37568,0.209024 0.29942,0.144057 -0.12711,0.121461 0.0876,0.163829 q -0.20902,0.01695 -0.4124,0.05649 -0.20055,0.03955 -0.36155,0.110162 -0.15818,0.07062 -0.26834,0.172304 -0.11017,0.09886 -0.13276,0.231621 -0.006,0.0339 -0.006,0.06779 0,0.107337 0.0763,0.180778 0.0989,0.09886 0.23727,0.16383 0.0706,0.02825 0.14406,0.05367 0.0763,0.02542 0.14971,0.05084 0.0706,0.0226 0.13276,0.03955 0.065,0.01695 0.11016,0.02825 0.27681,0.08756 0.43217,0.240096 0.15818,0.152531 0.15818,0.44912 0,0.313536 -0.1723,0.553632 -0.16948,0.240095 -0.53386,0.423698 -0.14406,0.07062 -0.29094,0.118635 -0.14688,0.04802 -0.28812,0.08191 -0.1384,0.03672 -0.26269,0.05367 -0.12428,0.01695 -0.2288,0.02825 l 0.0989,-0.183602 -0.26552,-0.07627 0.11581,-0.172304 -0.0989,-0.104512 q 0.0989,-0.0226 0.2175,-0.04802 0.11863,-0.02825 0.24009,-0.06214 0.11016,-0.0339 0.22315,-0.08191 0.11298,-0.05084 0.20337,-0.118636 0.0932,-0.07062 0.15253,-0.155356 0.0622,-0.08474 0.0622,-0.180778 0,-0.12146 -0.11864,-0.20055 -0.11863,-0.07909 -0.26269,-0.124285 -0.14971,-0.05084 -0.29941,-0.08474 -0.14689,-0.03672 -0.22033,-0.06497 -0.25987,-0.104512 -0.40957,-0.282466 -0.12711,-0.152531 -0.12711,-0.4011 0,-0.03954 0.003,-0.08191 z"
         style="font-style:normal;font-variant:normal;font-weight:normal;font-stretch:normal;font-family:AngryBirds;-inkscape-font-specification:AngryBirds;stroke-width:0.14462222"
         id="path2145" />
      <path
         d="m 130.2352,18.783071 q 0.0226,-0.293764 0.17513,-0.536684 0.15535,-0.24292 0.39545,-0.418049 0.24009,-0.177953 0.53386,-0.290939 0.29659,-0.112986 0.60447,-0.146882 0.0593,-0.0085 0.14406,-0.0113 0.0226,0 0.0452,0.0028 0.11581,0.0028 0.19772,0.0085 l 0.0226,0.07344 -0.37568,0.209024 0.29941,0.144057 -0.12711,0.121461 0.0876,0.163829 q -0.20903,0.01695 -0.4124,0.05649 -0.20055,0.03955 -0.36156,0.110162 -0.15818,0.07062 -0.26834,0.172304 -0.11016,0.09886 -0.13276,0.231621 -0.006,0.0339 -0.006,0.06779 0,0.107337 0.0763,0.180778 0.0989,0.09886 0.23727,0.16383 0.0706,0.02825 0.14406,0.05367 0.0763,0.02542 0.1497,0.05084 0.0706,0.0226 0.13276,0.03955 0.065,0.01695 0.11016,0.02825 0.27682,0.08756 0.43218,0.240096 0.15818,0.152531 0.15818,0.44912 0,0.313536 -0.17231,0.553632 -0.16948,0.240095 -0.53386,0.423698 -0.14405,0.07062 -0.29094,0.118635 -0.14688,0.04802 -0.28811,0.08191 -0.13841,0.03672 -0.26269,0.05367 -0.12429,0.01695 -0.2288,0.02825 l 0.0989,-0.183602 -0.26551,-0.07627 0.11581,-0.172304 -0.0989,-0.104512 q 0.0989,-0.0226 0.2175,-0.04802 0.11864,-0.02825 0.2401,-0.06214 0.11016,-0.0339 0.22314,-0.08191 0.11299,-0.05084 0.20338,-0.118636 0.0932,-0.07062 0.15253,-0.155356 0.0621,-0.08474 0.0621,-0.180778 0,-0.12146 -0.11863,-0.20055 -0.11864,-0.07909 -0.26269,-0.124285 -0.14971,-0.05084 -0.29942,-0.08474 -0.14688,-0.03672 -0.22032,-0.06497 -0.25987,-0.104512 -0.40958,-0.282466 -0.12711,-0.152531 -0.12711,-0.4011 0,-0.03954 0.003,-0.08191 z"
         style="font-style:normal;font-variant:normal;font-weight:normal;font-stretch:normal;font-family:AngryBirds;-inkscape-font-specification:AngryBirds;stroke-width:0.14462222"
         id="path2147" />
      <path
         d="m 132.76609,21.006073 0.74571,-3.570362 0.23162,0.07062 0.21185,-0.186427 0.31918,0.392626 0.18078,-0.353081 0.20055,0.12146 0.18643,-0.107337 0.67509,3.655101 -0.12711,-0.08756 -0.21185,0.12146 -0.16383,-0.209025 -0.15535,0.158181 -0.21468,-0.782429 -1.07619,0.08756 -0.2062,0.788079 -0.0593,0.0226 -0.1836,-0.231622 -0.23162,0.183603 z m 0.161,-4.299122 q 0.0283,-0.04519 0.0508,-0.08191 0.0254,-0.03955 0.048,-0.07909 0.0876,-0.144058 0.18642,-0.245745 0.10169,-0.101688 0.28247,-0.129934 0.18643,-0.0339 0.29659,-0.0056 0.11298,0.02825 0.21185,0.09039 0.0508,0.0339 0.0989,0.07344 0.0508,0.03672 0.11016,0.07344 0.065,0.03955 0.12711,0.07062 0.0621,0.03107 0.14406,0.06214 0.0763,0.0226 0.14123,0.0085 0.0678,-0.01412 0.12428,-0.05367 0.0593,-0.04237 0.10452,-0.09321 0.0452,-0.05367 0.0876,-0.104512 0.0452,-0.05649 0.0847,-0.135583 0.0169,0 0.0339,0.0056 0.0198,0.0028 0.0367,0.0028 l -0.017,0.144057 h 0.13841 l -0.0113,0.132759 0.0819,0.03955 q -0.065,0.132758 -0.15535,0.271166 -0.0904,0.135584 -0.15818,0.197726 -0.14406,0.127109 -0.32484,0.161005 -0.17795,0.03107 -0.34743,-0.0226 -0.0282,-0.0113 -0.0678,-0.03107 -0.0367,-0.01977 -0.0819,-0.04802 -0.0452,-0.02825 -0.0989,-0.06214 -0.0508,-0.03672 -0.0989,-0.07344 -0.10452,-0.07062 -0.21185,-0.127109 -0.10451,-0.05649 -0.20903,-0.06779 -0.0452,0 -0.11298,0.06214 -0.0678,0.05932 -0.12994,0.132758 -0.0282,0.0339 -0.0537,0.07062 -0.0226,0.0339 -0.0508,0.06497 l -0.0226,0.02825 -0.0452,-0.0056 0.0508,-0.144057 h -0.17513 l 0.0367,-0.09886 q -0.0283,-0.0226 -0.0537,-0.03955 -0.0226,-0.01977 -0.0508,-0.04237 z m 0.78526,2.951762 0.82762,-0.07626 -0.28811,-1.296516 -0.24292,0.01695 z"
         style="font-style:normal;font-variant:normal;font-weight:normal;font-stretch:normal;font-family:AngryBirds;-inkscape-font-specification:AngryBirds;stroke-width:0.14462222"
         id="path2149" />
      <path
         d="m 135.77152,19.746277 q -0.0113,-0.155355 -0.0141,-0.310711 0,-0.172304 0.017,-0.344608 0.0565,-0.590353 0.16383,-0.926486 0.10733,-0.336134 0.31636,-0.514087 0.0763,-0.06497 0.19207,-0.129934 0.11864,-0.06779 0.2627,-0.115811 0.14688,-0.05084 0.31353,-0.07062 0.0791,-0.0085 0.15818,-0.0085 l 0.17796,0.0113 -0.0113,0.336134 0.28246,-0.172304 0.12146,0.177953 0.19208,-0.07626 q 0.21467,0.220323 0.32766,0.632722 0.11581,0.409575 0.11581,1.005577 0,0.197725 -0.0226,0.432171 -0.0226,0.234447 -0.0819,0.460419 -0.0565,0.223147 -0.15253,0.412399 -0.096,0.186427 -0.2401,0.290939 -0.20337,0.144058 -0.40957,0.220323 -0.20338,0.07627 -0.39828,0.09604 -0.0904,0.0085 -0.18078,0.0085 -0.0989,0 -0.18925,-0.0113 -0.1723,-0.0226 -0.31354,-0.07627 -0.17795,-0.06497 -0.31071,-0.259868 -0.12993,-0.197725 -0.21185,-0.468892 -0.0791,-0.271167 -0.10451,-0.598827 z m 0.68922,-0.52821 q -0.008,0.110162 -0.006,0.217499 0,0.203375 0.0282,0.4011 0.0424,0.299414 0.15818,0.480191 0.0565,0.09321 0.16666,0.141233 0.11016,0.04519 0.23445,0.04519 0.12428,0 0.23727,-0.04237 0.11298,-0.04519 0.1723,-0.138408 0.0565,-0.09321 0.11016,-0.268342 0.0565,-0.177954 0.0876,-0.389802 0.0339,-0.214674 0.0395,-0.446296 0,-0.03107 0,-0.06214 0,-0.197726 -0.0339,-0.381328 -0.0367,-0.211849 -0.12429,-0.378504 -0.0847,-0.166654 -0.23162,-0.254218 -0.0932,-0.05649 -0.2175,-0.05649 -0.006,0 -0.0141,0 -0.13276,0.0028 -0.2288,0.09039 -0.16665,0.149707 -0.26269,0.437822 -0.0932,0.28529 -0.11581,0.604475 z"
         style="font-style:normal;font-variant:normal;font-weight:normal;font-stretch:normal;font-family:AngryBirds;-inkscape-font-specification:AngryBirds;stroke-width:0.14462222"
         id="path2151" />
      <path
         d="m 138.83062,21.039968 q -0.10169,-0.110161 -0.11016,-0.231621 -0.006,-0.12146 0.0254,-0.319186 0.017,-0.132759 0.096,-0.234446 0.0819,-0.104512 0.19772,-0.158181 0.11582,-0.05649 0.24575,-0.05649 0.12993,0 0.24574,0.07344 0.0339,0.0226 0.0537,0.12711 0.0226,0.104512 0.0141,0.234446 -0.008,0.129934 -0.0508,0.254219 -0.0395,0.124284 -0.11581,0.189251 -0.0706,0.05649 -0.161,0.09886 -0.0876,0.03955 -0.17513,0.05649 -0.0847,0.01695 -0.15818,0.0085 -0.0706,-0.0085 -0.10734,-0.04237 z m 0.14688,-2.093067 q -0.10451,-0.110162 -0.11016,-0.231622 -0.006,-0.12146 0.0226,-0.319186 0.017,-0.132758 0.096,-0.237271 0.0819,-0.104512 0.19772,-0.15818 0.11581,-0.05649 0.24575,-0.05649 0.12993,0 0.24574,0.07626 0.0339,0.0226 0.0537,0.12711 0.0226,0.104512 0.0141,0.234446 -0.008,0.129934 -0.0508,0.254219 -0.0395,0.124285 -0.11299,0.189252 -0.0706,0.05649 -0.161,0.09886 -0.0876,0.03955 -0.17513,0.05649 -0.0876,0.01695 -0.16101,0.0085 -0.0706,-0.0085 -0.10451,-0.04237 z"
         style="font-style:normal;font-variant:normal;font-weight:normal;font-stretch:normal;font-family:AngryBirds;-inkscape-font-specification:AngryBirds;stroke-width:0.14462222"
         id="path2153" />
    </g>
    <path
       style="opacity:1;fill:#e580ff;fill-opacity:1;stroke:#e580ff;stroke-width:0.46005794;stroke-linecap:round;stroke-linejoin:round;stroke-miterlimit:4;stroke-dasharray:none;stroke-dashoffset:0;stroke-opacity:1"
       d="m 24.759953,27.500135 h 21.083292 c 2.317882,0 4.183902,1.866021 4.183902,4.183903 v 7.665136 c 0,2.317883 -1.86602,4.183903 -4.183902,4.183903 H 24.759953 c -2.317883,0 -4.183903,-1.86602 -4.183903,-4.183903 v -7.665136 c 0,-2.317882 1.86602,-4.183903 4.183903,-4.183903 z"
       id="rect1090" />
    <g
       aria-label="4 &lt; 7 "
       style="font-style:normal;font-variant:normal;font-weight:normal;font-stretch:normal;font-size:15.26951599px;line-height:1.25;font-family:'URW Gothic L';-inkscape-font-specification:'URW Gothic L';letter-spacing:0px;word-spacing:0px;fill:#000000;fill-opacity:1;stroke:none;stroke-width:0.38173789"
       id="text14-7">
      <path
         d="m 21.835859,37.134524 0.506995,-7.634758 0.08947,-0.02982 0.275866,0.976713 0.626288,-0.641201 0.171484,0.521908 0.439893,-0.156573 -0.260953,5.360734 2.661727,-0.260954 v -5.875185 l 0.07456,-0.05965 0.596466,1.05127 0.790316,-0.991624 0.305689,0.02982 0.04473,5.934831 1.058726,-0.134205 0.01491,0.335512 -1.058727,0.760493 0.887243,0.342968 -0.350424,0.49954 0.231131,0.305689 -0.827596,0.119293 0.04473,3.727909 -0.350424,0.07456 -0.514451,-0.626289 -0.275865,0.961801 -0.492084,-0.08947 -0.17894,-3.981407 -3.787556,0.223675 v -0.790317 z"
         style="font-style:normal;font-variant:normal;font-weight:normal;font-stretch:normal;font-family:AngryBirds;-inkscape-font-specification:AngryBirds;fill:#000000;stroke-width:0.38173789"
         id="path2059" />
      <path
         d="m 33.064321,35.792476 2.646816,-6.322534 0.395158,-0.201307 0.581554,0.462261 0.715758,-0.462261 0.335512,0.320601 0.104382,-0.02982 -2.564802,5.800627 2.885402,6.143594 -0.07456,0.07456 -0.745582,-0.350423 -0.671024,0.73067 -0.402614,-0.02982 z"
         style="font-style:normal;font-variant:normal;font-weight:normal;font-stretch:normal;font-family:AngryBirds;-inkscape-font-specification:AngryBirds;fill:#000000;stroke-width:0.38173789"
         id="path2061" />
      <path
         d="m 42.018758,29.715984 0.02982,-0.246042 5.204162,-0.395158 -0.149117,0.790317 0.872331,-0.07456 -0.05219,0.656112 0.477173,0.02982 -3.787556,10.549983 -0.395158,-0.208763 -0.335512,0.208763 -0.04474,-0.991624 -1.148196,1.297312 -0.119293,-0.05965 3.094164,-9.849136 h -2.95996 l 0.231131,-0.439893 -0.611377,-0.320601 0.917065,-0.656112 z"
         style="font-style:normal;font-variant:normal;font-weight:normal;font-stretch:normal;font-family:AngryBirds;-inkscape-font-specification:AngryBirds;fill:#000000;stroke-width:0.38173789"
         id="path2063" />
    </g>
    <path
       style="opacity:1;fill:#e580ff;fill-opacity:1;stroke:#e580ff;stroke-width:0.5919528;stroke-linecap:round;stroke-linejoin:round;stroke-miterlimit:4;stroke-dasharray:none;stroke-dashoffset:0;stroke-opacity:1"
       d="m 73.280351,27.566084 h 40.863989 c 2.29881,0 4.14948,1.85067 4.14948,4.149484 v 7.602081 c 0,2.298815 -1.85067,4.149485 -4.14948,4.149485 H 73.280351 c -2.298814,0 -4.149484,-1.85067 -4.149484,-4.149485 v -7.602081 c 0,-2.298814 1.85067,-4.149484 4.149484,-4.149484 z"
       id="rect1090-5" />
    <g
       aria-label="7 + 3 = 9 "
       style="font-style:normal;font-variant:normal;font-weight:normal;font-stretch:normal;font-size:15.26951599px;line-height:1.25;font-family:'URW Gothic L';-inkscape-font-specification:'URW Gothic L';letter-spacing:0px;word-spacing:0px;fill:#000000;fill-opacity:1;stroke:none;stroke-width:0.38173789"
       id="text14-7-3">
      <path
         d="m 70.436565,29.902561 0.02982,-0.246042 5.204161,-0.395158 -0.149116,0.790317 0.872331,-0.07456 -0.05219,0.656112 0.477172,0.02982 -3.787555,10.549983 -0.395159,-0.208763 -0.335512,0.208763 -0.04473,-0.991624 -1.148196,1.297312 -0.119293,-0.05965 3.094165,-9.849136 H 71.1225 l 0.23113,-0.439894 -0.611377,-0.3206 0.917066,-0.656112 z"
         style="font-style:normal;font-variant:normal;font-weight:normal;font-stretch:normal;font-family:AngryBirds;-inkscape-font-specification:AngryBirds;fill:#000000;stroke-width:0.38173789"
         id="path2047" />
      <path
         d="m 80.076938,36.605342 0.611377,-0.521907 -0.275865,-1.021447 1.72975,-0.156573 0.01491,-2.162187 0.82014,-0.05219 0.492084,-0.529363 0.469716,0.02982 v 2.639359 l 1.878866,-0.134205 0.02982,0.260954 -0.529363,0.73067 0.514451,0.536819 -0.04474,0.283321 -1.878866,0.432438 -0.134205,2.445508 h -0.827596 l -0.656112,-0.0671 -0.104381,-2.162187 -2.020527,0.119293 z"
         style="font-style:normal;font-variant:normal;font-weight:normal;font-stretch:normal;font-family:AngryBirds;-inkscape-font-specification:AngryBirds;fill:#000000;stroke-width:0.38173789"
         id="path2049" />
      <path
         d="m 89.836604,40.653851 0.08947,-0.305688 q 0.492084,-0.07456 1.043815,-0.223675 0.559186,-0.149116 1.096005,-0.357879 0.536819,-0.216219 0.984168,-0.49954 0.454805,-0.283321 0.708303,-0.633744 0.260954,-0.350424 0.283321,-0.753038 0.02237,-0.402614 -0.298233,-0.879787 -0.104381,-0.149116 -0.350423,-0.23113 -0.246042,-0.08947 -0.544275,-0.134205 -0.290777,-0.04474 -0.618833,-0.05219 -0.328056,-0.0075 -0.58901,-0.0075 l 0.134205,-0.447349 -0.3206,-0.260954 0.581554,-0.454805 -0.73067,-0.469717 q 0.454805,-0.246042 0.931977,-0.596465 0.484628,-0.350423 0.82014,-0.760493 0.335512,-0.417526 0.41007,-0.879787 0.08201,-0.469717 -0.26841,-0.939433 -0.305688,-0.395159 -0.760493,-0.477173 -0.447349,-0.08947 -0.879787,-0.05965 -0.305688,0.02982 -0.656112,0.07456 -0.350423,0.04473 -0.715758,0.104382 l 0.447349,-0.58901 -0.626289,-0.23113 0.626289,-0.424982 -0.447349,-0.506996 q 0.566642,-0.171484 1.23021,-0.253498 0.663568,-0.08201 1.297312,-0.08947 0.633745,-0.0075 1.155652,0.04473 0.529363,0.05219 0.805229,0.164028 0.656112,0.260953 0.969256,0.864874 0.313144,0.596466 0.23113,1.394239 -0.08201,0.790316 -0.566642,1.707382 -0.477172,0.917066 -1.40915,1.804308 1.036359,0.350423 1.58809,0.812684 0.55173,0.454805 0.685935,0.775405 0.216219,0.536819 0.141661,1.110917 -0.0671,0.566642 -0.35788,1.103461 -0.290777,0.529363 -0.745582,1.006536 -0.454804,0.469716 -1.006535,0.805228 -0.790317,0.492084 -1.781941,0.738126 -0.984168,0.253498 -1.856498,0.335512 0.01491,-0.04473 0.05219,-0.111837 l 0.05965,-0.119293 0.05965,-0.119293 -0.395158,-0.156573 0.790317,-0.656112 z"
         style="font-style:normal;font-variant:normal;font-weight:normal;font-stretch:normal;font-family:AngryBirds;-inkscape-font-specification:AngryBirds;fill:#000000;stroke-width:0.38173789"
         id="path2051" />
      <path
         d="m 100.64754,38.402194 0.6412,-0.424981 -0.39516,-0.760494 3.713,-0.246042 0.23113,0.454805 -0.59647,0.447349 0.19386,0.760494 -3.6459,0.492084 0.0746,-0.417526 z m 0.0522,-3.750276 0.23859,-0.387703 -0.0447,-0.715759 3.68318,-0.134204 0.0149,0.275865 -0.46226,0.6412 0.46226,0.559187 -0.0969,0.246042 -3.5266,0.395158 0.1864,-0.424982 z"
         style="font-style:normal;font-variant:normal;font-weight:normal;font-stretch:normal;font-family:AngryBirds;-inkscape-font-specification:AngryBirds;fill:#000000;stroke-width:0.38173789"
         id="path2053" />
      <path
         d="m 108.72965,33.272591 q 0.0149,-0.469716 0.12675,-0.991624 0.11183,-0.529363 0.30569,-1.021447 0.19385,-0.492084 0.4548,-0.90961 0.26841,-0.417525 0.58901,-0.693391 0.38025,-0.3206 0.98417,-0.46226 0.60392,-0.149117 1.24512,-0.141661 0.6412,0.0075 1.22275,0.149116 0.58156,0.134205 0.88725,0.350424 0.27586,0.201307 0.49208,0.566642 0.22367,0.365335 0.38025,0.827596 0.16403,0.462261 0.27586,0.976712 0.1193,0.514452 0.17894,0.99908 0.0746,0.626288 0.10438,1.386782 0.0298,0.753038 -0.0224,1.558266 -0.0522,0.797773 -0.1864,1.603001 -0.12675,0.797772 -0.35042,1.498619 -0.21622,0.700847 -0.55173,1.26749 -0.33552,0.566642 -0.78286,0.887242 -0.3206,0.23113 -0.8276,0.365335 -0.49954,0.141661 -1.08855,0.186395 -0.58155,0.04474 -1.19293,-0.02237 -0.61138,-0.05965 -1.1482,-0.208763 0.0597,-0.05965 0.14166,-0.119293 0.0895,-0.0671 0.14912,-0.09693 l -0.30569,-0.395158 1.19293,-0.104381 -1.11837,-0.827596 0.0149,-0.01491 q 0.3206,0.02982 0.67848,0.0671 0.35788,0.03728 0.71576,0.04474 0.36533,0.0075 0.7083,-0.04474 0.34297,-0.05219 0.64866,-0.216218 0.24604,-0.134205 0.42498,-0.395159 0.1864,-0.260953 0.29823,-0.581554 0.1193,-0.3206 0.17894,-0.685935 0.0596,-0.372791 0.0746,-0.738126 -0.58155,0.08947 -1.15565,0.104382 -0.56664,0.01491 -1.06618,-0.02982 -0.49954,-0.04474 -0.87233,-0.14166 -0.37279,-0.09693 -0.52191,-0.238586 -0.68594,-0.596466 -1.02145,-1.543355 -0.33551,-0.946889 -0.26095,-2.214378 z m 2.1771,-1.170563 q -0.16403,0.439893 -0.21622,0.939433 -0.0522,0.492084 0.0224,1.028903 0.0746,0.529363 0.3206,1.036358 0.18639,0.365336 0.51445,0.529364 0.33551,0.156572 0.7083,0.156572 0.38025,0 0.71576,-0.134205 0.33551,-0.141661 0.52191,-0.380247 0.23113,-0.3206 0.3206,-0.82014 0.0895,-0.49954 0.0596,-1.043814 -0.0298,-0.551731 -0.15657,-1.081094 -0.11929,-0.536819 -0.30569,-0.939433 -0.0895,-0.216219 -0.38024,-0.328056 -0.29078,-0.111837 -0.62629,-0.126749 -0.33552,-0.01491 -0.64866,0.08947 -0.31314,0.09692 -0.44735,0.290777 -0.23113,0.335512 -0.40261,0.782861 z"
         style="font-style:normal;font-variant:normal;font-weight:normal;font-stretch:normal;font-family:AngryBirds;-inkscape-font-specification:AngryBirds;fill:#000000;stroke-width:0.38173789"
         id="path2055" />
    </g>
  </g>
</svg>
